solid Data logger Main v1
facet normal -3.021392659872811e-16 1.6395153968301604e-17 -1.0
  outer loop
    vertex 1929.4563326833363 1413.9045917120159 3.74999999999981
    vertex 1925.9563326833365 1395.4045917120156 3.74999999999981
    vertex 1925.9563326833365 1413.9045917120159 3.7499999999998113
  endloop
endfacet
facet normal -3.021392659872811e-16 1.6395153968301604e-17 -1.0
  outer loop
    vertex 1925.9563326833365 1395.4045917120156 3.74999999999981
    vertex 1929.4563326833363 1413.9045917120159 3.74999999999981
    vertex 1929.4563326833363 1395.4045917120156 3.74999999999981
  endloop
endfacet
facet normal 0.0 0.0 1.0
  outer loop
    vertex 1929.4563326833363 1395.4045917120156 69.75
    vertex 1925.9563326833365 1413.9045917120159 69.75
    vertex 1925.9563326833365 1395.4045917120156 69.75
  endloop
endfacet
facet normal 0.0 0.0 1.0
  outer loop
    vertex 1925.9563326833365 1413.9045917120159 69.75
    vertex 1929.4563326833363 1395.4045917120156 69.75
    vertex 1929.4563326833363 1413.9045917120159 69.75
  endloop
endfacet
facet normal 5.287437154777556e-16 1.6395153968301604e-17 -1.0
  outer loop
    vertex 1925.9563326833365 1415.9045917120159 1.7499999999998106
    vertex 1923.9563326833365 1393.4045917120156 1.7499999999998106
    vertex 1923.9563326833365 1415.9045917120159 1.7499999999998106
  endloop
endfacet
facet normal 5.287437154777556e-16 1.6395153968301604e-17 -1.0
  outer loop
    vertex 1923.9563326833365 1393.4045917120156 1.7499999999998106
    vertex 1925.9563326833365 1415.9045917120159 1.7499999999998106
    vertex 1925.9563326833365 1393.4045917120156 1.7499999999998106
  endloop
endfacet
facet normal 0.0 0.0 1.0
  outer loop
    vertex 1925.9563326833365 1393.4045917120156 71.74999999999999
    vertex 1923.9563326833365 1415.9045917120159 71.74999999999999
    vertex 1923.9563326833365 1393.4045917120156 71.74999999999999
  endloop
endfacet
facet normal 0.0 0.0 1.0
  outer loop
    vertex 1923.9563326833365 1415.9045917120159 71.74999999999999
    vertex 1925.9563326833365 1393.4045917120156 71.74999999999999
    vertex 1925.9563326833365 1415.9045917120159 71.74999999999999
  endloop
endfacet
facet normal 0.0 1.0 0.0
  outer loop
    vertex 1923.9563326833365 1415.9045917120159 71.74999999999999
    vertex 1925.9563326833365 1415.9045917120159 1.7499999999998106
    vertex 1923.9563326833365 1415.9045917120159 1.7499999999998106
  endloop
endfacet
facet normal 0.0 1.0 0.0
  outer loop
    vertex 1925.9563326833365 1415.9045917120159 1.7499999999998106
    vertex 1923.9563326833365 1415.9045917120159 71.74999999999999
    vertex 1925.9563326833365 1415.9045917120159 71.74999999999999
  endloop
endfacet
facet normal 1.0 0.0 6.953538177230635e-14
  outer loop
    vertex 1925.9563326833365 1395.4045917120156 32.80903533472306
    vertex 1925.956332683336 1393.4045917120156 37.999999999993484
    vertex 1925.9563326833365 1393.4045917120156 32.80903533472306
  endloop
endfacet
facet normal 1.0 0.0 6.953538177230635e-14
  outer loop
    vertex 1925.956332683336 1393.4045917120156 37.999999999993484
    vertex 1925.9563326833365 1395.4045917120156 32.80903533472306
    vertex 1925.956332683336 1395.4045917120156 37.999999999993484
  endloop
endfacet
facet normal 0.0 -1.0 0.0
  outer loop
    vertex 1925.9563326833365 1393.4045917120156 71.74999999999999
    vertex 1923.956332683337 1393.4045917120156 60.5
    vertex 1925.9563326833365 1393.4045917120156 60.5
  endloop
endfacet
facet normal 0.0 -1.0 0.0
  outer loop
    vertex 1923.956332683337 1393.4045917120156 60.5
    vertex 1925.9563326833365 1393.4045917120156 71.74999999999999
    vertex 1923.9563326833365 1393.4045917120156 71.74999999999999
  endloop
endfacet
facet normal 0.0 -1.0 0.0
  outer loop
    vertex 1929.4563326833363 1395.4045917120156 69.75
    vertex 1925.9563326833365 1395.4045917120156 60.5
    vertex 1929.4563326833363 1395.4045917120156 60.5
  endloop
endfacet
facet normal 0.0 -1.0 0.0
  outer loop
    vertex 1925.9563326833365 1395.4045917120156 60.5
    vertex 1929.4563326833363 1395.4045917120156 69.75
    vertex 1925.9563326833365 1395.4045917120156 69.75
  endloop
endfacet
facet normal 0.0 -1.0 0.0
  outer loop
    vertex 1929.4563326833363 1411.9045917120159 60.5
    vertex 1923.956332683338 1411.9045917120159 50.50000000000001
    vertex 1929.4563326833363 1411.9045917120159 50.50000000000001
  endloop
endfacet
facet normal 0.0 -1.0 0.0
  outer loop
    vertex 1923.956332683338 1411.9045917120159 50.50000000000001
    vertex 1929.4563326833363 1411.9045917120159 60.5
    vertex 1923.956332683338 1411.9045917120159 60.5
  endloop
endfacet
facet normal 0.0 0.0 -1.0
  outer loop
    vertex 1929.4563326833363 1411.9045917120159 60.5
    vertex 1925.9563326833365 1395.4045917120156 60.5
    vertex 1923.956332683338 1411.9045917120159 60.5
  endloop
endfacet
facet normal 0.0 0.0 -1.0
  outer loop
    vertex 1925.9563326833365 1395.4045917120156 60.5
    vertex 1929.4563326833363 1411.9045917120159 60.5
    vertex 1929.4563326833363 1395.4045917120156 60.5
  endloop
endfacet
facet normal 0.0 0.0 -1.0
  outer loop
    vertex 1923.956332683338 1411.9045917120159 60.5
    vertex 1925.9563326833365 1393.4045917120156 60.5
    vertex 1923.956332683337 1393.4045917120156 60.5
  endloop
endfacet
facet normal 0.0 0.0 -1.0
  outer loop
    vertex 1925.9563326833365 1393.4045917120156 60.5
    vertex 1923.956332683338 1411.9045917120159 60.5
    vertex 1925.9563326833365 1395.4045917120156 60.5
  endloop
endfacet
facet normal 0.0 -1.0 0.0
  outer loop
    vertex 1925.956332683336 1393.4045917120156 37.999999999993484
    vertex 1923.956332683337 1393.4045917120156 32.80903533472306
    vertex 1925.9563326833365 1393.4045917120156 32.80903533472306
  endloop
endfacet
facet normal 0.0 -1.0 0.0
  outer loop
    vertex 1923.956332683337 1393.4045917120156 32.80903533472306
    vertex 1925.956332683336 1393.4045917120156 37.999999999993484
    vertex 1923.956332683337 1393.4045917120156 37.999999999993484
  endloop
endfacet
facet normal 2.9268882204153957e-15 -1.3735188927763245e-15 1.0
  outer loop
    vertex 1925.9563326833365 1393.4045917120156 20.566235334723356
    vertex 1923.9563326833377 1411.9045917120156 20.5662353347234
    vertex 1923.956332683337 1393.4045917120156 20.566235334723356
  endloop
endfacet
facet normal 2.9268882204153957e-15 -1.3735188927763245e-15 1.0
  outer loop
    vertex 1923.9563326833377 1411.9045917120156 20.5662353347234
    vertex 1925.9563326833365 1393.4045917120156 20.566235334723356
    vertex 1925.9563326833365 1395.4045917120156 20.566235334723356
  endloop
endfacet
facet normal 2.9268882204153957e-15 -1.3735188927763245e-15 1.0
  outer loop
    vertex 1923.9563326833377 1411.9045917120156 20.5662353347234
    vertex 1925.9563326833365 1395.4045917120156 20.566235334723356
    vertex 1929.4563326833363 1411.9045917120156 20.566235334723356
  endloop
endfacet
facet normal 2.9268882204153957e-15 -1.3735188927763245e-15 1.0
  outer loop
    vertex 1929.4563326833363 1411.9045917120156 20.566235334723356
    vertex 1925.9563326833365 1395.4045917120156 20.566235334723356
    vertex 1929.4563326833363 1395.4045917120156 20.566235334723356
  endloop
endfacet
facet normal 0.0 0.0 1.0
  outer loop
    vertex 1925.9563326833365 1393.4045917120156 50.50000000000001
    vertex 1923.956332683338 1411.9045917120159 50.50000000000001
    vertex 1923.956332683337 1393.4045917120156 50.50000000000001
  endloop
endfacet
facet normal 0.0 0.0 1.0
  outer loop
    vertex 1923.956332683338 1411.9045917120159 50.50000000000001
    vertex 1925.9563326833365 1393.4045917120156 50.50000000000001
    vertex 1925.9563326833365 1395.4045917120156 50.50000000000001
  endloop
endfacet
facet normal 0.0 0.0 1.0
  outer loop
    vertex 1923.956332683338 1411.9045917120159 50.50000000000001
    vertex 1925.9563326833365 1395.4045917120156 50.50000000000001
    vertex 1929.4563326833363 1411.9045917120159 50.50000000000001
  endloop
endfacet
facet normal 0.0 0.0 1.0
  outer loop
    vertex 1929.4563326833363 1411.9045917120159 50.50000000000001
    vertex 1925.9563326833365 1395.4045917120156 50.50000000000001
    vertex 1929.4563326833363 1395.4045917120156 50.50000000000001
  endloop
endfacet
facet normal -1.0 1.9121969826575263e-14 2.697902029982364e-15
  outer loop
    vertex 1923.956332683338 1411.9045917120159 50.50000000000001
    vertex 1923.956332683337 1393.4045917120156 45.00000000000039
    vertex 1923.956332683337 1393.4045917120156 50.50000000000001
  endloop
endfacet
facet normal -1.0 1.9121969826575263e-14 2.697902029982364e-15
  outer loop
    vertex 1923.956332683337 1393.4045917120156 45.00000000000039
    vertex 1923.956332683338 1411.9045917120159 50.50000000000001
    vertex 1923.956332683337 1402.7545917120237 45.00000000000039
  endloop
endfacet
facet normal -1.0 1.9121969826575263e-14 2.697902029982364e-15
  outer loop
    vertex 1923.956332683337 1402.7545917120237 45.00000000000039
    vertex 1923.956332683338 1411.9045917120159 50.50000000000001
    vertex 1923.956332683337 1404.9045917120159 45.00000000000039
  endloop
endfacet
facet normal -1.0 1.9121969826575263e-14 2.697902029982364e-15
  outer loop
    vertex 1923.956332683337 1404.9045917120159 45.00000000000039
    vertex 1923.956332683338 1411.9045917120159 50.50000000000001
    vertex 1923.956332683337 1404.9045917120159 37.999999999993484
  endloop
endfacet
facet normal -1.0 1.9121969826575263e-14 2.697902029982364e-15
  outer loop
    vertex 1923.9563326833365 1415.9045917120159 71.74999999999999
    vertex 1923.956332683337 1393.4045917120156 60.5
    vertex 1923.9563326833365 1393.4045917120156 71.74999999999999
  endloop
endfacet
facet normal -1.0 1.9121969826575263e-14 2.697902029982364e-15
  outer loop
    vertex 1923.956332683337 1393.4045917120156 60.5
    vertex 1923.9563326833365 1415.9045917120159 71.74999999999999
    vertex 1923.956332683338 1411.9045917120159 60.5
  endloop
endfacet
facet normal -1.0 1.9121969826575263e-14 2.697902029982364e-15
  outer loop
    vertex 1923.956332683338 1411.9045917120159 60.5
    vertex 1923.9563326833365 1415.9045917120159 71.74999999999999
    vertex 1923.956332683338 1411.9045917120159 50.50000000000001
  endloop
endfacet
facet normal -1.0 1.9121969826575263e-14 2.697902029982364e-15
  outer loop
    vertex 1923.956332683338 1411.9045917120159 50.50000000000001
    vertex 1923.9563326833365 1415.9045917120159 71.74999999999999
    vertex 1923.9563326833377 1411.9045917120159 32.80903533472312
  endloop
endfacet
facet normal -1.0 1.9121969826575263e-14 2.697902029982364e-15
  outer loop
    vertex 1923.9563326833377 1411.9045917120156 20.5662353347234
    vertex 1923.9563326833365 1393.4045917120156 1.7499999999998106
    vertex 1923.956332683337 1393.4045917120156 20.566235334723356
  endloop
endfacet
facet normal -1.0 1.9121969826575263e-14 2.697902029982364e-15
  outer loop
    vertex 1923.9563326833365 1393.4045917120156 1.7499999999998106
    vertex 1923.9563326833377 1411.9045917120156 20.5662353347234
    vertex 1923.9563326833365 1415.9045917120159 1.7499999999998106
  endloop
endfacet
facet normal -1.0 1.9121969826575263e-14 2.697902029982364e-15
  outer loop
    vertex 1923.9563326833365 1415.9045917120159 1.7499999999998106
    vertex 1923.9563326833377 1411.9045917120156 20.5662353347234
    vertex 1923.9563326833377 1411.9045917120159 32.80903533472312
  endloop
endfacet
facet normal -1.0 1.9121969826575263e-14 2.697902029982364e-15
  outer loop
    vertex 1923.9563326833365 1415.9045917120159 1.7499999999998106
    vertex 1923.9563326833377 1411.9045917120159 32.80903533472312
    vertex 1923.9563326833365 1415.9045917120159 71.74999999999999
  endloop
endfacet
facet normal -1.0 1.9121969826575263e-14 2.697902029982364e-15
  outer loop
    vertex 1923.956332683337 1404.9045917120159 37.999999999993484
    vertex 1923.956332683337 1393.4045917120156 32.80903533472306
    vertex 1923.956332683337 1393.4045917120156 37.999999999993484
  endloop
endfacet
facet normal -1.0 1.9121969826575263e-14 2.697902029982364e-15
  outer loop
    vertex 1923.956332683337 1393.4045917120156 32.80903533472306
    vertex 1923.956332683337 1404.9045917120159 37.999999999993484
    vertex 1923.9563326833377 1411.9045917120159 32.80903533472312
  endloop
endfacet
facet normal -1.0 1.9121969826575263e-14 2.697902029982364e-15
  outer loop
    vertex 1923.9563326833377 1411.9045917120159 32.80903533472312
    vertex 1923.956332683337 1404.9045917120159 37.999999999993484
    vertex 1923.956332683338 1411.9045917120159 50.50000000000001
  endloop
endfacet
facet normal 0.0 1.0 0.0
  outer loop
    vertex 1925.9563326833365 1413.9045917120159 3.7499999999998113
    vertex 1929.4563326833363 1413.9045917120159 69.75
    vertex 1929.4563326833363 1413.9045917120159 3.74999999999981
  endloop
endfacet
facet normal 0.0 1.0 0.0
  outer loop
    vertex 1929.4563326833363 1413.9045917120159 69.75
    vertex 1925.9563326833365 1413.9045917120159 3.7499999999998113
    vertex 1925.9563326833365 1413.9045917120159 37.99999999998075
  endloop
endfacet
facet normal 0.0 1.0 0.0
  outer loop
    vertex 1929.4563326833363 1413.9045917120159 69.75
    vertex 1925.9563326833365 1413.9045917120159 37.99999999998075
    vertex 1925.9563326833365 1413.9045917120159 45.0
  endloop
endfacet
facet normal 0.0 1.0 0.0
  outer loop
    vertex 1929.4563326833363 1413.9045917120159 69.75
    vertex 1925.9563326833365 1413.9045917120159 45.0
    vertex 1925.9563326833365 1413.9045917120159 69.75
  endloop
endfacet
facet normal -3.704626865359215e-15 1.8227867148079313e-15 -1.0
  outer loop
    vertex 1929.4563326833363 1411.9045917120159 32.80903533472307
    vertex 1925.9563326833365 1395.4045917120156 32.80903533472306
    vertex 1923.9563326833377 1411.9045917120159 32.80903533472312
  endloop
endfacet
facet normal -3.704626865359215e-15 1.8227867148079313e-15 -1.0
  outer loop
    vertex 1925.9563326833365 1395.4045917120156 32.80903533472306
    vertex 1929.4563326833363 1411.9045917120159 32.80903533472307
    vertex 1929.4563326833363 1395.4045917120156 32.80903533472306
  endloop
endfacet
facet normal -3.704626865359215e-15 1.8227867148079313e-15 -1.0
  outer loop
    vertex 1923.9563326833377 1411.9045917120159 32.80903533472312
    vertex 1925.9563326833365 1393.4045917120156 32.80903533472306
    vertex 1923.956332683337 1393.4045917120156 32.80903533472306
  endloop
endfacet
facet normal -3.704626865359215e-15 1.8227867148079313e-15 -1.0
  outer loop
    vertex 1925.9563326833365 1393.4045917120156 32.80903533472306
    vertex 1923.9563326833377 1411.9045917120159 32.80903533472312
    vertex 1925.9563326833365 1395.4045917120156 32.80903533472306
  endloop
endfacet
facet normal 1.2216969621372446e-28 -1.0 1.4741550534442255e-14
  outer loop
    vertex 1929.4563326833363 1411.9045917120159 32.80903533472307
    vertex 1923.9563326833377 1411.9045917120156 20.5662353347234
    vertex 1929.4563326833363 1411.9045917120156 20.566235334723356
  endloop
endfacet
facet normal 1.2216969621372446e-28 -1.0 1.4741550534442255e-14
  outer loop
    vertex 1923.9563326833377 1411.9045917120156 20.5662353347234
    vertex 1929.4563326833363 1411.9045917120159 32.80903533472307
    vertex 1923.9563326833377 1411.9045917120159 32.80903533472312
  endloop
endfacet
facet normal 1.0 5.22334196154894e-15 -1.487792792961683e-16
  outer loop
    vertex 1929.4563326833363 1411.9045917120159 32.80903533472307
    vertex 1929.4563326833368 1395.4045917120156 37.999999999993506
    vertex 1929.4563326833363 1395.4045917120156 32.80903533472306
  endloop
endfacet
facet normal 1.0 5.22334196154894e-15 -1.487792792961683e-16
  outer loop
    vertex 1929.4563326833368 1395.4045917120156 37.999999999993506
    vertex 1929.4563326833363 1411.9045917120159 32.80903533472307
    vertex 1929.4563326833368 1404.9045917120159 37.999999999993506
  endloop
endfacet
facet normal 1.0 5.22334196154894e-15 -1.487792792961683e-16
  outer loop
    vertex 1929.4563326833368 1404.9045917120159 37.999999999993506
    vertex 1929.4563326833363 1411.9045917120159 32.80903533472307
    vertex 1929.4563326833368 1404.9045917120159 45.00000000000041
  endloop
endfacet
facet normal 1.0 5.22334196154894e-15 -1.487792792961683e-16
  outer loop
    vertex 1929.4563326833363 1413.9045917120159 3.74999999999981
    vertex 1929.4563326833363 1395.4045917120156 20.566235334723356
    vertex 1929.4563326833363 1395.4045917120156 3.74999999999981
  endloop
endfacet
facet normal 1.0 5.22334196154894e-15 -1.487792792961683e-16
  outer loop
    vertex 1929.4563326833363 1395.4045917120156 20.566235334723356
    vertex 1929.4563326833363 1413.9045917120159 3.74999999999981
    vertex 1929.4563326833363 1411.9045917120156 20.566235334723356
  endloop
endfacet
facet normal 1.0 5.22334196154894e-15 -1.487792792961683e-16
  outer loop
    vertex 1929.4563326833363 1411.9045917120156 20.566235334723356
    vertex 1929.4563326833363 1413.9045917120159 3.74999999999981
    vertex 1929.4563326833363 1411.9045917120159 32.80903533472307
  endloop
endfacet
facet normal 1.0 5.22334196154894e-15 -1.487792792961683e-16
  outer loop
    vertex 1929.4563326833363 1411.9045917120159 32.80903533472307
    vertex 1929.4563326833363 1413.9045917120159 3.74999999999981
    vertex 1929.4563326833363 1411.9045917120159 50.50000000000001
  endloop
endfacet
facet normal 1.0 5.22334196154894e-15 -1.487792792961683e-16
  outer loop
    vertex 1929.4563326833363 1411.9045917120159 50.50000000000001
    vertex 1929.4563326833363 1413.9045917120159 3.74999999999981
    vertex 1929.4563326833363 1411.9045917120159 60.5
  endloop
endfacet
facet normal 1.0 5.22334196154894e-15 -1.487792792961683e-16
  outer loop
    vertex 1929.4563326833363 1411.9045917120159 60.5
    vertex 1929.4563326833363 1395.4045917120156 69.75
    vertex 1929.4563326833363 1395.4045917120156 60.5
  endloop
endfacet
facet normal 1.0 5.22334196154894e-15 -1.487792792961683e-16
  outer loop
    vertex 1929.4563326833363 1395.4045917120156 69.75
    vertex 1929.4563326833363 1411.9045917120159 60.5
    vertex 1929.4563326833363 1413.9045917120159 69.75
  endloop
endfacet
facet normal 1.0 5.22334196154894e-15 -1.487792792961683e-16
  outer loop
    vertex 1929.4563326833363 1413.9045917120159 69.75
    vertex 1929.4563326833363 1411.9045917120159 60.5
    vertex 1929.4563326833363 1413.9045917120159 3.74999999999981
  endloop
endfacet
facet normal 1.0 5.22334196154894e-15 -1.487792792961683e-16
  outer loop
    vertex 1929.4563326833368 1402.7545917120237 45.00000000000041
    vertex 1929.4563326833363 1395.4045917120156 50.50000000000001
    vertex 1929.4563326833368 1395.4045917120156 45.00000000000041
  endloop
endfacet
facet normal 1.0 5.22334196154894e-15 -1.487792792961683e-16
  outer loop
    vertex 1929.4563326833363 1395.4045917120156 50.50000000000001
    vertex 1929.4563326833368 1402.7545917120237 45.00000000000041
    vertex 1929.4563326833363 1411.9045917120159 50.50000000000001
  endloop
endfacet
facet normal 1.0 5.22334196154894e-15 -1.487792792961683e-16
  outer loop
    vertex 1929.4563326833363 1411.9045917120159 50.50000000000001
    vertex 1929.4563326833368 1402.7545917120237 45.00000000000041
    vertex 1929.4563326833368 1404.9045917120159 45.00000000000041
  endloop
endfacet
facet normal 1.0 5.22334196154894e-15 -1.487792792961683e-16
  outer loop
    vertex 1929.4563326833363 1411.9045917120159 50.50000000000001
    vertex 1929.4563326833368 1404.9045917120159 45.00000000000041
    vertex 1929.4563326833363 1411.9045917120159 32.80903533472307
  endloop
endfacet
facet normal 0.0 -1.0 0.0
  outer loop
    vertex 1929.4563326833368 1395.4045917120156 45.00000000000041
    vertex 1925.9563326833365 1395.4045917120156 50.50000000000001
    vertex 1925.956332683336 1395.4045917120156 45.00000000000039
  endloop
endfacet
facet normal 0.0 -1.0 0.0
  outer loop
    vertex 1925.9563326833365 1395.4045917120156 50.50000000000001
    vertex 1929.4563326833368 1395.4045917120156 45.00000000000041
    vertex 1929.4563326833363 1395.4045917120156 50.50000000000001
  endloop
endfacet
facet normal 0.0 -1.0 0.0
  outer loop
    vertex 1929.4563326833363 1395.4045917120156 20.566235334723356
    vertex 1925.9563326833365 1395.4045917120156 3.74999999999981
    vertex 1929.4563326833363 1395.4045917120156 3.74999999999981
  endloop
endfacet
facet normal 0.0 -1.0 0.0
  outer loop
    vertex 1925.9563326833365 1395.4045917120156 3.74999999999981
    vertex 1929.4563326833363 1395.4045917120156 20.566235334723356
    vertex 1925.9563326833365 1395.4045917120156 20.566235334723356
  endloop
endfacet
facet normal 1.0 0.0 0.0
  outer loop
    vertex 1925.9563326833365 1393.4045917120156 1.7499999999998106
    vertex 1925.9563326833365 1395.4045917120156 3.74999999999981
    vertex 1925.9563326833365 1393.4045917120156 20.566235334723356
  endloop
endfacet
facet normal 1.0 0.0 0.0
  outer loop
    vertex 1925.9563326833365 1395.4045917120156 3.74999999999981
    vertex 1925.9563326833365 1393.4045917120156 1.7499999999998106
    vertex 1925.9563326833365 1415.9045917120159 1.7499999999998106
  endloop
endfacet
facet normal 1.0 0.0 0.0
  outer loop
    vertex 1925.9563326833365 1395.4045917120156 3.74999999999981
    vertex 1925.9563326833365 1415.9045917120159 1.7499999999998106
    vertex 1925.9563326833365 1413.9045917120159 3.7499999999998113
  endloop
endfacet
facet normal 1.0 0.0 0.0
  outer loop
    vertex 1925.9563326833365 1413.9045917120159 3.7499999999998113
    vertex 1925.9563326833365 1415.9045917120159 1.7499999999998106
    vertex 1925.9563326833365 1413.9045917120159 37.99999999998075
  endloop
endfacet
facet normal 1.0 0.0 0.0
  outer loop
    vertex 1925.9563326833365 1413.9045917120159 37.99999999998075
    vertex 1925.9563326833365 1415.9045917120159 1.7499999999998106
    vertex 1925.9563326833365 1413.9045917120159 45.0
  endloop
endfacet
facet normal 1.0 0.0 0.0
  outer loop
    vertex 1925.9563326833365 1413.9045917120159 45.0
    vertex 1925.9563326833365 1415.9045917120159 1.7499999999998106
    vertex 1925.9563326833365 1413.9045917120159 69.75
  endloop
endfacet
facet normal 1.0 0.0 0.0
  outer loop
    vertex 1925.9563326833365 1395.4045917120156 60.5
    vertex 1925.9563326833365 1393.4045917120156 71.74999999999999
    vertex 1925.9563326833365 1393.4045917120156 60.5
  endloop
endfacet
facet normal 1.0 0.0 0.0
  outer loop
    vertex 1925.9563326833365 1393.4045917120156 71.74999999999999
    vertex 1925.9563326833365 1395.4045917120156 60.5
    vertex 1925.9563326833365 1395.4045917120156 69.75
  endloop
endfacet
facet normal 1.0 0.0 0.0
  outer loop
    vertex 1925.9563326833365 1393.4045917120156 71.74999999999999
    vertex 1925.9563326833365 1395.4045917120156 69.75
    vertex 1925.9563326833365 1415.9045917120159 71.74999999999999
  endloop
endfacet
facet normal 1.0 0.0 0.0
  outer loop
    vertex 1925.9563326833365 1415.9045917120159 71.74999999999999
    vertex 1925.9563326833365 1395.4045917120156 69.75
    vertex 1925.9563326833365 1413.9045917120159 69.75
  endloop
endfacet
facet normal 1.0 0.0 0.0
  outer loop
    vertex 1925.9563326833365 1415.9045917120159 71.74999999999999
    vertex 1925.9563326833365 1413.9045917120159 69.75
    vertex 1925.9563326833365 1415.9045917120159 1.7499999999998106
  endloop
endfacet
facet normal 1.0 0.0 0.0
  outer loop
    vertex 1925.9563326833365 1395.4045917120156 20.566235334723356
    vertex 1925.9563326833365 1393.4045917120156 20.566235334723356
    vertex 1925.9563326833365 1395.4045917120156 3.74999999999981
  endloop
endfacet
facet normal 0.0 -1.0 0.0
  outer loop
    vertex 1925.9563326833365 1393.4045917120156 20.566235334723356
    vertex 1923.9563326833365 1393.4045917120156 1.7499999999998106
    vertex 1925.9563326833365 1393.4045917120156 1.7499999999998106
  endloop
endfacet
facet normal 0.0 -1.0 0.0
  outer loop
    vertex 1923.9563326833365 1393.4045917120156 1.7499999999998106
    vertex 1925.9563326833365 1393.4045917120156 20.566235334723356
    vertex 1923.956332683337 1393.4045917120156 20.566235334723356
  endloop
endfacet
facet normal 4.223194252849591e-15 4.588495425288683e-16 -1.0
  outer loop
    vertex 1929.4563326833368 1402.7545917120237 45.00000000000041
    vertex 1923.956332683337 1393.4045917120156 45.00000000000039
    vertex 1923.956332683337 1402.7545917120237 45.00000000000039
  endloop
endfacet
facet normal 4.223194252849591e-15 4.588495425288683e-16 -1.0
  outer loop
    vertex 1923.956332683337 1393.4045917120156 45.00000000000039
    vertex 1929.4563326833368 1402.7545917120237 45.00000000000041
    vertex 1925.956332683336 1395.4045917120156 45.00000000000039
  endloop
endfacet
facet normal 4.223194252849591e-15 4.588495425288683e-16 -1.0
  outer loop
    vertex 1925.956332683336 1395.4045917120156 45.00000000000039
    vertex 1929.4563326833368 1402.7545917120237 45.00000000000041
    vertex 1929.4563326833368 1395.4045917120156 45.00000000000041
  endloop
endfacet
facet normal 4.223194252849591e-15 4.588495425288683e-16 -1.0
  outer loop
    vertex 1925.956332683336 1393.4045917120156 45.00000000000039
    vertex 1923.956332683337 1393.4045917120156 45.00000000000039
    vertex 1925.956332683336 1395.4045917120156 45.00000000000039
  endloop
endfacet
facet normal 4.2357047574599094e-15 -2.951944394207897e-16 -1.0
  outer loop
    vertex 1925.956332683336 1404.9045917120159 45.00000000000039
    vertex 1923.956332683337 1402.7545917120237 45.00000000000039
    vertex 1923.956332683337 1404.9045917120159 45.00000000000039
  endloop
endfacet
facet normal 4.2357047574599094e-15 -2.951944394207897e-16 -1.0
  outer loop
    vertex 1923.956332683337 1402.7545917120237 45.00000000000039
    vertex 1925.956332683336 1404.9045917120159 45.00000000000039
    vertex 1929.4563326833368 1402.7545917120237 45.00000000000041
  endloop
endfacet
facet normal 4.2357047574599094e-15 -2.951944394207897e-16 -1.0
  outer loop
    vertex 1929.4563326833368 1402.7545917120237 45.00000000000041
    vertex 1925.956332683336 1404.9045917120159 45.00000000000039
    vertex 1929.4563326833368 1404.9045917120159 45.00000000000041
  endloop
endfacet
facet normal 0.0 -1.0 0.0
  outer loop
    vertex 1929.4563326833368 1404.9045917120159 45.00000000000041
    vertex 1925.956332683336 1404.9045917120159 45.00000000000039
    vertex 1929.4563326833368 1404.9045917120159 37.999999999993506
  endloop
endfacet
facet normal 0.0 -1.0 0.0
  outer loop
    vertex 1929.4563326833368 1404.9045917120159 37.999999999993506
    vertex 1923.956332683337 1404.9045917120159 37.999999999993484
    vertex 1925.956332683336 1404.9045917120159 37.999999999993484
  endloop
endfacet
facet normal 0.0 -1.0 0.0
  outer loop
    vertex 1923.956332683337 1404.9045917120159 37.999999999993484
    vertex 1929.4563326833368 1404.9045917120159 37.999999999993506
    vertex 1923.956332683337 1404.9045917120159 45.00000000000039
  endloop
endfacet
facet normal 0.0 -1.0 0.0
  outer loop
    vertex 1923.956332683337 1404.9045917120159 45.00000000000039
    vertex 1929.4563326833368 1404.9045917120159 37.999999999993506
    vertex 1925.956332683336 1404.9045917120159 45.00000000000039
  endloop
endfacet
facet normal -4.418335429932387e-15 -7.200275762656118e-17 1.0
  outer loop
    vertex 1925.956332683336 1393.4045917120156 37.999999999993484
    vertex 1923.956332683337 1404.9045917120159 37.999999999993484
    vertex 1923.956332683337 1393.4045917120156 37.999999999993484
  endloop
endfacet
facet normal -4.418335429932387e-15 -7.200275762656118e-17 1.0
  outer loop
    vertex 1923.956332683337 1404.9045917120159 37.999999999993484
    vertex 1925.956332683336 1393.4045917120156 37.999999999993484
    vertex 1925.956332683336 1404.9045917120159 37.999999999993484
  endloop
endfacet
facet normal -4.418335429932387e-15 -7.200275762656118e-17 1.0
  outer loop
    vertex 1925.956332683336 1404.9045917120159 37.999999999993484
    vertex 1925.956332683336 1393.4045917120156 37.999999999993484
    vertex 1925.956332683336 1395.4045917120156 37.999999999993484
  endloop
endfacet
facet normal -4.418335429932387e-15 -7.200275762656118e-17 1.0
  outer loop
    vertex 1925.956332683336 1404.9045917120159 37.999999999993484
    vertex 1925.956332683336 1395.4045917120156 37.999999999993484
    vertex 1929.4563326833368 1395.4045917120156 37.999999999993506
  endloop
endfacet
facet normal -4.418335429932387e-15 -7.200275762656118e-17 1.0
  outer loop
    vertex 1925.956332683336 1404.9045917120159 37.999999999993484
    vertex 1929.4563326833368 1395.4045917120156 37.999999999993506
    vertex 1929.4563326833368 1404.9045917120159 37.999999999993506
  endloop
endfacet
facet normal 0.0 -1.0 0.0
  outer loop
    vertex 1925.9563326833365 1393.4045917120156 50.50000000000001
    vertex 1923.956332683337 1393.4045917120156 45.00000000000039
    vertex 1925.956332683336 1393.4045917120156 45.00000000000039
  endloop
endfacet
facet normal 0.0 -1.0 0.0
  outer loop
    vertex 1923.956332683337 1393.4045917120156 45.00000000000039
    vertex 1925.9563326833365 1393.4045917120156 50.50000000000001
    vertex 1923.956332683337 1393.4045917120156 50.50000000000001
  endloop
endfacet
facet normal 1.0 3.3400971080715777e-41 -6.562831086657381e-14
  outer loop
    vertex 1925.956332683336 1395.4045917120156 45.00000000000039
    vertex 1925.9563326833365 1393.4045917120156 50.50000000000001
    vertex 1925.956332683336 1393.4045917120156 45.00000000000039
  endloop
endfacet
facet normal 1.0 3.3400971080715777e-41 -6.562831086657381e-14
  outer loop
    vertex 1925.9563326833365 1393.4045917120156 50.50000000000001
    vertex 1925.956332683336 1395.4045917120156 45.00000000000039
    vertex 1925.9563326833365 1395.4045917120156 50.50000000000001
  endloop
endfacet
facet normal 0.0 -1.0 0.0
  outer loop
    vertex 1929.4563326833368 1395.4045917120156 37.999999999993506
    vertex 1925.9563326833365 1395.4045917120156 32.80903533472306
    vertex 1929.4563326833363 1395.4045917120156 32.80903533472306
  endloop
endfacet
facet normal 0.0 -1.0 0.0
  outer loop
    vertex 1925.9563326833365 1395.4045917120156 32.80903533472306
    vertex 1929.4563326833368 1395.4045917120156 37.999999999993506
    vertex 1925.956332683336 1395.4045917120156 37.999999999993484
  endloop
endfacet
endsolid Data logger Main v1
