solid Main V1
facet normal 2.442490654175344e-15 -1.0797909721214733e-14 1.0
  outer loop
    vertex 723.7929562704306 369.27334120124414 426.90000000000055
    vertex 723.7929562704302 391.07334120124375 426.90000000000083
    vertex 714.5929562704306 369.2733412012441 426.90000000000083
  endloop
endfacet
facet normal 2.442490654175344e-15 -1.0797909721214733e-14 1.0
  outer loop
    vertex 714.5929562704301 400.4733412012438 426.90000000000117
    vertex 723.7929562704302 391.07334120124375 426.90000000000083
    vertex 745.9929562704301 400.4733412012442 426.9000000000011
  endloop
endfacet
facet normal 2.442490654175344e-15 -1.0797909721214733e-14 1.0
  outer loop
    vertex 723.7929562704302 391.07334120124375 426.90000000000083
    vertex 714.5929562704301 400.4733412012438 426.90000000000117
    vertex 714.5929562704306 369.2733412012441 426.90000000000083
  endloop
endfacet
facet normal 2.442490654175344e-15 -1.0797909721214733e-14 1.0
  outer loop
    vertex 745.9929562704301 400.4733412012442 426.9000000000011
    vertex 723.7929562704302 391.07334120124375 426.90000000000083
    vertex 745.9929562704302 391.07334120124415 426.900000000001
  endloop
endfacet
facet normal -1.1011947620189536e-14 1.0 9.141260147940323e-15
  outer loop
    vertex 716.0929562704301 400.473341201244 393.900000000001
    vertex 745.9929562704299 400.47334120124424 395.40000000000134
    vertex 744.4929562704299 400.4733412012443 393.9000000000013
  endloop
endfacet
facet normal -1.1011947620189536e-14 1.0 9.141260147940323e-15
  outer loop
    vertex 745.9929562704299 400.47334120124424 395.40000000000134
    vertex 716.0929562704301 400.473341201244 393.900000000001
    vertex 745.9929562704301 400.4733412012442 426.9000000000011
  endloop
endfacet
facet normal -1.1011947620189536e-14 1.0 9.141260147940323e-15
  outer loop
    vertex 745.9929562704301 400.4733412012442 426.9000000000011
    vertex 716.0929562704301 400.473341201244 393.900000000001
    vertex 714.5929562704302 400.47334120124395 395.40000000000106
  endloop
endfacet
facet normal -1.1011947620189536e-14 1.0 9.141260147940323e-15
  outer loop
    vertex 745.9929562704301 400.4733412012442 426.9000000000011
    vertex 714.5929562704302 400.47334120124395 395.40000000000106
    vertex 714.5929562704301 400.4733412012438 426.90000000000117
  endloop
endfacet
facet normal 1.0 1.7842596684982732e-14 -4.0523140398818206e-15
  outer loop
    vertex 745.99295627043 391.07334120124426 395.400000000001
    vertex 745.9929562704301 400.4733412012442 426.9000000000011
    vertex 745.9929562704302 391.07334120124415 426.900000000001
  endloop
endfacet
facet normal 1.0 1.7842596684982732e-14 -4.0523140398818206e-15
  outer loop
    vertex 745.9929562704301 400.4733412012442 426.9000000000011
    vertex 745.99295627043 391.07334120124426 395.400000000001
    vertex 745.9929562704299 400.47334120124424 395.40000000000134
  endloop
endfacet
facet normal 9.769962616701373e-15 -1.0 -1.1279865930191607e-14
  outer loop
    vertex 742.9929562704301 397.47334120124395 423.9000000000011
    vertex 717.59295627043 397.473341201244 393.90000000000106
    vertex 742.9929562704301 397.47334120124435 393.90000000000106
  endloop
endfacet
facet normal 9.769962616701373e-15 -1.0 -1.1279865930191607e-14
  outer loop
    vertex 717.59295627043 397.473341201244 393.90000000000106
    vertex 742.9929562704301 397.47334120124395 423.9000000000011
    vertex 717.59295627043 397.47334120124384 423.9000000000011
  endloop
endfacet
facet normal -1.0 -6.635215253053794e-15 2.3314683517128276e-15
  outer loop
    vertex 742.9929562704301 397.47334120124395 423.9000000000011
    vertex 742.9929562704301 394.0733412012443 393.900000000001
    vertex 742.9929562704301 394.0733412012439 423.90000000000094
  endloop
endfacet
facet normal -1.0 -6.635215253053794e-15 2.3314683517128276e-15
  outer loop
    vertex 742.9929562704301 394.0733412012443 393.900000000001
    vertex 742.9929562704301 397.47334120124395 423.9000000000011
    vertex 742.9929562704301 397.47334120124435 393.90000000000106
  endloop
endfacet
facet normal -1.6098233857064766e-15 -4.272542030922305e-14 1.0
  outer loop
    vertex 720.9929562704305 394.07334120124375 423.9000000000009
    vertex 717.59295627043 397.47334120124384 423.9000000000011
    vertex 717.59295627043 394.0733412012438 423.90000000000106
  endloop
endfacet
facet normal -1.6098233857064766e-15 -4.272542030922305e-14 1.0
  outer loop
    vertex 717.59295627043 397.47334120124384 423.9000000000011
    vertex 720.9929562704305 394.07334120124375 423.9000000000009
    vertex 742.9929562704301 397.47334120124395 423.9000000000011
  endloop
endfacet
facet normal -1.6098233857064766e-15 -4.272542030922305e-14 1.0
  outer loop
    vertex 742.9929562704301 397.47334120124395 423.9000000000011
    vertex 720.9929562704305 394.07334120124375 423.9000000000009
    vertex 742.9929562704301 394.0733412012439 423.90000000000094
  endloop
endfacet
facet normal -0.7071067811865523 -1.138708282166468e-15 -0.7071067811865429
  outer loop
    vertex 714.5929562704306 369.2733412012444 395.4000000000007
    vertex 716.0929562704301 400.473341201244 393.900000000001
    vertex 716.0929562704306 369.2733412012443 393.9000000000007
  endloop
endfacet
facet normal -0.7071067811865523 -1.138708282166468e-15 -0.7071067811865429
  outer loop
    vertex 716.0929562704301 400.473341201244 393.900000000001
    vertex 714.5929562704306 369.2733412012444 395.4000000000007
    vertex 714.5929562704302 400.47334120124395 395.40000000000106
  endloop
endfacet
facet normal 0.707106781186543 4.4633794354530676e-14 -0.7071067811865522
  outer loop
    vertex 744.4929562704299 400.4733412012443 393.9000000000013
    vertex 745.99295627043 391.07334120124426 395.400000000001
    vertex 744.49295627043 391.0733412012443 393.9000000000009
  endloop
endfacet
facet normal 0.707106781186543 4.4633794354530676e-14 -0.7071067811865522
  outer loop
    vertex 745.99295627043 391.07334120124426 395.400000000001
    vertex 744.4929562704299 400.4733412012443 393.9000000000013
    vertex 745.9929562704299 400.47334120124424 395.40000000000134
  endloop
endfacet
facet normal 9.804442628697141e-15 -1.0 -1.2033848333906106e-14
  outer loop
    vertex 745.99295627043 391.07334120124426 395.400000000001
    vertex 723.7929562704304 391.0733412012444 393.9000000000008
    vertex 744.49295627043 391.0733412012443 393.9000000000009
  endloop
endfacet
facet normal 9.804442628697141e-15 -1.0 -1.2033848333906106e-14
  outer loop
    vertex 723.7929562704304 391.0733412012444 393.9000000000008
    vertex 745.99295627043 391.07334120124426 395.400000000001
    vertex 745.9929562704302 391.07334120124415 426.900000000001
  endloop
endfacet
facet normal 9.804442628697141e-15 -1.0 -1.2033848333906106e-14
  outer loop
    vertex 723.7929562704304 391.0733412012444 393.9000000000008
    vertex 745.9929562704302 391.07334120124415 426.900000000001
    vertex 723.7929562704302 391.07334120124375 426.90000000000083
  endloop
endfacet
facet normal 1.6270033729579984e-14 -1.0 -1.1629653175449312e-14
  outer loop
    vertex 723.7929562704306 369.27334120124414 426.90000000000055
    vertex 716.0929562704306 369.2733412012443 393.9000000000007
    vertex 723.7929562704309 369.2733412012447 393.9000000000006
  endloop
endfacet
facet normal 1.6270033729579984e-14 -1.0 -1.1629653175449312e-14
  outer loop
    vertex 716.0929562704306 369.2733412012443 393.9000000000007
    vertex 723.7929562704306 369.27334120124414 426.90000000000055
    vertex 714.5929562704306 369.2733412012444 395.4000000000007
  endloop
endfacet
facet normal 1.6270033729579984e-14 -1.0 -1.1629653175449312e-14
  outer loop
    vertex 714.5929562704306 369.2733412012444 395.4000000000007
    vertex 723.7929562704306 369.27334120124414 426.90000000000055
    vertex 714.5929562704306 369.2733412012441 426.90000000000083
  endloop
endfacet
facet normal 1.0 1.627003372957988e-14 6.772360450213455e-15
  outer loop
    vertex 723.7929562704309 369.2733412012447 393.9000000000006
    vertex 723.7929562704302 391.07334120124375 426.90000000000083
    vertex 723.7929562704306 369.27334120124414 426.90000000000055
  endloop
endfacet
facet normal 1.0 1.627003372957988e-14 6.772360450213455e-15
  outer loop
    vertex 723.7929562704302 391.07334120124375 426.90000000000083
    vertex 723.7929562704309 369.2733412012447 393.9000000000006
    vertex 723.7929562704304 391.0733412012444 393.9000000000008
  endloop
endfacet
facet normal 1.7208456881689922e-15 1.2345421364578785e-14 -1.0
  outer loop
    vertex 716.0929562704301 400.473341201244 393.900000000001
    vertex 717.59295627043 397.473341201244 393.90000000000106
    vertex 716.0929562704306 369.2733412012443 393.9000000000007
  endloop
endfacet
facet normal 1.7208456881689922e-15 1.2345421364578785e-14 -1.0
  outer loop
    vertex 717.59295627043 397.473341201244 393.90000000000106
    vertex 716.0929562704301 400.473341201244 393.900000000001
    vertex 744.4929562704299 400.4733412012443 393.9000000000013
  endloop
endfacet
facet normal 1.7208456881689922e-15 1.2345421364578785e-14 -1.0
  outer loop
    vertex 717.59295627043 397.473341201244 393.90000000000106
    vertex 744.4929562704299 400.4733412012443 393.9000000000013
    vertex 742.9929562704301 397.47334120124435 393.90000000000106
  endloop
endfacet
facet normal 1.7208456881689922e-15 1.2345421364578785e-14 -1.0
  outer loop
    vertex 742.9929562704301 397.47334120124435 393.90000000000106
    vertex 744.4929562704299 400.4733412012443 393.9000000000013
    vertex 744.49295627043 391.0733412012443 393.9000000000009
  endloop
endfacet
facet normal 1.7208456881689922e-15 1.2345421364578785e-14 -1.0
  outer loop
    vertex 720.9929562704299 394.07334120124426 393.9000000000011
    vertex 723.7929562704304 391.0733412012444 393.9000000000008
    vertex 720.99295627043 372.0733412012444 393.9000000000012
  endloop
endfacet
facet normal 1.7208456881689922e-15 1.2345421364578785e-14 -1.0
  outer loop
    vertex 723.7929562704304 391.0733412012444 393.9000000000008
    vertex 720.9929562704299 394.07334120124426 393.9000000000011
    vertex 742.9929562704301 394.0733412012443 393.900000000001
  endloop
endfacet
facet normal 1.7208456881689922e-15 1.2345421364578785e-14 -1.0
  outer loop
    vertex 723.7929562704304 391.0733412012444 393.9000000000008
    vertex 742.9929562704301 394.0733412012443 393.900000000001
    vertex 744.49295627043 391.0733412012443 393.9000000000009
  endloop
endfacet
facet normal 1.7208456881689922e-15 1.2345421364578785e-14 -1.0
  outer loop
    vertex 744.49295627043 391.0733412012443 393.9000000000009
    vertex 742.9929562704301 394.0733412012443 393.900000000001
    vertex 742.9929562704301 397.47334120124435 393.90000000000106
  endloop
endfacet
facet normal 1.7208456881689922e-15 1.2345421364578785e-14 -1.0
  outer loop
    vertex 716.0929562704306 369.2733412012443 393.9000000000007
    vertex 717.5929562704302 372.0733412012444 393.90000000000134
    vertex 723.7929562704309 369.2733412012447 393.9000000000006
  endloop
endfacet
facet normal 1.7208456881689922e-15 1.2345421364578785e-14 -1.0
  outer loop
    vertex 717.5929562704302 372.0733412012444 393.90000000000134
    vertex 716.0929562704306 369.2733412012443 393.9000000000007
    vertex 717.59295627043 397.473341201244 393.90000000000106
  endloop
endfacet
facet normal 1.7208456881689922e-15 1.2345421364578785e-14 -1.0
  outer loop
    vertex 723.7929562704309 369.2733412012447 393.9000000000006
    vertex 717.5929562704302 372.0733412012444 393.90000000000134
    vertex 720.99295627043 372.0733412012444 393.9000000000012
  endloop
endfacet
facet normal 1.7208456881689922e-15 1.2345421364578785e-14 -1.0
  outer loop
    vertex 723.7929562704309 369.2733412012447 393.9000000000006
    vertex 720.99295627043 372.0733412012444 393.9000000000012
    vertex 723.7929562704304 391.0733412012444 393.9000000000008
  endloop
endfacet
facet normal -1.0 -4.8038096159246234e-15 0.0
  outer loop
    vertex 714.5929562704301 400.4733412012438 426.90000000000117
    vertex 714.5929562704306 369.2733412012444 395.4000000000007
    vertex 714.5929562704306 369.2733412012441 426.90000000000083
  endloop
endfacet
facet normal -1.0 -4.8038096159246234e-15 0.0
  outer loop
    vertex 714.5929562704306 369.2733412012444 395.4000000000007
    vertex 714.5929562704301 400.4733412012438 426.90000000000117
    vertex 714.5929562704302 400.47334120124395 395.40000000000106
  endloop
endfacet
facet normal -1.5039821240255012e-14 1.0 1.203185699220449e-14
  outer loop
    vertex 717.5929562704302 372.0733412012444 393.90000000000134
    vertex 720.9929562704302 372.0733412012441 423.9000000000012
    vertex 720.99295627043 372.0733412012444 393.9000000000012
  endloop
endfacet
facet normal -1.5039821240255012e-14 1.0 1.203185699220449e-14
  outer loop
    vertex 720.9929562704302 372.0733412012441 423.9000000000012
    vertex 717.5929562704302 372.0733412012444 393.90000000000134
    vertex 717.5929562704305 372.07334120124403 423.90000000000134
  endloop
endfacet
facet normal 1.0 1.2286953724857588e-14 -3.552713678800501e-15
  outer loop
    vertex 717.5929562704302 372.0733412012444 393.90000000000134
    vertex 717.59295627043 394.0733412012438 423.90000000000106
    vertex 717.5929562704305 372.07334120124403 423.90000000000134
  endloop
endfacet
facet normal 1.0 1.2286953724857588e-14 -3.552713678800501e-15
  outer loop
    vertex 717.59295627043 394.0733412012438 423.90000000000106
    vertex 717.5929562704302 372.0733412012444 393.90000000000134
    vertex 717.59295627043 397.473341201244 393.90000000000106
  endloop
endfacet
facet normal 1.0 1.2286953724857588e-14 -3.552713678800501e-15
  outer loop
    vertex 717.59295627043 394.0733412012438 423.90000000000106
    vertex 717.59295627043 397.473341201244 393.90000000000106
    vertex 717.59295627043 397.47334120124384 423.9000000000011
  endloop
endfacet
facet normal 4.229949723821846e-14 1.4487901194741762e-14 1.0
  outer loop
    vertex 717.5929562704305 372.07334120124403 423.90000000000134
    vertex 720.9929562704305 394.07334120124375 423.9000000000009
    vertex 717.59295627043 394.0733412012438 423.90000000000106
  endloop
endfacet
facet normal 4.229949723821846e-14 1.4487901194741762e-14 1.0
  outer loop
    vertex 720.9929562704305 394.07334120124375 423.9000000000009
    vertex 717.5929562704305 372.07334120124403 423.90000000000134
    vertex 720.9929562704302 372.0733412012441 423.9000000000012
  endloop
endfacet
facet normal -7.113428964985748e-15 1.0 1.579181230226839e-14
  outer loop
    vertex 720.9929562704299 394.07334120124426 393.9000000000011
    vertex 742.9929562704301 394.0733412012439 423.90000000000094
    vertex 742.9929562704301 394.0733412012443 393.900000000001
  endloop
endfacet
facet normal -7.113428964985748e-15 1.0 1.579181230226839e-14
  outer loop
    vertex 742.9929562704301 394.0733412012439 423.90000000000094
    vertex 720.9929562704299 394.07334120124426 393.9000000000011
    vertex 720.9929562704305 394.07334120124375 423.9000000000009
  endloop
endfacet
facet normal -1.0 5.1742504266935376e-15 1.1268763699945334e-14
  outer loop
    vertex 720.9929562704305 394.07334120124375 423.9000000000009
    vertex 720.99295627043 372.0733412012444 393.9000000000012
    vertex 720.9929562704302 372.0733412012441 423.9000000000012
  endloop
endfacet
facet normal -1.0 5.1742504266935376e-15 1.1268763699945334e-14
  outer loop
    vertex 720.99295627043 372.0733412012444 393.9000000000012
    vertex 720.9929562704305 394.07334120124375 423.9000000000009
    vertex 720.9929562704299 394.07334120124426 393.9000000000011
  endloop
endfacet
endsolid Main V1
