solid Main V1
facet normal 0.7071067811865476 0.0 0.7071067811865476
  outer loop
    vertex 717.5429562704326 422.27334120124397 -552.8999999999988
    vertex 714.5429562704326 419.27334120124397 -549.8999999999987
    vertex 717.5429562704326 419.27334120124397 -552.8999999999988
  endloop
endfacet
facet normal 0.7071067811865476 0.0 0.7071067811865476
  outer loop
    vertex 714.5429562704326 419.27334120124397 -549.8999999999987
    vertex 717.5429562704326 422.27334120124397 -552.8999999999988
    vertex 714.5429562704326 422.27334120124397 -549.8999999999987
  endloop
endfacet
facet normal -0.7071067811865476 0.0 0.7071067811865476
  outer loop
    vertex 697.7929562704326 422.27334120124397 -549.8999999999987
    vertex 694.7929562704326 419.27334120124397 -552.8999999999988
    vertex 697.7929562704326 419.27334120124397 -549.8999999999987
  endloop
endfacet
facet normal -0.7071067811865476 0.0 0.7071067811865476
  outer loop
    vertex 694.7929562704326 419.27334120124397 -552.8999999999988
    vertex 697.7929562704326 422.27334120124397 -549.8999999999987
    vertex 694.7929562704326 422.27334120124397 -552.8999999999988
  endloop
endfacet
facet normal 0.7071067811865476 0.0 0.7071067811865476
  outer loop
    vertex 717.5429562704329 403.5233412012441 -533.8999999999994
    vertex 714.5429562704328 397.27334120124436 -530.8999999999994
    vertex 717.5429562704329 397.27334120124436 -533.8999999999994
  endloop
endfacet
facet normal 0.7071067811865476 0.0 0.7071067811865476
  outer loop
    vertex 714.5429562704328 397.27334120124436 -530.8999999999994
    vertex 717.5429562704329 403.5233412012441 -533.8999999999994
    vertex 714.5429562704328 403.5233412012441 -530.8999999999994
  endloop
endfacet
facet normal -1.0 0.0 0.0
  outer loop
    vertex 743.0429562704328 422.2733412012442 -552.9
    vertex 743.0429562704328 419.27334120124414 -569.8999999999999
    vertex 743.0429562704328 419.27334120124414 -552.9
  endloop
endfacet
facet normal -1.0 0.0 0.0
  outer loop
    vertex 743.0429562704328 419.27334120124414 -569.8999999999999
    vertex 743.0429562704328 422.2733412012442 -552.9
    vertex 743.0429562704328 422.2733412012442 -569.9000000000009
  endloop
endfacet
facet normal 0.0 0.0 1.0
  outer loop
    vertex 762.792956270433 397.2733412012446 -530.9000000000005
    vertex 746.0429562704331 403.5233412012443 -530.9000000000005
    vertex 746.0429562704331 397.27334120124453 -530.9000000000005
  endloop
endfacet
facet normal 0.0 0.0 1.0
  outer loop
    vertex 746.0429562704331 403.5233412012443 -530.9000000000005
    vertex 762.792956270433 397.2733412012446 -530.9000000000005
    vertex 762.792956270433 403.5233412012443 -530.9000000000005
  endloop
endfacet
facet normal 0.0 -1.0 0.0
  outer loop
    vertex 765.7929562704328 419.27334120124414 -552.9
    vertex 762.7929562704328 419.27334120124414 -569.8999999999999
    vertex 765.7929562704328 419.27334120124414 -569.8999999999999
  endloop
endfacet
facet normal 0.0 -1.0 0.0
  outer loop
    vertex 762.7929562704328 419.27334120124414 -569.8999999999999
    vertex 765.7929562704328 419.27334120124414 -552.9
    vertex 762.7929562704328 419.27334120124414 -549.8999999999999
  endloop
endfacet
facet normal 0.7071067811865476 0.0 0.7071067811865476
  outer loop
    vertex 765.7929562704328 422.2733412012442 -552.9
    vertex 762.7929562704328 419.27334120124414 -549.8999999999999
    vertex 765.7929562704328 419.27334120124414 -552.9
  endloop
endfacet
facet normal 0.7071067811865476 0.0 0.7071067811865476
  outer loop
    vertex 762.7929562704328 419.27334120124414 -549.8999999999999
    vertex 765.7929562704328 422.2733412012442 -552.9
    vertex 762.7929562704328 422.2733412012442 -549.8999999999999
  endloop
endfacet
facet normal -0.7071067811865476 0.0 0.7071067811865476
  outer loop
    vertex 746.0429562704331 403.5233412012443 -530.9000000000005
    vertex 743.0429562704331 397.27334120124453 -533.9000000000005
    vertex 746.0429562704331 397.27334120124453 -530.9000000000005
  endloop
endfacet
facet normal -0.7071067811865476 0.0 0.7071067811865476
  outer loop
    vertex 743.0429562704331 397.27334120124453 -533.9000000000005
    vertex 746.0429562704331 403.5233412012443 -530.9000000000005
    vertex 743.0429562704331 403.5233412012443 -533.9000000000005
  endloop
endfacet
facet normal -0.7071067811865476 0.0 0.7071067811865476
  outer loop
    vertex 746.0429562704328 422.2733412012442 -549.8999999999999
    vertex 743.0429562704328 419.27334120124414 -552.9
    vertex 746.0429562704328 419.27334120124414 -549.8999999999999
  endloop
endfacet
facet normal -0.7071067811865476 0.0 0.7071067811865476
  outer loop
    vertex 743.0429562704328 419.27334120124414 -552.9
    vertex 746.0429562704328 422.2733412012442 -549.8999999999999
    vertex 743.0429562704328 422.2733412012442 -552.9
  endloop
endfacet
facet normal 0.0 0.0 1.0
  outer loop
    vertex 714.5429562704328 397.27334120124436 -530.8999999999994
    vertex 697.7929562704329 403.5233412012441 -530.8999999999994
    vertex 697.7929562704329 397.2733412012443 -530.8999999999994
  endloop
endfacet
facet normal 0.0 0.0 1.0
  outer loop
    vertex 697.7929562704329 403.5233412012441 -530.8999999999994
    vertex 714.5429562704328 397.27334120124436 -530.8999999999994
    vertex 714.5429562704328 403.5233412012441 -530.8999999999994
  endloop
endfacet
facet normal 0.0 0.0 1.0
  outer loop
    vertex 694.7929562704327 403.52334120124397 -569.8999999999987
    vertex 697.7929562704326 419.27334120124397 -569.8999999999987
    vertex 694.7929562704326 419.27334120124397 -569.8999999999987
  endloop
endfacet
facet normal 0.0 0.0 1.0
  outer loop
    vertex 697.7929562704326 419.27334120124397 -569.8999999999987
    vertex 694.7929562704327 403.52334120124397 -569.8999999999987
    vertex 697.7929562704326 403.52334120124397 -569.8999999999987
  endloop
endfacet
facet normal 0.0 -1.0 0.0
  outer loop
    vertex 759.7929562704327 419.27334120124414 -549.8999999999999
    vertex 743.0429562704328 419.27334120124414 -569.8999999999999
    vertex 759.7929562704327 419.27334120124414 -569.8999999999999
  endloop
endfacet
facet normal 0.0 -1.0 0.0
  outer loop
    vertex 743.0429562704328 419.27334120124414 -569.8999999999999
    vertex 759.7929562704327 419.27334120124414 -549.8999999999999
    vertex 743.0429562704328 419.27334120124414 -552.9
  endloop
endfacet
facet normal 0.0 -1.0 0.0
  outer loop
    vertex 743.0429562704328 419.27334120124414 -552.9
    vertex 759.7929562704327 419.27334120124414 -549.8999999999999
    vertex 746.0429562704328 419.27334120124414 -549.8999999999999
  endloop
endfacet
facet normal 1.354591281721745e-15 -1.0 1.5546176253359575e-14
  outer loop
    vertex 717.5429562704329 397.27334120124436 -533.8999999999994
    vertex 694.7929562704327 397.273341201244 -550.8999999999982
    vertex 717.5429562704326 397.273341201244 -550.8999999999982
  endloop
endfacet
facet normal 1.354591281721745e-15 -1.0 1.5546176253359575e-14
  outer loop
    vertex 694.7929562704327 397.273341201244 -550.8999999999982
    vertex 717.5429562704329 397.27334120124436 -533.8999999999994
    vertex 694.7929562704329 397.2733412012443 -533.8999999999994
  endloop
endfacet
facet normal 1.354591281721745e-15 -1.0 1.5546176253359575e-14
  outer loop
    vertex 694.7929562704329 397.2733412012443 -533.8999999999994
    vertex 717.5429562704329 397.27334120124436 -533.8999999999994
    vertex 714.5429562704328 397.27334120124436 -530.8999999999994
  endloop
endfacet
facet normal 1.354591281721745e-15 -1.0 1.5546176253359575e-14
  outer loop
    vertex 694.7929562704329 397.2733412012443 -533.8999999999994
    vertex 714.5429562704328 397.27334120124436 -530.8999999999994
    vertex 697.7929562704329 397.2733412012443 -530.8999999999994
  endloop
endfacet
facet normal 0.7071067811865476 -0.7071067811865476 -2.198265735033274e-17
  outer loop
    vertex 720.5429562704327 417.27334120124414 -572.899999999999
    vertex 717.5429562704329 414.27334120124436 -569.8999999999984
    vertex 717.5429562704326 414.2733412012441 -572.8999999999986
  endloop
endfacet
facet normal 0.7071067811865476 -0.7071067811865476 -2.198265735033274e-17
  outer loop
    vertex 717.5429562704329 414.27334120124436 -569.8999999999984
    vertex 720.5429562704327 417.27334120124414 -572.899999999999
    vertex 720.5429562704329 417.2733412012444 -569.8999999999988
  endloop
endfacet
facet normal -1.0554459272938404e-15 0.0 -1.0
  outer loop
    vertex 717.5429562704326 400.27334120124397 -550.8999999999982
    vertex 694.7929562704327 397.273341201244 -550.8999999999982
    vertex 694.7929562704327 400.27334120124397 -550.8999999999982
  endloop
endfacet
facet normal -1.0554459272938404e-15 0.0 -1.0
  outer loop
    vertex 694.7929562704327 397.273341201244 -550.8999999999982
    vertex 717.5429562704326 400.27334120124397 -550.8999999999982
    vertex 717.5429562704326 397.273341201244 -550.8999999999982
  endloop
endfacet
facet normal 1.0 -1.7965890324260347e-14 -6.88951390229524e-15
  outer loop
    vertex 717.5429562704327 403.52334120124397 -569.8999999999987
    vertex 717.5429562704326 400.27334120124397 -550.8999999999982
    vertex 717.5429562704326 400.27334120124397 -569.8999999999993
  endloop
endfacet
facet normal 1.0 -1.7965890324260347e-14 -6.88951390229524e-15
  outer loop
    vertex 717.5429562704326 400.27334120124397 -550.8999999999982
    vertex 717.5429562704329 397.27334120124436 -533.8999999999994
    vertex 717.5429562704326 397.273341201244 -550.8999999999982
  endloop
endfacet
facet normal 1.0 -1.7965890324260347e-14 -6.88951390229524e-15
  outer loop
    vertex 717.5429562704329 397.27334120124436 -533.8999999999994
    vertex 717.5429562704326 400.27334120124397 -550.8999999999982
    vertex 717.5429562704329 403.5233412012441 -533.8999999999994
  endloop
endfacet
facet normal 1.0 -1.7965890324260347e-14 -6.88951390229524e-15
  outer loop
    vertex 717.5429562704329 403.5233412012441 -533.8999999999994
    vertex 717.5429562704326 400.27334120124397 -550.8999999999982
    vertex 717.5429562704327 403.52334120124397 -569.8999999999987
  endloop
endfacet
facet normal 9.28922183960549e-16 -1.0 0.0
  outer loop
    vertex 717.5429562704326 400.27334120124397 -569.8999999999993
    vertex 694.7929562704327 400.27334120124397 -572.8999999999982
    vertex 717.5429562704326 400.27334120124397 -572.8999999999982
  endloop
endfacet
facet normal 9.28922183960549e-16 -1.0 0.0
  outer loop
    vertex 694.7929562704327 400.27334120124397 -572.8999999999982
    vertex 717.5429562704326 400.27334120124397 -569.8999999999993
    vertex 694.7929562704327 400.27334120124397 -550.8999999999982
  endloop
endfacet
facet normal 9.28922183960549e-16 -1.0 0.0
  outer loop
    vertex 694.7929562704327 400.27334120124397 -550.8999999999982
    vertex 717.5429562704326 400.27334120124397 -569.8999999999993
    vertex 717.5429562704326 400.27334120124397 -550.8999999999982
  endloop
endfacet
facet normal -0.7071067811865476 -0.7071067811865476 0.0
  outer loop
    vertex 740.0429562704328 417.27334120124414 -569.8999999999992
    vertex 743.0429562704328 414.2733412012441 -572.8999999999993
    vertex 743.0429562704328 414.2733412012441 -569.8999999999993
  endloop
endfacet
facet normal -0.7071067811865476 -0.7071067811865476 0.0
  outer loop
    vertex 743.0429562704328 414.2733412012441 -572.8999999999993
    vertex 740.0429562704328 417.27334120124414 -569.8999999999992
    vertex 740.0429562704328 417.27334120124414 -572.8999999999992
  endloop
endfacet
facet normal 0.7071067811865476 0.0 0.7071067811865476
  outer loop
    vertex 765.7929562704331 403.5233412012443 -533.9000000000005
    vertex 762.792956270433 397.2733412012446 -530.9000000000005
    vertex 765.7929562704331 397.2733412012446 -533.9000000000005
  endloop
endfacet
facet normal 0.7071067811865476 0.0 0.7071067811865476
  outer loop
    vertex 762.792956270433 397.2733412012446 -530.9000000000005
    vertex 765.7929562704331 403.5233412012443 -533.9000000000005
    vertex 762.792956270433 403.5233412012443 -530.9000000000005
  endloop
endfacet
facet normal 5.904354420864062e-16 1.0 -3.457628217821828e-15
  outer loop
    vertex 743.0429562704331 403.5233412012443 -533.9000000000005
    vertex 759.7929562704327 403.5233412012442 -569.8999999999999
    vertex 743.0429562704329 403.5233412012442 -569.8999999999999
  endloop
endfacet
facet normal 5.904354420864062e-16 1.0 -3.457628217821828e-15
  outer loop
    vertex 759.7929562704327 403.5233412012442 -569.8999999999999
    vertex 743.0429562704331 403.5233412012443 -533.9000000000005
    vertex 759.7929562704327 403.52334120124425 -549.8999999999999
  endloop
endfacet
facet normal 5.904354420864062e-16 1.0 -3.457628217821828e-15
  outer loop
    vertex 759.7929562704327 403.52334120124425 -549.8999999999999
    vertex 743.0429562704331 403.5233412012443 -533.9000000000005
    vertex 759.7929562704327 403.52334120124425 -546.8999999999999
  endloop
endfacet
facet normal 5.904354420864062e-16 1.0 -3.457628217821828e-15
  outer loop
    vertex 759.7929562704327 403.52334120124425 -546.8999999999999
    vertex 743.0429562704331 403.5233412012443 -533.9000000000005
    vertex 762.7929562704328 403.52334120124425 -546.8999999999999
  endloop
endfacet
facet normal 5.904354420864062e-16 1.0 -3.457628217821828e-15
  outer loop
    vertex 762.7929562704328 403.52334120124425 -549.8999999999999
    vertex 765.7929562704329 403.5233412012442 -569.8999999999999
    vertex 762.7929562704328 403.5233412012442 -569.8999999999999
  endloop
endfacet
facet normal 5.904354420864062e-16 1.0 -3.457628217821828e-15
  outer loop
    vertex 765.7929562704329 403.5233412012442 -569.8999999999999
    vertex 762.7929562704328 403.52334120124425 -549.8999999999999
    vertex 765.7929562704331 403.5233412012443 -533.9000000000005
  endloop
endfacet
facet normal 5.904354420864062e-16 1.0 -3.457628217821828e-15
  outer loop
    vertex 765.7929562704331 403.5233412012443 -533.9000000000005
    vertex 762.7929562704328 403.52334120124425 -549.8999999999999
    vertex 762.7929562704328 403.52334120124425 -546.8999999999999
  endloop
endfacet
facet normal 5.904354420864062e-16 1.0 -3.457628217821828e-15
  outer loop
    vertex 765.7929562704331 403.5233412012443 -533.9000000000005
    vertex 762.7929562704328 403.52334120124425 -546.8999999999999
    vertex 743.0429562704331 403.5233412012443 -533.9000000000005
  endloop
endfacet
facet normal 5.904354420864062e-16 1.0 -3.457628217821828e-15
  outer loop
    vertex 765.7929562704331 403.5233412012443 -533.9000000000005
    vertex 743.0429562704331 403.5233412012443 -533.9000000000005
    vertex 746.0429562704331 403.5233412012443 -530.9000000000005
  endloop
endfacet
facet normal 5.904354420864062e-16 1.0 -3.457628217821828e-15
  outer loop
    vertex 765.7929562704331 403.5233412012443 -533.9000000000005
    vertex 746.0429562704331 403.5233412012443 -530.9000000000005
    vertex 762.792956270433 403.5233412012443 -530.9000000000005
  endloop
endfacet
facet normal 1.354591281721745e-15 -1.0 1.5546176253359575e-14
  outer loop
    vertex 765.7929562704331 397.2733412012446 -533.9000000000005
    vertex 743.0429562704328 397.27334120124425 -550.8999999999993
    vertex 765.7929562704328 397.27334120124425 -550.8999999999993
  endloop
endfacet
facet normal 1.354591281721745e-15 -1.0 1.5546176253359575e-14
  outer loop
    vertex 743.0429562704328 397.27334120124425 -550.8999999999993
    vertex 765.7929562704331 397.2733412012446 -533.9000000000005
    vertex 743.0429562704331 397.27334120124453 -533.9000000000005
  endloop
endfacet
facet normal 1.354591281721745e-15 -1.0 1.5546176253359575e-14
  outer loop
    vertex 743.0429562704331 397.27334120124453 -533.9000000000005
    vertex 765.7929562704331 397.2733412012446 -533.9000000000005
    vertex 762.792956270433 397.2733412012446 -530.9000000000005
  endloop
endfacet
facet normal 1.354591281721745e-15 -1.0 1.5546176253359575e-14
  outer loop
    vertex 743.0429562704331 397.27334120124453 -533.9000000000005
    vertex 762.792956270433 397.2733412012446 -530.9000000000005
    vertex 746.0429562704331 397.27334120124453 -530.9000000000005
  endloop
endfacet
facet normal 0.0 0.7071067811865581 0.7071067811865369
  outer loop
    vertex 697.7929562704326 403.523341201244 -546.8999999999987
    vertex 700.7929562704326 406.52334120124397 -549.8999999999987
    vertex 697.7929562704326 406.52334120124397 -549.8999999999987
  endloop
endfacet
facet normal 0.0 0.7071067811865581 0.7071067811865369
  outer loop
    vertex 700.7929562704326 406.52334120124397 -549.8999999999987
    vertex 697.7929562704326 403.523341201244 -546.8999999999987
    vertex 700.7929562704326 403.523341201244 -546.8999999999987
  endloop
endfacet
facet normal 0.0 1.0 0.0
  outer loop
    vertex 697.7929562704326 403.523341201244 -546.8999999999987
    vertex 700.7929562704326 403.523341201244 -549.8999999999987
    vertex 697.7929562704326 403.523341201244 -549.8999999999987
  endloop
endfacet
facet normal 0.0 1.0 0.0
  outer loop
    vertex 700.7929562704326 403.523341201244 -549.8999999999987
    vertex 697.7929562704326 403.523341201244 -546.8999999999987
    vertex 700.7929562704326 403.523341201244 -546.8999999999987
  endloop
endfacet
facet normal 0.0 1.0 0.0
  outer loop
    vertex 759.7929562704327 403.52334120124425 -546.8999999999999
    vertex 762.7929562704328 403.52334120124425 -549.8999999999999
    vertex 759.7929562704327 403.52334120124425 -549.8999999999999
  endloop
endfacet
facet normal 0.0 1.0 0.0
  outer loop
    vertex 762.7929562704328 403.52334120124425 -549.8999999999999
    vertex 759.7929562704327 403.52334120124425 -546.8999999999999
    vertex 762.7929562704328 403.52334120124425 -546.8999999999999
  endloop
endfacet
facet normal 0.0 0.7071067811865422 0.7071067811865528
  outer loop
    vertex 762.7929562704328 403.52334120124425 -546.8999999999999
    vertex 759.7929562704327 406.5233412012443 -549.8999999999999
    vertex 759.7929562704327 403.52334120124425 -546.8999999999999
  endloop
endfacet
facet normal 0.0 0.7071067811865422 0.7071067811865528
  outer loop
    vertex 759.7929562704327 406.5233412012443 -549.8999999999999
    vertex 762.7929562704328 403.52334120124425 -546.8999999999999
    vertex 762.7929562704328 406.5233412012443 -549.8999999999999
  endloop
endfacet
facet normal -5.904354420864402e-16 1.0 -3.4576282178218186e-15
  outer loop
    vertex 694.7929562704329 403.5233412012441 -533.8999999999994
    vertex 697.7929562704326 403.52334120124397 -569.8999999999987
    vertex 694.7929562704327 403.52334120124397 -569.8999999999987
  endloop
endfacet
facet normal -5.904354420864402e-16 1.0 -3.4576282178218186e-15
  outer loop
    vertex 697.7929562704326 403.52334120124397 -569.8999999999987
    vertex 694.7929562704329 403.5233412012441 -533.8999999999994
    vertex 697.7929562704326 403.523341201244 -549.8999999999987
  endloop
endfacet
facet normal -5.904354420864402e-16 1.0 -3.4576282178218186e-15
  outer loop
    vertex 697.7929562704326 403.523341201244 -549.8999999999987
    vertex 694.7929562704329 403.5233412012441 -533.8999999999994
    vertex 697.7929562704326 403.523341201244 -546.8999999999987
  endloop
endfacet
facet normal -5.904354420864402e-16 1.0 -3.4576282178218186e-15
  outer loop
    vertex 697.7929562704326 403.523341201244 -546.8999999999987
    vertex 694.7929562704329 403.5233412012441 -533.8999999999994
    vertex 700.7929562704326 403.523341201244 -546.8999999999987
  endloop
endfacet
facet normal -5.904354420864402e-16 1.0 -3.4576282178218186e-15
  outer loop
    vertex 700.7929562704326 403.523341201244 -549.8999999999987
    vertex 717.5429562704327 403.52334120124397 -569.8999999999987
    vertex 700.7929562704326 403.52334120124397 -569.8999999999987
  endloop
endfacet
facet normal -5.904354420864402e-16 1.0 -3.4576282178218186e-15
  outer loop
    vertex 717.5429562704327 403.52334120124397 -569.8999999999987
    vertex 700.7929562704326 403.523341201244 -549.8999999999987
    vertex 717.5429562704329 403.5233412012441 -533.8999999999994
  endloop
endfacet
facet normal -5.904354420864402e-16 1.0 -3.4576282178218186e-15
  outer loop
    vertex 717.5429562704329 403.5233412012441 -533.8999999999994
    vertex 700.7929562704326 403.523341201244 -549.8999999999987
    vertex 700.7929562704326 403.523341201244 -546.8999999999987
  endloop
endfacet
facet normal -5.904354420864402e-16 1.0 -3.4576282178218186e-15
  outer loop
    vertex 717.5429562704329 403.5233412012441 -533.8999999999994
    vertex 700.7929562704326 403.523341201244 -546.8999999999987
    vertex 694.7929562704329 403.5233412012441 -533.8999999999994
  endloop
endfacet
facet normal -5.904354420864402e-16 1.0 -3.4576282178218186e-15
  outer loop
    vertex 717.5429562704329 403.5233412012441 -533.8999999999994
    vertex 694.7929562704329 403.5233412012441 -533.8999999999994
    vertex 697.7929562704329 403.5233412012441 -530.8999999999994
  endloop
endfacet
facet normal -5.904354420864402e-16 1.0 -3.4576282178218186e-15
  outer loop
    vertex 717.5429562704329 403.5233412012441 -533.8999999999994
    vertex 697.7929562704329 403.5233412012441 -530.8999999999994
    vertex 714.5429562704328 403.5233412012441 -530.8999999999994
  endloop
endfacet
facet normal -0.7071067811865476 0.0 0.7071067811865476
  outer loop
    vertex 697.7929562704329 403.5233412012441 -530.8999999999994
    vertex 694.7929562704329 397.2733412012443 -533.8999999999994
    vertex 697.7929562704329 397.2733412012443 -530.8999999999994
  endloop
endfacet
facet normal -0.7071067811865476 0.0 0.7071067811865476
  outer loop
    vertex 694.7929562704329 397.2733412012443 -533.8999999999994
    vertex 697.7929562704329 403.5233412012441 -530.8999999999994
    vertex 694.7929562704329 403.5233412012441 -533.8999999999994
  endloop
endfacet
facet normal 9.28922183960549e-16 -1.0 0.0
  outer loop
    vertex 765.7929562704328 400.2733412012442 -550.8999999999993
    vertex 743.0429562704328 400.2733412012442 -572.8999999999993
    vertex 765.7929562704328 400.2733412012442 -572.8999999999993
  endloop
endfacet
facet normal 9.28922183960549e-16 -1.0 0.0
  outer loop
    vertex 743.0429562704328 400.2733412012442 -572.8999999999993
    vertex 765.7929562704328 400.2733412012442 -550.8999999999993
    vertex 743.0429562704328 400.2733412012442 -569.8999999999993
  endloop
endfacet
facet normal 9.28922183960549e-16 -1.0 0.0
  outer loop
    vertex 743.0429562704328 400.2733412012442 -569.8999999999993
    vertex 765.7929562704328 400.2733412012442 -550.8999999999993
    vertex 743.0429562704328 400.2733412012442 -550.8999999999993
  endloop
endfacet
facet normal -1.0554459272938404e-15 0.0 -1.0
  outer loop
    vertex 765.7929562704328 400.2733412012442 -550.8999999999993
    vertex 743.0429562704328 397.27334120124425 -550.8999999999993
    vertex 743.0429562704328 400.2733412012442 -550.8999999999993
  endloop
endfacet
facet normal -1.0554459272938404e-15 0.0 -1.0
  outer loop
    vertex 743.0429562704328 397.27334120124425 -550.8999999999993
    vertex 765.7929562704328 400.2733412012442 -550.8999999999993
    vertex 765.7929562704328 397.27334120124425 -550.8999999999993
  endloop
endfacet
facet normal -2.4940407081824085e-15 -1.0 3.007964248051003e-14
  outer loop
    vertex 740.0429562704328 417.27334120124414 -569.8999999999992
    vertex 720.5429562704327 417.27334120124414 -572.899999999999
    vertex 740.0429562704328 417.27334120124414 -572.8999999999992
  endloop
endfacet
facet normal -2.4940407081824085e-15 -1.0 3.007964248051003e-14
  outer loop
    vertex 720.5429562704327 417.27334120124414 -572.899999999999
    vertex 740.0429562704328 417.27334120124414 -569.8999999999992
    vertex 720.5429562704329 417.2733412012444 -569.8999999999988
  endloop
endfacet
facet normal -3.0089155763724085e-15 1.0 9.763736434546979e-16
  outer loop
    vertex 694.7929562704326 422.27334120124397 -552.8999999999988
    vertex 717.5429562704326 422.2733412012441 -569.9000000000009
    vertex 694.7929562704327 422.27334120124397 -572.8999999999982
  endloop
endfacet
facet normal -3.0089155763724085e-15 1.0 9.763736434546979e-16
  outer loop
    vertex 717.5429562704326 422.2733412012441 -569.9000000000009
    vertex 694.7929562704326 422.27334120124397 -552.8999999999988
    vertex 717.5429562704326 422.27334120124397 -552.8999999999988
  endloop
endfacet
facet normal -3.0089155763724085e-15 1.0 9.763736434546979e-16
  outer loop
    vertex 717.5429562704326 422.27334120124397 -552.8999999999988
    vertex 694.7929562704326 422.27334120124397 -552.8999999999988
    vertex 697.7929562704326 422.27334120124397 -549.8999999999987
  endloop
endfacet
facet normal -3.0089155763724085e-15 1.0 9.763736434546979e-16
  outer loop
    vertex 717.5429562704326 422.27334120124397 -552.8999999999988
    vertex 697.7929562704326 422.27334120124397 -549.8999999999987
    vertex 714.5429562704326 422.27334120124397 -549.8999999999987
  endloop
endfacet
facet normal -3.0089155763724085e-15 1.0 9.763736434546979e-16
  outer loop
    vertex 765.7929562704328 422.2733412012442 -572.8999999999993
    vertex 743.0429562704328 422.2733412012442 -569.9000000000009
    vertex 765.7929562704328 422.2733412012442 -552.9
  endloop
endfacet
facet normal -3.0089155763724085e-15 1.0 9.763736434546979e-16
  outer loop
    vertex 743.0429562704328 422.2733412012442 -569.9000000000009
    vertex 765.7929562704328 422.2733412012442 -572.8999999999993
    vertex 694.7929562704327 422.27334120124397 -572.8999999999982
  endloop
endfacet
facet normal -3.0089155763724085e-15 1.0 9.763736434546979e-16
  outer loop
    vertex 743.0429562704328 422.2733412012442 -569.9000000000009
    vertex 694.7929562704327 422.27334120124397 -572.8999999999982
    vertex 717.5429562704326 422.2733412012441 -569.9000000000009
  endloop
endfacet
facet normal -3.0089155763724085e-15 1.0 9.763736434546979e-16
  outer loop
    vertex 765.7929562704328 422.2733412012442 -552.9
    vertex 743.0429562704328 422.2733412012442 -569.9000000000009
    vertex 743.0429562704328 422.2733412012442 -552.9
  endloop
endfacet
facet normal -3.0089155763724085e-15 1.0 9.763736434546979e-16
  outer loop
    vertex 765.7929562704328 422.2733412012442 -552.9
    vertex 743.0429562704328 422.2733412012442 -552.9
    vertex 746.0429562704328 422.2733412012442 -549.8999999999999
  endloop
endfacet
facet normal -3.0089155763724085e-15 1.0 9.763736434546979e-16
  outer loop
    vertex 765.7929562704328 422.2733412012442 -552.9
    vertex 746.0429562704328 422.2733412012442 -549.8999999999999
    vertex 762.7929562704328 422.2733412012442 -549.8999999999999
  endloop
endfacet
facet normal -1.0 -5.434629520038335e-15 4.1999198749526895e-15
  outer loop
    vertex 694.7929562704329 397.2733412012443 -533.8999999999994
    vertex 694.7929562704327 400.27334120124397 -550.8999999999982
    vertex 694.7929562704327 397.273341201244 -550.8999999999982
  endloop
endfacet
facet normal -1.0 -5.434629520038335e-15 4.1999198749526895e-15
  outer loop
    vertex 694.7929562704327 400.27334120124397 -550.8999999999982
    vertex 694.7929562704329 397.2733412012443 -533.8999999999994
    vertex 694.7929562704329 403.5233412012441 -533.8999999999994
  endloop
endfacet
facet normal -1.0 -5.434629520038335e-15 4.1999198749526895e-15
  outer loop
    vertex 694.7929562704327 400.27334120124397 -550.8999999999982
    vertex 694.7929562704329 403.5233412012441 -533.8999999999994
    vertex 694.7929562704327 400.27334120124397 -572.8999999999982
  endloop
endfacet
facet normal -1.0 -5.434629520038335e-15 4.1999198749526895e-15
  outer loop
    vertex 694.7929562704327 400.27334120124397 -572.8999999999982
    vertex 694.7929562704329 403.5233412012441 -533.8999999999994
    vertex 694.7929562704327 403.52334120124397 -569.8999999999987
  endloop
endfacet
facet normal -1.0 -5.434629520038335e-15 4.1999198749526895e-15
  outer loop
    vertex 694.7929562704326 422.27334120124397 -552.8999999999988
    vertex 694.7929562704326 419.27334120124397 -569.8999999999987
    vertex 694.7929562704326 419.27334120124397 -552.8999999999988
  endloop
endfacet
facet normal -1.0 -5.434629520038335e-15 4.1999198749526895e-15
  outer loop
    vertex 694.7929562704327 403.52334120124397 -569.8999999999987
    vertex 694.7929562704327 422.27334120124397 -572.8999999999982
    vertex 694.7929562704327 400.27334120124397 -572.8999999999982
  endloop
endfacet
facet normal -1.0 -5.434629520038335e-15 4.1999198749526895e-15
  outer loop
    vertex 694.7929562704327 422.27334120124397 -572.8999999999982
    vertex 694.7929562704327 403.52334120124397 -569.8999999999987
    vertex 694.7929562704326 419.27334120124397 -569.8999999999987
  endloop
endfacet
facet normal -1.0 -5.434629520038335e-15 4.1999198749526895e-15
  outer loop
    vertex 694.7929562704327 422.27334120124397 -572.8999999999982
    vertex 694.7929562704326 419.27334120124397 -569.8999999999987
    vertex 694.7929562704326 422.27334120124397 -552.8999999999988
  endloop
endfacet
facet normal 2.633188800687603e-14 3.40973099446731e-14 1.0
  outer loop
    vertex 743.0429562704328 400.2733412012442 -569.8999999999993
    vertex 717.5429562704327 403.52334120124397 -569.8999999999987
    vertex 717.5429562704326 400.27334120124397 -569.8999999999993
  endloop
endfacet
facet normal 2.633188800687603e-14 3.40973099446731e-14 1.0
  outer loop
    vertex 717.5429562704327 403.52334120124397 -569.8999999999987
    vertex 743.0429562704328 400.2733412012442 -569.8999999999993
    vertex 720.5429562704327 403.52334120124414 -569.8999999999982
  endloop
endfacet
facet normal 2.633188800687603e-14 3.40973099446731e-14 1.0
  outer loop
    vertex 720.5429562704327 403.52334120124414 -569.8999999999982
    vertex 743.0429562704328 400.2733412012442 -569.8999999999993
    vertex 740.042956270433 403.52334120124414 -569.8999999999995
  endloop
endfacet
facet normal 2.633188800687603e-14 3.40973099446731e-14 1.0
  outer loop
    vertex 740.042956270433 403.52334120124414 -569.8999999999995
    vertex 743.0429562704328 400.2733412012442 -569.8999999999993
    vertex 743.0429562704329 403.5233412012442 -569.8999999999999
  endloop
endfacet
facet normal 2.633188800687603e-14 3.40973099446731e-14 1.0
  outer loop
    vertex 740.042956270433 403.52334120124414 -569.8999999999995
    vertex 743.0429562704329 403.5233412012442 -569.8999999999999
    vertex 743.042956270433 406.52334120124425 -569.8999999999997
  endloop
endfacet
facet normal 2.633188800687603e-14 3.40973099446731e-14 1.0
  outer loop
    vertex 743.042956270433 406.52334120124425 -569.8999999999997
    vertex 743.0429562704329 403.5233412012442 -569.8999999999999
    vertex 759.7929562704327 403.5233412012442 -569.8999999999999
  endloop
endfacet
facet normal 2.633188800687603e-14 3.40973099446731e-14 1.0
  outer loop
    vertex 743.0429562704328 414.2733412012441 -569.8999999999993
    vertex 743.0429562704328 419.27334120124414 -569.8999999999999
    vertex 740.0429562704328 417.27334120124414 -569.8999999999992
  endloop
endfacet
facet normal 2.633188800687603e-14 3.40973099446731e-14 1.0
  outer loop
    vertex 743.0429562704328 419.27334120124414 -569.8999999999999
    vertex 743.0429562704328 414.2733412012441 -569.8999999999993
    vertex 759.7929562704327 419.27334120124414 -569.8999999999999
  endloop
endfacet
facet normal 2.633188800687603e-14 3.40973099446731e-14 1.0
  outer loop
    vertex 759.7929562704327 419.27334120124414 -569.8999999999999
    vertex 743.0429562704328 414.2733412012441 -569.8999999999993
    vertex 743.042956270433 406.52334120124425 -569.8999999999997
  endloop
endfacet
facet normal 2.633188800687603e-14 3.40973099446731e-14 1.0
  outer loop
    vertex 759.7929562704327 419.27334120124414 -569.8999999999999
    vertex 743.042956270433 406.52334120124425 -569.8999999999997
    vertex 759.7929562704327 403.5233412012442 -569.8999999999999
  endloop
endfacet
facet normal 2.633188800687603e-14 3.40973099446731e-14 1.0
  outer loop
    vertex 717.5429562704326 406.52334120124397 -569.8999999999982
    vertex 717.5429562704326 419.27334120124397 -569.8999999999987
    vertex 700.7929562704326 419.27334120124397 -569.8999999999987
  endloop
endfacet
facet normal 2.633188800687603e-14 3.40973099446731e-14 1.0
  outer loop
    vertex 717.5429562704326 419.27334120124397 -569.8999999999987
    vertex 717.5429562704326 406.52334120124397 -569.8999999999982
    vertex 717.5429562704329 414.27334120124436 -569.8999999999984
  endloop
endfacet
facet normal 2.633188800687603e-14 3.40973099446731e-14 1.0
  outer loop
    vertex 717.5429562704326 419.27334120124397 -569.8999999999987
    vertex 717.5429562704329 414.27334120124436 -569.8999999999984
    vertex 717.5429562704326 422.2733412012441 -569.9000000000009
  endloop
endfacet
facet normal 2.633188800687603e-14 3.40973099446731e-14 1.0
  outer loop
    vertex 717.5429562704326 422.2733412012441 -569.9000000000009
    vertex 717.5429562704329 414.27334120124436 -569.8999999999984
    vertex 720.5429562704329 417.2733412012444 -569.8999999999988
  endloop
endfacet
facet normal 2.633188800687603e-14 3.40973099446731e-14 1.0
  outer loop
    vertex 717.5429562704326 422.2733412012441 -569.9000000000009
    vertex 720.5429562704329 417.2733412012444 -569.8999999999988
    vertex 743.0429562704328 422.2733412012442 -569.9000000000009
  endloop
endfacet
facet normal 2.633188800687603e-14 3.40973099446731e-14 1.0
  outer loop
    vertex 743.0429562704328 422.2733412012442 -569.9000000000009
    vertex 720.5429562704329 417.2733412012444 -569.8999999999988
    vertex 740.0429562704328 417.27334120124414 -569.8999999999992
  endloop
endfacet
facet normal 2.633188800687603e-14 3.40973099446731e-14 1.0
  outer loop
    vertex 743.0429562704328 422.2733412012442 -569.9000000000009
    vertex 740.0429562704328 417.27334120124414 -569.8999999999992
    vertex 743.0429562704328 419.27334120124414 -569.8999999999999
  endloop
endfacet
facet normal 2.633188800687603e-14 3.40973099446731e-14 1.0
  outer loop
    vertex 717.5429562704327 403.52334120124397 -569.8999999999987
    vertex 700.7929562704326 419.27334120124397 -569.8999999999987
    vertex 700.7929562704326 403.52334120124397 -569.8999999999987
  endloop
endfacet
facet normal 2.633188800687603e-14 3.40973099446731e-14 1.0
  outer loop
    vertex 700.7929562704326 419.27334120124397 -569.8999999999987
    vertex 717.5429562704327 403.52334120124397 -569.8999999999987
    vertex 717.5429562704326 406.52334120124397 -569.8999999999982
  endloop
endfacet
facet normal 2.633188800687603e-14 3.40973099446731e-14 1.0
  outer loop
    vertex 717.5429562704326 406.52334120124397 -569.8999999999982
    vertex 717.5429562704327 403.52334120124397 -569.8999999999987
    vertex 720.5429562704327 403.52334120124414 -569.8999999999982
  endloop
endfacet
facet normal 0.0 0.0 1.0
  outer loop
    vertex 762.7929562704328 406.5233412012443 -549.8999999999999
    vertex 759.7929562704327 419.27334120124414 -549.8999999999999
    vertex 759.7929562704327 406.5233412012443 -549.8999999999999
  endloop
endfacet
facet normal 0.0 0.0 1.0
  outer loop
    vertex 759.7929562704327 419.27334120124414 -549.8999999999999
    vertex 746.0429562704328 422.2733412012442 -549.8999999999999
    vertex 746.0429562704328 419.27334120124414 -549.8999999999999
  endloop
endfacet
facet normal 0.0 0.0 1.0
  outer loop
    vertex 746.0429562704328 422.2733412012442 -549.8999999999999
    vertex 759.7929562704327 419.27334120124414 -549.8999999999999
    vertex 762.7929562704328 422.2733412012442 -549.8999999999999
  endloop
endfacet
facet normal 0.0 0.0 1.0
  outer loop
    vertex 762.7929562704328 422.2733412012442 -549.8999999999999
    vertex 759.7929562704327 419.27334120124414 -549.8999999999999
    vertex 762.7929562704328 406.5233412012443 -549.8999999999999
  endloop
endfacet
facet normal 0.0 0.0 1.0
  outer loop
    vertex 762.7929562704328 422.2733412012442 -549.8999999999999
    vertex 762.7929562704328 406.5233412012443 -549.8999999999999
    vertex 762.7929562704328 419.27334120124414 -549.8999999999999
  endloop
endfacet
facet normal -1.0 0.0 0.0
  outer loop
    vertex 697.7929562704326 406.52334120124397 -549.8999999999987
    vertex 697.7929562704326 403.523341201244 -549.8999999999987
    vertex 697.7929562704326 403.523341201244 -546.8999999999987
  endloop
endfacet
facet normal -1.0 0.0 0.0
  outer loop
    vertex 697.7929562704326 403.523341201244 -549.8999999999987
    vertex 697.7929562704326 419.27334120124397 -569.8999999999987
    vertex 697.7929562704326 403.52334120124397 -569.8999999999987
  endloop
endfacet
facet normal -1.0 0.0 0.0
  outer loop
    vertex 697.7929562704326 419.27334120124397 -569.8999999999987
    vertex 697.7929562704326 403.523341201244 -549.8999999999987
    vertex 697.7929562704326 406.52334120124397 -549.8999999999987
  endloop
endfacet
facet normal -1.0 0.0 0.0
  outer loop
    vertex 697.7929562704326 419.27334120124397 -569.8999999999987
    vertex 697.7929562704326 406.52334120124397 -549.8999999999987
    vertex 697.7929562704326 419.27334120124397 -549.8999999999987
  endloop
endfacet
facet normal 0.0 -1.0 0.0
  outer loop
    vertex 697.7929562704326 419.27334120124397 -549.8999999999987
    vertex 694.7929562704326 419.27334120124397 -569.8999999999987
    vertex 697.7929562704326 419.27334120124397 -569.8999999999987
  endloop
endfacet
facet normal 0.0 -1.0 0.0
  outer loop
    vertex 694.7929562704326 419.27334120124397 -569.8999999999987
    vertex 697.7929562704326 419.27334120124397 -549.8999999999987
    vertex 694.7929562704326 419.27334120124397 -552.8999999999988
  endloop
endfacet
facet normal 1.0 0.0 0.0
  outer loop
    vertex 700.7929562704326 419.27334120124397 -569.8999999999987
    vertex 700.7929562704326 403.523341201244 -549.8999999999987
    vertex 700.7929562704326 403.52334120124397 -569.8999999999987
  endloop
endfacet
facet normal 1.0 0.0 0.0
  outer loop
    vertex 700.7929562704326 403.523341201244 -549.8999999999987
    vertex 700.7929562704326 419.27334120124397 -569.8999999999987
    vertex 700.7929562704326 403.523341201244 -546.8999999999987
  endloop
endfacet
facet normal 1.0 0.0 0.0
  outer loop
    vertex 700.7929562704326 403.523341201244 -546.8999999999987
    vertex 700.7929562704326 419.27334120124397 -569.8999999999987
    vertex 700.7929562704326 406.52334120124397 -549.8999999999987
  endloop
endfacet
facet normal 1.0 0.0 0.0
  outer loop
    vertex 700.7929562704326 406.52334120124397 -549.8999999999987
    vertex 700.7929562704326 419.27334120124397 -569.8999999999987
    vertex 700.7929562704326 419.27334120124397 -549.8999999999987
  endloop
endfacet
facet normal 1.0 0.0 0.0
  outer loop
    vertex 762.7929562704328 419.27334120124414 -569.8999999999999
    vertex 762.7929562704328 403.52334120124425 -549.8999999999999
    vertex 762.7929562704328 403.5233412012442 -569.8999999999999
  endloop
endfacet
facet normal 1.0 0.0 0.0
  outer loop
    vertex 762.7929562704328 403.52334120124425 -549.8999999999999
    vertex 762.7929562704328 419.27334120124414 -569.8999999999999
    vertex 762.7929562704328 403.52334120124425 -546.8999999999999
  endloop
endfacet
facet normal 1.0 0.0 0.0
  outer loop
    vertex 762.7929562704328 403.52334120124425 -546.8999999999999
    vertex 762.7929562704328 419.27334120124414 -569.8999999999999
    vertex 762.7929562704328 406.5233412012443 -549.8999999999999
  endloop
endfacet
facet normal 1.0 0.0 0.0
  outer loop
    vertex 762.7929562704328 406.5233412012443 -549.8999999999999
    vertex 762.7929562704328 419.27334120124414 -569.8999999999999
    vertex 762.7929562704328 419.27334120124414 -549.8999999999999
  endloop
endfacet
facet normal -1.0 0.0 0.0
  outer loop
    vertex 759.7929562704327 406.5233412012443 -549.8999999999999
    vertex 759.7929562704327 403.52334120124425 -549.8999999999999
    vertex 759.7929562704327 403.52334120124425 -546.8999999999999
  endloop
endfacet
facet normal -1.0 0.0 0.0
  outer loop
    vertex 759.7929562704327 403.52334120124425 -549.8999999999999
    vertex 759.7929562704327 419.27334120124414 -569.8999999999999
    vertex 759.7929562704327 403.5233412012442 -569.8999999999999
  endloop
endfacet
facet normal -1.0 0.0 0.0
  outer loop
    vertex 759.7929562704327 419.27334120124414 -569.8999999999999
    vertex 759.7929562704327 403.52334120124425 -549.8999999999999
    vertex 759.7929562704327 406.5233412012443 -549.8999999999999
  endloop
endfacet
facet normal -1.0 0.0 0.0
  outer loop
    vertex 759.7929562704327 419.27334120124414 -569.8999999999999
    vertex 759.7929562704327 406.5233412012443 -549.8999999999999
    vertex 759.7929562704327 419.27334120124414 -549.8999999999999
  endloop
endfacet
facet normal 0.0 0.0 1.0
  outer loop
    vertex 765.7929562704329 403.5233412012442 -569.8999999999999
    vertex 762.7929562704328 419.27334120124414 -569.8999999999999
    vertex 762.7929562704328 403.5233412012442 -569.8999999999999
  endloop
endfacet
facet normal 0.0 0.0 1.0
  outer loop
    vertex 762.7929562704328 419.27334120124414 -569.8999999999999
    vertex 765.7929562704329 403.5233412012442 -569.8999999999999
    vertex 765.7929562704328 419.27334120124414 -569.8999999999999
  endloop
endfacet
facet normal 0.0 -1.0 0.0
  outer loop
    vertex 717.5429562704326 419.27334120124397 -552.8999999999988
    vertex 700.7929562704326 419.27334120124397 -569.8999999999987
    vertex 717.5429562704326 419.27334120124397 -569.8999999999987
  endloop
endfacet
facet normal 0.0 -1.0 0.0
  outer loop
    vertex 700.7929562704326 419.27334120124397 -569.8999999999987
    vertex 717.5429562704326 419.27334120124397 -552.8999999999988
    vertex 700.7929562704326 419.27334120124397 -549.8999999999987
  endloop
endfacet
facet normal 0.0 -1.0 0.0
  outer loop
    vertex 700.7929562704326 419.27334120124397 -549.8999999999987
    vertex 717.5429562704326 419.27334120124397 -552.8999999999988
    vertex 714.5429562704326 419.27334120124397 -549.8999999999987
  endloop
endfacet
facet normal 0.0 0.0 1.0
  outer loop
    vertex 700.7929562704326 406.52334120124397 -549.8999999999987
    vertex 697.7929562704326 419.27334120124397 -549.8999999999987
    vertex 697.7929562704326 406.52334120124397 -549.8999999999987
  endloop
endfacet
facet normal 0.0 0.0 1.0
  outer loop
    vertex 697.7929562704326 419.27334120124397 -549.8999999999987
    vertex 700.7929562704326 406.52334120124397 -549.8999999999987
    vertex 697.7929562704326 422.27334120124397 -549.8999999999987
  endloop
endfacet
facet normal 0.0 0.0 1.0
  outer loop
    vertex 697.7929562704326 422.27334120124397 -549.8999999999987
    vertex 700.7929562704326 406.52334120124397 -549.8999999999987
    vertex 700.7929562704326 419.27334120124397 -549.8999999999987
  endloop
endfacet
facet normal 0.0 0.0 1.0
  outer loop
    vertex 697.7929562704326 422.27334120124397 -549.8999999999987
    vertex 700.7929562704326 419.27334120124397 -549.8999999999987
    vertex 714.5429562704326 422.27334120124397 -549.8999999999987
  endloop
endfacet
facet normal 0.0 0.0 1.0
  outer loop
    vertex 714.5429562704326 422.27334120124397 -549.8999999999987
    vertex 700.7929562704326 419.27334120124397 -549.8999999999987
    vertex 714.5429562704326 419.27334120124397 -549.8999999999987
  endloop
endfacet
facet normal 1.0 2.0858353624612417e-15 -4.794498600255199e-15
  outer loop
    vertex 765.7929562704328 400.2733412012442 -572.8999999999993
    vertex 765.7929562704329 403.5233412012442 -569.8999999999999
    vertex 765.7929562704328 400.2733412012442 -550.8999999999993
  endloop
endfacet
facet normal 1.0 2.0858353624612417e-15 -4.794498600255199e-15
  outer loop
    vertex 765.7929562704329 403.5233412012442 -569.8999999999999
    vertex 765.7929562704328 400.2733412012442 -572.8999999999993
    vertex 765.7929562704328 422.2733412012442 -572.8999999999993
  endloop
endfacet
facet normal 1.0 2.0858353624612417e-15 -4.794498600255199e-15
  outer loop
    vertex 765.7929562704329 403.5233412012442 -569.8999999999999
    vertex 765.7929562704328 422.2733412012442 -572.8999999999993
    vertex 765.7929562704328 419.27334120124414 -569.8999999999999
  endloop
endfacet
facet normal 1.0 2.0858353624612417e-15 -4.794498600255199e-15
  outer loop
    vertex 765.7929562704328 419.27334120124414 -569.8999999999999
    vertex 765.7929562704328 422.2733412012442 -572.8999999999993
    vertex 765.7929562704328 419.27334120124414 -552.9
  endloop
endfacet
facet normal 1.0 2.0858353624612417e-15 -4.794498600255199e-15
  outer loop
    vertex 765.7929562704328 419.27334120124414 -552.9
    vertex 765.7929562704328 422.2733412012442 -572.8999999999993
    vertex 765.7929562704328 422.2733412012442 -552.9
  endloop
endfacet
facet normal 1.0 2.0858353624612417e-15 -4.794498600255199e-15
  outer loop
    vertex 765.7929562704328 400.2733412012442 -550.8999999999993
    vertex 765.7929562704331 397.2733412012446 -533.9000000000005
    vertex 765.7929562704328 397.27334120124425 -550.8999999999993
  endloop
endfacet
facet normal 1.0 2.0858353624612417e-15 -4.794498600255199e-15
  outer loop
    vertex 765.7929562704331 397.2733412012446 -533.9000000000005
    vertex 765.7929562704328 400.2733412012442 -550.8999999999993
    vertex 765.7929562704331 403.5233412012443 -533.9000000000005
  endloop
endfacet
facet normal 1.0 2.0858353624612417e-15 -4.794498600255199e-15
  outer loop
    vertex 765.7929562704331 403.5233412012443 -533.9000000000005
    vertex 765.7929562704328 400.2733412012442 -550.8999999999993
    vertex 765.7929562704329 403.5233412012442 -569.8999999999999
  endloop
endfacet
facet normal 1.0 0.0 0.0
  outer loop
    vertex 717.5429562704326 422.2733412012441 -569.9000000000009
    vertex 717.5429562704326 419.27334120124397 -552.8999999999988
    vertex 717.5429562704326 419.27334120124397 -569.8999999999987
  endloop
endfacet
facet normal 1.0 0.0 0.0
  outer loop
    vertex 717.5429562704326 419.27334120124397 -552.8999999999988
    vertex 717.5429562704326 422.2733412012441 -569.9000000000009
    vertex 717.5429562704326 422.27334120124397 -552.8999999999988
  endloop
endfacet
facet normal -2.1902030354342603e-14 -1.3227205948773453e-14 -1.0
  outer loop
    vertex 694.7929562704327 422.27334120124397 -572.8999999999982
    vertex 720.5429562704327 417.27334120124414 -572.899999999999
    vertex 694.7929562704327 400.27334120124397 -572.8999999999982
  endloop
endfacet
facet normal -2.1902030354342603e-14 -1.3227205948773453e-14 -1.0
  outer loop
    vertex 720.5429562704327 417.27334120124414 -572.899999999999
    vertex 694.7929562704327 422.27334120124397 -572.8999999999982
    vertex 765.7929562704328 422.2733412012442 -572.8999999999993
  endloop
endfacet
facet normal -2.1902030354342603e-14 -1.3227205948773453e-14 -1.0
  outer loop
    vertex 694.7929562704327 400.27334120124397 -572.8999999999982
    vertex 720.5429562704327 417.27334120124414 -572.899999999999
    vertex 717.5429562704326 414.2733412012441 -572.8999999999986
  endloop
endfacet
facet normal -2.1902030354342603e-14 -1.3227205948773453e-14 -1.0
  outer loop
    vertex 720.5429562704327 417.27334120124414 -572.899999999999
    vertex 765.7929562704328 422.2733412012442 -572.8999999999993
    vertex 740.0429562704328 417.27334120124414 -572.8999999999992
  endloop
endfacet
facet normal -2.1902030354342603e-14 -1.3227205948773453e-14 -1.0
  outer loop
    vertex 740.0429562704328 417.27334120124414 -572.8999999999992
    vertex 765.7929562704328 422.2733412012442 -572.8999999999993
    vertex 743.0429562704328 414.2733412012441 -572.8999999999993
  endloop
endfacet
facet normal -2.1902030354342603e-14 -1.3227205948773453e-14 -1.0
  outer loop
    vertex 743.0429562704328 414.2733412012441 -572.8999999999993
    vertex 765.7929562704328 422.2733412012442 -572.8999999999993
    vertex 743.0429562704328 406.52334120124425 -572.8999999999993
  endloop
endfacet
facet normal -2.1902030354342603e-14 -1.3227205948773453e-14 -1.0
  outer loop
    vertex 743.0429562704328 406.52334120124425 -572.8999999999993
    vertex 765.7929562704328 422.2733412012442 -572.8999999999993
    vertex 743.0429562704328 400.2733412012442 -572.8999999999993
  endloop
endfacet
facet normal -2.1902030354342603e-14 -1.3227205948773453e-14 -1.0
  outer loop
    vertex 743.0429562704328 400.2733412012442 -572.8999999999993
    vertex 765.7929562704328 422.2733412012442 -572.8999999999993
    vertex 765.7929562704328 400.2733412012442 -572.8999999999993
  endloop
endfacet
facet normal -2.1902030354342603e-14 -1.3227205948773453e-14 -1.0
  outer loop
    vertex 717.5429562704326 414.2733412012441 -572.8999999999986
    vertex 717.5429562704326 400.27334120124397 -572.8999999999982
    vertex 694.7929562704327 400.27334120124397 -572.8999999999982
  endloop
endfacet
facet normal -2.1902030354342603e-14 -1.3227205948773453e-14 -1.0
  outer loop
    vertex 717.5429562704326 400.27334120124397 -572.8999999999982
    vertex 717.5429562704326 414.2733412012441 -572.8999999999986
    vertex 717.5429562704326 406.52334120124397 -572.8999999999983
  endloop
endfacet
facet normal -2.1902030354342603e-14 -1.3227205948773453e-14 -1.0
  outer loop
    vertex 717.5429562704326 400.27334120124397 -572.8999999999982
    vertex 717.5429562704326 406.52334120124397 -572.8999999999983
    vertex 720.5429562704327 403.523341201244 -572.8999999999983
  endloop
endfacet
facet normal -2.1902030354342603e-14 -1.3227205948773453e-14 -1.0
  outer loop
    vertex 717.5429562704326 400.27334120124397 -572.8999999999982
    vertex 720.5429562704327 403.523341201244 -572.8999999999983
    vertex 743.0429562704328 400.2733412012442 -572.8999999999993
  endloop
endfacet
facet normal -2.1902030354342603e-14 -1.3227205948773453e-14 -1.0
  outer loop
    vertex 743.0429562704328 400.2733412012442 -572.8999999999993
    vertex 720.5429562704327 403.523341201244 -572.8999999999983
    vertex 740.0429562704328 403.52334120124414 -572.8999999999991
  endloop
endfacet
facet normal -2.1902030354342603e-14 -1.3227205948773453e-14 -1.0
  outer loop
    vertex 743.0429562704328 400.2733412012442 -572.8999999999993
    vertex 740.0429562704328 403.52334120124414 -572.8999999999991
    vertex 743.0429562704328 406.52334120124425 -572.8999999999993
  endloop
endfacet
facet normal 8.846953670738416e-15 -1.0 -4.504520372482238e-31
  outer loop
    vertex 743.0429562704328 400.2733412012442 -569.8999999999993
    vertex 717.5429562704326 400.27334120124397 -572.8999999999982
    vertex 743.0429562704328 400.2733412012442 -572.8999999999993
  endloop
endfacet
facet normal 8.846953670738416e-15 -1.0 -4.504520372482238e-31
  outer loop
    vertex 717.5429562704326 400.27334120124397 -572.8999999999982
    vertex 743.0429562704328 400.2733412012442 -569.8999999999993
    vertex 717.5429562704326 400.27334120124397 -569.8999999999993
  endloop
endfacet
facet normal 1.0 -1.0203047313971907e-14 -4.010618997401446e-14
  outer loop
    vertex 717.5429562704326 414.2733412012441 -572.8999999999986
    vertex 717.5429562704326 406.52334120124397 -569.8999999999982
    vertex 717.5429562704326 406.52334120124397 -572.8999999999983
  endloop
endfacet
facet normal 1.0 -1.0203047313971907e-14 -4.010618997401446e-14
  outer loop
    vertex 717.5429562704326 406.52334120124397 -569.8999999999982
    vertex 717.5429562704326 414.2733412012441 -572.8999999999986
    vertex 717.5429562704329 414.27334120124436 -569.8999999999984
  endloop
endfacet
facet normal -1.0 1.79658903242604e-14 6.889513902295389e-15
  outer loop
    vertex 743.0429562704331 397.27334120124453 -533.9000000000005
    vertex 743.0429562704328 400.2733412012442 -550.8999999999993
    vertex 743.0429562704328 397.27334120124425 -550.8999999999993
  endloop
endfacet
facet normal -1.0 1.79658903242604e-14 6.889513902295389e-15
  outer loop
    vertex 743.0429562704328 400.2733412012442 -550.8999999999993
    vertex 743.0429562704331 397.27334120124453 -533.9000000000005
    vertex 743.0429562704331 403.5233412012443 -533.9000000000005
  endloop
endfacet
facet normal -1.0 1.79658903242604e-14 6.889513902295389e-15
  outer loop
    vertex 743.0429562704328 400.2733412012442 -550.8999999999993
    vertex 743.0429562704331 403.5233412012443 -533.9000000000005
    vertex 743.0429562704328 400.2733412012442 -569.8999999999993
  endloop
endfacet
facet normal -1.0 1.79658903242604e-14 6.889513902295389e-15
  outer loop
    vertex 743.0429562704328 400.2733412012442 -569.8999999999993
    vertex 743.0429562704331 403.5233412012443 -533.9000000000005
    vertex 743.0429562704329 403.5233412012442 -569.8999999999999
  endloop
endfacet
facet normal -1.0 -5.681936528140744e-15 3.0079642480512625e-14
  outer loop
    vertex 743.0429562704328 414.2733412012441 -569.8999999999993
    vertex 743.0429562704328 406.52334120124425 -572.8999999999993
    vertex 743.042956270433 406.52334120124425 -569.8999999999997
  endloop
endfacet
facet normal -1.0 -5.681936528140744e-15 3.0079642480512625e-14
  outer loop
    vertex 743.0429562704328 406.52334120124425 -572.8999999999993
    vertex 743.0429562704328 414.2733412012441 -569.8999999999993
    vertex 743.0429562704328 414.2733412012441 -572.8999999999993
  endloop
endfacet
facet normal -6.386255752772362e-15 1.0 -1.5039821240261058e-14
  outer loop
    vertex 720.5429562704327 403.523341201244 -572.8999999999983
    vertex 740.042956270433 403.52334120124414 -569.8999999999995
    vertex 740.0429562704328 403.52334120124414 -572.8999999999991
  endloop
endfacet
facet normal -6.386255752772362e-15 1.0 -1.5039821240261058e-14
  outer loop
    vertex 740.042956270433 403.52334120124414 -569.8999999999995
    vertex 720.5429562704327 403.523341201244 -572.8999999999983
    vertex 720.5429562704327 403.52334120124414 -569.8999999999982
  endloop
endfacet
facet normal -0.7071067811865528 0.7071067811865422 4.253644197043119e-14
  outer loop
    vertex 743.042956270433 406.52334120124425 -569.8999999999997
    vertex 740.0429562704328 403.52334120124414 -572.8999999999991
    vertex 740.042956270433 403.52334120124414 -569.8999999999995
  endloop
endfacet
facet normal -0.7071067811865528 0.7071067811865422 4.253644197043119e-14
  outer loop
    vertex 740.0429562704328 403.52334120124414 -572.8999999999991
    vertex 743.042956270433 406.52334120124425 -569.8999999999997
    vertex 743.0429562704328 406.52334120124425 -572.8999999999993
  endloop
endfacet
facet normal 0.707106781186529 0.7071067811865661 -1.5959409235412333e-14
  outer loop
    vertex 717.5429562704326 406.52334120124397 -569.8999999999982
    vertex 720.5429562704327 403.523341201244 -572.8999999999983
    vertex 717.5429562704326 406.52334120124397 -572.8999999999983
  endloop
endfacet
facet normal 0.707106781186529 0.7071067811865661 -1.5959409235412333e-14
  outer loop
    vertex 720.5429562704327 403.523341201244 -572.8999999999983
    vertex 717.5429562704326 406.52334120124397 -569.8999999999982
    vertex 720.5429562704327 403.52334120124414 -569.8999999999982
  endloop
endfacet
endsolid Main V1
