solid Main V1
facet normal 2.641534487046688e-16 -4.7112079367654824e-15 -1.0
  outer loop
    vertex 717.7929562704308 397.4733412012434 -132.34070617925843
    vertex 723.9929562704307 400.4733412012435 -132.34070617925852
    vertex 742.9929562704311 397.4733412012437 -132.34070617925852
  endloop
endfacet
facet normal 2.641534487046688e-16 -4.7112079367654824e-15 -1.0
  outer loop
    vertex 723.9929562704307 400.4733412012435 -132.34070617925852
    vertex 717.7929562704308 397.4733412012434 -132.34070617925843
    vertex 720.7929562704306 403.4733412012435 -132.34070617925846
  endloop
endfacet
facet normal 2.641534487046688e-16 -4.7112079367654824e-15 -1.0
  outer loop
    vertex 720.7929562704306 403.4733412012435 -132.34070617925846
    vertex 717.7929562704308 397.4733412012434 -132.34070617925843
    vertex 717.7929562704305 414.2733412012434 -132.34070617925858
  endloop
endfacet
facet normal 2.641534487046688e-16 -4.7112079367654824e-15 -1.0
  outer loop
    vertex 720.7929562704306 403.4733412012435 -132.34070617925846
    vertex 717.7929562704305 414.2733412012434 -132.34070617925858
    vertex 720.7929562704305 414.2733412012434 -132.3407061792586
  endloop
endfacet
facet normal 2.641534487046688e-16 -4.7112079367654824e-15 -1.0
  outer loop
    vertex 742.9929562704311 397.4733412012437 -132.34070617925852
    vertex 723.9929562704307 400.4733412012435 -132.34070617925852
    vertex 736.9929562704306 400.47334120124367 -132.34070617925852
  endloop
endfacet
facet normal 2.641534487046688e-16 -4.7112079367654824e-15 -1.0
  outer loop
    vertex 742.9929562704311 397.4733412012437 -132.34070617925852
    vertex 736.9929562704306 400.47334120124367 -132.34070617925852
    vertex 739.9929562704306 404.07334120124364 -132.34070617925846
  endloop
endfacet
facet normal 2.641534487046688e-16 -4.7112079367654824e-15 -1.0
  outer loop
    vertex 742.9929562704311 397.4733412012437 -132.34070617925852
    vertex 739.9929562704306 404.07334120124364 -132.34070617925846
    vertex 745.9929562704307 404.0733412012438 -132.34070617925846
  endloop
endfacet
facet normal 2.641534487046688e-16 -4.7112079367654824e-15 -1.0
  outer loop
    vertex 742.9929562704311 397.4733412012437 -132.34070617925852
    vertex 745.9929562704307 404.0733412012438 -132.34070617925846
    vertex 742.9929562704311 394.0733412012437 -132.3407061792585
  endloop
endfacet
facet normal 2.641534487046688e-16 -4.7112079367654824e-15 -1.0
  outer loop
    vertex 742.9929562704311 394.0733412012437 -132.3407061792585
    vertex 745.9929562704307 404.0733412012438 -132.34070617925846
    vertex 745.9929562704308 388.07334120124375 -132.34070617925843
  endloop
endfacet
facet normal 2.641534487046688e-16 -4.7112079367654824e-15 -1.0
  outer loop
    vertex 745.9929562704308 388.07334120124375 -132.34070617925843
    vertex 745.9929562704307 404.0733412012438 -132.34070617925846
    vertex 748.9929562704309 391.07334120124386 -132.3407061792585
  endloop
endfacet
facet normal 2.641534487046688e-16 -4.7112079367654824e-15 -1.0
  outer loop
    vertex 748.9929562704309 391.07334120124386 -132.3407061792585
    vertex 745.9929562704307 404.0733412012438 -132.34070617925846
    vertex 748.9929562704306 401.07334120124375 -132.34070617925843
  endloop
endfacet
facet normal 2.641534487046688e-16 -4.7112079367654824e-15 -1.0
  outer loop
    vertex 720.9929562704311 394.07334120124335 -132.34070617925843
    vertex 726.992956270431 391.0733412012435 -132.34070617925852
    vertex 723.9929562704309 388.0733412012434 -132.34070617925846
  endloop
endfacet
facet normal 2.641534487046688e-16 -4.7112079367654824e-15 -1.0
  outer loop
    vertex 726.992956270431 391.0733412012435 -132.34070617925852
    vertex 720.9929562704311 394.07334120124335 -132.34070617925843
    vertex 742.7929562704311 394.0733412012437 -132.3407061792585
  endloop
endfacet
facet normal 2.641534487046688e-16 -4.7112079367654824e-15 -1.0
  outer loop
    vertex 726.992956270431 391.0733412012435 -132.34070617925852
    vertex 742.7929562704311 394.0733412012437 -132.3407061792585
    vertex 736.9929562704308 391.07334120124364 -132.34070617925843
  endloop
endfacet
facet normal 2.641534487046688e-16 -4.7112079367654824e-15 -1.0
  outer loop
    vertex 736.9929562704308 391.07334120124364 -132.34070617925843
    vertex 742.7929562704311 394.0733412012437 -132.3407061792585
    vertex 739.9929562704308 388.07334120124364 -132.34070617925843
  endloop
endfacet
facet normal 2.641534487046688e-16 -4.7112079367654824e-15 -1.0
  outer loop
    vertex 739.9929562704308 388.07334120124364 -132.34070617925843
    vertex 742.7929562704311 394.0733412012437 -132.3407061792585
    vertex 745.9929562704308 388.07334120124375 -132.34070617925843
  endloop
endfacet
facet normal 2.641534487046688e-16 -4.7112079367654824e-15 -1.0
  outer loop
    vertex 745.9929562704308 388.07334120124375 -132.34070617925843
    vertex 742.7929562704311 394.0733412012437 -132.3407061792585
    vertex 742.9929562704311 394.0733412012437 -132.3407061792585
  endloop
endfacet
facet normal 2.641534487046688e-16 -4.7112079367654824e-15 -1.0
  outer loop
    vertex 720.9929562704315 372.0733412012434 -132.34070617925838
    vertex 717.7929562704319 355.27334120124294 -132.34070617925815
    vertex 717.7929562704313 372.07334120124335 -132.34070617925838
  endloop
endfacet
facet normal 2.641534487046688e-16 -4.7112079367654824e-15 -1.0
  outer loop
    vertex 717.7929562704319 355.27334120124294 -132.34070617925815
    vertex 720.9929562704315 372.0733412012434 -132.34070617925838
    vertex 720.7929562704315 365.8733412012435 -132.34070617925838
  endloop
endfacet
facet normal 2.641534487046688e-16 -4.7112079367654824e-15 -1.0
  outer loop
    vertex 720.7929562704315 365.8733412012435 -132.34070617925838
    vertex 720.9929562704315 372.0733412012434 -132.34070617925838
    vertex 723.9929562704314 369.0733412012435 -132.34070617925858
  endloop
endfacet
facet normal 2.641534487046688e-16 -4.7112079367654824e-15 -1.0
  outer loop
    vertex 723.9929562704314 369.0733412012435 -132.34070617925858
    vertex 720.9929562704315 372.0733412012434 -132.34070617925838
    vertex 720.9929562704311 394.07334120124335 -132.34070617925843
  endloop
endfacet
facet normal 2.641534487046688e-16 -4.7112079367654824e-15 -1.0
  outer loop
    vertex 723.9929562704314 369.0733412012435 -132.34070617925858
    vertex 720.9929562704311 394.07334120124335 -132.34070617925843
    vertex 723.9929562704309 388.0733412012434 -132.34070617925846
  endloop
endfacet
facet normal 2.641534487046688e-16 -4.7112079367654824e-15 -1.0
  outer loop
    vertex 720.792956270432 355.27334120124306 -132.3407061792582
    vertex 717.7929562704319 355.27334120124294 -132.34070617925815
    vertex 720.7929562704315 365.8733412012435 -132.34070617925838
  endloop
endfacet
facet normal -1.5848086382112756e-14 1.0 -4.1089230879303074e-15
  outer loop
    vertex 745.9929562704307 404.0733412012438 -132.34070617925846
    vertex 739.9929562704303 404.0733412012438 -67.34070617925858
    vertex 745.9929562704305 404.0733412012439 -67.34070617925858
  endloop
endfacet
facet normal -1.5848086382112756e-14 1.0 -4.1089230879303074e-15
  outer loop
    vertex 739.9929562704303 404.0733412012438 -67.34070617925858
    vertex 745.9929562704307 404.0733412012438 -132.34070617925846
    vertex 739.9929562704306 404.07334120124364 -132.34070617925846
  endloop
endfacet
facet normal -0.7682212795973734 0.6401843996644828 -1.9923839636404964e-15
  outer loop
    vertex 736.9929562704306 400.47334120124367 -132.34070617925852
    vertex 739.9929562704303 404.0733412012438 -67.34070617925858
    vertex 739.9929562704306 404.07334120124364 -132.34070617925846
  endloop
endfacet
facet normal -0.7682212795973734 0.6401843996644828 -1.9923839636404964e-15
  outer loop
    vertex 739.9929562704303 404.0733412012438 -67.34070617925858
    vertex 736.9929562704306 400.47334120124367 -132.34070617925852
    vertex 736.9929562704305 400.47334120124384 -67.34070617925856
  endloop
endfacet
facet normal -1.5848086382112756e-14 1.0 -4.1089230879303074e-15
  outer loop
    vertex 736.9929562704305 400.47334120124384 -67.34070617925856
    vertex 723.9929562704307 400.4733412012435 -132.34070617925852
    vertex 723.9929562704309 400.4733412012436 -67.34070617925848
  endloop
endfacet
facet normal -1.5848086382112756e-14 1.0 -4.1089230879303074e-15
  outer loop
    vertex 723.9929562704307 400.4733412012435 -132.34070617925852
    vertex 736.9929562704305 400.47334120124384 -67.34070617925856
    vertex 736.9929562704306 400.47334120124367 -132.34070617925852
  endloop
endfacet
facet normal 0.6839411288813135 0.7295372041401005 -3.565693675853284e-15
  outer loop
    vertex 723.9929562704307 400.4733412012435 -132.34070617925852
    vertex 720.7929562704308 403.4733412012436 -67.34070617925875
    vertex 723.9929562704309 400.4733412012436 -67.34070617925848
  endloop
endfacet
facet normal 0.6839411288813135 0.7295372041401005 -3.565693675853284e-15
  outer loop
    vertex 720.7929562704308 403.4733412012436 -67.34070617925875
    vertex 723.9929562704307 400.4733412012435 -132.34070617925852
    vertex 720.7929562704306 403.4733412012435 -132.34070617925846
  endloop
endfacet
facet normal -1.0 -1.4992198404408602e-14 9.71361219918012e-16
  outer loop
    vertex 717.7929562704305 414.2733412012434 -132.34070617925858
    vertex 717.7929562704304 417.2733412012434 -70.34070617925882
    vertex 717.7929562704304 417.2733412012434 -129.34070617925858
  endloop
endfacet
facet normal -1.0 -1.4992198404408602e-14 9.71361219918012e-16
  outer loop
    vertex 717.7929562704304 417.2733412012434 -70.34070617925882
    vertex 717.7929562704305 414.2733412012434 -132.34070617925858
    vertex 717.7929562704305 414.2733412012434 -67.34070617925859
  endloop
endfacet
facet normal -1.0 -1.4992198404408602e-14 9.71361219918012e-16
  outer loop
    vertex 717.7929562704305 414.2733412012434 -67.34070617925859
    vertex 717.7929562704305 414.2733412012434 -132.34070617925858
    vertex 717.7929562704308 397.4733412012434 -132.34070617925843
  endloop
endfacet
facet normal -1.0 -1.4992198404408602e-14 9.71361219918012e-16
  outer loop
    vertex 717.7929562704305 414.2733412012434 -67.34070617925859
    vertex 717.7929562704308 397.4733412012434 -132.34070617925843
    vertex 717.7929562704309 397.4733412012435 -67.34070617925865
  endloop
endfacet
facet normal 1.5848086382112756e-14 -1.0 4.1089230879303074e-15
  outer loop
    vertex 717.7929562704309 397.4733412012435 -67.34070617925865
    vertex 742.9929562704311 397.4733412012437 -132.34070617925852
    vertex 742.992956270431 397.4733412012439 -67.34070617925855
  endloop
endfacet
facet normal 1.5848086382112756e-14 -1.0 4.1089230879303074e-15
  outer loop
    vertex 742.9929562704311 397.4733412012437 -132.34070617925852
    vertex 717.7929562704309 397.4733412012435 -67.34070617925865
    vertex 717.7929562704308 397.4733412012434 -132.34070617925843
  endloop
endfacet
facet normal -1.0 -1.584808638211276e-14 8.305998722245472e-16
  outer loop
    vertex 742.9929562704311 397.4733412012437 -132.34070617925852
    vertex 742.9929562704309 394.07334120124386 -67.34070617925865
    vertex 742.992956270431 397.4733412012439 -67.34070617925855
  endloop
endfacet
facet normal -1.0 -1.584808638211276e-14 8.305998722245472e-16
  outer loop
    vertex 742.9929562704309 394.07334120124386 -67.34070617925865
    vertex 742.9929562704311 397.4733412012437 -132.34070617925852
    vertex 742.9929562704311 394.0733412012437 -132.3407061792585
  endloop
endfacet
facet normal -1.5848086382112756e-14 1.0 -4.1089230879303074e-15
  outer loop
    vertex 742.9929562704311 394.0733412012437 -132.3407061792585
    vertex 742.7929562704309 394.07334120124386 -67.34070617925865
    vertex 742.9929562704309 394.07334120124386 -67.34070617925865
  endloop
endfacet
facet normal -1.5848086382112756e-14 1.0 -4.1089230879303074e-15
  outer loop
    vertex 742.7929562704309 394.07334120124386 -67.34070617925865
    vertex 742.9929562704311 394.0733412012437 -132.3407061792585
    vertex 742.7929562704311 394.0733412012437 -132.3407061792585
  endloop
endfacet
facet normal -1.5848086382112756e-14 1.0 -4.1089230879303074e-15
  outer loop
    vertex 742.7929562704311 394.0733412012437 -132.3407061792585
    vertex 720.9929562704313 394.0733412012435 -67.34070617925865
    vertex 742.7929562704309 394.07334120124386 -67.34070617925865
  endloop
endfacet
facet normal -1.5848086382112756e-14 1.0 -4.1089230879303074e-15
  outer loop
    vertex 720.9929562704313 394.0733412012435 -67.34070617925865
    vertex 742.7929562704311 394.0733412012437 -132.3407061792585
    vertex 720.9929562704311 394.07334120124335 -132.34070617925843
  endloop
endfacet
facet normal -1.0 -1.350644332825019e-14 -4.816382513715455e-16
  outer loop
    vertex 720.9929562704311 394.07334120124335 -132.34070617925843
    vertex 720.9929562704316 372.07334120124347 -67.34070617925887
    vertex 720.9929562704313 394.0733412012435 -67.34070617925865
  endloop
endfacet
facet normal -1.0 -1.350644332825019e-14 -4.816382513715455e-16
  outer loop
    vertex 720.9929562704316 372.07334120124347 -67.34070617925887
    vertex 720.9929562704311 394.07334120124335 -132.34070617925843
    vertex 720.9929562704315 372.0733412012434 -132.34070617925838
  endloop
endfacet
facet normal -1.5848086382112756e-14 1.0 -4.1089230879303074e-15
  outer loop
    vertex 720.9929562704316 372.07334120124347 -67.34070617925887
    vertex 717.7929562704313 372.07334120124335 -132.34070617925838
    vertex 717.7929562704314 372.0733412012434 -67.34070617925869
  endloop
endfacet
facet normal -1.5848086382112756e-14 1.0 -4.1089230879303074e-15
  outer loop
    vertex 717.7929562704313 372.07334120124335 -132.34070617925838
    vertex 720.9929562704316 372.07334120124347 -67.34070617925887
    vertex 720.9929562704315 372.0733412012434 -132.34070617925838
  endloop
endfacet
facet normal -1.0 -2.63218118494013e-14 -2.654569707853879e-15
  outer loop
    vertex 717.7929562704319 355.27334120124294 -132.34070617925815
    vertex 717.7929562704314 372.0733412012434 -67.34070617925869
    vertex 717.7929562704313 372.07334120124335 -132.34070617925838
  endloop
endfacet
facet normal -1.0 -2.63218118494013e-14 -2.654569707853879e-15
  outer loop
    vertex 717.7929562704314 372.0733412012434 -67.34070617925869
    vertex 717.7929562704319 355.27334120124294 -132.34070617925815
    vertex 717.7929562704318 355.2733412012431 -67.34070617925802
  endloop
endfacet
facet normal -1.0 -2.63218118494013e-14 -2.654569707853879e-15
  outer loop
    vertex 717.7929562704318 355.2733412012431 -67.34070617925802
    vertex 717.7929562704319 355.27334120124294 -132.34070617925815
    vertex 717.7929562704319 352.27334120124317 -70.34070617925796
  endloop
endfacet
facet normal -1.0 -2.63218118494013e-14 -2.654569707853879e-15
  outer loop
    vertex 717.7929562704319 352.27334120124317 -70.34070617925796
    vertex 717.7929562704319 355.27334120124294 -132.34070617925815
    vertex 717.7929562704321 352.2733412012432 -129.34070617925812
  endloop
endfacet
facet normal 0.7071067811865887 -0.7071067811865065 2.318124576746687e-15
  outer loop
    vertex 723.9929562704314 369.0733412012435 -67.3407061792586
    vertex 720.7929562704315 365.8733412012435 -132.34070617925838
    vertex 723.9929562704314 369.0733412012435 -132.34070617925858
  endloop
endfacet
facet normal 0.7071067811865887 -0.7071067811865065 2.318124576746687e-15
  outer loop
    vertex 720.7929562704315 365.8733412012435 -132.34070617925838
    vertex 723.9929562704314 369.0733412012435 -67.3407061792586
    vertex 720.7929562704315 365.87334120124353 -67.34070617925867
  endloop
endfacet
facet normal 1.0 1.584808638211276e-14 -8.305998722245472e-16
  outer loop
    vertex 723.9929562704309 388.0733412012435 -67.34070617925863
    vertex 723.9929562704314 369.0733412012435 -132.34070617925858
    vertex 723.9929562704309 388.0733412012434 -132.34070617925846
  endloop
endfacet
facet normal 1.0 1.584808638211276e-14 -8.305998722245472e-16
  outer loop
    vertex 723.9929562704314 369.0733412012435 -132.34070617925858
    vertex 723.9929562704309 388.0733412012435 -67.34070617925863
    vertex 723.9929562704314 369.0733412012435 -67.3407061792586
  endloop
endfacet
facet normal 0.7071067811865588 -0.7071067811865364 1.1132112471314238e-15
  outer loop
    vertex 723.9929562704309 388.0733412012435 -67.34070617925863
    vertex 726.992956270431 391.0733412012435 -132.34070617925852
    vertex 726.9929562704311 391.0733412012437 -67.34070617925863
  endloop
endfacet
facet normal 0.7071067811865588 -0.7071067811865364 1.1132112471314238e-15
  outer loop
    vertex 726.992956270431 391.0733412012435 -132.34070617925852
    vertex 723.9929562704309 388.0733412012435 -67.34070617925863
    vertex 723.9929562704309 388.0733412012434 -132.34070617925846
  endloop
endfacet
facet normal 1.5848086382112756e-14 -1.0 1.99840144432528e-15
  outer loop
    vertex 726.992956270431 391.0733412012435 -132.34070617925852
    vertex 736.9929562704307 391.0733412012438 -67.34070617925872
    vertex 726.9929562704311 391.0733412012437 -67.34070617925863
  endloop
endfacet
facet normal 1.5848086382112756e-14 -1.0 1.99840144432528e-15
  outer loop
    vertex 736.9929562704307 391.0733412012438 -67.34070617925872
    vertex 726.992956270431 391.0733412012435 -132.34070617925852
    vertex 736.9929562704308 391.07334120124364 -132.34070617925843
  endloop
endfacet
facet normal -0.7071067811865364 -0.7071067811865588 3.492770180952149e-15
  outer loop
    vertex 736.9929562704308 391.07334120124364 -132.34070617925843
    vertex 739.9929562704307 388.0733412012438 -67.34070617925863
    vertex 736.9929562704307 391.0733412012438 -67.34070617925872
  endloop
endfacet
facet normal -0.7071067811865364 -0.7071067811865588 3.492770180952149e-15
  outer loop
    vertex 739.9929562704307 388.0733412012438 -67.34070617925863
    vertex 736.9929562704308 391.07334120124364 -132.34070617925843
    vertex 739.9929562704308 388.07334120124364 -132.34070617925843
  endloop
endfacet
facet normal 1.5848086382112756e-14 -1.0 4.1089230879303074e-15
  outer loop
    vertex 739.9929562704307 388.0733412012438 -67.34070617925863
    vertex 745.9929562704308 388.07334120124375 -132.34070617925843
    vertex 745.9929562704307 388.0733412012439 -67.34070617925855
  endloop
endfacet
facet normal 1.5848086382112756e-14 -1.0 4.1089230879303074e-15
  outer loop
    vertex 745.9929562704308 388.07334120124375 -132.34070617925843
    vertex 739.9929562704307 388.0733412012438 -67.34070617925863
    vertex 739.9929562704308 388.07334120124364 -132.34070617925843
  endloop
endfacet
facet normal 0.7071067811865588 -0.7071067811865364 2.3181245767468298e-15
  outer loop
    vertex 745.9929562704307 388.0733412012439 -67.34070617925855
    vertex 748.9929562704309 391.07334120124386 -132.3407061792585
    vertex 748.9929562704308 391.073341201244 -67.34070617925865
  endloop
endfacet
facet normal 0.7071067811865588 -0.7071067811865364 2.3181245767468298e-15
  outer loop
    vertex 748.9929562704309 391.07334120124386 -132.3407061792585
    vertex 745.9929562704307 388.0733412012439 -67.34070617925855
    vertex 745.9929562704308 388.07334120124375 -132.34070617925843
  endloop
endfacet
facet normal 1.0 1.584808638211276e-14 -8.305998722245472e-16
  outer loop
    vertex 748.9929562704308 391.073341201244 -67.34070617925865
    vertex 748.9929562704306 401.07334120124375 -132.34070617925843
    vertex 748.9929562704305 401.0733412012439 -67.34070617925883
  endloop
endfacet
facet normal 1.0 1.584808638211276e-14 -8.305998722245472e-16
  outer loop
    vertex 748.9929562704306 401.07334120124375 -132.34070617925843
    vertex 748.9929562704308 391.073341201244 -67.34070617925865
    vertex 748.9929562704309 391.07334120124386 -132.3407061792585
  endloop
endfacet
facet normal 0.707106781186547 0.7071067811865481 -3.4927701809521095e-15
  outer loop
    vertex 748.9929562704305 401.0733412012439 -67.34070617925883
    vertex 745.9929562704307 404.0733412012438 -132.34070617925846
    vertex 745.9929562704305 404.0733412012439 -67.34070617925858
  endloop
endfacet
facet normal 0.707106781186547 0.7071067811865481 -3.4927701809521095e-15
  outer loop
    vertex 745.9929562704307 404.0733412012438 -132.34070617925846
    vertex 748.9929562704305 401.0733412012439 -67.34070617925883
    vertex 748.9929562704306 401.07334120124375 -132.34070617925843
  endloop
endfacet
facet normal 1.0 1.7488400927058602e-14 -8.185423479129545e-16
  outer loop
    vertex 720.7929562704304 417.2733412012434 -70.34070617925882
    vertex 720.7929562704305 414.2733412012434 -132.3407061792586
    vertex 720.7929562704304 417.2733412012434 -129.34070617925863
  endloop
endfacet
facet normal 1.0 1.7488400927058602e-14 -8.185423479129545e-16
  outer loop
    vertex 720.7929562704305 414.2733412012434 -132.3407061792586
    vertex 720.7929562704304 417.2733412012434 -70.34070617925882
    vertex 720.7929562704306 414.27334120124345 -67.34070617925859
  endloop
endfacet
facet normal 1.0 1.7488400927058602e-14 -8.185423479129545e-16
  outer loop
    vertex 720.7929562704305 414.2733412012434 -132.3407061792586
    vertex 720.7929562704306 414.27334120124345 -67.34070617925859
    vertex 720.7929562704308 403.4733412012436 -67.34070617925875
  endloop
endfacet
facet normal 1.0 1.7488400927058602e-14 -8.185423479129545e-16
  outer loop
    vertex 720.7929562704305 414.2733412012434 -132.3407061792586
    vertex 720.7929562704308 403.4733412012436 -67.34070617925875
    vertex 720.7929562704306 403.4733412012435 -132.34070617925846
  endloop
endfacet
facet normal -1.5732613139898927e-14 1.0 -1.878817252435551e-15
  outer loop
    vertex 720.7929562704304 417.2733412012434 -129.34070617925863
    vertex 717.7929562704304 417.2733412012434 -70.34070617925882
    vertex 720.7929562704304 417.2733412012434 -70.34070617925882
  endloop
endfacet
facet normal -1.5732613139898927e-14 1.0 -1.878817252435551e-15
  outer loop
    vertex 717.7929562704304 417.2733412012434 -70.34070617925882
    vertex 720.7929562704304 417.2733412012434 -129.34070617925863
    vertex 717.7929562704304 417.2733412012434 -129.34070617925858
  endloop
endfacet
facet normal 4.926417728895004e-16 5.392309468879867e-15 1.0
  outer loop
    vertex 717.7929562704318 355.2733412012431 -67.34070617925802
    vertex 720.9929562704316 372.07334120124347 -67.34070617925887
    vertex 717.7929562704314 372.0733412012434 -67.34070617925869
  endloop
endfacet
facet normal 4.926417728895004e-16 5.392309468879867e-15 1.0
  outer loop
    vertex 720.9929562704316 372.07334120124347 -67.34070617925887
    vertex 717.7929562704318 355.2733412012431 -67.34070617925802
    vertex 720.7929562704315 365.87334120124353 -67.34070617925867
  endloop
endfacet
facet normal 4.926417728895004e-16 5.392309468879867e-15 1.0
  outer loop
    vertex 720.7929562704315 365.87334120124353 -67.34070617925867
    vertex 717.7929562704318 355.2733412012431 -67.34070617925802
    vertex 720.7929562704318 355.27334120124317 -67.34070617925802
  endloop
endfacet
facet normal 4.926417728895004e-16 5.392309468879867e-15 1.0
  outer loop
    vertex 720.9929562704316 372.07334120124347 -67.34070617925887
    vertex 720.7929562704315 365.87334120124353 -67.34070617925867
    vertex 723.9929562704314 369.0733412012435 -67.3407061792586
  endloop
endfacet
facet normal 4.926417728895004e-16 5.392309468879867e-15 1.0
  outer loop
    vertex 720.9929562704316 372.07334120124347 -67.34070617925887
    vertex 723.9929562704314 369.0733412012435 -67.3407061792586
    vertex 720.9929562704313 394.0733412012435 -67.34070617925865
  endloop
endfacet
facet normal 4.926417728895004e-16 5.392309468879867e-15 1.0
  outer loop
    vertex 720.9929562704313 394.0733412012435 -67.34070617925865
    vertex 723.9929562704314 369.0733412012435 -67.3407061792586
    vertex 723.9929562704309 388.0733412012435 -67.34070617925863
  endloop
endfacet
facet normal 4.926417728895004e-16 5.392309468879867e-15 1.0
  outer loop
    vertex 720.9929562704313 394.0733412012435 -67.34070617925865
    vertex 723.9929562704309 388.0733412012435 -67.34070617925863
    vertex 726.9929562704311 391.0733412012437 -67.34070617925863
  endloop
endfacet
facet normal 4.926417728895004e-16 5.392309468879867e-15 1.0
  outer loop
    vertex 720.9929562704313 394.0733412012435 -67.34070617925865
    vertex 726.9929562704311 391.0733412012437 -67.34070617925863
    vertex 742.7929562704309 394.07334120124386 -67.34070617925865
  endloop
endfacet
facet normal 4.926417728895004e-16 5.392309468879867e-15 1.0
  outer loop
    vertex 742.7929562704309 394.07334120124386 -67.34070617925865
    vertex 726.9929562704311 391.0733412012437 -67.34070617925863
    vertex 736.9929562704307 391.0733412012438 -67.34070617925872
  endloop
endfacet
facet normal 4.926417728895004e-16 5.392309468879867e-15 1.0
  outer loop
    vertex 742.7929562704309 394.07334120124386 -67.34070617925865
    vertex 736.9929562704307 391.0733412012438 -67.34070617925872
    vertex 739.9929562704307 388.0733412012438 -67.34070617925863
  endloop
endfacet
facet normal 4.926417728895004e-16 5.392309468879867e-15 1.0
  outer loop
    vertex 742.7929562704309 394.07334120124386 -67.34070617925865
    vertex 739.9929562704307 388.0733412012438 -67.34070617925863
    vertex 745.9929562704307 388.0733412012439 -67.34070617925855
  endloop
endfacet
facet normal 4.926417728895004e-16 5.392309468879867e-15 1.0
  outer loop
    vertex 742.7929562704309 394.07334120124386 -67.34070617925865
    vertex 745.9929562704307 388.0733412012439 -67.34070617925855
    vertex 742.9929562704309 394.07334120124386 -67.34070617925865
  endloop
endfacet
facet normal 4.926417728895004e-16 5.392309468879867e-15 1.0
  outer loop
    vertex 742.9929562704309 394.07334120124386 -67.34070617925865
    vertex 745.9929562704307 388.0733412012439 -67.34070617925855
    vertex 742.992956270431 397.4733412012439 -67.34070617925855
  endloop
endfacet
facet normal 4.926417728895004e-16 5.392309468879867e-15 1.0
  outer loop
    vertex 717.7929562704309 397.4733412012435 -67.34070617925865
    vertex 720.7929562704308 403.4733412012436 -67.34070617925875
    vertex 717.7929562704305 414.2733412012434 -67.34070617925859
  endloop
endfacet
facet normal 4.926417728895004e-16 5.392309468879867e-15 1.0
  outer loop
    vertex 720.7929562704308 403.4733412012436 -67.34070617925875
    vertex 717.7929562704309 397.4733412012435 -67.34070617925865
    vertex 723.9929562704309 400.4733412012436 -67.34070617925848
  endloop
endfacet
facet normal 4.926417728895004e-16 5.392309468879867e-15 1.0
  outer loop
    vertex 723.9929562704309 400.4733412012436 -67.34070617925848
    vertex 717.7929562704309 397.4733412012435 -67.34070617925865
    vertex 742.992956270431 397.4733412012439 -67.34070617925855
  endloop
endfacet
facet normal 4.926417728895004e-16 5.392309468879867e-15 1.0
  outer loop
    vertex 723.9929562704309 400.4733412012436 -67.34070617925848
    vertex 742.992956270431 397.4733412012439 -67.34070617925855
    vertex 736.9929562704305 400.47334120124384 -67.34070617925856
  endloop
endfacet
facet normal 4.926417728895004e-16 5.392309468879867e-15 1.0
  outer loop
    vertex 736.9929562704305 400.47334120124384 -67.34070617925856
    vertex 742.992956270431 397.4733412012439 -67.34070617925855
    vertex 739.9929562704303 404.0733412012438 -67.34070617925858
  endloop
endfacet
facet normal 4.926417728895004e-16 5.392309468879867e-15 1.0
  outer loop
    vertex 739.9929562704303 404.0733412012438 -67.34070617925858
    vertex 742.992956270431 397.4733412012439 -67.34070617925855
    vertex 745.9929562704305 404.0733412012439 -67.34070617925858
  endloop
endfacet
facet normal 4.926417728895004e-16 5.392309468879867e-15 1.0
  outer loop
    vertex 745.9929562704305 404.0733412012439 -67.34070617925858
    vertex 742.992956270431 397.4733412012439 -67.34070617925855
    vertex 745.9929562704307 388.0733412012439 -67.34070617925855
  endloop
endfacet
facet normal 4.926417728895004e-16 5.392309468879867e-15 1.0
  outer loop
    vertex 745.9929562704305 404.0733412012439 -67.34070617925858
    vertex 745.9929562704307 388.0733412012439 -67.34070617925855
    vertex 748.9929562704308 391.073341201244 -67.34070617925865
  endloop
endfacet
facet normal 4.926417728895004e-16 5.392309468879867e-15 1.0
  outer loop
    vertex 745.9929562704305 404.0733412012439 -67.34070617925858
    vertex 748.9929562704308 391.073341201244 -67.34070617925865
    vertex 748.9929562704305 401.0733412012439 -67.34070617925883
  endloop
endfacet
facet normal 4.926417728895004e-16 5.392309468879867e-15 1.0
  outer loop
    vertex 720.7929562704306 414.27334120124345 -67.34070617925859
    vertex 717.7929562704305 414.2733412012434 -67.34070617925859
    vertex 720.7929562704308 403.4733412012436 -67.34070617925875
  endloop
endfacet
facet normal 3.0772434380154426e-14 -1.0 -2.5184186186559584e-15
  outer loop
    vertex 717.7929562704321 352.2733412012432 -129.34070617925812
    vertex 720.7929562704319 352.2733412012432 -70.34070617925798
    vertex 717.7929562704319 352.27334120124317 -70.34070617925796
  endloop
endfacet
facet normal 3.0772434380154426e-14 -1.0 -2.5184186186559584e-15
  outer loop
    vertex 720.7929562704319 352.2733412012432 -70.34070617925798
    vertex 717.7929562704321 352.2733412012432 -129.34070617925812
    vertex 720.792956270432 352.27334120124334 -129.34070617925818
  endloop
endfacet
facet normal 1.0 2.887134441403116e-14 2.4639733263495192e-15
  outer loop
    vertex 720.7929562704315 365.87334120124353 -67.34070617925867
    vertex 720.792956270432 355.27334120124306 -132.3407061792582
    vertex 720.7929562704315 365.8733412012435 -132.34070617925838
  endloop
endfacet
facet normal 1.0 2.887134441403116e-14 2.4639733263495192e-15
  outer loop
    vertex 720.792956270432 355.27334120124306 -132.3407061792582
    vertex 720.7929562704315 365.87334120124353 -67.34070617925867
    vertex 720.7929562704318 355.27334120124317 -67.34070617925802
  endloop
endfacet
facet normal 1.0 2.887134441403116e-14 2.4639733263495192e-15
  outer loop
    vertex 720.792956270432 355.27334120124306 -132.3407061792582
    vertex 720.7929562704318 355.27334120124317 -67.34070617925802
    vertex 720.792956270432 352.27334120124334 -129.34070617925818
  endloop
endfacet
facet normal 1.0 2.887134441403116e-14 2.4639733263495192e-15
  outer loop
    vertex 720.792956270432 352.27334120124334 -129.34070617925818
    vertex 720.7929562704318 355.27334120124317 -67.34070617925802
    vertex 720.7929562704319 352.2733412012432 -70.34070617925798
  endloop
endfacet
facet normal -1.9523269529633415e-14 0.7071067811865666 0.7071067811865286
  outer loop
    vertex 720.7929562704304 417.2733412012434 -70.34070617925882
    vertex 717.7929562704305 414.2733412012434 -67.34070617925859
    vertex 720.7929562704306 414.27334120124345 -67.34070617925859
  endloop
endfacet
facet normal -1.9523269529633415e-14 0.7071067811865666 0.7071067811865286
  outer loop
    vertex 717.7929562704305 414.2733412012434 -67.34070617925859
    vertex 720.7929562704304 417.2733412012434 -70.34070617925882
    vertex 717.7929562704304 417.2733412012434 -70.34070617925882
  endloop
endfacet
facet normal -1.3365611501323472e-14 0.7071067811865431 -0.7071067811865519
  outer loop
    vertex 720.7929562704304 417.2733412012434 -129.34070617925863
    vertex 717.7929562704305 414.2733412012434 -132.34070617925858
    vertex 717.7929562704304 417.2733412012434 -129.34070617925858
  endloop
endfacet
facet normal -1.3365611501323472e-14 0.7071067811865431 -0.7071067811865519
  outer loop
    vertex 717.7929562704305 414.2733412012434 -132.34070617925858
    vertex 720.7929562704304 417.2733412012434 -129.34070617925863
    vertex 720.7929562704305 414.2733412012434 -132.3407061792586
  endloop
endfacet
facet normal 3.0140893029224875e-14 -0.7071067811865905 -0.7071067811865046
  outer loop
    vertex 717.7929562704319 355.27334120124294 -132.34070617925815
    vertex 720.792956270432 352.27334120124334 -129.34070617925818
    vertex 717.7929562704321 352.2733412012432 -129.34070617925812
  endloop
endfacet
facet normal 3.0140893029224875e-14 -0.7071067811865905 -0.7071067811865046
  outer loop
    vertex 720.792956270432 352.27334120124334 -129.34070617925818
    vertex 717.7929562704319 355.27334120124294 -132.34070617925815
    vertex 720.792956270432 355.27334120124306 -132.3407061792582
  endloop
endfacet
facet normal 2.7479880017301276e-15 -0.7071067811865418 0.7071067811865533
  outer loop
    vertex 720.7929562704319 352.2733412012432 -70.34070617925798
    vertex 717.7929562704318 355.2733412012431 -67.34070617925802
    vertex 717.7929562704319 352.27334120124317 -70.34070617925796
  endloop
endfacet
facet normal 2.7479880017301276e-15 -0.7071067811865418 0.7071067811865533
  outer loop
    vertex 717.7929562704318 355.2733412012431 -67.34070617925802
    vertex 720.7929562704319 352.2733412012432 -70.34070617925798
    vertex 720.7929562704318 355.27334120124317 -67.34070617925802
  endloop
endfacet
endsolid Main V1
