solid Main V1
facet normal -7.23849068360018e-16 2.1937883704519183e-15 1.0
  outer loop
    vertex 692.7929562704331 394.27334120124294 334.10000000000116
    vertex 717.5929562704331 397.273341201243 334.1000000000013
    vertex 692.7929562704331 397.273341201243 334.10000000000116
  endloop
endfacet
facet normal -7.23849068360018e-16 2.1937883704519183e-15 1.0
  outer loop
    vertex 717.5929562704331 397.273341201243 334.1000000000013
    vertex 692.7929562704331 394.27334120124294 334.10000000000116
    vertex 711.5929562704331 394.27334120124294 334.1000000000012
  endloop
endfacet
facet normal -7.23849068360018e-16 2.1937883704519183e-15 1.0
  outer loop
    vertex 717.5929562704331 397.273341201243 334.1000000000013
    vertex 711.5929562704331 394.27334120124294 334.1000000000012
    vertex 714.5929562704331 391.0733412012429 334.1000000000013
  endloop
endfacet
facet normal -7.23849068360018e-16 2.1937883704519183e-15 1.0
  outer loop
    vertex 717.5929562704331 397.273341201243 334.1000000000013
    vertex 714.5929562704331 391.0733412012429 334.1000000000013
    vertex 717.5929562704331 372.0733412012426 334.1000000000013
  endloop
endfacet
facet normal -7.23849068360018e-16 2.1937883704519183e-15 1.0
  outer loop
    vertex 717.5929562704331 372.0733412012426 334.1000000000013
    vertex 714.5929562704331 391.0733412012429 334.1000000000013
    vertex 714.5929562704331 378.073341201243 334.1000000000013
  endloop
endfacet
facet normal -7.23849068360018e-16 2.1937883704519183e-15 1.0
  outer loop
    vertex 717.5929562704331 372.0733412012426 334.1000000000013
    vertex 714.5929562704331 378.073341201243 334.1000000000013
    vertex 710.9929562704332 375.073341201243 334.1000000000013
  endloop
endfacet
facet normal -7.23849068360018e-16 2.1937883704519183e-15 1.0
  outer loop
    vertex 717.5929562704331 372.0733412012426 334.1000000000013
    vertex 710.9929562704332 375.073341201243 334.1000000000013
    vertex 710.9929562704332 369.0733412012429 334.1000000000013
  endloop
endfacet
facet normal -7.23849068360018e-16 2.1937883704519183e-15 1.0
  outer loop
    vertex 717.5929562704331 372.0733412012426 334.1000000000013
    vertex 710.9929562704332 369.0733412012429 334.1000000000013
    vertex 720.9929562704332 372.07334120124256 334.10000000000133
  endloop
endfacet
facet normal -7.23849068360018e-16 2.1937883704519183e-15 1.0
  outer loop
    vertex 720.9929562704332 372.07334120124256 334.10000000000133
    vertex 710.9929562704332 369.0733412012429 334.1000000000013
    vertex 726.9929562704332 369.07334120124295 334.10000000000133
  endloop
endfacet
facet normal -7.23849068360018e-16 2.1937883704519183e-15 1.0
  outer loop
    vertex 726.9929562704332 369.07334120124295 334.10000000000133
    vertex 710.9929562704332 369.0733412012429 334.1000000000013
    vertex 723.9929562704331 366.0733412012429 334.10000000000133
  endloop
endfacet
facet normal -7.23849068360018e-16 2.1937883704519183e-15 1.0
  outer loop
    vertex 723.9929562704331 366.0733412012429 334.10000000000133
    vertex 710.9929562704332 369.0733412012429 334.1000000000013
    vertex 713.9929562704332 366.07334120124295 334.1000000000013
  endloop
endfacet
facet normal -7.23849068360018e-16 2.1937883704519183e-15 1.0
  outer loop
    vertex 720.9929562704332 394.0733412012425 334.1000000000013
    vertex 726.9929562704332 391.07334120124284 334.1000000000013
    vertex 742.9929562704332 394.0733412012425 334.10000000000133
  endloop
endfacet
facet normal -7.23849068360018e-16 2.1937883704519183e-15 1.0
  outer loop
    vertex 726.9929562704332 391.07334120124284 334.1000000000013
    vertex 720.9929562704332 394.0733412012425 334.1000000000013
    vertex 723.9929562704331 388.0733412012428 334.1000000000013
  endloop
endfacet
facet normal -7.23849068360018e-16 2.1937883704519183e-15 1.0
  outer loop
    vertex 723.9929562704331 388.0733412012428 334.1000000000013
    vertex 720.9929562704332 394.0733412012425 334.1000000000013
    vertex 720.9929562704332 372.2733412012426 334.1000000000013
  endloop
endfacet
facet normal -7.23849068360018e-16 2.1937883704519183e-15 1.0
  outer loop
    vertex 723.9929562704331 388.0733412012428 334.1000000000013
    vertex 720.9929562704332 372.2733412012426 334.1000000000013
    vertex 723.9929562704331 378.073341201243 334.10000000000133
  endloop
endfacet
facet normal -7.23849068360018e-16 2.1937883704519183e-15 1.0
  outer loop
    vertex 723.9929562704331 378.073341201243 334.10000000000133
    vertex 720.9929562704332 372.2733412012426 334.1000000000013
    vertex 726.9929562704332 375.07334120124295 334.10000000000133
  endloop
endfacet
facet normal -7.23849068360018e-16 2.1937883704519183e-15 1.0
  outer loop
    vertex 726.9929562704332 375.07334120124295 334.10000000000133
    vertex 720.9929562704332 372.2733412012426 334.1000000000013
    vertex 726.9929562704332 369.07334120124295 334.10000000000133
  endloop
endfacet
facet normal -7.23849068360018e-16 2.1937883704519183e-15 1.0
  outer loop
    vertex 726.9929562704332 369.07334120124295 334.10000000000133
    vertex 720.9929562704332 372.2733412012426 334.1000000000013
    vertex 720.9929562704332 372.07334120124256 334.10000000000133
  endloop
endfacet
facet normal -7.23849068360018e-16 2.1937883704519183e-15 1.0
  outer loop
    vertex 742.9929562704332 394.0733412012425 334.10000000000133
    vertex 764.792956270433 397.2733412012424 334.10000000000116
    vertex 742.9929562704332 397.2733412012426 334.10000000000133
  endloop
endfacet
facet normal -7.23849068360018e-16 2.1937883704519183e-15 1.0
  outer loop
    vertex 764.792956270433 397.2733412012424 334.10000000000116
    vertex 742.9929562704332 394.0733412012425 334.10000000000133
    vertex 767.7929562704331 397.2733412012424 334.1000000000012
  endloop
endfacet
facet normal -7.23849068360018e-16 2.1937883704519183e-15 1.0
  outer loop
    vertex 767.7929562704331 397.2733412012424 334.1000000000012
    vertex 742.9929562704332 394.0733412012425 334.10000000000133
    vertex 749.1929562704331 394.27334120124254 334.10000000000133
  endloop
endfacet
facet normal -7.23849068360018e-16 2.1937883704519183e-15 1.0
  outer loop
    vertex 749.1929562704331 394.27334120124254 334.10000000000133
    vertex 742.9929562704332 394.0733412012425 334.10000000000133
    vertex 745.9929562704331 391.07334120124284 334.10000000000133
  endloop
endfacet
facet normal -7.23849068360018e-16 2.1937883704519183e-15 1.0
  outer loop
    vertex 745.9929562704331 391.07334120124284 334.10000000000133
    vertex 742.9929562704332 394.0733412012425 334.10000000000133
    vertex 726.9929562704332 391.07334120124284 334.1000000000013
  endloop
endfacet
facet normal -7.23849068360018e-16 2.1937883704519183e-15 1.0
  outer loop
    vertex 767.7929562704331 394.2733412012423 334.1000000000012
    vertex 767.7929562704331 397.2733412012424 334.1000000000012
    vertex 749.1929562704331 394.27334120124254 334.10000000000133
  endloop
endfacet
facet normal -1.0 1.2767564783189284e-15 -7.238490683600208e-16
  outer loop
    vertex 710.9929562704332 369.0733412012429 334.1000000000013
    vertex 710.9929562704333 375.0733412012429 294.1000000000014
    vertex 710.9929562704333 369.07334120124284 294.10000000000144
  endloop
endfacet
facet normal -1.0 1.2767564783189284e-15 -7.238490683600208e-16
  outer loop
    vertex 710.9929562704333 375.0733412012429 294.1000000000014
    vertex 710.9929562704332 369.0733412012429 334.1000000000013
    vertex 710.9929562704332 375.073341201243 334.1000000000013
  endloop
endfacet
facet normal -0.640184399664494 0.7682212795973641 -2.1487117903901503e-15
  outer loop
    vertex 714.5929562704331 378.073341201243 334.1000000000013
    vertex 710.9929562704333 375.0733412012429 294.1000000000014
    vertex 710.9929562704332 375.073341201243 334.1000000000013
  endloop
endfacet
facet normal -0.640184399664494 0.7682212795973641 -2.1487117903901503e-15
  outer loop
    vertex 710.9929562704333 375.0733412012429 294.1000000000014
    vertex 714.5929562704331 378.073341201243 334.1000000000013
    vertex 714.5929562704332 378.07334120124295 294.10000000000144
  endloop
endfacet
facet normal -1.0 1.2767564783189284e-15 -7.238490683600208e-16
  outer loop
    vertex 714.5929562704331 378.073341201243 334.1000000000013
    vertex 714.5929562704332 391.0733412012428 294.1000000000014
    vertex 714.5929562704332 378.07334120124295 294.10000000000144
  endloop
endfacet
facet normal -1.0 1.2767564783189284e-15 -7.238490683600208e-16
  outer loop
    vertex 714.5929562704332 391.0733412012428 294.1000000000014
    vertex 714.5929562704331 378.073341201243 334.1000000000013
    vertex 714.5929562704331 391.0733412012429 334.1000000000013
  endloop
endfacet
facet normal -0.7295372041400905 -0.6839411288813242 9.723472690628287e-16
  outer loop
    vertex 714.5929562704331 391.0733412012429 334.1000000000013
    vertex 711.5929562704331 394.2733412012429 294.1000000000014
    vertex 714.5929562704332 391.0733412012428 294.1000000000014
  endloop
endfacet
facet normal -0.7295372041400905 -0.6839411288813242 9.723472690628287e-16
  outer loop
    vertex 711.5929562704331 394.2733412012429 294.1000000000014
    vertex 714.5929562704331 391.0733412012429 334.1000000000013
    vertex 711.5929562704331 394.27334120124294 334.1000000000012
  endloop
endfacet
facet normal -1.0 1.2767564783189253e-15 -2.9176374388119347e-15
  outer loop
    vertex 692.7929562704331 394.27334120124294 334.10000000000116
    vertex 692.7929562704331 397.27334120124294 297.10000000000133
    vertex 692.7929562704331 394.2733412012429 297.10000000000133
  endloop
endfacet
facet normal -1.0 1.2767564783189253e-15 -2.9176374388119347e-15
  outer loop
    vertex 692.7929562704331 397.27334120124294 297.10000000000133
    vertex 692.7929562704331 394.27334120124294 334.10000000000116
    vertex 692.7929562704331 397.273341201243 334.10000000000116
  endloop
endfacet
facet normal 1.2767564783189296e-15 1.0 -1.469939302091896e-15
  outer loop
    vertex 717.5929562704331 397.273341201243 334.1000000000013
    vertex 692.7929562704331 397.27334120124294 297.10000000000133
    vertex 692.7929562704331 397.273341201243 334.10000000000116
  endloop
endfacet
facet normal 1.2767564783189296e-15 1.0 -1.469939302091896e-15
  outer loop
    vertex 692.7929562704331 397.27334120124294 297.10000000000133
    vertex 717.5929562704331 397.273341201243 334.1000000000013
    vertex 695.7929562704333 397.27334120124294 294.10000000000133
  endloop
endfacet
facet normal 1.2767564783189296e-15 1.0 -1.469939302091896e-15
  outer loop
    vertex 695.7929562704333 397.27334120124294 294.10000000000133
    vertex 717.5929562704331 397.273341201243 334.1000000000013
    vertex 717.5929562704333 397.2733412012429 294.1000000000014
  endloop
endfacet
facet normal 1.0 -1.2767564783189284e-15 7.238490683600208e-16
  outer loop
    vertex 717.5929562704331 397.273341201243 334.1000000000013
    vertex 717.5929562704332 372.0733412012425 294.10000000000144
    vertex 717.5929562704333 397.2733412012429 294.1000000000014
  endloop
endfacet
facet normal 1.0 -1.2767564783189284e-15 7.238490683600208e-16
  outer loop
    vertex 717.5929562704332 372.0733412012425 294.10000000000144
    vertex 717.5929562704331 397.273341201243 334.1000000000013
    vertex 717.5929562704331 372.0733412012426 334.1000000000013
  endloop
endfacet
facet normal 1.2767564783189318e-15 1.0 -2.193788370451917e-15
  outer loop
    vertex 720.9929562704332 372.07334120124256 334.10000000000133
    vertex 717.5929562704332 372.0733412012425 294.10000000000144
    vertex 717.5929562704331 372.0733412012426 334.1000000000013
  endloop
endfacet
facet normal 1.2767564783189318e-15 1.0 -2.193788370451917e-15
  outer loop
    vertex 717.5929562704332 372.0733412012425 294.10000000000144
    vertex 720.9929562704332 372.07334120124256 334.10000000000133
    vertex 720.9929562704333 372.0733412012425 294.10000000000144
  endloop
endfacet
facet normal -1.0 1.2767564783189284e-15 -7.238490683600208e-16
  outer loop
    vertex 720.9929562704332 372.07334120124256 334.10000000000133
    vertex 720.9929562704333 372.27334120124254 294.10000000000144
    vertex 720.9929562704333 372.0733412012425 294.10000000000144
  endloop
endfacet
facet normal -1.0 1.2767564783189284e-15 -7.238490683600208e-16
  outer loop
    vertex 720.9929562704333 372.27334120124254 294.10000000000144
    vertex 720.9929562704332 372.07334120124256 334.10000000000133
    vertex 720.9929562704332 372.2733412012426 334.1000000000013
  endloop
endfacet
facet normal -1.0 1.2767564783189284e-15 -7.238490683600204e-16
  outer loop
    vertex 720.9929562704332 372.2733412012426 334.1000000000013
    vertex 720.9929562704333 394.07334120124244 294.1000000000014
    vertex 720.9929562704333 372.27334120124254 294.10000000000144
  endloop
endfacet
facet normal -1.0 1.2767564783189284e-15 -7.238490683600204e-16
  outer loop
    vertex 720.9929562704333 394.07334120124244 294.1000000000014
    vertex 720.9929562704332 372.2733412012426 334.1000000000013
    vertex 720.9929562704332 394.0733412012425 334.1000000000013
  endloop
endfacet
facet normal 1.2767564783189318e-15 1.0 -2.193788370451917e-15
  outer loop
    vertex 720.9929562704332 394.0733412012425 334.1000000000013
    vertex 723.9929562704332 394.0733412012425 309.10000000000133
    vertex 720.9929562704333 394.07334120124244 294.1000000000014
  endloop
endfacet
facet normal 1.2767564783189318e-15 1.0 -2.193788370451917e-15
  outer loop
    vertex 723.9929562704332 394.0733412012425 309.10000000000133
    vertex 720.9929562704332 394.0733412012425 334.1000000000013
    vertex 742.9929562704332 394.0733412012425 334.10000000000133
  endloop
endfacet
facet normal 1.2767564783189318e-15 1.0 -2.193788370451917e-15
  outer loop
    vertex 723.9929562704332 394.0733412012425 309.10000000000133
    vertex 742.9929562704332 394.0733412012425 334.10000000000133
    vertex 742.9929562704332 394.07334120124244 309.1000000000014
  endloop
endfacet
facet normal 1.2767564783189318e-15 1.0 -2.193788370451917e-15
  outer loop
    vertex 723.9929562704332 394.07334120124244 294.10000000000144
    vertex 720.9929562704333 394.07334120124244 294.1000000000014
    vertex 723.9929562704332 394.0733412012425 309.10000000000133
  endloop
endfacet
facet normal -1.0 1.2767564783189284e-15 -7.238490683600208e-16
  outer loop
    vertex 742.9929562704332 394.0733412012425 334.10000000000133
    vertex 742.9929562704332 397.27334120124254 309.1000000000014
    vertex 742.9929562704332 394.07334120124244 309.1000000000014
  endloop
endfacet
facet normal -1.0 1.2767564783189284e-15 -7.238490683600208e-16
  outer loop
    vertex 742.9929562704332 397.27334120124254 309.1000000000014
    vertex 742.9929562704332 394.0733412012425 334.10000000000133
    vertex 742.9929562704332 397.2733412012426 334.10000000000133
  endloop
endfacet
facet normal 9.555557161028387e-15 1.0 -1.4699393020918719e-15
  outer loop
    vertex 764.792956270433 397.2733412012424 334.10000000000116
    vertex 742.9929562704332 397.27334120124254 309.1000000000014
    vertex 742.9929562704332 397.2733412012426 334.10000000000133
  endloop
endfacet
facet normal 9.555557161028387e-15 1.0 -1.4699393020918719e-15
  outer loop
    vertex 742.9929562704332 397.27334120124254 309.1000000000014
    vertex 764.792956270433 397.2733412012424 334.10000000000116
    vertex 764.7929562704331 397.2733412012423 309.1000000000013
  endloop
endfacet
facet normal 1.9568925342652747e-14 1.0 -3.1381851025191113e-15
  outer loop
    vertex 767.7929562704331 397.2733412012424 334.1000000000012
    vertex 764.7929562704331 397.2733412012423 309.1000000000013
    vertex 764.792956270433 397.2733412012424 334.10000000000116
  endloop
endfacet
facet normal 1.9568925342652747e-14 1.0 -3.1381851025191113e-15
  outer loop
    vertex 764.7929562704331 397.2733412012423 309.1000000000013
    vertex 767.7929562704331 397.2733412012424 334.1000000000012
    vertex 767.7929562704331 397.27334120124215 312.1000000000013
  endloop
endfacet
facet normal 1.0 -1.2767564783189253e-15 2.9176374388119347e-15
  outer loop
    vertex 767.7929562704331 397.2733412012424 334.1000000000012
    vertex 767.7929562704331 394.27334120124226 312.1000000000013
    vertex 767.7929562704331 397.27334120124215 312.1000000000013
  endloop
endfacet
facet normal 1.0 -1.2767564783189253e-15 2.9176374388119347e-15
  outer loop
    vertex 767.7929562704331 394.27334120124226 312.1000000000013
    vertex 767.7929562704331 397.2733412012424 334.1000000000012
    vertex 767.7929562704331 394.2733412012423 334.1000000000012
  endloop
endfacet
facet normal 0.7071067811865168 -0.7071067811865783 2.0630812180277166e-15
  outer loop
    vertex 749.1929562704331 394.2733412012425 309.10000000000133
    vertex 745.9929562704331 391.07334120124284 334.10000000000133
    vertex 745.9929562704332 391.0733412012428 309.1000000000014
  endloop
endfacet
facet normal 0.7071067811865168 -0.7071067811865783 2.0630812180277166e-15
  outer loop
    vertex 745.9929562704331 391.07334120124284 334.10000000000133
    vertex 749.1929562704331 394.2733412012425 309.10000000000133
    vertex 749.1929562704331 394.27334120124254 334.10000000000133
  endloop
endfacet
facet normal -1.2767564783189318e-15 -1.0 2.193788370451917e-15
  outer loop
    vertex 745.9929562704332 391.0733412012428 309.1000000000014
    vertex 726.9929562704332 391.07334120124284 334.1000000000013
    vertex 726.9929562704333 391.0733412012428 309.10000000000133
  endloop
endfacet
facet normal -1.2767564783189318e-15 -1.0 2.193788370451917e-15
  outer loop
    vertex 726.9929562704332 391.07334120124284 334.1000000000013
    vertex 745.9929562704332 391.0733412012428 309.1000000000014
    vertex 745.9929562704331 391.07334120124284 334.10000000000133
  endloop
endfacet
facet normal 0.7071067811865467 -0.7071067811865485 2.0630812180276728e-15
  outer loop
    vertex 726.9929562704333 391.0733412012428 309.10000000000133
    vertex 723.9929562704331 388.0733412012428 334.1000000000013
    vertex 723.9929562704332 388.0733412012428 309.10000000000133
  endloop
endfacet
facet normal 0.7071067811865467 -0.7071067811865485 2.0630812180276728e-15
  outer loop
    vertex 723.9929562704331 388.0733412012428 334.1000000000013
    vertex 726.9929562704333 391.0733412012428 309.10000000000133
    vertex 726.9929562704332 391.07334120124284 334.1000000000013
  endloop
endfacet
facet normal 1.0 -1.2767564783189284e-15 7.238490683600208e-16
  outer loop
    vertex 723.9929562704332 388.0733412012428 309.10000000000133
    vertex 723.9929562704332 378.07334120124295 294.10000000000144
    vertex 723.9929562704332 388.0733412012427 294.10000000000144
  endloop
endfacet
facet normal 1.0 -1.2767564783189284e-15 7.238490683600208e-16
  outer loop
    vertex 723.9929562704332 378.07334120124295 294.10000000000144
    vertex 723.9929562704332 388.0733412012428 309.10000000000133
    vertex 723.9929562704331 378.073341201243 334.10000000000133
  endloop
endfacet
facet normal 1.0 -1.2767564783189284e-15 7.238490683600208e-16
  outer loop
    vertex 723.9929562704331 378.073341201243 334.10000000000133
    vertex 723.9929562704332 388.0733412012428 309.10000000000133
    vertex 723.9929562704331 388.0733412012428 334.1000000000013
  endloop
endfacet
facet normal 0.7071067811865485 0.7071067811865467 -1.039404048441801e-15
  outer loop
    vertex 726.9929562704332 375.07334120124295 334.10000000000133
    vertex 723.9929562704332 378.07334120124295 294.10000000000144
    vertex 723.9929562704331 378.073341201243 334.10000000000133
  endloop
endfacet
facet normal 0.7071067811865485 0.7071067811865467 -1.039404048441801e-15
  outer loop
    vertex 723.9929562704332 378.07334120124295 294.10000000000144
    vertex 726.9929562704332 375.07334120124295 334.10000000000133
    vertex 726.9929562704333 375.0733412012429 294.10000000000144
  endloop
endfacet
facet normal 1.0 -1.2767564783189284e-15 7.238490683600208e-16
  outer loop
    vertex 726.9929562704332 375.07334120124295 334.10000000000133
    vertex 726.9929562704333 369.0733412012429 294.10000000000144
    vertex 726.9929562704333 375.0733412012429 294.10000000000144
  endloop
endfacet
facet normal 1.0 -1.2767564783189284e-15 7.238490683600208e-16
  outer loop
    vertex 726.9929562704333 369.0733412012429 294.10000000000144
    vertex 726.9929562704332 375.07334120124295 334.10000000000133
    vertex 726.9929562704332 369.07334120124295 334.10000000000133
  endloop
endfacet
facet normal 0.7071067811865467 -0.7071067811865485 2.0630812180276728e-15
  outer loop
    vertex 726.9929562704333 369.0733412012429 294.10000000000144
    vertex 723.9929562704331 366.0733412012429 334.10000000000133
    vertex 723.9929562704332 366.0733412012429 294.10000000000144
  endloop
endfacet
facet normal 0.7071067811865467 -0.7071067811865485 2.0630812180276728e-15
  outer loop
    vertex 723.9929562704331 366.0733412012429 334.10000000000133
    vertex 726.9929562704333 369.0733412012429 294.10000000000144
    vertex 726.9929562704332 369.07334120124295 334.10000000000133
  endloop
endfacet
facet normal -1.2767564783189318e-15 -1.0 2.193788370451917e-15
  outer loop
    vertex 723.9929562704332 366.0733412012429 294.10000000000144
    vertex 713.9929562704332 366.07334120124295 334.1000000000013
    vertex 713.9929562704333 366.0733412012429 294.10000000000144
  endloop
endfacet
facet normal -1.2767564783189318e-15 -1.0 2.193788370451917e-15
  outer loop
    vertex 713.9929562704332 366.07334120124295 334.1000000000013
    vertex 723.9929562704332 366.0733412012429 294.10000000000144
    vertex 723.9929562704331 366.0733412012429 334.10000000000133
  endloop
endfacet
facet normal -0.7071067811865378 -0.7071067811865573 1.0394040484418322e-15
  outer loop
    vertex 713.9929562704333 366.0733412012429 294.10000000000144
    vertex 710.9929562704332 369.0733412012429 334.1000000000013
    vertex 710.9929562704333 369.07334120124284 294.10000000000144
  endloop
endfacet
facet normal -0.7071067811865378 -0.7071067811865573 1.0394040484418322e-15
  outer loop
    vertex 710.9929562704332 369.0733412012429 334.1000000000013
    vertex 713.9929562704333 366.0733412012429 294.10000000000144
    vertex 713.9929562704332 366.07334120124295 334.1000000000013
  endloop
endfacet
facet normal -1.2767564783189296e-15 -1.0 1.469939302091896e-15
  outer loop
    vertex 695.7929562704333 394.2733412012429 294.10000000000133
    vertex 692.7929562704331 394.27334120124294 334.10000000000116
    vertex 692.7929562704331 394.2733412012429 297.10000000000133
  endloop
endfacet
facet normal -1.2767564783189296e-15 -1.0 1.469939302091896e-15
  outer loop
    vertex 692.7929562704331 394.27334120124294 334.10000000000116
    vertex 695.7929562704333 394.2733412012429 294.10000000000133
    vertex 711.5929562704331 394.27334120124294 334.1000000000012
  endloop
endfacet
facet normal -1.2767564783189296e-15 -1.0 1.469939302091896e-15
  outer loop
    vertex 711.5929562704331 394.27334120124294 334.1000000000012
    vertex 695.7929562704333 394.2733412012429 294.10000000000133
    vertex 711.5929562704331 394.2733412012429 294.1000000000014
  endloop
endfacet
facet normal -0.7071067811865408 -1.3660088469864875e-16 -0.7071067811865543
  outer loop
    vertex 695.7929562704333 394.2733412012429 294.10000000000133
    vertex 692.7929562704331 397.27334120124294 297.10000000000133
    vertex 695.7929562704333 397.27334120124294 294.10000000000133
  endloop
endfacet
facet normal -0.7071067811865408 -1.3660088469864875e-16 -0.7071067811865543
  outer loop
    vertex 692.7929562704331 397.27334120124294 297.10000000000133
    vertex 695.7929562704333 394.2733412012429 294.10000000000133
    vertex 692.7929562704331 394.2733412012429 297.10000000000133
  endloop
endfacet
facet normal 2.9176374388119328e-15 -1.4699393020918997e-15 -1.0
  outer loop
    vertex 723.9929562704332 388.0733412012427 294.10000000000144
    vertex 720.9929562704333 394.07334120124244 294.1000000000014
    vertex 723.9929562704332 394.07334120124244 294.10000000000144
  endloop
endfacet
facet normal 2.9176374388119328e-15 -1.4699393020918997e-15 -1.0
  outer loop
    vertex 720.9929562704333 394.07334120124244 294.1000000000014
    vertex 723.9929562704332 388.0733412012427 294.10000000000144
    vertex 720.9929562704333 372.27334120124254 294.10000000000144
  endloop
endfacet
facet normal 2.9176374388119328e-15 -1.4699393020918997e-15 -1.0
  outer loop
    vertex 720.9929562704333 372.27334120124254 294.10000000000144
    vertex 723.9929562704332 388.0733412012427 294.10000000000144
    vertex 723.9929562704332 378.07334120124295 294.10000000000144
  endloop
endfacet
facet normal 2.9176374388119328e-15 -1.4699393020918997e-15 -1.0
  outer loop
    vertex 720.9929562704333 372.27334120124254 294.10000000000144
    vertex 723.9929562704332 378.07334120124295 294.10000000000144
    vertex 726.9929562704333 375.0733412012429 294.10000000000144
  endloop
endfacet
facet normal 2.9176374388119328e-15 -1.4699393020918997e-15 -1.0
  outer loop
    vertex 720.9929562704333 372.27334120124254 294.10000000000144
    vertex 726.9929562704333 375.0733412012429 294.10000000000144
    vertex 726.9929562704333 369.0733412012429 294.10000000000144
  endloop
endfacet
facet normal 2.9176374388119328e-15 -1.4699393020918997e-15 -1.0
  outer loop
    vertex 720.9929562704333 372.27334120124254 294.10000000000144
    vertex 726.9929562704333 369.0733412012429 294.10000000000144
    vertex 720.9929562704333 372.0733412012425 294.10000000000144
  endloop
endfacet
facet normal 2.9176374388119328e-15 -1.4699393020918997e-15 -1.0
  outer loop
    vertex 720.9929562704333 372.0733412012425 294.10000000000144
    vertex 726.9929562704333 369.0733412012429 294.10000000000144
    vertex 717.5929562704332 372.0733412012425 294.10000000000144
  endloop
endfacet
facet normal 2.9176374388119328e-15 -1.4699393020918997e-15 -1.0
  outer loop
    vertex 717.5929562704333 397.2733412012429 294.1000000000014
    vertex 711.5929562704331 394.2733412012429 294.1000000000014
    vertex 695.7929562704333 397.27334120124294 294.10000000000133
  endloop
endfacet
facet normal 2.9176374388119328e-15 -1.4699393020918997e-15 -1.0
  outer loop
    vertex 711.5929562704331 394.2733412012429 294.1000000000014
    vertex 717.5929562704333 397.2733412012429 294.1000000000014
    vertex 714.5929562704332 391.0733412012428 294.1000000000014
  endloop
endfacet
facet normal 2.9176374388119328e-15 -1.4699393020918997e-15 -1.0
  outer loop
    vertex 714.5929562704332 391.0733412012428 294.1000000000014
    vertex 717.5929562704333 397.2733412012429 294.1000000000014
    vertex 717.5929562704332 372.0733412012425 294.10000000000144
  endloop
endfacet
facet normal 2.9176374388119328e-15 -1.4699393020918997e-15 -1.0
  outer loop
    vertex 714.5929562704332 391.0733412012428 294.1000000000014
    vertex 717.5929562704332 372.0733412012425 294.10000000000144
    vertex 714.5929562704332 378.07334120124295 294.10000000000144
  endloop
endfacet
facet normal 2.9176374388119328e-15 -1.4699393020918997e-15 -1.0
  outer loop
    vertex 714.5929562704332 378.07334120124295 294.10000000000144
    vertex 717.5929562704332 372.0733412012425 294.10000000000144
    vertex 710.9929562704333 375.0733412012429 294.1000000000014
  endloop
endfacet
facet normal 2.9176374388119328e-15 -1.4699393020918997e-15 -1.0
  outer loop
    vertex 710.9929562704333 375.0733412012429 294.1000000000014
    vertex 717.5929562704332 372.0733412012425 294.10000000000144
    vertex 710.9929562704333 369.07334120124284 294.10000000000144
  endloop
endfacet
facet normal 2.9176374388119328e-15 -1.4699393020918997e-15 -1.0
  outer loop
    vertex 710.9929562704333 369.07334120124284 294.10000000000144
    vertex 717.5929562704332 372.0733412012425 294.10000000000144
    vertex 726.9929562704333 369.0733412012429 294.10000000000144
  endloop
endfacet
facet normal 2.9176374388119328e-15 -1.4699393020918997e-15 -1.0
  outer loop
    vertex 710.9929562704333 369.07334120124284 294.10000000000144
    vertex 726.9929562704333 369.0733412012429 294.10000000000144
    vertex 723.9929562704332 366.0733412012429 294.10000000000144
  endloop
endfacet
facet normal 2.9176374388119328e-15 -1.4699393020918997e-15 -1.0
  outer loop
    vertex 710.9929562704333 369.07334120124284 294.10000000000144
    vertex 723.9929562704332 366.0733412012429 294.10000000000144
    vertex 713.9929562704333 366.0733412012429 294.10000000000144
  endloop
endfacet
facet normal 2.9176374388119328e-15 -1.4699393020918997e-15 -1.0
  outer loop
    vertex 695.7929562704333 394.2733412012429 294.10000000000133
    vertex 695.7929562704333 397.27334120124294 294.10000000000133
    vertex 711.5929562704331 394.2733412012429 294.1000000000014
  endloop
endfacet
facet normal -1.638775766889649e-15 5.693246973398104e-16 -1.0
  outer loop
    vertex 764.7929562704331 394.27334120124226 309.1000000000013
    vertex 749.1929562704331 394.2733412012425 309.10000000000133
    vertex 764.7929562704331 397.2733412012423 309.1000000000013
  endloop
endfacet
facet normal -1.638775766889649e-15 5.693246973398104e-16 -1.0
  outer loop
    vertex 764.7929562704331 397.2733412012423 309.1000000000013
    vertex 742.9929562704332 394.07334120124244 309.1000000000014
    vertex 742.9929562704332 397.27334120124254 309.1000000000014
  endloop
endfacet
facet normal -1.638775766889649e-15 5.693246973398104e-16 -1.0
  outer loop
    vertex 742.9929562704332 394.07334120124244 309.1000000000014
    vertex 764.7929562704331 397.2733412012423 309.1000000000013
    vertex 749.1929562704331 394.2733412012425 309.10000000000133
  endloop
endfacet
facet normal -1.638775766889649e-15 5.693246973398104e-16 -1.0
  outer loop
    vertex 742.9929562704332 394.07334120124244 309.1000000000014
    vertex 749.1929562704331 394.2733412012425 309.10000000000133
    vertex 745.9929562704332 391.0733412012428 309.1000000000014
  endloop
endfacet
facet normal -1.638775766889649e-15 5.693246973398104e-16 -1.0
  outer loop
    vertex 742.9929562704332 394.07334120124244 309.1000000000014
    vertex 745.9929562704332 391.0733412012428 309.1000000000014
    vertex 723.9929562704332 394.0733412012425 309.10000000000133
  endloop
endfacet
facet normal -1.638775766889649e-15 5.693246973398104e-16 -1.0
  outer loop
    vertex 723.9929562704332 394.0733412012425 309.10000000000133
    vertex 745.9929562704332 391.0733412012428 309.1000000000014
    vertex 726.9929562704333 391.0733412012428 309.10000000000133
  endloop
endfacet
facet normal -1.638775766889649e-15 5.693246973398104e-16 -1.0
  outer loop
    vertex 723.9929562704332 394.0733412012425 309.10000000000133
    vertex 726.9929562704333 391.0733412012428 309.10000000000133
    vertex 723.9929562704332 388.0733412012428 309.10000000000133
  endloop
endfacet
facet normal 1.0 -1.2767564783189322e-15 -1.7718022540786993e-15
  outer loop
    vertex 723.9929562704332 394.0733412012425 309.10000000000133
    vertex 723.9929562704332 388.0733412012427 294.10000000000144
    vertex 723.9929562704332 394.07334120124244 294.10000000000144
  endloop
endfacet
facet normal 1.0 -1.2767564783189322e-15 -1.7718022540786993e-15
  outer loop
    vertex 723.9929562704332 388.0733412012427 294.10000000000144
    vertex 723.9929562704332 394.0733412012425 309.10000000000133
    vertex 723.9929562704332 388.0733412012428 309.10000000000133
  endloop
endfacet
facet normal -1.1324710756431665e-14 -1.0 1.8932774923136544e-15
  outer loop
    vertex 764.7929562704331 394.27334120124226 309.1000000000013
    vertex 749.1929562704331 394.27334120124254 334.10000000000133
    vertex 749.1929562704331 394.2733412012425 309.10000000000133
  endloop
endfacet
facet normal -1.1324710756431665e-14 -1.0 1.8932774923136544e-15
  outer loop
    vertex 749.1929562704331 394.27334120124254 334.10000000000133
    vertex 764.7929562704331 394.27334120124226 309.1000000000013
    vertex 767.7929562704331 394.2733412012423 334.1000000000012
  endloop
endfacet
facet normal -1.1324710756431665e-14 -1.0 1.8932774923136544e-15
  outer loop
    vertex 767.7929562704331 394.2733412012423 334.1000000000012
    vertex 764.7929562704331 394.27334120124226 309.1000000000013
    vertex 767.7929562704331 394.27334120124226 312.1000000000013
  endloop
endfacet
facet normal 0.707106781186545 -1.9422072121852514e-15 -0.7071067811865501
  outer loop
    vertex 767.7929562704331 397.27334120124215 312.1000000000013
    vertex 764.7929562704331 394.27334120124226 309.1000000000013
    vertex 764.7929562704331 397.2733412012423 309.1000000000013
  endloop
endfacet
facet normal 0.707106781186545 -1.9422072121852514e-15 -0.7071067811865501
  outer loop
    vertex 764.7929562704331 394.27334120124226 309.1000000000013
    vertex 767.7929562704331 397.27334120124215 312.1000000000013
    vertex 767.7929562704331 394.27334120124226 312.1000000000013
  endloop
endfacet
endsolid Main V1
