solid Main V1
facet normal 9.992007221626407e-16 -1.3648727981741069e-14 1.0
  outer loop
    vertex 952.7929562704338 394.2733412012439 -547.4999999999986
    vertex 984.2929562704337 403.673341201244 -547.4999999999987
    vertex 952.7929562704334 403.6733412012439 -547.4999999999985
  endloop
endfacet
facet normal 9.992007221626407e-16 -1.3648727981741069e-14 1.0
  outer loop
    vertex 984.2929562704337 403.673341201244 -547.4999999999987
    vertex 952.7929562704338 394.2733412012439 -547.4999999999986
    vertex 984.2929562704338 394.2733412012436 -547.4999999999985
  endloop
endfacet
facet normal -7.015800373627758e-15 1.0 -1.1600391165200128e-14
  outer loop
    vertex 981.2929562704335 397.2733412012442 -550.4999999999983
    vertex 951.2929562704327 397.2733412012438 -566.6999999999979
    vertex 951.2929562704336 397.27334120124345 -550.4999999999983
  endloop
endfacet
facet normal -7.015800373627758e-15 1.0 -1.1600391165200128e-14
  outer loop
    vertex 934.2929562704308 397.27334120124266 -569.6999999999945
    vertex 981.2929562704333 397.2733412012434 -572.6999999999908
    vertex 931.2929562704327 397.2733412012435 -572.6999999999974
  endloop
endfacet
facet normal -7.015800373627758e-15 1.0 -1.1600391165200128e-14
  outer loop
    vertex 981.2929562704333 397.2733412012434 -572.6999999999908
    vertex 934.2929562704308 397.27334120124266 -569.6999999999945
    vertex 948.2929562704334 397.27334120124357 -569.6999999999977
  endloop
endfacet
facet normal -7.015800373627758e-15 1.0 -1.1600391165200128e-14
  outer loop
    vertex 981.2929562704333 397.2733412012434 -572.6999999999908
    vertex 948.2929562704334 397.27334120124357 -569.6999999999977
    vertex 951.2929562704327 397.2733412012438 -566.6999999999979
  endloop
endfacet
facet normal -7.015800373627758e-15 1.0 -1.1600391165200128e-14
  outer loop
    vertex 981.2929562704333 397.2733412012434 -572.6999999999908
    vertex 951.2929562704327 397.2733412012438 -566.6999999999979
    vertex 981.2929562704335 397.2733412012442 -550.4999999999983
  endloop
endfacet
facet normal -2.7200464103316335e-15 2.4413465498121343e-15 -1.0
  outer loop
    vertex 981.2929562704335 397.2733412012442 -550.4999999999983
    vertex 951.2929562704333 400.6733412012435 -550.4999999999986
    vertex 981.2929562704335 400.6733412012442 -550.4999999999987
  endloop
endfacet
facet normal -2.7200464103316335e-15 2.4413465498121343e-15 -1.0
  outer loop
    vertex 951.2929562704333 400.6733412012435 -550.4999999999986
    vertex 981.2929562704335 397.2733412012442 -550.4999999999983
    vertex 951.2929562704336 397.27334120124345 -550.4999999999983
  endloop
endfacet
facet normal 1.0 -4.7787647189254944e-15 -5.6066262743570405e-15
  outer loop
    vertex 981.2929562704342 422.6733412012445 -572.499999999999
    vertex 981.2929562704336 375.2733412012437 -575.8999999999916
    vertex 981.2929562704339 422.67334120124406 -575.8999999999985
  endloop
endfacet
facet normal 1.0 -4.7787647189254944e-15 -5.6066262743570405e-15
  outer loop
    vertex 981.2929562704336 375.2733412012437 -575.8999999999916
    vertex 981.2929562704342 422.6733412012445 -572.499999999999
    vertex 981.2929562704333 397.2733412012434 -572.6999999999908
  endloop
endfacet
facet normal 1.0 -4.7787647189254944e-15 -5.6066262743570405e-15
  outer loop
    vertex 981.2929562704333 397.2733412012434 -572.6999999999908
    vertex 981.2929562704342 422.6733412012445 -572.499999999999
    vertex 981.2929562704333 400.6733412012441 -572.4999999999985
  endloop
endfacet
facet normal 1.0 -4.7787647189254944e-15 -5.6066262743570405e-15
  outer loop
    vertex 981.2929562704333 400.6733412012441 -572.4999999999985
    vertex 981.2929562704335 397.2733412012442 -550.4999999999983
    vertex 981.2929562704333 397.2733412012434 -572.6999999999908
  endloop
endfacet
facet normal 1.0 -4.7787647189254944e-15 -5.6066262743570405e-15
  outer loop
    vertex 981.2929562704335 397.2733412012442 -550.4999999999983
    vertex 981.2929562704333 400.6733412012441 -572.4999999999985
    vertex 981.2929562704335 400.6733412012442 -550.4999999999987
  endloop
endfacet
facet normal 1.0 -4.7787647189254944e-15 -5.6066262743570405e-15
  outer loop
    vertex 981.2929562704333 375.2733412012435 -572.6999999999906
    vertex 981.2929562704336 375.2733412012437 -575.8999999999916
    vertex 981.2929562704333 397.2733412012434 -572.6999999999908
  endloop
endfacet
facet normal -0.7071067811865489 -4.626781292059113e-14 0.7071067811865462
  outer loop
    vertex 951.2929562704337 394.2733412012435 -548.9999999999986
    vertex 952.7929562704334 403.6733412012439 -547.4999999999985
    vertex 951.2929562704333 403.67334120124383 -548.999999999999
  endloop
endfacet
facet normal -0.7071067811865489 -4.626781292059113e-14 0.7071067811865462
  outer loop
    vertex 952.7929562704334 403.6733412012439 -547.4999999999985
    vertex 951.2929562704337 394.2733412012435 -548.9999999999986
    vertex 952.7929562704338 394.2733412012439 -547.4999999999986
  endloop
endfacet
facet normal 1.0448717914282613e-14 -1.0 -1.7693907341476538e-14
  outer loop
    vertex 931.2929562704339 422.6733412012436 -575.8999999999986
    vertex 981.2929562704342 422.6733412012445 -572.499999999999
    vertex 931.2929562704339 422.67334120124355 -572.4999999999989
  endloop
endfacet
facet normal 1.0448717914282613e-14 -1.0 -1.7693907341476538e-14
  outer loop
    vertex 981.2929562704342 422.6733412012445 -572.499999999999
    vertex 931.2929562704339 422.6733412012436 -575.8999999999986
    vertex 981.2929562704339 422.67334120124406 -575.8999999999985
  endloop
endfacet
facet normal -8.820721930646869e-14 7.472640277285602e-14 1.0
  outer loop
    vertex 931.2929562704339 422.6733412012436 -575.8999999999986
    vertex 981.2929562704336 375.2733412012437 -575.8999999999916
    vertex 981.2929562704339 422.67334120124406 -575.8999999999985
  endloop
endfacet
facet normal -8.820721930646869e-14 7.472640277285602e-14 1.0
  outer loop
    vertex 981.2929562704336 375.2733412012437 -575.8999999999916
    vertex 931.2929562704339 422.6733412012436 -575.8999999999986
    vertex 931.2929562704333 375.27334120124374 -575.8999999999984
  endloop
endfacet
facet normal 1.6310540036154782e-14 -1.0 -4.496929835867385e-15
  outer loop
    vertex 981.2929562704333 400.6733412012441 -572.4999999999985
    vertex 934.2929562704338 400.6733412012436 -569.7000000000006
    vertex 931.2929562704333 400.6733412012434 -572.4999999999986
  endloop
endfacet
facet normal 1.6310540036154782e-14 -1.0 -4.496929835867385e-15
  outer loop
    vertex 934.2929562704338 400.6733412012436 -569.7000000000006
    vertex 981.2929562704333 400.6733412012441 -572.4999999999985
    vertex 948.2929562704334 400.67334120124343 -569.6999999999974
  endloop
endfacet
facet normal 1.6310540036154782e-14 -1.0 -4.496929835867385e-15
  outer loop
    vertex 948.2929562704334 400.67334120124343 -569.6999999999974
    vertex 981.2929562704333 400.6733412012441 -572.4999999999985
    vertex 951.2929562704333 400.6733412012437 -566.6999999999975
  endloop
endfacet
facet normal 1.6310540036154782e-14 -1.0 -4.496929835867385e-15
  outer loop
    vertex 951.2929562704333 400.6733412012437 -566.6999999999975
    vertex 981.2929562704333 400.6733412012441 -572.4999999999985
    vertex 981.2929562704335 400.6733412012442 -550.4999999999987
  endloop
endfacet
facet normal 1.6310540036154782e-14 -1.0 -4.496929835867385e-15
  outer loop
    vertex 981.2929562704335 400.6733412012442 -550.4999999999987
    vertex 951.2929562704333 400.6733412012435 -550.4999999999986
    vertex 951.2929562704333 400.6733412012437 -566.6999999999975
  endloop
endfacet
facet normal -2.942091015256664e-15 -1.4356193002061845e-14 -1.0
  outer loop
    vertex 981.2929562704333 400.6733412012441 -572.4999999999985
    vertex 931.2929562704339 422.67334120124355 -572.4999999999989
    vertex 981.2929562704342 422.6733412012445 -572.499999999999
  endloop
endfacet
facet normal -2.942091015256664e-15 -1.4356193002061845e-14 -1.0
  outer loop
    vertex 931.2929562704339 422.67334120124355 -572.4999999999989
    vertex 981.2929562704333 400.6733412012441 -572.4999999999985
    vertex 931.2929562704333 400.6733412012434 -572.4999999999986
  endloop
endfacet
facet normal 1.0 -2.5387258016289427e-13 2.7922109069322687e-14
  outer loop
    vertex 984.2929562704257 376.2733412012354 -580.899999999995
    vertex 984.2929562704053 372.2733412012478 -569.6999999999789
    vertex 984.292956270424 372.2733412012354 -580.8999999999944
  endloop
endfacet
facet normal 1.0 -2.5387258016289427e-13 2.7922109069322687e-14
  outer loop
    vertex 984.2929562704053 372.2733412012478 -569.6999999999789
    vertex 984.2929562704257 376.2733412012354 -580.899999999995
    vertex 984.2929562704255 376.2733412012354 -578.8999999999688
  endloop
endfacet
facet normal 1.0 -2.5387258016289427e-13 2.7922109069322687e-14
  outer loop
    vertex 984.2929562704311 392.27334120124095 -580.9000000000021
    vertex 984.2929562704313 388.2733412012421 -578.8999999999845
    vertex 984.2929562704313 388.273341201241 -580.9000000000038
  endloop
endfacet
facet normal 1.0 -2.5387258016289427e-13 2.7922109069322687e-14
  outer loop
    vertex 984.2929562704313 388.2733412012421 -578.8999999999845
    vertex 984.2929562704311 392.27334120124095 -580.9000000000021
    vertex 984.2929562704315 392.27334120124095 -578.8999999999854
  endloop
endfacet
facet normal 1.0 -2.5387258016289427e-13 2.7922109069322687e-14
  outer loop
    vertex 984.2929562704313 388.2733412012421 -578.8999999999845
    vertex 984.2929562704315 392.27334120124095 -578.8999999999854
    vertex 984.2929562704378 396.27334120125124 -578.8999999999781
  endloop
endfacet
facet normal 1.0 -2.5387258016289427e-13 2.7922109069322687e-14
  outer loop
    vertex 984.2929562704313 388.2733412012421 -578.8999999999845
    vertex 984.2929562704378 396.27334120125124 -578.8999999999781
    vertex 984.2929562704295 384.2733412012386 -578.8999999999754
  endloop
endfacet
facet normal 1.0 -2.5387258016289427e-13 2.7922109069322687e-14
  outer loop
    vertex 984.2929562704295 384.2733412012386 -578.8999999999754
    vertex 984.2929562704378 396.27334120125124 -578.8999999999781
    vertex 984.2929562704293 380.2733412012386 -578.8999999999731
  endloop
endfacet
facet normal 1.0 -2.5387258016289427e-13 2.7922109069322687e-14
  outer loop
    vertex 984.2929562704293 380.2733412012386 -578.8999999999731
    vertex 984.2929562704378 396.27334120125124 -578.8999999999781
    vertex 984.2929562704255 376.2733412012354 -578.8999999999688
  endloop
endfacet
facet normal 1.0 -2.5387258016289427e-13 2.7922109069322687e-14
  outer loop
    vertex 984.2929562704295 384.2733412012386 -578.8999999999754
    vertex 984.2929562704289 380.2733412012386 -580.8999999999968
    vertex 984.2929562704295 384.2733412012386 -580.8999999999972
  endloop
endfacet
facet normal 1.0 -2.5387258016289427e-13 2.7922109069322687e-14
  outer loop
    vertex 984.2929562704289 380.2733412012386 -580.8999999999968
    vertex 984.2929562704295 384.2733412012386 -578.8999999999754
    vertex 984.2929562704293 380.2733412012386 -578.8999999999731
  endloop
endfacet
facet normal 1.0 -2.5387258016289427e-13 2.7922109069322687e-14
  outer loop
    vertex 984.2929562704372 401.47334120125237 -578.8999999999824
    vertex 984.292956270438 396.27334120125124 -580.8999999999924
    vertex 984.2929562704371 401.47334120125237 -580.899999999992
  endloop
endfacet
facet normal 1.0 -2.5387258016289427e-13 2.7922109069322687e-14
  outer loop
    vertex 984.292956270438 396.27334120125124 -580.8999999999924
    vertex 984.2929562704372 401.47334120125237 -578.8999999999824
    vertex 984.2929562704378 396.27334120125124 -578.8999999999781
  endloop
endfacet
facet normal 1.0 -2.5387258016289427e-13 2.7922109069322687e-14
  outer loop
    vertex 984.2929562704353 409.47334120124924 -580.8999999999963
    vertex 984.2929562704354 405.4733412012493 -578.8999999999897
    vertex 984.2929562704354 405.47334120124924 -580.899999999997
  endloop
endfacet
facet normal 1.0 -2.5387258016289427e-13 2.7922109069322687e-14
  outer loop
    vertex 984.2929562704354 405.4733412012493 -578.8999999999897
    vertex 984.2929562704353 409.47334120124924 -580.8999999999963
    vertex 984.2929562704353 409.47334120124987 -578.8999999999913
  endloop
endfacet
facet normal 1.0 -2.5387258016289427e-13 2.7922109069322687e-14
  outer loop
    vertex 984.2929562704354 405.4733412012493 -578.8999999999897
    vertex 984.2929562704353 409.47334120124987 -578.8999999999913
    vertex 984.2929562704354 413.4733412012531 -578.8999999999887
  endloop
endfacet
facet normal 1.0 -2.5387258016289427e-13 2.7922109069322687e-14
  outer loop
    vertex 984.2929562704354 405.4733412012493 -578.8999999999897
    vertex 984.2929562704354 413.4733412012531 -578.8999999999887
    vertex 984.2929562704372 401.47334120125237 -578.8999999999824
  endloop
endfacet
facet normal 1.0 -2.5387258016289427e-13 2.7922109069322687e-14
  outer loop
    vertex 984.2929562704353 417.4733412012525 -580.8999999999911
    vertex 984.2929562704354 413.4733412012531 -578.8999999999887
    vertex 984.2929562704356 413.4733412012525 -580.8999999999916
  endloop
endfacet
facet normal 1.0 -2.5387258016289427e-13 2.7922109069322687e-14
  outer loop
    vertex 984.2929562704354 413.4733412012531 -578.8999999999887
    vertex 984.2929562704353 417.4733412012525 -580.8999999999911
    vertex 984.2929562704346 417.4733412012532 -578.899999999991
  endloop
endfacet
facet normal 1.0 -2.5387258016289427e-13 2.7922109069322687e-14
  outer loop
    vertex 984.292956270432 425.47334120125294 -580.8999999999976
    vertex 984.2929562704322 421.473341201254 -578.8999999999955
    vertex 984.292956270432 421.47334120125294 -580.8999999999978
  endloop
endfacet
facet normal 1.0 -2.5387258016289427e-13 2.7922109069322687e-14
  outer loop
    vertex 984.2929562704322 421.473341201254 -578.8999999999955
    vertex 984.292956270432 425.47334120125294 -580.8999999999976
    vertex 984.2929562704335 425.4733412012439 -569.6999999999986
  endloop
endfacet
facet normal 1.0 -2.5387258016289427e-13 2.7922109069322687e-14
  outer loop
    vertex 984.2929562704322 421.473341201254 -578.8999999999955
    vertex 984.2929562704335 425.4733412012439 -569.6999999999986
    vertex 984.2929562704346 417.4733412012532 -578.899999999991
  endloop
endfacet
facet normal 1.0 -2.5387258016289427e-13 2.7922109069322687e-14
  outer loop
    vertex 984.2929562704346 417.4733412012532 -578.899999999991
    vertex 984.2929562704335 425.4733412012439 -569.6999999999986
    vertex 984.2929562704354 413.4733412012531 -578.8999999999887
  endloop
endfacet
facet normal 1.0 -2.5387258016289427e-13 2.7922109069322687e-14
  outer loop
    vertex 984.2929562704354 413.4733412012531 -578.8999999999887
    vertex 984.2929562704335 425.4733412012439 -569.6999999999986
    vertex 984.2929562704372 401.47334120125237 -578.8999999999824
  endloop
endfacet
facet normal 1.0 -2.5387258016289427e-13 2.7922109069322687e-14
  outer loop
    vertex 984.2929562704372 401.47334120125237 -578.8999999999824
    vertex 984.2929562704335 425.4733412012439 -569.6999999999986
    vertex 984.2929562704378 396.27334120125124 -578.8999999999781
  endloop
endfacet
facet normal 1.0 -2.5387258016289427e-13 2.7922109069322687e-14
  outer loop
    vertex 984.2929562704378 396.27334120125124 -578.8999999999781
    vertex 984.2929562704335 425.4733412012439 -569.6999999999986
    vertex 984.2929562704255 376.2733412012354 -578.8999999999688
  endloop
endfacet
facet normal 1.0 -2.5387258016289427e-13 2.7922109069322687e-14
  outer loop
    vertex 984.2929562704255 376.2733412012354 -578.8999999999688
    vertex 984.2929562704335 425.4733412012439 -569.6999999999986
    vertex 984.2929562704333 403.6733412012439 -569.6999999999986
  endloop
endfacet
facet normal 1.0 -2.5387258016289427e-13 2.7922109069322687e-14
  outer loop
    vertex 984.2929562704255 376.2733412012354 -578.8999999999688
    vertex 984.2929562704333 403.6733412012439 -569.6999999999986
    vertex 984.2929562704053 372.2733412012478 -569.6999999999789
  endloop
endfacet
facet normal 1.0 -2.5387258016289427e-13 2.7922109069322687e-14
  outer loop
    vertex 984.2929562704333 403.6733412012439 -569.6999999999986
    vertex 984.2929562704193 394.2733412012443 -569.6999999999784
    vertex 984.2929562704053 372.2733412012478 -569.6999999999789
  endloop
endfacet
facet normal 1.0 -2.5387258016289427e-13 2.7922109069322687e-14
  outer loop
    vertex 984.2929562704193 394.2733412012443 -569.6999999999784
    vertex 984.2929562704333 403.6733412012439 -569.6999999999986
    vertex 984.2929562704326 403.67334120124406 -561.6999999999983
  endloop
endfacet
facet normal 1.0 -2.5387258016289427e-13 2.7922109069322687e-14
  outer loop
    vertex 984.2929562704193 394.2733412012443 -569.6999999999784
    vertex 984.2929562704326 403.67334120124406 -561.6999999999983
    vertex 984.2929562704338 394.2733412012436 -547.4999999999985
  endloop
endfacet
facet normal 1.0 -2.5387258016289427e-13 2.7922109069322687e-14
  outer loop
    vertex 984.2929562704338 394.2733412012436 -547.4999999999985
    vertex 984.2929562704326 403.67334120124406 -561.6999999999983
    vertex 984.2929562704335 404.17334120124406 -561.6999999999987
  endloop
endfacet
facet normal 1.0 -2.5387258016289427e-13 2.7922109069322687e-14
  outer loop
    vertex 984.2929562704338 394.2733412012436 -547.4999999999985
    vertex 984.2929562704335 404.17334120124406 -561.6999999999987
    vertex 984.2929562704329 403.6733412012441 -555.6999999999981
  endloop
endfacet
facet normal 1.0 -2.5387258016289427e-13 2.7922109069322687e-14
  outer loop
    vertex 984.2929562704329 403.6733412012441 -555.6999999999981
    vertex 984.2929562704335 404.17334120124406 -561.6999999999987
    vertex 984.2929562704338 404.1733412012441 -555.6999999999989
  endloop
endfacet
facet normal 1.0 -2.5387258016289427e-13 2.7922109069322687e-14
  outer loop
    vertex 984.2929562704338 394.2733412012436 -547.4999999999985
    vertex 984.2929562704329 403.6733412012441 -555.6999999999981
    vertex 984.2929562704337 403.673341201244 -547.4999999999987
  endloop
endfacet
facet normal -3.2512881276147704e-13 7.539375229341647e-14 1.0
  outer loop
    vertex 934.2929562704308 397.27334120124266 -569.6999999999945
    vertex 948.2929562704336 394.2733412012436 -569.6999999999974
    vertex 948.2929562704334 397.27334120124357 -569.6999999999977
  endloop
endfacet
facet normal -3.2512881276147704e-13 7.539375229341647e-14 1.0
  outer loop
    vertex 948.2929562704336 394.2733412012436 -569.6999999999974
    vertex 934.2929562704308 397.27334120124266 -569.6999999999945
    vertex 934.2929562704328 372.27334120124254 -569.699999999996
  endloop
endfacet
facet normal -3.2512881276147704e-13 7.539375229341647e-14 1.0
  outer loop
    vertex 948.2929562704336 394.2733412012436 -569.6999999999974
    vertex 934.2929562704328 372.27334120124254 -569.699999999996
    vertex 984.2929562704053 372.2733412012478 -569.6999999999789
  endloop
endfacet
facet normal -3.2512881276147704e-13 7.539375229341647e-14 1.0
  outer loop
    vertex 984.2929562704053 372.2733412012478 -569.6999999999789
    vertex 984.2929562704193 394.2733412012443 -569.6999999999784
    vertex 948.2929562704336 394.2733412012436 -569.6999999999974
  endloop
endfacet
facet normal -1.0 -2.1528235377997252e-14 1.8263168755083825e-14
  outer loop
    vertex 951.2929562704333 394.27334120124385 -566.6999999999978
    vertex 951.2929562704336 397.27334120124345 -550.4999999999983
    vertex 951.2929562704327 397.2733412012438 -566.6999999999979
  endloop
endfacet
facet normal -1.0 -2.1528235377997252e-14 1.8263168755083825e-14
  outer loop
    vertex 951.2929562704336 397.27334120124345 -550.4999999999983
    vertex 951.2929562704333 394.27334120124385 -566.6999999999978
    vertex 951.2929562704337 394.2733412012435 -548.9999999999986
  endloop
endfacet
facet normal -1.0 -2.1528235377997252e-14 1.8263168755083825e-14
  outer loop
    vertex 951.2929562704336 397.27334120124345 -550.4999999999983
    vertex 951.2929562704337 394.2733412012435 -548.9999999999986
    vertex 951.2929562704333 403.67334120124383 -548.999999999999
  endloop
endfacet
facet normal -1.0 -2.1528235377997252e-14 1.8263168755083825e-14
  outer loop
    vertex 951.2929562704333 400.6733412012437 -566.6999999999975
    vertex 951.2929562704333 403.67334120124383 -548.999999999999
    vertex 951.2929562704327 403.67334120124343 -566.699999999998
  endloop
endfacet
facet normal -1.0 -2.1528235377997252e-14 1.8263168755083825e-14
  outer loop
    vertex 951.2929562704333 403.67334120124383 -548.999999999999
    vertex 951.2929562704333 400.6733412012437 -566.6999999999975
    vertex 951.2929562704333 400.6733412012435 -550.4999999999986
  endloop
endfacet
facet normal -1.0 -2.1528235377997252e-14 1.8263168755083825e-14
  outer loop
    vertex 951.2929562704333 403.67334120124383 -548.999999999999
    vertex 951.2929562704333 400.6733412012435 -550.4999999999986
    vertex 951.2929562704336 397.27334120124345 -550.4999999999983
  endloop
endfacet
facet normal -0.7071067811865472 9.466330862652142e-30 0.7071067811865479
  outer loop
    vertex 948.2929562704336 394.2733412012436 -569.6999999999974
    vertex 951.2929562704327 397.2733412012438 -566.6999999999979
    vertex 948.2929562704334 397.27334120124357 -569.6999999999977
  endloop
endfacet
facet normal -0.7071067811865472 9.466330862652142e-30 0.7071067811865479
  outer loop
    vertex 951.2929562704327 397.2733412012438 -566.6999999999979
    vertex 948.2929562704336 394.2733412012436 -569.6999999999974
    vertex 951.2929562704333 394.27334120124385 -566.6999999999978
  endloop
endfacet
facet normal -0.7071067811865716 -1.5959409235412008e-14 0.7071067811865236
  outer loop
    vertex 948.2929562704334 400.67334120124343 -569.6999999999974
    vertex 951.2929562704327 403.67334120124343 -566.699999999998
    vertex 948.2929562704328 403.67334120124326 -569.6999999999971
  endloop
endfacet
facet normal -0.7071067811865716 -1.5959409235412008e-14 0.7071067811865236
  outer loop
    vertex 951.2929562704327 403.67334120124343 -566.699999999998
    vertex 948.2929562704334 400.67334120124343 -569.6999999999974
    vertex 951.2929562704333 400.6733412012437 -566.6999999999975
  endloop
endfacet
facet normal -1.4031556884846629e-14 1.0 -1.0683096992687276e-14
  outer loop
    vertex 952.7929562704334 403.6733412012439 -547.4999999999985
    vertex 951.2929562704327 403.67334120124343 -566.699999999998
    vertex 951.2929562704333 403.67334120124383 -548.999999999999
  endloop
endfacet
facet normal -1.4031556884846629e-14 1.0 -1.0683096992687276e-14
  outer loop
    vertex 951.2929562704327 403.67334120124343 -566.699999999998
    vertex 952.7929562704334 403.6733412012439 -547.4999999999985
    vertex 968.2929562704335 403.67334120124394 -555.6999999999983
  endloop
endfacet
facet normal -1.4031556884846629e-14 1.0 -1.0683096992687276e-14
  outer loop
    vertex 968.2929562704335 403.67334120124394 -555.6999999999983
    vertex 952.7929562704334 403.6733412012439 -547.4999999999985
    vertex 984.2929562704337 403.673341201244 -547.4999999999987
  endloop
endfacet
facet normal -1.4031556884846629e-14 1.0 -1.0683096992687276e-14
  outer loop
    vertex 968.2929562704335 403.67334120124394 -555.6999999999983
    vertex 984.2929562704337 403.673341201244 -547.4999999999987
    vertex 984.2929562704329 403.6733412012441 -555.6999999999981
  endloop
endfacet
facet normal -1.4031556884846629e-14 1.0 -1.0683096992687276e-14
  outer loop
    vertex 971.1907337493002 403.6733412012439 -557.9235428646906
    vertex 968.2929562704326 403.6733412012439 -561.6999999999982
    vertex 970.8910324817866 403.67334120124394 -557.1999999999982
  endloop
endfacet
facet normal -1.4031556884846629e-14 1.0 -1.0683096992687276e-14
  outer loop
    vertex 968.2929562704326 403.6733412012439 -561.6999999999982
    vertex 971.1907337493002 403.6733412012439 -557.9235428646906
    vertex 969.0694134057405 403.6733412012439 -561.5977774788654
  endloop
endfacet
facet normal -1.4031556884846629e-14 1.0 -1.0683096992687276e-14
  outer loop
    vertex 969.0694134057405 403.6733412012439 -561.5977774788654
    vertex 971.1907337493002 403.6733412012439 -557.9235428646906
    vertex 971.292956270433 403.6733412012439 -558.6999999999981
  endloop
endfacet
facet normal -1.4031556884846629e-14 1.0 -1.0683096992687276e-14
  outer loop
    vertex 969.0694134057405 403.6733412012439 -561.5977774788654
    vertex 971.292956270433 403.6733412012439 -558.6999999999981
    vertex 969.7929562704328 403.67334120124417 -561.2980762113518
  endloop
endfacet
facet normal -1.4031556884846629e-14 1.0 -1.0683096992687276e-14
  outer loop
    vertex 969.7929562704328 403.67334120124417 -561.2980762113518
    vertex 971.292956270433 403.6733412012439 -558.6999999999981
    vertex 971.1907337493002 403.6733412012439 -559.4764571353057
  endloop
endfacet
facet normal -1.4031556884846629e-14 1.0 -1.0683096992687276e-14
  outer loop
    vertex 969.7929562704328 403.67334120124417 -561.2980762113518
    vertex 971.1907337493002 403.6733412012439 -559.4764571353057
    vertex 970.4142766139926 403.67334120124417 -560.8213203435577
  endloop
endfacet
facet normal -1.4031556884846629e-14 1.0 -1.0683096992687276e-14
  outer loop
    vertex 970.4142766139926 403.67334120124417 -560.8213203435577
    vertex 971.1907337493002 403.6733412012439 -559.4764571353057
    vertex 970.8910324817866 403.67334120124394 -560.1999999999985
  endloop
endfacet
facet normal -1.4031556884846629e-14 1.0 -1.0683096992687276e-14
  outer loop
    vertex 951.2929562704327 403.67334120124343 -566.699999999998
    vertex 984.2929562704333 403.6733412012439 -569.6999999999986
    vertex 948.2929562704328 403.67334120124326 -569.6999999999971
  endloop
endfacet
facet normal -1.4031556884846629e-14 1.0 -1.0683096992687276e-14
  outer loop
    vertex 984.2929562704333 403.6733412012439 -569.6999999999986
    vertex 951.2929562704327 403.67334120124343 -566.699999999998
    vertex 968.2929562704326 403.6733412012439 -561.6999999999982
  endloop
endfacet
facet normal -1.4031556884846629e-14 1.0 -1.0683096992687276e-14
  outer loop
    vertex 968.2929562704326 403.6733412012439 -561.6999999999982
    vertex 951.2929562704327 403.67334120124343 -566.699999999998
    vertex 968.2929562704335 403.67334120124394 -555.6999999999983
  endloop
endfacet
facet normal -1.4031556884846629e-14 1.0 -1.0683096992687276e-14
  outer loop
    vertex 968.2929562704326 403.6733412012439 -561.6999999999982
    vertex 968.2929562704335 403.67334120124394 -555.6999999999983
    vertex 969.0694134057405 403.67334120124394 -555.802222521131
  endloop
endfacet
facet normal -1.4031556884846629e-14 1.0 -1.0683096992687276e-14
  outer loop
    vertex 968.2929562704326 403.6733412012439 -561.6999999999982
    vertex 969.0694134057405 403.67334120124394 -555.802222521131
    vertex 969.7929562704331 403.67334120124394 -556.1019237886451
  endloop
endfacet
facet normal -1.4031556884846629e-14 1.0 -1.0683096992687276e-14
  outer loop
    vertex 968.2929562704326 403.6733412012439 -561.6999999999982
    vertex 969.7929562704331 403.67334120124394 -556.1019237886451
    vertex 970.4142766139926 403.67334120124394 -556.5786796564386
  endloop
endfacet
facet normal -1.4031556884846629e-14 1.0 -1.0683096992687276e-14
  outer loop
    vertex 968.2929562704326 403.6733412012439 -561.6999999999982
    vertex 970.4142766139926 403.67334120124394 -556.5786796564386
    vertex 970.8910324817866 403.67334120124394 -557.1999999999982
  endloop
endfacet
facet normal -1.4031556884846629e-14 1.0 -1.0683096992687276e-14
  outer loop
    vertex 984.2929562704333 403.6733412012439 -569.6999999999986
    vertex 968.2929562704326 403.6733412012439 -561.6999999999982
    vertex 984.2929562704326 403.67334120124406 -561.6999999999983
  endloop
endfacet
facet normal -1.2317697941534656e-14 1.0 4.180962797671363e-28
  outer loop
    vertex 984.2929562704338 404.1733412012441 -555.6999999999989
    vertex 969.0694134057414 404.1733412012439 -555.8022225211313
    vertex 968.2929562704335 404.1733412012439 -555.6999999999986
  endloop
endfacet
facet normal -1.2317697941534656e-14 1.0 4.180962797671363e-28
  outer loop
    vertex 969.0694134057414 404.1733412012439 -555.8022225211313
    vertex 984.2929562704338 404.1733412012441 -555.6999999999989
    vertex 969.7929562704335 404.1733412012439 -556.1019237886455
  endloop
endfacet
facet normal -1.2317697941534656e-14 1.0 4.180962797671363e-28
  outer loop
    vertex 969.7929562704335 404.1733412012439 -556.1019237886455
    vertex 984.2929562704338 404.1733412012441 -555.6999999999989
    vertex 970.4142766139935 404.1733412012439 -556.5786796564392
  endloop
endfacet
facet normal -1.2317697941534656e-14 1.0 4.180962797671363e-28
  outer loop
    vertex 970.4142766139935 404.1733412012439 -556.5786796564392
    vertex 984.2929562704338 404.1733412012441 -555.6999999999989
    vertex 970.8910324817869 404.1733412012439 -557.1999999999988
  endloop
endfacet
facet normal -1.2317697941534656e-14 1.0 4.180962797671363e-28
  outer loop
    vertex 970.8910324817869 404.1733412012439 -557.1999999999988
    vertex 984.2929562704338 404.1733412012441 -555.6999999999989
    vertex 971.1907337493008 404.1733412012439 -557.9235428646912
  endloop
endfacet
facet normal -1.2317697941534656e-14 1.0 4.180962797671363e-28
  outer loop
    vertex 971.1907337493008 404.1733412012439 -557.9235428646912
    vertex 984.2929562704338 404.1733412012441 -555.6999999999989
    vertex 971.2929562704334 404.1733412012439 -558.6999999999987
  endloop
endfacet
facet normal -1.2317697941534656e-14 1.0 4.180962797671363e-28
  outer loop
    vertex 971.2929562704334 404.1733412012439 -558.6999999999987
    vertex 984.2929562704338 404.1733412012441 -555.6999999999989
    vertex 971.1907337493008 404.1733412012439 -559.4764571353064
  endloop
endfacet
facet normal -1.2317697941534656e-14 1.0 4.180962797671363e-28
  outer loop
    vertex 971.1907337493008 404.1733412012439 -559.4764571353064
    vertex 984.2929562704338 404.1733412012441 -555.6999999999989
    vertex 970.8910324817869 404.1733412012439 -560.1999999999988
  endloop
endfacet
facet normal -1.2317697941534656e-14 1.0 4.180962797671363e-28
  outer loop
    vertex 969.0694134057413 404.1733412012439 -561.5977774788661
    vertex 984.2929562704335 404.17334120124406 -561.6999999999987
    vertex 968.2929562704337 404.1733412012439 -561.6999999999988
  endloop
endfacet
facet normal -1.2317697941534656e-14 1.0 4.180962797671363e-28
  outer loop
    vertex 984.2929562704335 404.17334120124406 -561.6999999999987
    vertex 969.0694134057413 404.1733412012439 -561.5977774788661
    vertex 969.7929562704337 404.1733412012441 -561.2980762113524
  endloop
endfacet
facet normal -1.2317697941534656e-14 1.0 4.180962797671363e-28
  outer loop
    vertex 984.2929562704335 404.17334120124406 -561.6999999999987
    vertex 969.7929562704337 404.1733412012441 -561.2980762113524
    vertex 970.4142766139933 404.1733412012441 -560.8213203435585
  endloop
endfacet
facet normal -1.2317697941534656e-14 1.0 4.180962797671363e-28
  outer loop
    vertex 984.2929562704335 404.17334120124406 -561.6999999999987
    vertex 970.4142766139933 404.1733412012441 -560.8213203435585
    vertex 970.8910324817869 404.1733412012439 -560.1999999999988
  endloop
endfacet
facet normal -1.2317697941534656e-14 1.0 4.180962797671363e-28
  outer loop
    vertex 984.2929562704335 404.17334120124406 -561.6999999999987
    vertex 970.8910324817869 404.1733412012439 -560.1999999999988
    vertex 984.2929562704338 404.1733412012441 -555.6999999999989
  endloop
endfacet
facet normal -1.7708057242771247e-14 2.0352611354702105e-28 -1.0
  outer loop
    vertex 984.2929562704326 403.67334120124406 -561.6999999999983
    vertex 968.2929562704337 404.1733412012439 -561.6999999999988
    vertex 984.2929562704335 404.17334120124406 -561.6999999999987
  endloop
endfacet
facet normal -1.7708057242771247e-14 2.0352611354702105e-28 -1.0
  outer loop
    vertex 968.2929562704337 404.1733412012439 -561.6999999999988
    vertex 984.2929562704326 403.67334120124406 -561.6999999999983
    vertex 968.2929562704326 403.6733412012439 -561.6999999999982
  endloop
endfacet
facet normal -0.13052619221998815 -1.607782209224919e-15 0.9914448613738187
  outer loop
    vertex 968.2929562704326 403.6733412012439 -561.6999999999982
    vertex 969.0694134057413 404.1733412012439 -561.5977774788661
    vertex 968.2929562704337 404.1733412012439 -561.6999999999988
  endloop
endfacet
facet normal -0.13052619221998815 -1.607782209224919e-15 0.9914448613738187
  outer loop
    vertex 969.0694134057413 404.1733412012439 -561.5977774788661
    vertex 968.2929562704326 403.6733412012439 -561.6999999999982
    vertex 969.0694134057405 403.6733412012439 -561.5977774788654
  endloop
endfacet
facet normal -0.3826834323650505 -4.713778927102787e-15 0.9238795325113032
  outer loop
    vertex 969.0694134057405 403.6733412012439 -561.5977774788654
    vertex 969.7929562704337 404.1733412012441 -561.2980762113524
    vertex 969.0694134057413 404.1733412012439 -561.5977774788661
  endloop
endfacet
facet normal -0.3826834323650505 -4.713778927102787e-15 0.9238795325113032
  outer loop
    vertex 969.7929562704337 404.1733412012441 -561.2980762113524
    vertex 969.0694134057405 403.6733412012439 -561.5977774788654
    vertex 969.7929562704328 403.67334120124417 -561.2980762113518
  endloop
endfacet
facet normal -0.6087614290086989 -7.498539400986478e-15 0.7933533402912518
  outer loop
    vertex 970.4142766139926 403.67334120124417 -560.8213203435577
    vertex 969.7929562704337 404.1733412012441 -561.2980762113524
    vertex 969.7929562704328 403.67334120124417 -561.2980762113518
  endloop
endfacet
facet normal -0.6087614290086989 -7.498539400986478e-15 0.7933533402912518
  outer loop
    vertex 969.7929562704337 404.1733412012441 -561.2980762113524
    vertex 970.4142766139926 403.67334120124417 -560.8213203435577
    vertex 970.4142766139933 404.1733412012441 -560.8213203435585
  endloop
endfacet
facet normal -0.793353340291192 -9.772286806614716e-15 0.608761429008777
  outer loop
    vertex 970.4142766139926 403.67334120124417 -560.8213203435577
    vertex 970.8910324817869 404.1733412012439 -560.1999999999988
    vertex 970.4142766139933 404.1733412012441 -560.8213203435585
  endloop
endfacet
facet normal -0.793353340291192 -9.772286806614716e-15 0.608761429008777
  outer loop
    vertex 970.8910324817869 404.1733412012439 -560.1999999999988
    vertex 970.4142766139926 403.67334120124417 -560.8213203435577
    vertex 970.8910324817866 403.67334120124394 -560.1999999999985
  endloop
endfacet
facet normal -0.9238795325112764 -1.138006901584031e-14 0.38268343236511515
  outer loop
    vertex 970.8910324817866 403.67334120124394 -560.1999999999985
    vertex 971.1907337493008 404.1733412012439 -559.4764571353064
    vertex 970.8910324817869 404.1733412012439 -560.1999999999988
  endloop
endfacet
facet normal -0.9238795325112764 -1.138006901584031e-14 0.38268343236511515
  outer loop
    vertex 971.1907337493008 404.1733412012439 -559.4764571353064
    vertex 970.8910324817866 403.67334120124394 -560.1999999999985
    vertex 971.1907337493002 403.6733412012439 -559.4764571353057
  endloop
endfacet
facet normal -0.9914448613738067 -1.2212318328089303e-14 0.13052619222007994
  outer loop
    vertex 971.1907337493002 403.6733412012439 -559.4764571353057
    vertex 971.2929562704334 404.1733412012439 -558.6999999999987
    vertex 971.1907337493008 404.1733412012439 -559.4764571353064
  endloop
endfacet
facet normal -0.9914448613738067 -1.2212318328089303e-14 0.13052619222007994
  outer loop
    vertex 971.2929562704334 404.1733412012439 -558.6999999999987
    vertex 971.1907337493002 403.6733412012439 -559.4764571353057
    vertex 971.292956270433 403.6733412012439 -558.6999999999981
  endloop
endfacet
facet normal -0.9914448613738158 -1.2212318328089305e-14 -0.13052619222001038
  outer loop
    vertex 971.292956270433 403.6733412012439 -558.6999999999981
    vertex 971.1907337493008 404.1733412012439 -557.9235428646912
    vertex 971.2929562704334 404.1733412012439 -558.6999999999987
  endloop
endfacet
facet normal -0.9914448613738158 -1.2212318328089305e-14 -0.13052619222001038
  outer loop
    vertex 971.1907337493008 404.1733412012439 -557.9235428646912
    vertex 971.292956270433 403.6733412012439 -558.6999999999981
    vertex 971.1907337493002 403.6733412012439 -557.9235428646906
  endloop
endfacet
facet normal -0.9238795325112912 -1.1380069015840164e-14 -0.38268343236507935
  outer loop
    vertex 971.1907337493008 404.1733412012439 -557.9235428646912
    vertex 970.8910324817866 403.67334120124394 -557.1999999999982
    vertex 970.8910324817869 404.1733412012439 -557.1999999999988
  endloop
endfacet
facet normal -0.9238795325112912 -1.1380069015840164e-14 -0.38268343236507935
  outer loop
    vertex 970.8910324817866 403.67334120124394 -557.1999999999982
    vertex 971.1907337493008 404.1733412012439 -557.9235428646912
    vertex 971.1907337493002 403.6733412012439 -557.9235428646906
  endloop
endfacet
facet normal -0.793353340291262 -9.772286806615071e-15 -0.6087614290086856
  outer loop
    vertex 970.8910324817866 403.67334120124394 -557.1999999999982
    vertex 970.4142766139935 404.1733412012439 -556.5786796564392
    vertex 970.8910324817869 404.1733412012439 -557.1999999999988
  endloop
endfacet
facet normal -0.793353340291262 -9.772286806615071e-15 -0.6087614290086856
  outer loop
    vertex 970.4142766139935 404.1733412012439 -556.5786796564392
    vertex 970.8910324817866 403.67334120124394 -557.1999999999982
    vertex 970.4142766139926 403.67334120124394 -556.5786796564386
  endloop
endfacet
facet normal -0.608761429008713 -7.49853940098599e-15 -0.7933533402912409
  outer loop
    vertex 970.4142766139926 403.67334120124394 -556.5786796564386
    vertex 969.7929562704335 404.1733412012439 -556.1019237886455
    vertex 970.4142766139935 404.1733412012439 -556.5786796564392
  endloop
endfacet
facet normal -0.608761429008713 -7.49853940098599e-15 -0.7933533402912409
  outer loop
    vertex 969.7929562704335 404.1733412012439 -556.1019237886455
    vertex 970.4142766139926 403.67334120124394 -556.5786796564386
    vertex 969.7929562704331 403.67334120124394 -556.1019237886451
  endloop
endfacet
facet normal -0.3826834323651598 -4.713778927103356e-15 -0.9238795325112579
  outer loop
    vertex 969.7929562704331 403.67334120124394 -556.1019237886451
    vertex 969.0694134057414 404.1733412012439 -555.8022225211313
    vertex 969.7929562704335 404.1733412012439 -556.1019237886455
  endloop
endfacet
facet normal -0.3826834323651598 -4.713778927103356e-15 -0.9238795325112579
  outer loop
    vertex 969.0694134057414 404.1733412012439 -555.8022225211313
    vertex 969.7929562704331 403.67334120124394 -556.1019237886451
    vertex 969.0694134057405 403.67334120124394 -555.802222521131
  endloop
endfacet
facet normal -0.13052619221998957 -1.6077822092241043e-15 -0.9914448613738187
  outer loop
    vertex 969.0694134057405 403.67334120124394 -555.802222521131
    vertex 968.2929562704335 404.1733412012439 -555.6999999999986
    vertex 969.0694134057414 404.1733412012439 -555.8022225211313
  endloop
endfacet
facet normal -0.13052619221998957 -1.6077822092241043e-15 -0.9914448613738187
  outer loop
    vertex 968.2929562704335 404.1733412012439 -555.6999999999986
    vertex 969.0694134057405 403.67334120124394 -555.802222521131
    vertex 968.2929562704335 403.67334120124394 -555.6999999999983
  endloop
endfacet
facet normal 1.7597034940308728e-14 -2.0372332877332625e-28 1.0
  outer loop
    vertex 968.2929562704335 404.1733412012439 -555.6999999999986
    vertex 984.2929562704329 403.6733412012441 -555.6999999999981
    vertex 984.2929562704338 404.1733412012441 -555.6999999999989
  endloop
endfacet
facet normal 1.7597034940308728e-14 -2.0372332877332625e-28 1.0
  outer loop
    vertex 984.2929562704329 403.6733412012441 -555.6999999999981
    vertex 968.2929562704335 404.1733412012439 -555.6999999999986
    vertex 968.2929562704335 403.67334120124394 -555.6999999999983
  endloop
endfacet
facet normal 1.025025378158848e-14 -1.0 -1.0448970295142183e-14
  outer loop
    vertex 984.2929562704193 394.2733412012443 -569.6999999999784
    vertex 951.2929562704333 394.27334120124385 -566.6999999999978
    vertex 948.2929562704336 394.2733412012436 -569.6999999999974
  endloop
endfacet
facet normal 1.025025378158848e-14 -1.0 -1.0448970295142183e-14
  outer loop
    vertex 951.2929562704333 394.27334120124385 -566.6999999999978
    vertex 984.2929562704193 394.2733412012443 -569.6999999999784
    vertex 984.2929562704338 394.2733412012436 -547.4999999999985
  endloop
endfacet
facet normal 1.025025378158848e-14 -1.0 -1.0448970295142183e-14
  outer loop
    vertex 951.2929562704333 394.27334120124385 -566.6999999999978
    vertex 952.7929562704338 394.2733412012439 -547.4999999999986
    vertex 951.2929562704337 394.2733412012435 -548.9999999999986
  endloop
endfacet
facet normal 1.025025378158848e-14 -1.0 -1.0448970295142183e-14
  outer loop
    vertex 952.7929562704338 394.2733412012439 -547.4999999999986
    vertex 951.2929562704333 394.27334120124385 -566.6999999999978
    vertex 984.2929562704338 394.2733412012436 -547.4999999999985
  endloop
endfacet
facet normal 2.2600089162459904e-15 1.0 -1.409983241273409e-14
  outer loop
    vertex 981.2929562704333 375.2733412012435 -572.6999999999906
    vertex 931.2929562704333 375.27334120124374 -575.8999999999984
    vertex 931.292956270433 375.2733412012436 -572.6999999999973
  endloop
endfacet
facet normal 2.2600089162459904e-15 1.0 -1.409983241273409e-14
  outer loop
    vertex 931.2929562704333 375.27334120124374 -575.8999999999984
    vertex 981.2929562704333 375.2733412012435 -572.6999999999906
    vertex 981.2929562704336 375.2733412012437 -575.8999999999916
  endloop
endfacet
facet normal 1.3244960683778115e-13 -1.2633449841813676e-14 -1.0
  outer loop
    vertex 981.2929562704333 397.2733412012434 -572.6999999999908
    vertex 931.292956270433 375.2733412012436 -572.6999999999973
    vertex 931.2929562704327 397.2733412012435 -572.6999999999974
  endloop
endfacet
facet normal 1.3244960683778115e-13 -1.2633449841813676e-14 -1.0
  outer loop
    vertex 931.292956270433 375.2733412012436 -572.6999999999973
    vertex 981.2929562704333 397.2733412012434 -572.6999999999908
    vertex 981.2929562704333 375.2733412012435 -572.6999999999906
  endloop
endfacet
facet normal 1.5931700403370993e-14 -8.685496766244965e-13 -1.0
  outer loop
    vertex 984.2929562704293 380.2733412012386 -578.8999999999731
    vertex 931.292956270436 376.27334120124334 -578.8999999999705
    vertex 931.2929562704363 380.27334120124334 -578.899999999973
  endloop
endfacet
facet normal 1.5931700403370993e-14 -8.685496766244965e-13 -1.0
  outer loop
    vertex 931.292956270436 376.27334120124334 -578.8999999999705
    vertex 984.2929562704293 380.2733412012386 -578.8999999999731
    vertex 984.2929562704255 376.2733412012354 -578.8999999999688
  endloop
endfacet
facet normal 1.6685688470321516e-13 -1.0 5.414335646485397e-13
  outer loop
    vertex 931.292956270433 421.47334120124407 -580.8999999999977
    vertex 984.2929562704322 421.473341201254 -578.8999999999955
    vertex 931.2929562704335 421.47334120124515 -578.8999999999954
  endloop
endfacet
facet normal 1.6685688470321516e-13 -1.0 5.414335646485397e-13
  outer loop
    vertex 984.2929562704322 421.473341201254 -578.8999999999955
    vertex 931.292956270433 421.47334120124407 -580.8999999999977
    vertex 984.292956270432 421.47334120125294 -580.8999999999978
  endloop
endfacet
facet normal -2.2204460492503126e-16 6.767919558114963e-14 -1.0
  outer loop
    vertex 984.292956270432 421.47334120125294 -580.8999999999978
    vertex 931.2929562704329 425.47334120124407 -580.8999999999975
    vertex 984.292956270432 425.47334120125294 -580.8999999999976
  endloop
endfacet
facet normal -2.2204460492503126e-16 6.767919558114963e-14 -1.0
  outer loop
    vertex 931.2929562704329 425.47334120124407 -580.8999999999975
    vertex 984.292956270432 421.47334120125294 -580.8999999999978
    vertex 931.292956270433 421.47334120124407 -580.8999999999977
  endloop
endfacet
facet normal 1.5153329325084456e-13 -1.0 3.1583624604495167e-13
  outer loop
    vertex 931.2929562704347 413.47334120124447 -580.8999999999962
    vertex 984.2929562704354 413.4733412012531 -578.8999999999887
    vertex 931.2929562704347 413.4733412012451 -578.8999999999935
  endloop
endfacet
facet normal 1.5153329325084456e-13 -1.0 3.1583624604495167e-13
  outer loop
    vertex 984.2929562704354 413.4733412012531 -578.8999999999887
    vertex 931.2929562704347 413.47334120124447 -580.8999999999962
    vertex 984.2929562704356 413.4733412012525 -580.8999999999916
  endloop
endfacet
facet normal -1.5153329325084052e-13 1.0 -3.6095570976611017e-13
  outer loop
    vertex 984.2929562704346 417.4733412012532 -578.899999999991
    vertex 931.2929562704342 417.47334120124447 -580.8999999999959
    vertex 931.2929562704339 417.47334120124515 -578.8999999999957
  endloop
endfacet
facet normal -1.5153329325084052e-13 1.0 -3.6095570976611017e-13
  outer loop
    vertex 931.2929562704342 417.47334120124447 -580.8999999999959
    vertex 984.2929562704346 417.4733412012532 -578.899999999991
    vertex 984.2929562704353 417.4733412012525 -580.8999999999911
  endloop
endfacet
facet normal 9.003908729710017e-14 6.76791955811578e-14 -1.0
  outer loop
    vertex 984.2929562704356 413.4733412012525 -580.8999999999916
    vertex 931.2929562704342 417.47334120124447 -580.8999999999959
    vertex 984.2929562704353 417.4733412012525 -580.8999999999911
  endloop
endfacet
facet normal 9.003908729710017e-14 6.76791955811578e-14 -1.0
  outer loop
    vertex 931.2929562704342 417.47334120124447 -580.8999999999959
    vertex 984.2929562704356 413.4733412012525 -580.8999999999916
    vertex 931.2929562704347 413.47334120124447 -580.8999999999962
  endloop
endfacet
facet normal 4.490852134608757e-14 -5.301536987189971e-13 -1.0
  outer loop
    vertex 984.2929562704346 417.4733412012532 -578.899999999991
    vertex 931.2929562704335 421.47334120124515 -578.8999999999954
    vertex 984.2929562704322 421.473341201254 -578.8999999999955
  endloop
endfacet
facet normal 4.490852134608757e-14 -5.301536987189971e-13 -1.0
  outer loop
    vertex 931.2929562704335 421.47334120124515 -578.8999999999954
    vertex 984.2929562704346 417.4733412012532 -578.899999999991
    vertex 931.2929562704339 417.47334120124515 -578.8999999999957
  endloop
endfacet
facet normal -2.2204460492503126e-16 6.767919558114963e-14 -1.0
  outer loop
    vertex 984.2929562704354 405.47334120124924 -580.899999999997
    vertex 931.2929562704351 409.47334120124447 -580.8999999999963
    vertex 984.2929562704353 409.47334120124924 -580.8999999999963
  endloop
endfacet
facet normal -2.2204460492503126e-16 6.767919558114963e-14 -1.0
  outer loop
    vertex 931.2929562704351 409.47334120124447 -580.8999999999963
    vertex 984.2929562704354 405.47334120124924 -580.899999999997
    vertex 931.2929562704354 405.4733412012444 -580.899999999997
  endloop
endfacet
facet normal 9.023892744153235e-14 -1.0 2.255973186030081e-14
  outer loop
    vertex 931.2929562704354 405.4733412012444 -580.899999999997
    vertex 984.2929562704354 405.4733412012493 -578.8999999999897
    vertex 931.2929562704351 405.47334120124447 -578.8999999999895
  endloop
endfacet
facet normal 9.023892744153235e-14 -1.0 2.255973186030081e-14
  outer loop
    vertex 984.2929562704354 405.4733412012493 -578.8999999999897
    vertex 931.2929562704354 405.4733412012444 -580.899999999997
    vertex 984.2929562704354 405.47334120124924 -580.899999999997
  endloop
endfacet
facet normal -9.023892744153242e-14 1.0 -3.158362460445814e-13
  outer loop
    vertex 984.2929562704353 409.47334120124987 -578.8999999999913
    vertex 931.2929562704351 409.47334120124447 -580.8999999999963
    vertex 931.2929562704351 409.4733412012451 -578.8999999999915
  endloop
endfacet
facet normal -9.023892744153242e-14 1.0 -3.158362460445814e-13
  outer loop
    vertex 931.2929562704351 409.47334120124447 -580.8999999999963
    vertex 984.2929562704353 409.47334120124987 -578.8999999999913
    vertex 984.2929562704353 409.47334120124924 -580.8999999999963
  endloop
endfacet
facet normal 4.490852134608757e-14 7.895906151155191e-14 -1.0
  outer loop
    vertex 984.2929562704353 409.47334120124987 -578.8999999999913
    vertex 931.2929562704347 413.4733412012451 -578.8999999999935
    vertex 984.2929562704354 413.4733412012531 -578.8999999999887
  endloop
endfacet
facet normal 4.490852134608757e-14 7.895906151155191e-14 -1.0
  outer loop
    vertex 931.2929562704347 413.4733412012451 -578.8999999999935
    vertex 984.2929562704353 409.47334120124987 -578.8999999999913
    vertex 931.2929562704351 409.4733412012451 -578.8999999999915
  endloop
endfacet
facet normal 9.003908729710017e-14 8.803797799174116e-14 -1.0
  outer loop
    vertex 984.292956270438 396.27334120125124 -580.8999999999924
    vertex 931.2929562704356 401.4733412012444 -580.8999999999969
    vertex 984.2929562704371 401.47334120125237 -580.899999999992
  endloop
endfacet
facet normal 9.003908729710017e-14 8.803797799174116e-14 -1.0
  outer loop
    vertex 931.2929562704356 401.4733412012444 -580.8999999999969
    vertex 984.292956270438 396.27334120125124 -580.8999999999924
    vertex 931.2929562704365 396.27334120124334 -580.8999999999975
  endloop
endfacet
facet normal 1.4897936134214889e-13 -1.0 -6.310887241768094e-29
  outer loop
    vertex 931.2929562704365 396.27334120124334 -580.8999999999975
    vertex 984.2929562704378 396.27334120125124 -578.8999999999781
    vertex 931.2929562704365 396.27334120124334 -578.8999999999829
  endloop
endfacet
facet normal 1.4897936134214889e-13 -1.0 -6.310887241768094e-29
  outer loop
    vertex 984.2929562704378 396.27334120125124 -578.8999999999781
    vertex 931.2929562704365 396.27334120124334 -580.8999999999975
    vertex 984.292956270438 396.27334120125124 -580.8999999999924
  endloop
endfacet
facet normal -1.4897936134214846e-13 1.0 -8.835242138475332e-29
  outer loop
    vertex 984.2929562704372 401.47334120125237 -578.8999999999824
    vertex 931.2929562704356 401.4733412012444 -580.8999999999969
    vertex 931.2929562704353 401.4733412012444 -578.8999999999871
  endloop
endfacet
facet normal -1.4897936134214846e-13 1.0 -8.835242138475332e-29
  outer loop
    vertex 931.2929562704356 401.4733412012444 -580.8999999999969
    vertex 984.2929562704372 401.47334120125237 -578.8999999999824
    vertex 984.2929562704371 401.47334120125237 -580.899999999992
  endloop
endfacet
facet normal 4.490852134608757e-14 -1.139266458949538e-12 -1.0
  outer loop
    vertex 984.2929562704372 401.47334120125237 -578.8999999999824
    vertex 931.2929562704351 405.47334120124447 -578.8999999999895
    vertex 984.2929562704354 405.4733412012493 -578.8999999999897
  endloop
endfacet
facet normal 4.490852134608757e-14 -1.139266458949538e-12 -1.0
  outer loop
    vertex 931.2929562704351 405.47334120124447 -578.8999999999895
    vertex 984.2929562704372 401.47334120125237 -578.8999999999824
    vertex 931.2929562704353 401.4733412012444 -578.8999999999871
  endloop
endfacet
facet normal -4.5119463720771017e-14 -1.0 6.064762639339139e-27
  outer loop
    vertex 931.2929562704369 392.27334120124334 -580.8999999999977
    vertex 984.2929562704315 392.27334120124095 -578.8999999999854
    vertex 931.2929562704367 392.27334120124334 -578.8999999999808
  endloop
endfacet
facet normal -4.5119463720771017e-14 -1.0 6.064762639339139e-27
  outer loop
    vertex 984.2929562704315 392.27334120124095 -578.8999999999854
    vertex 931.2929562704369 392.27334120124334 -580.8999999999977
    vertex 984.2929562704311 392.27334120124095 -580.9000000000021
  endloop
endfacet
facet normal 9.0427665355719e-14 4.5119463720762364e-14 1.0
  outer loop
    vertex 931.2929562704367 388.27334120124334 -580.8999999999993
    vertex 984.2929562704311 392.27334120124095 -580.9000000000021
    vertex 931.2929562704369 392.27334120124334 -580.8999999999977
  endloop
endfacet
facet normal 9.0427665355719e-14 4.5119463720762364e-14 1.0
  outer loop
    vertex 984.2929562704311 392.27334120124095 -580.9000000000021
    vertex 931.2929562704367 388.27334120124334 -580.8999999999993
    vertex 984.2929562704313 388.273341201241 -580.9000000000038
  endloop
endfacet
facet normal 4.5119463720719974e-14 1.0 -5.639932965041623e-13
  outer loop
    vertex 984.2929562704313 388.2733412012421 -578.8999999999845
    vertex 931.2929562704367 388.27334120124334 -580.8999999999993
    vertex 931.2929562704369 388.2733412012445 -578.89999999998
  endloop
endfacet
facet normal 4.5119463720719974e-14 1.0 -5.639932965041623e-13
  outer loop
    vertex 931.2929562704367 388.27334120124334 -580.8999999999993
    vertex 984.2929562704313 388.2733412012421 -578.8999999999845
    vertex 984.2929562704313 388.273341201241 -580.9000000000038
  endloop
endfacet
facet normal -2.2204460492503126e-16 5.865530283707467e-13 -1.0
  outer loop
    vertex 984.2929562704315 392.27334120124095 -578.8999999999854
    vertex 931.2929562704365 396.27334120124334 -578.8999999999829
    vertex 984.2929562704378 396.27334120125124 -578.8999999999781
  endloop
endfacet
facet normal -2.2204460492503126e-16 5.865530283707467e-13 -1.0
  outer loop
    vertex 931.2929562704365 396.27334120124334 -578.8999999999829
    vertex 984.2929562704315 392.27334120124095 -578.8999999999854
    vertex 931.2929562704367 392.27334120124334 -578.8999999999808
  endloop
endfacet
facet normal -9.023892744154461e-14 -1.0 -2.524354896707238e-29
  outer loop
    vertex 931.2929562704365 384.27334120124334 -580.8999999999972
    vertex 984.2929562704295 384.2733412012386 -578.8999999999754
    vertex 931.2929562704365 384.27334120124334 -578.8999999999754
  endloop
endfacet
facet normal -9.023892744154461e-14 -1.0 -2.524354896707238e-29
  outer loop
    vertex 984.2929562704295 384.2733412012386 -578.8999999999754
    vertex 931.2929562704365 384.27334120124334 -580.8999999999972
    vertex 984.2929562704295 384.2733412012386 -580.8999999999972
  endloop
endfacet
facet normal 2.2204460492503126e-16 6.767919558114963e-14 1.0
  outer loop
    vertex 931.2929562704361 380.27334120124334 -580.8999999999969
    vertex 984.2929562704295 384.2733412012386 -580.8999999999972
    vertex 931.2929562704365 384.27334120124334 -580.8999999999972
  endloop
endfacet
facet normal 2.2204460492503126e-16 6.767919558114963e-14 1.0
  outer loop
    vertex 984.2929562704295 384.2733412012386 -580.8999999999972
    vertex 931.2929562704361 380.27334120124334 -580.8999999999969
    vertex 984.2929562704289 380.2733412012386 -580.8999999999968
  endloop
endfacet
facet normal 9.023892744154461e-14 1.0 2.524354896707238e-29
  outer loop
    vertex 984.2929562704293 380.2733412012386 -578.8999999999731
    vertex 931.2929562704361 380.27334120124334 -580.8999999999969
    vertex 931.2929562704363 380.27334120124334 -578.899999999973
  endloop
endfacet
facet normal 9.023892744154461e-14 1.0 2.524354896707238e-29
  outer loop
    vertex 931.2929562704361 380.27334120124334 -580.8999999999969
    vertex 984.2929562704293 380.2733412012386 -578.8999999999731
    vertex 984.2929562704289 380.2733412012386 -580.8999999999968
  endloop
endfacet
facet normal -4.535261055593763e-14 -1.2295053863903377e-12 -1.0
  outer loop
    vertex 984.2929562704313 388.2733412012421 -578.8999999999845
    vertex 931.2929562704365 384.27334120124334 -578.8999999999754
    vertex 931.2929562704369 388.2733412012445 -578.89999999998
  endloop
endfacet
facet normal -4.535261055593763e-14 -1.2295053863903377e-12 -1.0
  outer loop
    vertex 931.2929562704365 384.27334120124334 -578.8999999999754
    vertex 984.2929562704313 388.2733412012421 -578.8999999999845
    vertex 984.2929562704295 384.2733412012386 -578.8999999999754
  endloop
endfacet
facet normal -1.515332932509055e-13 -1.0 -1.262177448353619e-28
  outer loop
    vertex 931.2929562704361 376.27334120124334 -580.8999999999967
    vertex 984.2929562704255 376.2733412012354 -578.8999999999688
    vertex 931.292956270436 376.27334120124334 -578.8999999999705
  endloop
endfacet
facet normal -1.515332932509055e-13 -1.0 -1.262177448353619e-28
  outer loop
    vertex 984.2929562704255 376.2733412012354 -578.8999999999688
    vertex 931.2929562704361 376.27334120124334 -580.8999999999967
    vertex 984.2929562704257 376.2733412012354 -580.899999999995
  endloop
endfacet
facet normal -4.490852134608757e-14 9.0238927441539e-14 1.0
  outer loop
    vertex 931.2929562704345 372.27334120124334 -580.8999999999961
    vertex 984.2929562704257 376.2733412012354 -580.899999999995
    vertex 931.2929562704361 376.27334120124334 -580.8999999999967
  endloop
endfacet
facet normal -4.490852134608757e-14 9.0238927441539e-14 1.0
  outer loop
    vertex 984.2929562704257 376.2733412012354 -580.899999999995
    vertex 931.2929562704345 372.27334120124334 -580.8999999999961
    vertex 984.292956270424 372.2733412012354 -580.8999999999944
  endloop
endfacet
facet normal -1.2814993154666655e-13 1.0 -1.0541934779794076e-14
  outer loop
    vertex 934.2929562704328 372.27334120124254 -569.699999999996
    vertex 931.2929562704345 372.27334120124334 -580.8999999999961
    vertex 931.2929562704333 372.2733412012426 -572.6999999999975
  endloop
endfacet
facet normal -1.2814993154666655e-13 1.0 -1.0541934779794076e-14
  outer loop
    vertex 931.2929562704345 372.27334120124334 -580.8999999999961
    vertex 934.2929562704328 372.27334120124254 -569.699999999996
    vertex 984.2929562704053 372.2733412012478 -569.6999999999789
  endloop
endfacet
facet normal -1.2814993154666655e-13 1.0 -1.0541934779794076e-14
  outer loop
    vertex 931.2929562704345 372.27334120124334 -580.8999999999961
    vertex 984.2929562704053 372.2733412012478 -569.6999999999789
    vertex 984.292956270424 372.2733412012354 -580.8999999999944
  endloop
endfacet
facet normal -4.884981308350688e-15 -1.1766529551697532e-15 1.0
  outer loop
    vertex 934.292956270434 425.47334120124316 -569.6999999999983
    vertex 984.2929562704333 403.6733412012439 -569.6999999999986
    vertex 984.2929562704335 425.4733412012439 -569.6999999999986
  endloop
endfacet
facet normal -4.884981308350688e-15 -1.1766529551697532e-15 1.0
  outer loop
    vertex 984.2929562704333 403.6733412012439 -569.6999999999986
    vertex 934.292956270434 425.47334120124316 -569.6999999999983
    vertex 948.2929562704328 403.67334120124326 -569.6999999999971
  endloop
endfacet
facet normal -4.884981308350688e-15 -1.1766529551697532e-15 1.0
  outer loop
    vertex 948.2929562704328 403.67334120124326 -569.6999999999971
    vertex 934.292956270434 425.47334120124316 -569.6999999999983
    vertex 934.2929562704338 400.6733412012436 -569.7000000000006
  endloop
endfacet
facet normal -4.884981308350688e-15 -1.1766529551697532e-15 1.0
  outer loop
    vertex 948.2929562704328 403.67334120124326 -569.6999999999971
    vertex 934.2929562704338 400.6733412012436 -569.7000000000006
    vertex 948.2929562704334 400.67334120124343 -569.6999999999974
  endloop
endfacet
facet normal -1.0 -2.9071156933536944e-14 -2.1471713296250527e-13
  outer loop
    vertex 931.2929562704347 413.4733412012451 -578.8999999999935
    vertex 931.2929562704342 417.47334120124447 -580.8999999999959
    vertex 931.2929562704347 413.47334120124447 -580.8999999999962
  endloop
endfacet
facet normal -1.0 -2.9071156933536944e-14 -2.1471713296250527e-13
  outer loop
    vertex 931.2929562704342 417.47334120124447 -580.8999999999959
    vertex 931.2929562704347 413.4733412012451 -578.8999999999935
    vertex 931.2929562704339 417.47334120124515 -578.8999999999957
  endloop
endfacet
facet normal -1.0 -2.9071156933536944e-14 -2.1471713296250527e-13
  outer loop
    vertex 931.2929562704351 405.47334120124447 -578.8999999999895
    vertex 931.2929562704351 409.47334120124447 -580.8999999999963
    vertex 931.2929562704354 405.4733412012444 -580.899999999997
  endloop
endfacet
facet normal -1.0 -2.9071156933536944e-14 -2.1471713296250527e-13
  outer loop
    vertex 931.2929562704351 409.47334120124447 -580.8999999999963
    vertex 931.2929562704351 405.47334120124447 -578.8999999999895
    vertex 931.2929562704351 409.4733412012451 -578.8999999999915
  endloop
endfacet
facet normal -1.0 -2.9071156933536944e-14 -2.1471713296250527e-13
  outer loop
    vertex 931.2929562704365 396.27334120124334 -580.8999999999975
    vertex 931.2929562704353 401.4733412012444 -578.8999999999871
    vertex 931.2929562704356 401.4733412012444 -580.8999999999969
  endloop
endfacet
facet normal -1.0 -2.9071156933536944e-14 -2.1471713296250527e-13
  outer loop
    vertex 931.2929562704353 401.4733412012444 -578.8999999999871
    vertex 931.2929562704365 396.27334120124334 -580.8999999999975
    vertex 931.2929562704365 396.27334120124334 -578.8999999999829
  endloop
endfacet
facet normal -1.0 -2.9071156933536944e-14 -2.1471713296250527e-13
  outer loop
    vertex 931.2929562704369 388.2733412012445 -578.89999999998
    vertex 931.2929562704369 392.27334120124334 -580.8999999999977
    vertex 931.2929562704367 388.27334120124334 -580.8999999999993
  endloop
endfacet
facet normal -1.0 -2.9071156933536944e-14 -2.1471713296250527e-13
  outer loop
    vertex 931.2929562704369 392.27334120124334 -580.8999999999977
    vertex 931.2929562704369 388.2733412012445 -578.89999999998
    vertex 931.2929562704367 392.27334120124334 -578.8999999999808
  endloop
endfacet
facet normal -1.0 -2.9071156933536944e-14 -2.1471713296250527e-13
  outer loop
    vertex 931.2929562704363 380.27334120124334 -578.899999999973
    vertex 931.2929562704365 384.27334120124334 -580.8999999999972
    vertex 931.2929562704361 380.27334120124334 -580.8999999999969
  endloop
endfacet
facet normal -1.0 -2.9071156933536944e-14 -2.1471713296250527e-13
  outer loop
    vertex 931.2929562704365 384.27334120124334 -580.8999999999972
    vertex 931.2929562704363 380.27334120124334 -578.899999999973
    vertex 931.2929562704365 384.27334120124334 -578.8999999999754
  endloop
endfacet
facet normal -1.0 -2.9071156933536944e-14 -2.1471713296250527e-13
  outer loop
    vertex 931.2929562704333 372.2733412012426 -572.6999999999975
    vertex 931.2929562704361 376.27334120124334 -580.8999999999967
    vertex 931.2929562704345 372.27334120124334 -580.8999999999961
  endloop
endfacet
facet normal -1.0 -2.9071156933536944e-14 -2.1471713296250527e-13
  outer loop
    vertex 931.2929562704361 376.27334120124334 -580.8999999999967
    vertex 931.2929562704333 372.2733412012426 -572.6999999999975
    vertex 931.292956270436 376.27334120124334 -578.8999999999705
  endloop
endfacet
facet normal -1.0 -2.9071156933536944e-14 -2.1471713296250527e-13
  outer loop
    vertex 931.292956270436 376.27334120124334 -578.8999999999705
    vertex 931.2929562704333 372.2733412012426 -572.6999999999975
    vertex 931.2929562704333 375.27334120124374 -575.8999999999984
  endloop
endfacet
facet normal -1.0 -2.9071156933536944e-14 -2.1471713296250527e-13
  outer loop
    vertex 931.2929562704333 375.27334120124374 -575.8999999999984
    vertex 931.2929562704333 372.2733412012426 -572.6999999999975
    vertex 931.292956270433 375.2733412012436 -572.6999999999973
  endloop
endfacet
facet normal -1.0 -2.9071156933536944e-14 -2.1471713296250527e-13
  outer loop
    vertex 931.2929562704335 421.47334120124515 -578.8999999999954
    vertex 931.2929562704329 425.47334120124407 -580.8999999999975
    vertex 931.292956270433 421.47334120124407 -580.8999999999977
  endloop
endfacet
facet normal -1.0 -2.9071156933536944e-14 -2.1471713296250527e-13
  outer loop
    vertex 931.2929562704329 425.47334120124407 -580.8999999999975
    vertex 931.2929562704335 421.47334120124515 -578.8999999999954
    vertex 931.2929562704339 425.47334120124316 -572.4999999999989
  endloop
endfacet
facet normal -1.0 -2.9071156933536944e-14 -2.1471713296250527e-13
  outer loop
    vertex 931.2929562704339 425.47334120124316 -572.4999999999989
    vertex 931.2929562704335 421.47334120124515 -578.8999999999954
    vertex 931.2929562704339 422.6733412012436 -575.8999999999986
  endloop
endfacet
facet normal -1.0 -2.9071156933536944e-14 -2.1471713296250527e-13
  outer loop
    vertex 931.2929562704339 422.6733412012436 -575.8999999999986
    vertex 931.2929562704335 421.47334120124515 -578.8999999999954
    vertex 931.2929562704339 417.47334120124515 -578.8999999999957
  endloop
endfacet
facet normal -1.0 -2.9071156933536944e-14 -2.1471713296250527e-13
  outer loop
    vertex 931.2929562704339 422.6733412012436 -575.8999999999986
    vertex 931.2929562704339 417.47334120124515 -578.8999999999957
    vertex 931.2929562704347 413.4733412012451 -578.8999999999935
  endloop
endfacet
facet normal -1.0 -2.9071156933536944e-14 -2.1471713296250527e-13
  outer loop
    vertex 931.2929562704339 422.6733412012436 -575.8999999999986
    vertex 931.2929562704347 413.4733412012451 -578.8999999999935
    vertex 931.2929562704351 409.4733412012451 -578.8999999999915
  endloop
endfacet
facet normal -1.0 -2.9071156933536944e-14 -2.1471713296250527e-13
  outer loop
    vertex 931.2929562704339 422.6733412012436 -575.8999999999986
    vertex 931.2929562704351 409.4733412012451 -578.8999999999915
    vertex 931.2929562704351 405.47334120124447 -578.8999999999895
  endloop
endfacet
facet normal -1.0 -2.9071156933536944e-14 -2.1471713296250527e-13
  outer loop
    vertex 931.2929562704339 422.6733412012436 -575.8999999999986
    vertex 931.2929562704351 405.47334120124447 -578.8999999999895
    vertex 931.2929562704353 401.4733412012444 -578.8999999999871
  endloop
endfacet
facet normal -1.0 -2.9071156933536944e-14 -2.1471713296250527e-13
  outer loop
    vertex 931.2929562704339 422.6733412012436 -575.8999999999986
    vertex 931.2929562704353 401.4733412012444 -578.8999999999871
    vertex 931.2929562704365 396.27334120124334 -578.8999999999829
  endloop
endfacet
facet normal -1.0 -2.9071156933536944e-14 -2.1471713296250527e-13
  outer loop
    vertex 931.2929562704339 422.6733412012436 -575.8999999999986
    vertex 931.2929562704365 396.27334120124334 -578.8999999999829
    vertex 931.2929562704367 392.27334120124334 -578.8999999999808
  endloop
endfacet
facet normal -1.0 -2.9071156933536944e-14 -2.1471713296250527e-13
  outer loop
    vertex 931.2929562704339 422.6733412012436 -575.8999999999986
    vertex 931.2929562704367 392.27334120124334 -578.8999999999808
    vertex 931.2929562704369 388.2733412012445 -578.89999999998
  endloop
endfacet
facet normal -1.0 -2.9071156933536944e-14 -2.1471713296250527e-13
  outer loop
    vertex 931.2929562704339 422.6733412012436 -575.8999999999986
    vertex 931.2929562704369 388.2733412012445 -578.89999999998
    vertex 931.2929562704365 384.27334120124334 -578.8999999999754
  endloop
endfacet
facet normal -1.0 -2.9071156933536944e-14 -2.1471713296250527e-13
  outer loop
    vertex 931.2929562704339 422.6733412012436 -575.8999999999986
    vertex 931.2929562704365 384.27334120124334 -578.8999999999754
    vertex 931.2929562704363 380.27334120124334 -578.899999999973
  endloop
endfacet
facet normal -1.0 -2.9071156933536944e-14 -2.1471713296250527e-13
  outer loop
    vertex 931.2929562704339 422.6733412012436 -575.8999999999986
    vertex 931.2929562704363 380.27334120124334 -578.899999999973
    vertex 931.292956270436 376.27334120124334 -578.8999999999705
  endloop
endfacet
facet normal -1.0 -2.9071156933536944e-14 -2.1471713296250527e-13
  outer loop
    vertex 931.2929562704339 422.6733412012436 -575.8999999999986
    vertex 931.292956270436 376.27334120124334 -578.8999999999705
    vertex 931.2929562704333 375.27334120124374 -575.8999999999984
  endloop
endfacet
facet normal -1.0 -2.9071156933536944e-14 -2.1471713296250527e-13
  outer loop
    vertex 931.2929562704339 425.47334120124316 -572.4999999999989
    vertex 931.2929562704339 422.6733412012436 -575.8999999999986
    vertex 931.2929562704339 422.67334120124355 -572.4999999999989
  endloop
endfacet
facet normal -8.753626460964485e-14 1.0 4.547881017307242e-13
  outer loop
    vertex 934.292956270434 425.47334120124316 -569.6999999999983
    vertex 931.2929562704329 425.47334120124407 -580.8999999999975
    vertex 931.2929562704339 425.47334120124316 -572.4999999999989
  endloop
endfacet
facet normal -8.753626460964485e-14 1.0 4.547881017307242e-13
  outer loop
    vertex 931.2929562704329 425.47334120124407 -580.8999999999975
    vertex 934.292956270434 425.47334120124316 -569.6999999999983
    vertex 984.2929562704335 425.4733412012439 -569.6999999999986
  endloop
endfacet
facet normal -8.753626460964485e-14 1.0 4.547881017307242e-13
  outer loop
    vertex 931.2929562704329 425.47334120124407 -580.8999999999975
    vertex 984.2929562704335 425.4733412012439 -569.6999999999986
    vertex 984.292956270432 425.47334120125294 -580.8999999999976
  endloop
endfacet
facet normal -0.7071067811870525 -6.833623274227099e-14 0.7071067811860426
  outer loop
    vertex 934.2929562704328 372.27334120124254 -569.699999999996
    vertex 931.292956270433 375.2733412012436 -572.6999999999973
    vertex 931.2929562704333 372.2733412012426 -572.6999999999975
  endloop
endfacet
facet normal -0.7071067811870525 -6.833623274227099e-14 0.7071067811860426
  outer loop
    vertex 931.292956270433 375.2733412012436 -572.6999999999973
    vertex 934.2929562704308 397.27334120124266 -569.6999999999945
    vertex 931.2929562704327 397.2733412012435 -572.6999999999974
  endloop
endfacet
facet normal -0.7071067811870525 -6.833623274227099e-14 0.7071067811860426
  outer loop
    vertex 934.2929562704308 397.27334120124266 -569.6999999999945
    vertex 931.292956270433 375.2733412012436 -572.6999999999973
    vertex 934.2929562704328 372.27334120124254 -569.699999999996
  endloop
endfacet
facet normal -0.6823182503599037 -2.213553081528785e-14 0.7310552682429693
  outer loop
    vertex 934.2929562704338 400.6733412012436 -569.7000000000006
    vertex 931.2929562704339 422.67334120124355 -572.4999999999989
    vertex 931.2929562704333 400.6733412012434 -572.4999999999986
  endloop
endfacet
facet normal -0.6823182503599037 -2.213553081528785e-14 0.7310552682429693
  outer loop
    vertex 931.2929562704339 422.67334120124355 -572.4999999999989
    vertex 934.2929562704338 400.6733412012436 -569.7000000000006
    vertex 931.2929562704339 425.47334120124316 -572.4999999999989
  endloop
endfacet
facet normal -0.6823182503599037 -2.213553081528785e-14 0.7310552682429693
  outer loop
    vertex 931.2929562704339 425.47334120124316 -572.4999999999989
    vertex 934.2929562704338 400.6733412012436 -569.7000000000006
    vertex 934.292956270434 425.47334120124316 -569.6999999999983
  endloop
endfacet
endsolid Main V1
