solid Main V1
facet normal 1.0 -1.0972659444726568e-14 -1.0569419908867438e-14
  outer loop
    vertex 987.2929562704319 416.4733412012527 -600.8999999999975
    vertex 987.2929562704319 381.2733412012442 -572.6999999999977
    vertex 987.2929562704319 381.27334120124317 -600.8999999999965
  endloop
endfacet
facet normal 1.0 -1.0972659444726568e-14 -1.0569419908867438e-14
  outer loop
    vertex 987.2929562704319 381.2733412012442 -572.6999999999977
    vertex 987.2929562704319 416.4733412012527 -600.8999999999975
    vertex 987.2929562704321 416.47334120125345 -572.6999999999986
  endloop
endfacet
facet normal 0.7071067811865442 0.7071067811865508 -6.394315369693053e-15
  outer loop
    vertex 931.2929562704345 382.2733412012434 -580.8999999999963
    vertex 941.2929562704347 372.27334120124306 -600.899999999996
    vertex 931.2929562704347 382.273341201243 -600.8999999999962
  endloop
endfacet
facet normal 0.7071067811865442 0.7071067811865508 -6.394315369693053e-15
  outer loop
    vertex 941.2929562704347 372.27334120124306 -600.899999999996
    vertex 931.2929562704345 382.2733412012434 -580.8999999999963
    vertex 941.2929562704346 372.2733412012434 -580.8999999999961
  endloop
endfacet
facet normal 0.7071067811865444 -0.7071067811865507 -1.244359094963627e-13
  outer loop
    vertex 941.292956270433 425.4733412012442 -580.8999999999975
    vertex 931.2929562704311 415.4733412012459 -600.8999999999963
    vertex 941.2929562704312 425.4733412012458 -600.8999999999966
  endloop
endfacet
facet normal 0.7071067811865444 -0.7071067811865507 -1.244359094963627e-13
  outer loop
    vertex 931.2929562704311 415.4733412012459 -600.8999999999963
    vertex 941.292956270433 425.4733412012442 -580.8999999999975
    vertex 931.2929562704329 415.47334120124407 -580.8999999999972
  endloop
endfacet
facet normal -0.7071067811865444 -0.7071067811865507 4.2558424627770015e-15
  outer loop
    vertex 984.2929562704322 415.47334120125294 -600.8999999999972
    vertex 974.292956270432 425.473341201253 -580.8999999999976
    vertex 974.2929562704321 425.473341201253 -600.8999999999974
  endloop
endfacet
facet normal -0.7071067811865444 -0.7071067811865507 4.2558424627770015e-15
  outer loop
    vertex 974.292956270432 425.473341201253 -580.8999999999976
    vertex 984.2929562704322 415.47334120125294 -600.8999999999972
    vertex 984.292956270432 415.47334120125294 -580.8999999999975
  endloop
endfacet
facet normal -0.7071067811865444 0.7071067811865507 -2.076569743821078e-14
  outer loop
    vertex 974.2929562704321 372.273341201243 -600.8999999999961
    vertex 984.292956270432 382.2733412012434 -580.8999999999963
    vertex 984.2929562704322 382.273341201243 -600.8999999999962
  endloop
endfacet
facet normal -0.7071067811865444 0.7071067811865507 -2.076569743821078e-14
  outer loop
    vertex 984.292956270432 382.2733412012434 -580.8999999999963
    vertex 974.2929562704321 372.273341201243 -600.8999999999961
    vertex 974.292956270432 372.2733412012434 -580.8999999999961
  endloop
endfacet
facet normal 1.126733793289442e-05 3.898092893856629e-07 0.9999999999364477
  outer loop
    vertex 931.0929562702158 378.47309686991827 -576.9000214342126
    vertex 928.2929562704343 416.4743022333667 -576.9000029757786
    vertex 928.2929562704343 381.2730968693365 -576.9000143629468
  endloop
endfacet
facet normal 1.126733793289442e-05 3.898092893856629e-07 0.9999999999364477
  outer loop
    vertex 928.2929562704343 416.4743022333667 -576.9000029757786
    vertex 931.0929562702158 378.47309686991827 -576.9000214342126
    vertex 931.0929562681328 419.27430222652305 -576.9000590016052
  endloop
endfacet
facet normal 1.7004077646162914e-14 6.3479339025314955e-15 1.0
  outer loop
    vertex 931.2929562704329 415.47334120124407 -580.8999999999972
    vertex 931.0929562704333 419.2741420606561 -580.8999999999972
    vertex 931.092956270433 415.47334120124407 -580.8999999999972
  endloop
endfacet
facet normal 1.7004077646162914e-14 6.3479339025314955e-15 1.0
  outer loop
    vertex 931.0929562704333 419.2741420606561 -580.8999999999972
    vertex 931.2929562704329 415.47334120124407 -580.8999999999972
    vertex 937.4921554054993 425.67334120124593 -580.8999999999975
  endloop
endfacet
facet normal 1.7004077646162914e-14 6.3479339025314955e-15 1.0
  outer loop
    vertex 937.4921554054993 425.67334120124593 -580.8999999999975
    vertex 931.2929562704329 415.47334120124407 -580.8999999999972
    vertex 941.292956270433 425.4733412012442 -580.8999999999975
  endloop
endfacet
facet normal 1.7004077646162914e-14 6.3479339025314955e-15 1.0
  outer loop
    vertex 937.4921554054993 425.67334120124593 -580.8999999999975
    vertex 941.292956270433 425.4733412012442 -580.8999999999975
    vertex 941.292956270433 425.67334120124303 -580.8999999999976
  endloop
endfacet
facet normal -1.0 -2.941937125781531e-28 -9.02389274415333e-15
  outer loop
    vertex 984.292956270432 382.2733412012434 -580.8999999999963
    vertex 984.2929562704322 415.47334120125294 -600.8999999999972
    vertex 984.2929562704322 382.273341201243 -600.8999999999962
  endloop
endfacet
facet normal -1.0 -2.941937125781531e-28 -9.02389274415333e-15
  outer loop
    vertex 984.2929562704322 415.47334120125294 -600.8999999999972
    vertex 984.292956270432 382.2733412012434 -580.8999999999963
    vertex 984.292956270432 415.47334120125294 -580.8999999999975
  endloop
endfacet
facet normal 6.836282381934577e-16 1.0 -1.917577208132578e-14
  outer loop
    vertex 941.2929562704347 372.27334120124306 -600.899999999996
    vertex 974.292956270432 372.2733412012434 -580.8999999999961
    vertex 974.2929562704321 372.273341201243 -600.8999999999961
  endloop
endfacet
facet normal 6.836282381934577e-16 1.0 -1.917577208132578e-14
  outer loop
    vertex 974.292956270432 372.2733412012434 -580.8999999999961
    vertex 941.2929562704347 372.27334120124306 -600.899999999996
    vertex 941.2929562704346 372.2733412012434 -580.8999999999961
  endloop
endfacet
facet normal 1.0 7.882315951217817e-14 -4.060751734868714e-14
  outer loop
    vertex 931.2929562704311 415.4733412012459 -600.8999999999963
    vertex 931.2929562704345 382.2733412012434 -580.8999999999963
    vertex 931.2929562704347 382.273341201243 -600.8999999999962
  endloop
endfacet
facet normal 1.0 7.882315951217817e-14 -4.060751734868714e-14
  outer loop
    vertex 931.2929562704345 382.2733412012434 -580.8999999999963
    vertex 931.2929562704311 415.4733412012459 -600.8999999999963
    vertex 931.2929562704329 415.47334120124407 -580.8999999999972
  endloop
endfacet
facet normal 2.420043963204729e-13 -1.0 -4.286349053473834e-14
  outer loop
    vertex 974.292956270432 425.473341201253 -580.8999999999976
    vertex 941.2929562704312 425.4733412012458 -600.8999999999966
    vertex 974.2929562704321 425.473341201253 -600.8999999999974
  endloop
endfacet
facet normal 2.420043963204729e-13 -1.0 -4.286349053473834e-14
  outer loop
    vertex 941.2929562704312 425.4733412012458 -600.8999999999966
    vertex 974.292956270432 425.473341201253 -580.8999999999976
    vertex 941.292956270433 425.4733412012442 -580.8999999999975
  endloop
endfacet
facet normal 2.7345129526574245e-15 4.342748383126441e-13 1.0
  outer loop
    vertex 974.292956270432 425.473341201253 -580.8999999999976
    vertex 941.292956270433 425.67334120124303 -580.8999999999976
    vertex 941.292956270433 425.4733412012442 -580.8999999999975
  endloop
endfacet
facet normal 2.7345129526574245e-15 4.342748383126441e-13 1.0
  outer loop
    vertex 941.292956270433 425.67334120124303 -580.8999999999976
    vertex 974.292956270432 425.473341201253 -580.8999999999976
    vertex 974.292956270432 425.6733412012519 -580.8999999999977
  endloop
endfacet
facet normal 1.519589073017589e-16 2.9898439814964995e-14 1.0
  outer loop
    vertex 931.0929562704346 382.2733412012434 -580.8999999999963
    vertex 931.2929562704329 415.47334120124407 -580.8999999999972
    vertex 931.092956270433 415.47334120124407 -580.8999999999972
  endloop
endfacet
facet normal 1.519589073017589e-16 2.9898439814964995e-14 1.0
  outer loop
    vertex 931.2929562704329 415.47334120124407 -580.8999999999972
    vertex 931.0929562704346 382.2733412012434 -580.8999999999963
    vertex 931.2929562704345 382.2733412012434 -580.8999999999963
  endloop
endfacet
facet normal -1.0135924314911011e-13 3.5334519781312844e-14 1.0
  outer loop
    vertex 984.4929562704311 382.2733412012432 -580.8999999999963
    vertex 984.292956270432 415.47334120125294 -580.8999999999975
    vertex 984.292956270432 382.2733412012434 -580.8999999999963
  endloop
endfacet
facet normal -1.0135924314911011e-13 3.5334519781312844e-14 1.0
  outer loop
    vertex 984.292956270432 415.47334120125294 -580.8999999999975
    vertex 984.4929562704311 382.2733412012432 -580.8999999999963
    vertex 984.4929562704311 415.47334120125294 -580.8999999999975
  endloop
endfacet
facet normal 0.0 -1.7189643543707748e-13 1.0
  outer loop
    vertex 974.292956270432 372.0733412012437 -580.8999999999961
    vertex 941.2929562704346 372.2733412012434 -580.8999999999961
    vertex 941.2929562704346 372.0733412012437 -580.8999999999961
  endloop
endfacet
facet normal 0.0 -1.7189643543707748e-13 1.0
  outer loop
    vertex 941.2929562704346 372.2733412012434 -580.8999999999961
    vertex 974.292956270432 372.0733412012437 -580.8999999999961
    vertex 974.292956270432 372.2733412012434 -580.8999999999961
  endloop
endfacet
facet normal -0.7071053576132563 -0.707108204733357 -5.779097425694606e-06
  outer loop
    vertex 940.2929562704343 369.2733412012431 -600.8999999999962
    vertex 937.4927526601128 372.0733412012437 -580.8999999999967
    vertex 928.2929562704343 381.2733412006213 -600.8998778336589
  endloop
endfacet
facet normal -0.7071053576132563 -0.707108204733357 -5.779097425694606e-06
  outer loop
    vertex 937.4927526601128 372.0733412012437 -580.8999999999967
    vertex 940.2929562704343 369.2733412012431 -600.8999999999962
    vertex 940.2929562704343 369.2732190356007 -572.6999999999973
  endloop
endfacet
facet normal -0.7071053576132563 -0.707108204733357 -5.779097425694606e-06
  outer loop
    vertex 928.2929562704343 381.2733412006213 -600.8998778336589
    vertex 937.4927526601128 372.0733412012437 -580.8999999999967
    vertex 931.0929562704346 378.4731405655622 -580.8999999999968
  endloop
endfacet
facet normal -0.7071053576132563 -0.707108204733357 -5.779097425694606e-06
  outer loop
    vertex 937.4927526601128 372.0733412012437 -580.8999999999967
    vertex 940.2929562704343 369.2732190356007 -572.6999999999973
    vertex 937.4927526601128 372.07334120124307 -572.6999999999973
  endloop
endfacet
facet normal -0.7071053576132563 -0.707108204733357 -5.779097425694606e-06
  outer loop
    vertex 931.0929562704346 378.4731405655622 -580.8999999999968
    vertex 928.2929562704343 381.2730968693365 -576.9000143629468
    vertex 928.2929562704343 381.2733412006213 -600.8998778336589
  endloop
endfacet
facet normal -0.7071053576132563 -0.707108204733357 -5.779097425694606e-06
  outer loop
    vertex 928.2929562704343 381.2730968693365 -576.9000143629468
    vertex 931.0929562704346 378.4731405655622 -580.8999999999968
    vertex 931.0929562702158 378.47309686991827 -576.9000214342126
  endloop
endfacet
facet normal -1.0 0.0 0.0
  outer loop
    vertex 928.2929562704343 416.4743022333667 -576.9000029757786
    vertex 928.2929562704343 381.2733412006213 -600.8998778336589
    vertex 928.2929562704343 381.2730968693365 -576.9000143629468
  endloop
endfacet
facet normal -1.0 0.0 0.0
  outer loop
    vertex 928.2929562704343 381.2733412006213 -600.8998778336589
    vertex 928.2929562704343 416.4743022333667 -576.9000029757786
    vertex 928.2929562704343 416.4733412108736 -600.8995194790693
  endloop
endfacet
facet normal 3.1692233602719036e-06 -0.9999999999891744 -3.4069637504762677e-06
  outer loop
    vertex 975.2929562704319 369.2733412012431 -600.8999999999961
    vertex 940.2929562704343 369.2732190356007 -572.6999999999973
    vertex 940.2929562704343 369.2733412012431 -600.8999999999962
  endloop
endfacet
facet normal 3.1692233602719036e-06 -0.9999999999891744 -3.4069637504762677e-06
  outer loop
    vertex 940.2929562704343 369.2732190356007 -572.6999999999973
    vertex 975.2929562704319 369.2733412012431 -600.8999999999961
    vertex 975.2929562704319 369.2733412012442 -572.6999999999973
  endloop
endfacet
facet normal 0.0 0.0 1.0
  outer loop
    vertex 940.2929562704343 369.2732190356007 -572.6999999999973
    vertex 978.0929562704302 372.07334120124256 -572.6999999999973
    vertex 937.4927526601128 372.07334120124307 -572.6999999999973
  endloop
endfacet
facet normal 0.0 0.0 1.0
  outer loop
    vertex 978.0929562704302 372.07334120124256 -572.6999999999973
    vertex 940.2929562704343 369.2732190356007 -572.6999999999973
    vertex 975.2929562704319 369.2733412012442 -572.6999999999973
  endloop
endfacet
facet normal -1.4834607716531984e-13 -1.2875126983787173e-13 1.0
  outer loop
    vertex 937.4927526601128 372.0733412012437 -580.8999999999967
    vertex 931.0929562704346 382.2733412012434 -580.8999999999963
    vertex 931.0929562704346 378.4731405655622 -580.8999999999968
  endloop
endfacet
facet normal -1.4834607716531984e-13 -1.2875126983787173e-13 1.0
  outer loop
    vertex 931.0929562704346 382.2733412012434 -580.8999999999963
    vertex 937.4927526601128 372.0733412012437 -580.8999999999967
    vertex 931.2929562704345 382.2733412012434 -580.8999999999963
  endloop
endfacet
facet normal -1.4834607716531984e-13 -1.2875126983787173e-13 1.0
  outer loop
    vertex 931.2929562704345 382.2733412012434 -580.8999999999963
    vertex 937.4927526601128 372.0733412012437 -580.8999999999967
    vertex 941.2929562704346 372.2733412012434 -580.8999999999961
  endloop
endfacet
facet normal -1.4834607716531984e-13 -1.2875126983787173e-13 1.0
  outer loop
    vertex 941.2929562704346 372.2733412012434 -580.8999999999961
    vertex 937.4927526601128 372.0733412012437 -580.8999999999967
    vertex 941.2929562704346 372.0733412012437 -580.8999999999961
  endloop
endfacet
facet normal 1.0 1.9202098680360492e-11 3.1488975914604996e-10
  outer loop
    vertex 931.0929562704346 378.4731405655622 -580.8999999999968
    vertex 931.0929562681328 419.27430222652305 -576.9000590016052
    vertex 931.0929562702158 378.47309686991827 -576.9000214342126
  endloop
endfacet
facet normal 1.0 1.9202098680360492e-11 3.1488975914604996e-10
  outer loop
    vertex 931.0929562681328 419.27430222652305 -576.9000590016052
    vertex 931.0929562704346 378.4731405655622 -580.8999999999968
    vertex 931.0929562704346 382.2733412012434 -580.8999999999963
  endloop
endfacet
facet normal 1.0 1.9202098680360492e-11 3.1488975914604996e-10
  outer loop
    vertex 931.0929562681328 419.27430222652305 -576.9000590016052
    vertex 931.0929562704346 382.2733412012434 -580.8999999999963
    vertex 931.092956270433 415.47334120124407 -580.8999999999972
  endloop
endfacet
facet normal 1.0 1.9202098680360492e-11 3.1488975914604996e-10
  outer loop
    vertex 931.0929562681328 419.27430222652305 -576.9000590016052
    vertex 931.092956270433 415.47334120124407 -580.8999999999972
    vertex 931.0929562704333 419.2741420606561 -580.8999999999972
  endloop
endfacet
facet normal 0.707106781186547 -0.7071067811865481 2.7302788156324922e-14
  outer loop
    vertex 987.2929562704319 381.27334120124317 -600.8999999999965
    vertex 984.4929562704309 378.4733412012434 -580.8999999999963
    vertex 975.2929562704319 369.2733412012431 -600.8999999999961
  endloop
endfacet
facet normal 0.707106781186547 -0.7071067811865481 2.7302788156324922e-14
  outer loop
    vertex 984.4929562704309 378.4733412012434 -580.8999999999963
    vertex 987.2929562704319 381.27334120124317 -600.8999999999965
    vertex 987.2929562704319 381.2733412012442 -572.6999999999977
  endloop
endfacet
facet normal 0.707106781186547 -0.7071067811865481 2.7302788156324922e-14
  outer loop
    vertex 984.4929562704309 378.4733412012434 -580.8999999999963
    vertex 987.2929562704319 381.2733412012442 -572.6999999999977
    vertex 984.4929562704307 378.47334120124304 -572.6999999999975
  endloop
endfacet
facet normal 0.707106781186547 -0.7071067811865481 2.7302788156324922e-14
  outer loop
    vertex 975.2929562704319 369.2733412012431 -600.8999999999961
    vertex 978.0929562704302 372.0733412012429 -580.8999999999962
    vertex 975.2929562704319 369.2733412012442 -572.6999999999973
  endloop
endfacet
facet normal 0.707106781186547 -0.7071067811865481 2.7302788156324922e-14
  outer loop
    vertex 978.0929562704302 372.0733412012429 -580.8999999999962
    vertex 975.2929562704319 369.2733412012431 -600.8999999999961
    vertex 984.4929562704309 378.4733412012434 -580.8999999999963
  endloop
endfacet
facet normal 0.707106781186547 -0.7071067811865481 2.7302788156324922e-14
  outer loop
    vertex 975.2929562704319 369.2733412012442 -572.6999999999973
    vertex 978.0929562704302 372.0733412012429 -580.8999999999962
    vertex 978.0929562704302 372.07334120124256 -572.6999999999973
  endloop
endfacet
facet normal 1.2112821700051423e-14 1.0 8.116008615308192e-14
  outer loop
    vertex 937.4927526601128 372.07334120124307 -572.6999999999973
    vertex 941.2929562704346 372.0733412012437 -580.8999999999961
    vertex 937.4927526601128 372.0733412012437 -580.8999999999967
  endloop
endfacet
facet normal 1.2112821700051423e-14 1.0 8.116008615308192e-14
  outer loop
    vertex 941.2929562704346 372.0733412012437 -580.8999999999961
    vertex 937.4927526601128 372.07334120124307 -572.6999999999973
    vertex 974.292956270432 372.0733412012437 -580.8999999999961
  endloop
endfacet
facet normal 1.2112821700051423e-14 1.0 8.116008615308192e-14
  outer loop
    vertex 974.292956270432 372.0733412012437 -580.8999999999961
    vertex 978.0929562704302 372.07334120124256 -572.6999999999973
    vertex 978.0929562704302 372.0733412012429 -580.8999999999962
  endloop
endfacet
facet normal 1.2112821700051423e-14 1.0 8.116008615308192e-14
  outer loop
    vertex 978.0929562704302 372.07334120124256 -572.6999999999973
    vertex 974.292956270432 372.0733412012437 -580.8999999999961
    vertex 937.4927526601128 372.07334120124307 -572.6999999999973
  endloop
endfacet
facet normal 2.0165057832156234e-14 -2.9275810800591306e-15 1.0
  outer loop
    vertex 978.0929562704302 372.0733412012429 -580.8999999999962
    vertex 974.292956270432 372.2733412012434 -580.8999999999961
    vertex 974.292956270432 372.0733412012437 -580.8999999999961
  endloop
endfacet
facet normal 2.0165057832156234e-14 -2.9275810800591306e-15 1.0
  outer loop
    vertex 974.292956270432 372.2733412012434 -580.8999999999961
    vertex 978.0929562704302 372.0733412012429 -580.8999999999962
    vertex 984.292956270432 382.2733412012434 -580.8999999999963
  endloop
endfacet
facet normal 2.0165057832156234e-14 -2.9275810800591306e-15 1.0
  outer loop
    vertex 984.292956270432 382.2733412012434 -580.8999999999963
    vertex 978.0929562704302 372.0733412012429 -580.8999999999962
    vertex 984.4929562704309 378.4733412012434 -580.8999999999963
  endloop
endfacet
facet normal 2.0165057832156234e-14 -2.9275810800591306e-15 1.0
  outer loop
    vertex 984.292956270432 382.2733412012434 -580.8999999999963
    vertex 984.4929562704309 378.4733412012434 -580.8999999999963
    vertex 984.4929562704311 382.2733412012432 -580.8999999999963
  endloop
endfacet
facet normal 3.222818837196296e-14 2.6154769580247283e-14 1.0
  outer loop
    vertex 987.2929562704319 381.2733412012442 -572.6999999999977
    vertex 984.4929562704307 419.27334120125494 -572.6999999999986
    vertex 984.4929562704307 378.47334120124304 -572.6999999999975
  endloop
endfacet
facet normal 3.222818837196296e-14 2.6154769580247283e-14 1.0
  outer loop
    vertex 984.4929562704307 419.27334120125494 -572.6999999999986
    vertex 987.2929562704319 381.2733412012442 -572.6999999999977
    vertex 987.2929562704321 416.47334120125345 -572.6999999999986
  endloop
endfacet
facet normal -1.0 -9.987224011326995e-16 -2.649499156188634e-14
  outer loop
    vertex 984.4929562704307 419.27334120125494 -572.6999999999986
    vertex 984.4929562704309 378.4733412012434 -580.8999999999963
    vertex 984.4929562704307 378.47334120124304 -572.6999999999975
  endloop
endfacet
facet normal -1.0 -9.987224011326995e-16 -2.649499156188634e-14
  outer loop
    vertex 984.4929562704309 378.4733412012434 -580.8999999999963
    vertex 984.4929562704307 419.27334120125494 -572.6999999999986
    vertex 984.4929562704311 382.2733412012432 -580.8999999999963
  endloop
endfacet
facet normal -1.0 -9.987224011326995e-16 -2.649499156188634e-14
  outer loop
    vertex 984.4929562704311 382.2733412012432 -580.8999999999963
    vertex 984.4929562704307 419.27334120125494 -572.6999999999986
    vertex 984.4929562704311 415.47334120125294 -580.8999999999975
  endloop
endfacet
facet normal -1.0 -9.987224011326995e-16 -2.649499156188634e-14
  outer loop
    vertex 984.4929562704311 415.47334120125294 -580.8999999999975
    vertex 984.4929562704307 419.27334120125494 -572.6999999999986
    vertex 984.4929562704307 419.27334120125516 -580.8999999999976
  endloop
endfacet
facet normal 0.7071067811865656 0.7071067811865296 -3.507486310252885e-14
  outer loop
    vertex 987.2929562704319 416.4733412012527 -600.8999999999975
    vertex 984.4929562704307 419.27334120125516 -580.8999999999976
    vertex 987.2929562704321 416.47334120125345 -572.6999999999986
  endloop
endfacet
facet normal 0.7071067811865656 0.7071067811865296 -3.507486310252885e-14
  outer loop
    vertex 984.4929562704307 419.27334120125516 -580.8999999999976
    vertex 987.2929562704319 416.4733412012527 -600.8999999999975
    vertex 975.2929562704319 428.4733412012527 -600.8999999999975
  endloop
endfacet
facet normal 0.7071067811865656 0.7071067811865296 -3.507486310252885e-14
  outer loop
    vertex 987.2929562704321 416.47334120125345 -572.6999999999986
    vertex 984.4929562704307 419.27334120125516 -580.8999999999976
    vertex 984.4929562704307 419.27334120125494 -572.6999999999986
  endloop
endfacet
facet normal 0.7071067811865656 0.7071067811865296 -3.507486310252885e-14
  outer loop
    vertex 984.4929562704307 419.27334120125516 -580.8999999999976
    vertex 975.2929562704319 428.4733412012527 -600.8999999999975
    vertex 978.0929562704341 425.6733412012521 -580.8999999999977
  endloop
endfacet
facet normal 0.7071067811865656 0.7071067811865296 -3.507486310252885e-14
  outer loop
    vertex 978.0929562704341 425.6733412012521 -580.8999999999977
    vertex 975.2929562704319 428.4733412012527 -600.8999999999975
    vertex 978.0929562704341 425.6733412012521 -572.6999999999986
  endloop
endfacet
facet normal 0.7071067811865656 0.7071067811865296 -3.507486310252885e-14
  outer loop
    vertex 978.0929562704341 425.6733412012521 -572.6999999999986
    vertex 975.2929562704319 428.4733412012527 -600.8999999999975
    vertex 975.292956270433 428.4733412012534 -572.6999999999986
  endloop
endfacet
facet normal 1.09864407820563e-14 2.454069600592895e-14 1.0
  outer loop
    vertex 984.292956270432 415.47334120125294 -580.8999999999975
    vertex 974.292956270432 425.6733412012519 -580.8999999999977
    vertex 974.292956270432 425.473341201253 -580.8999999999976
  endloop
endfacet
facet normal 1.09864407820563e-14 2.454069600592895e-14 1.0
  outer loop
    vertex 974.292956270432 425.6733412012519 -580.8999999999977
    vertex 984.292956270432 415.47334120125294 -580.8999999999975
    vertex 978.0929562704341 425.6733412012521 -580.8999999999977
  endloop
endfacet
facet normal 1.09864407820563e-14 2.454069600592895e-14 1.0
  outer loop
    vertex 978.0929562704341 425.6733412012521 -580.8999999999977
    vertex 984.292956270432 415.47334120125294 -580.8999999999975
    vertex 984.4929562704307 419.27334120125516 -580.8999999999976
  endloop
endfacet
facet normal 1.09864407820563e-14 2.454069600592895e-14 1.0
  outer loop
    vertex 984.4929562704307 419.27334120125516 -580.8999999999976
    vertex 984.292956270432 415.47334120125294 -580.8999999999975
    vertex 984.4929562704311 415.47334120125294 -580.8999999999975
  endloop
endfacet
facet normal 1.2465487410499016e-05 0.9999999998325204 -1.3400408004638617e-05
  outer loop
    vertex 940.2929562704343 428.4733412012527 -600.8999999999961
    vertex 975.292956270433 428.4733412012534 -572.6999999999986
    vertex 975.2929562704319 428.4733412012527 -600.8999999999975
  endloop
endfacet
facet normal 1.2465487410499016e-05 0.9999999998325204 -1.3400408004638617e-05
  outer loop
    vertex 975.292956270433 428.4733412012534 -572.6999999999986
    vertex 940.2929562704343 428.4733412012527 -600.8999999999961
    vertex 940.2929562704343 428.47382171249916 -572.6999999999975
  endloop
endfacet
facet normal 2.976568578009336e-14 1.6106345383845355e-14 1.0
  outer loop
    vertex 978.0929562704341 425.6733412012521 -572.6999999999986
    vertex 940.2929562704343 428.47382171249916 -572.6999999999975
    vertex 937.4919952463927 425.67334120125116 -572.6999999999974
  endloop
endfacet
facet normal 2.976568578009336e-14 1.6106345383845355e-14 1.0
  outer loop
    vertex 940.2929562704343 428.47382171249916 -572.6999999999975
    vertex 978.0929562704341 425.6733412012521 -572.6999999999986
    vertex 975.292956270433 428.4733412012534 -572.6999999999986
  endloop
endfacet
facet normal 1.087040767049605e-13 -1.0 4.5199183572494374e-13
  outer loop
    vertex 978.0929562704341 425.6733412012521 -572.6999999999986
    vertex 974.292956270432 425.6733412012519 -580.8999999999977
    vertex 978.0929562704341 425.6733412012521 -580.8999999999977
  endloop
endfacet
facet normal 1.087040767049605e-13 -1.0 4.5199183572494374e-13
  outer loop
    vertex 974.292956270432 425.6733412012519 -580.8999999999977
    vertex 978.0929562704341 425.6733412012521 -572.6999999999986
    vertex 941.292956270433 425.67334120124303 -580.8999999999976
  endloop
endfacet
facet normal 1.087040767049605e-13 -1.0 4.5199183572494374e-13
  outer loop
    vertex 941.292956270433 425.67334120124303 -580.8999999999976
    vertex 978.0929562704341 425.6733412012521 -572.6999999999986
    vertex 937.4921554054993 425.67334120124593 -580.8999999999975
  endloop
endfacet
facet normal 1.087040767049605e-13 -1.0 4.5199183572494374e-13
  outer loop
    vertex 937.4921554054993 425.67334120124593 -580.8999999999975
    vertex 978.0929562704341 425.6733412012521 -572.6999999999986
    vertex 937.4919952463927 425.67334120125116 -572.6999999999974
  endloop
endfacet
facet normal -0.7071017512523792 0.7071118106798013 -2.3936400427262125e-05
  outer loop
    vertex 928.2929562704343 416.4733412108736 -600.8995194790693
    vertex 931.0929562704333 419.2741420606561 -580.8999999999972
    vertex 937.4921554054993 425.67334120124593 -580.8999999999975
  endloop
endfacet
facet normal -0.7071017512523792 0.7071118106798013 -2.3936400427262125e-05
  outer loop
    vertex 931.0929562704333 419.2741420606561 -580.8999999999972
    vertex 928.2929562704343 416.4733412108736 -600.8995194790693
    vertex 928.2929562704343 416.4743022333667 -576.9000029757786
  endloop
endfacet
facet normal -0.7071017512523792 0.7071118106798013 -2.3936400427262125e-05
  outer loop
    vertex 931.0929562704333 419.2741420606561 -580.8999999999972
    vertex 928.2929562704343 416.4743022333667 -576.9000029757786
    vertex 931.0929562681328 419.27430222652305 -576.9000590016052
  endloop
endfacet
facet normal -0.7071017512523792 0.7071118106798013 -2.3936400427262125e-05
  outer loop
    vertex 940.2929562704343 428.4733412012527 -600.8999999999961
    vertex 937.4921554054993 425.67334120124593 -580.8999999999975
    vertex 940.2929562704343 428.47382171249916 -572.6999999999975
  endloop
endfacet
facet normal -0.7071017512523792 0.7071118106798013 -2.3936400427262125e-05
  outer loop
    vertex 937.4921554054993 425.67334120124593 -580.8999999999975
    vertex 940.2929562704343 428.4733412012527 -600.8999999999961
    vertex 928.2929562704343 416.4733412108736 -600.8995194790693
  endloop
endfacet
facet normal -0.7071017512523792 0.7071118106798013 -2.3936400427262125e-05
  outer loop
    vertex 940.2929562704343 428.47382171249916 -572.6999999999975
    vertex 937.4921554054993 425.67334120124593 -580.8999999999975
    vertex 937.4919952463927 425.67334120125116 -572.6999999999974
  endloop
endfacet
facet normal -3.7780013510259544e-06 1.3295670710669501e-06 -0.9999999999919795
  outer loop
    vertex 928.2929562704343 416.4733412108736 -600.8995194790693
    vertex 931.2929562704311 415.4733412012459 -600.8999999999963
    vertex 928.2929562704343 381.2733412006213 -600.8998778336589
  endloop
endfacet
facet normal -3.7780013510259544e-06 1.3295670710669501e-06 -0.9999999999919795
  outer loop
    vertex 931.2929562704311 415.4733412012459 -600.8999999999963
    vertex 928.2929562704343 416.4733412108736 -600.8995194790693
    vertex 940.2929562704343 428.4733412012527 -600.8999999999961
  endloop
endfacet
facet normal -3.7780013510259544e-06 1.3295670710669501e-06 -0.9999999999919795
  outer loop
    vertex 931.2929562704311 415.4733412012459 -600.8999999999963
    vertex 940.2929562704343 428.4733412012527 -600.8999999999961
    vertex 941.2929562704312 425.4733412012458 -600.8999999999966
  endloop
endfacet
facet normal -3.7780013510259544e-06 1.3295670710669501e-06 -0.9999999999919795
  outer loop
    vertex 941.2929562704312 425.4733412012458 -600.8999999999966
    vertex 940.2929562704343 428.4733412012527 -600.8999999999961
    vertex 975.2929562704319 428.4733412012527 -600.8999999999975
  endloop
endfacet
facet normal -3.7780013510259544e-06 1.3295670710669501e-06 -0.9999999999919795
  outer loop
    vertex 941.2929562704312 425.4733412012458 -600.8999999999966
    vertex 975.2929562704319 428.4733412012527 -600.8999999999975
    vertex 974.2929562704321 425.473341201253 -600.8999999999974
  endloop
endfacet
facet normal -3.7780013510259544e-06 1.3295670710669501e-06 -0.9999999999919795
  outer loop
    vertex 974.2929562704321 425.473341201253 -600.8999999999974
    vertex 975.2929562704319 428.4733412012527 -600.8999999999975
    vertex 984.2929562704322 415.47334120125294 -600.8999999999972
  endloop
endfacet
facet normal -3.7780013510259544e-06 1.3295670710669501e-06 -0.9999999999919795
  outer loop
    vertex 984.2929562704322 415.47334120125294 -600.8999999999972
    vertex 975.2929562704319 428.4733412012527 -600.8999999999975
    vertex 987.2929562704319 416.4733412012527 -600.8999999999975
  endloop
endfacet
facet normal -3.7780013510259544e-06 1.3295670710669501e-06 -0.9999999999919795
  outer loop
    vertex 984.2929562704322 415.47334120125294 -600.8999999999972
    vertex 987.2929562704319 416.4733412012527 -600.8999999999975
    vertex 984.2929562704322 382.273341201243 -600.8999999999962
  endloop
endfacet
facet normal -3.7780013510259544e-06 1.3295670710669501e-06 -0.9999999999919795
  outer loop
    vertex 928.2929562704343 381.2733412006213 -600.8998778336589
    vertex 931.2929562704347 382.273341201243 -600.8999999999962
    vertex 940.2929562704343 369.2733412012431 -600.8999999999962
  endloop
endfacet
facet normal -3.7780013510259544e-06 1.3295670710669501e-06 -0.9999999999919795
  outer loop
    vertex 931.2929562704347 382.273341201243 -600.8999999999962
    vertex 928.2929562704343 381.2733412006213 -600.8998778336589
    vertex 931.2929562704311 415.4733412012459 -600.8999999999963
  endloop
endfacet
facet normal -3.7780013510259544e-06 1.3295670710669501e-06 -0.9999999999919795
  outer loop
    vertex 940.2929562704343 369.2733412012431 -600.8999999999962
    vertex 931.2929562704347 382.273341201243 -600.8999999999962
    vertex 941.2929562704347 372.27334120124306 -600.899999999996
  endloop
endfacet
facet normal -3.7780013510259544e-06 1.3295670710669501e-06 -0.9999999999919795
  outer loop
    vertex 940.2929562704343 369.2733412012431 -600.8999999999962
    vertex 941.2929562704347 372.27334120124306 -600.899999999996
    vertex 975.2929562704319 369.2733412012431 -600.8999999999961
  endloop
endfacet
facet normal -3.7780013510259544e-06 1.3295670710669501e-06 -0.9999999999919795
  outer loop
    vertex 975.2929562704319 369.2733412012431 -600.8999999999961
    vertex 941.2929562704347 372.27334120124306 -600.899999999996
    vertex 974.2929562704321 372.273341201243 -600.8999999999961
  endloop
endfacet
facet normal -3.7780013510259544e-06 1.3295670710669501e-06 -0.9999999999919795
  outer loop
    vertex 975.2929562704319 369.2733412012431 -600.8999999999961
    vertex 974.2929562704321 372.273341201243 -600.8999999999961
    vertex 984.2929562704322 382.273341201243 -600.8999999999962
  endloop
endfacet
facet normal -3.7780013510259544e-06 1.3295670710669501e-06 -0.9999999999919795
  outer loop
    vertex 975.2929562704319 369.2733412012431 -600.8999999999961
    vertex 984.2929562704322 382.273341201243 -600.8999999999962
    vertex 987.2929562704319 381.27334120124317 -600.8999999999965
  endloop
endfacet
facet normal -3.7780013510259544e-06 1.3295670710669501e-06 -0.9999999999919795
  outer loop
    vertex 987.2929562704319 381.27334120124317 -600.8999999999965
    vertex 984.2929562704322 382.273341201243 -600.8999999999962
    vertex 987.2929562704319 416.4733412012527 -600.8999999999975
  endloop
endfacet
endsolid Main V1
