solid Main
facet normal 1.0 8.500411653791406e-15 1.0589383963172599e-14
  outer loop
    vertex 372.71372898457577 314.0436562209638 80.09326673973665
    vertex 372.71372898457633 250.1436562209636 83.09326673973653
    vertex 372.71372898457633 250.1436562209636 80.09326673973653
  endloop
endfacet
facet normal 1.0 8.500411653791406e-15 1.0589383963172599e-14
  outer loop
    vertex 372.71372898457633 250.1436562209636 83.09326673973653
    vertex 372.71372898457577 314.0436562209638 80.09326673973665
    vertex 372.7137289845761 258.25249432438073 91.45400780429705
  endloop
endfacet
facet normal 1.0 8.500411653791406e-15 1.0589383963172599e-14
  outer loop
    vertex 372.71372898457633 250.1436562209636 83.09326673973653
    vertex 372.7137289845761 258.25249432438073 91.45400780429705
    vertex 372.7137289845761 257.4686562209639 91.7786841774371
  endloop
endfacet
facet normal 1.0 8.500411653791406e-15 1.0589383963172599e-14
  outer loop
    vertex 372.71372898457633 250.1436562209636 83.09326673973653
    vertex 372.7137289845761 257.4686562209639 91.7786841774371
    vertex 372.71372898457616 256.79555918210764 92.29516970088025
  endloop
endfacet
facet normal 1.0 8.500411653791406e-15 1.0589383963172599e-14
  outer loop
    vertex 372.71372898457633 250.1436562209636 83.09326673973653
    vertex 372.71372898457616 256.79555918210764 92.29516970088025
    vertex 372.71372898457616 256.27907365866446 92.96826673973653
  endloop
endfacet
facet normal 1.0 8.500411653791406e-15 1.0589383963172599e-14
  outer loop
    vertex 372.71372898457633 250.1436562209636 83.09326673973653
    vertex 372.71372898457616 256.27907365866446 92.96826673973653
    vertex 372.71372898457616 255.95439728552444 93.75210484315335
  endloop
endfacet
facet normal 1.0 8.500411653791406e-15 1.0589383963172599e-14
  outer loop
    vertex 372.71372898457633 250.1436562209636 83.09326673973653
    vertex 372.71372898457616 255.95439728552444 93.75210484315335
    vertex 372.71372898457616 255.84365622096394 94.59326673973653
  endloop
endfacet
facet normal 1.0 8.500411653791406e-15 1.0589383963172599e-14
  outer loop
    vertex 372.7137289845761 258.25249432438073 91.45400780429705
    vertex 372.71372898457577 314.0436562209638 80.09326673973665
    vertex 372.7137289845761 259.0936562209639 91.34326673973652
  endloop
endfacet
facet normal 1.0 8.500411653791406e-15 1.0589383963172599e-14
  outer loop
    vertex 372.7137289845761 259.0936562209639 91.34326673973652
    vertex 372.71372898457577 314.0436562209638 80.09326673973665
    vertex 372.7137289845761 259.93481811754714 91.45400780429705
  endloop
endfacet
facet normal 1.0 8.500411653791406e-15 1.0589383963172599e-14
  outer loop
    vertex 372.7137289845761 259.93481811754714 91.45400780429705
    vertex 372.71372898457577 314.0436562209638 80.09326673973665
    vertex 372.71372898457605 260.7186562209639 91.7786841774371
  endloop
endfacet
facet normal 1.0 8.500411653791406e-15 1.0589383963172599e-14
  outer loop
    vertex 372.71372898457605 260.7186562209639 91.7786841774371
    vertex 372.71372898457577 314.0436562209638 80.09326673973665
    vertex 372.71372898457605 261.39175325982023 92.29516970088025
  endloop
endfacet
facet normal 1.0 8.500411653791406e-15 1.0589383963172599e-14
  outer loop
    vertex 372.71372898457605 261.39175325982023 92.29516970088025
    vertex 372.71372898457577 314.0436562209638 80.09326673973665
    vertex 372.71372898457605 261.90823878326336 92.96826673973653
  endloop
endfacet
facet normal 1.0 8.500411653791406e-15 1.0589383963172599e-14
  outer loop
    vertex 372.71372898457605 261.90823878326336 92.96826673973653
    vertex 372.71372898457577 314.0436562209638 80.09326673973665
    vertex 372.713728984576 262.2329151564034 93.75210484315335
  endloop
endfacet
facet normal 1.0 8.500411653791406e-15 1.0589383963172599e-14
  outer loop
    vertex 372.713728984576 262.2329151564034 93.75210484315335
    vertex 372.71372898457577 314.0436562209638 80.09326673973665
    vertex 372.713728984576 262.3436562209639 94.59326673973653
  endloop
endfacet
facet normal 1.0 8.500411653791406e-15 1.0589383963172599e-14
  outer loop
    vertex 372.713728984576 262.3436562209639 94.59326673973653
    vertex 372.71372898457577 314.0436562209638 80.09326673973665
    vertex 372.71372898457577 282.5436562209616 90.59326673973749
  endloop
endfacet
facet normal 1.0 8.500411653791406e-15 1.0589383963172599e-14
  outer loop
    vertex 372.713728984576 262.3436562209639 94.59326673973653
    vertex 372.71372898457577 282.5436562209616 90.59326673973749
    vertex 372.71372898457577 270.04365622096424 102.09326673973663
  endloop
endfacet
facet normal 1.0 8.500411653791406e-15 1.0589383963172599e-14
  outer loop
    vertex 372.71372898457577 270.04365622096424 102.09326673973663
    vertex 372.71372898457577 282.5436562209616 90.59326673973749
    vertex 372.71372898457577 271.04365622096424 102.09326673973663
  endloop
endfacet
facet normal 1.0 8.500411653791406e-15 1.0589383963172599e-14
  outer loop
    vertex 372.71372898457577 282.5436562209616 90.59326673973749
    vertex 372.71372898457577 314.0436562209638 80.09326673973665
    vertex 372.7137289845757 298.04365622096265 87.59326673973698
  endloop
endfacet
facet normal 1.0 8.500411653791406e-15 1.0589383963172599e-14
  outer loop
    vertex 372.71372898457577 282.5436562209616 90.59326673973749
    vertex 372.7137289845757 298.04365622096265 87.59326673973698
    vertex 372.71372898457577 293.0436562209641 90.59326673973729
  endloop
endfacet
facet normal 1.0 8.500411653791406e-15 1.0589383963172599e-14
  outer loop
    vertex 372.71372898457577 293.0436562209641 90.59326673973729
    vertex 372.7137289845757 298.04365622096265 87.59326673973698
    vertex 372.71372898457577 296.0436562209641 90.59326673973709
  endloop
endfacet
facet normal 1.0 8.500411653791406e-15 1.0589383963172599e-14
  outer loop
    vertex 372.7137289845757 298.04365622096265 87.59326673973698
    vertex 372.71372898457577 314.0436562209638 80.09326673973665
    vertex 372.7137289845757 309.0436562209638 87.59326673973675
  endloop
endfacet
facet normal 1.0 8.500411653791406e-15 1.0589383963172599e-14
  outer loop
    vertex 372.7137289845757 309.0436562209638 87.59326673973675
    vertex 372.71372898457577 314.0436562209638 80.09326673973665
    vertex 372.71372898457577 309.0436562209638 90.59326673973675
  endloop
endfacet
facet normal 1.0 8.500411653791406e-15 1.0589383963172599e-14
  outer loop
    vertex 372.71372898457577 309.0436562209638 90.59326673973675
    vertex 372.71372898457577 314.0436562209638 80.09326673973665
    vertex 372.71372898457577 311.0436562209638 90.59326673973663
  endloop
endfacet
facet normal 1.0 8.500411653791406e-15 1.0589383963172599e-14
  outer loop
    vertex 372.71372898457577 311.0436562209638 90.59326673973663
    vertex 372.71372898457577 314.0436562209638 80.09326673973665
    vertex 372.71372898457577 311.0436562209638 96.59326673973648
  endloop
endfacet
facet normal 1.0 8.500411653791406e-15 1.0589383963172599e-14
  outer loop
    vertex 372.71372898457577 311.0436562209638 96.59326673973648
    vertex 372.71372898457577 314.0436562209638 80.09326673973665
    vertex 372.71372898457577 314.0436562209638 96.59326673973645
  endloop
endfacet
facet normal 1.0 8.500411653791406e-15 1.0589383963172599e-14
  outer loop
    vertex 372.71372898457577 298.0436562209627 90.59326673973696
    vertex 372.71372898457577 296.0436562209641 90.59326673973709
    vertex 372.7137289845757 298.04365622096265 87.59326673973698
  endloop
endfacet
facet normal 1.0 8.500411653791406e-15 1.0589383963172599e-14
  outer loop
    vertex 372.71372898457577 293.0436562209641 90.59326673973729
    vertex 372.71372898457577 296.0436562209641 96.59326673973668
    vertex 372.71372898457577 293.043656220964 96.5932667397367
  endloop
endfacet
facet normal 1.0 8.500411653791406e-15 1.0589383963172599e-14
  outer loop
    vertex 372.71372898457577 296.0436562209641 96.59326673973668
    vertex 372.71372898457577 293.0436562209641 90.59326673973729
    vertex 372.71372898457577 296.0436562209641 90.59326673973709
  endloop
endfacet
facet normal 1.0 8.500411653791406e-15 1.0589383963172599e-14
  outer loop
    vertex 372.71372898457633 247.14365622096352 103.09326673973656
    vertex 372.7137289845761 257.4686562209639 97.40784930203596
    vertex 372.7137289845758 270.04365622096424 103.09326673973669
  endloop
endfacet
facet normal 1.0 8.500411653791406e-15 1.0589383963172599e-14
  outer loop
    vertex 372.7137289845761 257.4686562209639 97.40784930203596
    vertex 372.71372898457633 247.14365622096352 103.09326673973656
    vertex 372.7137289845761 256.79555918210764 96.89136377859282
  endloop
endfacet
facet normal 1.0 8.500411653791406e-15 1.0589383963172599e-14
  outer loop
    vertex 372.7137289845761 256.79555918210764 96.89136377859282
    vertex 372.71372898457633 247.14365622096352 103.09326673973656
    vertex 372.7137289845764 247.14365622096366 86.09326673973652
  endloop
endfacet
facet normal 1.0 8.500411653791406e-15 1.0589383963172599e-14
  outer loop
    vertex 372.7137289845761 256.79555918210764 96.89136377859282
    vertex 372.7137289845764 247.14365622096366 86.09326673973652
    vertex 372.7137289845761 256.27907365866446 96.21826673973653
  endloop
endfacet
facet normal 1.0 8.500411653791406e-15 1.0589383963172599e-14
  outer loop
    vertex 372.7137289845761 256.27907365866446 96.21826673973653
    vertex 372.7137289845764 247.14365622096366 86.09326673973652
    vertex 372.71372898457633 250.1436562209636 83.09326673973653
  endloop
endfacet
facet normal 1.0 8.500411653791406e-15 1.0589383963172599e-14
  outer loop
    vertex 372.7137289845761 256.27907365866446 96.21826673973653
    vertex 372.71372898457633 250.1436562209636 83.09326673973653
    vertex 372.71372898457616 255.95439728552444 95.43442863631972
  endloop
endfacet
facet normal 1.0 8.500411653791406e-15 1.0589383963172599e-14
  outer loop
    vertex 372.71372898457616 255.95439728552444 95.43442863631972
    vertex 372.71372898457633 250.1436562209636 83.09326673973653
    vertex 372.71372898457616 255.84365622096394 94.59326673973653
  endloop
endfacet
facet normal 1.0 8.500411653791406e-15 1.0589383963172599e-14
  outer loop
    vertex 372.7137289845758 270.04365622096424 103.09326673973669
    vertex 372.7137289845761 257.4686562209639 97.40784930203596
    vertex 372.7137289845761 258.25249432438073 97.732525675176
  endloop
endfacet
facet normal 1.0 8.500411653791406e-15 1.0589383963172599e-14
  outer loop
    vertex 372.7137289845758 270.04365622096424 103.09326673973669
    vertex 372.7137289845761 258.25249432438073 97.732525675176
    vertex 372.71372898457605 259.0936562209639 97.84326673973653
  endloop
endfacet
facet normal 1.0 8.500411653791406e-15 1.0589383963172599e-14
  outer loop
    vertex 372.7137289845758 270.04365622096424 103.09326673973669
    vertex 372.71372898457605 259.0936562209639 97.84326673973653
    vertex 372.71372898457605 259.93481811754714 97.732525675176
  endloop
endfacet
facet normal 1.0 8.500411653791406e-15 1.0589383963172599e-14
  outer loop
    vertex 372.7137289845758 270.04365622096424 103.09326673973669
    vertex 372.71372898457605 259.93481811754714 97.732525675176
    vertex 372.71372898457605 260.7186562209639 97.40784930203596
  endloop
endfacet
facet normal 1.0 8.500411653791406e-15 1.0589383963172599e-14
  outer loop
    vertex 372.7137289845758 270.04365622096424 103.09326673973669
    vertex 372.71372898457605 260.7186562209639 97.40784930203596
    vertex 372.713728984576 261.39175325982023 96.89136377859282
  endloop
endfacet
facet normal 1.0 8.500411653791406e-15 1.0589383963172599e-14
  outer loop
    vertex 372.7137289845758 270.04365622096424 103.09326673973669
    vertex 372.713728984576 261.39175325982023 96.89136377859282
    vertex 372.713728984576 261.90823878326336 96.21826673973653
  endloop
endfacet
facet normal 1.0 8.500411653791406e-15 1.0589383963172599e-14
  outer loop
    vertex 372.7137289845758 270.04365622096424 103.09326673973669
    vertex 372.713728984576 261.90823878326336 96.21826673973653
    vertex 372.713728984576 262.2329151564034 95.43442863631972
  endloop
endfacet
facet normal 1.0 8.500411653791406e-15 1.0589383963172599e-14
  outer loop
    vertex 372.7137289845758 270.04365622096424 103.09326673973669
    vertex 372.713728984576 262.2329151564034 95.43442863631972
    vertex 372.713728984576 262.3436562209639 94.59326673973653
  endloop
endfacet
facet normal 1.0 8.500411653791406e-15 1.0589383963172599e-14
  outer loop
    vertex 372.7137289845758 270.04365622096424 103.09326673973669
    vertex 372.713728984576 262.3436562209639 94.59326673973653
    vertex 372.71372898457577 270.04365622096424 102.09326673973663
  endloop
endfacet
facet normal -1.4630003600555118e-14 0.7071067811866016 0.7071067811864935
  outer loop
    vertex 369.71372898457577 271.0436562209642 102.09326673973658
    vertex 372.71372898457577 282.5436562209616 90.59326673973749
    vertex 369.71372898457577 282.54365622096157 90.59326673973746
  endloop
endfacet
facet normal -1.4630003600555118e-14 0.7071067811866016 0.7071067811864935
  outer loop
    vertex 372.71372898457577 282.5436562209616 90.59326673973749
    vertex 369.71372898457577 271.0436562209642 102.09326673973658
    vertex 372.71372898457577 271.04365622096424 102.09326673973663
  endloop
endfacet
facet normal -4.511946372076608e-15 -7.519910620127741e-15 1.0
  outer loop
    vertex 369.71372898457577 309.0436562209637 86.09326673973659
    vertex 354.71372898457577 311.0436562209637 86.09326673973655
    vertex 354.71372898457577 309.0436562209637 86.09326673973655
  endloop
endfacet
facet normal -4.511946372076608e-15 -7.519910620127741e-15 1.0
  outer loop
    vertex 354.71372898457577 311.0436562209637 86.09326673973655
    vertex 369.71372898457577 309.0436562209637 86.09326673973659
    vertex 369.71372898457577 311.0436562209638 86.09326673973663
  endloop
endfacet
facet normal 3.4707279785204897e-15 -1.0 1.0195142259858766e-30
  outer loop
    vertex 369.71372898457577 311.0436562209638 86.09326673973663
    vertex 354.71372898457577 311.0436562209637 87.59326673973655
    vertex 354.71372898457577 311.0436562209637 86.09326673973655
  endloop
endfacet
facet normal 3.4707279785204897e-15 -1.0 1.0195142259858766e-30
  outer loop
    vertex 354.71372898457577 311.0436562209637 87.59326673973655
    vertex 369.71372898457577 311.0436562209638 86.09326673973663
    vertex 369.71372898457577 311.0436562209638 87.59326673973665
  endloop
endfacet
facet normal 1.4630003600555234e-14 -0.7071067811865516 -0.7071067811865436
  outer loop
    vertex 372.71372898457633 250.1436562209636 83.09326673973653
    vertex 369.7137289845764 247.14365622096363 86.09326673973649
    vertex 369.71372898457633 250.14365622096358 83.0932667397365
  endloop
endfacet
facet normal 1.4630003600555234e-14 -0.7071067811865516 -0.7071067811865436
  outer loop
    vertex 369.7137289845764 247.14365622096363 86.09326673973649
    vertex 372.71372898457633 250.1436562209636 83.09326673973653
    vertex 372.7137289845764 247.14365622096366 86.09326673973652
  endloop
endfacet
facet normal 9.149009145272583e-15 -1.0 -7.86967390478479e-15
  outer loop
    vertex 372.7137289845764 247.14365622096366 86.09326673973652
    vertex 369.7137289845764 247.1436562209635 103.09326673973652
    vertex 369.7137289845764 247.14365622096363 86.09326673973649
  endloop
endfacet
facet normal 9.149009145272583e-15 -1.0 -7.86967390478479e-15
  outer loop
    vertex 369.7137289845764 247.1436562209635 103.09326673973652
    vertex 372.7137289845764 247.14365622096366 86.09326673973652
    vertex 372.71372898457633 247.14365622096352 103.09326673973656
  endloop
endfacet
facet normal -1.1540940364199894e-14 -5.91084677564634e-15 1.0
  outer loop
    vertex 369.7137289845764 247.1436562209635 103.09326673973652
    vertex 372.7137289845758 270.04365622096424 103.09326673973669
    vertex 369.7137289845758 270.0436562209642 103.09326673973665
  endloop
endfacet
facet normal -1.1540940364199894e-14 -5.91084677564634e-15 1.0
  outer loop
    vertex 372.7137289845758 270.04365622096424 103.09326673973669
    vertex 369.7137289845764 247.1436562209635 103.09326673973652
    vertex 372.71372898457633 247.14365622096352 103.09326673973656
  endloop
endfacet
facet normal -9.149009145272492e-15 1.0 3.439986551758827e-28
  outer loop
    vertex 369.7137289845758 270.0436562209642 103.09326673973665
    vertex 372.71372898457577 270.04365622096424 102.09326673973663
    vertex 369.71372898457577 270.0436562209642 102.09326673973658
  endloop
endfacet
facet normal -9.149009145272492e-15 1.0 3.439986551758827e-28
  outer loop
    vertex 372.71372898457577 270.04365622096424 102.09326673973663
    vertex 369.7137289845758 270.0436562209642 103.09326673973665
    vertex 372.7137289845758 270.04365622096424 103.09326673973669
  endloop
endfacet
facet normal -1.1540940364199948e-14 0.0 1.0
  outer loop
    vertex 372.71372898457577 270.04365622096424 102.09326673973663
    vertex 369.71372898457577 271.0436562209642 102.09326673973658
    vertex 369.71372898457577 270.0436562209642 102.09326673973658
  endloop
endfacet
facet normal -1.1540940364199948e-14 0.0 1.0
  outer loop
    vertex 369.71372898457577 271.0436562209642 102.09326673973658
    vertex 372.71372898457577 270.04365622096424 102.09326673973663
    vertex 372.71372898457577 271.04365622096424 102.09326673973663
  endloop
endfacet
facet normal 3.586479706750297e-15 0.6087614290087062 -0.7933533402912464
  outer loop
    vertex 372.7137289845761 257.4686562209639 97.40784930203596
    vertex 369.71372898457616 256.7955591821076 96.89136377859278
    vertex 369.71372898457616 257.4686562209639 97.40784930203593
  endloop
endfacet
facet normal 3.586479706750297e-15 0.6087614290087062 -0.7933533402912464
  outer loop
    vertex 369.71372898457616 256.7955591821076 96.89136377859278
    vertex 372.7137289845761 257.4686562209639 97.40784930203596
    vertex 372.7137289845761 256.79555918210764 96.89136377859282
  endloop
endfacet
facet normal -2.3271761754223453e-16 0.7933533402912364 -0.6087614290087191
  outer loop
    vertex 369.71372898457616 256.7955591821076 96.89136377859278
    vertex 372.7137289845761 256.27907365866446 96.21826673973653
    vertex 369.71372898457616 256.27907365866446 96.2182667397365
  endloop
endfacet
facet normal -2.3271761754223453e-16 0.7933533402912364 -0.6087614290087191
  outer loop
    vertex 372.7137289845761 256.27907365866446 96.21826673973653
    vertex 369.71372898457616 256.7955591821076 96.89136377859278
    vertex 372.7137289845761 256.79555918210764 96.89136377859282
  endloop
endfacet
facet normal -4.036055620783054e-15 0.9238795325112884 -0.3826834323650857
  outer loop
    vertex 369.71372898457616 256.27907365866446 96.2182667397365
    vertex 372.71372898457616 255.95439728552444 95.43442863631972
    vertex 369.71372898457616 255.9543972855244 95.4344286363197
  endloop
endfacet
facet normal -4.036055620783054e-15 0.9238795325112884 -0.3826834323650857
  outer loop
    vertex 372.71372898457616 255.95439728552444 95.43442863631972
    vertex 369.71372898457616 256.27907365866446 96.2182667397365
    vertex 372.7137289845761 256.27907365866446 96.21826673973653
  endloop
endfacet
facet normal -7.564343103365169e-15 0.9914448613738154 -0.13052619222001446
  outer loop
    vertex 369.71372898457616 255.9543972855244 95.4344286363197
    vertex 372.71372898457616 255.84365622096394 94.59326673973653
    vertex 369.71372898457616 255.8436562209639 94.59326673973649
  endloop
endfacet
facet normal -7.564343103365169e-15 0.9914448613738154 -0.13052619222001446
  outer loop
    vertex 372.71372898457616 255.84365622096394 94.59326673973653
    vertex 369.71372898457616 255.9543972855244 95.4344286363197
    vertex 372.71372898457616 255.95439728552444 95.43442863631972
  endloop
endfacet
facet normal -1.057713310411974e-14 0.9914448613738154 0.13052619222001446
  outer loop
    vertex 369.71372898457616 255.8436562209639 94.59326673973649
    vertex 372.71372898457616 255.95439728552444 93.75210484315335
    vertex 369.71372898457616 255.9543972855244 93.7521048431533
  endloop
endfacet
facet normal -1.057713310411974e-14 0.9914448613738154 0.13052619222001446
  outer loop
    vertex 372.71372898457616 255.95439728552444 93.75210484315335
    vertex 369.71372898457616 255.8436562209639 94.59326673973649
    vertex 372.71372898457616 255.84365622096394 94.59326673973653
  endloop
endfacet
facet normal -1.286910896336865e-14 0.9238795325112884 0.3826834323650857
  outer loop
    vertex 369.71372898457616 255.9543972855244 93.7521048431533
    vertex 372.71372898457616 256.27907365866446 92.96826673973653
    vertex 369.71372898457616 256.27907365866446 92.96826673973649
  endloop
endfacet
facet normal -1.286910896336865e-14 0.9238795325112884 0.3826834323650857
  outer loop
    vertex 372.71372898457616 256.27907365866446 92.96826673973653
    vertex 369.71372898457616 255.9543972855244 93.7521048431533
    vertex 372.71372898457616 255.95439728552444 93.75210484315335
  endloop
endfacet
facet normal -1.4284076313971766e-14 0.7933533402912364 0.6087614290087191
  outer loop
    vertex 369.71372898457616 256.27907365866446 92.96826673973649
    vertex 372.71372898457616 256.79555918210764 92.29516970088025
    vertex 369.71372898457616 256.7955591821076 92.29516970088021
  endloop
endfacet
facet normal -1.4284076313971766e-14 0.7933533402912364 0.6087614290087191
  outer loop
    vertex 372.71372898457616 256.79555918210764 92.29516970088025
    vertex 369.71372898457616 256.27907365866446 92.96826673973649
    vertex 372.71372898457616 256.27907365866446 92.96826673973653
  endloop
endfacet
facet normal -1.4725607469329905e-14 0.6087614290087062 0.7933533402912464
  outer loop
    vertex 369.71372898457616 256.7955591821076 92.29516970088021
    vertex 372.7137289845761 257.4686562209639 91.7786841774371
    vertex 369.71372898457616 257.4686562209639 91.77868417743707
  endloop
endfacet
facet normal -1.4725607469329905e-14 0.6087614290087062 0.7933533402912464
  outer loop
    vertex 372.7137289845761 257.4686562209639 91.7786841774371
    vertex 369.71372898457616 256.7955591821076 92.29516970088021
    vertex 372.71372898457616 256.79555918210764 92.29516970088025
  endloop
endfacet
facet normal -1.4163612810870165e-14 0.3826834323650905 0.9238795325112866
  outer loop
    vertex 372.7137289845761 257.4686562209639 91.7786841774371
    vertex 369.71372898457616 258.2524943243807 91.45400780429702
    vertex 369.71372898457616 257.4686562209639 91.77868417743707
  endloop
endfacet
facet normal -1.4163612810870165e-14 0.3826834323650905 0.9238795325112866
  outer loop
    vertex 369.71372898457616 258.2524943243807 91.45400780429702
    vertex 372.7137289845761 257.4686562209639 91.7786841774371
    vertex 372.7137289845761 258.25249432438073 91.45400780429705
  endloop
endfacet
facet normal -1.2636391345826493e-14 0.13052619222005366 0.9914448613738102
  outer loop
    vertex 372.7137289845761 258.25249432438073 91.45400780429705
    vertex 369.71372898457616 259.0936562209639 91.34326673973649
    vertex 369.71372898457616 258.2524943243807 91.45400780429702
  endloop
endfacet
facet normal -1.2636391345826493e-14 0.13052619222005366 0.9914448613738102
  outer loop
    vertex 369.71372898457616 259.0936562209639 91.34326673973649
    vertex 372.7137289845761 258.25249432438073 91.45400780429705
    vertex 372.7137289845761 259.0936562209639 91.34326673973652
  endloop
endfacet
facet normal -1.024802069318876e-14 -0.13052619222005366 0.9914448613738102
  outer loop
    vertex 369.71372898457616 259.0936562209639 91.34326673973649
    vertex 372.7137289845761 259.93481811754714 91.45400780429705
    vertex 369.7137289845761 259.9348181175471 91.45400780429702
  endloop
endfacet
facet normal -1.024802069318876e-14 -0.13052619222005366 0.9914448613738102
  outer loop
    vertex 372.7137289845761 259.93481811754714 91.45400780429705
    vertex 369.71372898457616 259.0936562209639 91.34326673973649
    vertex 372.7137289845761 259.0936562209639 91.34326673973652
  endloop
endfacet
facet normal -7.161264365965206e-15 -0.3826834323650905 0.9238795325112866
  outer loop
    vertex 369.7137289845761 259.9348181175471 91.45400780429702
    vertex 372.71372898457605 260.7186562209639 91.7786841774371
    vertex 369.71372898457605 260.71865622096385 91.77868417743707
  endloop
endfacet
facet normal -7.161264365965206e-15 -0.3826834323650905 0.9238795325112866
  outer loop
    vertex 372.71372898457605 260.7186562209639 91.7786841774371
    vertex 369.7137289845761 259.9348181175471 91.45400780429702
    vertex 372.7137289845761 259.93481811754714 91.45400780429705
  endloop
endfacet
facet normal -3.586479706750297e-15 -0.6087614290087062 0.7933533402912464
  outer loop
    vertex 372.71372898457605 260.7186562209639 91.7786841774371
    vertex 369.71372898457605 261.3917532598202 92.29516970088021
    vertex 369.71372898457605 260.71865622096385 91.77868417743707
  endloop
endfacet
facet normal -3.586479706750297e-15 -0.6087614290087062 0.7933533402912464
  outer loop
    vertex 369.71372898457605 261.3917532598202 92.29516970088021
    vertex 372.71372898457605 260.7186562209639 91.7786841774371
    vertex 372.71372898457605 261.39175325982023 92.29516970088025
  endloop
endfacet
facet normal 2.3271761754223453e-16 -0.7933533402912364 0.6087614290087191
  outer loop
    vertex 372.71372898457605 261.39175325982023 92.29516970088025
    vertex 369.71372898457605 261.9082387832633 92.96826673973649
    vertex 369.71372898457605 261.3917532598202 92.29516970088021
  endloop
endfacet
facet normal 2.3271761754223453e-16 -0.7933533402912364 0.6087614290087191
  outer loop
    vertex 369.71372898457605 261.9082387832633 92.96826673973649
    vertex 372.71372898457605 261.39175325982023 92.29516970088025
    vertex 372.71372898457605 261.90823878326336 92.96826673973653
  endloop
endfacet
facet normal 4.036055620783054e-15 -0.9238795325112884 0.3826834323650857
  outer loop
    vertex 372.71372898457605 261.90823878326336 92.96826673973653
    vertex 369.713728984576 262.23291515640335 93.7521048431533
    vertex 369.71372898457605 261.9082387832633 92.96826673973649
  endloop
endfacet
facet normal 4.036055620783054e-15 -0.9238795325112884 0.3826834323650857
  outer loop
    vertex 369.713728984576 262.23291515640335 93.7521048431533
    vertex 372.71372898457605 261.90823878326336 92.96826673973653
    vertex 372.713728984576 262.2329151564034 93.75210484315335
  endloop
endfacet
facet normal 7.564343103365169e-15 -0.9914448613738154 0.13052619222001446
  outer loop
    vertex 372.713728984576 262.2329151564034 93.75210484315335
    vertex 369.713728984576 262.34365622096385 94.59326673973649
    vertex 369.713728984576 262.23291515640335 93.7521048431533
  endloop
endfacet
facet normal 7.564343103365169e-15 -0.9914448613738154 0.13052619222001446
  outer loop
    vertex 369.713728984576 262.34365622096385 94.59326673973649
    vertex 372.713728984576 262.2329151564034 93.75210484315335
    vertex 372.713728984576 262.3436562209639 94.59326673973653
  endloop
endfacet
facet normal 1.057713310411974e-14 -0.9914448613738154 -0.13052619222001446
  outer loop
    vertex 372.713728984576 262.3436562209639 94.59326673973653
    vertex 369.713728984576 262.23291515640335 95.4344286363197
    vertex 369.713728984576 262.34365622096385 94.59326673973649
  endloop
endfacet
facet normal 1.057713310411974e-14 -0.9914448613738154 -0.13052619222001446
  outer loop
    vertex 369.713728984576 262.23291515640335 95.4344286363197
    vertex 372.713728984576 262.3436562209639 94.59326673973653
    vertex 372.713728984576 262.2329151564034 95.43442863631972
  endloop
endfacet
facet normal 1.286910896336865e-14 -0.9238795325112884 -0.3826834323650857
  outer loop
    vertex 372.713728984576 262.2329151564034 95.43442863631972
    vertex 369.713728984576 261.9082387832633 96.2182667397365
    vertex 369.713728984576 262.23291515640335 95.4344286363197
  endloop
endfacet
facet normal 1.286910896336865e-14 -0.9238795325112884 -0.3826834323650857
  outer loop
    vertex 369.713728984576 261.9082387832633 96.2182667397365
    vertex 372.713728984576 262.2329151564034 95.43442863631972
    vertex 372.713728984576 261.90823878326336 96.21826673973653
  endloop
endfacet
facet normal 1.4284076313971766e-14 -0.7933533402912364 -0.6087614290087191
  outer loop
    vertex 372.713728984576 261.90823878326336 96.21826673973653
    vertex 369.713728984576 261.3917532598202 96.89136377859278
    vertex 369.713728984576 261.9082387832633 96.2182667397365
  endloop
endfacet
facet normal 1.4284076313971766e-14 -0.7933533402912364 -0.6087614290087191
  outer loop
    vertex 369.713728984576 261.3917532598202 96.89136377859278
    vertex 372.713728984576 261.90823878326336 96.21826673973653
    vertex 372.713728984576 261.39175325982023 96.89136377859282
  endloop
endfacet
facet normal 1.4725607469329905e-14 -0.6087614290087062 -0.7933533402912464
  outer loop
    vertex 372.713728984576 261.39175325982023 96.89136377859282
    vertex 369.71372898457605 260.71865622096385 97.40784930203593
    vertex 369.713728984576 261.3917532598202 96.89136377859278
  endloop
endfacet
facet normal 1.4725607469329905e-14 -0.6087614290087062 -0.7933533402912464
  outer loop
    vertex 369.71372898457605 260.71865622096385 97.40784930203593
    vertex 372.713728984576 261.39175325982023 96.89136377859282
    vertex 372.71372898457605 260.7186562209639 97.40784930203596
  endloop
endfacet
facet normal 1.4163612810870165e-14 -0.3826834323650905 -0.9238795325112866
  outer loop
    vertex 372.71372898457605 260.7186562209639 97.40784930203596
    vertex 369.71372898457605 259.9348181175471 97.73252567517598
    vertex 369.71372898457605 260.71865622096385 97.40784930203593
  endloop
endfacet
facet normal 1.4163612810870165e-14 -0.3826834323650905 -0.9238795325112866
  outer loop
    vertex 369.71372898457605 259.9348181175471 97.73252567517598
    vertex 372.71372898457605 260.7186562209639 97.40784930203596
    vertex 372.71372898457605 259.93481811754714 97.732525675176
  endloop
endfacet
facet normal 1.2636391345826493e-14 -0.13052619222005366 -0.9914448613738102
  outer loop
    vertex 372.71372898457605 259.93481811754714 97.732525675176
    vertex 369.71372898457605 259.0936562209639 97.8432667397365
    vertex 369.71372898457605 259.9348181175471 97.73252567517598
  endloop
endfacet
facet normal 1.2636391345826493e-14 -0.13052619222005366 -0.9914448613738102
  outer loop
    vertex 369.71372898457605 259.0936562209639 97.8432667397365
    vertex 372.71372898457605 259.93481811754714 97.732525675176
    vertex 372.71372898457605 259.0936562209639 97.84326673973653
  endloop
endfacet
facet normal 1.024802069318876e-14 0.13052619222005366 -0.9914448613738102
  outer loop
    vertex 372.71372898457605 259.0936562209639 97.84326673973653
    vertex 369.7137289845761 258.2524943243807 97.73252567517598
    vertex 369.71372898457605 259.0936562209639 97.8432667397365
  endloop
endfacet
facet normal 1.024802069318876e-14 0.13052619222005366 -0.9914448613738102
  outer loop
    vertex 369.7137289845761 258.2524943243807 97.73252567517598
    vertex 372.71372898457605 259.0936562209639 97.84326673973653
    vertex 372.7137289845761 258.25249432438073 97.732525675176
  endloop
endfacet
facet normal 7.161264365965206e-15 0.3826834323650905 -0.9238795325112866
  outer loop
    vertex 372.7137289845761 258.25249432438073 97.732525675176
    vertex 369.71372898457616 257.4686562209639 97.40784930203593
    vertex 369.7137289845761 258.2524943243807 97.73252567517598
  endloop
endfacet
facet normal 7.161264365965206e-15 0.3826834323650905 -0.9238795325112866
  outer loop
    vertex 369.71372898457616 257.4686562209639 97.40784930203593
    vertex 372.7137289845761 258.25249432438073 97.732525675176
    vertex 372.7137289845761 257.4686562209639 97.40784930203596
  endloop
endfacet
facet normal -3.4707279785204897e-15 1.0 -1.0195142259843427e-30
  outer loop
    vertex 354.71372898457577 296.04365622096367 87.59326673973655
    vertex 369.71372898457577 296.0436562209638 86.09326673973663
    vertex 354.71372898457577 296.04365622096367 86.09326673973655
  endloop
endfacet
facet normal -3.4707279785204897e-15 1.0 -1.0195142259843427e-30
  outer loop
    vertex 369.71372898457577 296.0436562209638 86.09326673973663
    vertex 354.71372898457577 296.04365622096367 87.59326673973655
    vertex 369.71372898457577 296.0436562209638 87.59326673973665
  endloop
endfacet
facet normal 5.639932965095796e-15 -2.5596179036174e-30 -1.0
  outer loop
    vertex 369.71372898457577 298.0436562209638 87.59326673973665
    vertex 354.71372898457577 296.04365622096367 87.59326673973655
    vertex 354.71372898457577 298.04365622096367 87.59326673973655
  endloop
endfacet
facet normal 5.639932965095796e-15 -2.5596179036174e-30 -1.0
  outer loop
    vertex 354.71372898457577 296.04365622096367 87.59326673973655
    vertex 369.71372898457577 298.0436562209638 87.59326673973665
    vertex 369.71372898457577 296.0436562209638 87.59326673973665
  endloop
endfacet
facet normal 5.639932965095804e-15 -1.2880096693638395e-28 -1.0
  outer loop
    vertex 369.71372898457577 311.0436562209638 87.59326673973665
    vertex 354.71372898457577 309.0436562209637 87.59326673973655
    vertex 354.71372898457577 311.0436562209637 87.59326673973655
  endloop
endfacet
facet normal 5.639932965095804e-15 -1.2880096693638395e-28 -1.0
  outer loop
    vertex 354.71372898457577 309.0436562209637 87.59326673973655
    vertex 369.71372898457577 311.0436562209638 87.59326673973665
    vertex 369.7137289845757 309.0436562209638 87.59326673973665
  endloop
endfacet
facet normal -1.0 -1.785226072795279e-15 -1.503982124025537e-14
  outer loop
    vertex 369.7137289845757 309.0436562209638 87.59326673973665
    vertex 369.71372898457577 309.0436562209637 86.09326673973659
    vertex 369.71372898457577 298.0436562209638 87.59326673973665
  endloop
endfacet
facet normal -1.0 -1.785226072795279e-15 -1.503982124025537e-14
  outer loop
    vertex 369.71372898457577 309.0436562209637 86.09326673973659
    vertex 369.7137289845757 309.0436562209638 87.59326673973665
    vertex 369.71372898457577 311.0436562209638 86.09326673973663
  endloop
endfacet
facet normal -1.0 -1.785226072795279e-15 -1.503982124025537e-14
  outer loop
    vertex 369.71372898457577 311.0436562209638 86.09326673973663
    vertex 369.7137289845757 309.0436562209638 87.59326673973665
    vertex 369.71372898457577 311.0436562209638 87.59326673973665
  endloop
endfacet
facet normal -1.0 -1.785226072795279e-15 -1.503982124025537e-14
  outer loop
    vertex 369.71372898457577 298.0436562209638 87.59326673973665
    vertex 369.71372898457577 296.0436562209638 86.09326673973663
    vertex 369.71372898457577 296.0436562209638 87.59326673973665
  endloop
endfacet
facet normal -1.0 -1.785226072795279e-15 -1.503982124025537e-14
  outer loop
    vertex 369.71372898457577 296.0436562209638 86.09326673973663
    vertex 369.71372898457577 298.0436562209638 87.59326673973665
    vertex 369.71372898457577 298.04365622096367 86.09326673973659
  endloop
endfacet
facet normal -1.0 -1.785226072795279e-15 -1.503982124025537e-14
  outer loop
    vertex 369.71372898457577 298.04365622096367 86.09326673973659
    vertex 369.71372898457577 298.0436562209638 87.59326673973665
    vertex 369.71372898457577 298.04365622096367 83.09326673973659
  endloop
endfacet
facet normal -1.0 -1.785226072795279e-15 -1.503982124025537e-14
  outer loop
    vertex 369.71372898457577 298.04365622096367 83.09326673973659
    vertex 369.71372898457577 298.0436562209638 87.59326673973665
    vertex 369.71372898457577 309.0436562209637 83.09326673973659
  endloop
endfacet
facet normal -1.0 -1.785226072795279e-15 -1.503982124025537e-14
  outer loop
    vertex 369.71372898457577 309.0436562209637 83.09326673973659
    vertex 369.71372898457577 298.0436562209638 87.59326673973665
    vertex 369.71372898457577 309.0436562209637 86.09326673973659
  endloop
endfacet
facet normal -7.143915089121195e-14 1.0742729457325016e-14 1.0
  outer loop
    vertex 369.71372898457577 298.0436562209638 87.59326673973665
    vertex 372.7137289845757 309.0436562209638 87.59326673973675
    vertex 369.7137289845757 309.0436562209638 87.59326673973665
  endloop
endfacet
facet normal -7.143915089121195e-14 1.0742729457325016e-14 1.0
  outer loop
    vertex 372.7137289845757 309.0436562209638 87.59326673973675
    vertex 369.71372898457577 298.0436562209638 87.59326673973665
    vertex 372.7137289845757 298.04365622096265 87.59326673973698
  endloop
endfacet
facet normal 2.7793116577666972e-15 -1.0 5.013273746751636e-15
  outer loop
    vertex 369.7137289845757 309.0436562209638 87.59326673973665
    vertex 354.71372898457577 309.0436562209637 90.59326673973653
    vertex 354.71372898457577 309.0436562209637 87.59326673973655
  endloop
endfacet
facet normal 2.7793116577666972e-15 -1.0 5.013273746751636e-15
  outer loop
    vertex 354.71372898457577 309.0436562209637 90.59326673973653
    vertex 369.7137289845757 309.0436562209638 87.59326673973665
    vertex 372.7137289845757 309.0436562209638 87.59326673973675
  endloop
endfacet
facet normal 2.7793116577666972e-15 -1.0 5.013273746751636e-15
  outer loop
    vertex 354.71372898457577 309.0436562209637 90.59326673973653
    vertex 372.7137289845757 309.0436562209638 87.59326673973675
    vertex 372.71372898457577 309.0436562209638 90.59326673973675
  endloop
endfacet
facet normal 1.992825592909341e-14 1.0 -5.013273746744055e-15
  outer loop
    vertex 354.71372898457577 298.04365622096367 90.59326673973696
    vertex 369.71372898457577 298.0436562209638 87.59326673973665
    vertex 354.71372898457577 298.04365622096367 87.59326673973655
  endloop
endfacet
facet normal 1.992825592909341e-14 1.0 -5.013273746744055e-15
  outer loop
    vertex 369.71372898457577 298.0436562209638 87.59326673973665
    vertex 354.71372898457577 298.04365622096367 90.59326673973696
    vertex 372.7137289845757 298.04365622096265 87.59326673973698
  endloop
endfacet
facet normal 1.992825592909341e-14 1.0 -5.013273746744055e-15
  outer loop
    vertex 372.7137289845757 298.04365622096265 87.59326673973698
    vertex 354.71372898457577 298.04365622096367 90.59326673973696
    vertex 372.71372898457577 298.0436562209627 90.59326673973696
  endloop
endfacet
facet normal -2.2559731860384745e-14 2.255973186037813e-14 1.0
  outer loop
    vertex 372.71372898457577 282.5436562209616 90.59326673973749
    vertex 369.71372898457577 293.0436562209637 90.59326673973717
    vertex 369.71372898457577 282.54365622096157 90.59326673973746
  endloop
endfacet
facet normal -2.2559731860384745e-14 2.255973186037813e-14 1.0
  outer loop
    vertex 369.71372898457577 293.0436562209637 90.59326673973717
    vertex 372.71372898457577 282.5436562209616 90.59326673973749
    vertex 372.71372898457577 293.0436562209641 90.59326673973729
  endloop
endfacet
facet normal -1.7503240236494057e-15 5.921929613353197e-14 1.0
  outer loop
    vertex 372.71372898457577 296.0436562209641 90.59326673973709
    vertex 354.71372898457577 298.04365622096367 90.59326673973696
    vertex 354.71372898457577 296.0436562209641 90.59326673973707
  endloop
endfacet
facet normal -1.7503240236494057e-15 5.921929613353197e-14 1.0
  outer loop
    vertex 354.71372898457577 298.04365622096367 90.59326673973696
    vertex 372.71372898457577 296.0436562209641 90.59326673973709
    vertex 372.71372898457577 298.0436562209627 90.59326673973696
  endloop
endfacet
facet normal 6.320614529848675e-15 -1.3159843585223273e-14 1.0
  outer loop
    vertex 361.1137289845756 293.0436562209639 96.5932667397367
    vertex 372.71372898457577 296.0436562209641 96.59326673973668
    vertex 361.1137289845755 296.0436562209641 96.59326673973682
  endloop
endfacet
facet normal 6.320614529848675e-15 -1.3159843585223273e-14 1.0
  outer loop
    vertex 372.71372898457577 296.0436562209641 96.59326673973668
    vertex 361.1137289845756 293.0436562209639 96.5932667397367
    vertex 372.71372898457577 293.043656220964 96.5932667397367
  endloop
endfacet
facet normal -1.0 -1.3384189848559723e-14 -1.419733959871103e-14
  outer loop
    vertex 369.7137289845764 247.1436562209635 103.09326673973652
    vertex 369.71372898457616 256.7955591821076 96.89136377859278
    vertex 369.7137289845764 247.14365622096363 86.09326673973649
  endloop
endfacet
facet normal -1.0 -1.3384189848559723e-14 -1.419733959871103e-14
  outer loop
    vertex 369.71372898457616 256.7955591821076 96.89136377859278
    vertex 369.7137289845764 247.1436562209635 103.09326673973652
    vertex 369.71372898457616 257.4686562209639 97.40784930203593
  endloop
endfacet
facet normal -1.0 -1.3384189848559723e-14 -1.419733959871103e-14
  outer loop
    vertex 369.71372898457616 257.4686562209639 97.40784930203593
    vertex 369.7137289845764 247.1436562209635 103.09326673973652
    vertex 369.7137289845758 270.0436562209642 103.09326673973665
  endloop
endfacet
facet normal -1.0 -1.3384189848559723e-14 -1.419733959871103e-14
  outer loop
    vertex 369.7137289845764 247.14365622096363 86.09326673973649
    vertex 369.71372898457616 256.7955591821076 96.89136377859278
    vertex 369.71372898457616 256.27907365866446 96.2182667397365
  endloop
endfacet
facet normal -1.0 -1.3384189848559723e-14 -1.419733959871103e-14
  outer loop
    vertex 369.7137289845764 247.14365622096363 86.09326673973649
    vertex 369.71372898457616 256.27907365866446 96.2182667397365
    vertex 369.71372898457633 250.14365622096358 83.0932667397365
  endloop
endfacet
facet normal -1.0 -1.3384189848559723e-14 -1.419733959871103e-14
  outer loop
    vertex 369.71372898457633 250.14365622096358 83.0932667397365
    vertex 369.71372898457616 256.27907365866446 96.2182667397365
    vertex 369.71372898457616 255.9543972855244 95.4344286363197
  endloop
endfacet
facet normal -1.0 -1.3384189848559723e-14 -1.419733959871103e-14
  outer loop
    vertex 369.71372898457633 250.14365622096358 83.0932667397365
    vertex 369.71372898457616 255.9543972855244 95.4344286363197
    vertex 369.71372898457633 250.14365622096358 80.0932667397365
  endloop
endfacet
facet normal -1.0 -1.3384189848559723e-14 -1.419733959871103e-14
  outer loop
    vertex 369.71372898457633 250.14365622096358 80.0932667397365
    vertex 369.71372898457616 255.9543972855244 95.4344286363197
    vertex 369.71372898457616 255.8436562209639 94.59326673973649
  endloop
endfacet
facet normal -1.0 -1.3384189848559723e-14 -1.419733959871103e-14
  outer loop
    vertex 369.71372898457616 257.4686562209639 97.40784930203593
    vertex 369.7137289845758 270.0436562209642 103.09326673973665
    vertex 369.7137289845761 258.2524943243807 97.73252567517598
  endloop
endfacet
facet normal -1.0 -1.3384189848559723e-14 -1.419733959871103e-14
  outer loop
    vertex 369.7137289845761 258.2524943243807 97.73252567517598
    vertex 369.7137289845758 270.0436562209642 103.09326673973665
    vertex 369.71372898457605 259.0936562209639 97.8432667397365
  endloop
endfacet
facet normal -1.0 -1.3384189848559723e-14 -1.419733959871103e-14
  outer loop
    vertex 369.71372898457605 259.0936562209639 97.8432667397365
    vertex 369.7137289845758 270.0436562209642 103.09326673973665
    vertex 369.71372898457605 259.9348181175471 97.73252567517598
  endloop
endfacet
facet normal -1.0 -1.3384189848559723e-14 -1.419733959871103e-14
  outer loop
    vertex 369.71372898457605 259.9348181175471 97.73252567517598
    vertex 369.7137289845758 270.0436562209642 103.09326673973665
    vertex 369.71372898457605 260.71865622096385 97.40784930203593
  endloop
endfacet
facet normal -1.0 -1.3384189848559723e-14 -1.419733959871103e-14
  outer loop
    vertex 369.71372898457605 260.71865622096385 97.40784930203593
    vertex 369.7137289845758 270.0436562209642 103.09326673973665
    vertex 369.713728984576 261.3917532598202 96.89136377859278
  endloop
endfacet
facet normal -1.0 -1.3384189848559723e-14 -1.419733959871103e-14
  outer loop
    vertex 369.713728984576 261.3917532598202 96.89136377859278
    vertex 369.7137289845758 270.0436562209642 103.09326673973665
    vertex 369.713728984576 261.9082387832633 96.2182667397365
  endloop
endfacet
facet normal -1.0 -1.3384189848559723e-14 -1.419733959871103e-14
  outer loop
    vertex 369.713728984576 261.9082387832633 96.2182667397365
    vertex 369.7137289845758 270.0436562209642 103.09326673973665
    vertex 369.713728984576 262.23291515640335 95.4344286363197
  endloop
endfacet
facet normal -1.0 -1.3384189848559723e-14 -1.419733959871103e-14
  outer loop
    vertex 369.713728984576 262.23291515640335 95.4344286363197
    vertex 369.7137289845758 270.0436562209642 103.09326673973665
    vertex 369.713728984576 262.34365622096385 94.59326673973649
  endloop
endfacet
facet normal -1.0 -1.3384189848559723e-14 -1.419733959871103e-14
  outer loop
    vertex 369.71372898457577 293.0436562209637 90.59326673973717
    vertex 369.71372898457594 288.0436562209637 83.09326673973658
    vertex 369.71372898457577 282.54365622096157 90.59326673973746
  endloop
endfacet
facet normal -1.0 -1.3384189848559723e-14 -1.419733959871103e-14
  outer loop
    vertex 369.71372898457594 288.0436562209637 83.09326673973658
    vertex 369.71372898457577 293.0436562209637 90.59326673973717
    vertex 369.7137289845759 293.0436562209637 83.09326673973658
  endloop
endfacet
facet normal -1.0 -1.3384189848559723e-14 -1.419733959871103e-14
  outer loop
    vertex 369.71372898457633 250.14365622096358 80.0932667397365
    vertex 369.71372898457616 258.2524943243807 91.45400780429702
    vertex 369.71372898457594 288.0436562209637 80.09326673973658
  endloop
endfacet
facet normal -1.0 -1.3384189848559723e-14 -1.419733959871103e-14
  outer loop
    vertex 369.71372898457616 258.2524943243807 91.45400780429702
    vertex 369.71372898457633 250.14365622096358 80.0932667397365
    vertex 369.71372898457616 257.4686562209639 91.77868417743707
  endloop
endfacet
facet normal -1.0 -1.3384189848559723e-14 -1.419733959871103e-14
  outer loop
    vertex 369.71372898457616 257.4686562209639 91.77868417743707
    vertex 369.71372898457633 250.14365622096358 80.0932667397365
    vertex 369.71372898457616 256.7955591821076 92.29516970088021
  endloop
endfacet
facet normal -1.0 -1.3384189848559723e-14 -1.419733959871103e-14
  outer loop
    vertex 369.71372898457616 256.7955591821076 92.29516970088021
    vertex 369.71372898457633 250.14365622096358 80.0932667397365
    vertex 369.71372898457616 256.27907365866446 92.96826673973649
  endloop
endfacet
facet normal -1.0 -1.3384189848559723e-14 -1.419733959871103e-14
  outer loop
    vertex 369.71372898457616 256.27907365866446 92.96826673973649
    vertex 369.71372898457633 250.14365622096358 80.0932667397365
    vertex 369.71372898457616 255.9543972855244 93.7521048431533
  endloop
endfacet
facet normal -1.0 -1.3384189848559723e-14 -1.419733959871103e-14
  outer loop
    vertex 369.71372898457616 255.9543972855244 93.7521048431533
    vertex 369.71372898457633 250.14365622096358 80.0932667397365
    vertex 369.71372898457616 255.8436562209639 94.59326673973649
  endloop
endfacet
facet normal -1.0 -1.3384189848559723e-14 -1.419733959871103e-14
  outer loop
    vertex 369.71372898457594 288.0436562209637 80.09326673973658
    vertex 369.71372898457616 258.2524943243807 91.45400780429702
    vertex 369.71372898457616 259.0936562209639 91.34326673973649
  endloop
endfacet
facet normal -1.0 -1.3384189848559723e-14 -1.419733959871103e-14
  outer loop
    vertex 369.71372898457594 288.0436562209637 80.09326673973658
    vertex 369.71372898457616 259.0936562209639 91.34326673973649
    vertex 369.7137289845761 259.9348181175471 91.45400780429702
  endloop
endfacet
facet normal -1.0 -1.3384189848559723e-14 -1.419733959871103e-14
  outer loop
    vertex 369.71372898457594 288.0436562209637 80.09326673973658
    vertex 369.7137289845761 259.9348181175471 91.45400780429702
    vertex 369.71372898457605 260.71865622096385 91.77868417743707
  endloop
endfacet
facet normal -1.0 -1.3384189848559723e-14 -1.419733959871103e-14
  outer loop
    vertex 369.71372898457594 288.0436562209637 80.09326673973658
    vertex 369.71372898457605 260.71865622096385 91.77868417743707
    vertex 369.71372898457605 261.3917532598202 92.29516970088021
  endloop
endfacet
facet normal -1.0 -1.3384189848559723e-14 -1.419733959871103e-14
  outer loop
    vertex 369.71372898457594 288.0436562209637 80.09326673973658
    vertex 369.71372898457605 261.3917532598202 92.29516970088021
    vertex 369.71372898457605 261.9082387832633 92.96826673973649
  endloop
endfacet
facet normal -1.0 -1.3384189848559723e-14 -1.419733959871103e-14
  outer loop
    vertex 369.71372898457594 288.0436562209637 80.09326673973658
    vertex 369.71372898457605 261.9082387832633 92.96826673973649
    vertex 369.713728984576 262.23291515640335 93.7521048431533
  endloop
endfacet
facet normal -1.0 -1.3384189848559723e-14 -1.419733959871103e-14
  outer loop
    vertex 369.71372898457594 288.0436562209637 80.09326673973658
    vertex 369.713728984576 262.23291515640335 93.7521048431533
    vertex 369.713728984576 262.34365622096385 94.59326673973649
  endloop
endfacet
facet normal -1.0 -1.3384189848559723e-14 -1.419733959871103e-14
  outer loop
    vertex 369.71372898457594 288.0436562209637 80.09326673973658
    vertex 369.713728984576 262.34365622096385 94.59326673973649
    vertex 369.71372898457577 270.0436562209642 102.09326673973658
  endloop
endfacet
facet normal -1.0 -1.3384189848559723e-14 -1.419733959871103e-14
  outer loop
    vertex 369.71372898457577 270.0436562209642 102.09326673973658
    vertex 369.713728984576 262.34365622096385 94.59326673973649
    vertex 369.7137289845758 270.0436562209642 103.09326673973665
  endloop
endfacet
facet normal -1.0 -1.3384189848559723e-14 -1.419733959871103e-14
  outer loop
    vertex 369.71372898457594 288.0436562209637 80.09326673973658
    vertex 369.71372898457577 270.0436562209642 102.09326673973658
    vertex 369.71372898457577 271.0436562209642 102.09326673973658
  endloop
endfacet
facet normal -1.0 -1.3384189848559723e-14 -1.419733959871103e-14
  outer loop
    vertex 369.71372898457594 288.0436562209637 80.09326673973658
    vertex 369.71372898457577 271.0436562209642 102.09326673973658
    vertex 369.71372898457577 282.54365622096157 90.59326673973746
  endloop
endfacet
facet normal -1.0 -1.3384189848559723e-14 -1.419733959871103e-14
  outer loop
    vertex 369.71372898457594 288.0436562209637 80.09326673973658
    vertex 369.71372898457577 282.54365622096157 90.59326673973746
    vertex 369.71372898457594 288.0436562209637 83.09326673973658
  endloop
endfacet
facet normal 0.0 0.0 1.0
  outer loop
    vertex 369.71372898457594 288.0436562209637 83.09326673973658
    vertex 369.7137289845759 293.0436562209637 83.09326673973658
    vertex 364.7137289845759 293.0436562209637 83.09326673973658
  endloop
endfacet
facet normal -0.7071067811865444 -0.7071067811865507 -4.005668087421564e-29
  outer loop
    vertex 369.71372898457594 288.0436562209637 80.09326673973658
    vertex 364.7137289845759 293.0436562209637 83.09326673973658
    vertex 364.7137289845759 293.0436562209637 80.09326673973656
  endloop
endfacet
facet normal -0.7071067811865444 -0.7071067811865507 -4.005668087421564e-29
  outer loop
    vertex 364.7137289845759 293.0436562209637 83.09326673973658
    vertex 369.71372898457594 288.0436562209637 80.09326673973658
    vertex 369.71372898457594 288.0436562209637 83.09326673973658
  endloop
endfacet
facet normal 9.88373279142086e-15 -1.0 1.5295013867714823e-14
  outer loop
    vertex 369.71372898457577 293.0436562209637 90.59326673973717
    vertex 364.7137289845759 293.0436562209637 83.09326673973658
    vertex 369.7137289845759 293.0436562209637 83.09326673973658
  endloop
endfacet
facet normal 9.88373279142086e-15 -1.0 1.5295013867714823e-14
  outer loop
    vertex 364.7137289845759 293.0436562209637 83.09326673973658
    vertex 369.71372898457577 293.0436562209637 90.59326673973717
    vertex 354.71372898457577 293.04365622096367 90.5932667397371
  endloop
endfacet
facet normal 9.88373279142086e-15 -1.0 1.5295013867714823e-14
  outer loop
    vertex 354.71372898457577 293.04365622096367 90.5932667397371
    vertex 369.71372898457577 293.0436562209637 90.59326673973717
    vertex 361.1137289845756 293.0436562209639 96.5932667397367
  endloop
endfacet
facet normal 9.88373279142086e-15 -1.0 1.5295013867714823e-14
  outer loop
    vertex 361.1137289845756 293.0436562209639 96.5932667397367
    vertex 369.71372898457577 293.0436562209637 90.59326673973717
    vertex 372.71372898457577 293.0436562209641 90.59326673973729
  endloop
endfacet
facet normal 9.88373279142086e-15 -1.0 1.5295013867714823e-14
  outer loop
    vertex 361.1137289845756 293.0436562209639 96.5932667397367
    vertex 372.71372898457577 293.0436562209641 90.59326673973729
    vertex 372.71372898457577 293.043656220964 96.5932667397367
  endloop
endfacet
facet normal 9.88373279142086e-15 -1.0 1.5295013867714823e-14
  outer loop
    vertex 364.7137289845759 293.0436562209637 80.09326673973656
    vertex 354.71372898457577 293.04365622096367 90.5932667397371
    vertex 354.7137289845759 293.04365622096367 80.0932667397365
  endloop
endfacet
facet normal 9.88373279142086e-15 -1.0 1.5295013867714823e-14
  outer loop
    vertex 354.71372898457577 293.04365622096367 90.5932667397371
    vertex 364.7137289845759 293.0436562209637 80.09326673973656
    vertex 364.7137289845759 293.0436562209637 83.09326673973658
  endloop
endfacet
facet normal -3.0594500911300788e-15 1.0 -6.605679053181661e-16
  outer loop
    vertex 354.71372898457577 314.0436562209637 85.09326673973653
    vertex 372.71372898457577 314.0436562209638 80.09326673973665
    vertex 354.71372898457577 314.0436562209637 80.09326673973653
  endloop
endfacet
facet normal -3.0594500911300788e-15 1.0 -6.605679053181661e-16
  outer loop
    vertex 372.71372898457577 314.0436562209638 80.09326673973665
    vertex 354.71372898457577 314.0436562209637 85.09326673973653
    vertex 372.71372898457577 314.0436562209638 96.59326673973645
  endloop
endfacet
facet normal -3.0594500911300788e-15 1.0 -6.605679053181661e-16
  outer loop
    vertex 372.71372898457577 314.0436562209638 96.59326673973645
    vertex 354.71372898457577 314.0436562209637 85.09326673973653
    vertex 354.71372898457577 314.0436562209637 90.59326673973634
  endloop
endfacet
facet normal -3.0594500911300788e-15 1.0 -6.605679053181661e-16
  outer loop
    vertex 372.71372898457577 314.0436562209638 96.59326673973645
    vertex 354.71372898457577 314.0436562209637 90.59326673973634
    vertex 361.1137289845757 314.0436562209637 96.59326673973645
  endloop
endfacet
facet normal -0.6839411288813223 -1.6150979475285868e-14 0.7295372041400923
  outer loop
    vertex 361.1137289845756 293.0436562209639 96.5932667397367
    vertex 354.71372898457577 296.0436562209641 90.59326673973707
    vertex 354.71372898457577 293.04365622096367 90.5932667397371
  endloop
endfacet
facet normal -0.6839411288813223 -1.6150979475285868e-14 0.7295372041400923
  outer loop
    vertex 354.71372898457577 296.0436562209641 90.59326673973707
    vertex 361.1137289845756 293.0436562209639 96.5932667397367
    vertex 361.1137289845755 296.0436562209641 96.59326673973682
  endloop
endfacet
facet normal 0.0 1.0 0.0
  outer loop
    vertex 361.1137289845755 296.0436562209641 96.59326673973682
    vertex 372.71372898457577 296.0436562209641 90.59326673973709
    vertex 354.71372898457577 296.0436562209641 90.59326673973707
  endloop
endfacet
facet normal 0.0 1.0 0.0
  outer loop
    vertex 372.71372898457577 296.0436562209641 90.59326673973709
    vertex 361.1137289845755 296.0436562209641 96.59326673973682
    vertex 372.71372898457577 296.0436562209641 96.59326673973668
  endloop
endfacet
facet normal -1.3786502803567886e-14 7.895906151134128e-14 1.0
  outer loop
    vertex 372.71372898457577 309.0436562209638 90.59326673973675
    vertex 354.71372898457577 311.0436562209637 90.59326673973634
    vertex 354.71372898457577 309.0436562209637 90.59326673973653
  endloop
endfacet
facet normal -1.3786502803567886e-14 7.895906151134128e-14 1.0
  outer loop
    vertex 354.71372898457577 311.0436562209637 90.59326673973634
    vertex 372.71372898457577 309.0436562209638 90.59326673973675
    vertex 372.71372898457577 311.0436562209638 90.59326673973663
  endloop
endfacet
facet normal -1.4586033530420238e-15 5.639932965095806e-15 1.0
  outer loop
    vertex 372.71372898457577 311.0436562209638 96.59326673973648
    vertex 361.1137289845757 314.0436562209637 96.59326673973645
    vertex 361.1137289845757 311.0436562209637 96.59326673973645
  endloop
endfacet
facet normal -1.4586033530420238e-15 5.639932965095806e-15 1.0
  outer loop
    vertex 361.1137289845757 314.0436562209637 96.59326673973645
    vertex 372.71372898457577 311.0436562209638 96.59326673973648
    vertex 372.71372898457577 314.0436562209638 96.59326673973645
  endloop
endfacet
facet normal -0.6839411288813425 -1.1339989098964179e-17 0.7295372041400733
  outer loop
    vertex 361.1137289845757 311.0436562209637 96.59326673973645
    vertex 354.71372898457577 314.0436562209637 90.59326673973634
    vertex 354.71372898457577 311.0436562209637 90.59326673973634
  endloop
endfacet
facet normal -0.6839411288813425 -1.1339989098964179e-17 0.7295372041400733
  outer loop
    vertex 354.71372898457577 314.0436562209637 90.59326673973634
    vertex 361.1137289845757 311.0436562209637 96.59326673973645
    vertex 361.1137289845757 314.0436562209637 96.59326673973645
  endloop
endfacet
facet normal 4.683545169898078e-15 -1.0 1.2620645527849518e-15
  outer loop
    vertex 372.71372898457577 311.0436562209638 90.59326673973663
    vertex 361.1137289845757 311.0436562209637 96.59326673973645
    vertex 354.71372898457577 311.0436562209637 90.59326673973634
  endloop
endfacet
facet normal 4.683545169898078e-15 -1.0 1.2620645527849518e-15
  outer loop
    vertex 361.1137289845757 311.0436562209637 96.59326673973645
    vertex 372.71372898457577 311.0436562209638 90.59326673973663
    vertex 372.71372898457577 311.0436562209638 96.59326673973648
  endloop
endfacet
facet normal 5.197049049441591e-15 1.8409689274229766e-15 -1.0
  outer loop
    vertex 372.71372898457577 314.0436562209638 80.09326673973665
    vertex 354.71372898457577 309.0436562209637 80.09326673973653
    vertex 354.71372898457577 314.0436562209637 80.09326673973653
  endloop
endfacet
facet normal 5.197049049441591e-15 1.8409689274229766e-15 -1.0
  outer loop
    vertex 354.71372898457577 309.0436562209637 80.09326673973653
    vertex 372.71372898457577 314.0436562209638 80.09326673973665
    vertex 354.7137289845759 293.04365622096367 80.0932667397365
  endloop
endfacet
facet normal 5.197049049441591e-15 1.8409689274229766e-15 -1.0
  outer loop
    vertex 354.7137289845759 293.04365622096367 80.0932667397365
    vertex 372.71372898457577 314.0436562209638 80.09326673973665
    vertex 364.7137289845759 293.0436562209637 80.09326673973656
  endloop
endfacet
facet normal 5.197049049441591e-15 1.8409689274229766e-15 -1.0
  outer loop
    vertex 364.7137289845759 293.0436562209637 80.09326673973656
    vertex 372.71372898457577 314.0436562209638 80.09326673973665
    vertex 369.71372898457594 288.0436562209637 80.09326673973658
  endloop
endfacet
facet normal 5.197049049441591e-15 1.8409689274229766e-15 -1.0
  outer loop
    vertex 369.71372898457594 288.0436562209637 80.09326673973658
    vertex 372.71372898457577 314.0436562209638 80.09326673973665
    vertex 369.71372898457633 250.14365622096358 80.0932667397365
  endloop
endfacet
facet normal 5.197049049441591e-15 1.8409689274229766e-15 -1.0
  outer loop
    vertex 369.71372898457633 250.14365622096358 80.0932667397365
    vertex 372.71372898457577 314.0436562209638 80.09326673973665
    vertex 372.71372898457633 250.1436562209636 80.09326673973653
  endloop
endfacet
facet normal 1.50398212402555e-14 -1.0 -1.840968927422899e-15
  outer loop
    vertex 372.71372898457633 250.1436562209636 80.09326673973653
    vertex 369.71372898457633 250.14365622096358 83.0932667397365
    vertex 369.71372898457633 250.14365622096358 80.0932667397365
  endloop
endfacet
facet normal 1.50398212402555e-14 -1.0 -1.840968927422899e-15
  outer loop
    vertex 369.71372898457633 250.14365622096358 83.0932667397365
    vertex 372.71372898457633 250.1436562209636 80.09326673973653
    vertex 372.71372898457633 250.1436562209636 83.09326673973653
  endloop
endfacet
facet normal -4.5119463720766536e-15 7.519910620127741e-15 1.0
  outer loop
    vertex 369.71372898457577 296.0436562209638 86.09326673973663
    vertex 354.71372898457577 298.04365622096367 86.09326673973655
    vertex 354.71372898457577 296.04365622096367 86.09326673973655
  endloop
endfacet
facet normal -4.5119463720766536e-15 7.519910620127741e-15 1.0
  outer loop
    vertex 354.71372898457577 298.04365622096367 86.09326673973655
    vertex 369.71372898457577 296.0436562209638 86.09326673973663
    vertex 369.71372898457577 298.04365622096367 86.09326673973659
  endloop
endfacet
facet normal -3.007964248051087e-15 0.0 1.0
  outer loop
    vertex 369.71372898457577 298.04365622096367 83.09326673973659
    vertex 354.71372898457577 309.0436562209637 83.09326673973655
    vertex 354.71372898457577 298.04365622096367 83.09326673973655
  endloop
endfacet
facet normal -3.007964248051087e-15 0.0 1.0
  outer loop
    vertex 354.71372898457577 309.0436562209637 83.09326673973655
    vertex 369.71372898457577 298.04365622096367 83.09326673973659
    vertex 369.71372898457577 309.0436562209637 83.09326673973659
  endloop
endfacet
facet normal -0.0 -1.0 -0.0
  outer loop
    vertex 369.71372898457577 309.0436562209637 83.09326673973659
    vertex 354.71372898457577 309.0436562209637 86.09326673973655
    vertex 354.71372898457577 309.0436562209637 83.09326673973655
  endloop
endfacet
facet normal -0.0 -1.0 -0.0
  outer loop
    vertex 354.71372898457577 309.0436562209637 86.09326673973655
    vertex 369.71372898457577 309.0436562209637 83.09326673973659
    vertex 369.71372898457577 309.0436562209637 86.09326673973659
  endloop
endfacet
facet normal 0.0 1.0 0.0
  outer loop
    vertex 354.71372898457577 298.04365622096367 86.09326673973655
    vertex 369.71372898457577 298.04365622096367 83.09326673973659
    vertex 354.71372898457577 298.04365622096367 83.09326673973655
  endloop
endfacet
facet normal 0.0 1.0 0.0
  outer loop
    vertex 369.71372898457577 298.04365622096367 83.09326673973659
    vertex 354.71372898457577 298.04365622096367 86.09326673973655
    vertex 369.71372898457577 298.04365622096367 86.09326673973659
  endloop
endfacet
facet normal -1.0 -1.0414307196341765e-15 -4.598326104083169e-15
  outer loop
    vertex 354.71372898457577 296.0436562209641 90.59326673973707
    vertex 354.7137289845759 293.04365622096367 80.0932667397365
    vertex 354.71372898457577 293.04365622096367 90.5932667397371
  endloop
endfacet
facet normal -1.0 -1.0414307196341765e-15 -4.598326104083169e-15
  outer loop
    vertex 354.7137289845759 293.04365622096367 80.0932667397365
    vertex 354.71372898457577 296.0436562209641 90.59326673973707
    vertex 354.71372898457577 296.04365622096367 87.59326673973655
  endloop
endfacet
facet normal -1.0 -1.0414307196341765e-15 -4.598326104083169e-15
  outer loop
    vertex 354.71372898457577 296.04365622096367 87.59326673973655
    vertex 354.71372898457577 296.0436562209641 90.59326673973707
    vertex 354.71372898457577 298.04365622096367 87.59326673973655
  endloop
endfacet
facet normal -1.0 -1.0414307196341765e-15 -4.598326104083169e-15
  outer loop
    vertex 354.71372898457577 298.04365622096367 87.59326673973655
    vertex 354.71372898457577 296.0436562209641 90.59326673973707
    vertex 354.71372898457577 298.04365622096367 90.59326673973696
  endloop
endfacet
facet normal -1.0 -1.0414307196341765e-15 -4.598326104083169e-15
  outer loop
    vertex 354.71372898457577 311.0436562209637 90.59326673973634
    vertex 354.71372898457577 309.0436562209637 87.59326673973655
    vertex 354.71372898457577 309.0436562209637 90.59326673973653
  endloop
endfacet
facet normal -1.0 -1.0414307196341765e-15 -4.598326104083169e-15
  outer loop
    vertex 354.71372898457577 309.0436562209637 87.59326673973655
    vertex 354.71372898457577 311.0436562209637 90.59326673973634
    vertex 354.71372898457577 311.0436562209637 87.59326673973655
  endloop
endfacet
facet normal -1.0 -1.0414307196341765e-15 -4.598326104083169e-15
  outer loop
    vertex 354.71372898457577 311.0436562209637 87.59326673973655
    vertex 354.71372898457577 311.0436562209637 90.59326673973634
    vertex 354.71372898457577 314.0436562209637 90.59326673973634
  endloop
endfacet
facet normal -1.0 -1.0414307196341765e-15 -4.598326104083169e-15
  outer loop
    vertex 354.71372898457577 311.0436562209637 87.59326673973655
    vertex 354.71372898457577 314.0436562209637 90.59326673973634
    vertex 354.71372898457577 311.0436562209637 86.09326673973655
  endloop
endfacet
facet normal -1.0 -1.0414307196341765e-15 -4.598326104083169e-15
  outer loop
    vertex 354.71372898457577 311.0436562209637 86.09326673973655
    vertex 354.71372898457577 309.0436562209637 83.09326673973655
    vertex 354.71372898457577 309.0436562209637 86.09326673973655
  endloop
endfacet
facet normal -1.0 -1.0414307196341765e-15 -4.598326104083169e-15
  outer loop
    vertex 354.71372898457577 309.0436562209637 83.09326673973655
    vertex 354.71372898457577 311.0436562209637 86.09326673973655
    vertex 354.71372898457577 309.0436562209637 80.09326673973653
  endloop
endfacet
facet normal -1.0 -1.0414307196341765e-15 -4.598326104083169e-15
  outer loop
    vertex 354.71372898457577 309.0436562209637 80.09326673973653
    vertex 354.71372898457577 311.0436562209637 86.09326673973655
    vertex 354.71372898457577 314.0436562209637 80.09326673973653
  endloop
endfacet
facet normal -1.0 -1.0414307196341765e-15 -4.598326104083169e-15
  outer loop
    vertex 354.71372898457577 314.0436562209637 80.09326673973653
    vertex 354.71372898457577 311.0436562209637 86.09326673973655
    vertex 354.71372898457577 314.0436562209637 90.59326673973634
  endloop
endfacet
facet normal -1.0 -1.0414307196341765e-15 -4.598326104083169e-15
  outer loop
    vertex 354.71372898457577 314.0436562209637 80.09326673973653
    vertex 354.71372898457577 314.0436562209637 90.59326673973634
    vertex 354.71372898457577 314.0436562209637 85.09326673973653
  endloop
endfacet
facet normal -1.0 -1.0414307196341765e-15 -4.598326104083169e-15
  outer loop
    vertex 354.7137289845759 293.04365622096367 80.0932667397365
    vertex 354.71372898457577 298.04365622096367 83.09326673973655
    vertex 354.71372898457577 309.0436562209637 80.09326673973653
  endloop
endfacet
facet normal -1.0 -1.0414307196341765e-15 -4.598326104083169e-15
  outer loop
    vertex 354.71372898457577 298.04365622096367 83.09326673973655
    vertex 354.7137289845759 293.04365622096367 80.0932667397365
    vertex 354.71372898457577 296.04365622096367 86.09326673973655
  endloop
endfacet
facet normal -1.0 -1.0414307196341765e-15 -4.598326104083169e-15
  outer loop
    vertex 354.71372898457577 296.04365622096367 86.09326673973655
    vertex 354.7137289845759 293.04365622096367 80.0932667397365
    vertex 354.71372898457577 296.04365622096367 87.59326673973655
  endloop
endfacet
facet normal -1.0 -1.0414307196341765e-15 -4.598326104083169e-15
  outer loop
    vertex 354.71372898457577 298.04365622096367 83.09326673973655
    vertex 354.71372898457577 296.04365622096367 86.09326673973655
    vertex 354.71372898457577 298.04365622096367 86.09326673973655
  endloop
endfacet
facet normal -1.0 -1.0414307196341765e-15 -4.598326104083169e-15
  outer loop
    vertex 354.71372898457577 309.0436562209637 80.09326673973653
    vertex 354.71372898457577 298.04365622096367 83.09326673973655
    vertex 354.71372898457577 309.0436562209637 83.09326673973655
  endloop
endfacet
endsolid Main
