solid Main v1
facet normal -3.021392659872811e-16 1.6395153968301604e-17 -1.0
  outer loop
    vertex 1909.4563326833363 1413.9045917120159 3.74999999999981
    vertex 1905.9563326833363 1395.4045917120156 3.74999999999981
    vertex 1905.9563326833363 1413.9045917120159 3.7499999999998113
  endloop
endfacet
facet normal -3.021392659872811e-16 1.6395153968301604e-17 -1.0
  outer loop
    vertex 1905.9563326833363 1395.4045917120156 3.74999999999981
    vertex 1909.4563326833363 1413.9045917120159 3.74999999999981
    vertex 1909.4563326833363 1395.4045917120156 3.74999999999981
  endloop
endfacet
facet normal 0.0 0.0 1.0
  outer loop
    vertex 1909.4563326833363 1395.4045917120156 69.75
    vertex 1905.9563326833363 1413.9045917120159 69.75
    vertex 1905.9563326833363 1395.4045917120156 69.75
  endloop
endfacet
facet normal 0.0 0.0 1.0
  outer loop
    vertex 1905.9563326833363 1413.9045917120159 69.75
    vertex 1909.4563326833363 1395.4045917120156 69.75
    vertex 1909.4563326833363 1413.9045917120159 69.75
  endloop
endfacet
facet normal 0.0 1.0 0.0
  outer loop
    vertex 1903.9563326833363 1415.9045917120159 71.74999999999999
    vertex 1905.9563326833363 1415.9045917120159 1.7499999999998106
    vertex 1903.9563326833363 1415.9045917120159 1.7499999999998106
  endloop
endfacet
facet normal 0.0 1.0 0.0
  outer loop
    vertex 1905.9563326833363 1415.9045917120159 1.7499999999998106
    vertex 1903.9563326833363 1415.9045917120159 71.74999999999999
    vertex 1905.9563326833363 1415.9045917120159 71.74999999999999
  endloop
endfacet
facet normal 5.287437154777556e-16 1.6395153968301604e-17 -1.0
  outer loop
    vertex 1905.9563326833363 1415.9045917120159 1.7499999999998106
    vertex 1903.9563326833363 1393.4045917120156 1.7499999999998106
    vertex 1903.9563326833363 1415.9045917120159 1.7499999999998106
  endloop
endfacet
facet normal 5.287437154777556e-16 1.6395153968301604e-17 -1.0
  outer loop
    vertex 1903.9563326833363 1393.4045917120156 1.7499999999998106
    vertex 1905.9563326833363 1415.9045917120159 1.7499999999998106
    vertex 1905.9563326833363 1393.4045917120156 1.7499999999998106
  endloop
endfacet
facet normal 0.0 0.0 1.0
  outer loop
    vertex 1905.9563326833363 1393.4045917120156 71.74999999999999
    vertex 1903.9563326833363 1415.9045917120159 71.74999999999999
    vertex 1903.9563326833363 1393.4045917120156 71.74999999999999
  endloop
endfacet
facet normal 0.0 0.0 1.0
  outer loop
    vertex 1903.9563326833363 1415.9045917120159 71.74999999999999
    vertex 1905.9563326833363 1393.4045917120156 71.74999999999999
    vertex 1905.9563326833363 1415.9045917120159 71.74999999999999
  endloop
endfacet
facet normal 0.0 -1.0 0.0
  outer loop
    vertex 1905.9563326833363 1393.4045917120156 37.99999999998075
    vertex 1903.9563326833368 1393.4045917120156 32.80903533472306
    vertex 1905.9563326833363 1393.4045917120156 32.80903533472306
  endloop
endfacet
facet normal 0.0 -1.0 0.0
  outer loop
    vertex 1903.9563326833368 1393.4045917120156 32.80903533472306
    vertex 1905.9563326833363 1393.4045917120156 37.99999999998075
    vertex 1903.9563326833363 1393.4045917120156 37.99999999998075
  endloop
endfacet
facet normal 0.0 0.0 -1.0
  outer loop
    vertex 1909.4563326833363 1404.754591712013 45.0
    vertex 1905.9563326833363 1395.4045917120156 45.0
    vertex 1905.9563326833363 1404.754591712013 45.0
  endloop
endfacet
facet normal 0.0 0.0 -1.0
  outer loop
    vertex 1905.9563326833363 1395.4045917120156 45.0
    vertex 1909.4563326833363 1404.754591712013 45.0
    vertex 1909.4563326833363 1395.4045917120156 45.0
  endloop
endfacet
facet normal 0.0 0.0 -1.0
  outer loop
    vertex 1905.9563326833363 1404.754591712013 45.0
    vertex 1903.9563326833363 1393.4045917120156 45.0
    vertex 1903.9563326833363 1404.754591712013 45.0
  endloop
endfacet
facet normal 0.0 0.0 -1.0
  outer loop
    vertex 1903.9563326833363 1393.4045917120156 45.0
    vertex 1905.9563326833363 1404.754591712013 45.0
    vertex 1905.9563326833363 1393.4045917120156 45.0
  endloop
endfacet
facet normal 0.0 0.0 -1.0
  outer loop
    vertex 1905.9563326833363 1393.4045917120156 45.0
    vertex 1905.9563326833363 1404.754591712013 45.0
    vertex 1905.9563326833363 1395.4045917120156 45.0
  endloop
endfacet
facet normal 0.0 0.0 1.0
  outer loop
    vertex 1905.9563326833363 1393.4045917120156 37.99999999998075
    vertex 1903.9563326833363 1404.754591712013 37.99999999998075
    vertex 1903.9563326833363 1393.4045917120156 37.99999999998075
  endloop
endfacet
facet normal 0.0 0.0 1.0
  outer loop
    vertex 1903.9563326833363 1404.754591712013 37.99999999998075
    vertex 1905.9563326833363 1393.4045917120156 37.99999999998075
    vertex 1905.9563326833363 1404.754591712013 37.99999999998075
  endloop
endfacet
facet normal 0.0 0.0 1.0
  outer loop
    vertex 1905.9563326833363 1404.754591712013 37.99999999998075
    vertex 1905.9563326833363 1393.4045917120156 37.99999999998075
    vertex 1905.9563326833363 1395.4045917120156 37.99999999998075
  endloop
endfacet
facet normal 0.0 0.0 1.0
  outer loop
    vertex 1905.9563326833363 1404.754591712013 37.99999999998075
    vertex 1905.9563326833363 1395.4045917120156 37.99999999998075
    vertex 1909.4563326833363 1395.4045917120156 37.99999999998075
  endloop
endfacet
facet normal 0.0 0.0 1.0
  outer loop
    vertex 1905.9563326833363 1404.754591712013 37.99999999998075
    vertex 1909.4563326833363 1395.4045917120156 37.99999999998075
    vertex 1909.4563326833363 1404.754591712013 37.99999999998075
  endloop
endfacet
facet normal 0.0 -1.0 0.0
  outer loop
    vertex 1905.9563326833363 1393.4045917120156 71.74999999999999
    vertex 1903.9563326833368 1393.4045917120156 60.5
    vertex 1905.9563326833363 1393.4045917120156 60.5
  endloop
endfacet
facet normal 0.0 -1.0 0.0
  outer loop
    vertex 1903.9563326833368 1393.4045917120156 60.5
    vertex 1905.9563326833363 1393.4045917120156 71.74999999999999
    vertex 1903.9563326833363 1393.4045917120156 71.74999999999999
  endloop
endfacet
facet normal 1.0 0.0 0.0
  outer loop
    vertex 1905.9563326833363 1395.4045917120156 45.0
    vertex 1905.9563326833363 1393.4045917120156 50.50000000000001
    vertex 1905.9563326833363 1393.4045917120156 45.0
  endloop
endfacet
facet normal 1.0 0.0 0.0
  outer loop
    vertex 1905.9563326833363 1393.4045917120156 50.50000000000001
    vertex 1905.9563326833363 1395.4045917120156 45.0
    vertex 1905.9563326833363 1395.4045917120156 50.50000000000001
  endloop
endfacet
facet normal 0.0 -1.0 0.0
  outer loop
    vertex 1909.4563326833363 1395.4045917120156 37.99999999998075
    vertex 1905.9563326833363 1395.4045917120156 32.80903533472306
    vertex 1909.4563326833363 1395.4045917120156 32.80903533472306
  endloop
endfacet
facet normal 0.0 -1.0 0.0
  outer loop
    vertex 1905.9563326833363 1395.4045917120156 32.80903533472306
    vertex 1909.4563326833363 1395.4045917120156 37.99999999998075
    vertex 1905.9563326833363 1395.4045917120156 37.99999999998075
  endloop
endfacet
facet normal 0.0 -1.0 0.0
  outer loop
    vertex 1909.4563326833363 1404.754591712013 45.0
    vertex 1905.9563326833363 1404.754591712013 37.99999999998075
    vertex 1909.4563326833363 1404.754591712013 37.99999999998075
  endloop
endfacet
facet normal 0.0 -1.0 0.0
  outer loop
    vertex 1905.9563326833363 1404.754591712013 37.99999999998075
    vertex 1909.4563326833363 1404.754591712013 45.0
    vertex 1903.9563326833363 1404.754591712013 37.99999999998075
  endloop
endfacet
facet normal 0.0 -1.0 0.0
  outer loop
    vertex 1903.9563326833363 1404.754591712013 37.99999999998075
    vertex 1909.4563326833363 1404.754591712013 45.0
    vertex 1903.9563326833363 1404.754591712013 45.0
  endloop
endfacet
facet normal 0.0 -1.0 0.0
  outer loop
    vertex 1903.9563326833363 1404.754591712013 45.0
    vertex 1909.4563326833363 1404.754591712013 45.0
    vertex 1905.9563326833363 1404.754591712013 45.0
  endloop
endfacet
facet normal 0.0 -1.0 0.0
  outer loop
    vertex 1909.4563326833363 1395.4045917120156 69.75
    vertex 1905.9563326833363 1395.4045917120156 60.5
    vertex 1909.4563326833363 1395.4045917120156 60.5
  endloop
endfacet
facet normal 0.0 -1.0 0.0
  outer loop
    vertex 1905.9563326833363 1395.4045917120156 60.5
    vertex 1909.4563326833363 1395.4045917120156 69.75
    vertex 1905.9563326833363 1395.4045917120156 69.75
  endloop
endfacet
facet normal 0.0 -1.0 0.0
  outer loop
    vertex 1909.4563326833363 1411.9045917120159 60.5
    vertex 1903.956332683338 1411.9045917120159 50.50000000000001
    vertex 1909.4563326833363 1411.9045917120159 50.50000000000001
  endloop
endfacet
facet normal 0.0 -1.0 0.0
  outer loop
    vertex 1903.956332683338 1411.9045917120159 50.50000000000001
    vertex 1909.4563326833363 1411.9045917120159 60.5
    vertex 1903.956332683338 1411.9045917120159 60.5
  endloop
endfacet
facet normal 1.0 0.0 0.0
  outer loop
    vertex 1905.9563326833363 1395.4045917120156 32.80903533472306
    vertex 1905.9563326833363 1393.4045917120156 37.99999999998075
    vertex 1905.9563326833363 1393.4045917120156 32.80903533472306
  endloop
endfacet
facet normal 1.0 0.0 0.0
  outer loop
    vertex 1905.9563326833363 1393.4045917120156 37.99999999998075
    vertex 1905.9563326833363 1395.4045917120156 32.80903533472306
    vertex 1905.9563326833363 1395.4045917120156 37.99999999998075
  endloop
endfacet
facet normal 0.0 0.0 -1.0
  outer loop
    vertex 1909.4563326833363 1411.9045917120159 60.5
    vertex 1905.9563326833363 1395.4045917120156 60.5
    vertex 1903.956332683338 1411.9045917120159 60.5
  endloop
endfacet
facet normal 0.0 0.0 -1.0
  outer loop
    vertex 1905.9563326833363 1395.4045917120156 60.5
    vertex 1909.4563326833363 1411.9045917120159 60.5
    vertex 1909.4563326833363 1395.4045917120156 60.5
  endloop
endfacet
facet normal 0.0 0.0 -1.0
  outer loop
    vertex 1903.956332683338 1411.9045917120159 60.5
    vertex 1905.9563326833363 1393.4045917120156 60.5
    vertex 1903.9563326833368 1393.4045917120156 60.5
  endloop
endfacet
facet normal 0.0 0.0 -1.0
  outer loop
    vertex 1905.9563326833363 1393.4045917120156 60.5
    vertex 1903.956332683338 1411.9045917120159 60.5
    vertex 1905.9563326833363 1395.4045917120156 60.5
  endloop
endfacet
facet normal 0.0 0.0 1.0
  outer loop
    vertex 1905.9563326833363 1393.4045917120156 50.50000000000001
    vertex 1903.956332683338 1411.9045917120159 50.50000000000001
    vertex 1903.9563326833368 1393.4045917120156 50.50000000000001
  endloop
endfacet
facet normal 0.0 0.0 1.0
  outer loop
    vertex 1903.956332683338 1411.9045917120159 50.50000000000001
    vertex 1905.9563326833363 1393.4045917120156 50.50000000000001
    vertex 1905.9563326833363 1395.4045917120156 50.50000000000001
  endloop
endfacet
facet normal 0.0 0.0 1.0
  outer loop
    vertex 1903.956332683338 1411.9045917120159 50.50000000000001
    vertex 1905.9563326833363 1395.4045917120156 50.50000000000001
    vertex 1909.4563326833363 1411.9045917120159 50.50000000000001
  endloop
endfacet
facet normal 0.0 0.0 1.0
  outer loop
    vertex 1909.4563326833363 1411.9045917120159 50.50000000000001
    vertex 1905.9563326833363 1395.4045917120156 50.50000000000001
    vertex 1909.4563326833363 1395.4045917120156 50.50000000000001
  endloop
endfacet
facet normal 0.0 -1.0 0.0
  outer loop
    vertex 1909.4563326833363 1395.4045917120156 50.50000000000001
    vertex 1905.9563326833363 1395.4045917120156 45.0
    vertex 1909.4563326833363 1395.4045917120156 45.0
  endloop
endfacet
facet normal 0.0 -1.0 0.0
  outer loop
    vertex 1905.9563326833363 1395.4045917120156 45.0
    vertex 1909.4563326833363 1395.4045917120156 50.50000000000001
    vertex 1905.9563326833363 1395.4045917120156 50.50000000000001
  endloop
endfacet
facet normal -1.0 3.04503918079731e-14 7.996039380718858e-15
  outer loop
    vertex 1903.956332683338 1411.9045917120159 50.50000000000001
    vertex 1903.9563326833363 1393.4045917120156 45.0
    vertex 1903.9563326833368 1393.4045917120156 50.50000000000001
  endloop
endfacet
facet normal -1.0 3.04503918079731e-14 7.996039380718858e-15
  outer loop
    vertex 1903.9563326833363 1393.4045917120156 45.0
    vertex 1903.956332683338 1411.9045917120159 50.50000000000001
    vertex 1903.9563326833363 1404.754591712013 45.0
  endloop
endfacet
facet normal -1.0 3.04503918079731e-14 7.996039380718858e-15
  outer loop
    vertex 1903.9563326833363 1404.754591712013 45.0
    vertex 1903.956332683338 1411.9045917120159 50.50000000000001
    vertex 1903.9563326833363 1404.754591712013 37.99999999998075
  endloop
endfacet
facet normal -1.0 3.04503918079731e-14 7.996039380718858e-15
  outer loop
    vertex 1903.9563326833363 1415.9045917120159 71.74999999999999
    vertex 1903.9563326833368 1393.4045917120156 60.5
    vertex 1903.9563326833363 1393.4045917120156 71.74999999999999
  endloop
endfacet
facet normal -1.0 3.04503918079731e-14 7.996039380718858e-15
  outer loop
    vertex 1903.9563326833368 1393.4045917120156 60.5
    vertex 1903.9563326833363 1415.9045917120159 71.74999999999999
    vertex 1903.956332683338 1411.9045917120159 60.5
  endloop
endfacet
facet normal -1.0 3.04503918079731e-14 7.996039380718858e-15
  outer loop
    vertex 1903.956332683338 1411.9045917120159 60.5
    vertex 1903.9563326833363 1415.9045917120159 71.74999999999999
    vertex 1903.956332683338 1411.9045917120159 50.50000000000001
  endloop
endfacet
facet normal -1.0 3.04503918079731e-14 7.996039380718858e-15
  outer loop
    vertex 1903.956332683338 1411.9045917120159 50.50000000000001
    vertex 1903.9563326833363 1415.9045917120159 71.74999999999999
    vertex 1903.9563326833375 1411.9045917120159 32.80903533472312
  endloop
endfacet
facet normal -1.0 3.04503918079731e-14 7.996039380718858e-15
  outer loop
    vertex 1903.9563326833375 1411.9045917120156 20.5662353347234
    vertex 1903.9563326833363 1393.4045917120156 1.7499999999998106
    vertex 1903.9563326833368 1393.4045917120156 20.566235334723356
  endloop
endfacet
facet normal -1.0 3.04503918079731e-14 7.996039380718858e-15
  outer loop
    vertex 1903.9563326833363 1393.4045917120156 1.7499999999998106
    vertex 1903.9563326833375 1411.9045917120156 20.5662353347234
    vertex 1903.9563326833363 1415.9045917120159 1.7499999999998106
  endloop
endfacet
facet normal -1.0 3.04503918079731e-14 7.996039380718858e-15
  outer loop
    vertex 1903.9563326833363 1415.9045917120159 1.7499999999998106
    vertex 1903.9563326833375 1411.9045917120156 20.5662353347234
    vertex 1903.9563326833375 1411.9045917120159 32.80903533472312
  endloop
endfacet
facet normal -1.0 3.04503918079731e-14 7.996039380718858e-15
  outer loop
    vertex 1903.9563326833363 1415.9045917120159 1.7499999999998106
    vertex 1903.9563326833375 1411.9045917120159 32.80903533472312
    vertex 1903.9563326833363 1415.9045917120159 71.74999999999999
  endloop
endfacet
facet normal -1.0 3.04503918079731e-14 7.996039380718858e-15
  outer loop
    vertex 1903.9563326833363 1404.754591712013 37.99999999998075
    vertex 1903.9563326833368 1393.4045917120156 32.80903533472306
    vertex 1903.9563326833363 1393.4045917120156 37.99999999998075
  endloop
endfacet
facet normal -1.0 3.04503918079731e-14 7.996039380718858e-15
  outer loop
    vertex 1903.9563326833368 1393.4045917120156 32.80903533472306
    vertex 1903.9563326833363 1404.754591712013 37.99999999998075
    vertex 1903.9563326833375 1411.9045917120159 32.80903533472312
  endloop
endfacet
facet normal -1.0 3.04503918079731e-14 7.996039380718858e-15
  outer loop
    vertex 1903.9563326833375 1411.9045917120159 32.80903533472312
    vertex 1903.9563326833363 1404.754591712013 37.99999999998075
    vertex 1903.956332683338 1411.9045917120159 50.50000000000001
  endloop
endfacet
facet normal 0.0 -1.0 0.0
  outer loop
    vertex 1905.9563326833363 1393.4045917120156 50.50000000000001
    vertex 1903.9563326833363 1393.4045917120156 45.0
    vertex 1905.9563326833363 1393.4045917120156 45.0
  endloop
endfacet
facet normal 0.0 -1.0 0.0
  outer loop
    vertex 1903.9563326833363 1393.4045917120156 45.0
    vertex 1905.9563326833363 1393.4045917120156 50.50000000000001
    vertex 1903.9563326833368 1393.4045917120156 50.50000000000001
  endloop
endfacet
facet normal 0.0 1.0 0.0
  outer loop
    vertex 1905.9563326833363 1413.9045917120159 3.7499999999998113
    vertex 1909.4563326833363 1413.9045917120159 69.75
    vertex 1909.4563326833363 1413.9045917120159 3.74999999999981
  endloop
endfacet
facet normal 0.0 1.0 0.0
  outer loop
    vertex 1909.4563326833363 1413.9045917120159 69.75
    vertex 1905.9563326833363 1413.9045917120159 3.7499999999998113
    vertex 1905.9563326833363 1413.9045917120159 37.99999999998075
  endloop
endfacet
facet normal 0.0 1.0 0.0
  outer loop
    vertex 1909.4563326833363 1413.9045917120159 69.75
    vertex 1905.9563326833363 1413.9045917120159 37.99999999998075
    vertex 1905.9563326833363 1413.9045917120159 45.0
  endloop
endfacet
facet normal 0.0 1.0 0.0
  outer loop
    vertex 1909.4563326833363 1413.9045917120159 69.75
    vertex 1905.9563326833363 1413.9045917120159 45.0
    vertex 1905.9563326833363 1413.9045917120159 69.75
  endloop
endfacet
facet normal 2.9268882204153957e-15 -1.3735188927763245e-15 1.0
  outer loop
    vertex 1905.9563326833363 1393.4045917120156 20.566235334723356
    vertex 1903.9563326833375 1411.9045917120156 20.5662353347234
    vertex 1903.9563326833368 1393.4045917120156 20.566235334723356
  endloop
endfacet
facet normal 2.9268882204153957e-15 -1.3735188927763245e-15 1.0
  outer loop
    vertex 1903.9563326833375 1411.9045917120156 20.5662353347234
    vertex 1905.9563326833363 1393.4045917120156 20.566235334723356
    vertex 1905.9563326833363 1395.4045917120156 20.566235334723356
  endloop
endfacet
facet normal 2.9268882204153957e-15 -1.3735188927763245e-15 1.0
  outer loop
    vertex 1903.9563326833375 1411.9045917120156 20.5662353347234
    vertex 1905.9563326833363 1395.4045917120156 20.566235334723356
    vertex 1909.4563326833363 1411.9045917120156 20.566235334723356
  endloop
endfacet
facet normal 2.9268882204153957e-15 -1.3735188927763245e-15 1.0
  outer loop
    vertex 1909.4563326833363 1411.9045917120156 20.566235334723356
    vertex 1905.9563326833363 1395.4045917120156 20.566235334723356
    vertex 1909.4563326833363 1395.4045917120156 20.566235334723356
  endloop
endfacet
facet normal -3.704626865359215e-15 1.8227867148079313e-15 -1.0
  outer loop
    vertex 1909.4563326833363 1411.9045917120159 32.80903533472307
    vertex 1905.9563326833363 1395.4045917120156 32.80903533472306
    vertex 1903.9563326833375 1411.9045917120159 32.80903533472312
  endloop
endfacet
facet normal -3.704626865359215e-15 1.8227867148079313e-15 -1.0
  outer loop
    vertex 1905.9563326833363 1395.4045917120156 32.80903533472306
    vertex 1909.4563326833363 1411.9045917120159 32.80903533472307
    vertex 1909.4563326833363 1395.4045917120156 32.80903533472306
  endloop
endfacet
facet normal -3.704626865359215e-15 1.8227867148079313e-15 -1.0
  outer loop
    vertex 1903.9563326833375 1411.9045917120159 32.80903533472312
    vertex 1905.9563326833363 1393.4045917120156 32.80903533472306
    vertex 1903.9563326833368 1393.4045917120156 32.80903533472306
  endloop
endfacet
facet normal -3.704626865359215e-15 1.8227867148079313e-15 -1.0
  outer loop
    vertex 1905.9563326833363 1393.4045917120156 32.80903533472306
    vertex 1903.9563326833375 1411.9045917120159 32.80903533472312
    vertex 1905.9563326833363 1395.4045917120156 32.80903533472306
  endloop
endfacet
facet normal 1.2216969621372446e-28 -1.0 1.4741550534442255e-14
  outer loop
    vertex 1909.4563326833363 1411.9045917120159 32.80903533472307
    vertex 1903.9563326833375 1411.9045917120156 20.5662353347234
    vertex 1909.4563326833363 1411.9045917120156 20.566235334723356
  endloop
endfacet
facet normal 1.2216969621372446e-28 -1.0 1.4741550534442255e-14
  outer loop
    vertex 1903.9563326833375 1411.9045917120156 20.5662353347234
    vertex 1909.4563326833363 1411.9045917120159 32.80903533472307
    vertex 1903.9563326833375 1411.9045917120159 32.80903533472312
  endloop
endfacet
facet normal 1.0 -1.6043203575997441e-15 1.4132121021875249e-15
  outer loop
    vertex 1909.4563326833363 1411.9045917120159 32.80903533472307
    vertex 1909.4563326833363 1395.4045917120156 37.99999999998075
    vertex 1909.4563326833363 1395.4045917120156 32.80903533472306
  endloop
endfacet
facet normal 1.0 -1.6043203575997441e-15 1.4132121021875249e-15
  outer loop
    vertex 1909.4563326833363 1395.4045917120156 37.99999999998075
    vertex 1909.4563326833363 1411.9045917120159 32.80903533472307
    vertex 1909.4563326833363 1404.754591712013 37.99999999998075
  endloop
endfacet
facet normal 1.0 -1.6043203575997441e-15 1.4132121021875249e-15
  outer loop
    vertex 1909.4563326833363 1404.754591712013 37.99999999998075
    vertex 1909.4563326833363 1411.9045917120159 32.80903533472307
    vertex 1909.4563326833363 1404.754591712013 45.0
  endloop
endfacet
facet normal 1.0 -1.6043203575997441e-15 1.4132121021875249e-15
  outer loop
    vertex 1909.4563326833363 1413.9045917120159 3.74999999999981
    vertex 1909.4563326833363 1395.4045917120156 20.566235334723356
    vertex 1909.4563326833363 1395.4045917120156 3.74999999999981
  endloop
endfacet
facet normal 1.0 -1.6043203575997441e-15 1.4132121021875249e-15
  outer loop
    vertex 1909.4563326833363 1395.4045917120156 20.566235334723356
    vertex 1909.4563326833363 1413.9045917120159 3.74999999999981
    vertex 1909.4563326833363 1411.9045917120156 20.566235334723356
  endloop
endfacet
facet normal 1.0 -1.6043203575997441e-15 1.4132121021875249e-15
  outer loop
    vertex 1909.4563326833363 1411.9045917120156 20.566235334723356
    vertex 1909.4563326833363 1413.9045917120159 3.74999999999981
    vertex 1909.4563326833363 1411.9045917120159 32.80903533472307
  endloop
endfacet
facet normal 1.0 -1.6043203575997441e-15 1.4132121021875249e-15
  outer loop
    vertex 1909.4563326833363 1411.9045917120159 32.80903533472307
    vertex 1909.4563326833363 1413.9045917120159 3.74999999999981
    vertex 1909.4563326833363 1411.9045917120159 50.50000000000001
  endloop
endfacet
facet normal 1.0 -1.6043203575997441e-15 1.4132121021875249e-15
  outer loop
    vertex 1909.4563326833363 1411.9045917120159 50.50000000000001
    vertex 1909.4563326833363 1413.9045917120159 3.74999999999981
    vertex 1909.4563326833363 1411.9045917120159 60.5
  endloop
endfacet
facet normal 1.0 -1.6043203575997441e-15 1.4132121021875249e-15
  outer loop
    vertex 1909.4563326833363 1411.9045917120159 60.5
    vertex 1909.4563326833363 1395.4045917120156 69.75
    vertex 1909.4563326833363 1395.4045917120156 60.5
  endloop
endfacet
facet normal 1.0 -1.6043203575997441e-15 1.4132121021875249e-15
  outer loop
    vertex 1909.4563326833363 1395.4045917120156 69.75
    vertex 1909.4563326833363 1411.9045917120159 60.5
    vertex 1909.4563326833363 1413.9045917120159 69.75
  endloop
endfacet
facet normal 1.0 -1.6043203575997441e-15 1.4132121021875249e-15
  outer loop
    vertex 1909.4563326833363 1413.9045917120159 69.75
    vertex 1909.4563326833363 1411.9045917120159 60.5
    vertex 1909.4563326833363 1413.9045917120159 3.74999999999981
  endloop
endfacet
facet normal 1.0 -1.6043203575997441e-15 1.4132121021875249e-15
  outer loop
    vertex 1909.4563326833363 1404.754591712013 45.0
    vertex 1909.4563326833363 1395.4045917120156 50.50000000000001
    vertex 1909.4563326833363 1395.4045917120156 45.0
  endloop
endfacet
facet normal 1.0 -1.6043203575997441e-15 1.4132121021875249e-15
  outer loop
    vertex 1909.4563326833363 1395.4045917120156 50.50000000000001
    vertex 1909.4563326833363 1404.754591712013 45.0
    vertex 1909.4563326833363 1411.9045917120159 50.50000000000001
  endloop
endfacet
facet normal 1.0 -1.6043203575997441e-15 1.4132121021875249e-15
  outer loop
    vertex 1909.4563326833363 1411.9045917120159 50.50000000000001
    vertex 1909.4563326833363 1404.754591712013 45.0
    vertex 1909.4563326833363 1411.9045917120159 32.80903533472307
  endloop
endfacet
facet normal 1.0 0.0 0.0
  outer loop
    vertex 1905.9563326833363 1393.4045917120156 1.7499999999998106
    vertex 1905.9563326833363 1395.4045917120156 3.74999999999981
    vertex 1905.9563326833363 1393.4045917120156 20.566235334723356
  endloop
endfacet
facet normal 1.0 0.0 0.0
  outer loop
    vertex 1905.9563326833363 1395.4045917120156 3.74999999999981
    vertex 1905.9563326833363 1393.4045917120156 1.7499999999998106
    vertex 1905.9563326833363 1415.9045917120159 1.7499999999998106
  endloop
endfacet
facet normal 1.0 0.0 0.0
  outer loop
    vertex 1905.9563326833363 1395.4045917120156 3.74999999999981
    vertex 1905.9563326833363 1415.9045917120159 1.7499999999998106
    vertex 1905.9563326833363 1413.9045917120159 3.7499999999998113
  endloop
endfacet
facet normal 1.0 0.0 0.0
  outer loop
    vertex 1905.9563326833363 1413.9045917120159 3.7499999999998113
    vertex 1905.9563326833363 1415.9045917120159 1.7499999999998106
    vertex 1905.9563326833363 1413.9045917120159 37.99999999998075
  endloop
endfacet
facet normal 1.0 0.0 0.0
  outer loop
    vertex 1905.9563326833363 1413.9045917120159 37.99999999998075
    vertex 1905.9563326833363 1415.9045917120159 1.7499999999998106
    vertex 1905.9563326833363 1413.9045917120159 45.0
  endloop
endfacet
facet normal 1.0 0.0 0.0
  outer loop
    vertex 1905.9563326833363 1413.9045917120159 45.0
    vertex 1905.9563326833363 1415.9045917120159 1.7499999999998106
    vertex 1905.9563326833363 1413.9045917120159 69.75
  endloop
endfacet
facet normal 1.0 0.0 0.0
  outer loop
    vertex 1905.9563326833363 1395.4045917120156 60.5
    vertex 1905.9563326833363 1393.4045917120156 71.74999999999999
    vertex 1905.9563326833363 1393.4045917120156 60.5
  endloop
endfacet
facet normal 1.0 0.0 0.0
  outer loop
    vertex 1905.9563326833363 1393.4045917120156 71.74999999999999
    vertex 1905.9563326833363 1395.4045917120156 60.5
    vertex 1905.9563326833363 1395.4045917120156 69.75
  endloop
endfacet
facet normal 1.0 0.0 0.0
  outer loop
    vertex 1905.9563326833363 1393.4045917120156 71.74999999999999
    vertex 1905.9563326833363 1395.4045917120156 69.75
    vertex 1905.9563326833363 1415.9045917120159 71.74999999999999
  endloop
endfacet
facet normal 1.0 0.0 0.0
  outer loop
    vertex 1905.9563326833363 1415.9045917120159 71.74999999999999
    vertex 1905.9563326833363 1395.4045917120156 69.75
    vertex 1905.9563326833363 1413.9045917120159 69.75
  endloop
endfacet
facet normal 1.0 0.0 0.0
  outer loop
    vertex 1905.9563326833363 1415.9045917120159 71.74999999999999
    vertex 1905.9563326833363 1413.9045917120159 69.75
    vertex 1905.9563326833363 1415.9045917120159 1.7499999999998106
  endloop
endfacet
facet normal 1.0 0.0 0.0
  outer loop
    vertex 1905.9563326833363 1395.4045917120156 20.566235334723356
    vertex 1905.9563326833363 1393.4045917120156 20.566235334723356
    vertex 1905.9563326833363 1395.4045917120156 3.74999999999981
  endloop
endfacet
facet normal 0.0 -1.0 0.0
  outer loop
    vertex 1909.4563326833363 1395.4045917120156 20.566235334723356
    vertex 1905.9563326833363 1395.4045917120156 3.74999999999981
    vertex 1909.4563326833363 1395.4045917120156 3.74999999999981
  endloop
endfacet
facet normal 0.0 -1.0 0.0
  outer loop
    vertex 1905.9563326833363 1395.4045917120156 3.74999999999981
    vertex 1909.4563326833363 1395.4045917120156 20.566235334723356
    vertex 1905.9563326833363 1395.4045917120156 20.566235334723356
  endloop
endfacet
facet normal 0.0 -1.0 0.0
  outer loop
    vertex 1905.9563326833363 1393.4045917120156 20.566235334723356
    vertex 1903.9563326833363 1393.4045917120156 1.7499999999998106
    vertex 1905.9563326833363 1393.4045917120156 1.7499999999998106
  endloop
endfacet
facet normal 0.0 -1.0 0.0
  outer loop
    vertex 1903.9563326833363 1393.4045917120156 1.7499999999998106
    vertex 1905.9563326833363 1393.4045917120156 20.566235334723356
    vertex 1903.9563326833368 1393.4045917120156 20.566235334723356
  endloop
endfacet
endsolid Main v1
