solid Main
facet normal 0.0 -1.0 0.0
  outer loop
    vertex 501.71372898457633 219.1436562209638 45.99999999999997
    vertex 449.78663587285746 219.1436562209641 52.49999999999995
    vertex 371.71372898457633 219.1436562209638 45.999999999999986
  endloop
endfacet
facet normal 0.0 -1.0 0.0
  outer loop
    vertex 449.78663587285746 219.1436562209641 52.49999999999995
    vertex 501.71372898457633 219.1436562209638 45.99999999999997
    vertex 451.4689596660238 219.1436562209641 52.72148212912101
  endloop
endfacet
facet normal 0.0 -1.0 0.0
  outer loop
    vertex 451.4689596660238 219.1436562209641 52.72148212912101
    vertex 501.71372898457633 219.1436562209638 45.99999999999997
    vertex 501.71372898457633 219.1436562209638 67.09326673973656
  endloop
endfacet
facet normal 0.0 -1.0 0.0
  outer loop
    vertex 451.4689596660238 219.1436562209641 52.72148212912101
    vertex 501.71372898457633 219.1436562209638 67.09326673973656
    vertex 453.0366358728574 219.1436562209641 53.370834875401094
  endloop
endfacet
facet normal 0.0 -1.0 0.0
  outer loop
    vertex 453.0366358728574 219.1436562209641 53.370834875401094
    vertex 501.71372898457633 219.1436562209638 67.09326673973656
    vertex 454.38282995057006 219.1436562209641 54.40380592228739
  endloop
endfacet
facet normal 0.0 -1.0 0.0
  outer loop
    vertex 454.38282995057006 219.1436562209641 54.40380592228739
    vertex 501.71372898457633 219.1436562209638 67.09326673973656
    vertex 455.41580099745636 219.1436562209641 55.74999999999996
  endloop
endfacet
facet normal 0.0 -1.0 0.0
  outer loop
    vertex 455.41580099745636 219.1436562209641 55.74999999999996
    vertex 501.71372898457633 219.1436562209638 67.09326673973656
    vertex 456.0651537437364 219.1436562209641 57.31767620683358
  endloop
endfacet
facet normal 0.0 -1.0 0.0
  outer loop
    vertex 456.0651537437364 219.1436562209641 57.31767620683358
    vertex 501.71372898457633 219.1436562209638 67.09326673973656
    vertex 456.2866358728574 219.1436562209641 58.99999999999996
  endloop
endfacet
facet normal 0.0 -1.0 0.0
  outer loop
    vertex 456.2866358728574 219.1436562209641 58.99999999999996
    vertex 501.71372898457633 219.1436562209638 67.09326673973656
    vertex 456.0651537437364 219.1436562209641 60.68232379316634
  endloop
endfacet
facet normal 0.0 -1.0 0.0
  outer loop
    vertex 456.0651537437364 219.1436562209641 60.68232379316634
    vertex 501.71372898457633 219.1436562209638 67.09326673973656
    vertex 455.41580099745636 219.1436562209641 62.24999999999995
  endloop
endfacet
facet normal 0.0 -1.0 0.0
  outer loop
    vertex 455.41580099745636 219.1436562209641 62.24999999999995
    vertex 501.71372898457633 219.1436562209638 67.09326673973656
    vertex 454.38282995057006 219.1436562209641 63.59619407771252
  endloop
endfacet
facet normal 0.0 -1.0 0.0
  outer loop
    vertex 454.38282995057006 219.1436562209641 63.59619407771252
    vertex 501.71372898457633 219.1436562209638 67.09326673973656
    vertex 453.0366358728574 219.1436562209641 64.62916512459881
  endloop
endfacet
facet normal 0.0 -1.0 0.0
  outer loop
    vertex 453.0366358728574 219.1436562209641 64.62916512459881
    vertex 501.71372898457633 219.1436562209638 67.09326673973656
    vertex 451.4689596660238 219.1436562209641 65.2785178708789
  endloop
endfacet
facet normal 0.0 -1.0 0.0
  outer loop
    vertex 451.4689596660238 219.1436562209641 65.2785178708789
    vertex 501.71372898457633 219.1436562209638 67.09326673973656
    vertex 449.78663587285746 219.1436562209641 65.49999999999996
  endloop
endfacet
facet normal 0.0 -1.0 0.0
  outer loop
    vertex 449.78663587285746 219.1436562209641 65.49999999999996
    vertex 501.71372898457633 219.1436562209638 67.09326673973656
    vertex 423.64082209629504 219.14365622096403 65.49999999999999
  endloop
endfacet
facet normal 0.0 -1.0 0.0
  outer loop
    vertex 371.71372898457633 219.1436562209638 45.999999999999986
    vertex 421.95849830312864 219.14365622096403 52.72148212912103
    vertex 371.71372898457633 219.1436562209638 67.09326673973656
  endloop
endfacet
facet normal 0.0 -1.0 0.0
  outer loop
    vertex 421.95849830312864 219.14365622096403 52.72148212912103
    vertex 371.71372898457633 219.1436562209638 45.999999999999986
    vertex 423.64082209629504 219.14365622096403 52.49999999999997
  endloop
endfacet
facet normal 0.0 -1.0 0.0
  outer loop
    vertex 423.64082209629504 219.14365622096403 52.49999999999997
    vertex 371.71372898457633 219.1436562209638 45.999999999999986
    vertex 449.78663587285746 219.1436562209641 52.49999999999995
  endloop
endfacet
facet normal 0.0 -1.0 0.0
  outer loop
    vertex 371.71372898457633 219.1436562209638 67.09326673973656
    vertex 421.95849830312864 219.14365622096403 52.72148212912103
    vertex 420.39082209629504 219.14365622096403 53.37083487540112
  endloop
endfacet
facet normal 0.0 -1.0 0.0
  outer loop
    vertex 371.71372898457633 219.1436562209638 67.09326673973656
    vertex 420.39082209629504 219.14365622096403 53.37083487540112
    vertex 419.04462801858244 219.14365622096403 54.40380592228741
  endloop
endfacet
facet normal 0.0 -1.0 0.0
  outer loop
    vertex 371.71372898457633 219.1436562209638 67.09326673973656
    vertex 419.04462801858244 219.14365622096403 54.40380592228741
    vertex 418.01165697169614 219.14365622096403 55.74999999999998
  endloop
endfacet
facet normal 0.0 -1.0 0.0
  outer loop
    vertex 371.71372898457633 219.1436562209638 67.09326673973656
    vertex 418.01165697169614 219.14365622096403 55.74999999999998
    vertex 417.36230422541604 219.14365622096403 57.3176762068336
  endloop
endfacet
facet normal 0.0 -1.0 0.0
  outer loop
    vertex 371.71372898457633 219.1436562209638 67.09326673973656
    vertex 417.36230422541604 219.14365622096403 57.3176762068336
    vertex 417.1408220962951 219.14365622096403 58.99999999999998
  endloop
endfacet
facet normal 0.0 -1.0 0.0
  outer loop
    vertex 371.71372898457633 219.1436562209638 67.09326673973656
    vertex 417.1408220962951 219.14365622096403 58.99999999999998
    vertex 417.36230422541604 219.14365622096403 60.68232379316636
  endloop
endfacet
facet normal 0.0 -1.0 0.0
  outer loop
    vertex 371.71372898457633 219.1436562209638 67.09326673973656
    vertex 417.36230422541604 219.14365622096403 60.68232379316636
    vertex 418.01165697169614 219.14365622096403 62.24999999999998
  endloop
endfacet
facet normal 0.0 -1.0 0.0
  outer loop
    vertex 371.71372898457633 219.1436562209638 67.09326673973656
    vertex 418.01165697169614 219.14365622096403 62.24999999999998
    vertex 419.04462801858244 219.14365622096403 63.59619407771254
  endloop
endfacet
facet normal 0.0 -1.0 0.0
  outer loop
    vertex 371.71372898457633 219.1436562209638 67.09326673973656
    vertex 419.04462801858244 219.14365622096403 63.59619407771254
    vertex 420.39082209629504 219.14365622096403 64.62916512459883
  endloop
endfacet
facet normal 0.0 -1.0 0.0
  outer loop
    vertex 371.71372898457633 219.1436562209638 67.09326673973656
    vertex 420.39082209629504 219.14365622096403 64.62916512459883
    vertex 421.95849830312864 219.14365622096403 65.27851787087893
  endloop
endfacet
facet normal 0.0 -1.0 0.0
  outer loop
    vertex 371.71372898457633 219.1436562209638 67.09326673973656
    vertex 421.95849830312864 219.14365622096403 65.27851787087893
    vertex 423.64082209629504 219.14365622096403 65.49999999999999
  endloop
endfacet
facet normal 0.0 -1.0 0.0
  outer loop
    vertex 371.71372898457633 219.1436562209638 67.09326673973656
    vertex 423.64082209629504 219.14365622096403 65.49999999999999
    vertex 501.71372898457633 219.1436562209638 67.09326673973656
  endloop
endfacet
facet normal 0.0 -1.0 0.0
  outer loop
    vertex 371.71372898457633 219.1436562209638 67.09326673973656
    vertex 501.71372898457633 219.1436562209638 67.09326673973656
    vertex 496.7137289845762 219.1436562209638 72.09326673973656
  endloop
endfacet
facet normal 0.0 -1.0 0.0
  outer loop
    vertex 371.71372898457633 219.1436562209638 67.09326673973656
    vertex 496.7137289845762 219.1436562209638 72.09326673973656
    vertex 376.7137289845764 219.1436562209638 72.09326673973656
  endloop
endfacet
facet normal 0.0 -1.0 0.0
  outer loop
    vertex 448.10431207969106 219.1436562209641 52.72148212912101
    vertex 423.64082209629504 219.14365622096403 52.49999999999997
    vertex 449.78663587285746 219.1436562209641 52.49999999999995
  endloop
endfacet
facet normal 0.0 -1.0 0.0
  outer loop
    vertex 423.64082209629504 219.14365622096403 52.49999999999997
    vertex 448.10431207969106 219.1436562209641 52.72148212912101
    vertex 425.32314588946144 219.14365622096403 52.72148212912103
  endloop
endfacet
facet normal 0.0 -1.0 0.0
  outer loop
    vertex 425.32314588946144 219.14365622096403 52.72148212912103
    vertex 448.10431207969106 219.1436562209641 52.72148212912101
    vertex 446.53663587285746 219.1436562209641 53.370834875401094
  endloop
endfacet
facet normal 0.0 -1.0 0.0
  outer loop
    vertex 425.32314588946144 219.14365622096403 52.72148212912103
    vertex 446.53663587285746 219.1436562209641 53.370834875401094
    vertex 426.89082209629504 219.14365622096403 53.37083487540112
  endloop
endfacet
facet normal 0.0 -1.0 0.0
  outer loop
    vertex 426.89082209629504 219.14365622096403 53.37083487540112
    vertex 446.53663587285746 219.1436562209641 53.370834875401094
    vertex 445.19044179514486 219.1436562209641 54.40380592228739
  endloop
endfacet
facet normal 0.0 -1.0 0.0
  outer loop
    vertex 426.89082209629504 219.14365622096403 53.37083487540112
    vertex 445.19044179514486 219.1436562209641 54.40380592228739
    vertex 428.23701617400764 219.14365622096403 54.40380592228741
  endloop
endfacet
facet normal 0.0 -1.0 0.0
  outer loop
    vertex 428.23701617400764 219.14365622096403 54.40380592228741
    vertex 445.19044179514486 219.1436562209641 54.40380592228739
    vertex 444.15747074825856 219.1436562209641 55.74999999999996
  endloop
endfacet
facet normal 0.0 -1.0 0.0
  outer loop
    vertex 428.23701617400764 219.14365622096403 54.40380592228741
    vertex 444.15747074825856 219.1436562209641 55.74999999999996
    vertex 429.26998722089394 219.14365622096403 55.74999999999998
  endloop
endfacet
facet normal 0.0 -1.0 0.0
  outer loop
    vertex 429.26998722089394 219.14365622096403 55.74999999999998
    vertex 444.15747074825856 219.1436562209641 55.74999999999996
    vertex 443.50811800197846 219.1436562209641 57.31767620683358
  endloop
endfacet
facet normal 0.0 -1.0 0.0
  outer loop
    vertex 429.26998722089394 219.14365622096403 55.74999999999998
    vertex 443.50811800197846 219.1436562209641 57.31767620683358
    vertex 429.91933996717404 219.14365622096403 57.3176762068336
  endloop
endfacet
facet normal 0.0 -1.0 0.0
  outer loop
    vertex 429.91933996717404 219.14365622096403 57.3176762068336
    vertex 443.50811800197846 219.1436562209641 57.31767620683358
    vertex 443.28663587285746 219.1436562209641 58.99999999999996
  endloop
endfacet
facet normal 0.0 -1.0 0.0
  outer loop
    vertex 429.91933996717404 219.14365622096403 57.3176762068336
    vertex 443.28663587285746 219.1436562209641 58.99999999999996
    vertex 430.140822096295 219.14365622096403 58.99999999999998
  endloop
endfacet
facet normal 0.0 -1.0 0.0
  outer loop
    vertex 430.140822096295 219.14365622096403 58.99999999999998
    vertex 443.28663587285746 219.1436562209641 58.99999999999996
    vertex 443.50811800197846 219.1436562209641 60.68232379316634
  endloop
endfacet
facet normal 0.0 -1.0 0.0
  outer loop
    vertex 430.140822096295 219.14365622096403 58.99999999999998
    vertex 443.50811800197846 219.1436562209641 60.68232379316634
    vertex 429.91933996717404 219.14365622096403 60.68232379316636
  endloop
endfacet
facet normal 0.0 -1.0 0.0
  outer loop
    vertex 429.91933996717404 219.14365622096403 60.68232379316636
    vertex 443.50811800197846 219.1436562209641 60.68232379316634
    vertex 444.15747074825856 219.1436562209641 62.24999999999995
  endloop
endfacet
facet normal 0.0 -1.0 0.0
  outer loop
    vertex 429.91933996717404 219.14365622096403 60.68232379316636
    vertex 444.15747074825856 219.1436562209641 62.24999999999995
    vertex 429.26998722089394 219.14365622096403 62.24999999999998
  endloop
endfacet
facet normal 0.0 -1.0 0.0
  outer loop
    vertex 429.26998722089394 219.14365622096403 62.24999999999998
    vertex 444.15747074825856 219.1436562209641 62.24999999999995
    vertex 445.19044179514486 219.1436562209641 63.59619407771252
  endloop
endfacet
facet normal 0.0 -1.0 0.0
  outer loop
    vertex 429.26998722089394 219.14365622096403 62.24999999999998
    vertex 445.19044179514486 219.1436562209641 63.59619407771252
    vertex 428.23701617400764 219.14365622096403 63.59619407771254
  endloop
endfacet
facet normal 0.0 -1.0 0.0
  outer loop
    vertex 428.23701617400764 219.14365622096403 63.59619407771254
    vertex 445.19044179514486 219.1436562209641 63.59619407771252
    vertex 446.53663587285746 219.1436562209641 64.62916512459881
  endloop
endfacet
facet normal 0.0 -1.0 0.0
  outer loop
    vertex 428.23701617400764 219.14365622096403 63.59619407771254
    vertex 446.53663587285746 219.1436562209641 64.62916512459881
    vertex 426.89082209629504 219.14365622096403 64.62916512459883
  endloop
endfacet
facet normal 0.0 -1.0 0.0
  outer loop
    vertex 426.89082209629504 219.14365622096403 64.62916512459883
    vertex 446.53663587285746 219.1436562209641 64.62916512459881
    vertex 448.10431207969106 219.1436562209641 65.2785178708789
  endloop
endfacet
facet normal 0.0 -1.0 0.0
  outer loop
    vertex 426.89082209629504 219.14365622096403 64.62916512459883
    vertex 448.10431207969106 219.1436562209641 65.2785178708789
    vertex 425.32314588946144 219.14365622096403 65.27851787087893
  endloop
endfacet
facet normal 0.0 -1.0 0.0
  outer loop
    vertex 425.32314588946144 219.14365622096403 65.27851787087893
    vertex 448.10431207969106 219.1436562209641 65.2785178708789
    vertex 449.78663587285746 219.1436562209641 65.49999999999996
  endloop
endfacet
facet normal 0.0 -1.0 0.0
  outer loop
    vertex 425.32314588946144 219.14365622096403 65.27851787087893
    vertex 449.78663587285746 219.1436562209641 65.49999999999996
    vertex 423.64082209629504 219.14365622096403 65.49999999999999
  endloop
endfacet
facet normal -1.0 0.0 0.0
  outer loop
    vertex 371.71372898457633 219.1436562209638 45.999999999999986
    vertex 371.71372898457633 222.1436562209638 67.09326673973656
    vertex 371.71372898457633 222.1436562209638 45.99999999999999
  endloop
endfacet
facet normal -1.0 0.0 0.0
  outer loop
    vertex 371.71372898457633 222.1436562209638 67.09326673973656
    vertex 371.71372898457633 219.1436562209638 45.999999999999986
    vertex 371.71372898457633 219.1436562209638 67.09326673973656
  endloop
endfacet
facet normal 0.0 0.0 1.0
  outer loop
    vertex 376.7137289845764 225.1436562209638 72.09326673973656
    vertex 496.7137289845762 219.1436562209638 72.09326673973656
    vertex 496.7137289845762 225.1436562209638 72.09326673973656
  endloop
endfacet
facet normal 0.0 0.0 1.0
  outer loop
    vertex 496.7137289845762 219.1436562209638 72.09326673973656
    vertex 376.7137289845764 225.1436562209638 72.09326673973656
    vertex 376.7137289845764 219.1436562209638 72.09326673973656
  endloop
endfacet
facet normal 0.7071067811865387 2.3495557278797457e-15 0.7071067811865565
  outer loop
    vertex 496.7137289845762 225.1436562209638 72.09326673973656
    vertex 499.7137289845763 222.1436562209638 69.09326673973656
    vertex 499.7137289845763 225.1436562209638 69.09326673973656
  endloop
endfacet
facet normal 0.7071067811865387 2.3495557278797457e-15 0.7071067811865565
  outer loop
    vertex 499.7137289845763 222.1436562209638 69.09326673973656
    vertex 501.71372898457633 219.1436562209638 67.09326673973656
    vertex 501.71372898457633 222.1436562209638 67.09326673973656
  endloop
endfacet
facet normal 0.7071067811865387 2.3495557278797457e-15 0.7071067811865565
  outer loop
    vertex 501.71372898457633 219.1436562209638 67.09326673973656
    vertex 499.7137289845763 222.1436562209638 69.09326673973656
    vertex 496.7137289845762 219.1436562209638 72.09326673973656
  endloop
endfacet
facet normal 0.7071067811865387 2.3495557278797457e-15 0.7071067811865565
  outer loop
    vertex 496.7137289845762 219.1436562209638 72.09326673973656
    vertex 499.7137289845763 222.1436562209638 69.09326673973656
    vertex 496.7137289845762 225.1436562209638 72.09326673973656
  endloop
endfacet
facet normal 1.0 0.0 0.0
  outer loop
    vertex 501.71372898457633 219.1436562209638 67.09326673973656
    vertex 501.71372898457633 222.1436562209638 45.99999999999997
    vertex 501.71372898457633 222.1436562209638 67.09326673973656
  endloop
endfacet
facet normal 1.0 0.0 0.0
  outer loop
    vertex 501.71372898457633 222.1436562209638 45.99999999999997
    vertex 501.71372898457633 219.1436562209638 67.09326673973656
    vertex 501.71372898457633 219.1436562209638 45.99999999999997
  endloop
endfacet
facet normal -0.7071067811865414 5.828355293965328e-16 0.7071067811865538
  outer loop
    vertex 373.71372898457633 225.1436562209638 69.09326673973656
    vertex 376.7137289845764 219.1436562209638 72.09326673973656
    vertex 376.7137289845764 225.1436562209638 72.09326673973656
  endloop
endfacet
facet normal -0.7071067811865414 5.828355293965328e-16 0.7071067811865538
  outer loop
    vertex 376.7137289845764 219.1436562209638 72.09326673973656
    vertex 373.71372898457633 225.1436562209638 69.09326673973656
    vertex 373.71372898457633 222.1436562209638 69.09326673973656
  endloop
endfacet
facet normal -0.7071067811865414 5.828355293965328e-16 0.7071067811865538
  outer loop
    vertex 376.7137289845764 219.1436562209638 72.09326673973656
    vertex 373.71372898457633 222.1436562209638 69.09326673973656
    vertex 371.71372898457633 219.1436562209638 67.09326673973656
  endloop
endfacet
facet normal -0.7071067811865414 5.828355293965328e-16 0.7071067811865538
  outer loop
    vertex 371.71372898457633 219.1436562209638 67.09326673973656
    vertex 373.71372898457633 222.1436562209638 69.09326673973656
    vertex 371.71372898457633 222.1436562209638 67.09326673973656
  endloop
endfacet
facet normal 0.0 1.0 0.0
  outer loop
    vertex 423.64082209629504 222.14365622096375 52.49999999999997
    vertex 448.10431207969106 222.1436562209638 52.72148212912101
    vertex 449.78663587285746 222.1436562209638 52.49999999999995
  endloop
endfacet
facet normal 0.0 1.0 0.0
  outer loop
    vertex 448.10431207969106 222.1436562209638 52.72148212912101
    vertex 423.64082209629504 222.14365622096375 52.49999999999997
    vertex 425.32314588946144 222.14365622096375 52.72148212912103
  endloop
endfacet
facet normal 0.0 1.0 0.0
  outer loop
    vertex 448.10431207969106 222.1436562209638 52.72148212912101
    vertex 425.32314588946144 222.14365622096375 52.72148212912103
    vertex 446.53663587285746 222.1436562209638 53.370834875401094
  endloop
endfacet
facet normal 0.0 1.0 0.0
  outer loop
    vertex 446.53663587285746 222.1436562209638 53.370834875401094
    vertex 425.32314588946144 222.14365622096375 52.72148212912103
    vertex 426.89082209629504 222.14365622096375 53.37083487540112
  endloop
endfacet
facet normal 0.0 1.0 0.0
  outer loop
    vertex 446.53663587285746 222.1436562209638 53.370834875401094
    vertex 426.89082209629504 222.14365622096375 53.37083487540112
    vertex 445.19044179514486 222.1436562209638 54.40380592228739
  endloop
endfacet
facet normal 0.0 1.0 0.0
  outer loop
    vertex 445.19044179514486 222.1436562209638 54.40380592228739
    vertex 426.89082209629504 222.14365622096375 53.37083487540112
    vertex 428.23701617400764 222.14365622096375 54.40380592228741
  endloop
endfacet
facet normal 0.0 1.0 0.0
  outer loop
    vertex 445.19044179514486 222.1436562209638 54.40380592228739
    vertex 428.23701617400764 222.14365622096375 54.40380592228741
    vertex 444.15747074825856 222.1436562209638 55.74999999999996
  endloop
endfacet
facet normal 0.0 1.0 0.0
  outer loop
    vertex 444.15747074825856 222.1436562209638 55.74999999999996
    vertex 428.23701617400764 222.14365622096375 54.40380592228741
    vertex 429.26998722089394 222.14365622096375 55.74999999999998
  endloop
endfacet
facet normal 0.0 1.0 0.0
  outer loop
    vertex 444.15747074825856 222.1436562209638 55.74999999999996
    vertex 429.26998722089394 222.14365622096375 55.74999999999998
    vertex 443.50811800197846 222.1436562209638 57.31767620683358
  endloop
endfacet
facet normal 0.0 1.0 0.0
  outer loop
    vertex 443.50811800197846 222.1436562209638 57.31767620683358
    vertex 429.26998722089394 222.14365622096375 55.74999999999998
    vertex 429.91933996717404 222.14365622096375 57.3176762068336
  endloop
endfacet
facet normal 0.0 1.0 0.0
  outer loop
    vertex 443.50811800197846 222.1436562209638 57.31767620683358
    vertex 429.91933996717404 222.14365622096375 57.3176762068336
    vertex 443.28663587285746 222.1436562209638 58.99999999999996
  endloop
endfacet
facet normal 0.0 1.0 0.0
  outer loop
    vertex 443.28663587285746 222.1436562209638 58.99999999999996
    vertex 429.91933996717404 222.14365622096375 57.3176762068336
    vertex 430.140822096295 222.14365622096375 58.99999999999998
  endloop
endfacet
facet normal 0.0 1.0 0.0
  outer loop
    vertex 443.28663587285746 222.1436562209638 58.99999999999996
    vertex 430.140822096295 222.14365622096375 58.99999999999998
    vertex 443.50811800197846 222.1436562209638 60.68232379316634
  endloop
endfacet
facet normal 0.0 1.0 0.0
  outer loop
    vertex 443.50811800197846 222.1436562209638 60.68232379316634
    vertex 430.140822096295 222.14365622096375 58.99999999999998
    vertex 429.91933996717404 222.14365622096375 60.68232379316636
  endloop
endfacet
facet normal 0.0 1.0 0.0
  outer loop
    vertex 443.50811800197846 222.1436562209638 60.68232379316634
    vertex 429.91933996717404 222.14365622096375 60.68232379316636
    vertex 444.15747074825856 222.1436562209638 62.24999999999995
  endloop
endfacet
facet normal 0.0 1.0 0.0
  outer loop
    vertex 444.15747074825856 222.1436562209638 62.24999999999995
    vertex 429.91933996717404 222.14365622096375 60.68232379316636
    vertex 429.26998722089394 222.14365622096375 62.24999999999998
  endloop
endfacet
facet normal 0.0 1.0 0.0
  outer loop
    vertex 444.15747074825856 222.1436562209638 62.24999999999995
    vertex 429.26998722089394 222.14365622096375 62.24999999999998
    vertex 445.19044179514486 222.1436562209638 63.59619407771252
  endloop
endfacet
facet normal 0.0 1.0 0.0
  outer loop
    vertex 445.19044179514486 222.1436562209638 63.59619407771252
    vertex 429.26998722089394 222.14365622096375 62.24999999999998
    vertex 428.23701617400764 222.14365622096375 63.59619407771254
  endloop
endfacet
facet normal 0.0 1.0 0.0
  outer loop
    vertex 445.19044179514486 222.1436562209638 63.59619407771252
    vertex 428.23701617400764 222.14365622096375 63.59619407771254
    vertex 446.53663587285746 222.1436562209638 64.62916512459881
  endloop
endfacet
facet normal 0.0 1.0 0.0
  outer loop
    vertex 446.53663587285746 222.1436562209638 64.62916512459881
    vertex 428.23701617400764 222.14365622096375 63.59619407771254
    vertex 426.89082209629504 222.14365622096375 64.62916512459883
  endloop
endfacet
facet normal 0.0 1.0 0.0
  outer loop
    vertex 446.53663587285746 222.1436562209638 64.62916512459881
    vertex 426.89082209629504 222.14365622096375 64.62916512459883
    vertex 448.10431207969106 222.1436562209638 65.2785178708789
  endloop
endfacet
facet normal 0.0 1.0 0.0
  outer loop
    vertex 448.10431207969106 222.1436562209638 65.2785178708789
    vertex 426.89082209629504 222.14365622096375 64.62916512459883
    vertex 425.32314588946144 222.14365622096375 65.27851787087893
  endloop
endfacet
facet normal 0.0 1.0 0.0
  outer loop
    vertex 448.10431207969106 222.1436562209638 65.2785178708789
    vertex 425.32314588946144 222.14365622096375 65.27851787087893
    vertex 449.78663587285746 222.1436562209638 65.49999999999996
  endloop
endfacet
facet normal 0.0 1.0 0.0
  outer loop
    vertex 449.78663587285746 222.1436562209638 65.49999999999996
    vertex 425.32314588946144 222.14365622096375 65.27851787087893
    vertex 423.64082209629504 222.14365622096375 65.49999999999999
  endloop
endfacet
facet normal 0.0 1.0 0.0
  outer loop
    vertex 371.71372898457633 222.1436562209638 45.99999999999999
    vertex 423.64082209629504 222.14365622096375 52.49999999999997
    vertex 449.78663587285746 222.1436562209638 52.49999999999995
  endloop
endfacet
facet normal 0.0 1.0 0.0
  outer loop
    vertex 423.64082209629504 222.14365622096375 52.49999999999997
    vertex 371.71372898457633 222.1436562209638 45.99999999999999
    vertex 421.95849830312864 222.14365622096375 52.72148212912103
  endloop
endfacet
facet normal 0.0 1.0 0.0
  outer loop
    vertex 421.95849830312864 222.14365622096375 52.72148212912103
    vertex 371.71372898457633 222.1436562209638 45.99999999999999
    vertex 371.71372898457633 222.1436562209638 67.09326673973656
  endloop
endfacet
facet normal 0.0 1.0 0.0
  outer loop
    vertex 421.95849830312864 222.14365622096375 52.72148212912103
    vertex 371.71372898457633 222.1436562209638 67.09326673973656
    vertex 420.39082209629504 222.14365622096375 53.37083487540112
  endloop
endfacet
facet normal 0.0 1.0 0.0
  outer loop
    vertex 420.39082209629504 222.14365622096375 53.37083487540112
    vertex 371.71372898457633 222.1436562209638 67.09326673973656
    vertex 419.04462801858244 222.14365622096375 54.40380592228741
  endloop
endfacet
facet normal 0.0 1.0 0.0
  outer loop
    vertex 419.04462801858244 222.14365622096375 54.40380592228741
    vertex 371.71372898457633 222.1436562209638 67.09326673973656
    vertex 418.01165697169614 222.14365622096375 55.74999999999998
  endloop
endfacet
facet normal 0.0 1.0 0.0
  outer loop
    vertex 418.01165697169614 222.14365622096375 55.74999999999998
    vertex 371.71372898457633 222.1436562209638 67.09326673973656
    vertex 417.36230422541604 222.14365622096375 57.3176762068336
  endloop
endfacet
facet normal 0.0 1.0 0.0
  outer loop
    vertex 417.36230422541604 222.14365622096375 57.3176762068336
    vertex 371.71372898457633 222.1436562209638 67.09326673973656
    vertex 417.1408220962951 222.14365622096375 58.99999999999998
  endloop
endfacet
facet normal 0.0 1.0 0.0
  outer loop
    vertex 417.1408220962951 222.14365622096375 58.99999999999998
    vertex 371.71372898457633 222.1436562209638 67.09326673973656
    vertex 417.36230422541604 222.14365622096375 60.68232379316636
  endloop
endfacet
facet normal 0.0 1.0 0.0
  outer loop
    vertex 417.36230422541604 222.14365622096375 60.68232379316636
    vertex 371.71372898457633 222.1436562209638 67.09326673973656
    vertex 418.01165697169614 222.14365622096375 62.24999999999998
  endloop
endfacet
facet normal 0.0 1.0 0.0
  outer loop
    vertex 418.01165697169614 222.14365622096375 62.24999999999998
    vertex 371.71372898457633 222.1436562209638 67.09326673973656
    vertex 419.04462801858244 222.14365622096375 63.59619407771254
  endloop
endfacet
facet normal 0.0 1.0 0.0
  outer loop
    vertex 419.04462801858244 222.14365622096375 63.59619407771254
    vertex 371.71372898457633 222.1436562209638 67.09326673973656
    vertex 420.39082209629504 222.14365622096375 64.62916512459883
  endloop
endfacet
facet normal 0.0 1.0 0.0
  outer loop
    vertex 420.39082209629504 222.14365622096375 64.62916512459883
    vertex 371.71372898457633 222.1436562209638 67.09326673973656
    vertex 421.95849830312864 222.14365622096375 65.27851787087893
  endloop
endfacet
facet normal 0.0 1.0 0.0
  outer loop
    vertex 421.95849830312864 222.14365622096375 65.27851787087893
    vertex 371.71372898457633 222.1436562209638 67.09326673973656
    vertex 423.64082209629504 222.14365622096375 65.49999999999999
  endloop
endfacet
facet normal 0.0 1.0 0.0
  outer loop
    vertex 501.71372898457633 222.1436562209638 45.99999999999997
    vertex 451.4689596660238 222.1436562209638 52.72148212912101
    vertex 501.71372898457633 222.1436562209638 67.09326673973656
  endloop
endfacet
facet normal 0.0 1.0 0.0
  outer loop
    vertex 451.4689596660238 222.1436562209638 52.72148212912101
    vertex 501.71372898457633 222.1436562209638 45.99999999999997
    vertex 449.78663587285746 222.1436562209638 52.49999999999995
  endloop
endfacet
facet normal 0.0 1.0 0.0
  outer loop
    vertex 449.78663587285746 222.1436562209638 52.49999999999995
    vertex 501.71372898457633 222.1436562209638 45.99999999999997
    vertex 371.71372898457633 222.1436562209638 45.99999999999999
  endloop
endfacet
facet normal 0.0 1.0 0.0
  outer loop
    vertex 501.71372898457633 222.1436562209638 67.09326673973656
    vertex 451.4689596660238 222.1436562209638 52.72148212912101
    vertex 453.0366358728574 222.1436562209638 53.370834875401094
  endloop
endfacet
facet normal 0.0 1.0 0.0
  outer loop
    vertex 501.71372898457633 222.1436562209638 67.09326673973656
    vertex 453.0366358728574 222.1436562209638 53.370834875401094
    vertex 454.38282995057006 222.1436562209638 54.40380592228739
  endloop
endfacet
facet normal 0.0 1.0 0.0
  outer loop
    vertex 501.71372898457633 222.1436562209638 67.09326673973656
    vertex 454.38282995057006 222.1436562209638 54.40380592228739
    vertex 455.41580099745636 222.1436562209638 55.74999999999996
  endloop
endfacet
facet normal 0.0 1.0 0.0
  outer loop
    vertex 501.71372898457633 222.1436562209638 67.09326673973656
    vertex 455.41580099745636 222.1436562209638 55.74999999999996
    vertex 456.0651537437364 222.1436562209638 57.31767620683358
  endloop
endfacet
facet normal 0.0 1.0 0.0
  outer loop
    vertex 501.71372898457633 222.1436562209638 67.09326673973656
    vertex 456.0651537437364 222.1436562209638 57.31767620683358
    vertex 456.2866358728574 222.1436562209638 58.99999999999996
  endloop
endfacet
facet normal 0.0 1.0 0.0
  outer loop
    vertex 501.71372898457633 222.1436562209638 67.09326673973656
    vertex 456.2866358728574 222.1436562209638 58.99999999999996
    vertex 456.0651537437364 222.1436562209638 60.68232379316634
  endloop
endfacet
facet normal 0.0 1.0 0.0
  outer loop
    vertex 501.71372898457633 222.1436562209638 67.09326673973656
    vertex 456.0651537437364 222.1436562209638 60.68232379316634
    vertex 455.41580099745636 222.1436562209638 62.24999999999995
  endloop
endfacet
facet normal 0.0 1.0 0.0
  outer loop
    vertex 501.71372898457633 222.1436562209638 67.09326673973656
    vertex 455.41580099745636 222.1436562209638 62.24999999999995
    vertex 454.38282995057006 222.1436562209638 63.59619407771252
  endloop
endfacet
facet normal 0.0 1.0 0.0
  outer loop
    vertex 501.71372898457633 222.1436562209638 67.09326673973656
    vertex 454.38282995057006 222.1436562209638 63.59619407771252
    vertex 453.0366358728574 222.1436562209638 64.62916512459881
  endloop
endfacet
facet normal 0.0 1.0 0.0
  outer loop
    vertex 501.71372898457633 222.1436562209638 67.09326673973656
    vertex 453.0366358728574 222.1436562209638 64.62916512459881
    vertex 451.4689596660238 222.1436562209638 65.2785178708789
  endloop
endfacet
facet normal 0.0 1.0 0.0
  outer loop
    vertex 501.71372898457633 222.1436562209638 67.09326673973656
    vertex 451.4689596660238 222.1436562209638 65.2785178708789
    vertex 449.78663587285746 222.1436562209638 65.49999999999996
  endloop
endfacet
facet normal 0.0 1.0 0.0
  outer loop
    vertex 501.71372898457633 222.1436562209638 67.09326673973656
    vertex 449.78663587285746 222.1436562209638 65.49999999999996
    vertex 423.64082209629504 222.14365622096375 65.49999999999999
  endloop
endfacet
facet normal 0.0 1.0 0.0
  outer loop
    vertex 501.71372898457633 222.1436562209638 67.09326673973656
    vertex 423.64082209629504 222.14365622096375 65.49999999999999
    vertex 371.71372898457633 222.1436562209638 67.09326673973656
  endloop
endfacet
facet normal 0.0 1.0 0.0
  outer loop
    vertex 501.71372898457633 222.1436562209638 67.09326673973656
    vertex 371.71372898457633 222.1436562209638 67.09326673973656
    vertex 373.71372898457633 222.1436562209638 69.09326673973656
  endloop
endfacet
facet normal 0.0 1.0 0.0
  outer loop
    vertex 501.71372898457633 222.1436562209638 67.09326673973656
    vertex 373.71372898457633 222.1436562209638 69.09326673973656
    vertex 499.7137289845763 222.1436562209638 69.09326673973656
  endloop
endfacet
facet normal 0.3826834323650905 5.310799471928841e-18 -0.9238795325112866
  outer loop
    vertex 420.39082209629504 219.14365622096403 64.62916512459883
    vertex 421.95849830312864 222.14365622096375 65.27851787087893
    vertex 421.95849830312864 219.14365622096403 65.27851787087893
  endloop
endfacet
facet normal 0.3826834323650905 5.310799471928841e-18 -0.9238795325112866
  outer loop
    vertex 421.95849830312864 222.14365622096375 65.27851787087893
    vertex 420.39082209629504 219.14365622096403 64.62916512459883
    vertex 420.39082209629504 222.14365622096375 64.62916512459883
  endloop
endfacet
facet normal 0.6087614290087062 8.448261937364729e-18 -0.7933533402912464
  outer loop
    vertex 419.04462801858244 219.14365622096403 63.59619407771254
    vertex 420.39082209629504 222.14365622096375 64.62916512459883
    vertex 420.39082209629504 219.14365622096403 64.62916512459883
  endloop
endfacet
facet normal 0.6087614290087062 8.448261937364729e-18 -0.7933533402912464
  outer loop
    vertex 420.39082209629504 222.14365622096375 64.62916512459883
    vertex 419.04462801858244 219.14365622096403 63.59619407771254
    vertex 419.04462801858244 222.14365622096375 63.59619407771254
  endloop
endfacet
facet normal 0.7933533402912364 1.1009989313182594e-17 -0.6087614290087191
  outer loop
    vertex 419.04462801858244 219.14365622096403 63.59619407771254
    vertex 418.01165697169614 222.14365622096375 62.24999999999998
    vertex 419.04462801858244 222.14365622096375 63.59619407771254
  endloop
endfacet
facet normal 0.7933533402912364 1.1009989313182594e-17 -0.6087614290087191
  outer loop
    vertex 418.01165697169614 222.14365622096375 62.24999999999998
    vertex 419.04462801858244 219.14365622096403 63.59619407771254
    vertex 418.01165697169614 219.14365622096403 62.24999999999998
  endloop
endfacet
facet normal 0.9238795325112876 1.2821404112174467e-17 -0.3826834323650881
  outer loop
    vertex 418.01165697169614 219.14365622096403 62.24999999999998
    vertex 417.36230422541604 222.14365622096375 60.68232379316636
    vertex 418.01165697169614 222.14365622096375 62.24999999999998
  endloop
endfacet
facet normal 0.9238795325112876 1.2821404112174467e-17 -0.3826834323650881
  outer loop
    vertex 417.36230422541604 222.14365622096375 60.68232379316636
    vertex 418.01165697169614 219.14365622096403 62.24999999999998
    vertex 417.36230422541604 219.14365622096403 60.68232379316636
  endloop
endfacet
facet normal 0.9914448613738154 1.375906140929383e-17 -0.13052619222001446
  outer loop
    vertex 417.36230422541604 219.14365622096403 60.68232379316636
    vertex 417.1408220962951 222.14365622096375 58.99999999999998
    vertex 417.36230422541604 222.14365622096375 60.68232379316636
  endloop
endfacet
facet normal 0.9914448613738154 1.375906140929383e-17 -0.13052619222001446
  outer loop
    vertex 417.1408220962951 222.14365622096375 58.99999999999998
    vertex 417.36230422541604 219.14365622096403 60.68232379316636
    vertex 417.1408220962951 219.14365622096403 58.99999999999998
  endloop
endfacet
facet normal 0.9914448613738154 1.375906140929383e-17 0.13052619222001446
  outer loop
    vertex 417.1408220962951 219.14365622096403 58.99999999999998
    vertex 417.36230422541604 222.14365622096375 57.3176762068336
    vertex 417.1408220962951 222.14365622096375 58.99999999999998
  endloop
endfacet
facet normal 0.9914448613738154 1.375906140929383e-17 0.13052619222001446
  outer loop
    vertex 417.36230422541604 222.14365622096375 57.3176762068336
    vertex 417.1408220962951 219.14365622096403 58.99999999999998
    vertex 417.36230422541604 219.14365622096403 57.3176762068336
  endloop
endfacet
facet normal 0.9238795325112884 1.2821404112174478e-17 0.3826834323650857
  outer loop
    vertex 417.36230422541604 219.14365622096403 57.3176762068336
    vertex 418.01165697169614 222.14365622096375 55.74999999999998
    vertex 417.36230422541604 222.14365622096375 57.3176762068336
  endloop
endfacet
facet normal 0.9238795325112884 1.2821404112174478e-17 0.3826834323650857
  outer loop
    vertex 418.01165697169614 222.14365622096375 55.74999999999998
    vertex 417.36230422541604 219.14365622096403 57.3176762068336
    vertex 418.01165697169614 219.14365622096403 55.74999999999998
  endloop
endfacet
facet normal 0.7933533402912339 1.100998931318256e-17 0.6087614290087222
  outer loop
    vertex 418.01165697169614 219.14365622096403 55.74999999999998
    vertex 419.04462801858244 222.14365622096375 54.40380592228741
    vertex 418.01165697169614 222.14365622096375 55.74999999999998
  endloop
endfacet
facet normal 0.7933533402912339 1.100998931318256e-17 0.6087614290087222
  outer loop
    vertex 419.04462801858244 222.14365622096375 54.40380592228741
    vertex 418.01165697169614 219.14365622096403 55.74999999999998
    vertex 419.04462801858244 219.14365622096403 54.40380592228741
  endloop
endfacet
facet normal 0.6087614290087062 8.448261937364729e-18 0.7933533402912464
  outer loop
    vertex 419.04462801858244 222.14365622096375 54.40380592228741
    vertex 420.39082209629504 219.14365622096403 53.37083487540112
    vertex 420.39082209629504 222.14365622096375 53.37083487540112
  endloop
endfacet
facet normal 0.6087614290087062 8.448261937364729e-18 0.7933533402912464
  outer loop
    vertex 420.39082209629504 219.14365622096403 53.37083487540112
    vertex 419.04462801858244 222.14365622096375 54.40380592228741
    vertex 419.04462801858244 219.14365622096403 54.40380592228741
  endloop
endfacet
facet normal 0.3826834323650905 5.310799471928841e-18 0.9238795325112866
  outer loop
    vertex 420.39082209629504 222.14365622096375 53.37083487540112
    vertex 421.95849830312864 219.14365622096403 52.72148212912103
    vertex 421.95849830312864 222.14365622096375 52.72148212912103
  endloop
endfacet
facet normal 0.3826834323650905 5.310799471928841e-18 0.9238795325112866
  outer loop
    vertex 421.95849830312864 219.14365622096403 52.72148212912103
    vertex 420.39082209629504 222.14365622096375 53.37083487540112
    vertex 420.39082209629504 219.14365622096403 53.37083487540112
  endloop
endfacet
facet normal 0.13052619222005366 1.811414798991907e-18 0.9914448613738102
  outer loop
    vertex 421.95849830312864 222.14365622096375 52.72148212912103
    vertex 423.64082209629504 219.14365622096403 52.49999999999997
    vertex 423.64082209629504 222.14365622096375 52.49999999999997
  endloop
endfacet
facet normal 0.13052619222005366 1.811414798991907e-18 0.9914448613738102
  outer loop
    vertex 423.64082209629504 219.14365622096403 52.49999999999997
    vertex 421.95849830312864 222.14365622096375 52.72148212912103
    vertex 421.95849830312864 219.14365622096403 52.72148212912103
  endloop
endfacet
facet normal -0.13052619222005366 -1.811414798991907e-18 0.9914448613738102
  outer loop
    vertex 423.64082209629504 222.14365622096375 52.49999999999997
    vertex 425.32314588946144 219.14365622096403 52.72148212912103
    vertex 425.32314588946144 222.14365622096375 52.72148212912103
  endloop
endfacet
facet normal -0.13052619222005366 -1.811414798991907e-18 0.9914448613738102
  outer loop
    vertex 425.32314588946144 219.14365622096403 52.72148212912103
    vertex 423.64082209629504 222.14365622096375 52.49999999999997
    vertex 423.64082209629504 219.14365622096403 52.49999999999997
  endloop
endfacet
facet normal -0.3826834323650905 -5.310799471928841e-18 0.9238795325112866
  outer loop
    vertex 425.32314588946144 222.14365622096375 52.72148212912103
    vertex 426.89082209629504 219.14365622096403 53.37083487540112
    vertex 426.89082209629504 222.14365622096375 53.37083487540112
  endloop
endfacet
facet normal -0.3826834323650905 -5.310799471928841e-18 0.9238795325112866
  outer loop
    vertex 426.89082209629504 219.14365622096403 53.37083487540112
    vertex 425.32314588946144 222.14365622096375 52.72148212912103
    vertex 425.32314588946144 219.14365622096403 52.72148212912103
  endloop
endfacet
facet normal -0.6087614290087062 -8.448261937364729e-18 0.7933533402912464
  outer loop
    vertex 426.89082209629504 222.14365622096375 53.37083487540112
    vertex 428.23701617400764 219.14365622096403 54.40380592228741
    vertex 428.23701617400764 222.14365622096375 54.40380592228741
  endloop
endfacet
facet normal -0.6087614290087062 -8.448261937364729e-18 0.7933533402912464
  outer loop
    vertex 428.23701617400764 219.14365622096403 54.40380592228741
    vertex 426.89082209629504 222.14365622096375 53.37083487540112
    vertex 426.89082209629504 219.14365622096403 53.37083487540112
  endloop
endfacet
facet normal -0.7933533402912364 -1.1009989313182594e-17 0.6087614290087191
  outer loop
    vertex 428.23701617400764 219.14365622096403 54.40380592228741
    vertex 429.26998722089394 222.14365622096375 55.74999999999998
    vertex 428.23701617400764 222.14365622096375 54.40380592228741
  endloop
endfacet
facet normal -0.7933533402912364 -1.1009989313182594e-17 0.6087614290087191
  outer loop
    vertex 429.26998722089394 222.14365622096375 55.74999999999998
    vertex 428.23701617400764 219.14365622096403 54.40380592228741
    vertex 429.26998722089394 219.14365622096403 55.74999999999998
  endloop
endfacet
facet normal -0.9238795325112876 -1.2821404112174467e-17 0.3826834323650881
  outer loop
    vertex 429.26998722089394 219.14365622096403 55.74999999999998
    vertex 429.91933996717404 222.14365622096375 57.3176762068336
    vertex 429.26998722089394 222.14365622096375 55.74999999999998
  endloop
endfacet
facet normal -0.9238795325112876 -1.2821404112174467e-17 0.3826834323650881
  outer loop
    vertex 429.91933996717404 222.14365622096375 57.3176762068336
    vertex 429.26998722089394 219.14365622096403 55.74999999999998
    vertex 429.91933996717404 219.14365622096403 57.3176762068336
  endloop
endfacet
facet normal -0.9914448613738154 -1.375906140929383e-17 0.13052619222001446
  outer loop
    vertex 429.91933996717404 219.14365622096403 57.3176762068336
    vertex 430.140822096295 222.14365622096375 58.99999999999998
    vertex 429.91933996717404 222.14365622096375 57.3176762068336
  endloop
endfacet
facet normal -0.9914448613738154 -1.375906140929383e-17 0.13052619222001446
  outer loop
    vertex 430.140822096295 222.14365622096375 58.99999999999998
    vertex 429.91933996717404 219.14365622096403 57.3176762068336
    vertex 430.140822096295 219.14365622096403 58.99999999999998
  endloop
endfacet
facet normal -0.9914448613738155 -1.3759061409293831e-17 -0.1305261922200136
  outer loop
    vertex 430.140822096295 219.14365622096403 58.99999999999998
    vertex 429.91933996717404 222.14365622096375 60.68232379316636
    vertex 430.140822096295 222.14365622096375 58.99999999999998
  endloop
endfacet
facet normal -0.9914448613738155 -1.3759061409293831e-17 -0.1305261922200136
  outer loop
    vertex 429.91933996717404 222.14365622096375 60.68232379316636
    vertex 430.140822096295 219.14365622096403 58.99999999999998
    vertex 429.91933996717404 219.14365622096403 60.68232379316636
  endloop
endfacet
facet normal -0.9238795325112876 -1.2821404112174467e-17 -0.3826834323650881
  outer loop
    vertex 429.91933996717404 219.14365622096403 60.68232379316636
    vertex 429.26998722089394 222.14365622096375 62.24999999999998
    vertex 429.91933996717404 222.14365622096375 60.68232379316636
  endloop
endfacet
facet normal -0.9238795325112876 -1.2821404112174467e-17 -0.3826834323650881
  outer loop
    vertex 429.26998722089394 222.14365622096375 62.24999999999998
    vertex 429.91933996717404 219.14365622096403 60.68232379316636
    vertex 429.26998722089394 219.14365622096403 62.24999999999998
  endloop
endfacet
facet normal -0.7933533402912339 -1.100998931318256e-17 -0.6087614290087222
  outer loop
    vertex 429.26998722089394 219.14365622096403 62.24999999999998
    vertex 428.23701617400764 222.14365622096375 63.59619407771254
    vertex 429.26998722089394 222.14365622096375 62.24999999999998
  endloop
endfacet
facet normal -0.7933533402912339 -1.100998931318256e-17 -0.6087614290087222
  outer loop
    vertex 428.23701617400764 222.14365622096375 63.59619407771254
    vertex 429.26998722089394 219.14365622096403 62.24999999999998
    vertex 428.23701617400764 219.14365622096403 63.59619407771254
  endloop
endfacet
facet normal -0.6087614290087062 -8.448261937364729e-18 -0.7933533402912464
  outer loop
    vertex 426.89082209629504 219.14365622096403 64.62916512459883
    vertex 428.23701617400764 222.14365622096375 63.59619407771254
    vertex 428.23701617400764 219.14365622096403 63.59619407771254
  endloop
endfacet
facet normal -0.6087614290087062 -8.448261937364729e-18 -0.7933533402912464
  outer loop
    vertex 428.23701617400764 222.14365622096375 63.59619407771254
    vertex 426.89082209629504 219.14365622096403 64.62916512459883
    vertex 426.89082209629504 222.14365622096375 64.62916512459883
  endloop
endfacet
facet normal -0.3826834323650905 -5.310799471928841e-18 -0.9238795325112866
  outer loop
    vertex 425.32314588946144 219.14365622096403 65.27851787087893
    vertex 426.89082209629504 222.14365622096375 64.62916512459883
    vertex 426.89082209629504 219.14365622096403 64.62916512459883
  endloop
endfacet
facet normal -0.3826834323650905 -5.310799471928841e-18 -0.9238795325112866
  outer loop
    vertex 426.89082209629504 222.14365622096375 64.62916512459883
    vertex 425.32314588946144 219.14365622096403 65.27851787087893
    vertex 425.32314588946144 222.14365622096375 65.27851787087893
  endloop
endfacet
facet normal -0.13052619222005366 -1.811414798991907e-18 -0.9914448613738102
  outer loop
    vertex 423.64082209629504 219.14365622096403 65.49999999999999
    vertex 425.32314588946144 222.14365622096375 65.27851787087893
    vertex 425.32314588946144 219.14365622096403 65.27851787087893
  endloop
endfacet
facet normal -0.13052619222005366 -1.811414798991907e-18 -0.9914448613738102
  outer loop
    vertex 425.32314588946144 222.14365622096375 65.27851787087893
    vertex 423.64082209629504 219.14365622096403 65.49999999999999
    vertex 423.64082209629504 222.14365622096375 65.49999999999999
  endloop
endfacet
facet normal 0.13052619222005366 1.811414798991907e-18 -0.9914448613738102
  outer loop
    vertex 421.95849830312864 219.14365622096403 65.27851787087893
    vertex 423.64082209629504 222.14365622096375 65.49999999999999
    vertex 423.64082209629504 219.14365622096403 65.49999999999999
  endloop
endfacet
facet normal 0.13052619222005366 1.811414798991907e-18 -0.9914448613738102
  outer loop
    vertex 423.64082209629504 222.14365622096375 65.49999999999999
    vertex 421.95849830312864 219.14365622096403 65.27851787087893
    vertex 421.95849830312864 222.14365622096375 65.27851787087893
  endloop
endfacet
facet normal -0.9238795325112876 -1.282140411217466e-17 0.3826834323650881
  outer loop
    vertex 455.41580099745636 219.1436562209641 55.74999999999996
    vertex 456.0651537437364 222.1436562209638 57.31767620683358
    vertex 455.41580099745636 222.1436562209638 55.74999999999996
  endloop
endfacet
facet normal -0.9238795325112876 -1.282140411217466e-17 0.3826834323650881
  outer loop
    vertex 456.0651537437364 222.1436562209638 57.31767620683358
    vertex 455.41580099745636 219.1436562209641 55.74999999999996
    vertex 456.0651537437364 219.1436562209641 57.31767620683358
  endloop
endfacet
facet normal -0.9914448613738154 -1.3759061409293896e-17 0.13052619222001446
  outer loop
    vertex 456.0651537437364 219.1436562209641 57.31767620683358
    vertex 456.2866358728574 222.1436562209638 58.99999999999996
    vertex 456.0651537437364 222.1436562209638 57.31767620683358
  endloop
endfacet
facet normal -0.9914448613738154 -1.3759061409293896e-17 0.13052619222001446
  outer loop
    vertex 456.2866358728574 222.1436562209638 58.99999999999996
    vertex 456.0651537437364 219.1436562209641 57.31767620683358
    vertex 456.2866358728574 219.1436562209641 58.99999999999996
  endloop
endfacet
facet normal -0.9914448613738155 -1.3759061409293765e-17 -0.1305261922200136
  outer loop
    vertex 456.2866358728574 219.1436562209641 58.99999999999996
    vertex 456.0651537437364 222.1436562209638 60.68232379316634
    vertex 456.2866358728574 222.1436562209638 58.99999999999996
  endloop
endfacet
facet normal -0.9914448613738155 -1.3759061409293765e-17 -0.1305261922200136
  outer loop
    vertex 456.0651537437364 222.1436562209638 60.68232379316634
    vertex 456.2866358728574 219.1436562209641 58.99999999999996
    vertex 456.0651537437364 219.1436562209641 60.68232379316634
  endloop
endfacet
facet normal -0.9238795325112876 -1.2821404112174275e-17 -0.3826834323650881
  outer loop
    vertex 456.0651537437364 219.1436562209641 60.68232379316634
    vertex 455.41580099745636 222.1436562209638 62.24999999999995
    vertex 456.0651537437364 222.1436562209638 60.68232379316634
  endloop
endfacet
facet normal -0.9238795325112876 -1.2821404112174275e-17 -0.3826834323650881
  outer loop
    vertex 455.41580099745636 222.1436562209638 62.24999999999995
    vertex 456.0651537437364 219.1436562209641 60.68232379316634
    vertex 455.41580099745636 219.1436562209641 62.24999999999995
  endloop
endfacet
facet normal -0.7933533402912339 -1.1009989313182255e-17 -0.6087614290087222
  outer loop
    vertex 455.41580099745636 219.1436562209641 62.24999999999995
    vertex 454.38282995057006 222.1436562209638 63.59619407771252
    vertex 455.41580099745636 222.1436562209638 62.24999999999995
  endloop
endfacet
facet normal -0.7933533402912339 -1.1009989313182255e-17 -0.6087614290087222
  outer loop
    vertex 454.38282995057006 222.1436562209638 63.59619407771252
    vertex 455.41580099745636 219.1436562209641 62.24999999999995
    vertex 454.38282995057006 219.1436562209641 63.59619407771252
  endloop
endfacet
facet normal -0.6087614290087062 -8.448261937364332e-18 -0.7933533402912464
  outer loop
    vertex 453.0366358728574 219.1436562209641 64.62916512459881
    vertex 454.38282995057006 222.1436562209638 63.59619407771252
    vertex 454.38282995057006 219.1436562209641 63.59619407771252
  endloop
endfacet
facet normal -0.6087614290087062 -8.448261937364332e-18 -0.7933533402912464
  outer loop
    vertex 454.38282995057006 222.1436562209638 63.59619407771252
    vertex 453.0366358728574 219.1436562209641 64.62916512459881
    vertex 453.0366358728574 222.1436562209638 64.62916512459881
  endloop
endfacet
facet normal -0.3826834323650905 -5.3107994719283775e-18 -0.9238795325112866
  outer loop
    vertex 451.4689596660238 219.1436562209641 65.2785178708789
    vertex 453.0366358728574 222.1436562209638 64.62916512459881
    vertex 453.0366358728574 219.1436562209641 64.62916512459881
  endloop
endfacet
facet normal -0.3826834323650905 -5.3107994719283775e-18 -0.9238795325112866
  outer loop
    vertex 453.0366358728574 222.1436562209638 64.62916512459881
    vertex 451.4689596660238 219.1436562209641 65.2785178708789
    vertex 451.4689596660238 222.1436562209638 65.2785178708789
  endloop
endfacet
facet normal -0.13052619222005366 -1.811414798991409e-18 -0.9914448613738102
  outer loop
    vertex 449.78663587285746 219.1436562209641 65.49999999999996
    vertex 451.4689596660238 222.1436562209638 65.2785178708789
    vertex 451.4689596660238 219.1436562209641 65.2785178708789
  endloop
endfacet
facet normal -0.13052619222005366 -1.811414798991409e-18 -0.9914448613738102
  outer loop
    vertex 451.4689596660238 222.1436562209638 65.2785178708789
    vertex 449.78663587285746 219.1436562209641 65.49999999999996
    vertex 449.78663587285746 222.1436562209638 65.49999999999996
  endloop
endfacet
facet normal 0.13052619222005366 1.8114147989924045e-18 -0.9914448613738102
  outer loop
    vertex 448.10431207969106 219.1436562209641 65.2785178708789
    vertex 449.78663587285746 222.1436562209638 65.49999999999996
    vertex 449.78663587285746 219.1436562209641 65.49999999999996
  endloop
endfacet
facet normal 0.13052619222005366 1.8114147989924045e-18 -0.9914448613738102
  outer loop
    vertex 449.78663587285746 222.1436562209638 65.49999999999996
    vertex 448.10431207969106 219.1436562209641 65.2785178708789
    vertex 448.10431207969106 222.1436562209638 65.2785178708789
  endloop
endfacet
facet normal 0.3826834323650905 5.310799471929305e-18 -0.9238795325112866
  outer loop
    vertex 446.53663587285746 219.1436562209641 64.62916512459881
    vertex 448.10431207969106 222.1436562209638 65.2785178708789
    vertex 448.10431207969106 219.1436562209641 65.2785178708789
  endloop
endfacet
facet normal 0.3826834323650905 5.310799471929305e-18 -0.9238795325112866
  outer loop
    vertex 448.10431207969106 222.1436562209638 65.2785178708789
    vertex 446.53663587285746 219.1436562209641 64.62916512459881
    vertex 446.53663587285746 222.1436562209638 64.62916512459881
  endloop
endfacet
facet normal 0.6087614290087062 8.448261937365127e-18 -0.7933533402912464
  outer loop
    vertex 445.19044179514486 219.1436562209641 63.59619407771252
    vertex 446.53663587285746 222.1436562209638 64.62916512459881
    vertex 446.53663587285746 219.1436562209641 64.62916512459881
  endloop
endfacet
facet normal 0.6087614290087062 8.448261937365127e-18 -0.7933533402912464
  outer loop
    vertex 446.53663587285746 222.1436562209638 64.62916512459881
    vertex 445.19044179514486 219.1436562209641 63.59619407771252
    vertex 445.19044179514486 222.1436562209638 63.59619407771252
  endloop
endfacet
facet normal 0.7933533402912364 1.1009989313182899e-17 -0.6087614290087191
  outer loop
    vertex 445.19044179514486 219.1436562209641 63.59619407771252
    vertex 444.15747074825856 222.1436562209638 62.24999999999995
    vertex 445.19044179514486 222.1436562209638 63.59619407771252
  endloop
endfacet
facet normal 0.7933533402912364 1.1009989313182899e-17 -0.6087614290087191
  outer loop
    vertex 444.15747074825856 222.1436562209638 62.24999999999995
    vertex 445.19044179514486 219.1436562209641 63.59619407771252
    vertex 444.15747074825856 219.1436562209641 62.24999999999995
  endloop
endfacet
facet normal 0.9238795325112876 1.282140411217466e-17 -0.3826834323650881
  outer loop
    vertex 444.15747074825856 219.1436562209641 62.24999999999995
    vertex 443.50811800197846 222.1436562209638 60.68232379316634
    vertex 444.15747074825856 222.1436562209638 62.24999999999995
  endloop
endfacet
facet normal 0.9238795325112876 1.282140411217466e-17 -0.3826834323650881
  outer loop
    vertex 443.50811800197846 222.1436562209638 60.68232379316634
    vertex 444.15747074825856 219.1436562209641 62.24999999999995
    vertex 443.50811800197846 219.1436562209641 60.68232379316634
  endloop
endfacet
facet normal 0.9914448613738154 1.3759061409293896e-17 -0.13052619222001446
  outer loop
    vertex 443.50811800197846 219.1436562209641 60.68232379316634
    vertex 443.28663587285746 222.1436562209638 58.99999999999996
    vertex 443.50811800197846 222.1436562209638 60.68232379316634
  endloop
endfacet
facet normal 0.9914448613738154 1.3759061409293896e-17 -0.13052619222001446
  outer loop
    vertex 443.28663587285746 222.1436562209638 58.99999999999996
    vertex 443.50811800197846 219.1436562209641 60.68232379316634
    vertex 443.28663587285746 219.1436562209641 58.99999999999996
  endloop
endfacet
facet normal 0.9914448613738154 1.3759061409293763e-17 0.13052619222001446
  outer loop
    vertex 443.28663587285746 219.1436562209641 58.99999999999996
    vertex 443.50811800197846 222.1436562209638 57.31767620683358
    vertex 443.28663587285746 222.1436562209638 58.99999999999996
  endloop
endfacet
facet normal 0.9914448613738154 1.3759061409293763e-17 0.13052619222001446
  outer loop
    vertex 443.50811800197846 222.1436562209638 57.31767620683358
    vertex 443.28663587285746 219.1436562209641 58.99999999999996
    vertex 443.50811800197846 219.1436562209641 57.31767620683358
  endloop
endfacet
facet normal 0.9238795325112884 1.2821404112174286e-17 0.3826834323650857
  outer loop
    vertex 443.50811800197846 219.1436562209641 57.31767620683358
    vertex 444.15747074825856 222.1436562209638 55.74999999999996
    vertex 443.50811800197846 222.1436562209638 57.31767620683358
  endloop
endfacet
facet normal 0.9238795325112884 1.2821404112174286e-17 0.3826834323650857
  outer loop
    vertex 444.15747074825856 222.1436562209638 55.74999999999996
    vertex 443.50811800197846 219.1436562209641 57.31767620683358
    vertex 444.15747074825856 219.1436562209641 55.74999999999996
  endloop
endfacet
facet normal 0.7933533402912339 1.1009989313182255e-17 0.6087614290087222
  outer loop
    vertex 444.15747074825856 219.1436562209641 55.74999999999996
    vertex 445.19044179514486 222.1436562209638 54.40380592228739
    vertex 444.15747074825856 222.1436562209638 55.74999999999996
  endloop
endfacet
facet normal 0.7933533402912339 1.1009989313182255e-17 0.6087614290087222
  outer loop
    vertex 445.19044179514486 222.1436562209638 54.40380592228739
    vertex 444.15747074825856 219.1436562209641 55.74999999999996
    vertex 445.19044179514486 219.1436562209641 54.40380592228739
  endloop
endfacet
facet normal 0.6087614290087062 8.448261937364332e-18 0.7933533402912464
  outer loop
    vertex 445.19044179514486 222.1436562209638 54.40380592228739
    vertex 446.53663587285746 219.1436562209641 53.370834875401094
    vertex 446.53663587285746 222.1436562209638 53.370834875401094
  endloop
endfacet
facet normal 0.6087614290087062 8.448261937364332e-18 0.7933533402912464
  outer loop
    vertex 446.53663587285746 219.1436562209641 53.370834875401094
    vertex 445.19044179514486 222.1436562209638 54.40380592228739
    vertex 445.19044179514486 219.1436562209641 54.40380592228739
  endloop
endfacet
facet normal 0.3826834323650905 5.3107994719283775e-18 0.9238795325112866
  outer loop
    vertex 446.53663587285746 222.1436562209638 53.370834875401094
    vertex 448.10431207969106 219.1436562209641 52.72148212912101
    vertex 448.10431207969106 222.1436562209638 52.72148212912101
  endloop
endfacet
facet normal 0.3826834323650905 5.3107994719283775e-18 0.9238795325112866
  outer loop
    vertex 448.10431207969106 219.1436562209641 52.72148212912101
    vertex 446.53663587285746 222.1436562209638 53.370834875401094
    vertex 446.53663587285746 219.1436562209641 53.370834875401094
  endloop
endfacet
facet normal 0.13052619222005366 1.811414798991409e-18 0.9914448613738102
  outer loop
    vertex 448.10431207969106 222.1436562209638 52.72148212912101
    vertex 449.78663587285746 219.1436562209641 52.49999999999995
    vertex 449.78663587285746 222.1436562209638 52.49999999999995
  endloop
endfacet
facet normal 0.13052619222005366 1.811414798991409e-18 0.9914448613738102
  outer loop
    vertex 449.78663587285746 219.1436562209641 52.49999999999995
    vertex 448.10431207969106 222.1436562209638 52.72148212912101
    vertex 448.10431207969106 219.1436562209641 52.72148212912101
  endloop
endfacet
facet normal -0.13052619222005366 -1.8114147989924045e-18 0.9914448613738102
  outer loop
    vertex 449.78663587285746 222.1436562209638 52.49999999999995
    vertex 451.4689596660238 219.1436562209641 52.72148212912101
    vertex 451.4689596660238 222.1436562209638 52.72148212912101
  endloop
endfacet
facet normal -0.13052619222005366 -1.8114147989924045e-18 0.9914448613738102
  outer loop
    vertex 451.4689596660238 219.1436562209641 52.72148212912101
    vertex 449.78663587285746 222.1436562209638 52.49999999999995
    vertex 449.78663587285746 219.1436562209641 52.49999999999995
  endloop
endfacet
facet normal -0.3826834323650905 -5.310799471929305e-18 0.9238795325112866
  outer loop
    vertex 451.4689596660238 222.1436562209638 52.72148212912101
    vertex 453.0366358728574 219.1436562209641 53.370834875401094
    vertex 453.0366358728574 222.1436562209638 53.370834875401094
  endloop
endfacet
facet normal -0.3826834323650905 -5.310799471929305e-18 0.9238795325112866
  outer loop
    vertex 453.0366358728574 219.1436562209641 53.370834875401094
    vertex 451.4689596660238 222.1436562209638 52.72148212912101
    vertex 451.4689596660238 219.1436562209641 52.72148212912101
  endloop
endfacet
facet normal -0.6087614290087062 -8.448261937365127e-18 0.7933533402912464
  outer loop
    vertex 453.0366358728574 222.1436562209638 53.370834875401094
    vertex 454.38282995057006 219.1436562209641 54.40380592228739
    vertex 454.38282995057006 222.1436562209638 54.40380592228739
  endloop
endfacet
facet normal -0.6087614290087062 -8.448261937365127e-18 0.7933533402912464
  outer loop
    vertex 454.38282995057006 219.1436562209641 54.40380592228739
    vertex 453.0366358728574 222.1436562209638 53.370834875401094
    vertex 453.0366358728574 219.1436562209641 53.370834875401094
  endloop
endfacet
facet normal -0.7933533402912364 -1.1009989313182899e-17 0.6087614290087191
  outer loop
    vertex 454.38282995057006 219.1436562209641 54.40380592228739
    vertex 455.41580099745636 222.1436562209638 55.74999999999996
    vertex 454.38282995057006 222.1436562209638 54.40380592228739
  endloop
endfacet
facet normal -0.7933533402912364 -1.1009989313182899e-17 0.6087614290087191
  outer loop
    vertex 455.41580099745636 222.1436562209638 55.74999999999996
    vertex 454.38282995057006 219.1436562209641 54.40380592228739
    vertex 455.41580099745636 219.1436562209641 55.74999999999996
  endloop
endfacet
facet normal 0.0 1.0 0.0
  outer loop
    vertex 376.7137289845764 225.1436562209638 72.09326673973656
    vertex 499.7137289845763 225.1436562209638 69.09326673973656
    vertex 373.71372898457633 225.1436562209638 69.09326673973656
  endloop
endfacet
facet normal 0.0 1.0 0.0
  outer loop
    vertex 499.7137289845763 225.1436562209638 69.09326673973656
    vertex 376.7137289845764 225.1436562209638 72.09326673973656
    vertex 496.7137289845762 225.1436562209638 72.09326673973656
  endloop
endfacet
facet normal 0.0 0.0 -1.0
  outer loop
    vertex 373.71372898457633 222.1436562209638 69.09326673973656
    vertex 499.7137289845763 225.1436562209638 69.09326673973656
    vertex 499.7137289845763 222.1436562209638 69.09326673973656
  endloop
endfacet
facet normal 0.0 0.0 -1.0
  outer loop
    vertex 499.7137289845763 225.1436562209638 69.09326673973656
    vertex 373.71372898457633 222.1436562209638 69.09326673973656
    vertex 373.71372898457633 225.1436562209638 69.09326673973656
  endloop
endfacet
facet normal 1.3015229919451832e-16 -1.879977655031935e-15 1.0
  outer loop
    vertex 371.71372898457633 222.1436562209638 45.99999999999999
    vertex 501.71372898457633 219.1436562209638 45.99999999999997
    vertex 501.71372898457633 222.1436562209638 45.99999999999997
  endloop
endfacet
facet normal 1.3015229919451832e-16 -1.879977655031935e-15 1.0
  outer loop
    vertex 501.71372898457633 219.1436562209638 45.99999999999997
    vertex 371.71372898457633 222.1436562209638 45.99999999999999
    vertex 371.71372898457633 219.1436562209638 45.999999999999986
  endloop
endfacet
facet normal 1.0 0.0 0.0
  outer loop
    vertex 379.7137289845764 225.14365622096375 73.09326673973656
    vertex 379.7137289845764 219.1436562209638 103.09326673973656
    vertex 379.7137289845764 219.1436562209638 73.09326673973656
  endloop
endfacet
facet normal 1.0 0.0 0.0
  outer loop
    vertex 379.7137289845764 219.1436562209638 103.09326673973656
    vertex 379.7137289845764 225.14365622096375 73.09326673973656
    vertex 379.7137289845764 225.1436562209638 103.09326673973656
  endloop
endfacet
facet normal -1.0 0.0 0.0
  outer loop
    vertex 460.7137289845764 225.1436562209638 103.09326673973656
    vertex 460.7137289845764 219.1436562209638 73.09326673973656
    vertex 460.7137289845764 219.1436562209638 103.09326673973656
  endloop
endfacet
facet normal -1.0 0.0 0.0
  outer loop
    vertex 460.7137289845764 219.1436562209638 73.09326673973656
    vertex 460.7137289845764 225.1436562209638 103.09326673973656
    vertex 460.7137289845764 225.1436562209638 73.09326673973656
  endloop
endfacet
facet normal 1.0 0.0 0.0
  outer loop
    vertex 463.7137289845764 225.1436562209638 73.09326673973656
    vertex 463.7137289845764 219.1436562209638 104.09326673973656
    vertex 463.7137289845764 219.1436562209638 73.09326673973656
  endloop
endfacet
facet normal 1.0 0.0 0.0
  outer loop
    vertex 463.7137289845764 219.1436562209638 104.09326673973656
    vertex 463.7137289845764 225.1436562209638 73.09326673973656
    vertex 463.7137289845764 225.1436562209638 104.09326673973656
  endloop
endfacet
facet normal 0.0 0.0 -1.0
  outer loop
    vertex 460.7137289845764 225.1436562209638 72.09326673973656
    vertex 459.71372898457633 219.1436562209638 72.09326673973656
    vertex 459.71372898457633 225.1436562209638 72.09326673973656
  endloop
endfacet
facet normal 0.0 0.0 -1.0
  outer loop
    vertex 459.71372898457633 219.1436562209638 72.09326673973656
    vertex 460.7137289845764 225.1436562209638 72.09326673973656
    vertex 460.7137289845764 219.1436562209638 72.09326673973656
  endloop
endfacet
facet normal -0.7071067811865316 0.0 -0.7071067811865634
  outer loop
    vertex 460.7137289845764 225.1436562209638 103.09326673973656
    vertex 459.71372898457633 219.1436562209638 104.09326673973656
    vertex 459.71372898457633 225.1436562209638 104.09326673973656
  endloop
endfacet
facet normal -0.7071067811865316 0.0 -0.7071067811865634
  outer loop
    vertex 459.71372898457633 219.1436562209638 104.09326673973656
    vertex 460.7137289845764 225.1436562209638 103.09326673973656
    vertex 460.7137289845764 219.1436562209638 103.09326673973656
  endloop
endfacet
facet normal 0.0 0.0 -1.0
  outer loop
    vertex 379.7137289845764 225.1436562209638 72.09326673973656
    vertex 376.7137289845764 219.1436562209638 72.09326673973656
    vertex 376.7137289845764 225.1436562209638 72.09326673973656
  endloop
endfacet
facet normal 0.0 0.0 -1.0
  outer loop
    vertex 376.7137289845764 219.1436562209638 72.09326673973656
    vertex 379.7137289845764 225.1436562209638 72.09326673973656
    vertex 379.7137289845764 219.1436562209638 72.09326673973656
  endloop
endfacet
facet normal -1.0 0.0 0.0
  outer loop
    vertex 376.7137289845764 225.1436562209638 104.09326673973656
    vertex 376.7137289845764 219.1436562209638 72.09326673973656
    vertex 376.7137289845764 219.1436562209638 104.09326673973656
  endloop
endfacet
facet normal -1.0 0.0 0.0
  outer loop
    vertex 376.7137289845764 219.1436562209638 72.09326673973656
    vertex 376.7137289845764 225.1436562209638 104.09326673973656
    vertex 376.7137289845764 225.1436562209638 72.09326673973656
  endloop
endfacet
facet normal 0.0 0.0 -1.0
  outer loop
    vertex 380.7137289845764 225.14365622096375 72.09326673973656
    vertex 379.7137289845764 219.1436562209638 72.09326673973656
    vertex 379.7137289845764 225.1436562209638 72.09326673973656
  endloop
endfacet
facet normal 0.0 0.0 -1.0
  outer loop
    vertex 379.7137289845764 219.1436562209638 72.09326673973656
    vertex 380.7137289845764 225.14365622096375 72.09326673973656
    vertex 380.7137289845764 219.1436562209638 72.09326673973656
  endloop
endfacet
facet normal 0.0 0.0 -1.0
  outer loop
    vertex 459.71372898457633 225.1436562209638 104.09326673973656
    vertex 380.7137289845764 219.1436562209638 104.09326673973656
    vertex 380.7137289845764 225.1436562209638 104.09326673973656
  endloop
endfacet
facet normal 0.0 0.0 -1.0
  outer loop
    vertex 380.7137289845764 219.1436562209638 104.09326673973656
    vertex 459.71372898457633 225.1436562209638 104.09326673973656
    vertex 459.71372898457633 219.1436562209638 104.09326673973656
  endloop
endfacet
facet normal 0.0 0.0 -1.0
  outer loop
    vertex 463.7137289845764 225.1436562209638 72.09326673973656
    vertex 460.7137289845764 219.1436562209638 72.09326673973656
    vertex 460.7137289845764 225.1436562209638 72.09326673973656
  endloop
endfacet
facet normal 0.0 0.0 -1.0
  outer loop
    vertex 460.7137289845764 219.1436562209638 72.09326673973656
    vertex 463.7137289845764 225.1436562209638 72.09326673973656
    vertex 463.7137289845764 219.1436562209638 72.09326673973656
  endloop
endfacet
facet normal -0.7071067811865476 0.0 0.7071067811865476
  outer loop
    vertex 379.7137289845764 225.1436562209638 107.09326673973655
    vertex 376.7137289845764 219.1436562209638 104.09326673973656
    vertex 379.7137289845764 219.1436562209638 107.09326673973655
  endloop
endfacet
facet normal -0.7071067811865476 0.0 0.7071067811865476
  outer loop
    vertex 376.7137289845764 219.1436562209638 104.09326673973656
    vertex 379.7137289845764 225.1436562209638 107.09326673973655
    vertex 376.7137289845764 225.1436562209638 104.09326673973656
  endloop
endfacet
facet normal 0.7071067811865422 0.0 0.7071067811865529
  outer loop
    vertex 463.7137289845764 219.1436562209638 104.09326673973656
    vertex 460.7137289845764 225.1436562209638 107.09326673973655
    vertex 460.7137289845764 219.1436562209638 107.09326673973655
  endloop
endfacet
facet normal 0.7071067811865422 0.0 0.7071067811865529
  outer loop
    vertex 460.7137289845764 225.1436562209638 107.09326673973655
    vertex 463.7137289845764 219.1436562209638 104.09326673973656
    vertex 463.7137289845764 225.1436562209638 104.09326673973656
  endloop
endfacet
facet normal 0.7071067811865476 -3.9986927877345546e-29 0.7071067811865476
  outer loop
    vertex 380.7137289845764 225.14365622096375 72.09326673973656
    vertex 379.7137289845764 219.1436562209638 73.09326673973656
    vertex 380.7137289845764 219.1436562209638 72.09326673973656
  endloop
endfacet
facet normal 0.7071067811865476 -3.9986927877345546e-29 0.7071067811865476
  outer loop
    vertex 379.7137289845764 219.1436562209638 73.09326673973656
    vertex 380.7137289845764 225.14365622096375 72.09326673973656
    vertex 379.7137289845764 225.14365622096375 73.09326673973656
  endloop
endfacet
facet normal 0.7071067811865316 0.0 0.7071067811865634
  outer loop
    vertex 464.71372898457645 219.1436562209638 72.09326673973656
    vertex 463.7137289845764 225.1436562209638 73.09326673973656
    vertex 463.7137289845764 219.1436562209638 73.09326673973656
  endloop
endfacet
facet normal 0.7071067811865316 0.0 0.7071067811865634
  outer loop
    vertex 463.7137289845764 225.1436562209638 73.09326673973656
    vertex 464.71372898457645 219.1436562209638 72.09326673973656
    vertex 464.71372898457645 225.1436562209638 72.09326673973656
  endloop
endfacet
facet normal 0.7071067811865476 0.0 -0.7071067811865476
  outer loop
    vertex 379.7137289845764 225.1436562209638 103.09326673973656
    vertex 380.7137289845764 219.1436562209638 104.09326673973656
    vertex 379.7137289845764 219.1436562209638 103.09326673973656
  endloop
endfacet
facet normal 0.7071067811865476 0.0 -0.7071067811865476
  outer loop
    vertex 380.7137289845764 219.1436562209638 104.09326673973656
    vertex 379.7137289845764 225.1436562209638 103.09326673973656
    vertex 380.7137289845764 225.1436562209638 104.09326673973656
  endloop
endfacet
facet normal 0.0 0.0 1.0
  outer loop
    vertex 460.7137289845764 219.1436562209638 107.09326673973655
    vertex 379.7137289845764 225.1436562209638 107.09326673973655
    vertex 379.7137289845764 219.1436562209638 107.09326673973655
  endloop
endfacet
facet normal 0.0 0.0 1.0
  outer loop
    vertex 379.7137289845764 225.1436562209638 107.09326673973655
    vertex 460.7137289845764 219.1436562209638 107.09326673973655
    vertex 460.7137289845764 225.1436562209638 107.09326673973655
  endloop
endfacet
facet normal 0.0 0.0 -1.0
  outer loop
    vertex 464.71372898457645 225.1436562209638 72.09326673973656
    vertex 463.7137289845764 219.1436562209638 72.09326673973656
    vertex 463.7137289845764 225.1436562209638 72.09326673973656
  endloop
endfacet
facet normal 0.0 0.0 -1.0
  outer loop
    vertex 463.7137289845764 219.1436562209638 72.09326673973656
    vertex 464.71372898457645 225.1436562209638 72.09326673973656
    vertex 464.71372898457645 219.1436562209638 72.09326673973656
  endloop
endfacet
facet normal -0.7071067811865316 0.0 0.7071067811865636
  outer loop
    vertex 460.7137289845764 219.1436562209638 73.09326673973656
    vertex 459.71372898457633 225.1436562209638 72.09326673973656
    vertex 459.71372898457633 219.1436562209638 72.09326673973656
  endloop
endfacet
facet normal -0.7071067811865316 0.0 0.7071067811865636
  outer loop
    vertex 459.71372898457633 225.1436562209638 72.09326673973656
    vertex 460.7137289845764 219.1436562209638 73.09326673973656
    vertex 460.7137289845764 225.1436562209638 73.09326673973656
  endloop
endfacet
facet normal 0.0 -1.0 0.0
  outer loop
    vertex 463.7137289845764 219.1436562209638 73.09326673973656
    vertex 463.7137289845764 219.1436562209638 72.09326673973656
    vertex 464.71372898457645 219.1436562209638 72.09326673973656
  endloop
endfacet
facet normal 0.0 -1.0 0.0
  outer loop
    vertex 463.7137289845764 219.1436562209638 72.09326673973656
    vertex 463.7137289845764 219.1436562209638 73.09326673973656
    vertex 460.7137289845764 219.1436562209638 72.09326673973656
  endloop
endfacet
facet normal 0.0 -1.0 0.0
  outer loop
    vertex 460.7137289845764 219.1436562209638 72.09326673973656
    vertex 463.7137289845764 219.1436562209638 73.09326673973656
    vertex 459.71372898457633 219.1436562209638 72.09326673973656
  endloop
endfacet
facet normal 0.0 -1.0 0.0
  outer loop
    vertex 459.71372898457633 219.1436562209638 72.09326673973656
    vertex 463.7137289845764 219.1436562209638 73.09326673973656
    vertex 460.7137289845764 219.1436562209638 73.09326673973656
  endloop
endfacet
facet normal 0.0 -1.0 0.0
  outer loop
    vertex 460.7137289845764 219.1436562209638 73.09326673973656
    vertex 463.7137289845764 219.1436562209638 73.09326673973656
    vertex 463.7137289845764 219.1436562209638 104.09326673973656
  endloop
endfacet
facet normal 0.0 -1.0 0.0
  outer loop
    vertex 460.7137289845764 219.1436562209638 73.09326673973656
    vertex 463.7137289845764 219.1436562209638 104.09326673973656
    vertex 460.7137289845764 219.1436562209638 103.09326673973656
  endloop
endfacet
facet normal 0.0 -1.0 0.0
  outer loop
    vertex 460.7137289845764 219.1436562209638 103.09326673973656
    vertex 463.7137289845764 219.1436562209638 104.09326673973656
    vertex 459.71372898457633 219.1436562209638 104.09326673973656
  endloop
endfacet
facet normal 0.0 -1.0 0.0
  outer loop
    vertex 459.71372898457633 219.1436562209638 104.09326673973656
    vertex 463.7137289845764 219.1436562209638 104.09326673973656
    vertex 460.7137289845764 219.1436562209638 107.09326673973655
  endloop
endfacet
facet normal 0.0 -1.0 0.0
  outer loop
    vertex 459.71372898457633 219.1436562209638 104.09326673973656
    vertex 460.7137289845764 219.1436562209638 107.09326673973655
    vertex 380.7137289845764 219.1436562209638 104.09326673973656
  endloop
endfacet
facet normal 0.0 -1.0 0.0
  outer loop
    vertex 380.7137289845764 219.1436562209638 104.09326673973656
    vertex 460.7137289845764 219.1436562209638 107.09326673973655
    vertex 376.7137289845764 219.1436562209638 104.09326673973656
  endloop
endfacet
facet normal 0.0 -1.0 0.0
  outer loop
    vertex 376.7137289845764 219.1436562209638 104.09326673973656
    vertex 460.7137289845764 219.1436562209638 107.09326673973655
    vertex 379.7137289845764 219.1436562209638 107.09326673973655
  endloop
endfacet
facet normal 0.0 -1.0 0.0
  outer loop
    vertex 379.7137289845764 219.1436562209638 73.09326673973656
    vertex 379.7137289845764 219.1436562209638 72.09326673973656
    vertex 380.7137289845764 219.1436562209638 72.09326673973656
  endloop
endfacet
facet normal 0.0 -1.0 0.0
  outer loop
    vertex 379.7137289845764 219.1436562209638 72.09326673973656
    vertex 379.7137289845764 219.1436562209638 73.09326673973656
    vertex 376.7137289845764 219.1436562209638 72.09326673973656
  endloop
endfacet
facet normal 0.0 -1.0 0.0
  outer loop
    vertex 376.7137289845764 219.1436562209638 72.09326673973656
    vertex 379.7137289845764 219.1436562209638 73.09326673973656
    vertex 376.7137289845764 219.1436562209638 104.09326673973656
  endloop
endfacet
facet normal 0.0 -1.0 0.0
  outer loop
    vertex 376.7137289845764 219.1436562209638 104.09326673973656
    vertex 379.7137289845764 219.1436562209638 73.09326673973656
    vertex 379.7137289845764 219.1436562209638 103.09326673973656
  endloop
endfacet
facet normal 0.0 -1.0 0.0
  outer loop
    vertex 376.7137289845764 219.1436562209638 104.09326673973656
    vertex 379.7137289845764 219.1436562209638 103.09326673973656
    vertex 380.7137289845764 219.1436562209638 104.09326673973656
  endloop
endfacet
facet normal -1.4621800454139983e-16 1.0 -3.1437501794163367e-16
  outer loop
    vertex 376.7137289845764 225.1436562209638 104.09326673973656
    vertex 379.7137289845764 225.1436562209638 72.09326673973656
    vertex 376.7137289845764 225.1436562209638 72.09326673973656
  endloop
endfacet
facet normal -1.4621800454139983e-16 1.0 -3.1437501794163367e-16
  outer loop
    vertex 379.7137289845764 225.1436562209638 72.09326673973656
    vertex 376.7137289845764 225.1436562209638 104.09326673973656
    vertex 379.7137289845764 225.14365622096375 73.09326673973656
  endloop
endfacet
facet normal -1.4621800454139983e-16 1.0 -3.1437501794163367e-16
  outer loop
    vertex 379.7137289845764 225.1436562209638 72.09326673973656
    vertex 379.7137289845764 225.14365622096375 73.09326673973656
    vertex 380.7137289845764 225.14365622096375 72.09326673973656
  endloop
endfacet
facet normal -1.4621800454139983e-16 1.0 -3.1437501794163367e-16
  outer loop
    vertex 379.7137289845764 225.14365622096375 73.09326673973656
    vertex 376.7137289845764 225.1436562209638 104.09326673973656
    vertex 379.7137289845764 225.1436562209638 103.09326673973656
  endloop
endfacet
facet normal -1.4621800454139983e-16 1.0 -3.1437501794163367e-16
  outer loop
    vertex 379.7137289845764 225.1436562209638 103.09326673973656
    vertex 376.7137289845764 225.1436562209638 104.09326673973656
    vertex 380.7137289845764 225.1436562209638 104.09326673973656
  endloop
endfacet
facet normal -1.4621800454139983e-16 1.0 -3.1437501794163367e-16
  outer loop
    vertex 380.7137289845764 225.1436562209638 104.09326673973656
    vertex 376.7137289845764 225.1436562209638 104.09326673973656
    vertex 379.7137289845764 225.1436562209638 107.09326673973655
  endloop
endfacet
facet normal -1.4621800454139983e-16 1.0 -3.1437501794163367e-16
  outer loop
    vertex 380.7137289845764 225.1436562209638 104.09326673973656
    vertex 379.7137289845764 225.1436562209638 107.09326673973655
    vertex 459.71372898457633 225.1436562209638 104.09326673973656
  endloop
endfacet
facet normal -1.4621800454139983e-16 1.0 -3.1437501794163367e-16
  outer loop
    vertex 459.71372898457633 225.1436562209638 104.09326673973656
    vertex 379.7137289845764 225.1436562209638 107.09326673973655
    vertex 463.7137289845764 225.1436562209638 104.09326673973656
  endloop
endfacet
facet normal -1.4621800454139983e-16 1.0 -3.1437501794163367e-16
  outer loop
    vertex 463.7137289845764 225.1436562209638 104.09326673973656
    vertex 379.7137289845764 225.1436562209638 107.09326673973655
    vertex 460.7137289845764 225.1436562209638 107.09326673973655
  endloop
endfacet
facet normal -1.4621800454139983e-16 1.0 -3.1437501794163367e-16
  outer loop
    vertex 460.7137289845764 225.1436562209638 73.09326673973656
    vertex 460.7137289845764 225.1436562209638 72.09326673973656
    vertex 459.71372898457633 225.1436562209638 72.09326673973656
  endloop
endfacet
facet normal -1.4621800454139983e-16 1.0 -3.1437501794163367e-16
  outer loop
    vertex 460.7137289845764 225.1436562209638 72.09326673973656
    vertex 460.7137289845764 225.1436562209638 73.09326673973656
    vertex 463.7137289845764 225.1436562209638 72.09326673973656
  endloop
endfacet
facet normal -1.4621800454139983e-16 1.0 -3.1437501794163367e-16
  outer loop
    vertex 463.7137289845764 225.1436562209638 72.09326673973656
    vertex 460.7137289845764 225.1436562209638 73.09326673973656
    vertex 464.71372898457645 225.1436562209638 72.09326673973656
  endloop
endfacet
facet normal -1.4621800454139983e-16 1.0 -3.1437501794163367e-16
  outer loop
    vertex 464.71372898457645 225.1436562209638 72.09326673973656
    vertex 460.7137289845764 225.1436562209638 73.09326673973656
    vertex 463.7137289845764 225.1436562209638 73.09326673973656
  endloop
endfacet
facet normal -1.4621800454139983e-16 1.0 -3.1437501794163367e-16
  outer loop
    vertex 463.7137289845764 225.1436562209638 73.09326673973656
    vertex 460.7137289845764 225.1436562209638 73.09326673973656
    vertex 460.7137289845764 225.1436562209638 103.09326673973656
  endloop
endfacet
facet normal -1.4621800454139983e-16 1.0 -3.1437501794163367e-16
  outer loop
    vertex 463.7137289845764 225.1436562209638 73.09326673973656
    vertex 460.7137289845764 225.1436562209638 103.09326673973656
    vertex 463.7137289845764 225.1436562209638 104.09326673973656
  endloop
endfacet
facet normal -1.4621800454139983e-16 1.0 -3.1437501794163367e-16
  outer loop
    vertex 463.7137289845764 225.1436562209638 104.09326673973656
    vertex 460.7137289845764 225.1436562209638 103.09326673973656
    vertex 459.71372898457633 225.1436562209638 104.09326673973656
  endloop
endfacet
endsolid Main
