solid Main v2
facet normal 0.0 0.0 1.0
  outer loop
    vertex 1879.4063326833395 1317.1545917120154 50.19999999999979
    vertex 1802.206332683339 1323.6545917120159 50.19999999999979
    vertex 1802.206332683339 1317.1545917120154 50.19999999999979
  endloop
endfacet
facet normal 0.0 0.0 1.0
  outer loop
    vertex 1802.206332683339 1323.6545917120159 50.19999999999979
    vertex 1879.4063326833395 1317.1545917120154 50.19999999999979
    vertex 1879.4063326833395 1323.6545917120159 50.19999999999979
  endloop
endfacet
facet normal -1.0 0.0 0.0
  outer loop
    vertex 1802.206332683339 1323.6545917120156 20.89999999999862
    vertex 1802.206332683339 1317.1545917120154 17.499999999999805
    vertex 1802.206332683339 1317.1545917120154 25.89999999999862
  endloop
endfacet
facet normal -1.0 0.0 0.0
  outer loop
    vertex 1802.206332683339 1317.1545917120154 17.499999999999805
    vertex 1802.206332683339 1323.6545917120156 20.89999999999862
    vertex 1802.206332683339 1323.6545917120159 17.499999999999805
  endloop
endfacet
facet normal 1.0 0.0 0.0
  outer loop
    vertex 1805.606332683339 1314.1545917120152 20.89999999999862
    vertex 1805.606332683339 1317.1545917120154 25.89999999999862
    vertex 1805.606332683339 1314.1545917120152 47.19999999999982
  endloop
endfacet
facet normal 1.0 0.0 0.0
  outer loop
    vertex 1805.606332683339 1317.1545917120154 25.89999999999862
    vertex 1805.606332683339 1314.1545917120152 20.89999999999862
    vertex 1805.606332683339 1323.6545917120156 20.89999999999862
  endloop
endfacet
facet normal 1.0 0.0 0.0
  outer loop
    vertex 1805.606332683339 1314.1545917120152 47.19999999999982
    vertex 1805.606332683339 1317.1545917120154 42.19999999999982
    vertex 1805.606332683339 1323.6545917120156 47.19999999999982
  endloop
endfacet
facet normal 1.0 0.0 0.0
  outer loop
    vertex 1805.606332683339 1317.1545917120154 42.19999999999982
    vertex 1805.606332683339 1314.1545917120152 47.19999999999982
    vertex 1805.606332683339 1317.1545917120154 25.89999999999862
  endloop
endfacet
facet normal 0.0 0.0 1.0
  outer loop
    vertex 1876.9063326833386 1314.1545917120152 20.89999999999862
    vertex 1805.606332683339 1323.6545917120156 20.89999999999862
    vertex 1805.606332683339 1314.1545917120152 20.89999999999862
  endloop
endfacet
facet normal 0.0 0.0 1.0
  outer loop
    vertex 1805.606332683339 1323.6545917120156 20.89999999999862
    vertex 1876.9063326833386 1314.1545917120152 20.89999999999862
    vertex 1876.9063326833386 1323.6545917120156 20.89999999999862
  endloop
endfacet
facet normal -1.0 0.0 0.0
  outer loop
    vertex 1876.9063326833386 1323.6545917120156 47.19999999999982
    vertex 1876.9063326833386 1314.1545917120152 20.89999999999862
    vertex 1876.9063326833386 1314.1545917120152 47.19999999999982
  endloop
endfacet
facet normal -1.0 0.0 0.0
  outer loop
    vertex 1876.9063326833386 1314.1545917120152 20.89999999999862
    vertex 1876.9063326833386 1323.6545917120156 47.19999999999982
    vertex 1876.9063326833386 1323.6545917120156 20.89999999999862
  endloop
endfacet
facet normal 0.0 0.0 -1.0
  outer loop
    vertex 1876.9063326833386 1323.6545917120156 47.19999999999982
    vertex 1805.606332683339 1314.1545917120152 47.19999999999982
    vertex 1805.606332683339 1323.6545917120156 47.19999999999982
  endloop
endfacet
facet normal 0.0 0.0 -1.0
  outer loop
    vertex 1805.606332683339 1314.1545917120152 47.19999999999982
    vertex 1876.9063326833386 1323.6545917120156 47.19999999999982
    vertex 1876.9063326833386 1314.1545917120152 47.19999999999982
  endloop
endfacet
facet normal 1.0 0.0 0.0
  outer loop
    vertex 1879.4063326833395 1323.6545917120159 17.499999999999805
    vertex 1879.4063326833395 1317.1545917120154 50.19999999999979
    vertex 1879.4063326833395 1317.1545917120154 17.499999999999805
  endloop
endfacet
facet normal 1.0 0.0 0.0
  outer loop
    vertex 1879.4063326833395 1317.1545917120154 50.19999999999979
    vertex 1879.4063326833395 1323.6545917120159 17.499999999999805
    vertex 1879.4063326833395 1323.6545917120159 50.19999999999979
  endloop
endfacet
facet normal 0.0 0.0 -1.0
  outer loop
    vertex 1879.4063326833395 1323.6545917120159 17.499999999999805
    vertex 1802.206332683339 1317.1545917120154 17.499999999999805
    vertex 1802.206332683339 1323.6545917120159 17.499999999999805
  endloop
endfacet
facet normal 0.0 0.0 -1.0
  outer loop
    vertex 1802.206332683339 1317.1545917120154 17.499999999999805
    vertex 1879.4063326833395 1323.6545917120159 17.499999999999805
    vertex 1879.4063326833395 1317.1545917120154 17.499999999999805
  endloop
endfacet
facet normal 0.0 0.0 1.0
  outer loop
    vertex 1885.3063326833392 1314.1545917120152 63.79999999999979
    vertex 1797.206332683339 1317.1545917120152 63.79999999999979
    vertex 1797.206332683339 1314.1545917120152 63.79999999999979
  endloop
endfacet
facet normal 0.0 0.0 1.0
  outer loop
    vertex 1797.206332683339 1317.1545917120152 63.79999999999979
    vertex 1885.3063326833392 1314.1545917120152 63.79999999999979
    vertex 1885.3063326833392 1317.1545917120152 63.79999999999979
  endloop
endfacet
facet normal 1.0 0.0 0.0
  outer loop
    vertex 1890.3063326833392 1317.1545917120152 7.499999999999805
    vertex 1890.3063326833392 1314.1545917120152 58.799999999999805
    vertex 1890.3063326833392 1314.1545917120152 7.499999999999805
  endloop
endfacet
facet normal 1.0 0.0 0.0
  outer loop
    vertex 1890.3063326833392 1314.1545917120152 58.799999999999805
    vertex 1890.3063326833392 1317.1545917120152 7.499999999999805
    vertex 1890.3063326833392 1317.1545917120152 58.799999999999805
  endloop
endfacet
facet normal -1.0 0.0 0.0
  outer loop
    vertex 1792.206332683339 1317.1545917120152 58.799999999999805
    vertex 1792.206332683339 1314.1545917120152 12.499999999999805
    vertex 1792.206332683339 1314.1545917120152 58.799999999999805
  endloop
endfacet
facet normal -1.0 0.0 0.0
  outer loop
    vertex 1792.206332683339 1314.1545917120152 12.499999999999805
    vertex 1792.206332683339 1317.1545917120152 58.799999999999805
    vertex 1792.206332683339 1317.1545917120152 12.499999999999805
  endloop
endfacet
facet normal 7.121162940330695e-17 1.0 1.4726883115893299e-15
  outer loop
    vertex 1792.206332683339 1317.1545917120152 58.799999999999805
    vertex 1802.206332683339 1317.1545917120154 17.499999999999805
    vertex 1792.206332683339 1317.1545917120152 12.499999999999805
  endloop
endfacet
facet normal 7.121162940330695e-17 1.0 1.4726883115893299e-15
  outer loop
    vertex 1802.206332683339 1317.1545917120154 17.499999999999805
    vertex 1792.206332683339 1317.1545917120152 58.799999999999805
    vertex 1802.206332683339 1317.1545917120154 25.89999999999862
  endloop
endfacet
facet normal 7.121162940330695e-17 1.0 1.4726883115893299e-15
  outer loop
    vertex 1802.206332683339 1317.1545917120154 25.89999999999862
    vertex 1792.206332683339 1317.1545917120152 58.799999999999805
    vertex 1805.606332683339 1317.1545917120154 25.89999999999862
  endloop
endfacet
facet normal 7.121162940330695e-17 1.0 1.4726883115893299e-15
  outer loop
    vertex 1805.606332683339 1317.1545917120154 25.89999999999862
    vertex 1792.206332683339 1317.1545917120152 58.799999999999805
    vertex 1802.206332683339 1317.1545917120154 42.19999999999982
  endloop
endfacet
facet normal 7.121162940330695e-17 1.0 1.4726883115893299e-15
  outer loop
    vertex 1802.206332683339 1317.1545917120154 42.19999999999982
    vertex 1792.206332683339 1317.1545917120152 58.799999999999805
    vertex 1802.206332683339 1317.1545917120154 50.19999999999979
  endloop
endfacet
facet normal 7.121162940330695e-17 1.0 1.4726883115893299e-15
  outer loop
    vertex 1802.206332683339 1317.1545917120154 50.19999999999979
    vertex 1792.206332683339 1317.1545917120152 58.799999999999805
    vertex 1879.4063326833395 1317.1545917120154 50.19999999999979
  endloop
endfacet
facet normal 7.121162940330695e-17 1.0 1.4726883115893299e-15
  outer loop
    vertex 1792.206332683339 1317.1545917120152 12.499999999999805
    vertex 1860.3063326833392 1317.1545917120154 7.499999999999805
    vertex 1797.206332683339 1317.1545917120152 7.499999999999805
  endloop
endfacet
facet normal 7.121162940330695e-17 1.0 1.4726883115893299e-15
  outer loop
    vertex 1860.3063326833392 1317.1545917120154 7.499999999999805
    vertex 1792.206332683339 1317.1545917120152 12.499999999999805
    vertex 1890.3063326833392 1317.1545917120152 7.499999999999805
  endloop
endfacet
facet normal 7.121162940330695e-17 1.0 1.4726883115893299e-15
  outer loop
    vertex 1890.3063326833392 1317.1545917120152 7.499999999999805
    vertex 1792.206332683339 1317.1545917120152 12.499999999999805
    vertex 1879.4063326833395 1317.1545917120154 17.499999999999805
  endloop
endfacet
facet normal 7.121162940330695e-17 1.0 1.4726883115893299e-15
  outer loop
    vertex 1890.3063326833392 1317.1545917120152 7.499999999999805
    vertex 1879.4063326833395 1317.1545917120154 17.499999999999805
    vertex 1890.3063326833392 1317.1545917120152 58.799999999999805
  endloop
endfacet
facet normal 7.121162940330695e-17 1.0 1.4726883115893299e-15
  outer loop
    vertex 1879.4063326833395 1317.1545917120154 17.499999999999805
    vertex 1792.206332683339 1317.1545917120152 12.499999999999805
    vertex 1802.206332683339 1317.1545917120154 17.499999999999805
  endloop
endfacet
facet normal 7.121162940330695e-17 1.0 1.4726883115893299e-15
  outer loop
    vertex 1890.3063326833392 1317.1545917120152 58.799999999999805
    vertex 1879.4063326833395 1317.1545917120154 17.499999999999805
    vertex 1879.4063326833395 1317.1545917120154 50.19999999999979
  endloop
endfacet
facet normal 7.121162940330695e-17 1.0 1.4726883115893299e-15
  outer loop
    vertex 1890.3063326833392 1317.1545917120152 58.799999999999805
    vertex 1879.4063326833395 1317.1545917120154 50.19999999999979
    vertex 1792.206332683339 1317.1545917120152 58.799999999999805
  endloop
endfacet
facet normal 7.121162940330695e-17 1.0 1.4726883115893299e-15
  outer loop
    vertex 1890.3063326833392 1317.1545917120152 58.799999999999805
    vertex 1792.206332683339 1317.1545917120152 58.799999999999805
    vertex 1797.206332683339 1317.1545917120152 63.79999999999979
  endloop
endfacet
facet normal 7.121162940330695e-17 1.0 1.4726883115893299e-15
  outer loop
    vertex 1890.3063326833392 1317.1545917120152 58.799999999999805
    vertex 1797.206332683339 1317.1545917120152 63.79999999999979
    vertex 1885.3063326833392 1317.1545917120152 63.79999999999979
  endloop
endfacet
facet normal 7.121162940330695e-17 1.0 1.4726883115893299e-15
  outer loop
    vertex 1805.606332683339 1317.1545917120154 42.19999999999982
    vertex 1805.606332683339 1317.1545917120154 25.89999999999862
    vertex 1802.206332683339 1317.1545917120154 42.19999999999982
  endloop
endfacet
facet normal 7.121162940330695e-17 1.0 1.4726883115893299e-15
  outer loop
    vertex 1860.3063326833392 1317.1545917120154 7.499999999999805
    vertex 1885.3063326833392 1317.1545917120152 2.499999999999804
    vertex 1865.3063326833392 1317.1545917120154 2.499999999999804
  endloop
endfacet
facet normal 7.121162940330695e-17 1.0 1.4726883115893299e-15
  outer loop
    vertex 1885.3063326833392 1317.1545917120152 2.499999999999804
    vertex 1860.3063326833392 1317.1545917120154 7.499999999999805
    vertex 1890.3063326833392 1317.1545917120152 7.499999999999805
  endloop
endfacet
facet normal 0.0 0.0 -1.0
  outer loop
    vertex 1860.3063326833392 1317.1545917120154 7.499999999999805
    vertex 1797.206332683339 1314.1545917120152 7.499999999999805
    vertex 1797.206332683339 1317.1545917120152 7.499999999999805
  endloop
endfacet
facet normal 0.0 0.0 -1.0
  outer loop
    vertex 1797.206332683339 1314.1545917120152 7.499999999999805
    vertex 1860.3063326833392 1317.1545917120154 7.499999999999805
    vertex 1860.3063326833392 1314.1545917120152 7.499999999999805
  endloop
endfacet
facet normal 0.0 0.0 -1.0
  outer loop
    vertex 1885.3063326833392 1317.1545917120152 2.499999999999804
    vertex 1865.3063326833392 1314.1545917120152 2.499999999999804
    vertex 1865.3063326833392 1317.1545917120154 2.499999999999804
  endloop
endfacet
facet normal 0.0 0.0 -1.0
  outer loop
    vertex 1865.3063326833392 1314.1545917120152 2.499999999999804
    vertex 1885.3063326833392 1317.1545917120152 2.499999999999804
    vertex 1885.3063326833392 1314.1545917120152 2.499999999999804
  endloop
endfacet
facet normal 0.0 -1.0 0.0
  outer loop
    vertex 1890.3063326833392 1314.1545917120152 7.499999999999805
    vertex 1865.3063326833392 1314.1545917120152 2.499999999999804
    vertex 1885.3063326833392 1314.1545917120152 2.499999999999804
  endloop
endfacet
facet normal 0.0 -1.0 0.0
  outer loop
    vertex 1865.3063326833392 1314.1545917120152 2.499999999999804
    vertex 1890.3063326833392 1314.1545917120152 7.499999999999805
    vertex 1860.3063326833392 1314.1545917120152 7.499999999999805
  endloop
endfacet
facet normal 0.0 -1.0 0.0
  outer loop
    vertex 1860.3063326833392 1314.1545917120152 7.499999999999805
    vertex 1890.3063326833392 1314.1545917120152 7.499999999999805
    vertex 1876.9063326833386 1314.1545917120152 20.89999999999862
  endloop
endfacet
facet normal 0.0 -1.0 0.0
  outer loop
    vertex 1876.9063326833386 1314.1545917120152 20.89999999999862
    vertex 1890.3063326833392 1314.1545917120152 7.499999999999805
    vertex 1890.3063326833392 1314.1545917120152 58.799999999999805
  endloop
endfacet
facet normal 0.0 -1.0 0.0
  outer loop
    vertex 1860.3063326833392 1314.1545917120152 7.499999999999805
    vertex 1876.9063326833386 1314.1545917120152 20.89999999999862
    vertex 1797.206332683339 1314.1545917120152 7.499999999999805
  endloop
endfacet
facet normal 0.0 -1.0 0.0
  outer loop
    vertex 1797.206332683339 1314.1545917120152 7.499999999999805
    vertex 1876.9063326833386 1314.1545917120152 20.89999999999862
    vertex 1792.206332683339 1314.1545917120152 12.499999999999805
  endloop
endfacet
facet normal 0.0 -1.0 0.0
  outer loop
    vertex 1876.9063326833386 1314.1545917120152 20.89999999999862
    vertex 1890.3063326833392 1314.1545917120152 58.799999999999805
    vertex 1876.9063326833386 1314.1545917120152 47.19999999999982
  endloop
endfacet
facet normal 0.0 -1.0 0.0
  outer loop
    vertex 1876.9063326833386 1314.1545917120152 47.19999999999982
    vertex 1890.3063326833392 1314.1545917120152 58.799999999999805
    vertex 1805.606332683339 1314.1545917120152 47.19999999999982
  endloop
endfacet
facet normal 0.0 -1.0 0.0
  outer loop
    vertex 1792.206332683339 1314.1545917120152 12.499999999999805
    vertex 1805.606332683339 1314.1545917120152 20.89999999999862
    vertex 1792.206332683339 1314.1545917120152 58.799999999999805
  endloop
endfacet
facet normal 0.0 -1.0 0.0
  outer loop
    vertex 1805.606332683339 1314.1545917120152 20.89999999999862
    vertex 1792.206332683339 1314.1545917120152 12.499999999999805
    vertex 1876.9063326833386 1314.1545917120152 20.89999999999862
  endloop
endfacet
facet normal 0.0 -1.0 0.0
  outer loop
    vertex 1792.206332683339 1314.1545917120152 58.799999999999805
    vertex 1805.606332683339 1314.1545917120152 20.89999999999862
    vertex 1805.606332683339 1314.1545917120152 47.19999999999982
  endloop
endfacet
facet normal 0.0 -1.0 0.0
  outer loop
    vertex 1792.206332683339 1314.1545917120152 58.799999999999805
    vertex 1805.606332683339 1314.1545917120152 47.19999999999982
    vertex 1890.3063326833392 1314.1545917120152 58.799999999999805
  endloop
endfacet
facet normal 0.0 -1.0 0.0
  outer loop
    vertex 1792.206332683339 1314.1545917120152 58.799999999999805
    vertex 1890.3063326833392 1314.1545917120152 58.799999999999805
    vertex 1885.3063326833392 1314.1545917120152 63.79999999999979
  endloop
endfacet
facet normal 0.0 -1.0 0.0
  outer loop
    vertex 1792.206332683339 1314.1545917120152 58.799999999999805
    vertex 1885.3063326833392 1314.1545917120152 63.79999999999979
    vertex 1797.206332683339 1314.1545917120152 63.79999999999979
  endloop
endfacet
facet normal 0.7071067811865515 4.3965314692984354e-17 -0.7071067811865437
  outer loop
    vertex 1885.3063326833392 1317.1545917120152 2.499999999999804
    vertex 1890.3063326833392 1314.1545917120152 7.499999999999805
    vertex 1885.3063326833392 1314.1545917120152 2.499999999999804
  endloop
endfacet
facet normal 0.7071067811865515 4.3965314692984354e-17 -0.7071067811865437
  outer loop
    vertex 1890.3063326833392 1314.1545917120152 7.499999999999805
    vertex 1885.3063326833392 1317.1545917120152 2.499999999999804
    vertex 1890.3063326833392 1317.1545917120152 7.499999999999805
  endloop
endfacet
facet normal -0.7071067811865515 0.0 -0.7071067811865437
  outer loop
    vertex 1860.3063326833392 1317.1545917120154 7.499999999999805
    vertex 1865.3063326833392 1314.1545917120152 2.499999999999804
    vertex 1860.3063326833392 1314.1545917120152 7.499999999999805
  endloop
endfacet
facet normal -0.7071067811865515 0.0 -0.7071067811865437
  outer loop
    vertex 1865.3063326833392 1314.1545917120152 2.499999999999804
    vertex 1860.3063326833392 1317.1545917120154 7.499999999999805
    vertex 1865.3063326833392 1317.1545917120154 2.499999999999804
  endloop
endfacet
facet normal 0.7071067811865515 -4.9582913766844476e-27 0.7071067811865436
  outer loop
    vertex 1890.3063326833392 1317.1545917120152 58.799999999999805
    vertex 1885.3063326833392 1314.1545917120152 63.79999999999979
    vertex 1890.3063326833392 1314.1545917120152 58.799999999999805
  endloop
endfacet
facet normal 0.7071067811865515 -4.9582913766844476e-27 0.7071067811865436
  outer loop
    vertex 1885.3063326833392 1314.1545917120152 63.79999999999979
    vertex 1890.3063326833392 1317.1545917120152 58.799999999999805
    vertex 1885.3063326833392 1317.1545917120152 63.79999999999979
  endloop
endfacet
facet normal -0.7071067811865515 -4.9582913766844476e-27 0.7071067811865436
  outer loop
    vertex 1797.206332683339 1317.1545917120152 63.79999999999979
    vertex 1792.206332683339 1314.1545917120152 58.799999999999805
    vertex 1797.206332683339 1314.1545917120152 63.79999999999979
  endloop
endfacet
facet normal -0.7071067811865515 -4.9582913766844476e-27 0.7071067811865436
  outer loop
    vertex 1792.206332683339 1314.1545917120152 58.799999999999805
    vertex 1797.206332683339 1317.1545917120152 63.79999999999979
    vertex 1792.206332683339 1317.1545917120152 58.799999999999805
  endloop
endfacet
facet normal -0.7071067811865513 -4.396531470321081e-17 -0.7071067811865437
  outer loop
    vertex 1792.206332683339 1317.1545917120152 12.499999999999805
    vertex 1797.206332683339 1314.1545917120152 7.499999999999805
    vertex 1792.206332683339 1314.1545917120152 12.499999999999805
  endloop
endfacet
facet normal -0.7071067811865513 -4.396531470321081e-17 -0.7071067811865437
  outer loop
    vertex 1797.206332683339 1314.1545917120152 7.499999999999805
    vertex 1792.206332683339 1317.1545917120152 12.499999999999805
    vertex 1797.206332683339 1317.1545917120152 7.499999999999805
  endloop
endfacet
facet normal 1.1581846871756659e-17 1.0 -1.0921258025616383e-15
  outer loop
    vertex 1802.206332683339 1323.6545917120159 50.19999999999979
    vertex 1805.606332683339 1323.6545917120156 47.19999999999982
    vertex 1802.206332683339 1323.6545917120159 47.19999999999982
  endloop
endfacet
facet normal 1.1581846871756659e-17 1.0 -1.0921258025616383e-15
  outer loop
    vertex 1805.606332683339 1323.6545917120156 47.19999999999982
    vertex 1802.206332683339 1323.6545917120159 50.19999999999979
    vertex 1876.9063326833386 1323.6545917120156 47.19999999999982
  endloop
endfacet
facet normal 1.1581846871756659e-17 1.0 -1.0921258025616383e-15
  outer loop
    vertex 1802.206332683339 1323.6545917120156 20.89999999999862
    vertex 1879.4063326833395 1323.6545917120159 17.499999999999805
    vertex 1802.206332683339 1323.6545917120159 17.499999999999805
  endloop
endfacet
facet normal 1.1581846871756659e-17 1.0 -1.0921258025616383e-15
  outer loop
    vertex 1879.4063326833395 1323.6545917120159 17.499999999999805
    vertex 1802.206332683339 1323.6545917120156 20.89999999999862
    vertex 1876.9063326833386 1323.6545917120156 20.89999999999862
  endloop
endfacet
facet normal 1.1581846871756659e-17 1.0 -1.0921258025616383e-15
  outer loop
    vertex 1879.4063326833395 1323.6545917120159 17.499999999999805
    vertex 1876.9063326833386 1323.6545917120156 20.89999999999862
    vertex 1879.4063326833395 1323.6545917120159 50.19999999999979
  endloop
endfacet
facet normal 1.1581846871756659e-17 1.0 -1.0921258025616383e-15
  outer loop
    vertex 1876.9063326833386 1323.6545917120156 20.89999999999862
    vertex 1802.206332683339 1323.6545917120156 20.89999999999862
    vertex 1805.606332683339 1323.6545917120156 20.89999999999862
  endloop
endfacet
facet normal 1.1581846871756659e-17 1.0 -1.0921258025616383e-15
  outer loop
    vertex 1879.4063326833395 1323.6545917120159 50.19999999999979
    vertex 1876.9063326833386 1323.6545917120156 20.89999999999862
    vertex 1876.9063326833386 1323.6545917120156 47.19999999999982
  endloop
endfacet
facet normal 1.1581846871756659e-17 1.0 -1.0921258025616383e-15
  outer loop
    vertex 1879.4063326833395 1323.6545917120159 50.19999999999979
    vertex 1876.9063326833386 1323.6545917120156 47.19999999999982
    vertex 1802.206332683339 1323.6545917120159 50.19999999999979
  endloop
endfacet
facet normal -1.0 0.0 0.0
  outer loop
    vertex 1802.206332683339 1323.6545917120159 50.19999999999979
    vertex 1802.206332683339 1317.1545917120154 42.19999999999982
    vertex 1802.206332683339 1317.1545917120154 50.19999999999979
  endloop
endfacet
facet normal -1.0 0.0 0.0
  outer loop
    vertex 1802.206332683339 1317.1545917120154 42.19999999999982
    vertex 1802.206332683339 1323.6545917120159 50.19999999999979
    vertex 1802.206332683339 1323.6545917120159 47.19999999999982
  endloop
endfacet
facet normal 1.61738822793639e-14 0.6097107608496676 -0.7926239891046192
  outer loop
    vertex 1805.606332683339 1323.6545917120156 47.19999999999982
    vertex 1802.206332683339 1317.1545917120154 42.19999999999982
    vertex 1802.206332683339 1323.6545917120159 47.19999999999982
  endloop
endfacet
facet normal 1.61738822793639e-14 0.6097107608496676 -0.7926239891046192
  outer loop
    vertex 1802.206332683339 1317.1545917120154 42.19999999999982
    vertex 1805.606332683339 1323.6545917120156 47.19999999999982
    vertex 1805.606332683339 1317.1545917120154 42.19999999999982
  endloop
endfacet
facet normal 0.0 0.6097107608496733 0.7926239891046148
  outer loop
    vertex 1805.606332683339 1317.1545917120154 25.89999999999862
    vertex 1802.206332683339 1323.6545917120156 20.89999999999862
    vertex 1802.206332683339 1317.1545917120154 25.89999999999862
  endloop
endfacet
facet normal 0.0 0.6097107608496733 0.7926239891046148
  outer loop
    vertex 1802.206332683339 1323.6545917120156 20.89999999999862
    vertex 1805.606332683339 1317.1545917120154 25.89999999999862
    vertex 1805.606332683339 1323.6545917120156 20.89999999999862
  endloop
endfacet
endsolid Main v2
