solid Main v1
facet normal 0.0 -5.9840213038805986e-30 1.0
  outer loop
    vertex 1794.4563326833386 1390.1545917120156 73.5
    vertex 1774.4563326833384 1393.1545917120163 73.5
    vertex 1774.4563326833384 1390.1545917120156 73.5
  endloop
endfacet
facet normal 0.0 -5.9840213038805986e-30 1.0
  outer loop
    vertex 1774.4563326833384 1393.1545917120163 73.5
    vertex 1794.4563326833386 1390.1545917120156 73.5
    vertex 1794.4563326833386 1393.1545917120163 73.5
  endloop
endfacet
facet normal 1.0 4.245937549329915e-31 0.0
  outer loop
    vertex 1794.4563326833386 1393.1545917120163 71.0
    vertex 1794.4563326833386 1390.1545917120156 73.5
    vertex 1794.4563326833386 1390.1545917120156 71.0
  endloop
endfacet
facet normal 1.0 4.245937549329915e-31 0.0
  outer loop
    vertex 1794.4563326833386 1390.1545917120156 73.5
    vertex 1794.4563326833386 1393.1545917120163 71.0
    vertex 1794.4563326833386 1393.1545917120163 73.5
  endloop
endfacet
facet normal 0.0 -5.984021303880598e-30 1.0
  outer loop
    vertex 1798.0563326833385 1390.1545917120156 71.0
    vertex 1794.4563326833386 1393.1545917120163 71.0
    vertex 1794.4563326833386 1390.1545917120156 71.0
  endloop
endfacet
facet normal 0.0 -5.984021303880598e-30 1.0
  outer loop
    vertex 1794.4563326833386 1393.1545917120163 71.0
    vertex 1798.0563326833385 1390.1545917120156 71.0
    vertex 1798.0563326833385 1393.1545917120163 71.0
  endloop
endfacet
facet normal 1.0 0.0 0.0
  outer loop
    vertex 1798.0563326833385 1393.1545917120163 2.4999999999999956
    vertex 1798.0563326833385 1390.1545917120156 71.0
    vertex 1798.0563326833385 1390.1545917120156 2.4999999999999956
  endloop
endfacet
facet normal 1.0 0.0 0.0
  outer loop
    vertex 1798.0563326833385 1390.1545917120156 71.0
    vertex 1798.0563326833385 1393.1545917120163 2.4999999999999956
    vertex 1798.0563326833385 1393.1545917120163 71.0
  endloop
endfacet
facet normal 1.0 0.0 0.0
  outer loop
    vertex 1798.0563326833385 1393.1545917120163 71.0
    vertex 1798.0563326833385 1393.1545917120163 2.4999999999999956
    vertex 1798.0563326833385 1393.1545917120166 19.999999999999996
  endloop
endfacet
facet normal 1.0 0.0 0.0
  outer loop
    vertex 1798.0563326833385 1393.1545917120163 71.0
    vertex 1798.0563326833385 1393.1545917120166 19.999999999999996
    vertex 1798.0563326833385 1393.1545917120166 53.5
  endloop
endfacet
facet normal 0.0 5.984021303880598e-30 -1.0
  outer loop
    vertex 1798.0563326833385 1393.1545917120163 2.4999999999999956
    vertex 1794.4563326833386 1390.1545917120156 2.4999999999999956
    vertex 1794.4563326833386 1393.1545917120163 2.4999999999999956
  endloop
endfacet
facet normal 0.0 5.984021303880598e-30 -1.0
  outer loop
    vertex 1794.4563326833386 1390.1545917120156 2.4999999999999956
    vertex 1798.0563326833385 1393.1545917120163 2.4999999999999956
    vertex 1798.0563326833385 1390.1545917120156 2.4999999999999956
  endloop
endfacet
facet normal 1.0 4.245937549329915e-31 0.0
  outer loop
    vertex 1794.4563326833386 1393.1545917120163 1.7952063911646351e-29
    vertex 1794.4563326833386 1390.1545917120156 2.4999999999999956
    vertex 1794.4563326833386 1390.1545917120156 0.0
  endloop
endfacet
facet normal 1.0 4.245937549329915e-31 0.0
  outer loop
    vertex 1794.4563326833386 1390.1545917120156 2.4999999999999956
    vertex 1794.4563326833386 1393.1545917120163 1.7952063911646351e-29
    vertex 1794.4563326833386 1393.1545917120163 2.4999999999999956
  endloop
endfacet
facet normal 0.0 5.9840213038805986e-30 -1.0
  outer loop
    vertex 1794.4563326833386 1393.1545917120163 1.7952063911646351e-29
    vertex 1774.4563326833384 1390.1545917120156 0.0
    vertex 1774.4563326833384 1393.1545917120163 1.7952063911646351e-29
  endloop
endfacet
facet normal 0.0 5.9840213038805986e-30 -1.0
  outer loop
    vertex 1774.4563326833384 1390.1545917120156 0.0
    vertex 1794.4563326833386 1393.1545917120163 1.7952063911646351e-29
    vertex 1794.4563326833386 1390.1545917120156 0.0
  endloop
endfacet
facet normal 1.0 0.0 0.0
  outer loop
    vertex 1798.0563326833385 1415.1545917120166 19.999999999999996
    vertex 1798.0563326833385 1393.1545917120166 53.5
    vertex 1798.0563326833385 1393.1545917120166 19.999999999999996
  endloop
endfacet
facet normal 1.0 0.0 0.0
  outer loop
    vertex 1798.0563326833385 1393.1545917120166 53.5
    vertex 1798.0563326833385 1415.1545917120166 19.999999999999996
    vertex 1798.0563326833385 1415.1545917120166 53.5
  endloop
endfacet
facet normal 0.0 0.0 -1.0
  outer loop
    vertex 1798.0563326833385 1415.1545917120166 19.999999999999996
    vertex 1797.5978695158012 1414.708300132998 19.999999999999996
    vertex 1797.5978695158012 1415.1545917120166 19.999999999999996
  endloop
endfacet
facet normal 0.0 0.0 -1.0
  outer loop
    vertex 1797.5978695158012 1414.708300132998 19.999999999999996
    vertex 1781.4563326833386 1395.9952996766183 19.999999999999996
    vertex 1775.4563326833386 1393.1545917120163 19.999999999999996
  endloop
endfacet
facet normal 0.0 0.0 -1.0
  outer loop
    vertex 1781.4563326833386 1395.9952996766183 19.999999999999996
    vertex 1797.5978695158012 1414.708300132998 19.999999999999996
    vertex 1795.0563326833385 1409.2342377297155 19.999999999999996
  endloop
endfacet
facet normal 0.0 0.0 -1.0
  outer loop
    vertex 1795.0563326833385 1409.2342377297155 19.999999999999996
    vertex 1797.5978695158012 1414.708300132998 19.999999999999996
    vertex 1795.0563326833385 1393.1545917120166 19.999999999999996
  endloop
endfacet
facet normal 0.0 0.0 -1.0
  outer loop
    vertex 1795.0563326833385 1393.1545917120166 19.999999999999996
    vertex 1797.5978695158012 1414.708300132998 19.999999999999996
    vertex 1798.0563326833385 1393.1545917120166 19.999999999999996
  endloop
endfacet
facet normal 0.0 0.0 -1.0
  outer loop
    vertex 1798.0563326833385 1393.1545917120166 19.999999999999996
    vertex 1797.5978695158012 1414.708300132998 19.999999999999996
    vertex 1798.0563326833385 1415.1545917120166 19.999999999999996
  endloop
endfacet
facet normal 0.0 0.0 -1.0
  outer loop
    vertex 1781.4563326833386 1393.1545917120163 19.999999999999996
    vertex 1775.4563326833386 1393.1545917120163 19.999999999999996
    vertex 1781.4563326833386 1395.9952996766183 19.999999999999996
  endloop
endfacet
facet normal 4.556720661360393e-17 2.079917855313342e-16 1.0
  outer loop
    vertex 1798.0563326833385 1393.1545917120166 53.5
    vertex 1795.0563326833385 1409.2342377297155 53.500000000000014
    vertex 1795.0563326833385 1393.1545917120166 53.500000000000014
  endloop
endfacet
facet normal 4.556720661360393e-17 2.079917855313342e-16 1.0
  outer loop
    vertex 1795.0563326833385 1409.2342377297155 53.500000000000014
    vertex 1798.0563326833385 1393.1545917120166 53.5
    vertex 1797.5978695158012 1414.708300132998 53.5
  endloop
endfacet
facet normal 4.556720661360393e-17 2.079917855313342e-16 1.0
  outer loop
    vertex 1797.5978695158012 1414.708300132998 53.5
    vertex 1798.0563326833385 1393.1545917120166 53.5
    vertex 1797.5978695158012 1415.1545917120166 53.5
  endloop
endfacet
facet normal 4.556720661360393e-17 2.079917855313342e-16 1.0
  outer loop
    vertex 1797.5978695158012 1415.1545917120166 53.5
    vertex 1798.0563326833385 1393.1545917120166 53.5
    vertex 1798.0563326833385 1415.1545917120166 53.5
  endloop
endfacet
facet normal 4.556720661360393e-17 2.079917855313342e-16 1.0
  outer loop
    vertex 1775.4563326833386 1393.1545917120166 53.5
    vertex 1781.4563326833386 1395.9952996766183 53.500000000000014
    vertex 1797.5978695158012 1414.708300132998 53.5
  endloop
endfacet
facet normal 4.556720661360393e-17 2.079917855313342e-16 1.0
  outer loop
    vertex 1781.4563326833386 1395.9952996766183 53.500000000000014
    vertex 1775.4563326833386 1393.1545917120166 53.5
    vertex 1781.4563326833386 1393.1545917120163 53.500000000000014
  endloop
endfacet
facet normal 4.556720661360393e-17 2.079917855313342e-16 1.0
  outer loop
    vertex 1797.5978695158012 1414.708300132998 53.5
    vertex 1781.4563326833386 1395.9952996766183 53.500000000000014
    vertex 1795.0563326833385 1409.2342377297155 53.500000000000014
  endloop
endfacet
facet normal -0.6975310168602477 0.7165545900473382 -1.2957911285565396e-15
  outer loop
    vertex 1775.4563326833386 1393.1545917120166 53.5
    vertex 1797.5978695158012 1414.708300132998 19.999999999999996
    vertex 1775.4563326833386 1393.1545917120163 19.999999999999996
  endloop
endfacet
facet normal -0.6975310168602477 0.7165545900473382 -1.2957911285565396e-15
  outer loop
    vertex 1797.5978695158012 1414.708300132998 19.999999999999996
    vertex 1775.4563326833386 1393.1545917120166 53.5
    vertex 1797.5978695158012 1414.708300132998 53.5
  endloop
endfacet
facet normal -6.773809378784613e-16 -2.133346734803526e-15 -1.0
  outer loop
    vertex 1771.6514050556132 1397.0632900932253 19.999999999999993
    vertex 1769.4563326833386 1393.1545917120166 20.000000000000004
    vertex 1769.4563326833386 1397.0632900932253 19.999999999999993
  endloop
endfacet
facet normal -6.773809378784613e-16 -2.133346734803526e-15 -1.0
  outer loop
    vertex 1769.4563326833386 1393.1545917120166 20.000000000000004
    vertex 1771.6514050556132 1397.0632900932253 19.999999999999993
    vertex 1775.4563326833386 1393.1545917120163 19.999999999999996
  endloop
endfacet
facet normal 1.0514653622694822e-15 5.117751763258564e-16 1.0
  outer loop
    vertex 1775.4563326833386 1393.1545917120166 53.5
    vertex 1769.4563326833386 1397.0632900932253 53.5
    vertex 1769.4563326833386 1393.1545917120166 53.500000000000014
  endloop
endfacet
facet normal 1.0514653622694822e-15 5.117751763258564e-16 1.0
  outer loop
    vertex 1769.4563326833386 1397.0632900932253 53.5
    vertex 1775.4563326833386 1393.1545917120166 53.5
    vertex 1771.6514050556132 1397.0632900932253 53.500000000000014
  endloop
endfacet
facet normal 2.7406687650871625e-30 1.0 -2.133346734803526e-15
  outer loop
    vertex 1769.4563326833386 1397.0632900932253 53.5
    vertex 1771.6514050556132 1397.0632900932253 19.999999999999993
    vertex 1769.4563326833386 1397.0632900932253 19.999999999999993
  endloop
endfacet
facet normal 2.7406687650871625e-30 1.0 -2.133346734803526e-15
  outer loop
    vertex 1771.6514050556132 1397.0632900932253 19.999999999999993
    vertex 1769.4563326833386 1397.0632900932253 53.5
    vertex 1771.6514050556132 1397.0632900932253 53.500000000000014
  endloop
endfacet
facet normal 0.7165545900473483 0.6975310168602373 -1.8807268258584087e-15
  outer loop
    vertex 1771.6514050556132 1397.0632900932253 19.999999999999993
    vertex 1775.4563326833386 1393.1545917120166 53.5
    vertex 1775.4563326833386 1393.1545917120163 19.999999999999996
  endloop
endfacet
facet normal 0.7165545900473483 0.6975310168602373 -1.8807268258584087e-15
  outer loop
    vertex 1775.4563326833386 1393.1545917120166 53.5
    vertex 1771.6514050556132 1397.0632900932253 19.999999999999993
    vertex 1771.6514050556132 1397.0632900932253 53.500000000000014
  endloop
endfacet
facet normal 1.503982124025525e-14 1.0 -2.6936993266129165e-15
  outer loop
    vertex 1769.4563326833386 1393.1545917120166 20.000000000000004
    vertex 1775.4563326833386 1393.1545917120166 53.5
    vertex 1775.4563326833386 1393.1545917120163 19.999999999999996
  endloop
endfacet
facet normal 1.503982124025525e-14 1.0 -2.6936993266129165e-15
  outer loop
    vertex 1775.4563326833386 1393.1545917120166 53.5
    vertex 1769.4563326833386 1393.1545917120166 20.000000000000004
    vertex 1769.4563326833386 1393.1545917120166 53.500000000000014
  endloop
endfacet
facet normal -1.0 1.95481089041551e-30 6.773809378784613e-16
  outer loop
    vertex 1769.4563326833386 1397.0632900932253 53.5
    vertex 1769.4563326833386 1393.1545917120166 20.000000000000004
    vertex 1769.4563326833386 1393.1545917120166 53.500000000000014
  endloop
endfacet
facet normal -1.0 1.95481089041551e-30 6.773809378784613e-16
  outer loop
    vertex 1769.4563326833386 1393.1545917120166 20.000000000000004
    vertex 1769.4563326833386 1397.0632900932253 53.5
    vertex 1769.4563326833386 1397.0632900932253 19.999999999999993
  endloop
endfacet
facet normal 0.0 1.0 0.0
  outer loop
    vertex 1797.5978695158012 1415.1545917120166 53.5
    vertex 1798.0563326833385 1415.1545917120166 19.999999999999996
    vertex 1797.5978695158012 1415.1545917120166 19.999999999999996
  endloop
endfacet
facet normal 0.0 1.0 0.0
  outer loop
    vertex 1798.0563326833385 1415.1545917120166 19.999999999999996
    vertex 1797.5978695158012 1415.1545917120166 53.5
    vertex 1798.0563326833385 1415.1545917120166 53.5
  endloop
endfacet
facet normal -1.0 0.0 0.0
  outer loop
    vertex 1797.5978695158012 1415.1545917120166 53.5
    vertex 1797.5978695158012 1414.708300132998 19.999999999999996
    vertex 1797.5978695158012 1414.708300132998 53.5
  endloop
endfacet
facet normal -1.0 0.0 0.0
  outer loop
    vertex 1797.5978695158012 1414.708300132998 19.999999999999996
    vertex 1797.5978695158012 1415.1545917120166 53.5
    vertex 1797.5978695158012 1415.1545917120166 19.999999999999996
  endloop
endfacet
facet normal 1.0 -6.234635307494473e-14 -3.3160254695939585e-31
  outer loop
    vertex 1781.4563326833386 1393.1545917120163 19.999999999999996
    vertex 1781.4563326833384 1390.1545917120163 53.500000000000014
    vertex 1781.4563326833384 1390.1545917120163 19.999999999999996
  endloop
endfacet
facet normal 1.0 -6.234635307494473e-14 -3.3160254695939585e-31
  outer loop
    vertex 1781.4563326833384 1390.1545917120163 53.500000000000014
    vertex 1781.4563326833386 1393.1545917120163 19.999999999999996
    vertex 1781.4563326833386 1393.1545917120163 53.500000000000014
  endloop
endfacet
facet normal 1.0 -6.234635307494473e-14 -3.3160254695939585e-31
  outer loop
    vertex 1781.4563326833386 1393.1545917120163 53.500000000000014
    vertex 1781.4563326833386 1393.1545917120163 19.999999999999996
    vertex 1781.4563326833386 1395.9952996766183 19.999999999999996
  endloop
endfacet
facet normal 1.0 -6.234635307494473e-14 -3.3160254695939585e-31
  outer loop
    vertex 1781.4563326833386 1393.1545917120163 53.500000000000014
    vertex 1781.4563326833386 1395.9952996766183 19.999999999999996
    vertex 1781.4563326833386 1395.9952996766183 53.500000000000014
  endloop
endfacet
facet normal 0.6975310168602478 -0.7165545900473381 0.0
  outer loop
    vertex 1795.0563326833385 1409.2342377297155 53.500000000000014
    vertex 1781.4563326833386 1395.9952996766183 19.999999999999996
    vertex 1795.0563326833385 1409.2342377297155 19.999999999999996
  endloop
endfacet
facet normal 0.6975310168602478 -0.7165545900473381 0.0
  outer loop
    vertex 1781.4563326833386 1395.9952996766183 19.999999999999996
    vertex 1795.0563326833385 1409.2342377297155 53.500000000000014
    vertex 1781.4563326833386 1395.9952996766183 53.500000000000014
  endloop
endfacet
facet normal -1.0 1.2618630274644035e-14 2.6845964402647157e-31
  outer loop
    vertex 1795.0563326833385 1393.1545917120166 53.500000000000014
    vertex 1795.056332683338 1390.1545917120163 19.999999999999996
    vertex 1795.056332683338 1390.1545917120163 53.500000000000014
  endloop
endfacet
facet normal -1.0 1.2618630274644035e-14 2.6845964402647157e-31
  outer loop
    vertex 1795.056332683338 1390.1545917120163 19.999999999999996
    vertex 1795.0563326833385 1393.1545917120166 53.500000000000014
    vertex 1795.0563326833385 1393.1545917120166 19.999999999999996
  endloop
endfacet
facet normal -1.0 1.2618630274644035e-14 2.6845964402647157e-31
  outer loop
    vertex 1795.0563326833385 1393.1545917120166 19.999999999999996
    vertex 1795.0563326833385 1393.1545917120166 53.500000000000014
    vertex 1795.0563326833385 1409.2342377297155 53.500000000000014
  endloop
endfacet
facet normal -1.0 1.2618630274644035e-14 2.6845964402647157e-31
  outer loop
    vertex 1795.0563326833385 1393.1545917120166 19.999999999999996
    vertex 1795.0563326833385 1409.2342377297155 53.500000000000014
    vertex 1795.0563326833385 1409.2342377297155 19.999999999999996
  endloop
endfacet
facet normal 0.0 0.0 -1.0
  outer loop
    vertex 1781.4563326833386 1393.1545917120163 53.500000000000014
    vertex 1795.056332683338 1390.1545917120163 53.500000000000014
    vertex 1781.4563326833384 1390.1545917120163 53.500000000000014
  endloop
endfacet
facet normal 0.0 0.0 -1.0
  outer loop
    vertex 1795.056332683338 1390.1545917120163 53.500000000000014
    vertex 1781.4563326833386 1393.1545917120163 53.500000000000014
    vertex 1795.0563326833385 1393.1545917120166 53.500000000000014
  endloop
endfacet
facet normal 0.0 0.0 1.0
  outer loop
    vertex 1795.056332683338 1390.1545917120163 19.999999999999996
    vertex 1781.4563326833386 1393.1545917120163 19.999999999999996
    vertex 1781.4563326833384 1390.1545917120163 19.999999999999996
  endloop
endfacet
facet normal 0.0 0.0 1.0
  outer loop
    vertex 1781.4563326833386 1393.1545917120163 19.999999999999996
    vertex 1795.056332683338 1390.1545917120163 19.999999999999996
    vertex 1795.0563326833385 1393.1545917120166 19.999999999999996
  endloop
endfacet
facet normal 0.0 0.0 -1.0
  outer loop
    vertex 1774.4563326833384 1393.1545917120163 56.5
    vertex 1765.0563326833385 1393.1545917120163 56.5
    vertex 1765.0563326833385 1415.1545917120168 56.5
  endloop
endfacet
facet normal 1.0 0.0 0.0
  outer loop
    vertex 1765.0563326833385 1415.1545917120168 16.999999999999996
    vertex 1765.0563326833385 1393.1545917120163 56.5
    vertex 1765.0563326833385 1393.1545917120163 17.0
  endloop
endfacet
facet normal 1.0 0.0 0.0
  outer loop
    vertex 1765.0563326833385 1393.1545917120163 56.5
    vertex 1765.0563326833385 1415.1545917120168 16.999999999999996
    vertex 1765.0563326833385 1415.1545917120168 56.5
  endloop
endfacet
facet normal 0.0 1.2818029466126568e-16 1.0
  outer loop
    vertex 1774.4563326833384 1393.1545917120163 17.0
    vertex 1765.0563326833385 1415.1545917120168 16.999999999999996
    vertex 1765.0563326833385 1393.1545917120163 17.0
  endloop
endfacet
facet normal 0.9195768791852755 0.39291012110642975 0.0
  outer loop
    vertex 1765.0563326833385 1415.1545917120168 56.5
    vertex 1774.4563326833384 1393.1545917120163 62.499999999999986
    vertex 1774.4563326833384 1393.1545917120163 56.5
  endloop
endfacet
facet normal 0.9195768791852755 0.39291012110642975 0.0
  outer loop
    vertex 1774.4563326833384 1393.1545917120163 62.499999999999986
    vertex 1765.0563326833385 1415.1545917120168 56.5
    vertex 1765.0563326833385 1415.1545917120168 62.499999999999986
  endloop
endfacet
facet normal -0.1305261922200452 0.0 -0.9914448613738114
  outer loop
    vertex 1775.4916088637485 1393.1545917120163 70.36370330515626
    vertex 1774.4563326833384 1390.1545917120156 70.5
    vertex 1774.4563326833384 1393.1545917120163 70.5
  endloop
endfacet
facet normal -0.1305261922200452 0.0 -0.9914448613738114
  outer loop
    vertex 1774.4563326833384 1390.1545917120156 70.5
    vertex 1775.4916088637485 1393.1545917120163 70.36370330515626
    vertex 1775.4916088637485 1390.1545917120156 70.36370330515626
  endloop
endfacet
facet normal -0.9914448613737743 0.0 0.13052619222032683
  outer loop
    vertex 1778.4563326833386 1393.1545917120163 66.49999999999999
    vertex 1778.3200359884945 1390.1545917120156 65.4647238195899
    vertex 1778.4563326833386 1390.1545917120156 66.49999999999999
  endloop
endfacet
facet normal -0.9914448613737743 0.0 0.13052619222032683
  outer loop
    vertex 1778.3200359884945 1390.1545917120156 65.4647238195899
    vertex 1778.4563326833386 1393.1545917120163 66.49999999999999
    vertex 1778.3200359884945 1393.1545917120163 65.4647238195899
  endloop
endfacet
facet normal -0.38268343236514085 -2.978947564135893e-27 0.9238795325112656
  outer loop
    vertex 1776.4563326833384 1390.1545917120156 63.035898384862236
    vertex 1775.4916088637485 1393.1545917120163 62.636296694843715
    vertex 1775.4916088637485 1390.1545917120156 62.636296694843715
  endloop
endfacet
facet normal -0.38268343236514085 -2.978947564135893e-27 0.9238795325112656
  outer loop
    vertex 1775.4916088637485 1393.1545917120163 62.636296694843715
    vertex 1776.4563326833384 1390.1545917120156 63.035898384862236
    vertex 1776.4563326833384 1393.1545917120163 63.035898384862236
  endloop
endfacet
facet normal -0.6087614290087545 -3.5890705805942703e-28 -0.7933533402912093
  outer loop
    vertex 1777.2847598080843 1393.1545917120163 69.32842712474618
    vertex 1776.4563326833384 1390.1545917120156 69.96410161513775
    vertex 1776.4563326833384 1393.1545917120163 69.96410161513775
  endloop
endfacet
facet normal -0.6087614290087545 -3.5890705805942703e-28 -0.7933533402912093
  outer loop
    vertex 1776.4563326833384 1390.1545917120156 69.96410161513775
    vertex 1777.2847598080843 1393.1545917120163 69.32842712474618
    vertex 1777.2847598080843 1390.1545917120156 69.32842712474618
  endloop
endfacet
facet normal -1.0 0.0 0.0
  outer loop
    vertex 1774.4563326833384 1393.1545917120163 73.5
    vertex 1774.4563326833384 1390.1545917120156 70.5
    vertex 1774.4563326833384 1390.1545917120156 73.5
  endloop
endfacet
facet normal -1.0 0.0 0.0
  outer loop
    vertex 1774.4563326833384 1390.1545917120156 70.5
    vertex 1774.4563326833384 1393.1545917120163 73.5
    vertex 1774.4563326833384 1393.1545917120163 70.5
  endloop
endfacet
facet normal 0.0 0.0 1.0
  outer loop
    vertex 1774.4563326833384 1390.1545917120156 62.499999999999986
    vertex 1762.0563326833383 1415.1545917120168 62.499999999999986
    vertex 1762.0563326833383 1390.1545917120156 62.499999999999986
  endloop
endfacet
facet normal 0.0 0.0 1.0
  outer loop
    vertex 1762.0563326833383 1415.1545917120168 62.499999999999986
    vertex 1774.4563326833384 1390.1545917120156 62.499999999999986
    vertex 1765.0563326833385 1415.1545917120168 62.499999999999986
  endloop
endfacet
facet normal 0.0 0.0 1.0
  outer loop
    vertex 1765.0563326833385 1415.1545917120168 62.499999999999986
    vertex 1774.4563326833384 1390.1545917120156 62.499999999999986
    vertex 1774.4563326833384 1393.1545917120163 62.499999999999986
  endloop
endfacet
facet normal -0.1305261922200452 0.0 0.9914448613738114
  outer loop
    vertex 1775.4916088637485 1390.1545917120156 62.636296694843715
    vertex 1774.4563326833384 1393.1545917120163 62.499999999999986
    vertex 1774.4563326833384 1390.1545917120156 62.499999999999986
  endloop
endfacet
facet normal -0.1305261922200452 0.0 0.9914448613738114
  outer loop
    vertex 1774.4563326833384 1393.1545917120163 62.499999999999986
    vertex 1775.4916088637485 1390.1545917120156 62.636296694843715
    vertex 1775.4916088637485 1393.1545917120163 62.636296694843715
  endloop
endfacet
facet normal -0.6087614290087545 0.0 0.7933533402912093
  outer loop
    vertex 1777.2847598080843 1390.1545917120156 63.671572875253794
    vertex 1776.4563326833384 1393.1545917120163 63.035898384862236
    vertex 1776.4563326833384 1390.1545917120156 63.035898384862236
  endloop
endfacet
facet normal -0.6087614290087545 0.0 0.7933533402912093
  outer loop
    vertex 1776.4563326833384 1393.1545917120163 63.035898384862236
    vertex 1777.2847598080843 1390.1545917120156 63.671572875253794
    vertex 1777.2847598080843 1393.1545917120163 63.671572875253794
  endloop
endfacet
facet normal -0.9238795325113817 8.65615469821687e-29 0.38268343236486085
  outer loop
    vertex 1778.3200359884945 1393.1545917120163 65.4647238195899
    vertex 1777.9204342984763 1390.1545917120156 64.49999999999999
    vertex 1778.3200359884945 1390.1545917120156 65.4647238195899
  endloop
endfacet
facet normal -0.9238795325113817 8.65615469821687e-29 0.38268343236486085
  outer loop
    vertex 1777.9204342984763 1390.1545917120156 64.49999999999999
    vertex 1778.3200359884945 1393.1545917120163 65.4647238195899
    vertex 1777.9204342984763 1393.1545917120163 64.49999999999999
  endloop
endfacet
facet normal -0.7933533402910808 -4.731320027214773e-18 0.6087614290089218
  outer loop
    vertex 1777.9204342984763 1393.1545917120163 64.49999999999999
    vertex 1777.2847598080843 1390.1545917120156 63.671572875253794
    vertex 1777.9204342984763 1390.1545917120156 64.49999999999999
  endloop
endfacet
facet normal -0.7933533402910808 -4.731320027214773e-18 0.6087614290089218
  outer loop
    vertex 1777.2847598080843 1390.1545917120156 63.671572875253794
    vertex 1777.9204342984763 1393.1545917120163 64.49999999999999
    vertex 1777.2847598080843 1393.1545917120163 63.671572875253794
  endloop
endfacet
facet normal -0.38268343236514085 2.978947564135893e-27 -0.9238795325112656
  outer loop
    vertex 1776.4563326833384 1393.1545917120163 69.96410161513775
    vertex 1775.4916088637485 1390.1545917120156 70.36370330515626
    vertex 1775.4916088637485 1393.1545917120163 70.36370330515626
  endloop
endfacet
facet normal -0.38268343236514085 2.978947564135893e-27 -0.9238795325112656
  outer loop
    vertex 1775.4916088637485 1390.1545917120156 70.36370330515626
    vertex 1776.4563326833384 1393.1545917120163 69.96410161513775
    vertex 1776.4563326833384 1390.1545917120156 69.96410161513775
  endloop
endfacet
facet normal -0.9914448613737741 -2.9524531674815694e-29 -0.1305261922203282
  outer loop
    vertex 1778.3200359884945 1393.1545917120163 67.53527618041007
    vertex 1778.4563326833386 1390.1545917120156 66.49999999999999
    vertex 1778.3200359884945 1390.1545917120156 67.53527618041007
  endloop
endfacet
facet normal -0.9914448613737741 -2.9524531674815694e-29 -0.1305261922203282
  outer loop
    vertex 1778.4563326833386 1390.1545917120156 66.49999999999999
    vertex 1778.3200359884945 1393.1545917120163 67.53527618041007
    vertex 1778.4563326833386 1393.1545917120163 66.49999999999999
  endloop
endfacet
facet normal -0.7933533402910847 0.0 -0.6087614290089166
  outer loop
    vertex 1777.2847598080843 1393.1545917120163 69.32842712474618
    vertex 1777.9204342984763 1390.1545917120156 68.49999999999999
    vertex 1777.2847598080843 1390.1545917120156 69.32842712474618
  endloop
endfacet
facet normal -0.7933533402910847 0.0 -0.6087614290089166
  outer loop
    vertex 1777.9204342984763 1390.1545917120156 68.49999999999999
    vertex 1777.2847598080843 1393.1545917120163 69.32842712474618
    vertex 1777.9204342984763 1393.1545917120163 68.49999999999999
  endloop
endfacet
facet normal -0.9238795325113817 -8.65615469821687e-29 -0.38268343236486085
  outer loop
    vertex 1777.9204342984763 1393.1545917120163 68.49999999999999
    vertex 1778.3200359884945 1390.1545917120156 67.53527618041007
    vertex 1777.9204342984763 1390.1545917120156 68.49999999999999
  endloop
endfacet
facet normal -0.9238795325113817 -8.65615469821687e-29 -0.38268343236486085
  outer loop
    vertex 1778.3200359884945 1390.1545917120156 67.53527618041007
    vertex 1777.9204342984763 1393.1545917120163 68.49999999999999
    vertex 1778.3200359884945 1393.1545917120163 67.53527618041007
  endloop
endfacet
facet normal 0.0 1.0 0.0
  outer loop
    vertex 1762.0563326833383 1415.1545917120168 62.499999999999986
    vertex 1765.0563326833385 1415.1545917120168 10.999999999999996
    vertex 1762.0563326833383 1415.1545917120168 10.999999999999996
  endloop
endfacet
facet normal 0.0 1.0 0.0
  outer loop
    vertex 1765.0563326833385 1415.1545917120168 10.999999999999996
    vertex 1762.0563326833383 1415.1545917120168 62.499999999999986
    vertex 1765.0563326833385 1415.1545917120168 16.999999999999996
  endloop
endfacet
facet normal 0.0 1.0 0.0
  outer loop
    vertex 1765.0563326833385 1415.1545917120168 16.999999999999996
    vertex 1762.0563326833383 1415.1545917120168 62.499999999999986
    vertex 1765.0563326833385 1415.1545917120168 56.5
  endloop
endfacet
facet normal 0.0 1.0 0.0
  outer loop
    vertex 1765.0563326833385 1415.1545917120168 56.5
    vertex 1762.0563326833383 1415.1545917120168 62.499999999999986
    vertex 1765.0563326833385 1415.1545917120168 62.499999999999986
  endloop
endfacet
facet normal -1.9724834796620017e-15 1.0 -8.019429300963905e-17
  outer loop
    vertex 1765.0563326833385 1393.1545917120163 17.0
    vertex 1769.4563326833386 1393.1545917120166 20.000000000000004
    vertex 1774.4563326833384 1393.1545917120163 17.0
  endloop
endfacet
facet normal -1.9724834796620017e-15 1.0 -8.019429300963905e-17
  outer loop
    vertex 1769.4563326833386 1393.1545917120166 20.000000000000004
    vertex 1765.0563326833385 1393.1545917120163 17.0
    vertex 1765.0563326833385 1393.1545917120163 56.5
  endloop
endfacet
facet normal -1.9724834796620017e-15 1.0 -8.019429300963905e-17
  outer loop
    vertex 1774.4563326833384 1393.1545917120163 17.0
    vertex 1769.4563326833386 1393.1545917120166 20.000000000000004
    vertex 1775.4563326833386 1393.1545917120163 19.999999999999996
  endloop
endfacet
facet normal -1.9724834796620017e-15 1.0 -8.019429300963905e-17
  outer loop
    vertex 1769.4563326833386 1393.1545917120166 20.000000000000004
    vertex 1765.0563326833385 1393.1545917120163 56.5
    vertex 1769.4563326833386 1393.1545917120166 53.500000000000014
  endloop
endfacet
facet normal -1.9724834796620017e-15 1.0 -8.019429300963905e-17
  outer loop
    vertex 1769.4563326833386 1393.1545917120166 53.500000000000014
    vertex 1765.0563326833385 1393.1545917120163 56.5
    vertex 1781.4563326833386 1393.1545917120163 53.500000000000014
  endloop
endfacet
facet normal -1.9724834796620017e-15 1.0 -8.019429300963905e-17
  outer loop
    vertex 1781.4563326833386 1393.1545917120163 53.500000000000014
    vertex 1765.0563326833385 1393.1545917120163 56.5
    vertex 1795.0563326833385 1393.1545917120166 53.500000000000014
  endloop
endfacet
facet normal -1.9724834796620017e-15 1.0 -8.019429300963905e-17
  outer loop
    vertex 1774.4563326833384 1393.1545917120163 73.5
    vertex 1794.4563326833386 1393.1545917120163 71.0
    vertex 1774.4563326833384 1393.1545917120163 70.5
  endloop
endfacet
facet normal -1.9724834796620017e-15 1.0 -8.019429300963905e-17
  outer loop
    vertex 1794.4563326833386 1393.1545917120163 71.0
    vertex 1774.4563326833384 1393.1545917120163 73.5
    vertex 1794.4563326833386 1393.1545917120163 73.5
  endloop
endfacet
facet normal -1.9724834796620017e-15 1.0 -8.019429300963905e-17
  outer loop
    vertex 1795.0563326833385 1393.1545917120166 53.500000000000014
    vertex 1798.0563326833385 1393.1545917120163 71.0
    vertex 1798.0563326833385 1393.1545917120166 53.5
  endloop
endfacet
facet normal -1.9724834796620017e-15 1.0 -8.019429300963905e-17
  outer loop
    vertex 1798.0563326833385 1393.1545917120163 71.0
    vertex 1795.0563326833385 1393.1545917120166 53.500000000000014
    vertex 1774.4563326833384 1393.1545917120163 56.5
  endloop
endfacet
facet normal -1.9724834796620017e-15 1.0 -8.019429300963905e-17
  outer loop
    vertex 1774.4563326833384 1393.1545917120163 56.5
    vertex 1795.0563326833385 1393.1545917120166 53.500000000000014
    vertex 1765.0563326833385 1393.1545917120163 56.5
  endloop
endfacet
facet normal -1.9724834796620017e-15 1.0 -8.019429300963905e-17
  outer loop
    vertex 1798.0563326833385 1393.1545917120163 71.0
    vertex 1774.4563326833384 1393.1545917120163 56.5
    vertex 1775.4916088637485 1393.1545917120163 62.636296694843715
  endloop
endfacet
facet normal -1.9724834796620017e-15 1.0 -8.019429300963905e-17
  outer loop
    vertex 1775.4916088637485 1393.1545917120163 62.636296694843715
    vertex 1774.4563326833384 1393.1545917120163 56.5
    vertex 1774.4563326833384 1393.1545917120163 62.499999999999986
  endloop
endfacet
facet normal -1.9724834796620017e-15 1.0 -8.019429300963905e-17
  outer loop
    vertex 1798.0563326833385 1393.1545917120163 71.0
    vertex 1775.4916088637485 1393.1545917120163 62.636296694843715
    vertex 1776.4563326833384 1393.1545917120163 63.035898384862236
  endloop
endfacet
facet normal -1.9724834796620017e-15 1.0 -8.019429300963905e-17
  outer loop
    vertex 1798.0563326833385 1393.1545917120163 71.0
    vertex 1776.4563326833384 1393.1545917120163 63.035898384862236
    vertex 1777.2847598080843 1393.1545917120163 63.671572875253794
  endloop
endfacet
facet normal -1.9724834796620017e-15 1.0 -8.019429300963905e-17
  outer loop
    vertex 1798.0563326833385 1393.1545917120163 71.0
    vertex 1777.2847598080843 1393.1545917120163 63.671572875253794
    vertex 1777.9204342984763 1393.1545917120163 64.49999999999999
  endloop
endfacet
facet normal -1.9724834796620017e-15 1.0 -8.019429300963905e-17
  outer loop
    vertex 1798.0563326833385 1393.1545917120163 71.0
    vertex 1777.9204342984763 1393.1545917120163 64.49999999999999
    vertex 1778.3200359884945 1393.1545917120163 65.4647238195899
  endloop
endfacet
facet normal -1.9724834796620017e-15 1.0 -8.019429300963905e-17
  outer loop
    vertex 1798.0563326833385 1393.1545917120163 71.0
    vertex 1778.3200359884945 1393.1545917120163 65.4647238195899
    vertex 1778.4563326833386 1393.1545917120163 66.49999999999999
  endloop
endfacet
facet normal -1.9724834796620017e-15 1.0 -8.019429300963905e-17
  outer loop
    vertex 1798.0563326833385 1393.1545917120163 71.0
    vertex 1778.4563326833386 1393.1545917120163 66.49999999999999
    vertex 1778.3200359884945 1393.1545917120163 67.53527618041007
  endloop
endfacet
facet normal -1.9724834796620017e-15 1.0 -8.019429300963905e-17
  outer loop
    vertex 1798.0563326833385 1393.1545917120163 71.0
    vertex 1778.3200359884945 1393.1545917120163 67.53527618041007
    vertex 1777.9204342984763 1393.1545917120163 68.49999999999999
  endloop
endfacet
facet normal -1.9724834796620017e-15 1.0 -8.019429300963905e-17
  outer loop
    vertex 1798.0563326833385 1393.1545917120163 71.0
    vertex 1777.9204342984763 1393.1545917120163 68.49999999999999
    vertex 1777.2847598080843 1393.1545917120163 69.32842712474618
  endloop
endfacet
facet normal -1.9724834796620017e-15 1.0 -8.019429300963905e-17
  outer loop
    vertex 1798.0563326833385 1393.1545917120163 71.0
    vertex 1777.2847598080843 1393.1545917120163 69.32842712474618
    vertex 1776.4563326833384 1393.1545917120163 69.96410161513775
  endloop
endfacet
facet normal -1.9724834796620017e-15 1.0 -8.019429300963905e-17
  outer loop
    vertex 1798.0563326833385 1393.1545917120163 71.0
    vertex 1776.4563326833384 1393.1545917120163 69.96410161513775
    vertex 1775.4916088637485 1393.1545917120163 70.36370330515626
  endloop
endfacet
facet normal -1.9724834796620017e-15 1.0 -8.019429300963905e-17
  outer loop
    vertex 1798.0563326833385 1393.1545917120163 71.0
    vertex 1775.4916088637485 1393.1545917120163 70.36370330515626
    vertex 1774.4563326833384 1393.1545917120163 70.5
  endloop
endfacet
facet normal -1.9724834796620017e-15 1.0 -8.019429300963905e-17
  outer loop
    vertex 1798.0563326833385 1393.1545917120163 71.0
    vertex 1774.4563326833384 1393.1545917120163 70.5
    vertex 1794.4563326833386 1393.1545917120163 71.0
  endloop
endfacet
facet normal -1.9724834796620017e-15 1.0 -8.019429300963905e-17
  outer loop
    vertex 1781.4563326833386 1393.1545917120163 53.500000000000014
    vertex 1775.4563326833386 1393.1545917120166 53.5
    vertex 1769.4563326833386 1393.1545917120166 53.500000000000014
  endloop
endfacet
facet normal -1.9724834796620017e-15 1.0 -8.019429300963905e-17
  outer loop
    vertex 1774.4563326833384 1393.1545917120163 3.0000000000000013
    vertex 1794.4563326833386 1393.1545917120163 1.7952063911646351e-29
    vertex 1774.4563326833384 1393.1545917120163 1.7952063911646351e-29
  endloop
endfacet
facet normal -1.9724834796620017e-15 1.0 -8.019429300963905e-17
  outer loop
    vertex 1794.4563326833386 1393.1545917120163 1.7952063911646351e-29
    vertex 1774.4563326833384 1393.1545917120163 3.0000000000000013
    vertex 1794.4563326833386 1393.1545917120163 2.4999999999999956
  endloop
endfacet
facet normal -1.9724834796620017e-15 1.0 -8.019429300963905e-17
  outer loop
    vertex 1794.4563326833386 1393.1545917120163 2.4999999999999956
    vertex 1774.4563326833384 1393.1545917120163 3.0000000000000013
    vertex 1798.0563326833385 1393.1545917120163 2.4999999999999956
  endloop
endfacet
facet normal -1.9724834796620017e-15 1.0 -8.019429300963905e-17
  outer loop
    vertex 1798.0563326833385 1393.1545917120163 2.4999999999999956
    vertex 1774.4563326833384 1393.1545917120163 3.0000000000000013
    vertex 1775.4916088637485 1393.1545917120163 3.136296694843728
  endloop
endfacet
facet normal -1.9724834796620017e-15 1.0 -8.019429300963905e-17
  outer loop
    vertex 1798.0563326833385 1393.1545917120163 2.4999999999999956
    vertex 1775.4916088637485 1393.1545917120163 3.136296694843728
    vertex 1776.4563326833384 1393.1545917120163 3.535898384862246
  endloop
endfacet
facet normal -1.9724834796620017e-15 1.0 -8.019429300963905e-17
  outer loop
    vertex 1798.0563326833385 1393.1545917120163 2.4999999999999956
    vertex 1776.4563326833384 1393.1545917120163 3.535898384862246
    vertex 1798.0563326833385 1393.1545917120166 19.999999999999996
  endloop
endfacet
facet normal -1.9724834796620017e-15 1.0 -8.019429300963905e-17
  outer loop
    vertex 1798.0563326833385 1393.1545917120166 19.999999999999996
    vertex 1776.4563326833384 1393.1545917120163 3.535898384862246
    vertex 1777.2847598080843 1393.1545917120163 4.17157287525381
  endloop
endfacet
facet normal -1.9724834796620017e-15 1.0 -8.019429300963905e-17
  outer loop
    vertex 1798.0563326833385 1393.1545917120166 19.999999999999996
    vertex 1777.2847598080843 1393.1545917120163 4.17157287525381
    vertex 1777.9204342984763 1393.1545917120163 4.999999999999999
  endloop
endfacet
facet normal -1.9724834796620017e-15 1.0 -8.019429300963905e-17
  outer loop
    vertex 1798.0563326833385 1393.1545917120166 19.999999999999996
    vertex 1777.9204342984763 1393.1545917120163 4.999999999999999
    vertex 1778.3200359884945 1393.1545917120163 5.964723819589916
  endloop
endfacet
facet normal -1.9724834796620017e-15 1.0 -8.019429300963905e-17
  outer loop
    vertex 1798.0563326833385 1393.1545917120166 19.999999999999996
    vertex 1778.3200359884945 1393.1545917120163 5.964723819589916
    vertex 1778.4563326833386 1393.1545917120163 7.000000000000001
  endloop
endfacet
facet normal -1.9724834796620017e-15 1.0 -8.019429300963905e-17
  outer loop
    vertex 1798.0563326833385 1393.1545917120166 19.999999999999996
    vertex 1778.4563326833386 1393.1545917120163 7.000000000000001
    vertex 1778.3200359884945 1393.1545917120163 8.035276180410085
  endloop
endfacet
facet normal -1.9724834796620017e-15 1.0 -8.019429300963905e-17
  outer loop
    vertex 1798.0563326833385 1393.1545917120166 19.999999999999996
    vertex 1778.3200359884945 1393.1545917120163 8.035276180410085
    vertex 1777.9204342984763 1393.1545917120163 8.999999999999998
  endloop
endfacet
facet normal -1.9724834796620017e-15 1.0 -8.019429300963905e-17
  outer loop
    vertex 1798.0563326833385 1393.1545917120166 19.999999999999996
    vertex 1777.9204342984763 1393.1545917120163 8.999999999999998
    vertex 1777.2847598080843 1393.1545917120163 9.82842712474619
  endloop
endfacet
facet normal -1.9724834796620017e-15 1.0 -8.019429300963905e-17
  outer loop
    vertex 1798.0563326833385 1393.1545917120166 19.999999999999996
    vertex 1777.2847598080843 1393.1545917120163 9.82842712474619
    vertex 1776.4563326833384 1393.1545917120163 10.464101615137752
  endloop
endfacet
facet normal -1.9724834796620017e-15 1.0 -8.019429300963905e-17
  outer loop
    vertex 1798.0563326833385 1393.1545917120166 19.999999999999996
    vertex 1776.4563326833384 1393.1545917120163 10.464101615137752
    vertex 1775.4916088637485 1393.1545917120163 10.863703305156273
  endloop
endfacet
facet normal -1.9724834796620017e-15 1.0 -8.019429300963905e-17
  outer loop
    vertex 1798.0563326833385 1393.1545917120166 19.999999999999996
    vertex 1775.4916088637485 1393.1545917120163 10.863703305156273
    vertex 1774.4563326833384 1393.1545917120163 11.0
  endloop
endfacet
facet normal -1.9724834796620017e-15 1.0 -8.019429300963905e-17
  outer loop
    vertex 1798.0563326833385 1393.1545917120166 19.999999999999996
    vertex 1774.4563326833384 1393.1545917120163 11.0
    vertex 1774.4563326833384 1393.1545917120163 17.0
  endloop
endfacet
facet normal -1.9724834796620017e-15 1.0 -8.019429300963905e-17
  outer loop
    vertex 1798.0563326833385 1393.1545917120166 19.999999999999996
    vertex 1774.4563326833384 1393.1545917120163 17.0
    vertex 1775.4563326833386 1393.1545917120163 19.999999999999996
  endloop
endfacet
facet normal -1.9724834796620017e-15 1.0 -8.019429300963905e-17
  outer loop
    vertex 1798.0563326833385 1393.1545917120166 19.999999999999996
    vertex 1775.4563326833386 1393.1545917120163 19.999999999999996
    vertex 1781.4563326833386 1393.1545917120163 19.999999999999996
  endloop
endfacet
facet normal -1.9724834796620017e-15 1.0 -8.019429300963905e-17
  outer loop
    vertex 1798.0563326833385 1393.1545917120166 19.999999999999996
    vertex 1781.4563326833386 1393.1545917120163 19.999999999999996
    vertex 1795.0563326833385 1393.1545917120166 19.999999999999996
  endloop
endfacet
facet normal -1.0 0.0 0.0
  outer loop
    vertex 1762.0563326833383 1415.1545917120168 62.499999999999986
    vertex 1762.0563326833383 1390.1545917120156 10.999999999999996
    vertex 1762.0563326833383 1390.1545917120156 62.499999999999986
  endloop
endfacet
facet normal -1.0 0.0 0.0
  outer loop
    vertex 1762.0563326833383 1390.1545917120156 10.999999999999996
    vertex 1762.0563326833383 1415.1545917120168 62.499999999999986
    vertex 1762.0563326833383 1415.1545917120168 10.999999999999996
  endloop
endfacet
facet normal 7.816090549456182e-15 -1.0 2.5158680848451325e-16
  outer loop
    vertex 1798.0563326833385 1390.1545917120156 71.0
    vertex 1794.4563326833386 1390.1545917120156 2.4999999999999956
    vertex 1798.0563326833385 1390.1545917120156 2.4999999999999956
  endloop
endfacet
facet normal 7.816090549456182e-15 -1.0 2.5158680848451325e-16
  outer loop
    vertex 1794.4563326833386 1390.1545917120156 2.4999999999999956
    vertex 1798.0563326833385 1390.1545917120156 71.0
    vertex 1795.056332683338 1390.1545917120163 19.999999999999996
  endloop
endfacet
facet normal 7.816090549456182e-15 -1.0 2.5158680848451325e-16
  outer loop
    vertex 1794.4563326833386 1390.1545917120156 2.4999999999999956
    vertex 1795.056332683338 1390.1545917120163 19.999999999999996
    vertex 1777.2847598080843 1390.1545917120156 4.17157287525381
  endloop
endfacet
facet normal 7.816090549456182e-15 -1.0 2.5158680848451325e-16
  outer loop
    vertex 1794.4563326833386 1390.1545917120156 2.4999999999999956
    vertex 1777.2847598080843 1390.1545917120156 4.17157287525381
    vertex 1776.4563326833384 1390.1545917120156 3.535898384862246
  endloop
endfacet
facet normal 7.816090549456182e-15 -1.0 2.5158680848451325e-16
  outer loop
    vertex 1794.4563326833386 1390.1545917120156 2.4999999999999956
    vertex 1776.4563326833384 1390.1545917120156 3.535898384862246
    vertex 1775.4916088637485 1390.1545917120156 3.136296694843728
  endloop
endfacet
facet normal 7.816090549456182e-15 -1.0 2.5158680848451325e-16
  outer loop
    vertex 1794.4563326833386 1390.1545917120156 2.4999999999999956
    vertex 1775.4916088637485 1390.1545917120156 3.136296694843728
    vertex 1774.4563326833384 1390.1545917120156 3.0000000000000013
  endloop
endfacet
facet normal 7.816090549456182e-15 -1.0 2.5158680848451325e-16
  outer loop
    vertex 1777.2847598080843 1390.1545917120156 4.17157287525381
    vertex 1795.056332683338 1390.1545917120163 19.999999999999996
    vertex 1777.9204342984763 1390.1545917120156 4.999999999999999
  endloop
endfacet
facet normal 7.816090549456182e-15 -1.0 2.5158680848451325e-16
  outer loop
    vertex 1777.9204342984763 1390.1545917120156 4.999999999999999
    vertex 1795.056332683338 1390.1545917120163 19.999999999999996
    vertex 1778.3200359884945 1390.1545917120156 5.964723819589916
  endloop
endfacet
facet normal 7.816090549456182e-15 -1.0 2.5158680848451325e-16
  outer loop
    vertex 1778.3200359884945 1390.1545917120156 5.964723819589916
    vertex 1795.056332683338 1390.1545917120163 19.999999999999996
    vertex 1778.4563326833386 1390.1545917120156 7.000000000000001
  endloop
endfacet
facet normal 7.816090549456182e-15 -1.0 2.5158680848451325e-16
  outer loop
    vertex 1778.4563326833386 1390.1545917120156 7.000000000000001
    vertex 1795.056332683338 1390.1545917120163 19.999999999999996
    vertex 1778.3200359884945 1390.1545917120156 8.035276180410085
  endloop
endfacet
facet normal 7.816090549456182e-15 -1.0 2.5158680848451325e-16
  outer loop
    vertex 1778.3200359884945 1390.1545917120156 8.035276180410085
    vertex 1795.056332683338 1390.1545917120163 19.999999999999996
    vertex 1777.9204342984763 1390.1545917120156 8.999999999999998
  endloop
endfacet
facet normal 7.816090549456182e-15 -1.0 2.5158680848451325e-16
  outer loop
    vertex 1777.9204342984763 1390.1545917120156 8.999999999999998
    vertex 1795.056332683338 1390.1545917120163 19.999999999999996
    vertex 1777.2847598080843 1390.1545917120156 9.82842712474619
  endloop
endfacet
facet normal 7.816090549456182e-15 -1.0 2.5158680848451325e-16
  outer loop
    vertex 1777.2847598080843 1390.1545917120156 9.82842712474619
    vertex 1795.056332683338 1390.1545917120163 19.999999999999996
    vertex 1776.4563326833384 1390.1545917120156 10.464101615137752
  endloop
endfacet
facet normal 7.816090549456182e-15 -1.0 2.5158680848451325e-16
  outer loop
    vertex 1776.4563326833384 1390.1545917120156 10.464101615137752
    vertex 1795.056332683338 1390.1545917120163 19.999999999999996
    vertex 1775.4916088637485 1390.1545917120156 10.863703305156273
  endloop
endfacet
facet normal 7.816090549456182e-15 -1.0 2.5158680848451325e-16
  outer loop
    vertex 1775.4916088637485 1390.1545917120156 10.863703305156273
    vertex 1795.056332683338 1390.1545917120163 19.999999999999996
    vertex 1774.4563326833384 1390.1545917120156 11.0
  endloop
endfacet
facet normal 7.816090549456182e-15 -1.0 2.5158680848451325e-16
  outer loop
    vertex 1795.056332683338 1390.1545917120163 19.999999999999996
    vertex 1798.0563326833385 1390.1545917120156 71.0
    vertex 1795.056332683338 1390.1545917120163 53.500000000000014
  endloop
endfacet
facet normal 7.816090549456182e-15 -1.0 2.5158680848451325e-16
  outer loop
    vertex 1795.056332683338 1390.1545917120163 53.500000000000014
    vertex 1798.0563326833385 1390.1545917120156 71.0
    vertex 1781.4563326833384 1390.1545917120163 53.500000000000014
  endloop
endfacet
facet normal 7.816090549456182e-15 -1.0 2.5158680848451325e-16
  outer loop
    vertex 1781.4563326833384 1390.1545917120163 53.500000000000014
    vertex 1798.0563326833385 1390.1545917120156 71.0
    vertex 1775.4916088637485 1390.1545917120156 62.636296694843715
  endloop
endfacet
facet normal 7.816090549456182e-15 -1.0 2.5158680848451325e-16
  outer loop
    vertex 1781.4563326833384 1390.1545917120163 53.500000000000014
    vertex 1775.4916088637485 1390.1545917120156 62.636296694843715
    vertex 1774.4563326833384 1390.1545917120156 62.499999999999986
  endloop
endfacet
facet normal 7.816090549456182e-15 -1.0 2.5158680848451325e-16
  outer loop
    vertex 1775.4916088637485 1390.1545917120156 62.636296694843715
    vertex 1798.0563326833385 1390.1545917120156 71.0
    vertex 1776.4563326833384 1390.1545917120156 63.035898384862236
  endloop
endfacet
facet normal 7.816090549456182e-15 -1.0 2.5158680848451325e-16
  outer loop
    vertex 1776.4563326833384 1390.1545917120156 63.035898384862236
    vertex 1798.0563326833385 1390.1545917120156 71.0
    vertex 1777.2847598080843 1390.1545917120156 63.671572875253794
  endloop
endfacet
facet normal 7.816090549456182e-15 -1.0 2.5158680848451325e-16
  outer loop
    vertex 1777.2847598080843 1390.1545917120156 63.671572875253794
    vertex 1798.0563326833385 1390.1545917120156 71.0
    vertex 1777.9204342984763 1390.1545917120156 64.49999999999999
  endloop
endfacet
facet normal 7.816090549456182e-15 -1.0 2.5158680848451325e-16
  outer loop
    vertex 1777.9204342984763 1390.1545917120156 64.49999999999999
    vertex 1798.0563326833385 1390.1545917120156 71.0
    vertex 1778.3200359884945 1390.1545917120156 65.4647238195899
  endloop
endfacet
facet normal 7.816090549456182e-15 -1.0 2.5158680848451325e-16
  outer loop
    vertex 1778.3200359884945 1390.1545917120156 65.4647238195899
    vertex 1798.0563326833385 1390.1545917120156 71.0
    vertex 1778.4563326833386 1390.1545917120156 66.49999999999999
  endloop
endfacet
facet normal 7.816090549456182e-15 -1.0 2.5158680848451325e-16
  outer loop
    vertex 1778.4563326833386 1390.1545917120156 66.49999999999999
    vertex 1798.0563326833385 1390.1545917120156 71.0
    vertex 1778.3200359884945 1390.1545917120156 67.53527618041007
  endloop
endfacet
facet normal 7.816090549456182e-15 -1.0 2.5158680848451325e-16
  outer loop
    vertex 1778.3200359884945 1390.1545917120156 67.53527618041007
    vertex 1798.0563326833385 1390.1545917120156 71.0
    vertex 1777.9204342984763 1390.1545917120156 68.49999999999999
  endloop
endfacet
facet normal 7.816090549456182e-15 -1.0 2.5158680848451325e-16
  outer loop
    vertex 1777.9204342984763 1390.1545917120156 68.49999999999999
    vertex 1798.0563326833385 1390.1545917120156 71.0
    vertex 1777.2847598080843 1390.1545917120156 69.32842712474618
  endloop
endfacet
facet normal 7.816090549456182e-15 -1.0 2.5158680848451325e-16
  outer loop
    vertex 1777.2847598080843 1390.1545917120156 69.32842712474618
    vertex 1798.0563326833385 1390.1545917120156 71.0
    vertex 1776.4563326833384 1390.1545917120156 69.96410161513775
  endloop
endfacet
facet normal 7.816090549456182e-15 -1.0 2.5158680848451325e-16
  outer loop
    vertex 1776.4563326833384 1390.1545917120156 69.96410161513775
    vertex 1798.0563326833385 1390.1545917120156 71.0
    vertex 1775.4916088637485 1390.1545917120156 70.36370330515626
  endloop
endfacet
facet normal 7.816090549456182e-15 -1.0 2.5158680848451325e-16
  outer loop
    vertex 1775.4916088637485 1390.1545917120156 70.36370330515626
    vertex 1798.0563326833385 1390.1545917120156 71.0
    vertex 1774.4563326833384 1390.1545917120156 70.5
  endloop
endfacet
facet normal 7.816090549456182e-15 -1.0 2.5158680848451325e-16
  outer loop
    vertex 1774.4563326833384 1390.1545917120156 70.5
    vertex 1798.0563326833385 1390.1545917120156 71.0
    vertex 1794.4563326833386 1390.1545917120156 71.0
  endloop
endfacet
facet normal 7.816090549456182e-15 -1.0 2.5158680848451325e-16
  outer loop
    vertex 1774.4563326833384 1390.1545917120156 70.5
    vertex 1794.4563326833386 1390.1545917120156 71.0
    vertex 1774.4563326833384 1390.1545917120156 73.5
  endloop
endfacet
facet normal 7.816090549456182e-15 -1.0 2.5158680848451325e-16
  outer loop
    vertex 1774.4563326833384 1390.1545917120156 73.5
    vertex 1794.4563326833386 1390.1545917120156 71.0
    vertex 1794.4563326833386 1390.1545917120156 73.5
  endloop
endfacet
facet normal 7.816090549456182e-15 -1.0 2.5158680848451325e-16
  outer loop
    vertex 1774.4563326833384 1390.1545917120156 11.0
    vertex 1762.0563326833383 1390.1545917120156 62.499999999999986
    vertex 1762.0563326833383 1390.1545917120156 10.999999999999996
  endloop
endfacet
facet normal 7.816090549456182e-15 -1.0 2.5158680848451325e-16
  outer loop
    vertex 1762.0563326833383 1390.1545917120156 62.499999999999986
    vertex 1774.4563326833384 1390.1545917120156 11.0
    vertex 1781.4563326833384 1390.1545917120163 19.999999999999996
  endloop
endfacet
facet normal 7.816090549456182e-15 -1.0 2.5158680848451325e-16
  outer loop
    vertex 1781.4563326833384 1390.1545917120163 19.999999999999996
    vertex 1774.4563326833384 1390.1545917120156 11.0
    vertex 1795.056332683338 1390.1545917120163 19.999999999999996
  endloop
endfacet
facet normal 7.816090549456182e-15 -1.0 2.5158680848451325e-16
  outer loop
    vertex 1762.0563326833383 1390.1545917120156 62.499999999999986
    vertex 1781.4563326833384 1390.1545917120163 19.999999999999996
    vertex 1781.4563326833384 1390.1545917120163 53.500000000000014
  endloop
endfacet
facet normal 7.816090549456182e-15 -1.0 2.5158680848451325e-16
  outer loop
    vertex 1762.0563326833383 1390.1545917120156 62.499999999999986
    vertex 1781.4563326833384 1390.1545917120163 53.500000000000014
    vertex 1774.4563326833384 1390.1545917120156 62.499999999999986
  endloop
endfacet
facet normal 7.816090549456182e-15 -1.0 2.5158680848451325e-16
  outer loop
    vertex 1794.4563326833386 1390.1545917120156 2.4999999999999956
    vertex 1774.4563326833384 1390.1545917120156 0.0
    vertex 1794.4563326833386 1390.1545917120156 0.0
  endloop
endfacet
facet normal 7.816090549456182e-15 -1.0 2.5158680848451325e-16
  outer loop
    vertex 1774.4563326833384 1390.1545917120156 0.0
    vertex 1794.4563326833386 1390.1545917120156 2.4999999999999956
    vertex 1774.4563326833384 1390.1545917120156 3.0000000000000013
  endloop
endfacet
facet normal 2.20193613684097e-16 -1.598172598579628e-17 -1.0
  outer loop
    vertex 1765.0563326833385 1415.1545917120168 10.999999999999996
    vertex 1762.0563326833383 1390.1545917120156 10.999999999999996
    vertex 1762.0563326833383 1415.1545917120168 10.999999999999996
  endloop
endfacet
facet normal 2.20193613684097e-16 -1.598172598579628e-17 -1.0
  outer loop
    vertex 1762.0563326833383 1390.1545917120156 10.999999999999996
    vertex 1765.0563326833385 1415.1545917120168 10.999999999999996
    vertex 1774.4563326833384 1390.1545917120156 11.0
  endloop
endfacet
facet normal 2.20193613684097e-16 -1.598172598579628e-17 -1.0
  outer loop
    vertex 1774.4563326833384 1390.1545917120156 11.0
    vertex 1765.0563326833385 1415.1545917120168 10.999999999999996
    vertex 1774.4563326833384 1393.1545917120163 11.0
  endloop
endfacet
facet normal -0.7933533402910816 -4.731320027318037e-18 -0.6087614290089206
  outer loop
    vertex 1777.2847598080843 1393.1545917120163 9.82842712474619
    vertex 1777.9204342984763 1390.1545917120156 8.999999999999998
    vertex 1777.2847598080843 1390.1545917120156 9.82842712474619
  endloop
endfacet
facet normal -0.7933533402910816 -4.731320027318037e-18 -0.6087614290089206
  outer loop
    vertex 1777.9204342984763 1390.1545917120156 8.999999999999998
    vertex 1777.2847598080843 1393.1545917120163 9.82842712474619
    vertex 1777.9204342984763 1393.1545917120163 8.999999999999998
  endloop
endfacet
facet normal -1.0 0.0 0.0
  outer loop
    vertex 1774.4563326833384 1393.1545917120163 3.0000000000000013
    vertex 1774.4563326833384 1390.1545917120156 0.0
    vertex 1774.4563326833384 1390.1545917120156 3.0000000000000013
  endloop
endfacet
facet normal -1.0 0.0 0.0
  outer loop
    vertex 1774.4563326833384 1390.1545917120156 0.0
    vertex 1774.4563326833384 1393.1545917120163 3.0000000000000013
    vertex 1774.4563326833384 1393.1545917120163 1.7952063911646351e-29
  endloop
endfacet
facet normal -0.9914448613737741 0.0 0.1305261922203275
  outer loop
    vertex 1778.4563326833386 1393.1545917120163 7.000000000000001
    vertex 1778.3200359884945 1390.1545917120156 5.964723819589916
    vertex 1778.4563326833386 1390.1545917120156 7.000000000000001
  endloop
endfacet
facet normal -0.9914448613737741 0.0 0.1305261922203275
  outer loop
    vertex 1778.3200359884945 1390.1545917120156 5.964723819589916
    vertex 1778.4563326833386 1393.1545917120163 7.000000000000001
    vertex 1778.3200359884945 1393.1545917120163 5.964723819589916
  endloop
endfacet
facet normal -0.1305261922200452 0.0 -0.9914448613738114
  outer loop
    vertex 1775.4916088637485 1393.1545917120163 10.863703305156273
    vertex 1774.4563326833384 1390.1545917120156 11.0
    vertex 1774.4563326833384 1393.1545917120163 11.0
  endloop
endfacet
facet normal -0.1305261922200452 0.0 -0.9914448613738114
  outer loop
    vertex 1774.4563326833384 1390.1545917120156 11.0
    vertex 1775.4916088637485 1393.1545917120163 10.863703305156273
    vertex 1775.4916088637485 1390.1545917120156 10.863703305156273
  endloop
endfacet
facet normal -0.3826834323651389 -2.7765000678284253e-27 0.9238795325112664
  outer loop
    vertex 1776.4563326833384 1390.1545917120156 3.535898384862246
    vertex 1775.4916088637485 1393.1545917120163 3.136296694843728
    vertex 1775.4916088637485 1390.1545917120156 3.136296694843728
  endloop
endfacet
facet normal -0.3826834323651389 -2.7765000678284253e-27 0.9238795325112664
  outer loop
    vertex 1775.4916088637485 1393.1545917120163 3.136296694843728
    vertex 1776.4563326833384 1390.1545917120156 3.535898384862246
    vertex 1776.4563326833384 1393.1545917120163 3.535898384862246
  endloop
endfacet
facet normal -0.6087614290087571 0.0 0.7933533402912073
  outer loop
    vertex 1777.2847598080843 1390.1545917120156 4.17157287525381
    vertex 1776.4563326833384 1393.1545917120163 3.535898384862246
    vertex 1776.4563326833384 1390.1545917120156 3.535898384862246
  endloop
endfacet
facet normal -0.6087614290087571 0.0 0.7933533402912073
  outer loop
    vertex 1776.4563326833384 1393.1545917120163 3.535898384862246
    vertex 1777.2847598080843 1390.1545917120156 4.17157287525381
    vertex 1777.2847598080843 1393.1545917120163 4.17157287525381
  endloop
endfacet
facet normal -0.9914448613737741 0.0 -0.13052619222032785
  outer loop
    vertex 1778.3200359884945 1393.1545917120163 8.035276180410085
    vertex 1778.4563326833386 1390.1545917120156 7.000000000000001
    vertex 1778.3200359884945 1390.1545917120156 8.035276180410085
  endloop
endfacet
facet normal -0.9914448613737741 0.0 -0.13052619222032785
  outer loop
    vertex 1778.4563326833386 1390.1545917120156 7.000000000000001
    vertex 1778.3200359884945 1393.1545917120163 8.035276180410085
    vertex 1778.4563326833386 1393.1545917120163 7.000000000000001
  endloop
endfacet
facet normal -0.9238795325113813 0.0 -0.38268343236486174
  outer loop
    vertex 1777.9204342984763 1393.1545917120163 8.999999999999998
    vertex 1778.3200359884945 1390.1545917120156 8.035276180410085
    vertex 1777.9204342984763 1390.1545917120156 8.999999999999998
  endloop
endfacet
facet normal -0.9238795325113813 0.0 -0.38268343236486174
  outer loop
    vertex 1778.3200359884945 1390.1545917120156 8.035276180410085
    vertex 1777.9204342984763 1393.1545917120163 8.999999999999998
    vertex 1778.3200359884945 1393.1545917120163 8.035276180410085
  endloop
endfacet
facet normal -0.6087614290087562 -4.486338225742831e-29 -0.7933533402912081
  outer loop
    vertex 1777.2847598080843 1393.1545917120163 9.82842712474619
    vertex 1776.4563326833384 1390.1545917120156 10.464101615137752
    vertex 1776.4563326833384 1393.1545917120163 10.464101615137752
  endloop
endfacet
facet normal -0.6087614290087562 -4.486338225742831e-29 -0.7933533402912081
  outer loop
    vertex 1776.4563326833384 1390.1545917120156 10.464101615137752
    vertex 1777.2847598080843 1393.1545917120163 9.82842712474619
    vertex 1777.2847598080843 1390.1545917120156 9.82842712474619
  endloop
endfacet
facet normal -0.7933533402910807 0.0 0.6087614290089218
  outer loop
    vertex 1777.9204342984763 1393.1545917120163 4.999999999999999
    vertex 1777.2847598080843 1390.1545917120156 4.17157287525381
    vertex 1777.9204342984763 1390.1545917120156 4.999999999999999
  endloop
endfacet
facet normal -0.7933533402910807 0.0 0.6087614290089218
  outer loop
    vertex 1777.2847598080843 1390.1545917120156 4.17157287525381
    vertex 1777.9204342984763 1393.1545917120163 4.999999999999999
    vertex 1777.2847598080843 1393.1545917120163 4.17157287525381
  endloop
endfacet
facet normal -0.1305261922200452 0.0 0.9914448613738114
  outer loop
    vertex 1775.4916088637485 1390.1545917120156 3.136296694843728
    vertex 1774.4563326833384 1393.1545917120163 3.0000000000000013
    vertex 1774.4563326833384 1390.1545917120156 3.0000000000000013
  endloop
endfacet
facet normal -0.1305261922200452 0.0 0.9914448613738114
  outer loop
    vertex 1774.4563326833384 1393.1545917120163 3.0000000000000013
    vertex 1775.4916088637485 1390.1545917120156 3.136296694843728
    vertex 1775.4916088637485 1393.1545917120163 3.136296694843728
  endloop
endfacet
facet normal -0.9238795325113817 0.0 0.38268343236486085
  outer loop
    vertex 1778.3200359884945 1393.1545917120163 5.964723819589916
    vertex 1777.9204342984763 1390.1545917120156 4.999999999999999
    vertex 1778.3200359884945 1390.1545917120156 5.964723819589916
  endloop
endfacet
facet normal -0.9238795325113817 0.0 0.38268343236486085
  outer loop
    vertex 1777.9204342984763 1390.1545917120156 4.999999999999999
    vertex 1778.3200359884945 1393.1545917120163 5.964723819589916
    vertex 1777.9204342984763 1393.1545917120163 4.999999999999999
  endloop
endfacet
facet normal -0.3826834323651409 2.769969503431425e-27 -0.9238795325112655
  outer loop
    vertex 1776.4563326833384 1393.1545917120163 10.464101615137752
    vertex 1775.4916088637485 1390.1545917120156 10.863703305156273
    vertex 1775.4916088637485 1393.1545917120163 10.863703305156273
  endloop
endfacet
facet normal -0.3826834323651409 2.769969503431425e-27 -0.9238795325112655
  outer loop
    vertex 1775.4916088637485 1390.1545917120156 10.863703305156273
    vertex 1776.4563326833384 1393.1545917120163 10.464101615137752
    vertex 1776.4563326833384 1390.1545917120156 10.464101615137752
  endloop
endfacet
facet normal 0.9195768791852755 0.3929101211064297 -2.0791246788945288e-18
  outer loop
    vertex 1765.0563326833385 1415.1545917120168 10.999999999999996
    vertex 1774.4563326833384 1393.1545917120163 17.0
    vertex 1774.4563326833384 1393.1545917120163 11.0
  endloop
endfacet
facet normal 0.9195768791852755 0.3929101211064297 -2.0791246788945288e-18
  outer loop
    vertex 1774.4563326833384 1393.1545917120163 17.0
    vertex 1765.0563326833385 1415.1545917120168 10.999999999999996
    vertex 1765.0563326833385 1415.1545917120168 16.999999999999996
  endloop
endfacet
endsolid Main v1
