solid Main V1
facet normal 1.4067313598447854e-14 -2.1083258499705704e-15 -1.0
  outer loop
    vertex 2209.266315448554 -725.8556814757121 927.5445294292432
    vertex 2212.2663154485545 -701.0556814757122 927.5445294292431
    vertex 2212.266315448554 -725.8556814757121 927.5445294292432
  endloop
endfacet
facet normal 1.4067313598447854e-14 -2.1083258499705704e-15 -1.0
  outer loop
    vertex 2212.2663154485545 -701.0556814757122 927.5445294292431
    vertex 2209.266315448554 -725.8556814757121 927.5445294292432
    vertex 2209.266315448554 -707.0556814757122 927.5445294292431
  endloop
endfacet
facet normal 1.4067313598447854e-14 -2.1083258499705704e-15 -1.0
  outer loop
    vertex 2212.2663154485545 -701.0556814757122 927.5445294292431
    vertex 2209.266315448554 -707.0556814757122 927.5445294292431
    vertex 2206.066315448554 -704.0556814757122 927.5445294292431
  endloop
endfacet
facet normal 1.4067313598447854e-14 -2.1083258499705704e-15 -1.0
  outer loop
    vertex 2212.2663154485545 -701.0556814757122 927.5445294292431
    vertex 2206.066315448554 -704.0556814757122 927.5445294292431
    vertex 2187.066315448554 -701.055681475712 927.5445294292426
  endloop
endfacet
facet normal 1.4067313598447854e-14 -2.1083258499705704e-15 -1.0
  outer loop
    vertex 2187.066315448554 -701.055681475712 927.5445294292426
    vertex 2206.066315448554 -704.0556814757122 927.5445294292431
    vertex 2193.0663154485546 -704.055681475712 927.5445294292429
  endloop
endfacet
facet normal 1.4067313598447854e-14 -2.1083258499705704e-15 -1.0
  outer loop
    vertex 2187.066315448554 -701.055681475712 927.5445294292426
    vertex 2193.0663154485546 -704.055681475712 927.5445294292429
    vertex 2190.066315448554 -707.655681475712 927.5445294292429
  endloop
endfacet
facet normal 1.4067313598447854e-14 -2.1083258499705704e-15 -1.0
  outer loop
    vertex 2187.066315448554 -701.055681475712 927.5445294292426
    vertex 2190.066315448554 -707.655681475712 927.5445294292429
    vertex 2184.066315448554 -707.655681475712 927.5445294292426
  endloop
endfacet
facet normal 1.4067313598447854e-14 -2.1083258499705704e-15 -1.0
  outer loop
    vertex 2187.066315448554 -701.055681475712 927.5445294292426
    vertex 2184.066315448554 -707.655681475712 927.5445294292426
    vertex 2187.066315448554 -697.655681475712 927.5445294292426
  endloop
endfacet
facet normal 1.4067313598447854e-14 -2.1083258499705704e-15 -1.0
  outer loop
    vertex 2187.066315448554 -697.655681475712 927.5445294292426
    vertex 2184.066315448554 -707.655681475712 927.5445294292426
    vertex 2184.066315448554 -691.655681475712 927.5445294292426
  endloop
endfacet
facet normal 1.4067313598447854e-14 -2.1083258499705704e-15 -1.0
  outer loop
    vertex 2184.066315448554 -691.655681475712 927.5445294292426
    vertex 2184.066315448554 -707.655681475712 927.5445294292426
    vertex 2181.066315448554 -694.655681475712 927.5445294292426
  endloop
endfacet
facet normal 1.4067313598447854e-14 -2.1083258499705704e-15 -1.0
  outer loop
    vertex 2181.066315448554 -694.655681475712 927.5445294292426
    vertex 2184.066315448554 -707.655681475712 927.5445294292426
    vertex 2181.066315448554 -704.6556814757118 927.5445294292426
  endloop
endfacet
facet normal 1.4067313598447854e-14 -2.1083258499705704e-15 -1.0
  outer loop
    vertex 2209.0663154485537 -697.6556814757121 927.5445294292431
    vertex 2206.066315448554 -691.6556814757121 927.5445294292431
    vertex 2209.066315448554 -675.6556814757121 927.5445294292429
  endloop
endfacet
facet normal 1.4067313598447854e-14 -2.1083258499705704e-15 -1.0
  outer loop
    vertex 2206.066315448554 -691.6556814757121 927.5445294292431
    vertex 2209.0663154485537 -697.6556814757121 927.5445294292431
    vertex 2203.066315448554 -694.6556814757121 927.5445294292429
  endloop
endfacet
facet normal 1.4067313598447854e-14 -2.1083258499705704e-15 -1.0
  outer loop
    vertex 2203.066315448554 -694.6556814757121 927.5445294292429
    vertex 2209.0663154485537 -697.6556814757121 927.5445294292431
    vertex 2187.266315448554 -697.655681475712 927.5445294292426
  endloop
endfacet
facet normal 1.4067313598447854e-14 -2.1083258499705704e-15 -1.0
  outer loop
    vertex 2203.066315448554 -694.6556814757121 927.5445294292429
    vertex 2187.266315448554 -697.655681475712 927.5445294292426
    vertex 2193.0663154485546 -694.6556814757121 927.5445294292429
  endloop
endfacet
facet normal 1.4067313598447854e-14 -2.1083258499705704e-15 -1.0
  outer loop
    vertex 2193.0663154485546 -694.6556814757121 927.5445294292429
    vertex 2187.266315448554 -697.655681475712 927.5445294292426
    vertex 2190.0663154485546 -691.655681475712 927.5445294292426
  endloop
endfacet
facet normal 1.4067313598447854e-14 -2.1083258499705704e-15 -1.0
  outer loop
    vertex 2190.0663154485546 -691.655681475712 927.5445294292426
    vertex 2187.266315448554 -697.655681475712 927.5445294292426
    vertex 2184.066315448554 -691.655681475712 927.5445294292426
  endloop
endfacet
facet normal 1.4067313598447854e-14 -2.1083258499705704e-15 -1.0
  outer loop
    vertex 2184.066315448554 -691.655681475712 927.5445294292426
    vertex 2187.266315448554 -697.655681475712 927.5445294292426
    vertex 2187.066315448554 -697.655681475712 927.5445294292426
  endloop
endfacet
facet normal 1.4067313598447854e-14 -2.1083258499705704e-15 -1.0
  outer loop
    vertex 2209.066315448554 -675.6556814757121 927.5445294292429
    vertex 2212.266315448554 -653.8556814757122 927.5445294292431
    vertex 2212.266315448554 -675.6556814757121 927.5445294292431
  endloop
endfacet
facet normal 1.4067313598447854e-14 -2.1083258499705704e-15 -1.0
  outer loop
    vertex 2212.266315448554 -653.8556814757122 927.5445294292431
    vertex 2209.066315448554 -675.6556814757121 927.5445294292429
    vertex 2212.266315448554 -650.8556814757121 927.5445294292431
  endloop
endfacet
facet normal 1.4067313598447854e-14 -2.1083258499705704e-15 -1.0
  outer loop
    vertex 2212.266315448554 -650.8556814757121 927.5445294292431
    vertex 2209.066315448554 -675.6556814757121 927.5445294292429
    vertex 2209.266315448554 -669.4556814757121 927.5445294292431
  endloop
endfacet
facet normal 1.4067313598447854e-14 -2.1083258499705704e-15 -1.0
  outer loop
    vertex 2209.266315448554 -669.4556814757121 927.5445294292431
    vertex 2209.066315448554 -675.6556814757121 927.5445294292429
    vertex 2206.066315448554 -672.6556814757122 927.5445294292429
  endloop
endfacet
facet normal 1.4067313598447854e-14 -2.1083258499705704e-15 -1.0
  outer loop
    vertex 2206.066315448554 -672.6556814757122 927.5445294292429
    vertex 2209.066315448554 -675.6556814757121 927.5445294292429
    vertex 2206.066315448554 -691.6556814757121 927.5445294292431
  endloop
endfacet
facet normal 1.4067313598447854e-14 -2.1083258499705704e-15 -1.0
  outer loop
    vertex 2209.266315448554 -650.8556814757121 927.5445294292431
    vertex 2212.266315448554 -650.8556814757121 927.5445294292431
    vertex 2209.266315448554 -669.4556814757121 927.5445294292431
  endloop
endfacet
facet normal -4.925939144192808e-15 -1.0 2.1083258499705014e-15
  outer loop
    vertex 2184.066315448554 -707.655681475712 927.5445294292426
    vertex 2190.0663154485537 -707.6556814757117 967.5445294292426
    vertex 2184.0663154485537 -707.6556814757117 967.5445294292426
  endloop
endfacet
facet normal -4.925939144192808e-15 -1.0 2.1083258499705014e-15
  outer loop
    vertex 2190.0663154485537 -707.6556814757117 967.5445294292426
    vertex 2184.066315448554 -707.655681475712 927.5445294292426
    vertex 2190.066315448554 -707.655681475712 927.5445294292429
  endloop
endfacet
facet normal 0.7682212795973602 -0.6401843996644988 1.215652697165751e-14
  outer loop
    vertex 2193.0663154485546 -704.055681475712 927.5445294292429
    vertex 2190.0663154485537 -707.6556814757117 967.5445294292426
    vertex 2190.066315448554 -707.655681475712 927.5445294292429
  endloop
endfacet
facet normal 0.7682212795973602 -0.6401843996644988 1.215652697165751e-14
  outer loop
    vertex 2190.0663154485537 -707.6556814757117 967.5445294292426
    vertex 2193.0663154485546 -704.055681475712 927.5445294292429
    vertex 2193.0663154485537 -704.0556814757119 967.5445294292427
  endloop
endfacet
facet normal -4.925939144192808e-15 -1.0 2.1083258499705014e-15
  outer loop
    vertex 2193.0663154485546 -704.055681475712 927.5445294292429
    vertex 2206.0663154485537 -704.0556814757119 967.544529429243
    vertex 2193.0663154485537 -704.0556814757119 967.5445294292427
  endloop
endfacet
facet normal -4.925939144192808e-15 -1.0 2.1083258499705014e-15
  outer loop
    vertex 2206.0663154485537 -704.0556814757119 967.544529429243
    vertex 2193.0663154485546 -704.055681475712 927.5445294292429
    vertex 2206.066315448554 -704.0556814757122 927.5445294292431
  endloop
endfacet
facet normal -0.6839411288813286 -0.7295372041400863 -8.083112196846289e-15
  outer loop
    vertex 2206.066315448554 -704.0556814757122 927.5445294292431
    vertex 2209.2663154485535 -707.055681475712 967.544529429243
    vertex 2206.0663154485537 -704.0556814757119 967.544529429243
  endloop
endfacet
facet normal -0.6839411288813286 -0.7295372041400863 -8.083112196846289e-15
  outer loop
    vertex 2209.2663154485535 -707.055681475712 967.544529429243
    vertex 2206.066315448554 -704.0556814757122 927.5445294292431
    vertex 2209.266315448554 -707.0556814757122 927.5445294292431
  endloop
endfacet
facet normal -4.9259391441928374e-15 -1.0 4.302114220422415e-15
  outer loop
    vertex 2209.266315448554 -725.8556814757121 927.5445294292432
    vertex 2212.2663154485535 -725.855681475712 964.5445294292431
    vertex 2209.2663154485535 -725.855681475712 964.544529429243
  endloop
endfacet
facet normal -4.9259391441928374e-15 -1.0 4.302114220422415e-15
  outer loop
    vertex 2212.2663154485535 -725.855681475712 964.5445294292431
    vertex 2209.266315448554 -725.8556814757121 927.5445294292432
    vertex 2212.266315448554 -725.8556814757121 927.5445294292432
  endloop
endfacet
facet normal 1.0 -4.92593914419278e-15 1.3343464530087842e-14
  outer loop
    vertex 2212.2663154485545 -701.0556814757122 927.5445294292431
    vertex 2212.2663154485535 -725.855681475712 964.5445294292431
    vertex 2212.266315448554 -725.8556814757121 927.5445294292432
  endloop
endfacet
facet normal 1.0 -4.92593914419278e-15 1.3343464530087842e-14
  outer loop
    vertex 2212.2663154485535 -725.855681475712 964.5445294292431
    vertex 2212.2663154485545 -701.0556814757122 927.5445294292431
    vertex 2212.2663154485535 -722.8556814757119 967.544529429243
  endloop
endfacet
facet normal 1.0 -4.92593914419278e-15 1.3343464530087842e-14
  outer loop
    vertex 2212.2663154485535 -722.8556814757119 967.544529429243
    vertex 2212.2663154485545 -701.0556814757122 927.5445294292431
    vertex 2212.2663154485535 -701.0556814757119 967.544529429243
  endloop
endfacet
facet normal 4.925939144192808e-15 1.0 -2.1083258499705014e-15
  outer loop
    vertex 2212.2663154485545 -701.0556814757122 927.5445294292431
    vertex 2187.0663154485533 -701.0556814757118 967.5445294292426
    vertex 2212.2663154485535 -701.0556814757119 967.544529429243
  endloop
endfacet
facet normal 4.925939144192808e-15 1.0 -2.1083258499705014e-15
  outer loop
    vertex 2187.0663154485533 -701.0556814757118 967.5445294292426
    vertex 2212.2663154485545 -701.0556814757122 927.5445294292431
    vertex 2187.066315448554 -701.055681475712 927.5445294292426
  endloop
endfacet
facet normal 1.0 -4.925939144192777e-15 1.4067313598447864e-14
  outer loop
    vertex 2187.066315448554 -697.655681475712 927.5445294292426
    vertex 2187.0663154485533 -701.0556814757118 967.5445294292426
    vertex 2187.066315448554 -701.055681475712 927.5445294292426
  endloop
endfacet
facet normal 1.0 -4.925939144192777e-15 1.4067313598447864e-14
  outer loop
    vertex 2187.0663154485533 -701.0556814757118 967.5445294292426
    vertex 2187.066315448554 -697.655681475712 927.5445294292426
    vertex 2187.0663154485533 -697.6556814757118 967.5445294292426
  endloop
endfacet
facet normal -4.925939144192808e-15 -1.0 2.1083258499705014e-15
  outer loop
    vertex 2187.066315448554 -697.655681475712 927.5445294292426
    vertex 2187.266315448553 -697.6556814757118 967.5445294292426
    vertex 2187.0663154485533 -697.6556814757118 967.5445294292426
  endloop
endfacet
facet normal -4.925939144192808e-15 -1.0 2.1083258499705014e-15
  outer loop
    vertex 2187.266315448553 -697.6556814757118 967.5445294292426
    vertex 2187.066315448554 -697.655681475712 927.5445294292426
    vertex 2187.266315448554 -697.655681475712 927.5445294292426
  endloop
endfacet
facet normal -4.925939144192808e-15 -1.0 2.108325849970501e-15
  outer loop
    vertex 2187.266315448554 -697.655681475712 927.5445294292426
    vertex 2209.0663154485533 -697.6556814757118 967.544529429243
    vertex 2187.266315448553 -697.6556814757118 967.5445294292426
  endloop
endfacet
facet normal -4.925939144192808e-15 -1.0 2.108325849970501e-15
  outer loop
    vertex 2209.0663154485533 -697.6556814757118 967.544529429243
    vertex 2187.266315448554 -697.655681475712 927.5445294292426
    vertex 2209.0663154485537 -697.6556814757121 927.5445294292431
  endloop
endfacet
facet normal 1.0 -4.925939144192777e-15 1.4067313598447864e-14
  outer loop
    vertex 2209.0663154485537 -697.6556814757121 927.5445294292431
    vertex 2209.0663154485533 -694.6556814757121 952.544529429243
    vertex 2209.0663154485533 -697.6556814757118 967.544529429243
  endloop
endfacet
facet normal 1.0 -4.925939144192777e-15 1.4067313598447864e-14
  outer loop
    vertex 2209.0663154485533 -694.6556814757121 952.544529429243
    vertex 2209.0663154485537 -697.6556814757121 927.5445294292431
    vertex 2209.066315448554 -675.6556814757121 927.5445294292429
  endloop
endfacet
facet normal 1.0 -4.925939144192777e-15 1.4067313598447864e-14
  outer loop
    vertex 2209.0663154485533 -694.6556814757121 952.544529429243
    vertex 2209.066315448554 -675.6556814757121 927.5445294292429
    vertex 2209.0663154485537 -675.6556814757121 952.544529429243
  endloop
endfacet
facet normal 1.0 -4.925939144192777e-15 1.4067313598447864e-14
  outer loop
    vertex 2209.0663154485533 -694.655681475712 967.544529429243
    vertex 2209.0663154485533 -697.6556814757118 967.544529429243
    vertex 2209.0663154485533 -694.6556814757121 952.544529429243
  endloop
endfacet
facet normal -4.925939144192808e-15 -1.0 2.1083258499705014e-15
  outer loop
    vertex 2209.066315448554 -675.6556814757121 927.5445294292429
    vertex 2212.2663154485535 -675.6556814757121 952.544529429243
    vertex 2209.0663154485537 -675.6556814757121 952.544529429243
  endloop
endfacet
facet normal -4.925939144192808e-15 -1.0 2.1083258499705014e-15
  outer loop
    vertex 2212.2663154485535 -675.6556814757121 952.544529429243
    vertex 2209.066315448554 -675.6556814757121 927.5445294292429
    vertex 2212.266315448554 -675.6556814757121 927.5445294292431
  endloop
endfacet
facet normal 1.0 3.3528615385166768e-15 1.3343464530087806e-14
  outer loop
    vertex 2212.266315448554 -653.8556814757122 927.5445294292431
    vertex 2212.2663154485535 -675.6556814757121 952.544529429243
    vertex 2212.266315448554 -675.6556814757121 927.5445294292431
  endloop
endfacet
facet normal 1.0 3.3528615385166768e-15 1.3343464530087806e-14
  outer loop
    vertex 2212.2663154485535 -675.6556814757121 952.544529429243
    vertex 2212.266315448554 -653.8556814757122 927.5445294292431
    vertex 2212.2663154485535 -653.8556814757121 952.544529429243
  endloop
endfacet
facet normal 1.0 1.3366229720141038e-14 1.5011710330515032e-14
  outer loop
    vertex 2212.266315448554 -650.8556814757121 927.5445294292431
    vertex 2212.2663154485535 -653.8556814757121 952.544529429243
    vertex 2212.266315448554 -653.8556814757122 927.5445294292431
  endloop
endfacet
facet normal 1.0 1.3366229720141038e-14 1.5011710330515032e-14
  outer loop
    vertex 2212.2663154485535 -653.8556814757121 952.544529429243
    vertex 2212.266315448554 -650.8556814757121 927.5445294292431
    vertex 2212.2663154485535 -650.8556814757121 949.5445294292429
  endloop
endfacet
facet normal 4.9259391441928374e-15 1.0 -4.302114220422415e-15
  outer loop
    vertex 2212.266315448554 -650.8556814757121 927.5445294292431
    vertex 2209.2663154485535 -650.8556814757121 949.5445294292429
    vertex 2212.2663154485535 -650.8556814757121 949.5445294292429
  endloop
endfacet
facet normal 4.9259391441928374e-15 1.0 -4.302114220422415e-15
  outer loop
    vertex 2209.2663154485535 -650.8556814757121 949.5445294292429
    vertex 2212.266315448554 -650.8556814757121 927.5445294292431
    vertex 2209.266315448554 -650.8556814757121 927.5445294292431
  endloop
endfacet
facet normal -0.707106781186574 0.7071067811865211 -1.1437904344005608e-14
  outer loop
    vertex 2209.2663154485535 -669.455681475712 952.544529429243
    vertex 2206.066315448554 -672.6556814757122 927.5445294292429
    vertex 2206.066315448554 -672.6556814757121 952.5445294292427
  endloop
endfacet
facet normal -0.707106781186574 0.7071067811865211 -1.1437904344005608e-14
  outer loop
    vertex 2206.066315448554 -672.6556814757122 927.5445294292429
    vertex 2209.2663154485535 -669.455681475712 952.544529429243
    vertex 2209.266315448554 -669.4556814757121 927.5445294292431
  endloop
endfacet
facet normal -1.0 4.925939144192777e-15 -1.4067313598447864e-14
  outer loop
    vertex 2206.066315448554 -672.6556814757121 952.5445294292427
    vertex 2206.066315448554 -691.6556814757121 927.5445294292431
    vertex 2206.066315448554 -691.655681475712 952.544529429243
  endloop
endfacet
facet normal -1.0 4.925939144192777e-15 -1.4067313598447864e-14
  outer loop
    vertex 2206.066315448554 -691.6556814757121 927.5445294292431
    vertex 2206.066315448554 -672.6556814757121 952.5445294292427
    vertex 2206.066315448554 -672.6556814757122 927.5445294292429
  endloop
endfacet
facet normal -0.7071067811865441 0.707106781186551 -1.1437904344005252e-14
  outer loop
    vertex 2206.066315448554 -691.655681475712 952.544529429243
    vertex 2203.066315448554 -694.6556814757121 927.5445294292429
    vertex 2203.0663154485537 -694.655681475712 952.544529429243
  endloop
endfacet
facet normal -0.7071067811865441 0.707106781186551 -1.1437904344005252e-14
  outer loop
    vertex 2203.066315448554 -694.6556814757121 927.5445294292429
    vertex 2206.066315448554 -691.655681475712 952.544529429243
    vertex 2206.066315448554 -691.6556814757121 927.5445294292431
  endloop
endfacet
facet normal 4.925939144192808e-15 1.0 -2.1083258499705014e-15
  outer loop
    vertex 2203.0663154485537 -694.655681475712 952.544529429243
    vertex 2193.0663154485537 -694.6556814757118 967.5445294292426
    vertex 2203.0663154485537 -694.655681475712 967.5445294292427
  endloop
endfacet
facet normal 4.925939144192808e-15 1.0 -2.1083258499705014e-15
  outer loop
    vertex 2193.0663154485537 -694.6556814757118 967.5445294292426
    vertex 2203.0663154485537 -694.655681475712 952.544529429243
    vertex 2193.0663154485546 -694.6556814757121 927.5445294292429
  endloop
endfacet
facet normal 4.925939144192808e-15 1.0 -2.1083258499705014e-15
  outer loop
    vertex 2193.0663154485546 -694.6556814757121 927.5445294292429
    vertex 2203.0663154485537 -694.655681475712 952.544529429243
    vertex 2203.066315448554 -694.6556814757121 927.5445294292429
  endloop
endfacet
facet normal 0.707106781186551 0.7071067811865441 8.456281333075186e-15
  outer loop
    vertex 2190.0663154485546 -691.655681475712 927.5445294292426
    vertex 2193.0663154485537 -694.6556814757118 967.5445294292426
    vertex 2193.0663154485546 -694.6556814757121 927.5445294292429
  endloop
endfacet
facet normal 0.707106781186551 0.7071067811865441 8.456281333075186e-15
  outer loop
    vertex 2193.0663154485537 -694.6556814757118 967.5445294292426
    vertex 2190.0663154485546 -691.655681475712 927.5445294292426
    vertex 2190.0663154485537 -691.6556814757118 967.5445294292426
  endloop
endfacet
facet normal 4.925939144192808e-15 1.0 -2.1083258499705014e-15
  outer loop
    vertex 2190.0663154485546 -691.655681475712 927.5445294292426
    vertex 2184.0663154485537 -691.6556814757118 967.5445294292426
    vertex 2190.0663154485537 -691.6556814757118 967.5445294292426
  endloop
endfacet
facet normal 4.925939144192808e-15 1.0 -2.1083258499705014e-15
  outer loop
    vertex 2184.0663154485537 -691.6556814757118 967.5445294292426
    vertex 2190.0663154485546 -691.655681475712 927.5445294292426
    vertex 2184.066315448554 -691.655681475712 927.5445294292426
  endloop
endfacet
facet normal -0.7071067811865441 0.707106781186551 -1.1437904344005252e-14
  outer loop
    vertex 2184.0663154485537 -691.6556814757118 967.5445294292426
    vertex 2181.066315448554 -694.655681475712 927.5445294292426
    vertex 2181.0663154485537 -694.6556814757118 967.5445294292424
  endloop
endfacet
facet normal -0.7071067811865441 0.707106781186551 -1.1437904344005252e-14
  outer loop
    vertex 2181.066315448554 -694.655681475712 927.5445294292426
    vertex 2184.0663154485537 -691.6556814757118 967.5445294292426
    vertex 2184.066315448554 -691.655681475712 927.5445294292426
  endloop
endfacet
facet normal -1.0 4.925939144192777e-15 -1.4067313598447864e-14
  outer loop
    vertex 2181.0663154485537 -694.6556814757118 967.5445294292424
    vertex 2181.066315448554 -704.6556814757118 927.5445294292426
    vertex 2181.0663154485537 -704.6556814757117 967.5445294292426
  endloop
endfacet
facet normal -1.0 4.925939144192777e-15 -1.4067313598447864e-14
  outer loop
    vertex 2181.066315448554 -704.6556814757118 927.5445294292426
    vertex 2181.0663154485537 -694.6556814757118 967.5445294292424
    vertex 2181.066315448554 -694.655681475712 927.5445294292426
  endloop
endfacet
facet normal -0.7071067811865617 -0.7071067811865335 -8.456281333075357e-15
  outer loop
    vertex 2181.0663154485537 -704.6556814757117 967.5445294292426
    vertex 2184.066315448554 -707.655681475712 927.5445294292426
    vertex 2184.0663154485537 -707.6556814757117 967.5445294292426
  endloop
endfacet
facet normal -0.7071067811865617 -0.7071067811865335 -8.456281333075357e-15
  outer loop
    vertex 2184.066315448554 -707.655681475712 927.5445294292426
    vertex 2181.0663154485537 -704.6556814757117 967.5445294292426
    vertex 2181.066315448554 -704.6556814757118 927.5445294292426
  endloop
endfacet
facet normal -1.0 4.92593914419278e-15 -1.3343464530087842e-14
  outer loop
    vertex 2209.2663154485535 -722.8556814757119 967.544529429243
    vertex 2209.266315448554 -725.8556814757121 927.5445294292432
    vertex 2209.2663154485535 -725.855681475712 964.544529429243
  endloop
endfacet
facet normal -1.0 4.92593914419278e-15 -1.3343464530087842e-14
  outer loop
    vertex 2209.266315448554 -725.8556814757121 927.5445294292432
    vertex 2209.2663154485535 -722.8556814757119 967.544529429243
    vertex 2209.266315448554 -707.0556814757122 927.5445294292431
  endloop
endfacet
facet normal -1.0 4.92593914419278e-15 -1.3343464530087842e-14
  outer loop
    vertex 2209.266315448554 -707.0556814757122 927.5445294292431
    vertex 2209.2663154485535 -722.8556814757119 967.544529429243
    vertex 2209.2663154485535 -707.055681475712 967.544529429243
  endloop
endfacet
facet normal -1.2918419226318322e-14 -0.7071067811865399 0.7071067811865552
  outer loop
    vertex 2209.2663154485535 -722.8556814757119 967.544529429243
    vertex 2212.2663154485535 -725.855681475712 964.5445294292431
    vertex 2212.2663154485535 -722.8556814757119 967.544529429243
  endloop
endfacet
facet normal -1.2918419226318322e-14 -0.7071067811865399 0.7071067811865552
  outer loop
    vertex 2212.2663154485535 -725.855681475712 964.5445294292431
    vertex 2209.2663154485535 -722.8556814757119 967.544529429243
    vertex 2209.2663154485535 -725.855681475712 964.544529429243
  endloop
endfacet
facet normal -1.3343464530087822e-14 4.302114220422481e-15 1.0
  outer loop
    vertex 2203.0663154485537 -694.655681475712 967.5445294292427
    vertex 2209.0663154485533 -697.6556814757118 967.544529429243
    vertex 2209.0663154485533 -694.655681475712 967.544529429243
  endloop
endfacet
facet normal -1.3343464530087822e-14 4.302114220422481e-15 1.0
  outer loop
    vertex 2209.0663154485533 -697.6556814757118 967.544529429243
    vertex 2203.0663154485537 -694.655681475712 967.5445294292427
    vertex 2187.266315448553 -697.6556814757118 967.5445294292426
  endloop
endfacet
facet normal -1.3343464530087822e-14 4.302114220422481e-15 1.0
  outer loop
    vertex 2187.266315448553 -697.6556814757118 967.5445294292426
    vertex 2203.0663154485537 -694.655681475712 967.5445294292427
    vertex 2193.0663154485537 -694.6556814757118 967.5445294292426
  endloop
endfacet
facet normal -1.3343464530087822e-14 4.302114220422481e-15 1.0
  outer loop
    vertex 2187.266315448553 -697.6556814757118 967.5445294292426
    vertex 2193.0663154485537 -694.6556814757118 967.5445294292426
    vertex 2190.0663154485537 -691.6556814757118 967.5445294292426
  endloop
endfacet
facet normal -1.3343464530087822e-14 4.302114220422481e-15 1.0
  outer loop
    vertex 2187.266315448553 -697.6556814757118 967.5445294292426
    vertex 2190.0663154485537 -691.6556814757118 967.5445294292426
    vertex 2184.0663154485537 -691.6556814757118 967.5445294292426
  endloop
endfacet
facet normal -1.3343464530087822e-14 4.302114220422481e-15 1.0
  outer loop
    vertex 2187.266315448553 -697.6556814757118 967.5445294292426
    vertex 2184.0663154485537 -691.6556814757118 967.5445294292426
    vertex 2187.0663154485533 -697.6556814757118 967.5445294292426
  endloop
endfacet
facet normal -1.3343464530087822e-14 4.302114220422481e-15 1.0
  outer loop
    vertex 2187.0663154485533 -697.6556814757118 967.5445294292426
    vertex 2184.0663154485537 -691.6556814757118 967.5445294292426
    vertex 2187.0663154485533 -701.0556814757118 967.5445294292426
  endloop
endfacet
facet normal -1.3343464530087822e-14 4.302114220422481e-15 1.0
  outer loop
    vertex 2212.2663154485535 -701.0556814757119 967.544529429243
    vertex 2209.2663154485535 -707.055681475712 967.544529429243
    vertex 2212.2663154485535 -722.8556814757119 967.544529429243
  endloop
endfacet
facet normal -1.3343464530087822e-14 4.302114220422481e-15 1.0
  outer loop
    vertex 2209.2663154485535 -707.055681475712 967.544529429243
    vertex 2212.2663154485535 -701.0556814757119 967.544529429243
    vertex 2206.0663154485537 -704.0556814757119 967.544529429243
  endloop
endfacet
facet normal -1.3343464530087822e-14 4.302114220422481e-15 1.0
  outer loop
    vertex 2206.0663154485537 -704.0556814757119 967.544529429243
    vertex 2212.2663154485535 -701.0556814757119 967.544529429243
    vertex 2187.0663154485533 -701.0556814757118 967.5445294292426
  endloop
endfacet
facet normal -1.3343464530087822e-14 4.302114220422481e-15 1.0
  outer loop
    vertex 2206.0663154485537 -704.0556814757119 967.544529429243
    vertex 2187.0663154485533 -701.0556814757118 967.5445294292426
    vertex 2193.0663154485537 -704.0556814757119 967.5445294292427
  endloop
endfacet
facet normal -1.3343464530087822e-14 4.302114220422481e-15 1.0
  outer loop
    vertex 2193.0663154485537 -704.0556814757119 967.5445294292427
    vertex 2187.0663154485533 -701.0556814757118 967.5445294292426
    vertex 2190.0663154485537 -707.6556814757117 967.5445294292426
  endloop
endfacet
facet normal -1.3343464530087822e-14 4.302114220422481e-15 1.0
  outer loop
    vertex 2190.0663154485537 -707.6556814757117 967.5445294292426
    vertex 2187.0663154485533 -701.0556814757118 967.5445294292426
    vertex 2184.0663154485537 -707.6556814757117 967.5445294292426
  endloop
endfacet
facet normal -1.3343464530087822e-14 4.302114220422481e-15 1.0
  outer loop
    vertex 2184.0663154485537 -707.6556814757117 967.5445294292426
    vertex 2187.0663154485533 -701.0556814757118 967.5445294292426
    vertex 2184.0663154485537 -691.6556814757118 967.5445294292426
  endloop
endfacet
facet normal -1.3343464530087822e-14 4.302114220422481e-15 1.0
  outer loop
    vertex 2184.0663154485537 -707.6556814757117 967.5445294292426
    vertex 2184.0663154485537 -691.6556814757118 967.5445294292426
    vertex 2181.0663154485537 -694.6556814757118 967.5445294292424
  endloop
endfacet
facet normal -1.3343464530087822e-14 4.302114220422481e-15 1.0
  outer loop
    vertex 2184.0663154485537 -707.6556814757117 967.5445294292426
    vertex 2181.0663154485537 -694.6556814757118 967.5445294292424
    vertex 2181.0663154485537 -704.6556814757117 967.5445294292426
  endloop
endfacet
facet normal -1.3343464530087822e-14 4.302114220422481e-15 1.0
  outer loop
    vertex 2209.2663154485535 -722.8556814757119 967.544529429243
    vertex 2212.2663154485535 -722.8556814757119 967.544529429243
    vertex 2209.2663154485535 -707.055681475712 967.544529429243
  endloop
endfacet
facet normal -1.1304200530656139e-14 -2.542989852791136e-16 1.0
  outer loop
    vertex 2209.2663154485535 -653.8556814757121 952.544529429243
    vertex 2209.2663154485535 -669.455681475712 952.544529429243
    vertex 2212.2663154485535 -653.8556814757121 952.544529429243
  endloop
endfacet
facet normal -1.1304200530656139e-14 -2.542989852791136e-16 1.0
  outer loop
    vertex 2212.2663154485535 -653.8556814757121 952.544529429243
    vertex 2209.0663154485537 -675.6556814757121 952.544529429243
    vertex 2212.2663154485535 -675.6556814757121 952.544529429243
  endloop
endfacet
facet normal -1.1304200530656139e-14 -2.542989852791136e-16 1.0
  outer loop
    vertex 2209.0663154485537 -675.6556814757121 952.544529429243
    vertex 2212.2663154485535 -653.8556814757121 952.544529429243
    vertex 2209.2663154485535 -669.455681475712 952.544529429243
  endloop
endfacet
facet normal -1.1304200530656139e-14 -2.542989852791136e-16 1.0
  outer loop
    vertex 2209.0663154485537 -675.6556814757121 952.544529429243
    vertex 2209.2663154485535 -669.455681475712 952.544529429243
    vertex 2206.066315448554 -672.6556814757121 952.5445294292427
  endloop
endfacet
facet normal -1.1304200530656139e-14 -2.542989852791136e-16 1.0
  outer loop
    vertex 2209.0663154485537 -675.6556814757121 952.544529429243
    vertex 2206.066315448554 -672.6556814757121 952.5445294292427
    vertex 2209.0663154485533 -694.6556814757121 952.544529429243
  endloop
endfacet
facet normal -1.1304200530656139e-14 -2.542989852791136e-16 1.0
  outer loop
    vertex 2209.0663154485533 -694.6556814757121 952.544529429243
    vertex 2206.066315448554 -672.6556814757121 952.5445294292427
    vertex 2206.066315448554 -691.655681475712 952.544529429243
  endloop
endfacet
facet normal -1.1304200530656139e-14 -2.542989852791136e-16 1.0
  outer loop
    vertex 2209.0663154485533 -694.6556814757121 952.544529429243
    vertex 2206.066315448554 -691.655681475712 952.544529429243
    vertex 2203.0663154485537 -694.655681475712 952.544529429243
  endloop
endfacet
facet normal 4.925939144192775e-15 1.0 3.873254724682187e-16
  outer loop
    vertex 2209.0663154485533 -694.6556814757121 952.544529429243
    vertex 2203.0663154485537 -694.655681475712 967.5445294292427
    vertex 2209.0663154485533 -694.655681475712 967.544529429243
  endloop
endfacet
facet normal 4.925939144192775e-15 1.0 3.873254724682187e-16
  outer loop
    vertex 2203.0663154485537 -694.655681475712 967.5445294292427
    vertex 2209.0663154485533 -694.6556814757121 952.544529429243
    vertex 2203.0663154485537 -694.655681475712 952.544529429243
  endloop
endfacet
facet normal -1.0 -5.122015133919955e-15 -1.3766802720309588e-14
  outer loop
    vertex 2209.2663154485535 -653.8556814757121 952.544529429243
    vertex 2209.266315448554 -669.4556814757121 927.5445294292431
    vertex 2209.2663154485535 -669.455681475712 952.544529429243
  endloop
endfacet
facet normal -1.0 -5.122015133919955e-15 -1.3766802720309588e-14
  outer loop
    vertex 2209.266315448554 -669.4556814757121 927.5445294292431
    vertex 2209.2663154485535 -653.8556814757121 952.544529429243
    vertex 2209.266315448554 -650.8556814757121 927.5445294292431
  endloop
endfacet
facet normal -1.0 -5.122015133919955e-15 -1.3766802720309588e-14
  outer loop
    vertex 2209.266315448554 -650.8556814757121 927.5445294292431
    vertex 2209.2663154485535 -653.8556814757121 952.544529429243
    vertex 2209.2663154485535 -650.8556814757121 949.5445294292429
  endloop
endfacet
facet normal -5.952089281176619e-15 0.7071067811865459 0.7071067811865492
  outer loop
    vertex 2212.2663154485535 -650.8556814757121 949.5445294292429
    vertex 2209.2663154485535 -653.8556814757121 952.544529429243
    vertex 2212.2663154485535 -653.8556814757121 952.544529429243
  endloop
endfacet
facet normal -5.952089281176619e-15 0.7071067811865459 0.7071067811865492
  outer loop
    vertex 2209.2663154485535 -653.8556814757121 952.544529429243
    vertex 2212.2663154485535 -650.8556814757121 949.5445294292429
    vertex 2209.2663154485535 -650.8556814757121 949.5445294292429
  endloop
endfacet
endsolid Main V1
