solid Main V1
facet normal -9.811595980124815e-15 1.0 -2.6524619947751097e-15
  outer loop
    vertex 2162.266315448551 -700.6556814757068 677.8935549701639
    vertex 2237.2663154485517 -700.6556814757064 567.8935549701642
    vertex 2162.2663154485513 -700.6556814757071 567.8935549701639
  endloop
endfacet
facet normal -9.811595980124815e-15 1.0 -2.6524619947751097e-15
  outer loop
    vertex 2237.2663154485517 -700.6556814757064 567.8935549701642
    vertex 2162.266315448551 -700.6556814757068 677.8935549701639
    vertex 2237.266315448551 -700.655681475706 677.8935549701642
  endloop
endfacet
facet normal -9.811595980124815e-15 1.0 -2.6524619947751097e-15
  outer loop
    vertex 2237.266315448551 -700.655681475706 677.8935549701642
    vertex 2162.266315448551 -700.6556814757068 677.8935549701639
    vertex 2165.266315448551 -700.6556814757059 680.893554970164
  endloop
endfacet
facet normal -9.811595980124815e-15 1.0 -2.6524619947751097e-15
  outer loop
    vertex 2237.266315448551 -700.655681475706 677.8935549701642
    vertex 2165.266315448551 -700.6556814757059 680.893554970164
    vertex 2234.266315448551 -700.6556814757054 680.8935549701644
  endloop
endfacet
facet normal -4.300528038271131e-15 -1.0 5.877649900567791e-15
  outer loop
    vertex 2201.36631544855 -788.655681475707 577.8935549701648
    vertex 2199.3663154485494 -788.6556814757071 567.8935549701644
    vertex 2201.36631544855 -788.6556814757071 567.8935549701644
  endloop
endfacet
facet normal -4.300528038271131e-15 -1.0 5.877649900567791e-15
  outer loop
    vertex 2199.3663154485494 -788.6556814757071 567.8935549701644
    vertex 2201.36631544855 -788.655681475707 577.8935549701648
    vertex 2199.3663154485494 -788.6556814757071 577.8935549701645
  endloop
endfacet
facet normal -4.300528038271131e-15 -1.0 5.877649900567791e-15
  outer loop
    vertex 2199.3663154485494 -788.6556814757071 577.8935549701645
    vertex 2201.36631544855 -788.655681475707 577.8935549701648
    vertex 2193.3663154485494 -788.6556814757071 577.8935549701645
  endloop
endfacet
facet normal -4.300528038271131e-15 -1.0 5.877649900567791e-15
  outer loop
    vertex 2216.866315448547 -788.6556814757067 680.8935549701645
    vertex 2207.36631544855 -788.655681475707 567.8935549701644
    vertex 2216.866315448547 -788.655681475707 567.8935549701644
  endloop
endfacet
facet normal -4.300528038271131e-15 -1.0 5.877649900567791e-15
  outer loop
    vertex 2207.36631544855 -788.655681475707 567.8935549701644
    vertex 2216.866315448547 -788.6556814757067 680.8935549701645
    vertex 2207.36631544855 -788.6556814757071 577.8935549701647
  endloop
endfacet
facet normal -4.300528038271131e-15 -1.0 5.877649900567791e-15
  outer loop
    vertex 2207.36631544855 -788.6556814757071 577.8935549701647
    vertex 2216.866315448547 -788.6556814757067 680.8935549701645
    vertex 2201.36631544855 -788.655681475707 577.8935549701648
  endloop
endfacet
facet normal -4.300528038271131e-15 -1.0 5.877649900567791e-15
  outer loop
    vertex 2193.3663154485494 -788.655681475707 567.8935549701644
    vertex 2183.8663154485516 -788.655681475706 680.8935549701644
    vertex 2183.8663154485516 -788.6556814757072 567.8935549701642
  endloop
endfacet
facet normal -4.300528038271131e-15 -1.0 5.877649900567791e-15
  outer loop
    vertex 2183.8663154485516 -788.655681475706 680.8935549701644
    vertex 2193.3663154485494 -788.655681475707 567.8935549701644
    vertex 2193.3663154485494 -788.6556814757071 577.8935549701645
  endloop
endfacet
facet normal -4.300528038271131e-15 -1.0 5.877649900567791e-15
  outer loop
    vertex 2183.8663154485516 -788.655681475706 680.8935549701644
    vertex 2193.3663154485494 -788.6556814757071 577.8935549701645
    vertex 2201.36631544855 -788.655681475707 577.8935549701648
  endloop
endfacet
facet normal -4.300528038271131e-15 -1.0 5.877649900567791e-15
  outer loop
    vertex 2183.8663154485516 -788.655681475706 680.8935549701644
    vertex 2201.36631544855 -788.655681475707 577.8935549701648
    vertex 2216.866315448547 -788.6556814757067 680.8935549701645
  endloop
endfacet
facet normal 1.0 -5.372078305880482e-14 1.4896580937619548e-15
  outer loop
    vertex 2219.866315448547 -785.6556814757066 680.8935549701645
    vertex 2219.8663154485444 -775.6556814757081 608.8935549701642
    vertex 2219.866315448547 -775.6556814757076 680.8935549701642
  endloop
endfacet
facet normal 1.0 -5.372078305880482e-14 1.4896580937619548e-15
  outer loop
    vertex 2219.8663154485507 -713.6556814757076 680.8935549701639
    vertex 2219.866315448551 -706.6556814757068 567.8935549701641
    vertex 2219.8663154485507 -706.6556814757066 680.8935549701637
  endloop
endfacet
facet normal 1.0 -5.372078305880482e-14 1.4896580937619548e-15
  outer loop
    vertex 2219.866315448551 -706.6556814757068 567.8935549701641
    vertex 2219.8663154485507 -713.6556814757076 680.8935549701639
    vertex 2219.8663154485507 -713.6556814757081 608.893554970164
  endloop
endfacet
facet normal 1.0 -5.372078305880482e-14 1.4896580937619548e-15
  outer loop
    vertex 2219.866315448551 -706.6556814757068 567.8935549701641
    vertex 2219.8663154485507 -713.6556814757081 608.893554970164
    vertex 2219.8663154485507 -716.6556814757084 605.893554970164
  endloop
endfacet
facet normal 1.0 -5.372078305880482e-14 1.4896580937619548e-15
  outer loop
    vertex 2219.866315448551 -706.6556814757068 567.8935549701641
    vertex 2219.8663154485507 -716.6556814757084 605.893554970164
    vertex 2219.866315448547 -785.655681475707 567.8935549701652
  endloop
endfacet
facet normal 1.0 -5.372078305880482e-14 1.4896580937619548e-15
  outer loop
    vertex 2219.866315448547 -785.655681475707 567.8935549701652
    vertex 2219.8663154485507 -716.6556814757084 605.893554970164
    vertex 2219.8663154485444 -772.655681475708 605.8935549701642
  endloop
endfacet
facet normal 1.0 -5.372078305880482e-14 1.4896580937619548e-15
  outer loop
    vertex 2219.866315448547 -785.655681475707 567.8935549701652
    vertex 2219.8663154485444 -772.655681475708 605.8935549701642
    vertex 2219.8663154485444 -775.6556814757081 608.8935549701642
  endloop
endfacet
facet normal 1.0 -5.372078305880482e-14 1.4896580937619548e-15
  outer loop
    vertex 2219.866315448547 -785.655681475707 567.8935549701652
    vertex 2219.8663154485444 -775.6556814757081 608.8935549701642
    vertex 2219.866315448547 -785.6556814757066 680.8935549701645
  endloop
endfacet
facet normal -1.0 5.655661058455744e-14 -3.0032503482894166e-15
  outer loop
    vertex 2216.8663154485516 -706.6556814757068 570.8935549701641
    vertex 2216.8663154485507 -713.6556814757081 608.893554970164
    vertex 2216.866315448551 -706.6556814757066 680.8935549701637
  endloop
endfacet
facet normal -1.0 5.655661058455744e-14 -3.0032503482894166e-15
  outer loop
    vertex 2216.8663154485507 -713.6556814757081 608.893554970164
    vertex 2216.8663154485516 -706.6556814757068 570.8935549701641
    vertex 2216.8663154485507 -716.6556814757084 605.8935549701639
  endloop
endfacet
facet normal -1.0 5.655661058455744e-14 -3.0032503482894166e-15
  outer loop
    vertex 2216.8663154485507 -716.6556814757084 605.8935549701639
    vertex 2216.8663154485516 -706.6556814757068 570.8935549701641
    vertex 2216.866315448547 -782.655681475707 570.8935549701644
  endloop
endfacet
facet normal -1.0 5.655661058455744e-14 -3.0032503482894166e-15
  outer loop
    vertex 2216.866315448551 -706.6556814757066 680.8935549701637
    vertex 2216.8663154485507 -713.6556814757081 608.893554970164
    vertex 2216.8663154485507 -713.6556814757076 680.8935549701638
  endloop
endfacet
facet normal -1.0 5.655661058455744e-14 -3.0032503482894166e-15
  outer loop
    vertex 2216.8663154485507 -716.6556814757084 605.8935549701639
    vertex 2216.866315448547 -782.655681475707 570.8935549701644
    vertex 2216.8663154485453 -772.655681475708 605.8935549701642
  endloop
endfacet
facet normal -1.0 5.655661058455744e-14 -3.0032503482894166e-15
  outer loop
    vertex 2216.8663154485453 -772.655681475708 605.8935549701642
    vertex 2216.866315448547 -782.655681475707 570.8935549701644
    vertex 2216.8663154485453 -775.6556814757081 608.8935549701642
  endloop
endfacet
facet normal -1.0 5.655661058455744e-14 -3.0032503482894166e-15
  outer loop
    vertex 2216.8663154485453 -775.6556814757081 608.8935549701642
    vertex 2216.866315448547 -782.6556814757066 680.893554970164
    vertex 2216.866315448547 -775.6556814757076 680.8935549701642
  endloop
endfacet
facet normal -1.0 5.655661058455744e-14 -3.0032503482894166e-15
  outer loop
    vertex 2216.866315448547 -782.6556814757066 680.893554970164
    vertex 2216.8663154485453 -775.6556814757081 608.8935549701642
    vertex 2216.866315448547 -782.655681475707 570.8935549701644
  endloop
endfacet
facet normal 4.366332398523723e-14 1.0 -2.5622370798074177e-14
  outer loop
    vertex 2186.8663154485516 -785.6556814757024 680.8935549701641
    vertex 2213.866315448547 -785.6556814757063 570.8935549701644
    vertex 2186.866315448552 -785.6556814757078 570.8935549701642
  endloop
endfacet
facet normal 4.366332398523723e-14 1.0 -2.5622370798074177e-14
  outer loop
    vertex 2213.866315448547 -785.6556814757063 570.8935549701644
    vertex 2186.8663154485516 -785.6556814757024 680.8935549701641
    vertex 2213.8663154485466 -785.6556814757059 680.893554970164
  endloop
endfacet
facet normal 1.4349889589350667e-13 -1.0 -2.0317446808523634e-14
  outer loop
    vertex 2213.866315448551 -703.6556814757058 680.8935549701637
    vertex 2186.8663154485516 -703.6556814757076 570.8935549701648
    vertex 2213.8663154485516 -703.6556814757062 570.8935549701641
  endloop
endfacet
facet normal 1.4349889589350667e-13 -1.0 -2.0317446808523634e-14
  outer loop
    vertex 2186.8663154485516 -703.6556814757076 570.8935549701648
    vertex 2213.866315448551 -703.6556814757058 680.8935549701637
    vertex 2186.866315448551 -703.6556814757124 680.8935549701637
  endloop
endfacet
facet normal -8.632537334466804e-15 2.6524619947751495e-15 1.0
  outer loop
    vertex 2213.8663154485516 -703.6556814757062 570.8935549701641
    vertex 2216.866315448547 -782.655681475707 570.8935549701644
    vertex 2216.8663154485516 -706.6556814757068 570.8935549701641
  endloop
endfacet
facet normal -8.632537334466804e-15 2.6524619947751495e-15 1.0
  outer loop
    vertex 2216.866315448547 -782.655681475707 570.8935549701644
    vertex 2213.8663154485516 -703.6556814757062 570.8935549701641
    vertex 2213.866315448547 -785.6556814757063 570.8935549701644
  endloop
endfacet
facet normal -8.632537334466804e-15 2.6524619947751495e-15 1.0
  outer loop
    vertex 2213.866315448547 -785.6556814757063 570.8935549701644
    vertex 2213.8663154485516 -703.6556814757062 570.8935549701641
    vertex 2186.8663154485516 -703.6556814757076 570.8935549701648
  endloop
endfacet
facet normal -8.632537334466804e-15 2.6524619947751495e-15 1.0
  outer loop
    vertex 2213.866315448547 -785.6556814757063 570.8935549701644
    vertex 2186.8663154485516 -703.6556814757076 570.8935549701648
    vertex 2186.866315448552 -785.6556814757078 570.8935549701642
  endloop
endfacet
facet normal -8.632537334466804e-15 2.6524619947751495e-15 1.0
  outer loop
    vertex 2186.866315448552 -785.6556814757078 570.8935549701642
    vertex 2186.8663154485516 -703.6556814757076 570.8935549701648
    vertex 2183.8663154485516 -706.6556814757089 570.8935549701638
  endloop
endfacet
facet normal -8.632537334466804e-15 2.6524619947751495e-15 1.0
  outer loop
    vertex 2186.866315448552 -785.6556814757078 570.8935549701642
    vertex 2183.8663154485516 -706.6556814757089 570.8935549701638
    vertex 2183.8663154485516 -782.6556814757085 570.8935549701641
  endloop
endfacet
facet normal 2.3061059235059014e-13 1.0 -1.3095251224562938e-14
  outer loop
    vertex 2180.8663154485516 -775.655681475707 677.8935549701642
    vertex 2183.8663154485484 -775.6556814757085 608.8935549701641
    vertex 2180.8663154485484 -775.6556814757085 608.8935549701641
  endloop
endfacet
facet normal 2.3061059235059014e-13 1.0 -1.3095251224562938e-14
  outer loop
    vertex 2183.8663154485484 -775.6556814757085 608.8935549701641
    vertex 2180.8663154485516 -775.655681475707 677.8935549701642
    vertex 2183.866315448551 -775.6556814757076 677.8935549701642
  endloop
endfacet
facet normal -2.2058404485705096e-13 -1.0 1.3136046399715906e-14
  outer loop
    vertex 2183.866315448551 -713.655681475707 677.8935549701641
    vertex 2180.866315448551 -713.6556814757085 608.8935549701646
    vertex 2183.8663154485516 -713.6556814757079 608.8935549701639
  endloop
endfacet
facet normal -2.2058404485705096e-13 -1.0 1.3136046399715906e-14
  outer loop
    vertex 2180.866315448551 -713.6556814757085 608.8935549701646
    vertex 2183.866315448551 -713.655681475707 677.8935549701641
    vertex 2180.866315448551 -713.655681475707 677.893554970164
  endloop
endfacet
facet normal 2.484911851446187e-28 1.5661751668844509e-15 1.0
  outer loop
    vertex 2180.866315448551 -716.6556814757087 605.8935549701639
    vertex 2183.8663154485484 -772.6556814757082 605.893554970164
    vertex 2183.8663154485516 -716.6556814757087 605.8935549701639
  endloop
endfacet
facet normal 2.484911851446187e-28 1.5661751668844509e-15 1.0
  outer loop
    vertex 2183.8663154485484 -772.6556814757082 605.893554970164
    vertex 2180.866315448551 -716.6556814757087 605.8935549701639
    vertex 2180.8663154485484 -772.6556814757082 605.893554970164
  endloop
endfacet
facet normal 1.0 2.7453356516050126e-15 5.159382204169677e-15
  outer loop
    vertex 2183.866315448551 -778.655681475707 680.8935549701642
    vertex 2183.8663154485484 -775.6556814757085 608.8935549701641
    vertex 2183.866315448551 -775.6556814757076 677.8935549701642
  endloop
endfacet
facet normal 1.0 2.7453356516050126e-15 5.159382204169677e-15
  outer loop
    vertex 2183.8663154485516 -706.6556814757089 570.8935549701638
    vertex 2183.8663154485516 -716.6556814757087 605.8935549701639
    vertex 2183.8663154485516 -782.6556814757085 570.8935549701641
  endloop
endfacet
facet normal 1.0 2.7453356516050126e-15 5.159382204169677e-15
  outer loop
    vertex 2183.8663154485516 -716.6556814757087 605.8935549701639
    vertex 2183.8663154485516 -706.6556814757089 570.8935549701638
    vertex 2183.8663154485516 -713.6556814757079 608.8935549701639
  endloop
endfacet
facet normal 1.0 2.7453356516050126e-15 5.159382204169677e-15
  outer loop
    vertex 2183.8663154485516 -713.6556814757079 608.8935549701639
    vertex 2183.8663154485516 -706.6556814757089 570.8935549701638
    vertex 2183.8663154485507 -706.6556814757129 680.8935549701637
  endloop
endfacet
facet normal 1.0 2.7453356516050126e-15 5.159382204169677e-15
  outer loop
    vertex 2183.8663154485516 -713.6556814757079 608.8935549701639
    vertex 2183.8663154485507 -706.6556814757129 680.8935549701637
    vertex 2183.8663154485507 -710.6556814757068 680.893554970164
  endloop
endfacet
facet normal 1.0 2.7453356516050126e-15 5.159382204169677e-15
  outer loop
    vertex 2183.8663154485516 -713.6556814757079 608.8935549701639
    vertex 2183.8663154485507 -710.6556814757068 680.893554970164
    vertex 2183.866315448551 -713.655681475707 677.8935549701641
  endloop
endfacet
facet normal 1.0 2.7453356516050126e-15 5.159382204169677e-15
  outer loop
    vertex 2183.8663154485516 -782.6556814757085 570.8935549701641
    vertex 2183.8663154485516 -716.6556814757087 605.8935549701639
    vertex 2183.8663154485484 -772.6556814757082 605.893554970164
  endloop
endfacet
facet normal 1.0 2.7453356516050126e-15 5.159382204169677e-15
  outer loop
    vertex 2183.8663154485516 -782.6556814757085 570.8935549701641
    vertex 2183.8663154485484 -772.6556814757082 605.893554970164
    vertex 2183.8663154485484 -775.6556814757085 608.8935549701641
  endloop
endfacet
facet normal 1.0 2.7453356516050126e-15 5.159382204169677e-15
  outer loop
    vertex 2183.8663154485516 -782.6556814757085 570.8935549701641
    vertex 2183.8663154485484 -775.6556814757085 608.8935549701641
    vertex 2183.866315448551 -778.655681475707 680.8935549701642
  endloop
endfacet
facet normal 1.0 2.7453356516050126e-15 5.159382204169677e-15
  outer loop
    vertex 2183.8663154485516 -782.6556814757085 570.8935549701641
    vertex 2183.866315448551 -778.655681475707 680.8935549701642
    vertex 2183.8663154485516 -782.6556814757024 680.8935549701638
  endloop
endfacet
facet normal 1.0 -2.026804650038566e-14 5.224443076073463e-15
  outer loop
    vertex 2237.266315448551 -703.6556814757062 677.8935549701642
    vertex 2237.2663154485517 -700.6556814757064 567.8935549701642
    vertex 2237.266315448551 -700.655681475706 677.8935549701642
  endloop
endfacet
facet normal 1.0 -2.026804650038566e-14 5.224443076073463e-15
  outer loop
    vertex 2237.2663154485517 -700.6556814757064 567.8935549701642
    vertex 2237.266315448551 -703.6556814757062 677.8935549701642
    vertex 2237.2663154485517 -703.6556814757064 567.8935549701642
  endloop
endfacet
facet normal 3.299253051688577e-14 -1.0 2.7989281488393113e-15
  outer loop
    vertex 2237.266315448551 -703.6556814757062 677.8935549701642
    vertex 2222.866315448551 -703.6556814757068 567.8935549701641
    vertex 2237.2663154485517 -703.6556814757064 567.8935549701642
  endloop
endfacet
facet normal 3.299253051688577e-14 -1.0 2.7989281488393113e-15
  outer loop
    vertex 2222.866315448551 -703.6556814757068 567.8935549701641
    vertex 2237.266315448551 -703.6556814757062 677.8935549701642
    vertex 2222.8663154485507 -703.6556814757057 680.8935549701637
  endloop
endfacet
facet normal 3.299253051688577e-14 -1.0 2.7989281488393113e-15
  outer loop
    vertex 2222.8663154485507 -703.6556814757057 680.8935549701637
    vertex 2237.266315448551 -703.6556814757062 677.8935549701642
    vertex 2234.266315448551 -703.6556814757054 680.8935549701644
  endloop
endfacet
facet normal -1.0 -9.811595980124824e-15 -4.404089190241269e-15
  outer loop
    vertex 2162.2663154485513 -703.6556814757071 567.8935549701639
    vertex 2162.266315448551 -700.6556814757068 677.8935549701639
    vertex 2162.2663154485513 -700.6556814757071 567.8935549701639
  endloop
endfacet
facet normal -1.0 -9.811595980124824e-15 -4.404089190241269e-15
  outer loop
    vertex 2162.266315448551 -700.6556814757068 677.8935549701639
    vertex 2162.2663154485513 -703.6556814757071 567.8935549701639
    vertex 2162.266315448551 -703.6556814757068 677.8935549701639
  endloop
endfacet
facet normal 9.811595980124815e-15 -1.0 2.6524619947751097e-15
  outer loop
    vertex 2180.866315448551 -703.6556814757067 680.893554970164
    vertex 2162.2663154485513 -703.6556814757071 567.8935549701639
    vertex 2180.8663154485516 -703.655681475707 567.8935549701639
  endloop
endfacet
facet normal 9.811595980124815e-15 -1.0 2.6524619947751097e-15
  outer loop
    vertex 2162.2663154485513 -703.6556814757071 567.8935549701639
    vertex 2180.866315448551 -703.6556814757067 680.893554970164
    vertex 2162.266315448551 -703.6556814757068 677.8935549701639
  endloop
endfacet
facet normal 9.811595980124815e-15 -1.0 2.6524619947751097e-15
  outer loop
    vertex 2162.266315448551 -703.6556814757068 677.8935549701639
    vertex 2180.866315448551 -703.6556814757067 680.893554970164
    vertex 2165.266315448551 -703.655681475706 680.893554970164
  endloop
endfacet
facet normal -0.7071067811865507 -5.06227218846389e-15 0.7071067811865445
  outer loop
    vertex 2162.266315448551 -700.6556814757068 677.8935549701639
    vertex 2165.266315448551 -703.655681475706 680.893554970164
    vertex 2165.266315448551 -700.6556814757059 680.893554970164
  endloop
endfacet
facet normal -0.7071067811865507 -5.06227218846389e-15 0.7071067811865445
  outer loop
    vertex 2165.266315448551 -703.655681475706 680.893554970164
    vertex 2162.266315448551 -700.6556814757068 677.8935549701639
    vertex 2162.266315448551 -703.6556814757068 677.8935549701639
  endloop
endfacet
facet normal 3.823684720438937e-15 -0.7071067811865457 0.7071067811865495
  outer loop
    vertex 2183.8663154485507 -710.6556814757068 680.893554970164
    vertex 2180.866315448551 -713.655681475707 677.893554970164
    vertex 2183.866315448551 -713.655681475707 677.8935549701641
  endloop
endfacet
facet normal 3.823684720438937e-15 -0.7071067811865457 0.7071067811865495
  outer loop
    vertex 2180.866315448551 -713.655681475707 677.893554970164
    vertex 2183.8663154485507 -710.6556814757068 680.893554970164
    vertex 2180.8663154485507 -710.655681475707 680.893554970164
  endloop
endfacet
facet normal -1.0052007383184037e-14 0.7071067811865496 0.7071067811865456
  outer loop
    vertex 2180.8663154485516 -778.655681475707 680.8935549701642
    vertex 2183.866315448551 -775.6556814757076 677.8935549701642
    vertex 2180.8663154485516 -775.655681475707 677.8935549701642
  endloop
endfacet
facet normal -1.0052007383184037e-14 0.7071067811865496 0.7071067811865456
  outer loop
    vertex 2183.866315448551 -775.6556814757076 677.8935549701642
    vertex 2180.8663154485516 -778.655681475707 680.8935549701642
    vertex 2183.866315448551 -778.655681475707 680.8935549701642
  endloop
endfacet
facet normal 0.7071067811865445 8.813419915153982e-15 0.7071067811865507
  outer loop
    vertex 2234.266315448551 -703.6556814757054 680.8935549701644
    vertex 2237.266315448551 -700.655681475706 677.8935549701642
    vertex 2234.266315448551 -700.6556814757054 680.8935549701644
  endloop
endfacet
facet normal 0.7071067811865445 8.813419915153982e-15 0.7071067811865507
  outer loop
    vertex 2237.266315448551 -700.655681475706 677.8935549701642
    vertex 2234.266315448551 -703.6556814757054 680.8935549701644
    vertex 2237.266315448551 -703.6556814757062 677.8935549701642
  endloop
endfacet
facet normal -0.7071067811865407 -0.7071067811865545 -1.2385874680248887e-15
  outer loop
    vertex 2216.866315448551 -706.6556814757066 680.8935549701637
    vertex 2213.8663154485516 -703.6556814757062 570.8935549701641
    vertex 2216.8663154485516 -706.6556814757068 570.8935549701641
  endloop
endfacet
facet normal -0.7071067811865407 -0.7071067811865545 -1.2385874680248887e-15
  outer loop
    vertex 2213.8663154485516 -703.6556814757062 570.8935549701641
    vertex 2216.866315448551 -706.6556814757066 680.8935549701637
    vertex 2213.866315448551 -703.6556814757058 680.8935549701637
  endloop
endfacet
facet normal -0.7071067811865333 0.7071067811865619 -4.989735194715012e-15
  outer loop
    vertex 2213.8663154485466 -785.6556814757059 680.893554970164
    vertex 2216.866315448547 -782.655681475707 570.8935549701644
    vertex 2213.866315448547 -785.6556814757063 570.8935549701644
  endloop
endfacet
facet normal -0.7071067811865333 0.7071067811865619 -4.989735194715012e-15
  outer loop
    vertex 2216.866315448547 -782.655681475707 570.8935549701644
    vertex 2213.8663154485466 -785.6556814757059 680.893554970164
    vertex 2216.866315448547 -782.6556814757066 680.893554970164
  endloop
endfacet
facet normal 0.7071067811865407 0.7071067811865545 -3.12462717123005e-14
  outer loop
    vertex 2183.8663154485516 -782.6556814757024 680.8935549701638
    vertex 2186.866315448552 -785.6556814757078 570.8935549701642
    vertex 2183.8663154485516 -782.6556814757085 570.8935549701641
  endloop
endfacet
facet normal 0.7071067811865407 0.7071067811865545 -3.12462717123005e-14
  outer loop
    vertex 2186.866315448552 -785.6556814757078 570.8935549701642
    vertex 2183.8663154485516 -782.6556814757024 680.8935549701638
    vertex 2186.8663154485516 -785.6556814757024 680.8935549701641
  endloop
endfacet
facet normal 0.7071067811865863 -0.7071067811865087 -2.7494077538449064e-14
  outer loop
    vertex 2186.866315448551 -703.6556814757124 680.8935549701637
    vertex 2183.8663154485516 -706.6556814757089 570.8935549701638
    vertex 2186.8663154485516 -703.6556814757076 570.8935549701648
  endloop
endfacet
facet normal 0.7071067811865863 -0.7071067811865087 -2.7494077538449064e-14
  outer loop
    vertex 2183.8663154485516 -706.6556814757089 570.8935549701638
    vertex 2186.866315448551 -703.6556814757124 680.8935549701637
    vertex 2183.8663154485507 -706.6556814757129 680.8935549701637
  endloop
endfacet
facet normal 4.404089190241295e-15 -2.6524619947750663e-15 -1.0
  outer loop
    vertex 2219.866315448551 -703.6556814757068 567.8935549701641
    vertex 2222.866315448551 -703.6556814757068 567.8935549701641
    vertex 2219.866315448551 -706.6556814757068 567.8935549701641
  endloop
endfacet
facet normal 0.7071067811865333 -0.7071067811865619 4.989735194715012e-15
  outer loop
    vertex 2222.8663154485507 -703.6556814757057 680.8935549701637
    vertex 2219.866315448551 -706.6556814757068 567.8935549701641
    vertex 2222.866315448551 -703.6556814757068 567.8935549701641
  endloop
endfacet
facet normal 0.7071067811865333 -0.7071067811865619 4.989735194715012e-15
  outer loop
    vertex 2219.866315448551 -706.6556814757068 567.8935549701641
    vertex 2222.8663154485507 -703.6556814757057 680.8935549701637
    vertex 2219.8663154485507 -706.6556814757066 680.8935549701637
  endloop
endfacet
facet normal 4.379384573364455e-17 -1.3696497308571867e-14 1.0
  outer loop
    vertex 2216.8663154485507 -713.6556814757076 680.8935549701638
    vertex 2219.8663154485507 -713.6556814757076 680.8935549701639
    vertex 2216.866315448551 -706.6556814757066 680.8935549701637
  endloop
endfacet
facet normal 4.379384573364455e-17 -1.3696497308571867e-14 1.0
  outer loop
    vertex 2165.266315448551 -700.6556814757059 680.893554970164
    vertex 2234.266315448551 -703.6556814757054 680.8935549701644
    vertex 2234.266315448551 -700.6556814757054 680.8935549701644
  endloop
endfacet
facet normal 4.379384573364455e-17 -1.3696497308571867e-14 1.0
  outer loop
    vertex 2234.266315448551 -703.6556814757054 680.8935549701644
    vertex 2165.266315448551 -700.6556814757059 680.893554970164
    vertex 2222.8663154485507 -703.6556814757057 680.8935549701637
  endloop
endfacet
facet normal 4.379384573364455e-17 -1.3696497308571867e-14 1.0
  outer loop
    vertex 2222.8663154485507 -703.6556814757057 680.8935549701637
    vertex 2165.266315448551 -700.6556814757059 680.893554970164
    vertex 2213.866315448551 -703.6556814757058 680.8935549701637
  endloop
endfacet
facet normal 4.379384573364455e-17 -1.3696497308571867e-14 1.0
  outer loop
    vertex 2222.8663154485507 -703.6556814757057 680.8935549701637
    vertex 2213.866315448551 -703.6556814757058 680.8935549701637
    vertex 2219.8663154485507 -706.6556814757066 680.8935549701637
  endloop
endfacet
facet normal 4.379384573364455e-17 -1.3696497308571867e-14 1.0
  outer loop
    vertex 2219.8663154485507 -706.6556814757066 680.8935549701637
    vertex 2213.866315448551 -703.6556814757058 680.8935549701637
    vertex 2216.866315448551 -706.6556814757066 680.8935549701637
  endloop
endfacet
facet normal 4.379384573364455e-17 -1.3696497308571867e-14 1.0
  outer loop
    vertex 2219.8663154485507 -706.6556814757066 680.8935549701637
    vertex 2216.866315448551 -706.6556814757066 680.8935549701637
    vertex 2219.8663154485507 -713.6556814757076 680.8935549701639
  endloop
endfacet
facet normal 4.379384573364455e-17 -1.3696497308571867e-14 1.0
  outer loop
    vertex 2213.866315448551 -703.6556814757058 680.8935549701637
    vertex 2165.266315448551 -700.6556814757059 680.893554970164
    vertex 2186.866315448551 -703.6556814757124 680.8935549701637
  endloop
endfacet
facet normal 4.379384573364455e-17 -1.3696497308571867e-14 1.0
  outer loop
    vertex 2186.866315448551 -703.6556814757124 680.8935549701637
    vertex 2165.266315448551 -700.6556814757059 680.893554970164
    vertex 2180.866315448551 -703.6556814757067 680.893554970164
  endloop
endfacet
facet normal 4.379384573364455e-17 -1.3696497308571867e-14 1.0
  outer loop
    vertex 2186.866315448551 -703.6556814757124 680.8935549701637
    vertex 2180.866315448551 -703.6556814757067 680.893554970164
    vertex 2183.8663154485507 -706.6556814757129 680.8935549701637
  endloop
endfacet
facet normal 4.379384573364455e-17 -1.3696497308571867e-14 1.0
  outer loop
    vertex 2183.8663154485507 -706.6556814757129 680.8935549701637
    vertex 2180.866315448551 -703.6556814757067 680.893554970164
    vertex 2183.8663154485507 -710.6556814757068 680.893554970164
  endloop
endfacet
facet normal 4.379384573364455e-17 -1.3696497308571867e-14 1.0
  outer loop
    vertex 2180.866315448551 -703.6556814757067 680.893554970164
    vertex 2165.266315448551 -700.6556814757059 680.893554970164
    vertex 2165.266315448551 -703.655681475706 680.893554970164
  endloop
endfacet
facet normal 4.379384573364455e-17 -1.3696497308571867e-14 1.0
  outer loop
    vertex 2180.8663154485507 -710.655681475707 680.893554970164
    vertex 2183.8663154485507 -710.6556814757068 680.893554970164
    vertex 2180.866315448551 -703.6556814757067 680.893554970164
  endloop
endfacet
facet normal -0.7071067811865407 -0.7071067811865545 -1.2385874680248814e-15
  outer loop
    vertex 2183.8663154485516 -788.655681475706 680.8935549701644
    vertex 2180.8663154485516 -785.6556814757072 567.8935549701642
    vertex 2183.8663154485516 -788.6556814757072 567.8935549701642
  endloop
endfacet
facet normal -0.7071067811865407 -0.7071067811865545 -1.2385874680248814e-15
  outer loop
    vertex 2180.8663154485516 -785.6556814757072 567.8935549701642
    vertex 2183.8663154485516 -788.655681475706 680.8935549701644
    vertex 2180.8663154485516 -785.6556814757067 680.8935549701644
  endloop
endfacet
facet normal 0.7071067811865438 -0.7071067811865512 4.988743573551817e-15
  outer loop
    vertex 2219.866315448547 -785.655681475707 567.8935549701652
    vertex 2216.866315448547 -788.6556814757067 680.8935549701645
    vertex 2216.866315448547 -788.655681475707 567.8935549701644
  endloop
endfacet
facet normal 0.7071067811865438 -0.7071067811865512 4.988743573551817e-15
  outer loop
    vertex 2216.866315448547 -788.6556814757067 680.8935549701645
    vertex 2219.866315448547 -785.655681475707 567.8935549701652
    vertex 2219.866315448547 -785.6556814757066 680.8935549701645
  endloop
endfacet
facet normal -2.0930297072238183e-15 8.038599666020095e-15 1.0
  outer loop
    vertex 2216.866315448547 -775.6556814757076 680.8935549701642
    vertex 2219.866315448547 -785.6556814757066 680.8935549701645
    vertex 2219.866315448547 -775.6556814757076 680.8935549701642
  endloop
endfacet
facet normal -2.0930297072238183e-15 8.038599666020095e-15 1.0
  outer loop
    vertex 2219.866315448547 -785.6556814757066 680.8935549701645
    vertex 2216.866315448547 -775.6556814757076 680.8935549701642
    vertex 2216.866315448547 -788.6556814757067 680.8935549701645
  endloop
endfacet
facet normal -2.0930297072238183e-15 8.038599666020095e-15 1.0
  outer loop
    vertex 2216.866315448547 -788.6556814757067 680.8935549701645
    vertex 2216.866315448547 -775.6556814757076 680.8935549701642
    vertex 2216.866315448547 -782.6556814757066 680.893554970164
  endloop
endfacet
facet normal -2.0930297072238183e-15 8.038599666020095e-15 1.0
  outer loop
    vertex 2216.866315448547 -788.6556814757067 680.8935549701645
    vertex 2216.866315448547 -782.6556814757066 680.893554970164
    vertex 2213.8663154485466 -785.6556814757059 680.893554970164
  endloop
endfacet
facet normal -2.0930297072238183e-15 8.038599666020095e-15 1.0
  outer loop
    vertex 2216.866315448547 -788.6556814757067 680.8935549701645
    vertex 2213.8663154485466 -785.6556814757059 680.893554970164
    vertex 2183.8663154485516 -788.655681475706 680.8935549701644
  endloop
endfacet
facet normal -2.0930297072238183e-15 8.038599666020095e-15 1.0
  outer loop
    vertex 2183.8663154485516 -788.655681475706 680.8935549701644
    vertex 2213.8663154485466 -785.6556814757059 680.893554970164
    vertex 2186.8663154485516 -785.6556814757024 680.8935549701641
  endloop
endfacet
facet normal -2.0930297072238183e-15 8.038599666020095e-15 1.0
  outer loop
    vertex 2183.8663154485516 -788.655681475706 680.8935549701644
    vertex 2186.8663154485516 -785.6556814757024 680.8935549701641
    vertex 2183.8663154485516 -782.6556814757024 680.8935549701638
  endloop
endfacet
facet normal -2.0930297072238183e-15 8.038599666020095e-15 1.0
  outer loop
    vertex 2183.8663154485516 -788.655681475706 680.8935549701644
    vertex 2183.8663154485516 -782.6556814757024 680.8935549701638
    vertex 2183.866315448551 -778.655681475707 680.8935549701642
  endloop
endfacet
facet normal -2.0930297072238183e-15 8.038599666020095e-15 1.0
  outer loop
    vertex 2183.8663154485516 -788.655681475706 680.8935549701644
    vertex 2183.866315448551 -778.655681475707 680.8935549701642
    vertex 2180.8663154485516 -785.6556814757067 680.8935549701644
  endloop
endfacet
facet normal -2.0930297072238183e-15 8.038599666020095e-15 1.0
  outer loop
    vertex 2180.8663154485516 -785.6556814757067 680.8935549701644
    vertex 2183.866315448551 -778.655681475707 680.8935549701642
    vertex 2180.8663154485516 -778.655681475707 680.8935549701642
  endloop
endfacet
facet normal -2.4454688061851366e-28 6.264700667537786e-15 1.0
  outer loop
    vertex 2216.8663154485507 -716.6556814757084 605.8935549701639
    vertex 2219.8663154485444 -772.655681475708 605.8935549701642
    vertex 2219.8663154485507 -716.6556814757084 605.893554970164
  endloop
endfacet
facet normal -2.4454688061851366e-28 6.264700667537786e-15 1.0
  outer loop
    vertex 2219.8663154485444 -772.655681475708 605.8935549701642
    vertex 2216.8663154485507 -716.6556814757084 605.8935549701639
    vertex 2216.8663154485453 -772.655681475708 605.8935549701642
  endloop
endfacet
facet normal 4.894253803567602e-28 1.0 -6.131041936543406e-15
  outer loop
    vertex 2216.866315448547 -775.6556814757076 680.8935549701642
    vertex 2219.8663154485444 -775.6556814757081 608.8935549701642
    vertex 2216.8663154485453 -775.6556814757081 608.8935549701642
  endloop
endfacet
facet normal 4.894253803567602e-28 1.0 -6.131041936543406e-15
  outer loop
    vertex 2219.8663154485444 -775.6556814757081 608.8935549701642
    vertex 2216.866315448547 -775.6556814757076 680.8935549701642
    vertex 2219.866315448547 -775.6556814757076 680.8935549701642
  endloop
endfacet
facet normal -1.928136799936598e-28 -1.0 6.131041936543407e-15
  outer loop
    vertex 2219.8663154485507 -713.6556814757076 680.8935549701639
    vertex 2216.8663154485507 -713.6556814757081 608.893554970164
    vertex 2219.8663154485507 -713.6556814757081 608.893554970164
  endloop
endfacet
facet normal -1.928136799936598e-28 -1.0 6.131041936543407e-15
  outer loop
    vertex 2216.8663154485507 -713.6556814757081 608.893554970164
    vertex 2219.8663154485507 -713.6556814757076 680.8935549701639
    vertex 2216.8663154485507 -713.6556814757076 680.8935549701638
  endloop
endfacet
facet normal 2.5507817370321417e-27 -0.7071067811865369 0.7071067811865581
  outer loop
    vertex 2180.866315448551 -713.6556814757085 608.8935549701646
    vertex 2183.8663154485516 -716.6556814757087 605.8935549701639
    vertex 2183.8663154485516 -713.6556814757079 608.8935549701639
  endloop
endfacet
facet normal 2.5507817370321417e-27 -0.7071067811865369 0.7071067811865581
  outer loop
    vertex 2183.8663154485516 -716.6556814757087 605.8935549701639
    vertex 2180.866315448551 -713.6556814757085 608.8935549701646
    vertex 2180.866315448551 -716.6556814757087 605.8935549701639
  endloop
endfacet
facet normal -2.1982657346508897e-17 -0.7071067811865156 0.7071067811865794
  outer loop
    vertex 2216.8663154485507 -713.6556814757081 608.893554970164
    vertex 2219.8663154485507 -716.6556814757084 605.893554970164
    vertex 2219.8663154485507 -713.6556814757081 608.893554970164
  endloop
endfacet
facet normal -2.1982657346508897e-17 -0.7071067811865156 0.7071067811865794
  outer loop
    vertex 2219.8663154485507 -716.6556814757084 605.893554970164
    vertex 2216.8663154485507 -713.6556814757081 608.893554970164
    vertex 2216.8663154485507 -716.6556814757084 605.8935549701639
  endloop
endfacet
facet normal 5.5220263365470826e-30 0.7071067811865476 0.7071067811865476
  outer loop
    vertex 2216.8663154485453 -772.655681475708 605.8935549701642
    vertex 2219.8663154485444 -775.6556814757081 608.8935549701642
    vertex 2219.8663154485444 -772.655681475708 605.8935549701642
  endloop
endfacet
facet normal 5.5220263365470826e-30 0.7071067811865476 0.7071067811865476
  outer loop
    vertex 2219.8663154485444 -775.6556814757081 608.8935549701642
    vertex 2216.8663154485453 -772.655681475708 605.8935549701642
    vertex 2216.8663154485453 -775.6556814757081 608.8935549701642
  endloop
endfacet
facet normal 5.127595883936577e-30 0.7071067811865156 0.7071067811865794
  outer loop
    vertex 2180.8663154485484 -772.6556814757082 605.893554970164
    vertex 2183.8663154485484 -775.6556814757085 608.8935549701641
    vertex 2183.8663154485484 -772.6556814757082 605.893554970164
  endloop
endfacet
facet normal 5.127595883936577e-30 0.7071067811865156 0.7071067811865794
  outer loop
    vertex 2183.8663154485484 -775.6556814757085 608.8935549701641
    vertex 2180.8663154485484 -772.6556814757082 605.893554970164
    vertex 2180.8663154485484 -775.6556814757085 608.8935549701641
  endloop
endfacet
facet normal -1.0026547493503693e-14 1.0 7.888609052210118e-31
  outer loop
    vertex 2162.866315448552 -737.6556814757073 570.8935549701641
    vertex 2180.8663154485516 -737.6556814757072 567.8935549701641
    vertex 2162.866315448552 -737.6556814757073 567.893554970164
  endloop
endfacet
facet normal -1.0026547493503693e-14 1.0 7.888609052210118e-31
  outer loop
    vertex 2180.8663154485516 -737.6556814757072 567.8935549701641
    vertex 2162.866315448552 -737.6556814757073 570.8935549701641
    vertex 2180.8663154485516 -737.6556814757072 570.8935549701641
  endloop
endfacet
facet normal 5.0132737467518475e-15 -1.0 -3.944304526105059e-31
  outer loop
    vertex 2180.8663154485516 -751.6556814757073 570.8935549701641
    vertex 2162.866315448552 -751.6556814757074 567.893554970164
    vertex 2180.8663154485516 -751.6556814757073 567.8935549701641
  endloop
endfacet
facet normal 5.0132737467518475e-15 -1.0 -3.944304526105059e-31
  outer loop
    vertex 2162.866315448552 -751.6556814757074 567.893554970164
    vertex 2180.8663154485516 -751.6556814757073 570.8935549701641
    vertex 2162.866315448552 -751.6556814757074 570.8935549701641
  endloop
endfacet
facet normal 9.769334084015936e-30 1.0 -1.1091815042968689e-15
  outer loop
    vertex 2159.8663154485516 -775.6556814757071 598.8935549701641
    vertex 2180.8663154485516 -775.6556814757071 567.8935549701641
    vertex 2159.8663154485516 -775.6556814757071 567.893554970164
  endloop
endfacet
facet normal 9.769334084015936e-30 1.0 -1.1091815042968689e-15
  outer loop
    vertex 2180.8663154485516 -775.6556814757071 567.8935549701641
    vertex 2159.8663154485516 -775.6556814757071 598.8935549701641
    vertex 2180.8663154485516 -775.6556814757071 598.8935549701642
  endloop
endfacet
facet normal 1.0 7.519910620127664e-15 -5.82186628655052e-15
  outer loop
    vertex 2159.8663154485516 -713.6556814757071 598.8935549701641
    vertex 2159.8663154485516 -737.6556814757073 567.8935549701641
    vertex 2159.8663154485516 -713.6556814757071 567.8935549701645
  endloop
endfacet
facet normal 1.0 7.519910620127664e-15 -5.82186628655052e-15
  outer loop
    vertex 2159.8663154485516 -737.6556814757073 567.8935549701641
    vertex 2159.8663154485516 -713.6556814757071 598.8935549701641
    vertex 2159.866315448552 -737.6556814757073 598.8935549701641
  endloop
endfacet
facet normal -5.036168652689865e-30 -1.0 1.109181504296869e-15
  outer loop
    vertex 2180.8663154485516 -713.6556814757071 598.8935549701646
    vertex 2159.8663154485516 -713.6556814757071 567.8935549701645
    vertex 2180.8663154485516 -713.6556814757071 567.8935549701645
  endloop
endfacet
facet normal -5.036168652689865e-30 -1.0 1.109181504296869e-15
  outer loop
    vertex 2159.8663154485516 -713.6556814757071 567.8935549701645
    vertex 2180.8663154485516 -713.6556814757071 598.8935549701646
    vertex 2159.8663154485516 -713.6556814757071 598.8935549701641
  endloop
endfacet
facet normal -1.0 -3.0213181403841215e-15 -4.543602122372092e-15
  outer loop
    vertex 2180.8663154485516 -751.6556814757073 567.8935549701641
    vertex 2180.8663154485516 -737.6556814757072 570.8935549701641
    vertex 2180.8663154485516 -737.6556814757072 567.8935549701641
  endloop
endfacet
facet normal -1.0 -3.0213181403841215e-15 -4.543602122372092e-15
  outer loop
    vertex 2180.8663154485516 -785.6556814757072 567.8935549701642
    vertex 2180.8663154485516 -775.6556814757071 598.8935549701642
    vertex 2180.8663154485516 -775.6556814757071 567.8935549701641
  endloop
endfacet
facet normal -1.0 -3.0213181403841215e-15 -4.543602122372092e-15
  outer loop
    vertex 2180.8663154485516 -775.6556814757071 598.8935549701642
    vertex 2180.8663154485516 -785.6556814757072 567.8935549701642
    vertex 2180.8663154485484 -775.6556814757085 608.8935549701641
  endloop
endfacet
facet normal -1.0 -3.0213181403841215e-15 -4.543602122372092e-15
  outer loop
    vertex 2180.8663154485484 -775.6556814757085 608.8935549701641
    vertex 2180.8663154485516 -785.6556814757072 567.8935549701642
    vertex 2180.8663154485516 -778.655681475707 680.8935549701642
  endloop
endfacet
facet normal -1.0 -3.0213181403841215e-15 -4.543602122372092e-15
  outer loop
    vertex 2180.8663154485516 -778.655681475707 680.8935549701642
    vertex 2180.8663154485516 -785.6556814757072 567.8935549701642
    vertex 2180.8663154485516 -785.6556814757067 680.8935549701644
  endloop
endfacet
facet normal -1.0 -3.0213181403841215e-15 -4.543602122372092e-15
  outer loop
    vertex 2180.8663154485516 -778.655681475707 680.8935549701642
    vertex 2180.8663154485516 -775.655681475707 677.8935549701642
    vertex 2180.8663154485484 -775.6556814757085 608.8935549701641
  endloop
endfacet
facet normal -1.0 -3.0213181403841215e-15 -4.543602122372092e-15
  outer loop
    vertex 2180.8663154485516 -737.6556814757072 570.8935549701641
    vertex 2180.8663154485516 -716.6556814757071 598.8935549701641
    vertex 2180.8663154485516 -716.6556814757066 582.893554970164
  endloop
endfacet
facet normal -1.0 -3.0213181403841215e-15 -4.543602122372092e-15
  outer loop
    vertex 2180.8663154485516 -716.6556814757071 598.8935549701641
    vertex 2180.8663154485516 -737.6556814757072 570.8935549701641
    vertex 2180.866315448551 -716.6556814757087 605.8935549701639
  endloop
endfacet
facet normal -1.0 -3.0213181403841215e-15 -4.543602122372092e-15
  outer loop
    vertex 2180.866315448551 -716.6556814757087 605.8935549701639
    vertex 2180.8663154485516 -737.6556814757072 570.8935549701641
    vertex 2180.8663154485484 -772.6556814757082 605.893554970164
  endloop
endfacet
facet normal -1.0 -3.0213181403841215e-15 -4.543602122372092e-15
  outer loop
    vertex 2180.8663154485484 -772.6556814757082 605.893554970164
    vertex 2180.8663154485516 -737.6556814757072 570.8935549701641
    vertex 2180.8663154485516 -751.6556814757073 570.8935549701641
  endloop
endfacet
facet normal -1.0 -3.0213181403841215e-15 -4.543602122372092e-15
  outer loop
    vertex 2180.8663154485516 -751.6556814757073 570.8935549701641
    vertex 2180.8663154485516 -737.6556814757072 570.8935549701641
    vertex 2180.8663154485516 -751.6556814757073 567.8935549701641
  endloop
endfacet
facet normal -1.0 -3.0213181403841215e-15 -4.543602122372092e-15
  outer loop
    vertex 2180.8663154485484 -772.6556814757082 605.893554970164
    vertex 2180.8663154485516 -751.6556814757073 570.8935549701641
    vertex 2180.8663154485516 -772.6556814757073 598.8935549701642
  endloop
endfacet
facet normal -1.0 -3.0213181403841215e-15 -4.543602122372092e-15
  outer loop
    vertex 2180.8663154485516 -772.6556814757073 598.8935549701642
    vertex 2180.8663154485516 -751.6556814757073 570.8935549701641
    vertex 2180.8663154485516 -772.6556814757068 582.8935549701641
  endloop
endfacet
facet normal -1.0 -3.0213181403841215e-15 -4.543602122372092e-15
  outer loop
    vertex 2180.8663154485484 -772.6556814757082 605.893554970164
    vertex 2180.8663154485516 -772.6556814757073 598.8935549701642
    vertex 2180.8663154485516 -775.6556814757071 598.8935549701642
  endloop
endfacet
facet normal -1.0 -3.0213181403841215e-15 -4.543602122372092e-15
  outer loop
    vertex 2180.8663154485484 -772.6556814757082 605.893554970164
    vertex 2180.8663154485516 -775.6556814757071 598.8935549701642
    vertex 2180.8663154485484 -775.6556814757085 608.8935549701641
  endloop
endfacet
facet normal -1.0 -3.0213181403841215e-15 -4.543602122372092e-15
  outer loop
    vertex 2180.8663154485516 -713.6556814757071 567.8935549701645
    vertex 2180.866315448551 -703.6556814757067 680.893554970164
    vertex 2180.8663154485516 -703.655681475707 567.8935549701639
  endloop
endfacet
facet normal -1.0 -3.0213181403841215e-15 -4.543602122372092e-15
  outer loop
    vertex 2180.866315448551 -703.6556814757067 680.893554970164
    vertex 2180.8663154485516 -713.6556814757071 567.8935549701645
    vertex 2180.8663154485507 -710.655681475707 680.893554970164
  endloop
endfacet
facet normal -1.0 -3.0213181403841215e-15 -4.543602122372092e-15
  outer loop
    vertex 2180.8663154485507 -710.655681475707 680.893554970164
    vertex 2180.8663154485516 -713.6556814757071 567.8935549701645
    vertex 2180.866315448551 -713.655681475707 677.893554970164
  endloop
endfacet
facet normal -1.0 -3.0213181403841215e-15 -4.543602122372092e-15
  outer loop
    vertex 2180.866315448551 -713.655681475707 677.893554970164
    vertex 2180.8663154485516 -713.6556814757071 567.8935549701645
    vertex 2180.8663154485516 -713.6556814757071 598.8935549701646
  endloop
endfacet
facet normal -1.0 -3.0213181403841215e-15 -4.543602122372092e-15
  outer loop
    vertex 2180.866315448551 -713.655681475707 677.893554970164
    vertex 2180.8663154485516 -713.6556814757071 598.8935549701646
    vertex 2180.866315448551 -713.6556814757085 608.8935549701646
  endloop
endfacet
facet normal -1.0 -3.0213181403841215e-15 -4.543602122372092e-15
  outer loop
    vertex 2180.866315448551 -713.6556814757085 608.8935549701646
    vertex 2180.8663154485516 -713.6556814757071 598.8935549701646
    vertex 2180.8663154485516 -716.6556814757071 598.8935549701641
  endloop
endfacet
facet normal -1.0 -3.0213181403841215e-15 -4.543602122372092e-15
  outer loop
    vertex 2180.866315448551 -713.6556814757085 608.8935549701646
    vertex 2180.8663154485516 -716.6556814757071 598.8935549701641
    vertex 2180.866315448551 -716.6556814757087 605.8935549701639
  endloop
endfacet
facet normal 3.1190862189245387e-16 -0.49613893835683004 0.8682431421244614
  outer loop
    vertex 2180.8663154485516 -716.6556814757066 582.893554970164
    vertex 2162.866315448552 -737.6556814757073 570.8935549701641
    vertex 2180.8663154485516 -737.6556814757072 570.8935549701641
  endloop
endfacet
facet normal 3.1190862189245387e-16 -0.49613893835683004 0.8682431421244614
  outer loop
    vertex 2162.866315448552 -737.6556814757073 570.8935549701641
    vertex 2180.8663154485516 -716.6556814757066 582.893554970164
    vertex 2162.8663154485507 -716.6556814757066 582.893554970164
  endloop
endfacet
facet normal -3.396719168078755e-15 0.49613893835683526 0.8682431421244584
  outer loop
    vertex 2162.866315448552 -751.6556814757074 570.8935549701641
    vertex 2180.8663154485516 -772.6556814757068 582.8935549701641
    vertex 2180.8663154485516 -751.6556814757073 570.8935549701641
  endloop
endfacet
facet normal -3.396719168078755e-15 0.49613893835683526 0.8682431421244584
  outer loop
    vertex 2180.8663154485516 -772.6556814757068 582.8935549701641
    vertex 2162.866315448552 -751.6556814757074 570.8935549701641
    vertex 2162.8663154485503 -772.6556814757068 582.8935549701641
  endloop
endfacet
facet normal 5.330112647546439e-15 3.2967288158641688e-15 -1.0
  outer loop
    vertex 2159.866315448552 -737.6556814757073 598.8935549701641
    vertex 2162.8663154485516 -716.6556814757073 598.893554970164
    vertex 2162.866315448552 -737.6556814757073 598.8935549701639
  endloop
endfacet
facet normal 5.330112647546439e-15 3.2967288158641688e-15 -1.0
  outer loop
    vertex 2162.8663154485516 -716.6556814757073 598.893554970164
    vertex 2180.8663154485516 -713.6556814757071 598.8935549701646
    vertex 2180.8663154485516 -716.6556814757071 598.8935549701641
  endloop
endfacet
facet normal 5.330112647546439e-15 3.2967288158641688e-15 -1.0
  outer loop
    vertex 2180.8663154485516 -713.6556814757071 598.8935549701646
    vertex 2162.8663154485516 -716.6556814757073 598.893554970164
    vertex 2159.8663154485516 -713.6556814757071 598.8935549701641
  endloop
endfacet
facet normal 5.330112647546439e-15 3.2967288158641688e-15 -1.0
  outer loop
    vertex 2159.8663154485516 -713.6556814757071 598.8935549701641
    vertex 2162.8663154485516 -716.6556814757073 598.893554970164
    vertex 2159.866315448552 -737.6556814757073 598.8935549701641
  endloop
endfacet
facet normal -1.0 6.227477630031088e-14 3.7483862168021675e-14
  outer loop
    vertex 2162.8663154485503 -772.6556814757068 582.8935549701641
    vertex 2162.866315448551 -751.6556814757074 598.8935549701639
    vertex 2162.866315448552 -751.6556814757074 570.8935549701641
  endloop
endfacet
facet normal -1.0 6.227477630031088e-14 3.7483862168021675e-14
  outer loop
    vertex 2162.866315448551 -751.6556814757074 598.8935549701639
    vertex 2162.8663154485503 -772.6556814757068 582.8935549701641
    vertex 2162.866315448552 -772.6556814757074 598.8935549701641
  endloop
endfacet
facet normal 3.342182497834229e-15 -1.0 -1.524306206782688e-16
  outer loop
    vertex 2180.8663154485516 -772.6556814757073 598.8935549701642
    vertex 2162.8663154485503 -772.6556814757068 582.8935549701641
    vertex 2180.8663154485516 -772.6556814757068 582.8935549701641
  endloop
endfacet
facet normal 3.342182497834229e-15 -1.0 -1.524306206782688e-16
  outer loop
    vertex 2162.8663154485503 -772.6556814757068 582.8935549701641
    vertex 2180.8663154485516 -772.6556814757073 598.8935549701642
    vertex 2162.866315448552 -772.6556814757074 598.8935549701641
  endloop
endfacet
facet normal -6.684364995668867e-15 1.0 3.048612413565293e-16
  outer loop
    vertex 2162.8663154485507 -716.6556814757066 582.893554970164
    vertex 2180.8663154485516 -716.6556814757071 598.8935549701641
    vertex 2180.8663154485516 -716.6556814757066 582.893554970164
  endloop
endfacet
facet normal -6.684364995668867e-15 1.0 3.048612413565293e-16
  outer loop
    vertex 2180.8663154485516 -716.6556814757071 598.8935549701641
    vertex 2162.8663154485507 -716.6556814757066 582.893554970164
    vertex 2162.8663154485516 -716.6556814757073 598.893554970164
  endloop
endfacet
facet normal 3.306678000484493e-30 1.0 0.0
  outer loop
    vertex 2159.8663154485516 -751.6556814757074 567.8935549701641
    vertex 2162.866315448552 -751.6556814757074 570.8935549701641
    vertex 2162.866315448552 -751.6556814757074 567.893554970164
  endloop
endfacet
facet normal 3.306678000484493e-30 1.0 0.0
  outer loop
    vertex 2162.866315448552 -751.6556814757074 570.8935549701641
    vertex 2159.8663154485516 -751.6556814757074 567.8935549701641
    vertex 2159.8663154485507 -751.6556814757074 598.8935549701641
  endloop
endfacet
facet normal 3.306678000484493e-30 1.0 0.0
  outer loop
    vertex 2162.866315448552 -751.6556814757074 570.8935549701641
    vertex 2159.8663154485507 -751.6556814757074 598.8935549701641
    vertex 2162.866315448551 -751.6556814757074 598.8935549701639
  endloop
endfacet
facet normal -3.306678000484493e-30 -1.0 0.0
  outer loop
    vertex 2162.866315448552 -737.6556814757073 570.8935549701641
    vertex 2159.8663154485516 -737.6556814757073 567.8935549701641
    vertex 2162.866315448552 -737.6556814757073 567.893554970164
  endloop
endfacet
facet normal -3.306678000484493e-30 -1.0 0.0
  outer loop
    vertex 2159.8663154485516 -737.6556814757073 567.8935549701641
    vertex 2162.866315448552 -737.6556814757073 570.8935549701641
    vertex 2159.866315448552 -737.6556814757073 598.8935549701641
  endloop
endfacet
facet normal -3.306678000484493e-30 -1.0 0.0
  outer loop
    vertex 2159.866315448552 -737.6556814757073 598.8935549701641
    vertex 2162.866315448552 -737.6556814757073 570.8935549701641
    vertex 2162.866315448552 -737.6556814757073 598.8935549701639
  endloop
endfacet
facet normal -1.0 -4.8920737221050414e-14 2.082436787112281e-14
  outer loop
    vertex 2162.866315448552 -737.6556814757073 570.8935549701641
    vertex 2162.8663154485516 -716.6556814757073 598.893554970164
    vertex 2162.8663154485507 -716.6556814757066 582.893554970164
  endloop
endfacet
facet normal -1.0 -4.8920737221050414e-14 2.082436787112281e-14
  outer loop
    vertex 2162.8663154485516 -716.6556814757073 598.893554970164
    vertex 2162.866315448552 -737.6556814757073 570.8935549701641
    vertex 2162.866315448552 -737.6556814757073 598.8935549701639
  endloop
endfacet
facet normal 1.0 -7.519910620127815e-15 -5.821866286550483e-15
  outer loop
    vertex 2159.8663154485507 -751.6556814757074 598.8935549701641
    vertex 2159.8663154485516 -775.6556814757071 567.893554970164
    vertex 2159.8663154485516 -751.6556814757074 567.8935549701641
  endloop
endfacet
facet normal 1.0 -7.519910620127815e-15 -5.821866286550483e-15
  outer loop
    vertex 2159.8663154485516 -775.6556814757071 567.893554970164
    vertex 2159.8663154485507 -751.6556814757074 598.8935549701641
    vertex 2159.8663154485516 -775.6556814757071 598.8935549701641
  endloop
endfacet
facet normal 3.898321665474094e-15 -4.295372946217108e-15 -1.0
  outer loop
    vertex 2159.8663154485516 -775.6556814757071 598.8935549701641
    vertex 2180.8663154485516 -772.6556814757073 598.8935549701642
    vertex 2180.8663154485516 -775.6556814757071 598.8935549701642
  endloop
endfacet
facet normal 3.898321665474094e-15 -4.295372946217108e-15 -1.0
  outer loop
    vertex 2180.8663154485516 -772.6556814757073 598.8935549701642
    vertex 2159.8663154485516 -775.6556814757071 598.8935549701641
    vertex 2162.866315448552 -772.6556814757074 598.8935549701641
  endloop
endfacet
facet normal 3.898321665474094e-15 -4.295372946217108e-15 -1.0
  outer loop
    vertex 2162.866315448552 -772.6556814757074 598.8935549701641
    vertex 2159.8663154485516 -775.6556814757071 598.8935549701641
    vertex 2162.866315448551 -751.6556814757074 598.8935549701639
  endloop
endfacet
facet normal 3.898321665474094e-15 -4.295372946217108e-15 -1.0
  outer loop
    vertex 2162.866315448551 -751.6556814757074 598.8935549701639
    vertex 2159.8663154485516 -775.6556814757071 598.8935549701641
    vertex 2159.8663154485507 -751.6556814757074 598.8935549701641
  endloop
endfacet
facet normal 3.625193304169431e-15 -2.328154907949448e-15 -1.0
  outer loop
    vertex 2219.866315448547 -785.655681475707 567.8935549701652
    vertex 2219.866315448551 -703.6556814757068 567.8935549701641
    vertex 2219.866315448551 -706.6556814757068 567.8935549701641
  endloop
endfacet
facet normal 3.625193304169431e-15 -2.328154907949448e-15 -1.0
  outer loop
    vertex 2204.36631544855 -805.6556814757071 567.8935549701644
    vertex 2207.36631544855 -788.655681475707 567.8935549701644
    vertex 2207.36631544855 -805.6556814757071 567.8935549701644
  endloop
endfacet
facet normal 3.625193304169431e-15 -2.328154907949448e-15 -1.0
  outer loop
    vertex 2193.3663154485494 -805.6556814757071 567.8935549701644
    vertex 2196.3663154485494 -791.6556814757071 567.8935549701644
    vertex 2196.3663154485494 -805.6556814757071 567.8935549701644
  endloop
endfacet
facet normal 3.625193304169431e-15 -2.328154907949448e-15 -1.0
  outer loop
    vertex 2180.8663154485516 -785.6556814757072 567.8935549701642
    vertex 2180.8663154485516 -737.6556814757072 567.8935549701641
    vertex 2183.8663154485516 -788.6556814757072 567.8935549701642
  endloop
endfacet
facet normal 3.625193304169431e-15 -2.328154907949448e-15 -1.0
  outer loop
    vertex 2180.8663154485516 -737.6556814757072 567.8935549701641
    vertex 2180.8663154485516 -785.6556814757072 567.8935549701642
    vertex 2180.8663154485516 -751.6556814757073 567.8935549701641
  endloop
endfacet
facet normal 3.625193304169431e-15 -2.328154907949448e-15 -1.0
  outer loop
    vertex 2180.8663154485516 -751.6556814757073 567.8935549701641
    vertex 2180.8663154485516 -785.6556814757072 567.8935549701642
    vertex 2180.8663154485516 -775.6556814757071 567.8935549701641
  endloop
endfacet
facet normal 3.625193304169431e-15 -2.328154907949448e-15 -1.0
  outer loop
    vertex 2180.8663154485516 -751.6556814757073 567.8935549701641
    vertex 2180.8663154485516 -775.6556814757071 567.8935549701641
    vertex 2159.8663154485516 -775.6556814757071 567.893554970164
  endloop
endfacet
facet normal 3.625193304169431e-15 -2.328154907949448e-15 -1.0
  outer loop
    vertex 2180.8663154485516 -751.6556814757073 567.8935549701641
    vertex 2159.8663154485516 -775.6556814757071 567.893554970164
    vertex 2162.866315448552 -751.6556814757074 567.893554970164
  endloop
endfacet
facet normal 3.625193304169431e-15 -2.328154907949448e-15 -1.0
  outer loop
    vertex 2162.866315448552 -751.6556814757074 567.893554970164
    vertex 2159.8663154485516 -775.6556814757071 567.893554970164
    vertex 2159.8663154485516 -751.6556814757074 567.8935549701641
  endloop
endfacet
facet normal 3.625193304169431e-15 -2.328154907949448e-15 -1.0
  outer loop
    vertex 2162.866315448552 -737.6556814757073 567.893554970164
    vertex 2180.8663154485516 -713.6556814757071 567.8935549701645
    vertex 2180.8663154485516 -737.6556814757072 567.8935549701641
  endloop
endfacet
facet normal 3.625193304169431e-15 -2.328154907949448e-15 -1.0
  outer loop
    vertex 2180.8663154485516 -713.6556814757071 567.8935549701645
    vertex 2162.866315448552 -737.6556814757073 567.893554970164
    vertex 2159.8663154485516 -713.6556814757071 567.8935549701645
  endloop
endfacet
facet normal 3.625193304169431e-15 -2.328154907949448e-15 -1.0
  outer loop
    vertex 2159.8663154485516 -713.6556814757071 567.8935549701645
    vertex 2162.866315448552 -737.6556814757073 567.893554970164
    vertex 2159.8663154485516 -737.6556814757073 567.8935549701641
  endloop
endfacet
facet normal 3.625193304169431e-15 -2.328154907949448e-15 -1.0
  outer loop
    vertex 2222.866315448551 -703.6556814757068 567.8935549701641
    vertex 2237.2663154485517 -700.6556814757064 567.8935549701642
    vertex 2237.2663154485517 -703.6556814757064 567.8935549701642
  endloop
endfacet
facet normal 3.625193304169431e-15 -2.328154907949448e-15 -1.0
  outer loop
    vertex 2237.2663154485517 -700.6556814757064 567.8935549701642
    vertex 2222.866315448551 -703.6556814757068 567.8935549701641
    vertex 2162.2663154485513 -700.6556814757071 567.8935549701639
  endloop
endfacet
facet normal 3.625193304169431e-15 -2.328154907949448e-15 -1.0
  outer loop
    vertex 2162.2663154485513 -700.6556814757071 567.8935549701639
    vertex 2222.866315448551 -703.6556814757068 567.8935549701641
    vertex 2219.866315448551 -703.6556814757068 567.8935549701641
  endloop
endfacet
facet normal 3.625193304169431e-15 -2.328154907949448e-15 -1.0
  outer loop
    vertex 2162.2663154485513 -700.6556814757071 567.8935549701639
    vertex 2219.866315448551 -703.6556814757068 567.8935549701641
    vertex 2180.8663154485516 -703.655681475707 567.8935549701639
  endloop
endfacet
facet normal 3.625193304169431e-15 -2.328154907949448e-15 -1.0
  outer loop
    vertex 2180.8663154485516 -703.655681475707 567.8935549701639
    vertex 2219.866315448551 -703.6556814757068 567.8935549701641
    vertex 2219.866315448547 -785.655681475707 567.8935549701652
  endloop
endfacet
facet normal 3.625193304169431e-15 -2.328154907949448e-15 -1.0
  outer loop
    vertex 2180.8663154485516 -703.655681475707 567.8935549701639
    vertex 2219.866315448547 -785.655681475707 567.8935549701652
    vertex 2216.866315448547 -788.655681475707 567.8935549701644
  endloop
endfacet
facet normal 3.625193304169431e-15 -2.328154907949448e-15 -1.0
  outer loop
    vertex 2180.8663154485516 -703.655681475707 567.8935549701639
    vertex 2216.866315448547 -788.655681475707 567.8935549701644
    vertex 2207.36631544855 -788.655681475707 567.8935549701644
  endloop
endfacet
facet normal 3.625193304169431e-15 -2.328154907949448e-15 -1.0
  outer loop
    vertex 2180.8663154485516 -703.655681475707 567.8935549701639
    vertex 2207.36631544855 -788.655681475707 567.8935549701644
    vertex 2204.36631544855 -791.6556814757071 567.8935549701644
  endloop
endfacet
facet normal 3.625193304169431e-15 -2.328154907949448e-15 -1.0
  outer loop
    vertex 2204.36631544855 -791.6556814757071 567.8935549701644
    vertex 2207.36631544855 -788.655681475707 567.8935549701644
    vertex 2204.36631544855 -805.6556814757071 567.8935549701644
  endloop
endfacet
facet normal 3.625193304169431e-15 -2.328154907949448e-15 -1.0
  outer loop
    vertex 2180.8663154485516 -703.655681475707 567.8935549701639
    vertex 2204.36631544855 -791.6556814757071 567.8935549701644
    vertex 2201.36631544855 -788.6556814757071 567.8935549701644
  endloop
endfacet
facet normal 3.625193304169431e-15 -2.328154907949448e-15 -1.0
  outer loop
    vertex 2180.8663154485516 -703.655681475707 567.8935549701639
    vertex 2201.36631544855 -788.6556814757071 567.8935549701644
    vertex 2199.3663154485494 -788.6556814757071 567.8935549701644
  endloop
endfacet
facet normal 3.625193304169431e-15 -2.328154907949448e-15 -1.0
  outer loop
    vertex 2180.8663154485516 -703.655681475707 567.8935549701639
    vertex 2199.3663154485494 -788.6556814757071 567.8935549701644
    vertex 2196.3663154485494 -791.6556814757071 567.8935549701644
  endloop
endfacet
facet normal 3.625193304169431e-15 -2.328154907949448e-15 -1.0
  outer loop
    vertex 2180.8663154485516 -703.655681475707 567.8935549701639
    vertex 2196.3663154485494 -791.6556814757071 567.8935549701644
    vertex 2193.3663154485494 -788.655681475707 567.8935549701644
  endloop
endfacet
facet normal 3.625193304169431e-15 -2.328154907949448e-15 -1.0
  outer loop
    vertex 2193.3663154485494 -788.655681475707 567.8935549701644
    vertex 2196.3663154485494 -791.6556814757071 567.8935549701644
    vertex 2193.3663154485494 -805.6556814757071 567.8935549701644
  endloop
endfacet
facet normal 3.625193304169431e-15 -2.328154907949448e-15 -1.0
  outer loop
    vertex 2180.8663154485516 -703.655681475707 567.8935549701639
    vertex 2193.3663154485494 -788.655681475707 567.8935549701644
    vertex 2183.8663154485516 -788.6556814757072 567.8935549701642
  endloop
endfacet
facet normal 3.625193304169431e-15 -2.328154907949448e-15 -1.0
  outer loop
    vertex 2180.8663154485516 -703.655681475707 567.8935549701639
    vertex 2183.8663154485516 -788.6556814757072 567.8935549701642
    vertex 2180.8663154485516 -737.6556814757072 567.8935549701641
  endloop
endfacet
facet normal 3.625193304169431e-15 -2.328154907949448e-15 -1.0
  outer loop
    vertex 2180.8663154485516 -703.655681475707 567.8935549701639
    vertex 2180.8663154485516 -737.6556814757072 567.8935549701641
    vertex 2180.8663154485516 -713.6556814757071 567.8935549701645
  endloop
endfacet
facet normal 3.625193304169431e-15 -2.328154907949448e-15 -1.0
  outer loop
    vertex 2162.2663154485513 -700.6556814757071 567.8935549701639
    vertex 2180.8663154485516 -703.655681475707 567.8935549701639
    vertex 2162.2663154485513 -703.6556814757071 567.8935549701639
  endloop
endfacet
facet normal 0.0 0.0 1.0
  outer loop
    vertex 2193.3663154485494 -788.6556814757071 577.8935549701645
    vertex 2196.3663154485494 -791.6556814757071 577.8935549701646
    vertex 2199.3663154485494 -788.6556814757071 577.8935549701645
  endloop
endfacet
facet normal 0.0 0.0 1.0
  outer loop
    vertex 2196.3663154485494 -791.6556814757071 577.8935549701646
    vertex 2193.3663154485494 -788.6556814757071 577.8935549701645
    vertex 2196.3663154485494 -799.6556814757071 577.8935549701645
  endloop
endfacet
facet normal 0.0 0.0 1.0
  outer loop
    vertex 2196.3663154485494 -799.6556814757071 577.8935549701645
    vertex 2193.3663154485494 -788.6556814757071 577.8935549701645
    vertex 2193.3663154485494 -799.6556814757071 577.8935549701645
  endloop
endfacet
facet normal 1.0 -1.4264874308415775e-30 0.0
  outer loop
    vertex 2196.3663154485494 -799.6556814757071 577.8935549701645
    vertex 2196.3663154485494 -791.6556814757071 567.8935549701644
    vertex 2196.3663154485494 -791.6556814757071 577.8935549701646
  endloop
endfacet
facet normal 1.0 -1.4264874308415775e-30 0.0
  outer loop
    vertex 2196.3663154485494 -791.6556814757071 567.8935549701644
    vertex 2196.3663154485494 -799.6556814757071 577.8935549701645
    vertex 2196.3663154485494 -805.6556814757071 567.8935549701644
  endloop
endfacet
facet normal 1.0 -1.4264874308415775e-30 0.0
  outer loop
    vertex 2196.3663154485494 -805.6556814757071 567.8935549701644
    vertex 2196.3663154485494 -799.6556814757071 577.8935549701645
    vertex 2196.3663154485494 -802.6556814757072 580.8935549701645
  endloop
endfacet
facet normal 1.0 -1.4264874308415775e-30 0.0
  outer loop
    vertex 2196.3663154485494 -805.6556814757071 567.8935549701644
    vertex 2196.3663154485494 -802.6556814757072 580.8935549701645
    vertex 2196.3663154485494 -805.6556814757071 580.8935549701645
  endloop
endfacet
facet normal -1.0 1.4264874308415775e-30 0.0
  outer loop
    vertex 2193.3663154485494 -805.6556814757071 567.8935549701644
    vertex 2193.3663154485494 -788.6556814757071 577.8935549701645
    vertex 2193.3663154485494 -788.655681475707 567.8935549701644
  endloop
endfacet
facet normal -1.0 1.4264874308415775e-30 0.0
  outer loop
    vertex 2193.3663154485494 -788.6556814757071 577.8935549701645
    vertex 2193.3663154485494 -805.6556814757071 567.8935549701644
    vertex 2193.3663154485494 -799.6556814757071 577.8935549701645
  endloop
endfacet
facet normal -1.0 1.4264874308415775e-30 0.0
  outer loop
    vertex 2193.3663154485494 -799.6556814757071 577.8935549701645
    vertex 2193.3663154485494 -805.6556814757071 567.8935549701644
    vertex 2193.3663154485494 -802.6556814757072 580.8935549701645
  endloop
endfacet
facet normal -1.0 1.4264874308415775e-30 0.0
  outer loop
    vertex 2193.3663154485494 -802.6556814757072 580.8935549701645
    vertex 2193.3663154485494 -805.6556814757071 567.8935549701644
    vertex 2193.3663154485494 -805.6556814757072 580.8935549701645
  endloop
endfacet
facet normal 1.2976596665779739e-14 -1.4659753555484262e-15 1.0
  outer loop
    vertex 2207.36631544855 -788.6556814757071 577.8935549701647
    vertex 2204.36631544855 -791.655681475707 577.8935549701648
    vertex 2207.36631544855 -799.6556814757071 577.8935549701647
  endloop
endfacet
facet normal 1.2976596665779739e-14 -1.4659753555484262e-15 1.0
  outer loop
    vertex 2204.36631544855 -791.655681475707 577.8935549701648
    vertex 2207.36631544855 -788.6556814757071 577.8935549701647
    vertex 2201.36631544855 -788.655681475707 577.8935549701648
  endloop
endfacet
facet normal 1.2976596665779739e-14 -1.4659753555484262e-15 1.0
  outer loop
    vertex 2204.36631544855 -799.6556814757071 577.8935549701647
    vertex 2207.36631544855 -799.6556814757071 577.8935549701647
    vertex 2204.36631544855 -791.655681475707 577.8935549701648
  endloop
endfacet
facet normal -1.0 1.4264874308415775e-30 0.0
  outer loop
    vertex 2204.36631544855 -805.6556814757071 567.8935549701644
    vertex 2204.36631544855 -791.655681475707 577.8935549701648
    vertex 2204.36631544855 -791.6556814757071 567.8935549701644
  endloop
endfacet
facet normal -1.0 1.4264874308415775e-30 0.0
  outer loop
    vertex 2204.36631544855 -791.655681475707 577.8935549701648
    vertex 2204.36631544855 -805.6556814757071 567.8935549701644
    vertex 2204.36631544855 -799.6556814757071 577.8935549701647
  endloop
endfacet
facet normal -1.0 1.4264874308415775e-30 0.0
  outer loop
    vertex 2204.36631544855 -799.6556814757071 577.8935549701647
    vertex 2204.36631544855 -805.6556814757071 567.8935549701644
    vertex 2204.36631544855 -802.6556814757071 580.8935549701648
  endloop
endfacet
facet normal -1.0 1.4264874308415775e-30 0.0
  outer loop
    vertex 2204.36631544855 -802.6556814757071 580.8935549701648
    vertex 2204.36631544855 -805.6556814757071 567.8935549701644
    vertex 2204.36631544855 -805.6556814757071 580.8935549701648
  endloop
endfacet
facet normal 1.0 -1.4264874308415775e-30 0.0
  outer loop
    vertex 2207.36631544855 -788.6556814757071 577.8935549701647
    vertex 2207.36631544855 -805.6556814757071 567.8935549701644
    vertex 2207.36631544855 -788.655681475707 567.8935549701644
  endloop
endfacet
facet normal 1.0 -1.4264874308415775e-30 0.0
  outer loop
    vertex 2207.36631544855 -805.6556814757071 567.8935549701644
    vertex 2207.36631544855 -788.6556814757071 577.8935549701647
    vertex 2207.36631544855 -799.6556814757071 577.8935549701647
  endloop
endfacet
facet normal 1.0 -1.4264874308415775e-30 0.0
  outer loop
    vertex 2207.36631544855 -805.6556814757071 567.8935549701644
    vertex 2207.36631544855 -799.6556814757071 577.8935549701647
    vertex 2207.36631544855 -802.6556814757071 580.8935549701648
  endloop
endfacet
facet normal 1.0 -1.4264874308415775e-30 0.0
  outer loop
    vertex 2207.36631544855 -805.6556814757071 567.8935549701644
    vertex 2207.36631544855 -802.6556814757071 580.8935549701648
    vertex 2207.36631544855 -805.6556814757071 580.8935549701648
  endloop
endfacet
facet normal 1.5777218104420236e-30 0.7071067811865476 0.7071067811865476
  outer loop
    vertex 2204.36631544855 -799.6556814757071 577.8935549701647
    vertex 2207.36631544855 -802.6556814757071 580.8935549701648
    vertex 2207.36631544855 -799.6556814757071 577.8935549701647
  endloop
endfacet
facet normal 1.5777218104420236e-30 0.7071067811865476 0.7071067811865476
  outer loop
    vertex 2207.36631544855 -802.6556814757071 580.8935549701648
    vertex 2204.36631544855 -799.6556814757071 577.8935549701647
    vertex 2204.36631544855 -802.6556814757071 580.8935549701648
  endloop
endfacet
facet normal 1.5777218104420236e-30 0.7071067811865476 0.7071067811865476
  outer loop
    vertex 2193.3663154485494 -799.6556814757071 577.8935549701645
    vertex 2196.3663154485494 -802.6556814757072 580.8935549701645
    vertex 2196.3663154485494 -799.6556814757071 577.8935549701645
  endloop
endfacet
facet normal 1.5777218104420236e-30 0.7071067811865476 0.7071067811865476
  outer loop
    vertex 2196.3663154485494 -802.6556814757072 580.8935549701645
    vertex 2193.3663154485494 -799.6556814757071 577.8935549701645
    vertex 2193.3663154485494 -802.6556814757072 580.8935549701645
  endloop
endfacet
facet normal -1.9237403487221954e-30 -1.0 -6.941455957040869e-15
  outer loop
    vertex 2196.3663154485494 -805.6556814757071 580.8935549701645
    vertex 2193.3663154485494 -805.6556814757071 567.8935549701644
    vertex 2196.3663154485494 -805.6556814757071 567.8935549701644
  endloop
endfacet
facet normal -1.9237403487221954e-30 -1.0 -6.941455957040869e-15
  outer loop
    vertex 2193.3663154485494 -805.6556814757071 567.8935549701644
    vertex 2196.3663154485494 -805.6556814757071 580.8935549701645
    vertex 2193.3663154485494 -805.6556814757072 580.8935549701645
  endloop
endfacet
facet normal -7.888609052210118e-31 -6.941455957040869e-15 1.0
  outer loop
    vertex 2193.3663154485494 -802.6556814757072 580.8935549701645
    vertex 2196.3663154485494 -805.6556814757071 580.8935549701645
    vertex 2196.3663154485494 -802.6556814757072 580.8935549701645
  endloop
endfacet
facet normal -7.888609052210118e-31 -6.941455957040869e-15 1.0
  outer loop
    vertex 2196.3663154485494 -805.6556814757071 580.8935549701645
    vertex 2193.3663154485494 -802.6556814757072 580.8935549701645
    vertex 2193.3663154485494 -805.6556814757072 580.8935549701645
  endloop
endfacet
facet normal -1.9237403487228288e-30 -1.0 -6.941455957040725e-15
  outer loop
    vertex 2207.36631544855 -805.6556814757071 580.8935549701648
    vertex 2204.36631544855 -805.6556814757071 567.8935549701644
    vertex 2207.36631544855 -805.6556814757071 567.8935549701644
  endloop
endfacet
facet normal -1.9237403487228288e-30 -1.0 -6.941455957040725e-15
  outer loop
    vertex 2204.36631544855 -805.6556814757071 567.8935549701644
    vertex 2207.36631544855 -805.6556814757071 580.8935549701648
    vertex 2204.36631544855 -805.6556814757071 580.8935549701648
  endloop
endfacet
facet normal -7.888609052210118e-31 -6.941455957040725e-15 1.0
  outer loop
    vertex 2204.36631544855 -802.6556814757071 580.8935549701648
    vertex 2207.36631544855 -805.6556814757071 580.8935549701648
    vertex 2207.36631544855 -802.6556814757071 580.8935549701648
  endloop
endfacet
facet normal -7.888609052210118e-31 -6.941455957040725e-15 1.0
  outer loop
    vertex 2207.36631544855 -805.6556814757071 580.8935549701648
    vertex 2204.36631544855 -802.6556814757071 580.8935549701648
    vertex 2204.36631544855 -805.6556814757071 580.8935549701648
  endloop
endfacet
facet normal 0.7071067811865476 -0.7071067811865476 -4.599059077438499e-28
  outer loop
    vertex 2199.3663154485494 -788.6556814757071 577.8935549701645
    vertex 2196.3663154485494 -791.6556814757071 567.8935549701644
    vertex 2199.3663154485494 -788.6556814757071 567.8935549701644
  endloop
endfacet
facet normal 0.7071067811865476 -0.7071067811865476 -4.599059077438499e-28
  outer loop
    vertex 2196.3663154485494 -791.6556814757071 567.8935549701644
    vertex 2199.3663154485494 -788.6556814757071 577.8935549701645
    vertex 2196.3663154485494 -791.6556814757071 577.8935549701646
  endloop
endfacet
facet normal -0.707106781186537 -0.7071067811865581 -7.913756646060908e-18
  outer loop
    vertex 2204.36631544855 -791.655681475707 577.8935549701648
    vertex 2201.36631544855 -788.6556814757071 567.8935549701644
    vertex 2204.36631544855 -791.6556814757071 567.8935549701644
  endloop
endfacet
facet normal -0.707106781186537 -0.7071067811865581 -7.913756646060908e-18
  outer loop
    vertex 2201.36631544855 -788.6556814757071 567.8935549701644
    vertex 2204.36631544855 -791.655681475707 577.8935549701648
    vertex 2201.36631544855 -788.655681475707 577.8935549701648
  endloop
endfacet
endsolid Main V1
