solid Main
facet normal 2.488728327603867e-14 0.7071067811865422 0.7071067811865529
  outer loop
    vertex -9995.35000000007 14487.372265232787 9395.472312875012
    vertex -9992.35000000007 14484.372265232789 9398.472312875012
    vertex -9992.35000000007 14487.372265232787 9395.472312875012
  endloop
endfacet
facet normal 2.488728327603867e-14 0.7071067811865422 0.7071067811865529
  outer loop
    vertex -9992.35000000007 14484.372265232789 9398.472312875012
    vertex -9995.35000000007 14487.372265232787 9395.472312875012
    vertex -9995.35000000007 14484.372265232789 9398.472312875012
  endloop
endfacet
facet normal 2.4455507849900616e-14 -0.7071067811865529 0.7071067811865422
  outer loop
    vertex -9995.35000000007 14467.622265232789 9398.472312875012
    vertex -9992.35000000007 14464.622265232789 9395.472312875012
    vertex -9992.35000000007 14467.622265232789 9398.472312875012
  endloop
endfacet
facet normal 2.4455507849900616e-14 -0.7071067811865529 0.7071067811865422
  outer loop
    vertex -9992.35000000007 14464.622265232789 9395.472312875012
    vertex -9995.35000000007 14467.622265232789 9398.472312875012
    vertex -9995.35000000007 14464.622265232789 9395.472312875012
  endloop
endfacet
facet normal 2.488728327603867e-14 0.7071067811865422 0.7071067811865529
  outer loop
    vertex -9976.600000000068 14487.372265232787 9414.47231287501
    vertex -9970.350000000068 14484.372265232789 9417.47231287501
    vertex -9970.350000000068 14487.372265232787 9414.47231287501
  endloop
endfacet
facet normal 2.488728327603867e-14 0.7071067811865422 0.7071067811865529
  outer loop
    vertex -9970.350000000068 14484.372265232789 9417.47231287501
    vertex -9976.600000000068 14487.372265232787 9414.47231287501
    vertex -9976.600000000068 14484.372265232789 9417.47231287501
  endloop
endfacet
facet normal -3.05311331771929e-16 -1.0 -7.604007627410428e-15
  outer loop
    vertex -9995.35000000007 14512.872265232787 9395.472312875012
    vertex -9992.35000000007 14512.872265232787 9378.47231287501
    vertex -9992.35000000007 14512.872265232787 9395.47231287501
  endloop
endfacet
facet normal -3.05311331771929e-16 -1.0 -7.604007627410428e-15
  outer loop
    vertex -9992.35000000007 14512.872265232787 9378.47231287501
    vertex -9995.35000000007 14512.872265232787 9395.472312875012
    vertex -9995.35000000007 14512.872265232787 9378.47231287501
  endloop
endfacet
facet normal 3.489062220782307e-14 -7.60400762741044e-15 1.0
  outer loop
    vertex -9970.350000000068 14532.622265232787 9417.47231287501
    vertex -9976.600000000068 14515.87226523279 9417.47231287501
    vertex -9970.350000000068 14515.87226523279 9417.47231287501
  endloop
endfacet
facet normal 3.489062220782307e-14 -7.60400762741044e-15 1.0
  outer loop
    vertex -9976.600000000068 14515.87226523279 9417.47231287501
    vertex -9970.350000000068 14532.622265232787 9417.47231287501
    vertex -9976.600000000068 14532.622265232787 9417.47231287501
  endloop
endfacet
facet normal 1.0 -3.053113317716637e-16 -3.489062220782307e-14
  outer loop
    vertex -9992.35000000007 14535.62226523279 9395.472312875012
    vertex -9992.35000000007 14532.622265232787 9378.47231287501
    vertex -9992.35000000007 14535.62226523279 9378.47231287501
  endloop
endfacet
facet normal 1.0 -3.053113317716637e-16 -3.489062220782307e-14
  outer loop
    vertex -9992.35000000007 14532.622265232787 9378.47231287501
    vertex -9992.35000000007 14535.62226523279 9395.472312875012
    vertex -9992.35000000007 14532.622265232787 9398.47231287501
  endloop
endfacet
facet normal 2.488728327603867e-14 0.7071067811865422 0.7071067811865529
  outer loop
    vertex -9995.35000000007 14535.62226523279 9395.472312875012
    vertex -9992.35000000007 14532.622265232787 9398.47231287501
    vertex -9992.35000000007 14535.62226523279 9395.472312875012
  endloop
endfacet
facet normal 2.488728327603867e-14 0.7071067811865422 0.7071067811865529
  outer loop
    vertex -9992.35000000007 14532.622265232787 9398.47231287501
    vertex -9995.35000000007 14535.62226523279 9395.472312875012
    vertex -9995.35000000007 14532.622265232787 9398.47231287501
  endloop
endfacet
facet normal 2.4455507849900616e-14 -0.7071067811865529 0.7071067811865422
  outer loop
    vertex -9976.600000000068 14515.87226523279 9417.47231287501
    vertex -9970.350000000068 14512.872265232787 9414.47231287501
    vertex -9970.350000000068 14515.87226523279 9417.47231287501
  endloop
endfacet
facet normal 2.4455507849900616e-14 -0.7071067811865529 0.7071067811865422
  outer loop
    vertex -9970.350000000068 14512.872265232787 9414.47231287501
    vertex -9976.600000000068 14515.87226523279 9417.47231287501
    vertex -9976.600000000068 14512.872265232787 9414.47231287501
  endloop
endfacet
facet normal 2.4455507849900616e-14 -0.7071067811865529 0.7071067811865422
  outer loop
    vertex -9995.35000000007 14515.87226523279 9398.47231287501
    vertex -9992.35000000007 14512.872265232787 9395.47231287501
    vertex -9992.35000000007 14515.87226523279 9398.47231287501
  endloop
endfacet
facet normal 2.4455507849900616e-14 -0.7071067811865529 0.7071067811865422
  outer loop
    vertex -9992.35000000007 14512.872265232787 9395.47231287501
    vertex -9995.35000000007 14515.87226523279 9398.47231287501
    vertex -9995.35000000007 14512.872265232787 9395.472312875012
  endloop
endfacet
facet normal 3.489062220782307e-14 -7.60400762741044e-15 1.0
  outer loop
    vertex -9970.350000000068 14484.372265232789 9417.47231287501
    vertex -9976.600000000068 14467.622265232789 9417.47231287501
    vertex -9970.350000000068 14467.622265232789 9417.47231287501
  endloop
endfacet
facet normal 3.489062220782307e-14 -7.60400762741044e-15 1.0
  outer loop
    vertex -9976.600000000068 14467.622265232789 9417.47231287501
    vertex -9970.350000000068 14484.372265232789 9417.47231287501
    vertex -9976.600000000068 14484.372265232789 9417.47231287501
  endloop
endfacet
facet normal 3.489062220782307e-14 -7.60400762741044e-15 1.0
  outer loop
    vertex -9976.60000000007 14464.622265232789 9378.47231287501
    vertex -9992.35000000007 14467.622265232789 9378.47231287501
    vertex -9992.35000000007 14464.622265232789 9378.47231287501
  endloop
endfacet
facet normal 3.489062220782307e-14 -7.60400762741044e-15 1.0
  outer loop
    vertex -9992.35000000007 14467.622265232789 9378.47231287501
    vertex -9976.60000000007 14464.622265232789 9378.47231287501
    vertex -9976.60000000007 14467.622265232789 9378.47231287501
  endloop
endfacet
facet normal 1.0 -3.053113317716637e-16 -3.489062220782307e-14
  outer loop
    vertex -9992.35000000007 14529.622265232789 9398.47231287501
    vertex -9992.35000000007 14512.872265232787 9378.47231287501
    vertex -9992.35000000007 14529.622265232789 9378.47231287501
  endloop
endfacet
facet normal 1.0 -3.053113317716637e-16 -3.489062220782307e-14
  outer loop
    vertex -9992.35000000007 14512.872265232787 9378.47231287501
    vertex -9992.35000000007 14529.622265232789 9398.47231287501
    vertex -9992.35000000007 14512.872265232787 9395.47231287501
  endloop
endfacet
facet normal 1.0 -3.053113317716637e-16 -3.489062220782307e-14
  outer loop
    vertex -9992.35000000007 14512.872265232787 9395.47231287501
    vertex -9992.35000000007 14529.622265232789 9398.47231287501
    vertex -9992.35000000007 14515.87226523279 9398.47231287501
  endloop
endfacet
facet normal 1.0 1.0492799499499633e-15 -1.934444595446348e-14
  outer loop
    vertex -9970.350000000068 14487.372265232787 9414.47231287501
    vertex -9970.350000000068 14464.622265232789 9397.47231287501
    vertex -9970.350000000068 14487.372265232787 9397.47231287501
  endloop
endfacet
facet normal 1.0 1.0492799499499633e-15 -1.934444595446348e-14
  outer loop
    vertex -9970.350000000068 14464.622265232789 9397.47231287501
    vertex -9970.350000000068 14487.372265232787 9414.47231287501
    vertex -9970.350000000068 14464.622265232789 9414.47231287501
  endloop
endfacet
facet normal 1.0 1.0492799499499633e-15 -1.934444595446348e-14
  outer loop
    vertex -9970.350000000068 14464.622265232789 9414.47231287501
    vertex -9970.350000000068 14487.372265232787 9414.47231287501
    vertex -9970.350000000068 14484.372265232789 9417.47231287501
  endloop
endfacet
facet normal 1.0 1.0492799499499633e-15 -1.934444595446348e-14
  outer loop
    vertex -9970.350000000068 14464.622265232789 9414.47231287501
    vertex -9970.350000000068 14484.372265232789 9417.47231287501
    vertex -9970.350000000068 14467.622265232789 9417.47231287501
  endloop
endfacet
facet normal 0.7071067811865478 0.7071067811865474 -1.931653286278383e-14
  outer loop
    vertex -9990.35000000007 14490.37226523279 9375.472312875012
    vertex -9987.350000000071 14487.372265232787 9378.472312875012
    vertex -9987.350000000071 14487.372265232787 9375.472312875012
  endloop
endfacet
facet normal 0.7071067811865478 0.7071067811865474 -1.931653286278383e-14
  outer loop
    vertex -9987.350000000071 14487.372265232787 9378.472312875012
    vertex -9990.35000000007 14490.37226523279 9375.472312875012
    vertex -9990.35000000007 14490.37226523279 9378.47231287501
  endloop
endfacet
facet normal -3.489062220782307e-14 6.548561700116599e-15 -1.0
  outer loop
    vertex -9973.35000000007 14487.372265232787 9397.47231287501
    vertex -9970.350000000068 14464.622265232789 9397.47231287501
    vertex -9973.35000000007 14464.622265232789 9397.47231287501
  endloop
endfacet
facet normal -3.489062220782307e-14 6.548561700116599e-15 -1.0
  outer loop
    vertex -9970.350000000068 14464.622265232789 9397.47231287501
    vertex -9973.35000000007 14487.372265232787 9397.47231287501
    vertex -9970.350000000068 14487.372265232787 9397.47231287501
  endloop
endfacet
facet normal 1.8271201656032035e-14 1.0 7.1449372511456195e-16
  outer loop
    vertex -9976.60000000007 14487.372265232787 9378.47231287501
    vertex -9973.35000000007 14487.372265232787 9397.47231287501
    vertex -9973.35000000007 14487.372265232787 9378.47231287501
  endloop
endfacet
facet normal 1.8271201656032035e-14 1.0 7.1449372511456195e-16
  outer loop
    vertex -9973.35000000007 14487.372265232787 9397.47231287501
    vertex -9970.350000000068 14487.372265232787 9414.47231287501
    vertex -9970.350000000068 14487.372265232787 9397.47231287501
  endloop
endfacet
facet normal 1.8271201656032035e-14 1.0 7.1449372511456195e-16
  outer loop
    vertex -9970.350000000068 14487.372265232787 9414.47231287501
    vertex -9973.35000000007 14487.372265232787 9397.47231287501
    vertex -9976.600000000068 14487.372265232787 9414.47231287501
  endloop
endfacet
facet normal 1.8271201656032035e-14 1.0 7.1449372511456195e-16
  outer loop
    vertex -9976.600000000068 14487.372265232787 9414.47231287501
    vertex -9973.35000000007 14487.372265232787 9397.47231287501
    vertex -9976.60000000007 14487.372265232787 9378.47231287501
  endloop
endfacet
facet normal 1.0 6.236108521888854e-16 -3.489062220782306e-14
  outer loop
    vertex -9973.35000000007 14487.372265232787 9378.47231287501
    vertex -9973.35000000007 14464.622265232789 9375.472312875012
    vertex -9973.35000000007 14487.372265232787 9375.472312875012
  endloop
endfacet
facet normal 1.0 6.236108521888854e-16 -3.489062220782306e-14
  outer loop
    vertex -9973.35000000007 14464.622265232789 9375.472312875012
    vertex -9973.35000000007 14487.372265232787 9378.47231287501
    vertex -9973.35000000007 14464.622265232789 9397.47231287501
  endloop
endfacet
facet normal 1.0 6.236108521888854e-16 -3.489062220782306e-14
  outer loop
    vertex -9973.35000000007 14464.622265232789 9397.47231287501
    vertex -9973.35000000007 14487.372265232787 9378.47231287501
    vertex -9973.35000000007 14487.372265232787 9397.47231287501
  endloop
endfacet
facet normal 0.7071067811865474 -0.7071067811865478 -3.004824092050579e-14
  outer loop
    vertex -9990.35000000007 14509.872265232789 9378.47231287501
    vertex -9987.350000000071 14512.872265232787 9375.472312875012
    vertex -9987.350000000071 14512.872265232787 9378.47231287501
  endloop
endfacet
facet normal 0.7071067811865474 -0.7071067811865478 -3.004824092050579e-14
  outer loop
    vertex -9987.350000000071 14512.872265232787 9375.472312875012
    vertex -9990.35000000007 14509.872265232789 9378.47231287501
    vertex -9990.35000000007 14509.872265232789 9375.472312875012
  endloop
endfacet
facet normal 2.488728327603867e-14 0.7071067811865422 0.7071067811865529
  outer loop
    vertex -9976.600000000068 14535.62226523279 9414.47231287501
    vertex -9970.350000000068 14532.622265232787 9417.47231287501
    vertex -9970.350000000068 14535.62226523279 9414.47231287501
  endloop
endfacet
facet normal 2.488728327603867e-14 0.7071067811865422 0.7071067811865529
  outer loop
    vertex -9970.350000000068 14532.622265232787 9417.47231287501
    vertex -9976.600000000068 14535.62226523279 9414.47231287501
    vertex -9976.600000000068 14532.622265232787 9417.47231287501
  endloop
endfacet
facet normal -1.0 8.95746773858096e-16 3.143299399000125e-14
  outer loop
    vertex -9976.600000000068 14512.872265232787 9414.47231287501
    vertex -9976.60000000007 14529.622265232789 9378.47231287501
    vertex -9976.60000000007 14512.872265232787 9378.47231287501
  endloop
endfacet
facet normal -1.0 8.95746773858096e-16 3.143299399000125e-14
  outer loop
    vertex -9976.60000000007 14529.622265232789 9378.47231287501
    vertex -9976.600000000068 14512.872265232787 9414.47231287501
    vertex -9976.60000000007 14529.622265232789 9398.47231287501
  endloop
endfacet
facet normal -1.0 8.95746773858096e-16 3.143299399000125e-14
  outer loop
    vertex -9976.60000000007 14529.622265232789 9398.47231287501
    vertex -9976.600000000068 14512.872265232787 9414.47231287501
    vertex -9976.600000000068 14529.622265232789 9401.47231287501
  endloop
endfacet
facet normal -1.0 8.95746773858096e-16 3.143299399000125e-14
  outer loop
    vertex -9976.600000000068 14529.622265232789 9401.47231287501
    vertex -9976.600000000068 14512.872265232787 9414.47231287501
    vertex -9976.600000000068 14532.622265232787 9401.47231287501
  endloop
endfacet
facet normal -1.0 8.95746773858096e-16 3.143299399000125e-14
  outer loop
    vertex -9976.60000000007 14532.622265232787 9398.47231287501
    vertex -9976.60000000007 14535.62226523279 9378.47231287501
    vertex -9976.60000000007 14532.622265232787 9378.47231287501
  endloop
endfacet
facet normal -1.0 8.95746773858096e-16 3.143299399000125e-14
  outer loop
    vertex -9976.60000000007 14535.62226523279 9378.47231287501
    vertex -9976.60000000007 14532.622265232787 9398.47231287501
    vertex -9976.600000000068 14535.62226523279 9414.47231287501
  endloop
endfacet
facet normal -1.0 8.95746773858096e-16 3.143299399000125e-14
  outer loop
    vertex -9976.600000000068 14535.62226523279 9414.47231287501
    vertex -9976.60000000007 14532.622265232787 9398.47231287501
    vertex -9976.600000000068 14532.622265232787 9401.47231287501
  endloop
endfacet
facet normal -1.0 8.95746773858096e-16 3.143299399000125e-14
  outer loop
    vertex -9976.600000000068 14535.62226523279 9414.47231287501
    vertex -9976.600000000068 14532.622265232787 9401.47231287501
    vertex -9976.600000000068 14512.872265232787 9414.47231287501
  endloop
endfacet
facet normal -1.0 8.95746773858096e-16 3.143299399000125e-14
  outer loop
    vertex -9976.600000000068 14535.62226523279 9414.47231287501
    vertex -9976.600000000068 14512.872265232787 9414.47231287501
    vertex -9976.600000000068 14515.87226523279 9417.47231287501
  endloop
endfacet
facet normal -1.0 8.95746773858096e-16 3.143299399000125e-14
  outer loop
    vertex -9976.600000000068 14535.62226523279 9414.47231287501
    vertex -9976.600000000068 14515.87226523279 9417.47231287501
    vertex -9976.600000000068 14532.622265232787 9417.47231287501
  endloop
endfacet
facet normal 1.0 1.0492799499499633e-15 -1.934444595446348e-14
  outer loop
    vertex -9970.350000000068 14535.62226523279 9414.47231287501
    vertex -9970.35000000007 14512.872265232787 9397.47231287501
    vertex -9970.35000000007 14535.62226523279 9397.47231287501
  endloop
endfacet
facet normal 1.0 1.0492799499499633e-15 -1.934444595446348e-14
  outer loop
    vertex -9970.35000000007 14512.872265232787 9397.47231287501
    vertex -9970.350000000068 14535.62226523279 9414.47231287501
    vertex -9970.350000000068 14512.872265232787 9414.47231287501
  endloop
endfacet
facet normal 1.0 1.0492799499499633e-15 -1.934444595446348e-14
  outer loop
    vertex -9970.350000000068 14512.872265232787 9414.47231287501
    vertex -9970.350000000068 14535.62226523279 9414.47231287501
    vertex -9970.350000000068 14532.622265232787 9417.47231287501
  endloop
endfacet
facet normal 1.0 1.0492799499499633e-15 -1.934444595446348e-14
  outer loop
    vertex -9970.350000000068 14512.872265232787 9414.47231287501
    vertex -9970.350000000068 14532.622265232787 9417.47231287501
    vertex -9970.350000000068 14515.87226523279 9417.47231287501
  endloop
endfacet
facet normal -0.7071067811865335 -5.160957644467228e-15 0.7071067811865616
  outer loop
    vertex -9976.600000000068 14467.622265232789 9401.472312875012
    vertex -9979.60000000007 14470.622265232787 9398.47231287501
    vertex -9979.60000000007 14467.622265232789 9398.47231287501
  endloop
endfacet
facet normal -0.7071067811865335 -5.160957644467228e-15 0.7071067811865616
  outer loop
    vertex -9979.60000000007 14470.622265232787 9398.47231287501
    vertex -9976.600000000068 14467.622265232789 9401.472312875012
    vertex -9976.600000000068 14470.622265232787 9401.472312875012
  endloop
endfacet
facet normal -1.0 3.053113317716637e-16 3.489062220782307e-14
  outer loop
    vertex -9976.600000000068 14467.622265232789 9401.472312875012
    vertex -9976.600000000068 14470.622265232787 9398.47231287501
    vertex -9976.600000000068 14467.622265232789 9398.47231287501
  endloop
endfacet
facet normal -1.0 3.053113317716637e-16 3.489062220782307e-14
  outer loop
    vertex -9976.600000000068 14470.622265232787 9398.47231287501
    vertex -9976.600000000068 14467.622265232789 9401.472312875012
    vertex -9976.600000000068 14470.622265232787 9401.472312875012
  endloop
endfacet
facet normal -1.0 3.053113317716637e-16 3.489062220782307e-14
  outer loop
    vertex -9976.600000000068 14529.622265232789 9401.47231287501
    vertex -9976.60000000007 14532.622265232787 9398.47231287501
    vertex -9976.60000000007 14529.622265232789 9398.47231287501
  endloop
endfacet
facet normal -1.0 3.053113317716637e-16 3.489062220782307e-14
  outer loop
    vertex -9976.60000000007 14532.622265232787 9398.47231287501
    vertex -9976.600000000068 14529.622265232789 9401.47231287501
    vertex -9976.600000000068 14532.622265232787 9401.47231287501
  endloop
endfacet
facet normal -0.7071067811865176 -5.160957644467354e-15 0.7071067811865774
  outer loop
    vertex -9976.600000000068 14532.622265232787 9401.47231287501
    vertex -9979.60000000007 14529.622265232789 9398.47231287501
    vertex -9976.600000000068 14529.622265232789 9401.47231287501
  endloop
endfacet
facet normal -0.7071067811865176 -5.160957644467354e-15 0.7071067811865774
  outer loop
    vertex -9979.60000000007 14529.622265232789 9398.47231287501
    vertex -9976.600000000068 14532.622265232787 9401.47231287501
    vertex -9979.60000000007 14532.622265232787 9398.47231287501
  endloop
endfacet
facet normal -1.0 -2.851241103147502e-16 3.143299399000125e-14
  outer loop
    vertex -9976.600000000068 14464.622265232789 9414.47231287501
    vertex -9976.60000000007 14467.622265232789 9378.47231287501
    vertex -9976.60000000007 14464.622265232789 9378.47231287501
  endloop
endfacet
facet normal -1.0 -2.851241103147502e-16 3.143299399000125e-14
  outer loop
    vertex -9976.60000000007 14467.622265232789 9378.47231287501
    vertex -9976.600000000068 14464.622265232789 9414.47231287501
    vertex -9976.600000000068 14467.622265232789 9398.47231287501
  endloop
endfacet
facet normal -1.0 -2.851241103147502e-16 3.143299399000125e-14
  outer loop
    vertex -9976.600000000068 14467.622265232789 9398.47231287501
    vertex -9976.600000000068 14464.622265232789 9414.47231287501
    vertex -9976.600000000068 14467.622265232789 9401.472312875012
  endloop
endfacet
facet normal -1.0 -2.851241103147502e-16 3.143299399000125e-14
  outer loop
    vertex -9976.600000000068 14467.622265232789 9401.472312875012
    vertex -9976.600000000068 14464.622265232789 9414.47231287501
    vertex -9976.600000000068 14470.622265232787 9401.472312875012
  endloop
endfacet
facet normal -1.0 -2.851241103147502e-16 3.143299399000125e-14
  outer loop
    vertex -9976.600000000068 14470.622265232787 9398.47231287501
    vertex -9976.60000000007 14487.372265232787 9378.47231287501
    vertex -9976.60000000007 14470.622265232787 9378.47231287501
  endloop
endfacet
facet normal -1.0 -2.851241103147502e-16 3.143299399000125e-14
  outer loop
    vertex -9976.60000000007 14487.372265232787 9378.47231287501
    vertex -9976.600000000068 14470.622265232787 9398.47231287501
    vertex -9976.600000000068 14487.372265232787 9414.47231287501
  endloop
endfacet
facet normal -1.0 -2.851241103147502e-16 3.143299399000125e-14
  outer loop
    vertex -9976.600000000068 14487.372265232787 9414.47231287501
    vertex -9976.600000000068 14470.622265232787 9398.47231287501
    vertex -9976.600000000068 14470.622265232787 9401.472312875012
  endloop
endfacet
facet normal -1.0 -2.851241103147502e-16 3.143299399000125e-14
  outer loop
    vertex -9976.600000000068 14487.372265232787 9414.47231287501
    vertex -9976.600000000068 14470.622265232787 9401.472312875012
    vertex -9976.600000000068 14464.622265232789 9414.47231287501
  endloop
endfacet
facet normal -1.0 -2.851241103147502e-16 3.143299399000125e-14
  outer loop
    vertex -9976.600000000068 14487.372265232787 9414.47231287501
    vertex -9976.600000000068 14464.622265232789 9414.47231287501
    vertex -9976.600000000068 14467.622265232789 9417.47231287501
  endloop
endfacet
facet normal -1.0 -2.851241103147502e-16 3.143299399000125e-14
  outer loop
    vertex -9976.600000000068 14487.372265232787 9414.47231287501
    vertex -9976.600000000068 14467.622265232789 9417.47231287501
    vertex -9976.600000000068 14484.372265232789 9417.47231287501
  endloop
endfacet
facet normal 2.4455507849900616e-14 -0.7071067811865529 0.7071067811865422
  outer loop
    vertex -9976.600000000068 14467.622265232789 9417.47231287501
    vertex -9970.350000000068 14464.622265232789 9414.47231287501
    vertex -9970.350000000068 14467.622265232789 9417.47231287501
  endloop
endfacet
facet normal 2.4455507849900616e-14 -0.7071067811865529 0.7071067811865422
  outer loop
    vertex -9970.350000000068 14464.622265232789 9414.47231287501
    vertex -9976.600000000068 14467.622265232789 9417.47231287501
    vertex -9976.600000000068 14464.622265232789 9414.47231287501
  endloop
endfacet
facet normal 1.0 6.236108521888854e-16 -3.489062220782306e-14
  outer loop
    vertex -9973.35000000007 14535.62226523279 9397.47231287501
    vertex -9973.350000000071 14512.872265232787 9375.47231287501
    vertex -9973.350000000071 14535.62226523279 9375.47231287501
  endloop
endfacet
facet normal 1.0 6.236108521888854e-16 -3.489062220782306e-14
  outer loop
    vertex -9973.350000000071 14512.872265232787 9375.47231287501
    vertex -9973.35000000007 14535.62226523279 9397.47231287501
    vertex -9973.350000000071 14512.872265232787 9378.47231287501
  endloop
endfacet
facet normal 1.0 6.236108521888854e-16 -3.489062220782306e-14
  outer loop
    vertex -9973.350000000071 14512.872265232787 9378.47231287501
    vertex -9973.35000000007 14535.62226523279 9397.47231287501
    vertex -9973.35000000007 14512.872265232787 9397.47231287501
  endloop
endfacet
facet normal -3.489062220782307e-14 6.548561700116599e-15 -1.0
  outer loop
    vertex -9973.35000000007 14535.62226523279 9397.47231287501
    vertex -9970.35000000007 14512.872265232787 9397.47231287501
    vertex -9973.35000000007 14512.872265232787 9397.47231287501
  endloop
endfacet
facet normal -3.489062220782307e-14 6.548561700116599e-15 -1.0
  outer loop
    vertex -9970.35000000007 14512.872265232787 9397.47231287501
    vertex -9973.35000000007 14535.62226523279 9397.47231287501
    vertex -9970.35000000007 14535.62226523279 9397.47231287501
  endloop
endfacet
facet normal 1.0 -2.799352039954301e-15 -4.810979727313057e-15
  outer loop
    vertex -9990.35000000007 14509.872265232789 9378.47231287501
    vertex -9990.35000000007 14490.37226523279 9375.472312875012
    vertex -9990.35000000007 14509.872265232789 9375.472312875012
  endloop
endfacet
facet normal 1.0 -2.799352039954301e-15 -4.810979727313057e-15
  outer loop
    vertex -9990.35000000007 14490.37226523279 9375.472312875012
    vertex -9990.35000000007 14509.872265232789 9378.47231287501
    vertex -9990.35000000007 14490.37226523279 9378.47231287501
  endloop
endfacet
facet normal -1.0 -2.7036042446007524e-15 3.586699585127774e-14
  outer loop
    vertex -9995.35000000007 14464.622265232789 9395.472312875012
    vertex -9995.35000000007 14487.372265232787 9378.47231287501
    vertex -9995.35000000007 14464.622265232789 9375.472312875012
  endloop
endfacet
facet normal -1.0 -2.7036042446007524e-15 3.586699585127774e-14
  outer loop
    vertex -9995.35000000007 14487.372265232787 9378.47231287501
    vertex -9995.35000000007 14464.622265232789 9395.472312875012
    vertex -9995.35000000007 14487.372265232787 9395.472312875012
  endloop
endfacet
facet normal -1.0 -2.7036042446007524e-15 3.586699585127774e-14
  outer loop
    vertex -9995.35000000007 14487.372265232787 9395.472312875012
    vertex -9995.35000000007 14464.622265232789 9395.472312875012
    vertex -9995.35000000007 14467.622265232789 9398.472312875012
  endloop
endfacet
facet normal -1.0 -2.7036042446007524e-15 3.586699585127774e-14
  outer loop
    vertex -9995.35000000007 14487.372265232787 9395.472312875012
    vertex -9995.35000000007 14467.622265232789 9398.472312875012
    vertex -9995.35000000007 14484.372265232789 9398.472312875012
  endloop
endfacet
facet normal -1.0 -2.7036042446007524e-15 3.586699585127774e-14
  outer loop
    vertex -9995.35000000007 14535.62226523279 9375.472312875012
    vertex -9995.35000000007 14512.872265232787 9378.47231287501
    vertex -9995.35000000007 14535.62226523279 9395.472312875012
  endloop
endfacet
facet normal -1.0 -2.7036042446007524e-15 3.586699585127774e-14
  outer loop
    vertex -9995.35000000007 14512.872265232787 9378.47231287501
    vertex -9995.35000000007 14535.62226523279 9375.472312875012
    vertex -9995.35000000007 14464.622265232789 9375.472312875012
  endloop
endfacet
facet normal -1.0 -2.7036042446007524e-15 3.586699585127774e-14
  outer loop
    vertex -9995.35000000007 14512.872265232787 9378.47231287501
    vertex -9995.35000000007 14464.622265232789 9375.472312875012
    vertex -9995.35000000007 14487.372265232787 9378.47231287501
  endloop
endfacet
facet normal -1.0 -2.7036042446007524e-15 3.586699585127774e-14
  outer loop
    vertex -9995.35000000007 14535.62226523279 9395.472312875012
    vertex -9995.35000000007 14512.872265232787 9378.47231287501
    vertex -9995.35000000007 14512.872265232787 9395.472312875012
  endloop
endfacet
facet normal -1.0 -2.7036042446007524e-15 3.586699585127774e-14
  outer loop
    vertex -9995.35000000007 14535.62226523279 9395.472312875012
    vertex -9995.35000000007 14512.872265232787 9395.472312875012
    vertex -9995.35000000007 14515.87226523279 9398.47231287501
  endloop
endfacet
facet normal -1.0 -2.7036042446007524e-15 3.586699585127774e-14
  outer loop
    vertex -9995.35000000007 14535.62226523279 9395.472312875012
    vertex -9995.35000000007 14515.87226523279 9398.47231287501
    vertex -9995.35000000007 14532.622265232787 9398.47231287501
  endloop
endfacet
facet normal 5.129318188266553e-15 -1.0 -3.404087752457928e-15
  outer loop
    vertex -9970.350000000068 14464.622265232789 9414.47231287501
    vertex -9973.35000000007 14464.622265232789 9397.47231287501
    vertex -9970.350000000068 14464.622265232789 9397.47231287501
  endloop
endfacet
facet normal 5.129318188266553e-15 -1.0 -3.404087752457928e-15
  outer loop
    vertex -9973.35000000007 14464.622265232789 9397.47231287501
    vertex -9970.350000000068 14464.622265232789 9414.47231287501
    vertex -9976.600000000068 14464.622265232789 9414.47231287501
  endloop
endfacet
facet normal 5.129318188266553e-15 -1.0 -3.404087752457928e-15
  outer loop
    vertex -9973.35000000007 14464.622265232789 9397.47231287501
    vertex -9976.600000000068 14464.622265232789 9414.47231287501
    vertex -9973.35000000007 14464.622265232789 9375.472312875012
  endloop
endfacet
facet normal 5.129318188266553e-15 -1.0 -3.404087752457928e-15
  outer loop
    vertex -9973.35000000007 14464.622265232789 9375.472312875012
    vertex -9976.600000000068 14464.622265232789 9414.47231287501
    vertex -9976.60000000007 14464.622265232789 9378.47231287501
  endloop
endfacet
facet normal 5.129318188266553e-15 -1.0 -3.404087752457928e-15
  outer loop
    vertex -9995.35000000007 14464.622265232789 9395.472312875012
    vertex -9992.35000000007 14464.622265232789 9378.47231287501
    vertex -9992.35000000007 14464.622265232789 9395.472312875012
  endloop
endfacet
facet normal 5.129318188266553e-15 -1.0 -3.404087752457928e-15
  outer loop
    vertex -9976.60000000007 14464.622265232789 9378.47231287501
    vertex -9995.35000000007 14464.622265232789 9375.472312875012
    vertex -9973.35000000007 14464.622265232789 9375.472312875012
  endloop
endfacet
facet normal 5.129318188266553e-15 -1.0 -3.404087752457928e-15
  outer loop
    vertex -9995.35000000007 14464.622265232789 9375.472312875012
    vertex -9976.60000000007 14464.622265232789 9378.47231287501
    vertex -9992.35000000007 14464.622265232789 9378.47231287501
  endloop
endfacet
facet normal 5.129318188266553e-15 -1.0 -3.404087752457928e-15
  outer loop
    vertex -9995.35000000007 14464.622265232789 9375.472312875012
    vertex -9992.35000000007 14464.622265232789 9378.47231287501
    vertex -9995.35000000007 14464.622265232789 9395.472312875012
  endloop
endfacet
facet normal 7.933122631499743e-16 1.87278803794656e-14 1.0
  outer loop
    vertex -9973.350000000071 14512.872265232787 9378.47231287501
    vertex -9976.60000000007 14487.372265232787 9378.47231287501
    vertex -9973.35000000007 14487.372265232787 9378.47231287501
  endloop
endfacet
facet normal 7.933122631499743e-16 1.87278803794656e-14 1.0
  outer loop
    vertex -9976.60000000007 14487.372265232787 9378.47231287501
    vertex -9973.350000000071 14512.872265232787 9378.47231287501
    vertex -9976.60000000007 14490.37226523279 9378.472312875012
  endloop
endfacet
facet normal 7.933122631499743e-16 1.87278803794656e-14 1.0
  outer loop
    vertex -9976.60000000007 14490.37226523279 9378.472312875012
    vertex -9973.350000000071 14512.872265232787 9378.47231287501
    vertex -9976.60000000007 14509.872265232789 9378.47231287501
  endloop
endfacet
facet normal 7.933122631499743e-16 1.87278803794656e-14 1.0
  outer loop
    vertex -9976.60000000007 14509.872265232789 9378.47231287501
    vertex -9973.350000000071 14512.872265232787 9378.47231287501
    vertex -9976.60000000007 14512.872265232787 9378.47231287501
  endloop
endfacet
facet normal 7.933122631499743e-16 1.87278803794656e-14 1.0
  outer loop
    vertex -9976.60000000007 14509.872265232789 9378.47231287501
    vertex -9976.60000000007 14512.872265232787 9378.47231287501
    vertex -9979.600000000071 14512.872265232787 9378.47231287501
  endloop
endfacet
facet normal 7.933122631499743e-16 1.87278803794656e-14 1.0
  outer loop
    vertex -9979.600000000071 14512.872265232787 9378.47231287501
    vertex -9976.60000000007 14512.872265232787 9378.47231287501
    vertex -9976.60000000007 14529.622265232789 9378.47231287501
  endloop
endfacet
facet normal 7.933122631499743e-16 1.87278803794656e-14 1.0
  outer loop
    vertex -9987.350000000071 14512.872265232787 9378.47231287501
    vertex -9992.35000000007 14512.872265232787 9378.47231287501
    vertex -9990.35000000007 14509.872265232789 9378.47231287501
  endloop
endfacet
facet normal 7.933122631499743e-16 1.87278803794656e-14 1.0
  outer loop
    vertex -9992.35000000007 14512.872265232787 9378.47231287501
    vertex -9987.350000000071 14512.872265232787 9378.47231287501
    vertex -9992.35000000007 14529.622265232789 9378.47231287501
  endloop
endfacet
facet normal 7.933122631499743e-16 1.87278803794656e-14 1.0
  outer loop
    vertex -9992.35000000007 14529.622265232789 9378.47231287501
    vertex -9987.350000000071 14512.872265232787 9378.47231287501
    vertex -9979.600000000071 14512.872265232787 9378.47231287501
  endloop
endfacet
facet normal 7.933122631499743e-16 1.87278803794656e-14 1.0
  outer loop
    vertex -9992.35000000007 14529.622265232789 9378.47231287501
    vertex -9979.600000000071 14512.872265232787 9378.47231287501
    vertex -9976.60000000007 14529.622265232789 9378.47231287501
  endloop
endfacet
facet normal 7.933122631499743e-16 1.87278803794656e-14 1.0
  outer loop
    vertex -9979.60000000007 14487.372265232787 9378.472312875012
    vertex -9992.35000000007 14487.372265232787 9378.472312875012
    vertex -9992.35000000007 14470.622265232787 9378.47231287501
  endloop
endfacet
facet normal 7.933122631499743e-16 1.87278803794656e-14 1.0
  outer loop
    vertex -9992.35000000007 14487.372265232787 9378.472312875012
    vertex -9979.60000000007 14487.372265232787 9378.472312875012
    vertex -9987.350000000071 14487.372265232787 9378.472312875012
  endloop
endfacet
facet normal 7.933122631499743e-16 1.87278803794656e-14 1.0
  outer loop
    vertex -9992.35000000007 14487.372265232787 9378.472312875012
    vertex -9987.350000000071 14487.372265232787 9378.472312875012
    vertex -9995.35000000007 14487.372265232787 9378.47231287501
  endloop
endfacet
facet normal 7.933122631499743e-16 1.87278803794656e-14 1.0
  outer loop
    vertex -9995.35000000007 14487.372265232787 9378.47231287501
    vertex -9987.350000000071 14487.372265232787 9378.472312875012
    vertex -9990.35000000007 14490.37226523279 9378.47231287501
  endloop
endfacet
facet normal 7.933122631499743e-16 1.87278803794656e-14 1.0
  outer loop
    vertex -9995.35000000007 14487.372265232787 9378.47231287501
    vertex -9990.35000000007 14490.37226523279 9378.47231287501
    vertex -9995.35000000007 14512.872265232787 9378.47231287501
  endloop
endfacet
facet normal 7.933122631499743e-16 1.87278803794656e-14 1.0
  outer loop
    vertex -9995.35000000007 14512.872265232787 9378.47231287501
    vertex -9990.35000000007 14490.37226523279 9378.47231287501
    vertex -9990.35000000007 14509.872265232789 9378.47231287501
  endloop
endfacet
facet normal 7.933122631499743e-16 1.87278803794656e-14 1.0
  outer loop
    vertex -9995.35000000007 14512.872265232787 9378.47231287501
    vertex -9990.35000000007 14509.872265232789 9378.47231287501
    vertex -9992.35000000007 14512.872265232787 9378.47231287501
  endloop
endfacet
facet normal 7.933122631499743e-16 1.87278803794656e-14 1.0
  outer loop
    vertex -9976.60000000007 14487.372265232787 9378.47231287501
    vertex -9992.35000000007 14470.622265232787 9378.47231287501
    vertex -9976.60000000007 14470.622265232787 9378.47231287501
  endloop
endfacet
facet normal 7.933122631499743e-16 1.87278803794656e-14 1.0
  outer loop
    vertex -9992.35000000007 14470.622265232787 9378.47231287501
    vertex -9976.60000000007 14487.372265232787 9378.47231287501
    vertex -9979.60000000007 14487.372265232787 9378.472312875012
  endloop
endfacet
facet normal 7.933122631499743e-16 1.87278803794656e-14 1.0
  outer loop
    vertex -9979.60000000007 14487.372265232787 9378.472312875012
    vertex -9976.60000000007 14487.372265232787 9378.47231287501
    vertex -9976.60000000007 14490.37226523279 9378.472312875012
  endloop
endfacet
facet normal 3.489062220782307e-14 -7.60400762741044e-15 1.0
  outer loop
    vertex -9979.60000000007 14532.622265232787 9398.47231287501
    vertex -9992.35000000007 14529.622265232789 9398.47231287501
    vertex -9979.60000000007 14529.622265232789 9398.47231287501
  endloop
endfacet
facet normal 3.489062220782307e-14 -7.60400762741044e-15 1.0
  outer loop
    vertex -9992.35000000007 14529.622265232789 9398.47231287501
    vertex -9995.35000000007 14515.87226523279 9398.47231287501
    vertex -9992.35000000007 14515.87226523279 9398.47231287501
  endloop
endfacet
facet normal 3.489062220782307e-14 -7.60400762741044e-15 1.0
  outer loop
    vertex -9995.35000000007 14515.87226523279 9398.47231287501
    vertex -9992.35000000007 14529.622265232789 9398.47231287501
    vertex -9995.35000000007 14532.622265232787 9398.47231287501
  endloop
endfacet
facet normal 3.489062220782307e-14 -7.60400762741044e-15 1.0
  outer loop
    vertex -9995.35000000007 14532.622265232787 9398.47231287501
    vertex -9992.35000000007 14529.622265232789 9398.47231287501
    vertex -9979.60000000007 14532.622265232787 9398.47231287501
  endloop
endfacet
facet normal 3.489062220782307e-14 -7.60400762741044e-15 1.0
  outer loop
    vertex -9995.35000000007 14532.622265232787 9398.47231287501
    vertex -9979.60000000007 14532.622265232787 9398.47231287501
    vertex -9992.35000000007 14532.622265232787 9398.47231287501
  endloop
endfacet
facet normal -3.05311331771929e-16 -1.0 -7.604007627410428e-15
  outer loop
    vertex -9979.60000000007 14467.622265232789 9398.47231287501
    vertex -9976.600000000068 14467.622265232789 9398.47231287501
    vertex -9976.600000000068 14467.622265232789 9401.472312875012
  endloop
endfacet
facet normal -3.05311331771929e-16 -1.0 -7.604007627410428e-15
  outer loop
    vertex -9976.600000000068 14467.622265232789 9398.47231287501
    vertex -9992.35000000007 14467.622265232789 9378.47231287501
    vertex -9976.60000000007 14467.622265232789 9378.47231287501
  endloop
endfacet
facet normal -3.05311331771929e-16 -1.0 -7.604007627410428e-15
  outer loop
    vertex -9992.35000000007 14467.622265232789 9378.47231287501
    vertex -9976.600000000068 14467.622265232789 9398.47231287501
    vertex -9979.60000000007 14467.622265232789 9398.47231287501
  endloop
endfacet
facet normal -3.05311331771929e-16 -1.0 -7.604007627410428e-15
  outer loop
    vertex -9992.35000000007 14467.622265232789 9378.47231287501
    vertex -9979.60000000007 14467.622265232789 9398.47231287501
    vertex -9992.35000000007 14467.622265232789 9398.472312875012
  endloop
endfacet
facet normal 1.0 -3.053113317716637e-16 -3.489062220782307e-14
  outer loop
    vertex -9992.35000000007 14467.622265232789 9398.472312875012
    vertex -9992.35000000007 14464.622265232789 9378.47231287501
    vertex -9992.35000000007 14467.622265232789 9378.47231287501
  endloop
endfacet
facet normal 1.0 -3.053113317716637e-16 -3.489062220782307e-14
  outer loop
    vertex -9992.35000000007 14464.622265232789 9378.47231287501
    vertex -9992.35000000007 14467.622265232789 9398.472312875012
    vertex -9992.35000000007 14464.622265232789 9395.472312875012
  endloop
endfacet
facet normal 3.05311331771929e-16 1.0 7.604007627410428e-15
  outer loop
    vertex -9992.35000000007 14470.622265232787 9378.47231287501
    vertex -9976.600000000068 14470.622265232787 9398.47231287501
    vertex -9976.60000000007 14470.622265232787 9378.47231287501
  endloop
endfacet
facet normal 3.05311331771929e-16 1.0 7.604007627410428e-15
  outer loop
    vertex -9976.600000000068 14470.622265232787 9398.47231287501
    vertex -9992.35000000007 14470.622265232787 9378.47231287501
    vertex -9976.600000000068 14470.622265232787 9401.472312875012
  endloop
endfacet
facet normal 3.05311331771929e-16 1.0 7.604007627410428e-15
  outer loop
    vertex -9976.600000000068 14470.622265232787 9401.472312875012
    vertex -9992.35000000007 14470.622265232787 9378.47231287501
    vertex -9979.60000000007 14470.622265232787 9398.47231287501
  endloop
endfacet
facet normal 3.05311331771929e-16 1.0 7.604007627410428e-15
  outer loop
    vertex -9979.60000000007 14470.622265232787 9398.47231287501
    vertex -9992.35000000007 14470.622265232787 9378.47231287501
    vertex -9992.35000000007 14470.622265232787 9398.472312875012
  endloop
endfacet
facet normal 3.05311331771929e-16 1.0 7.604007627410428e-15
  outer loop
    vertex -9992.35000000007 14532.622265232787 9378.47231287501
    vertex -9976.60000000007 14532.622265232787 9398.47231287501
    vertex -9976.60000000007 14532.622265232787 9378.47231287501
  endloop
endfacet
facet normal 3.05311331771929e-16 1.0 7.604007627410428e-15
  outer loop
    vertex -9976.60000000007 14532.622265232787 9398.47231287501
    vertex -9992.35000000007 14532.622265232787 9378.47231287501
    vertex -9976.600000000068 14532.622265232787 9401.47231287501
  endloop
endfacet
facet normal 3.05311331771929e-16 1.0 7.604007627410428e-15
  outer loop
    vertex -9976.600000000068 14532.622265232787 9401.47231287501
    vertex -9992.35000000007 14532.622265232787 9378.47231287501
    vertex -9979.60000000007 14532.622265232787 9398.47231287501
  endloop
endfacet
facet normal 3.05311331771929e-16 1.0 7.604007627410428e-15
  outer loop
    vertex -9979.60000000007 14532.622265232787 9398.47231287501
    vertex -9992.35000000007 14532.622265232787 9378.47231287501
    vertex -9992.35000000007 14532.622265232787 9398.47231287501
  endloop
endfacet
facet normal -3.05311331771929e-16 -1.0 -7.604007627410428e-15
  outer loop
    vertex -9979.60000000007 14529.622265232789 9398.47231287501
    vertex -9976.60000000007 14529.622265232789 9398.47231287501
    vertex -9976.600000000068 14529.622265232789 9401.47231287501
  endloop
endfacet
facet normal -3.05311331771929e-16 -1.0 -7.604007627410428e-15
  outer loop
    vertex -9976.60000000007 14529.622265232789 9398.47231287501
    vertex -9992.35000000007 14529.622265232789 9378.47231287501
    vertex -9976.60000000007 14529.622265232789 9378.47231287501
  endloop
endfacet
facet normal -3.05311331771929e-16 -1.0 -7.604007627410428e-15
  outer loop
    vertex -9992.35000000007 14529.622265232789 9378.47231287501
    vertex -9976.60000000007 14529.622265232789 9398.47231287501
    vertex -9979.60000000007 14529.622265232789 9398.47231287501
  endloop
endfacet
facet normal -3.05311331771929e-16 -1.0 -7.604007627410428e-15
  outer loop
    vertex -9992.35000000007 14529.622265232789 9378.47231287501
    vertex -9979.60000000007 14529.622265232789 9398.47231287501
    vertex -9992.35000000007 14529.622265232789 9398.47231287501
  endloop
endfacet
facet normal 3.489062220782307e-14 -7.60400762741044e-15 1.0
  outer loop
    vertex -9976.60000000007 14535.62226523279 9378.47231287501
    vertex -9992.35000000007 14532.622265232787 9378.47231287501
    vertex -9976.60000000007 14532.622265232787 9378.47231287501
  endloop
endfacet
facet normal 3.489062220782307e-14 -7.60400762741044e-15 1.0
  outer loop
    vertex -9992.35000000007 14532.622265232787 9378.47231287501
    vertex -9976.60000000007 14535.62226523279 9378.47231287501
    vertex -9992.35000000007 14535.62226523279 9378.47231287501
  endloop
endfacet
facet normal 1.0 -3.053113317716637e-16 -3.489062220782307e-14
  outer loop
    vertex -9992.35000000007 14487.372265232787 9395.472312875012
    vertex -9992.35000000007 14470.622265232787 9378.47231287501
    vertex -9992.35000000007 14487.372265232787 9378.472312875012
  endloop
endfacet
facet normal 1.0 -3.053113317716637e-16 -3.489062220782307e-14
  outer loop
    vertex -9992.35000000007 14470.622265232787 9378.47231287501
    vertex -9992.35000000007 14487.372265232787 9395.472312875012
    vertex -9992.35000000007 14470.622265232787 9398.472312875012
  endloop
endfacet
facet normal 1.0 -3.053113317716637e-16 -3.489062220782307e-14
  outer loop
    vertex -9992.35000000007 14470.622265232787 9398.472312875012
    vertex -9992.35000000007 14487.372265232787 9395.472312875012
    vertex -9992.35000000007 14484.372265232789 9398.472312875012
  endloop
endfacet
facet normal 3.489062220782307e-14 -7.60400762741044e-15 1.0
  outer loop
    vertex -9979.60000000007 14470.622265232787 9398.47231287501
    vertex -9992.35000000007 14467.622265232789 9398.472312875012
    vertex -9979.60000000007 14467.622265232789 9398.47231287501
  endloop
endfacet
facet normal 3.489062220782307e-14 -7.60400762741044e-15 1.0
  outer loop
    vertex -9992.35000000007 14467.622265232789 9398.472312875012
    vertex -9979.60000000007 14470.622265232787 9398.47231287501
    vertex -9995.35000000007 14467.622265232789 9398.472312875012
  endloop
endfacet
facet normal 3.489062220782307e-14 -7.60400762741044e-15 1.0
  outer loop
    vertex -9995.35000000007 14467.622265232789 9398.472312875012
    vertex -9979.60000000007 14470.622265232787 9398.47231287501
    vertex -9992.35000000007 14470.622265232787 9398.472312875012
  endloop
endfacet
facet normal 3.489062220782307e-14 -7.60400762741044e-15 1.0
  outer loop
    vertex -9995.35000000007 14467.622265232789 9398.472312875012
    vertex -9992.35000000007 14470.622265232787 9398.472312875012
    vertex -9995.35000000007 14484.372265232789 9398.472312875012
  endloop
endfacet
facet normal 3.489062220782307e-14 -7.60400762741044e-15 1.0
  outer loop
    vertex -9995.35000000007 14484.372265232789 9398.472312875012
    vertex -9992.35000000007 14470.622265232787 9398.472312875012
    vertex -9992.35000000007 14484.372265232789 9398.472312875012
  endloop
endfacet
facet normal -1.78052403068948e-15 1.0 2.8095090271553017e-15
  outer loop
    vertex -9973.350000000071 14535.62226523279 9375.47231287501
    vertex -9976.60000000007 14535.62226523279 9378.47231287501
    vertex -9973.35000000007 14535.62226523279 9397.47231287501
  endloop
endfacet
facet normal -1.78052403068948e-15 1.0 2.8095090271553017e-15
  outer loop
    vertex -9976.60000000007 14535.62226523279 9378.47231287501
    vertex -9973.350000000071 14535.62226523279 9375.47231287501
    vertex -9995.35000000007 14535.62226523279 9375.472312875012
  endloop
endfacet
facet normal -1.78052403068948e-15 1.0 2.8095090271553017e-15
  outer loop
    vertex -9976.60000000007 14535.62226523279 9378.47231287501
    vertex -9995.35000000007 14535.62226523279 9375.472312875012
    vertex -9992.35000000007 14535.62226523279 9378.47231287501
  endloop
endfacet
facet normal -1.78052403068948e-15 1.0 2.8095090271553017e-15
  outer loop
    vertex -9992.35000000007 14535.62226523279 9378.47231287501
    vertex -9995.35000000007 14535.62226523279 9375.472312875012
    vertex -9992.35000000007 14535.62226523279 9395.472312875012
  endloop
endfacet
facet normal -1.78052403068948e-15 1.0 2.8095090271553017e-15
  outer loop
    vertex -9992.35000000007 14535.62226523279 9395.472312875012
    vertex -9995.35000000007 14535.62226523279 9375.472312875012
    vertex -9995.35000000007 14535.62226523279 9395.472312875012
  endloop
endfacet
facet normal -1.78052403068948e-15 1.0 2.8095090271553017e-15
  outer loop
    vertex -9973.35000000007 14535.62226523279 9397.47231287501
    vertex -9970.350000000068 14535.62226523279 9414.47231287501
    vertex -9970.35000000007 14535.62226523279 9397.47231287501
  endloop
endfacet
facet normal -1.78052403068948e-15 1.0 2.8095090271553017e-15
  outer loop
    vertex -9970.350000000068 14535.62226523279 9414.47231287501
    vertex -9973.35000000007 14535.62226523279 9397.47231287501
    vertex -9976.600000000068 14535.62226523279 9414.47231287501
  endloop
endfacet
facet normal -1.78052403068948e-15 1.0 2.8095090271553017e-15
  outer loop
    vertex -9976.600000000068 14535.62226523279 9414.47231287501
    vertex -9973.35000000007 14535.62226523279 9397.47231287501
    vertex -9976.60000000007 14535.62226523279 9378.47231287501
  endloop
endfacet
facet normal 3.05311331771929e-16 1.0 7.604007627410428e-15
  outer loop
    vertex -9995.35000000007 14487.372265232787 9378.47231287501
    vertex -9992.35000000007 14487.372265232787 9395.472312875012
    vertex -9992.35000000007 14487.372265232787 9378.472312875012
  endloop
endfacet
facet normal 3.05311331771929e-16 1.0 7.604007627410428e-15
  outer loop
    vertex -9992.35000000007 14487.372265232787 9395.472312875012
    vertex -9995.35000000007 14487.372265232787 9378.47231287501
    vertex -9995.35000000007 14487.372265232787 9395.472312875012
  endloop
endfacet
facet normal -2.1663416259049624e-14 -1.4298022726932165e-14 -1.0
  outer loop
    vertex -9995.35000000007 14464.622265232789 9375.472312875012
    vertex -9990.35000000007 14490.37226523279 9375.472312875012
    vertex -9973.35000000007 14464.622265232789 9375.472312875012
  endloop
endfacet
facet normal -2.1663416259049624e-14 -1.4298022726932165e-14 -1.0
  outer loop
    vertex -9990.35000000007 14490.37226523279 9375.472312875012
    vertex -9995.35000000007 14464.622265232789 9375.472312875012
    vertex -9995.35000000007 14535.62226523279 9375.472312875012
  endloop
endfacet
facet normal -2.1663416259049624e-14 -1.4298022726932165e-14 -1.0
  outer loop
    vertex -9973.35000000007 14464.622265232789 9375.472312875012
    vertex -9990.35000000007 14490.37226523279 9375.472312875012
    vertex -9987.350000000071 14487.372265232787 9375.472312875012
  endloop
endfacet
facet normal -2.1663416259049624e-14 -1.4298022726932165e-14 -1.0
  outer loop
    vertex -9990.35000000007 14490.37226523279 9375.472312875012
    vertex -9995.35000000007 14535.62226523279 9375.472312875012
    vertex -9990.35000000007 14509.872265232789 9375.472312875012
  endloop
endfacet
facet normal -2.1663416259049624e-14 -1.4298022726932165e-14 -1.0
  outer loop
    vertex -9990.35000000007 14509.872265232789 9375.472312875012
    vertex -9995.35000000007 14535.62226523279 9375.472312875012
    vertex -9987.350000000071 14512.872265232787 9375.472312875012
  endloop
endfacet
facet normal -2.1663416259049624e-14 -1.4298022726932165e-14 -1.0
  outer loop
    vertex -9987.350000000071 14512.872265232787 9375.472312875012
    vertex -9995.35000000007 14535.62226523279 9375.472312875012
    vertex -9979.600000000071 14512.872265232787 9375.47231287501
  endloop
endfacet
facet normal -2.1663416259049624e-14 -1.4298022726932165e-14 -1.0
  outer loop
    vertex -9979.600000000071 14512.872265232787 9375.47231287501
    vertex -9995.35000000007 14535.62226523279 9375.472312875012
    vertex -9973.350000000071 14512.872265232787 9375.47231287501
  endloop
endfacet
facet normal -2.1663416259049624e-14 -1.4298022726932165e-14 -1.0
  outer loop
    vertex -9973.350000000071 14512.872265232787 9375.47231287501
    vertex -9995.35000000007 14535.62226523279 9375.472312875012
    vertex -9973.350000000071 14535.62226523279 9375.47231287501
  endloop
endfacet
facet normal -2.1663416259049624e-14 -1.4298022726932165e-14 -1.0
  outer loop
    vertex -9987.350000000071 14487.372265232787 9375.472312875012
    vertex -9973.35000000007 14487.372265232787 9375.472312875012
    vertex -9973.35000000007 14464.622265232789 9375.472312875012
  endloop
endfacet
facet normal -2.1663416259049624e-14 -1.4298022726932165e-14 -1.0
  outer loop
    vertex -9973.35000000007 14487.372265232787 9375.472312875012
    vertex -9987.350000000071 14487.372265232787 9375.472312875012
    vertex -9979.60000000007 14487.372265232787 9375.472312875012
  endloop
endfacet
facet normal -2.1663416259049624e-14 -1.4298022726932165e-14 -1.0
  outer loop
    vertex -9973.35000000007 14487.372265232787 9375.472312875012
    vertex -9979.60000000007 14487.372265232787 9375.472312875012
    vertex -9976.60000000007 14490.37226523279 9375.472312875012
  endloop
endfacet
facet normal -2.1663416259049624e-14 -1.4298022726932165e-14 -1.0
  outer loop
    vertex -9973.35000000007 14487.372265232787 9375.472312875012
    vertex -9976.60000000007 14490.37226523279 9375.472312875012
    vertex -9973.350000000071 14512.872265232787 9375.47231287501
  endloop
endfacet
facet normal -2.1663416259049624e-14 -1.4298022726932165e-14 -1.0
  outer loop
    vertex -9973.350000000071 14512.872265232787 9375.47231287501
    vertex -9976.60000000007 14490.37226523279 9375.472312875012
    vertex -9976.60000000007 14509.872265232789 9375.472312875012
  endloop
endfacet
facet normal -2.1663416259049624e-14 -1.4298022726932165e-14 -1.0
  outer loop
    vertex -9973.350000000071 14512.872265232787 9375.47231287501
    vertex -9976.60000000007 14509.872265232789 9375.472312875012
    vertex -9979.600000000071 14512.872265232787 9375.47231287501
  endloop
endfacet
facet normal 1.0 8.541642338966752e-15 -3.4890622207823e-14
  outer loop
    vertex -9973.350000000071 14512.872265232787 9378.47231287501
    vertex -9973.35000000007 14487.372265232787 9375.472312875012
    vertex -9973.350000000071 14512.872265232787 9375.47231287501
  endloop
endfacet
facet normal 1.0 8.541642338966752e-15 -3.4890622207823e-14
  outer loop
    vertex -9973.35000000007 14487.372265232787 9375.472312875012
    vertex -9973.350000000071 14512.872265232787 9378.47231287501
    vertex -9973.35000000007 14487.372265232787 9378.47231287501
  endloop
endfacet
facet normal 1.0508358645742437e-14 1.0 -3.250218234660439e-14
  outer loop
    vertex -9987.350000000071 14487.372265232787 9375.472312875012
    vertex -9979.60000000007 14487.372265232787 9378.472312875012
    vertex -9979.60000000007 14487.372265232787 9375.472312875012
  endloop
endfacet
facet normal 1.0508358645742437e-14 1.0 -3.250218234660439e-14
  outer loop
    vertex -9979.60000000007 14487.372265232787 9378.472312875012
    vertex -9987.350000000071 14487.372265232787 9375.472312875012
    vertex -9987.350000000071 14487.372265232787 9378.472312875012
  endloop
endfacet
facet normal -1.827120165603209e-14 -1.0 -7.144937251144129e-16
  outer loop
    vertex -9970.350000000068 14512.872265232787 9414.47231287501
    vertex -9973.35000000007 14512.872265232787 9397.47231287501
    vertex -9970.35000000007 14512.872265232787 9397.47231287501
  endloop
endfacet
facet normal -1.827120165603209e-14 -1.0 -7.144937251144129e-16
  outer loop
    vertex -9973.35000000007 14512.872265232787 9397.47231287501
    vertex -9970.350000000068 14512.872265232787 9414.47231287501
    vertex -9976.600000000068 14512.872265232787 9414.47231287501
  endloop
endfacet
facet normal -1.827120165603209e-14 -1.0 -7.144937251144129e-16
  outer loop
    vertex -9973.35000000007 14512.872265232787 9397.47231287501
    vertex -9976.600000000068 14512.872265232787 9414.47231287501
    vertex -9973.350000000071 14512.872265232787 9378.47231287501
  endloop
endfacet
facet normal -1.827120165603209e-14 -1.0 -7.144937251144129e-16
  outer loop
    vertex -9973.350000000071 14512.872265232787 9378.47231287501
    vertex -9976.600000000068 14512.872265232787 9414.47231287501
    vertex -9976.60000000007 14512.872265232787 9378.47231287501
  endloop
endfacet
facet normal 5.376625196369864e-15 -1.0 2.2475634853101998e-14
  outer loop
    vertex -9987.350000000071 14512.872265232787 9378.47231287501
    vertex -9979.600000000071 14512.872265232787 9375.47231287501
    vertex -9979.600000000071 14512.872265232787 9378.47231287501
  endloop
endfacet
facet normal 5.376625196369864e-15 -1.0 2.2475634853101998e-14
  outer loop
    vertex -9979.600000000071 14512.872265232787 9375.47231287501
    vertex -9987.350000000071 14512.872265232787 9378.47231287501
    vertex -9987.350000000071 14512.872265232787 9375.472312875012
  endloop
endfacet
facet normal -1.0 -6.080944421000584e-15 1.985080096756196e-14
  outer loop
    vertex -9976.60000000007 14490.37226523279 9375.472312875012
    vertex -9976.60000000007 14509.872265232789 9378.47231287501
    vertex -9976.60000000007 14509.872265232789 9375.472312875012
  endloop
endfacet
facet normal -1.0 -6.080944421000584e-15 1.985080096756196e-14
  outer loop
    vertex -9976.60000000007 14509.872265232789 9378.47231287501
    vertex -9976.60000000007 14490.37226523279 9375.472312875012
    vertex -9976.60000000007 14490.37226523279 9378.472312875012
  endloop
endfacet
facet normal -0.7071067811865425 -0.7071067811865526 6.183099217586446e-14
  outer loop
    vertex -9979.600000000071 14512.872265232787 9378.47231287501
    vertex -9976.60000000007 14509.872265232789 9375.472312875012
    vertex -9976.60000000007 14509.872265232789 9378.47231287501
  endloop
endfacet
facet normal -0.7071067811865425 -0.7071067811865526 6.183099217586446e-14
  outer loop
    vertex -9976.60000000007 14509.872265232789 9375.472312875012
    vertex -9979.600000000071 14512.872265232787 9378.47231287501
    vertex -9979.600000000071 14512.872265232787 9375.47231287501
  endloop
endfacet
facet normal -0.7071067811865659 0.7071067811865293 1.408883168509396e-14
  outer loop
    vertex -9979.60000000007 14487.372265232787 9378.472312875012
    vertex -9976.60000000007 14490.37226523279 9375.472312875012
    vertex -9979.60000000007 14487.372265232787 9375.472312875012
  endloop
endfacet
facet normal -0.7071067811865659 0.7071067811865293 1.408883168509396e-14
  outer loop
    vertex -9976.60000000007 14490.37226523279 9375.472312875012
    vertex -9979.60000000007 14487.372265232787 9378.472312875012
    vertex -9976.60000000007 14490.37226523279 9378.472312875012
  endloop
endfacet
endsolid Main
