solid Main
facet normal -5.1062732196999633e-14 -1.0 -3.402833570476105e-14
  outer loop
    vertex -10013.550000000008 14404.272265232807 9464.672312875031
    vertex -10044.750000000015 14404.272265232807 9496.072312875029
    vertex -10044.75000000001 14404.272265232807 9464.672312875031
  endloop
endfacet
facet normal -5.1062732196999633e-14 -1.0 -3.402833570476105e-14
  outer loop
    vertex -10044.750000000015 14404.272265232807 9496.072312875029
    vertex -10013.550000000008 14404.272265232807 9464.672312875031
    vertex -10013.550000000012 14404.272265232803 9496.072312875023
  endloop
endfacet
facet normal -1.0 -2.110900959175959e-14 1.0686204865726075e-14
  outer loop
    vertex -10044.750000000005 14437.27226523281 9466.17231287503
    vertex -10044.750000000011 14435.772265232805 9496.072312875027
    vertex -10044.750000000013 14437.27226523281 9494.572312875029
  endloop
endfacet
facet normal -1.0 -2.110900959175959e-14 1.0686204865726075e-14
  outer loop
    vertex -10044.750000000011 14435.772265232805 9496.072312875027
    vertex -10044.750000000005 14437.27226523281 9466.17231287503
    vertex -10044.750000000015 14404.272265232807 9496.072312875029
  endloop
endfacet
facet normal -1.0 -2.110900959175959e-14 1.0686204865726075e-14
  outer loop
    vertex -10044.750000000015 14404.272265232807 9496.072312875029
    vertex -10044.750000000005 14437.27226523281 9466.17231287503
    vertex -10044.750000000005 14435.772265232805 9464.67231287503
  endloop
endfacet
facet normal -1.0 -2.110900959175959e-14 1.0686204865726075e-14
  outer loop
    vertex -10044.750000000015 14404.272265232807 9496.072312875029
    vertex -10044.750000000005 14435.772265232805 9464.67231287503
    vertex -10044.75000000001 14407.272265232803 9464.672312875031
  endloop
endfacet
facet normal -1.0 -2.110900959175959e-14 1.0686204865726075e-14
  outer loop
    vertex -10044.750000000015 14404.272265232807 9496.072312875029
    vertex -10044.75000000001 14407.272265232803 9464.672312875031
    vertex -10044.75000000001 14404.272265232807 9464.672312875031
  endloop
endfacet
facet normal 1.0 2.3247615374010866e-14 -1.1928189869214247e-14
  outer loop
    vertex -10041.750000000016 14407.272265232803 9493.07231287503
    vertex -10041.750000000005 14437.27226523281 9467.67231287503
    vertex -10041.750000000013 14437.272265232805 9493.07231287503
  endloop
endfacet
facet normal 1.0 2.3247615374010866e-14 -1.1928189869214247e-14
  outer loop
    vertex -10041.750000000005 14437.27226523281 9467.67231287503
    vertex -10041.750000000016 14407.272265232803 9493.07231287503
    vertex -10041.750000000011 14407.272265232812 9467.672312875025
  endloop
endfacet
facet normal -1.50629372328617e-14 -7.216449660063519e-15 -1.0
  outer loop
    vertex -10038.350000000017 14407.272265232812 9493.072312875027
    vertex -10041.750000000013 14437.272265232805 9493.07231287503
    vertex -10038.350000000013 14437.272265232805 9493.07231287503
  endloop
endfacet
facet normal -1.50629372328617e-14 -7.216449660063519e-15 -1.0
  outer loop
    vertex -10041.750000000013 14437.272265232805 9493.07231287503
    vertex -10038.350000000017 14407.272265232812 9493.072312875027
    vertex -10041.750000000016 14407.272265232803 9493.07231287503
  endloop
endfacet
facet normal 5.469316975304235e-14 -1.0 3.3861802251067274e-15
  outer loop
    vertex -10038.35000000001 14407.272265232812 9471.072312875025
    vertex -10041.750000000011 14407.272265232812 9467.672312875025
    vertex -10038.35000000001 14407.272265232812 9467.672312875025
  endloop
endfacet
facet normal 5.469316975304235e-14 -1.0 3.3861802251067274e-15
  outer loop
    vertex -10041.750000000011 14407.272265232812 9467.672312875025
    vertex -10038.35000000001 14407.272265232812 9471.072312875025
    vertex -10041.750000000016 14407.272265232803 9493.07231287503
  endloop
endfacet
facet normal 5.469316975304235e-14 -1.0 3.3861802251067274e-15
  outer loop
    vertex -10041.750000000016 14407.272265232803 9493.07231287503
    vertex -10038.35000000001 14407.272265232812 9471.072312875025
    vertex -10038.350000000017 14407.272265232812 9493.072312875027
  endloop
endfacet
facet normal -2.266667926711036e-14 0.7071067811865394 -0.7071067811865557
  outer loop
    vertex -10044.750000000005 14435.772265232805 9464.67231287503
    vertex -10013.550000000007 14437.272265232801 9466.17231287503
    vertex -10013.550000000007 14435.772265232803 9464.672312875033
  endloop
endfacet
facet normal -2.266667926711036e-14 0.7071067811865394 -0.7071067811865557
  outer loop
    vertex -10013.550000000007 14437.272265232801 9466.17231287503
    vertex -10044.750000000005 14435.772265232805 9464.67231287503
    vertex -10044.750000000005 14437.27226523281 9466.17231287503
  endloop
endfacet
facet normal 5.973605521435859e-13 0.7071067811870579 0.7071067811860371
  outer loop
    vertex -10044.750000000011 14435.772265232805 9496.072312875027
    vertex -10035.350000000013 14437.272265232801 9494.572312875023
    vertex -10044.750000000013 14437.27226523281 9494.572312875029
  endloop
endfacet
facet normal 5.973605521435859e-13 0.7071067811870579 0.7071067811860371
  outer loop
    vertex -10035.350000000013 14437.272265232801 9494.572312875023
    vertex -10044.750000000011 14435.772265232805 9496.072312875027
    vertex -10035.350000000013 14435.772265232805 9496.072312875027
  endloop
endfacet
facet normal 1.0 1.1302003477761502e-14 2.414931003611357e-13
  outer loop
    vertex -10035.350000000013 14435.772265232805 9496.072312875027
    vertex -10035.350000000006 14437.272265232808 9473.872312875028
    vertex -10035.350000000013 14437.272265232801 9494.572312875023
  endloop
endfacet
facet normal 1.0 1.1302003477761502e-14 2.414931003611357e-13
  outer loop
    vertex -10035.350000000006 14437.272265232808 9473.872312875028
    vertex -10035.350000000013 14435.772265232805 9496.072312875027
    vertex -10035.350000000015 14435.772265232788 9493.072312875016
  endloop
endfacet
facet normal 1.0 1.1302003477761502e-14 2.414931003611357e-13
  outer loop
    vertex -10035.350000000006 14437.272265232808 9473.872312875028
    vertex -10035.350000000015 14435.772265232788 9493.072312875016
    vertex -10035.350000000013 14407.272265232794 9493.072312875027
  endloop
endfacet
facet normal 1.0 1.1302003477761502e-14 2.414931003611357e-13
  outer loop
    vertex -10035.350000000006 14437.272265232808 9473.872312875028
    vertex -10035.350000000013 14407.272265232794 9493.072312875027
    vertex -10035.35000000001 14407.272265232803 9473.872312875028
  endloop
endfacet
facet normal 1.0 2.35974026192686e-14 -5.428118756335646e-15
  outer loop
    vertex -10013.550000000012 14404.272265232803 9496.072312875023
    vertex -10013.550000000016 14435.772265232796 9493.072312875016
    vertex -10013.550000000014 14435.772265232796 9496.072312875012
  endloop
endfacet
facet normal 1.0 2.35974026192686e-14 -5.428118756335646e-15
  outer loop
    vertex -10013.550000000016 14435.772265232796 9493.072312875016
    vertex -10013.550000000012 14404.272265232803 9496.072312875023
    vertex -10013.550000000014 14407.272265232798 9493.072312875025
  endloop
endfacet
facet normal 1.0 2.35974026192686e-14 -5.428118756335646e-15
  outer loop
    vertex -10013.550000000014 14407.272265232798 9493.072312875025
    vertex -10013.550000000012 14404.272265232803 9496.072312875023
    vertex -10013.55000000001 14407.272265232812 9473.87231287503
  endloop
endfacet
facet normal 1.0 2.35974026192686e-14 -5.428118756335646e-15
  outer loop
    vertex -10013.55000000001 14407.272265232812 9473.87231287503
    vertex -10013.550000000012 14404.272265232803 9496.072312875023
    vertex -10013.550000000008 14404.272265232807 9464.672312875031
  endloop
endfacet
facet normal 1.0 2.35974026192686e-14 -5.428118756335646e-15
  outer loop
    vertex -10013.55000000001 14407.272265232812 9473.87231287503
    vertex -10013.550000000008 14404.272265232807 9464.672312875031
    vertex -10013.55000000001 14407.2722652328 9464.672312875035
  endloop
endfacet
facet normal 1.0 2.35974026192686e-14 -5.428118756335646e-15
  outer loop
    vertex -10013.55000000001 14407.272265232812 9473.87231287503
    vertex -10013.550000000007 14437.272265232801 9466.17231287503
    vertex -10013.550000000007 14437.272265232801 9473.87231287503
  endloop
endfacet
facet normal 1.0 2.35974026192686e-14 -5.428118756335646e-15
  outer loop
    vertex -10013.550000000007 14437.272265232801 9466.17231287503
    vertex -10013.55000000001 14407.272265232812 9473.87231287503
    vertex -10013.550000000007 14435.772265232803 9464.672312875033
  endloop
endfacet
facet normal 1.0 2.35974026192686e-14 -5.428118756335646e-15
  outer loop
    vertex -10013.550000000007 14435.772265232803 9464.672312875033
    vertex -10013.55000000001 14407.272265232812 9473.87231287503
    vertex -10013.55000000001 14407.2722652328 9464.672312875035
  endloop
endfacet
facet normal -2.4313170808398074e-14 1.0 -3.1086244689504383e-15
  outer loop
    vertex -10044.750000000005 14437.27226523281 9466.17231287503
    vertex -10041.750000000005 14437.27226523281 9467.67231287503
    vertex -10013.550000000007 14437.272265232801 9466.17231287503
  endloop
endfacet
facet normal -2.4313170808398074e-14 1.0 -3.1086244689504383e-15
  outer loop
    vertex -10041.750000000005 14437.27226523281 9467.67231287503
    vertex -10044.750000000005 14437.27226523281 9466.17231287503
    vertex -10044.750000000013 14437.27226523281 9494.572312875029
  endloop
endfacet
facet normal -2.4313170808398074e-14 1.0 -3.1086244689504383e-15
  outer loop
    vertex -10041.750000000005 14437.27226523281 9467.67231287503
    vertex -10044.750000000013 14437.27226523281 9494.572312875029
    vertex -10041.750000000013 14437.272265232805 9493.07231287503
  endloop
endfacet
facet normal -2.4313170808398074e-14 1.0 -3.1086244689504383e-15
  outer loop
    vertex -10041.750000000013 14437.272265232805 9493.07231287503
    vertex -10044.750000000013 14437.27226523281 9494.572312875029
    vertex -10038.350000000013 14437.272265232805 9493.07231287503
  endloop
endfacet
facet normal -2.4313170808398074e-14 1.0 -3.1086244689504383e-15
  outer loop
    vertex -10038.350000000008 14437.27226523281 9471.072312875029
    vertex -10035.350000000006 14437.272265232808 9473.872312875028
    vertex -10016.350000000006 14437.2722652328 9471.072312875029
  endloop
endfacet
facet normal -2.4313170808398074e-14 1.0 -3.1086244689504383e-15
  outer loop
    vertex -10035.350000000006 14437.272265232808 9473.872312875028
    vertex -10038.350000000008 14437.27226523281 9471.072312875029
    vertex -10038.350000000013 14437.272265232805 9493.07231287503
  endloop
endfacet
facet normal -2.4313170808398074e-14 1.0 -3.1086244689504383e-15
  outer loop
    vertex -10035.350000000006 14437.272265232808 9473.872312875028
    vertex -10038.350000000013 14437.272265232805 9493.07231287503
    vertex -10035.350000000013 14437.272265232801 9494.572312875023
  endloop
endfacet
facet normal -2.4313170808398074e-14 1.0 -3.1086244689504383e-15
  outer loop
    vertex -10035.350000000013 14437.272265232801 9494.572312875023
    vertex -10038.350000000013 14437.272265232805 9493.07231287503
    vertex -10044.750000000013 14437.27226523281 9494.572312875029
  endloop
endfacet
facet normal -2.4313170808398074e-14 1.0 -3.1086244689504383e-15
  outer loop
    vertex -10013.550000000007 14437.272265232801 9466.17231287503
    vertex -10016.350000000006 14437.272265232801 9467.67231287503
    vertex -10013.550000000007 14437.272265232801 9473.87231287503
  endloop
endfacet
facet normal -2.4313170808398074e-14 1.0 -3.1086244689504383e-15
  outer loop
    vertex -10016.350000000006 14437.272265232801 9467.67231287503
    vertex -10013.550000000007 14437.272265232801 9466.17231287503
    vertex -10041.750000000005 14437.27226523281 9467.67231287503
  endloop
endfacet
facet normal -2.4313170808398074e-14 1.0 -3.1086244689504383e-15
  outer loop
    vertex -10013.550000000007 14437.272265232801 9473.87231287503
    vertex -10016.350000000006 14437.272265232801 9467.67231287503
    vertex -10016.350000000006 14437.2722652328 9471.072312875029
  endloop
endfacet
facet normal -2.4313170808398074e-14 1.0 -3.1086244689504383e-15
  outer loop
    vertex -10013.550000000007 14437.272265232801 9473.87231287503
    vertex -10016.350000000006 14437.2722652328 9471.072312875029
    vertex -10035.350000000006 14437.272265232808 9473.872312875028
  endloop
endfacet
facet normal 6.941455957040955e-14 -1.2656542480726785e-13 -1.0
  outer loop
    vertex -10013.55000000001 14407.2722652328 9464.672312875035
    vertex -10044.750000000005 14435.772265232805 9464.67231287503
    vertex -10013.550000000007 14435.772265232803 9464.672312875033
  endloop
endfacet
facet normal 6.941455957040955e-14 -1.2656542480726785e-13 -1.0
  outer loop
    vertex -10044.750000000005 14435.772265232805 9464.67231287503
    vertex -10013.55000000001 14407.2722652328 9464.672312875035
    vertex -10044.75000000001 14407.272265232803 9464.672312875031
  endloop
endfacet
facet normal -1.0 -2.3999606436023775e-14 6.658331245660613e-15
  outer loop
    vertex -10016.350000000006 14437.272265232801 9467.67231287503
    vertex -10016.350000000011 14407.2722652328 9471.07231287503
    vertex -10016.350000000006 14437.2722652328 9471.072312875029
  endloop
endfacet
facet normal -1.0 -2.3999606436023775e-14 6.658331245660613e-15
  outer loop
    vertex -10016.350000000011 14407.2722652328 9471.07231287503
    vertex -10016.350000000006 14437.272265232801 9467.67231287503
    vertex -10016.350000000011 14407.272265232798 9467.67231287503
  endloop
endfacet
facet normal 9.411198761057878e-15 8.382183835919932e-15 1.0
  outer loop
    vertex -10041.750000000005 14437.27226523281 9467.67231287503
    vertex -10016.350000000011 14407.272265232798 9467.67231287503
    vertex -10016.350000000006 14437.272265232801 9467.67231287503
  endloop
endfacet
facet normal 9.411198761057878e-15 8.382183835919932e-15 1.0
  outer loop
    vertex -10016.350000000011 14407.272265232798 9467.67231287503
    vertex -10041.750000000005 14437.27226523281 9467.67231287503
    vertex -10038.35000000001 14407.272265232812 9467.672312875025
  endloop
endfacet
facet normal 9.411198761057878e-15 8.382183835919932e-15 1.0
  outer loop
    vertex -10038.35000000001 14407.272265232812 9467.672312875025
    vertex -10041.750000000005 14437.27226523281 9467.67231287503
    vertex -10041.750000000011 14407.272265232812 9467.672312875025
  endloop
endfacet
facet normal -2.5201517509215254e-15 -1.0 4.729550084903167e-14
  outer loop
    vertex -10016.350000000011 14407.272265232798 9467.67231287503
    vertex -10038.35000000001 14407.272265232812 9471.072312875025
    vertex -10038.35000000001 14407.272265232812 9467.672312875025
  endloop
endfacet
facet normal -2.5201517509215254e-15 -1.0 4.729550084903167e-14
  outer loop
    vertex -10038.35000000001 14407.272265232812 9471.072312875025
    vertex -10016.350000000011 14407.272265232798 9467.67231287503
    vertex -10016.350000000011 14407.2722652328 9471.07231287503
  endloop
endfacet
facet normal -1.0 -2.7759561746087636e-14 1.4584723520929894e-14
  outer loop
    vertex -10038.350000000008 14437.27226523281 9471.072312875029
    vertex -10038.350000000017 14407.272265232812 9493.072312875027
    vertex -10038.350000000013 14437.272265232805 9493.07231287503
  endloop
endfacet
facet normal -1.0 -2.7759561746087636e-14 1.4584723520929894e-14
  outer loop
    vertex -10038.350000000017 14407.272265232812 9493.072312875027
    vertex -10038.350000000008 14437.27226523281 9471.072312875029
    vertex -10038.35000000001 14407.272265232812 9471.072312875025
  endloop
endfacet
facet normal -2.6872402912608916e-14 -1.609823385706477e-14 -1.0
  outer loop
    vertex -10016.350000000011 14407.2722652328 9471.07231287503
    vertex -10038.350000000008 14437.27226523281 9471.072312875029
    vertex -10016.350000000006 14437.2722652328 9471.072312875029
  endloop
endfacet
facet normal -2.6872402912608916e-14 -1.609823385706477e-14 -1.0
  outer loop
    vertex -10038.350000000008 14437.27226523281 9471.072312875029
    vertex -10016.350000000011 14407.2722652328 9471.07231287503
    vertex -10038.35000000001 14407.272265232812 9471.072312875025
  endloop
endfacet
facet normal -9.934560819252077e-14 2.3980817331903388e-14 1.0
  outer loop
    vertex -10035.350000000006 14437.272265232808 9473.872312875028
    vertex -10013.55000000001 14407.272265232812 9473.87231287503
    vertex -10013.550000000007 14437.272265232801 9473.87231287503
  endloop
endfacet
facet normal -9.934560819252077e-14 2.3980817331903388e-14 1.0
  outer loop
    vertex -10013.55000000001 14407.272265232812 9473.87231287503
    vertex -10035.350000000006 14437.272265232808 9473.872312875028
    vertex -10035.35000000001 14407.272265232803 9473.872312875028
  endloop
endfacet
facet normal 3.875950408085585e-13 1.3999912340523226e-13 1.0
  outer loop
    vertex -10013.550000000014 14435.772265232796 9496.072312875012
    vertex -10044.750000000015 14404.272265232807 9496.072312875029
    vertex -10013.550000000012 14404.272265232803 9496.072312875023
  endloop
endfacet
facet normal 3.875950408085585e-13 1.3999912340523226e-13 1.0
  outer loop
    vertex -10044.750000000015 14404.272265232807 9496.072312875029
    vertex -10013.550000000014 14435.772265232796 9496.072312875012
    vertex -10035.350000000013 14435.772265232805 9496.072312875027
  endloop
endfacet
facet normal 3.875950408085585e-13 1.3999912340523226e-13 1.0
  outer loop
    vertex -10044.750000000015 14404.272265232807 9496.072312875029
    vertex -10035.350000000013 14435.772265232805 9496.072312875027
    vertex -10044.750000000011 14435.772265232805 9496.072312875027
  endloop
endfacet
facet normal 2.3138186523469837e-14 7.219780329137393e-13 -1.0
  outer loop
    vertex -10044.75000000001 14404.272265232807 9464.672312875031
    vertex -10013.55000000001 14407.2722652328 9464.672312875035
    vertex -10013.550000000008 14404.272265232807 9464.672312875031
  endloop
endfacet
facet normal 2.3138186523469837e-14 7.219780329137393e-13 -1.0
  outer loop
    vertex -10013.55000000001 14407.2722652328 9464.672312875035
    vertex -10044.75000000001 14404.272265232807 9464.672312875031
    vertex -10044.75000000001 14407.272265232803 9464.672312875031
  endloop
endfacet
facet normal -3.3115202730838646e-13 1.0 5.26412247126018e-13
  outer loop
    vertex -10035.35000000001 14407.272265232803 9473.872312875028
    vertex -10013.550000000014 14407.272265232798 9493.072312875025
    vertex -10013.55000000001 14407.272265232812 9473.87231287503
  endloop
endfacet
facet normal -3.3115202730838646e-13 1.0 5.26412247126018e-13
  outer loop
    vertex -10013.550000000014 14407.272265232798 9493.072312875025
    vertex -10035.35000000001 14407.272265232803 9473.872312875028
    vertex -10035.350000000013 14407.272265232794 9493.072312875027
  endloop
endfacet
facet normal 1.3246081092230271e-13 1.0 -2.887634575898801e-12
  outer loop
    vertex -10035.350000000015 14435.772265232788 9493.072312875016
    vertex -10013.550000000014 14435.772265232796 9496.072312875012
    vertex -10013.550000000016 14435.772265232796 9493.072312875016
  endloop
endfacet
facet normal 1.3246081092230271e-13 1.0 -2.887634575898801e-12
  outer loop
    vertex -10013.550000000014 14435.772265232796 9496.072312875012
    vertex -10035.350000000015 14435.772265232788 9493.072312875016
    vertex -10035.350000000013 14435.772265232805 9496.072312875027
  endloop
endfacet
facet normal -6.623040546154979e-14 -4.812261700237741e-13 -1.0
  outer loop
    vertex -10035.350000000013 14407.272265232794 9493.072312875027
    vertex -10013.550000000016 14435.772265232796 9493.072312875016
    vertex -10013.550000000014 14407.272265232798 9493.072312875025
  endloop
endfacet
facet normal -6.623040546154979e-14 -4.812261700237741e-13 -1.0
  outer loop
    vertex -10013.550000000016 14435.772265232796 9493.072312875016
    vertex -10035.350000000013 14407.272265232794 9493.072312875027
    vertex -10035.350000000015 14435.772265232788 9493.072312875016
  endloop
endfacet
endsolid Main
