solid Main V1
facet normal 8.643520392507939e-15 6.9777517097692526e-15 -1.0
  outer loop
    vertex 2218.2663154485513 -716.6056814757118 967.5445294292427
    vertex 2215.2663154485513 -722.855681475711 967.544529429243
    vertex 2215.2663154485513 -716.6056814757111 967.5445294292427
  endloop
endfacet
facet normal 8.643520392507939e-15 6.9777517097692526e-15 -1.0
  outer loop
    vertex 2215.2663154485513 -722.855681475711 967.544529429243
    vertex 2218.2663154485513 -716.6056814757118 967.5445294292427
    vertex 2218.2663154485513 -722.8556814757119 967.5445294292427
  endloop
endfacet
facet normal 5.9520892811764095e-15 -0.7071067811865428 -0.7071067811865522
  outer loop
    vertex 2218.266315448551 -700.8556814757118 964.544529429243
    vertex 2215.2663154485513 -703.8556814757111 967.5445294292427
    vertex 2215.266315448551 -700.8556814757118 964.544529429243
  endloop
endfacet
facet normal 5.9520892811764095e-15 -0.7071067811865428 -0.7071067811865522
  outer loop
    vertex 2215.2663154485513 -703.8556814757111 967.5445294292427
    vertex 2218.266315448551 -700.8556814757118 964.544529429243
    vertex 2218.2663154485513 -703.8556814757119 967.544529429243
  endloop
endfacet
facet normal 5.3154065470012086e-14 0.7071067811865528 -0.7071067811865422
  outer loop
    vertex 2218.2663154485513 -722.8556814757119 967.5445294292427
    vertex 2215.2663154485513 -725.8556814757118 964.5445294292415
    vertex 2215.2663154485513 -722.855681475711 967.544529429243
  endloop
endfacet
facet normal 5.3154065470012086e-14 0.7071067811865528 -0.7071067811865422
  outer loop
    vertex 2215.2663154485513 -725.8556814757118 964.5445294292415
    vertex 2218.2663154485513 -722.8556814757119 967.5445294292427
    vertex 2218.2663154485513 -725.8556814757118 964.544529429243
  endloop
endfacet
facet normal 3.230668013037971e-14 0.9914448613738149 -0.13052619222001843
  outer loop
    vertex 2218.266315448551 -710.2164225402723 954.2033675326597
    vertex 2215.2663154485504 -710.1056814757118 955.0445294292429
    vertex 2218.266315448551 -710.1056814757119 955.0445294292429
  endloop
endfacet
facet normal 3.230668013037971e-14 0.9914448613738149 -0.13052619222001843
  outer loop
    vertex 2215.2663154485504 -710.1056814757118 955.0445294292429
    vertex 2218.266315448551 -710.2164225402723 954.2033675326597
    vertex 2215.2663154485504 -710.2164225402722 954.2033675326597
  endloop
endfacet
facet normal 2.530475156687418e-14 0.923879532511287 -0.38268343236508934
  outer loop
    vertex 2218.266315448551 -710.5410989134124 953.419529429243
    vertex 2215.2663154485504 -710.2164225402722 954.2033675326597
    vertex 2218.266315448551 -710.2164225402723 954.2033675326597
  endloop
endfacet
facet normal 2.530475156687418e-14 0.923879532511287 -0.38268343236508934
  outer loop
    vertex 2215.2663154485504 -710.2164225402722 954.2033675326597
    vertex 2218.266315448551 -710.5410989134124 953.419529429243
    vertex 2215.2663154485504 -710.5410989134123 953.419529429243
  endloop
endfacet
facet normal 1.6870121942519595e-14 0.7933533402912929 -0.6087614290086456
  outer loop
    vertex 2218.266315448551 -711.0575844368554 952.7464323903866
    vertex 2215.2663154485504 -710.5410989134123 953.419529429243
    vertex 2218.266315448551 -710.5410989134124 953.419529429243
  endloop
endfacet
facet normal 1.6870121942519595e-14 0.7933533402912929 -0.6087614290086456
  outer loop
    vertex 2215.2663154485504 -710.5410989134123 953.419529429243
    vertex 2218.266315448551 -711.0575844368554 952.7464323903866
    vertex 2215.2663154485504 -711.0575844368553 952.7464323903866
  endloop
endfacet
facet normal 7.0954557090300706e-15 0.6087614290087149 -0.7933533402912397
  outer loop
    vertex 2218.266315448551 -711.0575844368554 952.7464323903866
    vertex 2215.2663154485504 -711.7306814757117 952.2299468669436
    vertex 2215.2663154485504 -711.0575844368553 952.7464323903866
  endloop
endfacet
facet normal 7.0954557090300706e-15 0.6087614290087149 -0.7933533402912397
  outer loop
    vertex 2215.2663154485504 -711.7306814757117 952.2299468669436
    vertex 2218.266315448551 -711.0575844368554 952.7464323903866
    vertex 2218.266315448551 -711.7306814757118 952.2299468669434
  endloop
endfacet
facet normal -2.9339947527193133e-15 0.38268343236510777 -0.9238795325112795
  outer loop
    vertex 2218.266315448551 -711.7306814757118 952.2299468669434
    vertex 2215.2663154485504 -712.5145195791284 951.9052704938034
    vertex 2215.2663154485504 -711.7306814757117 952.2299468669436
  endloop
endfacet
facet normal -2.9339947527193133e-15 0.38268343236510777 -0.9238795325112795
  outer loop
    vertex 2215.2663154485504 -712.5145195791284 951.9052704938034
    vertex 2218.266315448551 -711.7306814757118 952.2299468669434
    vertex 2218.266315448551 -712.5145195791285 951.9052704938034
  endloop
endfacet
facet normal -1.295464358623422e-14 0.1305261922200772 -0.9914448613738072
  outer loop
    vertex 2218.266315448551 -712.5145195791285 951.9052704938034
    vertex 2215.2663154485504 -713.3556814757117 951.794529429243
    vertex 2215.2663154485504 -712.5145195791284 951.9052704938034
  endloop
endfacet
facet normal -1.295464358623422e-14 0.1305261922200772 -0.9914448613738072
  outer loop
    vertex 2215.2663154485504 -713.3556814757117 951.794529429243
    vertex 2218.266315448551 -712.5145195791285 951.9052704938034
    vertex 2218.266315448551 -713.3556814757118 951.794529429243
  endloop
endfacet
facet normal -2.1861288303876784e-14 -0.13052619222003262 -0.991444861373813
  outer loop
    vertex 2218.266315448551 -713.3556814757118 951.794529429243
    vertex 2215.266315448551 -714.1968433722949 951.9052704938034
    vertex 2215.2663154485504 -713.3556814757117 951.794529429243
  endloop
endfacet
facet normal -2.1861288303876784e-14 -0.13052619222003262 -0.991444861373813
  outer loop
    vertex 2215.266315448551 -714.1968433722949 951.9052704938034
    vertex 2218.266315448551 -713.3556814757118 951.794529429243
    vertex 2218.2663154485513 -714.1968433722949 951.9052704938034
  endloop
endfacet
facet normal -2.950928891512881e-14 -0.3826834323650767 -0.9238795325112923
  outer loop
    vertex 2218.2663154485513 -714.1968433722949 951.9052704938034
    vertex 2215.266315448551 -714.9806814757117 952.2299468669434
    vertex 2215.266315448551 -714.1968433722949 951.9052704938034
  endloop
endfacet
facet normal -2.950928891512881e-14 -0.3826834323650767 -0.9238795325112923
  outer loop
    vertex 2215.266315448551 -714.9806814757117 952.2299468669434
    vertex 2218.2663154485513 -714.1968433722949 951.9052704938034
    vertex 2218.2663154485513 -714.9806814757118 952.2299468669434
  endloop
endfacet
facet normal -3.5707384097127493e-14 -0.6087614290086918 -0.7933533402912575
  outer loop
    vertex 2218.2663154485513 -714.9806814757118 952.2299468669434
    vertex 2215.266315448551 -715.653778514568 952.7464323903866
    vertex 2215.266315448551 -714.9806814757117 952.2299468669434
  endloop
endfacet
facet normal -3.5707384097127493e-14 -0.6087614290086918 -0.7933533402912575
  outer loop
    vertex 2215.266315448551 -715.653778514568 952.7464323903866
    vertex 2218.2663154485513 -714.9806814757118 952.2299468669434
    vertex 2218.2663154485513 -715.6537785145681 952.7464323903864
  endloop
endfacet
facet normal -3.896191227187017e-14 -0.7933533402912321 -0.6087614290087249
  outer loop
    vertex 2215.266315448551 -715.653778514568 952.7464323903866
    vertex 2218.2663154485513 -716.1702640380112 953.4195294292427
    vertex 2215.266315448551 -716.170264038011 953.419529429243
  endloop
endfacet
facet normal -3.896191227187017e-14 -0.7933533402912321 -0.6087614290087249
  outer loop
    vertex 2218.2663154485513 -716.1702640380112 953.4195294292427
    vertex 2215.266315448551 -715.653778514568 952.7464323903866
    vertex 2218.2663154485513 -715.6537785145681 952.7464323903864
  endloop
endfacet
facet normal -3.946296383991621e-14 -0.9238795325112501 -0.3826834323651784
  outer loop
    vertex 2215.266315448551 -716.170264038011 953.419529429243
    vertex 2218.2663154485513 -716.4949404111513 954.2033675326595
    vertex 2215.266315448551 -716.4949404111512 954.2033675326597
  endloop
endfacet
facet normal -3.946296383991621e-14 -0.9238795325112501 -0.3826834323651784
  outer loop
    vertex 2218.2663154485513 -716.4949404111513 954.2033675326595
    vertex 2215.266315448551 -716.170264038011 953.419529429243
    vertex 2218.2663154485513 -716.1702640380112 953.4195294292427
  endloop
endfacet
facet normal -3.713709056764836e-14 -0.9914448613738158 -0.13052619222001044
  outer loop
    vertex 2215.266315448551 -716.4949404111512 954.2033675326597
    vertex 2218.2663154485513 -716.6056814757118 955.0445294292427
    vertex 2215.266315448551 -716.6056814757118 955.0445294292429
  endloop
endfacet
facet normal -3.713709056764836e-14 -0.9914448613738158 -0.13052619222001044
  outer loop
    vertex 2218.2663154485513 -716.6056814757118 955.0445294292427
    vertex 2215.266315448551 -716.4949404111512 954.2033675326597
    vertex 2218.2663154485513 -716.4949404111513 954.2033675326595
  endloop
endfacet
facet normal -1.0 -7.379892811645492e-15 8.496087335669259e-15
  outer loop
    vertex 2218.2663154485535 -714.9556814757108 925.5445294292427
    vertex 2218.266314521212 -729.0684830677393 928.540421504108
    vertex 2218.2663154485504 -714.9556814757115 942.744529429243
  endloop
endfacet
facet normal -1.0 -7.379892811645492e-15 8.496087335669259e-15
  outer loop
    vertex 2218.266314521212 -729.0684830677393 928.540421504108
    vertex 2218.2663154485535 -714.9556814757108 925.5445294292427
    vertex 2218.2663154485567 -747.0555487046444 925.5445294292418
  endloop
endfacet
facet normal -1.0 -7.379892811645492e-15 8.496087335669259e-15
  outer loop
    vertex 2218.2663154485504 -714.9556814757115 942.744529429243
    vertex 2218.266314521212 -729.0684830677393 928.540421504108
    vertex 2218.2663154485513 -714.9806814757118 952.2299468669434
  endloop
endfacet
facet normal -1.0 -7.379892811645492e-15 8.496087335669259e-15
  outer loop
    vertex 2218.2663154485513 -714.9806814757118 952.2299468669434
    vertex 2218.266314521212 -729.0684830677393 928.540421504108
    vertex 2218.2663154485513 -715.6537785145681 952.7464323903864
  endloop
endfacet
facet normal -1.0 -7.379892811645492e-15 8.496087335669259e-15
  outer loop
    vertex 2218.2663154485513 -715.6537785145681 952.7464323903864
    vertex 2218.266314521212 -729.0684830677393 928.540421504108
    vertex 2218.2663154485513 -716.1702640380112 953.4195294292427
  endloop
endfacet
facet normal -1.0 -7.379892811645492e-15 8.496087335669259e-15
  outer loop
    vertex 2218.2663154485513 -716.1702640380112 953.4195294292427
    vertex 2218.266314521212 -729.0684830677393 928.540421504108
    vertex 2218.2663154485513 -716.4949404111513 954.2033675326595
  endloop
endfacet
facet normal -1.0 -7.379892811645492e-15 8.496087335669259e-15
  outer loop
    vertex 2218.2663154485513 -716.4949404111513 954.2033675326595
    vertex 2218.266314521212 -729.0684830677393 928.540421504108
    vertex 2218.2663154485513 -716.6056814757118 955.0445294292427
  endloop
endfacet
facet normal -1.0 -7.379892811645492e-15 8.496087335669259e-15
  outer loop
    vertex 2218.2663154485513 -716.6056814757118 955.0445294292427
    vertex 2218.266314521212 -729.0684830677393 928.540421504108
    vertex 2218.2663154485513 -722.8556814757119 967.5445294292427
  endloop
endfacet
facet normal -1.0 -7.379892811645492e-15 8.496087335669259e-15
  outer loop
    vertex 2218.2663154485513 -722.8556814757119 967.5445294292427
    vertex 2218.266314521212 -729.0684830677393 928.540421504108
    vertex 2218.2663154485513 -725.8556814757118 964.544529429243
  endloop
endfacet
facet normal -1.0 -7.379892811645492e-15 8.496087335669259e-15
  outer loop
    vertex 2218.2663154485513 -725.8556814757118 964.544529429243
    vertex 2218.266314521212 -729.0684830677393 928.540421504108
    vertex 2218.2663154703364 -729.0684830677391 933.5404215041079
  endloop
endfacet
facet normal -1.0 -7.379892811645492e-15 8.496087335669259e-15
  outer loop
    vertex 2218.266314521212 -729.0684830677393 928.540421504108
    vertex 2218.2663154485567 -747.0555487046444 925.5445294292418
    vertex 2218.2663154703364 -732.0684830677391 928.5404215041083
  endloop
endfacet
facet normal -1.0 -7.379892811645492e-15 8.496087335669259e-15
  outer loop
    vertex 2218.2663154703364 -732.0684830677391 928.5404215041083
    vertex 2218.2663154485567 -747.0555487046444 925.5445294292418
    vertex 2218.266316460087 -741.056249652182 928.5404246205968
  endloop
endfacet
facet normal -1.0 -7.379892811645492e-15 8.496087335669259e-15
  outer loop
    vertex 2218.2663154703364 -732.0684830677391 928.5404215041083
    vertex 2218.266316460087 -741.056249652182 928.5404246205968
    vertex 2218.266316460087 -741.056249652182 933.5404246205969
  endloop
endfacet
facet normal -1.0 -7.379892811645492e-15 8.496087335669259e-15
  outer loop
    vertex 2218.266316460087 -741.056249652182 928.5404246205968
    vertex 2218.2663154485567 -747.0555487046444 925.5445294292418
    vertex 2218.266321067132 -744.0573914710095 928.5404246205968
  endloop
endfacet
facet normal -1.0 -7.379892811645492e-15 8.496087335669259e-15
  outer loop
    vertex 2218.266321067132 -744.0573914710095 928.5404246205968
    vertex 2218.2663154485567 -747.0555487046444 925.5445294292418
    vertex 2218.266317564136 -744.0573914710108 933.5404246205969
  endloop
endfacet
facet normal -1.0 -7.379892811645492e-15 8.496087335669259e-15
  outer loop
    vertex 2218.2663154703364 -729.0684830677391 933.5404215041079
    vertex 2218.266315448552 -747.0555487046453 964.5445294292422
    vertex 2218.2663154485513 -725.8556814757118 964.544529429243
  endloop
endfacet
facet normal -1.0 -7.379892811645492e-15 8.496087335669259e-15
  outer loop
    vertex 2218.266315448552 -747.0555487046453 964.5445294292422
    vertex 2218.2663154703364 -729.0684830677391 933.5404215041079
    vertex 2218.2663154703364 -732.0684830677391 933.5404215041082
  endloop
endfacet
facet normal -1.0 -7.379892811645492e-15 8.496087335669259e-15
  outer loop
    vertex 2218.266315448552 -747.0555487046453 964.5445294292422
    vertex 2218.2663154703364 -732.0684830677391 933.5404215041082
    vertex 2218.2663154703364 -732.0684830677391 928.5404215041083
  endloop
endfacet
facet normal -1.0 -7.379892811645492e-15 8.496087335669259e-15
  outer loop
    vertex 2218.266315448552 -747.0555487046453 964.5445294292422
    vertex 2218.2663154703364 -732.0684830677391 928.5404215041083
    vertex 2218.266316460087 -741.056249652182 933.5404246205969
  endloop
endfacet
facet normal -1.0 -7.379892811645492e-15 8.496087335669259e-15
  outer loop
    vertex 2218.266315448552 -747.0555487046453 964.5445294292422
    vertex 2218.266316460087 -741.056249652182 933.5404246205969
    vertex 2218.266317564136 -744.0573914710108 933.5404246205969
  endloop
endfacet
facet normal -1.0 -7.379892811645492e-15 8.496087335669259e-15
  outer loop
    vertex 2218.266315448552 -747.0555487046453 964.5445294292422
    vertex 2218.266317564136 -744.0573914710108 933.5404246205969
    vertex 2218.2663154485567 -747.0555487046444 925.5445294292418
  endloop
endfacet
facet normal -1.0 -7.379892811645492e-15 8.496087335669259e-15
  outer loop
    vertex 2218.2663154485513 -722.8556814757119 967.5445294292427
    vertex 2218.2663154485513 -716.6056814757118 967.5445294292427
    vertex 2218.2663154485513 -716.6056814757118 955.0445294292427
  endloop
endfacet
facet normal -1.0 -7.379892811645492e-15 8.496087335669259e-15
  outer loop
    vertex 2218.2663154485504 -714.9556814757115 942.744529429243
    vertex 2218.266315448551 -700.8556814757118 964.544529429243
    vertex 2218.2663154485535 -700.8556814757117 942.744529429243
  endloop
endfacet
facet normal -1.0 -7.379892811645492e-15 8.496087335669259e-15
  outer loop
    vertex 2218.266315448551 -700.8556814757118 964.544529429243
    vertex 2218.2663154485504 -714.9556814757115 942.744529429243
    vertex 2218.2663154485513 -703.8556814757119 967.544529429243
  endloop
endfacet
facet normal -1.0 -7.379892811645492e-15 8.496087335669259e-15
  outer loop
    vertex 2218.2663154485513 -703.8556814757119 967.544529429243
    vertex 2218.2663154485504 -714.9556814757115 942.744529429243
    vertex 2218.266315448551 -710.2164225402723 954.2033675326597
  endloop
endfacet
facet normal -1.0 -7.379892811645492e-15 8.496087335669259e-15
  outer loop
    vertex 2218.2663154485513 -703.8556814757119 967.544529429243
    vertex 2218.266315448551 -710.2164225402723 954.2033675326597
    vertex 2218.266315448551 -710.1056814757119 955.0445294292429
  endloop
endfacet
facet normal -1.0 -7.379892811645492e-15 8.496087335669259e-15
  outer loop
    vertex 2218.2663154485513 -703.8556814757119 967.544529429243
    vertex 2218.266315448551 -710.1056814757119 955.0445294292429
    vertex 2218.266315448551 -710.1056814757119 967.5445294292427
  endloop
endfacet
facet normal -1.0 -7.379892811645492e-15 8.496087335669259e-15
  outer loop
    vertex 2218.266315448551 -710.2164225402723 954.2033675326597
    vertex 2218.2663154485504 -714.9556814757115 942.744529429243
    vertex 2218.266315448551 -710.5410989134124 953.419529429243
  endloop
endfacet
facet normal -1.0 -7.379892811645492e-15 8.496087335669259e-15
  outer loop
    vertex 2218.266315448551 -710.5410989134124 953.419529429243
    vertex 2218.2663154485504 -714.9556814757115 942.744529429243
    vertex 2218.266315448551 -711.0575844368554 952.7464323903866
  endloop
endfacet
facet normal -1.0 -7.379892811645492e-15 8.496087335669259e-15
  outer loop
    vertex 2218.266315448551 -711.0575844368554 952.7464323903866
    vertex 2218.2663154485504 -714.9556814757115 942.744529429243
    vertex 2218.266315448551 -711.7306814757118 952.2299468669434
  endloop
endfacet
facet normal -1.0 -7.379892811645492e-15 8.496087335669259e-15
  outer loop
    vertex 2218.266315448551 -711.7306814757118 952.2299468669434
    vertex 2218.2663154485504 -714.9556814757115 942.744529429243
    vertex 2218.266315448551 -712.5145195791285 951.9052704938034
  endloop
endfacet
facet normal -1.0 -7.379892811645492e-15 8.496087335669259e-15
  outer loop
    vertex 2218.266315448551 -712.5145195791285 951.9052704938034
    vertex 2218.2663154485504 -714.9556814757115 942.744529429243
    vertex 2218.266315448551 -713.3556814757118 951.794529429243
  endloop
endfacet
facet normal -1.0 -7.379892811645492e-15 8.496087335669259e-15
  outer loop
    vertex 2218.266315448551 -713.3556814757118 951.794529429243
    vertex 2218.2663154485504 -714.9556814757115 942.744529429243
    vertex 2218.2663154485513 -714.1968433722949 951.9052704938034
  endloop
endfacet
facet normal -1.0 -7.379892811645492e-15 8.496087335669259e-15
  outer loop
    vertex 2218.2663154485513 -714.1968433722949 951.9052704938034
    vertex 2218.2663154485504 -714.9556814757115 942.744529429243
    vertex 2218.2663154485513 -714.9806814757118 952.2299468669434
  endloop
endfacet
facet normal 2.9897828307876347e-28 -1.0 -9.284510585139648e-15
  outer loop
    vertex 2215.2663154485535 -700.8556814757117 942.744529429243
    vertex 2218.266315448551 -700.8556814757118 964.544529429243
    vertex 2215.266315448551 -700.8556814757118 964.544529429243
  endloop
endfacet
facet normal 2.9897828307876347e-28 -1.0 -9.284510585139648e-15
  outer loop
    vertex 2218.266315448551 -700.8556814757118 964.544529429243
    vertex 2215.2663154485535 -700.8556814757117 942.744529429243
    vertex 2218.2663154485535 -700.8556814757117 942.744529429243
  endloop
endfacet
facet normal 4.925939144195202e-15 1.0 1.0136114170222904e-14
  outer loop
    vertex 2218.266315448551 -710.1056814757119 955.0445294292429
    vertex 2215.266315448551 -710.1056814757111 967.5445294292427
    vertex 2218.266315448551 -710.1056814757119 967.5445294292427
  endloop
endfacet
facet normal 4.925939144195202e-15 1.0 1.0136114170222904e-14
  outer loop
    vertex 2215.266315448551 -710.1056814757111 967.5445294292427
    vertex 2218.266315448551 -710.1056814757119 955.0445294292429
    vertex 2215.2663154485504 -710.1056814757118 955.0445294292429
  endloop
endfacet
facet normal -4.9259391441952056e-15 -1.0 -1.0136114170222769e-14
  outer loop
    vertex 2215.266315448551 -716.6056814757118 955.0445294292429
    vertex 2218.2663154485513 -716.6056814757118 967.5445294292427
    vertex 2215.2663154485513 -716.6056814757111 967.5445294292427
  endloop
endfacet
facet normal -4.9259391441952056e-15 -1.0 -1.0136114170222769e-14
  outer loop
    vertex 2218.2663154485513 -716.6056814757118 967.5445294292427
    vertex 2215.266315448551 -716.6056814757118 955.0445294292429
    vertex 2218.2663154485513 -716.6056814757118 955.0445294292427
  endloop
endfacet
facet normal 8.643520392507986e-15 2.4658053376925686e-15 -1.0
  outer loop
    vertex 2215.2663154485513 -703.8556814757111 967.5445294292427
    vertex 2218.266315448551 -710.1056814757119 967.5445294292427
    vertex 2215.266315448551 -710.1056814757111 967.5445294292427
  endloop
endfacet
facet normal 8.643520392507986e-15 2.4658053376925686e-15 -1.0
  outer loop
    vertex 2218.266315448551 -710.1056814757119 967.5445294292427
    vertex 2215.2663154485513 -703.8556814757111 967.5445294292427
    vertex 2218.2663154485513 -703.8556814757119 967.544529429243
  endloop
endfacet
facet normal 1.0 3.304552512108238e-14 3.9067957470635236e-14
  outer loop
    vertex 2215.266315448551 -700.8556814757118 964.544529429243
    vertex 2215.2663154485504 -714.9556814757115 942.744529429243
    vertex 2215.2663154485535 -700.8556814757117 942.744529429243
  endloop
endfacet
facet normal 1.0 3.304552512108238e-14 3.9067957470635236e-14
  outer loop
    vertex 2215.2663154485504 -714.9556814757115 942.744529429243
    vertex 2215.266315448551 -700.8556814757118 964.544529429243
    vertex 2215.2663154485513 -703.8556814757111 967.5445294292427
  endloop
endfacet
facet normal 1.0 3.304552512108238e-14 3.9067957470635236e-14
  outer loop
    vertex 2215.2663154485504 -714.9556814757115 942.744529429243
    vertex 2215.2663154485513 -703.8556814757111 967.5445294292427
    vertex 2215.2663154485504 -710.2164225402722 954.2033675326597
  endloop
endfacet
facet normal 1.0 3.304552512108238e-14 3.9067957470635236e-14
  outer loop
    vertex 2215.2663154485504 -710.2164225402722 954.2033675326597
    vertex 2215.2663154485513 -703.8556814757111 967.5445294292427
    vertex 2215.2663154485504 -710.1056814757118 955.0445294292429
  endloop
endfacet
facet normal 1.0 3.304552512108238e-14 3.9067957470635236e-14
  outer loop
    vertex 2215.2663154485504 -710.1056814757118 955.0445294292429
    vertex 2215.2663154485513 -703.8556814757111 967.5445294292427
    vertex 2215.266315448551 -710.1056814757111 967.5445294292427
  endloop
endfacet
facet normal 1.0 3.304552512108238e-14 3.9067957470635236e-14
  outer loop
    vertex 2215.2663154485504 -714.9556814757115 942.744529429243
    vertex 2215.2663154485504 -710.2164225402722 954.2033675326597
    vertex 2215.2663154485504 -710.5410989134123 953.419529429243
  endloop
endfacet
facet normal 1.0 3.304552512108238e-14 3.9067957470635236e-14
  outer loop
    vertex 2215.2663154485504 -714.9556814757115 942.744529429243
    vertex 2215.2663154485504 -710.5410989134123 953.419529429243
    vertex 2215.2663154485504 -711.0575844368553 952.7464323903866
  endloop
endfacet
facet normal 1.0 3.304552512108238e-14 3.9067957470635236e-14
  outer loop
    vertex 2215.2663154485504 -714.9556814757115 942.744529429243
    vertex 2215.2663154485504 -711.0575844368553 952.7464323903866
    vertex 2215.2663154485504 -711.7306814757117 952.2299468669436
  endloop
endfacet
facet normal 1.0 3.304552512108238e-14 3.9067957470635236e-14
  outer loop
    vertex 2215.2663154485504 -714.9556814757115 942.744529429243
    vertex 2215.2663154485504 -711.7306814757117 952.2299468669436
    vertex 2215.2663154485504 -712.5145195791284 951.9052704938034
  endloop
endfacet
facet normal 1.0 3.304552512108238e-14 3.9067957470635236e-14
  outer loop
    vertex 2215.2663154485504 -714.9556814757115 942.744529429243
    vertex 2215.2663154485504 -712.5145195791284 951.9052704938034
    vertex 2215.2663154485504 -713.3556814757117 951.794529429243
  endloop
endfacet
facet normal 1.0 3.304552512108238e-14 3.9067957470635236e-14
  outer loop
    vertex 2215.2663154485504 -714.9556814757115 942.744529429243
    vertex 2215.2663154485504 -713.3556814757117 951.794529429243
    vertex 2215.266315448551 -714.1968433722949 951.9052704938034
  endloop
endfacet
facet normal 1.0 3.304552512108238e-14 3.9067957470635236e-14
  outer loop
    vertex 2215.2663154485504 -714.9556814757115 942.744529429243
    vertex 2215.266315448551 -714.1968433722949 951.9052704938034
    vertex 2215.266315448551 -714.9806814757117 952.2299468669434
  endloop
endfacet
facet normal 1.0 3.304552512108238e-14 3.9067957470635236e-14
  outer loop
    vertex 2215.2663154485513 -722.855681475711 967.544529429243
    vertex 2215.266315448551 -716.6056814757118 955.0445294292429
    vertex 2215.2663154485513 -716.6056814757111 967.5445294292427
  endloop
endfacet
facet normal 1.0 3.304552512108238e-14 3.9067957470635236e-14
  outer loop
    vertex 2215.2663154485504 -714.9556814757115 942.744529429243
    vertex 2215.266300831755 -726.0644669847409 925.5397358267742
    vertex 2215.2663154485535 -714.9556814757108 925.5445294292427
  endloop
endfacet
facet normal 1.0 3.304552512108238e-14 3.9067957470635236e-14
  outer loop
    vertex 2215.266300831755 -726.0644669847409 925.5397358267742
    vertex 2215.2663154485504 -714.9556814757115 942.744529429243
    vertex 2215.266315448551 -714.9806814757117 952.2299468669434
  endloop
endfacet
facet normal 1.0 3.304552512108238e-14 3.9067957470635236e-14
  outer loop
    vertex 2215.266300831755 -726.0644669847409 925.5397358267742
    vertex 2215.266315448551 -714.9806814757117 952.2299468669434
    vertex 2215.266315448551 -715.653778514568 952.7464323903866
  endloop
endfacet
facet normal 1.0 3.304552512108238e-14 3.9067957470635236e-14
  outer loop
    vertex 2215.266300831755 -726.0644669847409 925.5397358267742
    vertex 2215.266315448551 -715.653778514568 952.7464323903866
    vertex 2215.266315448551 -716.170264038011 953.419529429243
  endloop
endfacet
facet normal 1.0 3.304552512108238e-14 3.9067957470635236e-14
  outer loop
    vertex 2215.266300831755 -726.0644669847409 925.5397358267742
    vertex 2215.266315448551 -716.170264038011 953.419529429243
    vertex 2215.266315448551 -716.4949404111512 954.2033675326597
  endloop
endfacet
facet normal 1.0 3.304552512108238e-14 3.9067957470635236e-14
  outer loop
    vertex 2215.266300831755 -726.0644669847409 925.5397358267742
    vertex 2215.266315448551 -716.4949404111512 954.2033675326597
    vertex 2215.266315448551 -716.6056814757118 955.0445294292429
  endloop
endfacet
facet normal 1.0 3.304552512108238e-14 3.9067957470635236e-14
  outer loop
    vertex 2215.266300831755 -726.0644669847409 925.5397358267742
    vertex 2215.266315448551 -716.6056814757118 955.0445294292429
    vertex 2215.2663154485513 -722.855681475711 967.544529429243
  endloop
endfacet
facet normal 1.0 3.304552512108238e-14 3.9067957470635236e-14
  outer loop
    vertex 2215.266300831755 -726.0644669847409 925.5397358267742
    vertex 2215.2663154485513 -722.855681475711 967.544529429243
    vertex 2215.2663154485513 -725.8556814757118 964.5445294292415
  endloop
endfacet
facet normal 1.0 3.304552512108238e-14 3.9067957470635236e-14
  outer loop
    vertex 2215.266300831755 -726.0644669847409 925.5397358267742
    vertex 2215.2663154485513 -725.8556814757118 964.5445294292415
    vertex 2215.2663008317527 -726.0556814695852 964.5445767258918
  endloop
endfacet
facet normal 6.310887241768095e-30 1.0 9.498834467529754e-15
  outer loop
    vertex 2218.2663154485567 -747.0555487046444 925.5445294292418
    vertex 2209.2663154485517 -747.0555487046453 964.5445294292416
    vertex 2218.266315448552 -747.0555487046453 964.5445294292422
  endloop
endfacet
facet normal 6.310887241768095e-30 1.0 9.498834467529754e-15
  outer loop
    vertex 2209.2663154485517 -747.0555487046453 964.5445294292416
    vertex 2218.2663154485567 -747.0555487046444 925.5445294292418
    vertex 2209.2663154485563 -747.0555487046444 925.5445294292415
  endloop
endfacet
facet normal 0.00029338613057496184 -3.520682902745363e-05 -0.9999999563425278
  outer loop
    vertex 2215.2663008317527 -726.0556814695852 964.5445767258918
    vertex 2209.2663154485517 -747.0555487046453 964.5445294292416
    vertex 2209.266300831752 -726.0548056064424 964.5397358267751
  endloop
endfacet
facet normal 0.00029338613057496184 -3.520682902745363e-05 -0.9999999563425278
  outer loop
    vertex 2209.2663154485517 -747.0555487046453 964.5445294292416
    vertex 2215.2663008317527 -726.0556814695852 964.5445767258918
    vertex 2218.266315448552 -747.0555487046453 964.5445294292422
  endloop
endfacet
facet normal 0.00029338613057496184 -3.520682902745363e-05 -0.9999999563425278
  outer loop
    vertex 2218.266315448552 -747.0555487046453 964.5445294292422
    vertex 2215.2663008317527 -726.0556814695852 964.5445767258918
    vertex 2215.2663154485513 -725.8556814757118 964.5445294292415
  endloop
endfacet
facet normal 0.00029338613057496184 -3.520682902745363e-05 -0.9999999563425278
  outer loop
    vertex 2218.266315448552 -747.0555487046453 964.5445294292422
    vertex 2215.2663154485513 -725.8556814757118 964.5445294292415
    vertex 2218.2663154485513 -725.8556814757118 964.544529429243
  endloop
endfacet
facet normal 0.0 -5.038843324468287e-15 1.0
  outer loop
    vertex 2218.2663154485504 -714.9556814757115 942.744529429243
    vertex 2215.2663154485535 -700.8556814757117 942.744529429243
    vertex 2215.2663154485504 -714.9556814757115 942.744529429243
  endloop
endfacet
facet normal 0.0 -5.038843324468287e-15 1.0
  outer loop
    vertex 2215.2663154485535 -700.8556814757117 942.744529429243
    vertex 2218.2663154485504 -714.9556814757115 942.744529429243
    vertex 2218.2663154485535 -700.8556814757117 942.744529429243
  endloop
endfacet
facet normal -3.007964248051051e-14 -6.909092745116589e-15 1.0
  outer loop
    vertex 2209.2663154485563 -747.0555487046444 925.5445294292415
    vertex 2211.2663089455095 -744.0580824410189 925.5438452496008
    vertex 2209.266309687572 -744.0580833253202 925.5438449167601
  endloop
endfacet
facet normal -3.007964248051051e-14 -6.909092745116589e-15 1.0
  outer loop
    vertex 2211.2663089455095 -744.0580824410189 925.5438452496008
    vertex 2209.2663154485563 -747.0555487046444 925.5445294292415
    vertex 2218.2663154485567 -747.0555487046444 925.5445294292418
  endloop
endfacet
facet normal -3.007964248051051e-14 -6.909092745116589e-15 1.0
  outer loop
    vertex 2211.2663089455095 -744.0580824410189 925.5438452496008
    vertex 2218.2663154485567 -747.0555487046444 925.5445294292418
    vertex 2215.266300831755 -726.0644669847409 925.5397358267742
  endloop
endfacet
facet normal -3.007964248051051e-14 -6.909092745116589e-15 1.0
  outer loop
    vertex 2215.266300831755 -726.0644669847409 925.5397358267742
    vertex 2218.2663154485567 -747.0555487046444 925.5445294292418
    vertex 2215.2663154485535 -714.9556814757108 925.5445294292427
  endloop
endfacet
facet normal -3.007964248051051e-14 -6.909092745116589e-15 1.0
  outer loop
    vertex 2215.2663154485535 -714.9556814757108 925.5445294292427
    vertex 2218.2663154485567 -747.0555487046444 925.5445294292418
    vertex 2218.2663154485535 -714.9556814757108 925.5445294292427
  endloop
endfacet
facet normal -3.007964248051051e-14 -6.909092745116589e-15 1.0
  outer loop
    vertex 2209.2663023181804 -729.0684850593556 925.5404218356545
    vertex 2215.266300831755 -726.0644669847409 925.5397358267742
    vertex 2209.2663008317545 -726.064466984741 925.539735826775
  endloop
endfacet
facet normal -3.007964248051051e-14 -6.909092745116589e-15 1.0
  outer loop
    vertex 2215.266300831755 -726.0644669847409 925.5397358267742
    vertex 2209.2663023181804 -729.0684850593556 925.5404218356545
    vertex 2211.2663015761177 -729.0684841750541 925.5404221684952
  endloop
endfacet
facet normal -3.007964248051051e-14 -6.909092745116589e-15 1.0
  outer loop
    vertex 2215.266300831755 -726.0644669847409 925.5397358267742
    vertex 2211.2663015761177 -729.0684841750541 925.5404221684952
    vertex 2211.2663089455095 -744.0580824410189 925.5438452496008
  endloop
endfacet
facet normal 0.0 -1.0 -6.909092745116589e-15
  outer loop
    vertex 2215.2663154485535 -714.9556814757108 925.5445294292427
    vertex 2218.2663154485504 -714.9556814757115 942.744529429243
    vertex 2215.2663154485504 -714.9556814757115 942.744529429243
  endloop
endfacet
facet normal 0.0 -1.0 -6.909092745116589e-15
  outer loop
    vertex 2218.2663154485504 -714.9556814757115 942.744529429243
    vertex 2215.2663154485535 -714.9556814757108 925.5445294292427
    vertex 2218.2663154485535 -714.9556814757108 925.5445294292427
  endloop
endfacet
facet normal -7.308399229036784e-05 -0.9999999693672004 0.00023648325219644104
  outer loop
    vertex 2209.266300831752 -726.0548056064424 964.5397358267751
    vertex 2215.266300831755 -726.0644669847409 925.5397358267742
    vertex 2215.2663008317527 -726.0556814695852 964.5445767258918
  endloop
endfacet
facet normal -7.308399229036784e-05 -0.9999999693672004 0.00023648325219644104
  outer loop
    vertex 2215.266300831755 -726.0644669847409 925.5397358267742
    vertex 2209.266300831752 -726.0548056064424 964.5397358267751
    vertex 2209.2663008317545 -726.064466984741 925.539735826775
  endloop
endfacet
facet normal 0.9999999999999638 2.687925667343653e-07 -1.9562154496150925e-08
  outer loop
    vertex 2215.2663061142416 -744.0555469434458 961.5442406489723
    vertex 2215.266301712553 -729.0623740907475 942.5414112514691
    vertex 2215.2663017122686 -729.0555470486922 961.5400246503511
  endloop
endfacet
facet normal 0.9999999999999638 2.687925667343653e-07 -1.9562154496150925e-08
  outer loop
    vertex 2215.266301712553 -729.0623740907475 942.5414112514691
    vertex 2215.2663061142416 -744.0555469434458 961.5442406489723
    vertex 2215.2663053721226 -744.0541983784724 942.5456280180623
  endloop
endfacet
facet normal -4.6196279125512144e-11 0.0002810665656064005 0.9999999605007921
  outer loop
    vertex 2209.266306114242 -744.0555487046458 961.5442406491901
    vertex 2215.2663017122686 -729.0555470486922 961.5400246503511
    vertex 2209.266301712269 -729.0555488098922 961.540024650569
  endloop
endfacet
facet normal -4.6196279125512144e-11 0.0002810665656064005 0.9999999605007921
  outer loop
    vertex 2215.2663017122686 -729.0555470486922 961.5400246503511
    vertex 2209.266306114242 -744.0555487046458 961.5442406491901
    vertex 2215.2663061142416 -744.0555469434458 961.5442406489723
  endloop
endfacet
facet normal 2.935333341724811e-07 -0.9999999999999569 -2.187759978485366e-14
  outer loop
    vertex 2209.266306114185 -744.0542007342793 942.5456272813295
    vertex 2215.2663061142416 -744.0555469434458 961.5442406489723
    vertex 2209.266306114242 -744.0555487046458 961.5442406491901
  endloop
endfacet
facet normal 2.935333341724811e-07 -0.9999999999999569 -2.187759978485366e-14
  outer loop
    vertex 2215.2663061142416 -744.0555469434458 961.5442406489723
    vertex 2209.266306114185 -744.0542007342793 942.5456272813295
    vertex 2211.2663053721226 -744.054199849978 942.5456276141703
  endloop
endfacet
facet normal 2.935333341724811e-07 -0.9999999999999569 -2.187759978485366e-14
  outer loop
    vertex 2215.2663061142416 -744.0555469434458 961.5442406489723
    vertex 2211.2663053721226 -744.054199849978 942.5456276141703
    vertex 2215.2663053721226 -744.0541983784724 942.5456280180623
  endloop
endfacet
facet normal -2.9353332826709803e-07 0.9999999354358262 -0.0003593442042950035
  outer loop
    vertex 2215.2663017122686 -729.0555470486922 961.5400246503511
    vertex 2209.266301712553 -729.0623758519475 942.5414112516869
    vertex 2209.266301712269 -729.0555488098922 961.540024650569
  endloop
endfacet
facet normal -2.9353332826709803e-07 0.9999999354358262 -0.0003593442042950035
  outer loop
    vertex 2209.266301712553 -729.0623758519475 942.5414112516869
    vertex 2215.2663017122686 -729.0555470486922 961.5400246503511
    vertex 2215.266301712553 -729.0623740907475 942.5414112514691
  endloop
endfacet
facet normal -2.9353332826709803e-07 0.9999999354358262 -0.0003593442042950035
  outer loop
    vertex 2209.266301712553 -729.0623758519475 942.5414112516869
    vertex 2215.266301712553 -729.0623740907475 942.5414112514691
    vertex 2211.266301712553 -729.062375562253 942.5414108475769
  endloop
endfacet
facet normal 0.9999999999998486 5.502653306703305e-07 2.053835941916851e-08
  outer loop
    vertex 2209.266300831752 -726.0548056064424 964.5397358267751
    vertex 2209.266301712269 -729.0555488098922 961.540024650569
    vertex 2209.2663008317545 -726.064466984741 925.539735826775
  endloop
endfacet
facet normal 0.9999999999998486 5.502653306703305e-07 2.053835941916851e-08
  outer loop
    vertex 2209.266301712269 -729.0555488098922 961.540024650569
    vertex 2209.266300831752 -726.0548056064424 964.5397358267751
    vertex 2209.2663154485517 -747.0555487046453 964.5445294292416
  endloop
endfacet
facet normal 0.9999999999998486 5.502653306703305e-07 2.053835941916851e-08
  outer loop
    vertex 2209.266301712269 -729.0555488098922 961.540024650569
    vertex 2209.2663154485517 -747.0555487046453 964.5445294292416
    vertex 2209.266306114242 -744.0555487046458 961.5442406491901
  endloop
endfacet
facet normal 0.9999999999998486 5.502653306703305e-07 2.053835941916851e-08
  outer loop
    vertex 2209.266306114242 -744.0555487046458 961.5442406491901
    vertex 2209.2663154485517 -747.0555487046453 964.5445294292416
    vertex 2209.266309687572 -744.0580833253202 925.5438449167601
  endloop
endfacet
facet normal 0.9999999999998486 5.502653306703305e-07 2.053835941916851e-08
  outer loop
    vertex 2209.266309687572 -744.0580833253202 925.5438449167601
    vertex 2209.2663154485517 -747.0555487046453 964.5445294292416
    vertex 2209.2663154485563 -747.0555487046444 925.5445294292415
  endloop
endfacet
facet normal 0.9999999999998486 5.502653306703305e-07 2.053835941916851e-08
  outer loop
    vertex 2209.266309687572 -744.0580833253202 925.5438449167601
    vertex 2209.266306114185 -744.0542007342793 942.5456272813295
    vertex 2209.266306114242 -744.0555487046458 961.5442406491901
  endloop
endfacet
facet normal 0.9999999999998486 5.502653306703305e-07 2.053835941916851e-08
  outer loop
    vertex 2209.266301712269 -729.0555488098922 961.540024650569
    vertex 2209.2663023181804 -729.0684850593556 925.5404218356545
    vertex 2209.2663008317545 -726.064466984741 925.539735826775
  endloop
endfacet
facet normal 0.9999999999998486 5.502653306703305e-07 2.053835941916851e-08
  outer loop
    vertex 2209.2663023181804 -729.0684850593556 925.5404218356545
    vertex 2209.266301712269 -729.0555488098922 961.540024650569
    vertex 2209.266301712553 -729.0623758519475 942.5414112516869
  endloop
endfacet
facet normal -0.00014504019555867606 -0.9999999642376747 0.00022469533015059048
  outer loop
    vertex 2209.266306114185 -744.0542007342793 942.5456272813295
    vertex 2211.266304812701 -744.0573981314313 933.5404221684953
    vertex 2211.2663053721226 -744.054199849978 942.5456276141703
  endloop
endfacet
facet normal -0.00014504019555867606 -0.9999999642376747 0.00022469533015059048
  outer loop
    vertex 2211.266304812701 -744.0573981314313 933.5404221684953
    vertex 2209.266306114185 -744.0542007342793 942.5456272813295
    vertex 2209.266309687572 -744.0580833253202 925.5438449167601
  endloop
endfacet
facet normal -0.00014504019555867606 -0.9999999642376747 0.00022469533015059048
  outer loop
    vertex 2211.266304812701 -744.0573981314313 933.5404221684953
    vertex 2209.266309687572 -744.0580833253202 925.5438449167601
    vertex 2211.266308315697 -744.0573981314301 928.5404221684952
  endloop
endfacet
facet normal -0.00014504019555867606 -0.9999999642376747 0.00022469533015059048
  outer loop
    vertex 2211.266304812701 -744.0573981314313 933.5404221684953
    vertex 2211.266308315697 -744.0573981314301 928.5404221684952
    vertex 2218.266321067132 -744.0573914710095 928.5404246205968
  endloop
endfacet
facet normal -0.00014504019555867606 -0.9999999642376747 0.00022469533015059048
  outer loop
    vertex 2211.266308315697 -744.0573981314301 928.5404221684952
    vertex 2209.266309687572 -744.0580833253202 925.5438449167601
    vertex 2211.2663089455095 -744.0580824410189 925.5438452496008
  endloop
endfacet
facet normal -0.00014504019555867606 -0.9999999642376747 0.00022469533015059048
  outer loop
    vertex 2218.266321067132 -744.0573914710095 928.5404246205968
    vertex 2218.266317564136 -744.0573914710108 933.5404246205969
    vertex 2211.266304812701 -744.0573981314313 933.5404221684953
  endloop
endfacet
facet normal 0.0004902704490343075 0.9999998135851306 -0.00036395685343892464
  outer loop
    vertex 2218.266314521212 -729.0684830677393 928.540421504108
    vertex 2211.266300626993 -729.0684841750543 928.5404221684952
    vertex 2218.2663154703364 -729.0684830677391 933.5404215041079
  endloop
endfacet
facet normal 0.0004902704490343075 0.9999998135851306 -0.00036395685343892464
  outer loop
    vertex 2211.266301712553 -729.062375562253 942.5414108475769
    vertex 2209.2663023181804 -729.0684850593556 925.5404218356545
    vertex 2209.266301712553 -729.0623758519475 942.5414112516869
  endloop
endfacet
facet normal 0.0004902704490343075 0.9999998135851306 -0.00036395685343892464
  outer loop
    vertex 2209.2663023181804 -729.0684850593556 925.5404218356545
    vertex 2211.266301712553 -729.062375562253 942.5414108475769
    vertex 2211.2663015761177 -729.068484175054 933.5404221684952
  endloop
endfacet
facet normal 0.0004902704490343075 0.9999998135851306 -0.00036395685343892464
  outer loop
    vertex 2209.2663023181804 -729.0684850593556 925.5404218356545
    vertex 2211.2663015761177 -729.068484175054 933.5404221684952
    vertex 2211.266300626993 -729.0684841750543 928.5404221684952
  endloop
endfacet
facet normal 0.0004902704490343075 0.9999998135851306 -0.00036395685343892464
  outer loop
    vertex 2211.266300626993 -729.0684841750543 928.5404221684952
    vertex 2211.2663015761177 -729.068484175054 933.5404221684952
    vertex 2218.2663154703364 -729.0684830677391 933.5404215041079
  endloop
endfacet
facet normal 0.0004902704490343075 0.9999998135851306 -0.00036395685343892464
  outer loop
    vertex 2209.2663023181804 -729.0684850593556 925.5404218356545
    vertex 2211.266300626993 -729.0684841750543 928.5404221684952
    vertex 2211.2663015761177 -729.0684841750541 925.5404221684952
  endloop
endfacet
facet normal 0.9999999999999374 3.465136435953411e-07 7.228880565279629e-08
  outer loop
    vertex 2211.2663053721226 -744.054199849978 942.5456276141703
    vertex 2211.2663015761177 -729.068484175054 933.5404221684952
    vertex 2211.266301712553 -729.062375562253 942.5414108475769
  endloop
endfacet
facet normal 0.9999999999999374 3.465136435953411e-07 7.228880565279629e-08
  outer loop
    vertex 2211.2663015761177 -729.068484175054 933.5404221684952
    vertex 2211.2663053721226 -744.054199849978 942.5456276141703
    vertex 2211.2663015761177 -732.0684841750541 933.5404221684952
  endloop
endfacet
facet normal 0.9999999999999374 3.465136435953411e-07 7.228880565279629e-08
  outer loop
    vertex 2211.2663015761177 -732.0684841750541 933.5404221684952
    vertex 2211.2663053721226 -744.054199849978 942.5456276141703
    vertex 2211.2663015761177 -732.0684841750541 928.5404221684952
  endloop
endfacet
facet normal 0.9999999999999374 3.465136435953411e-07 7.228880565279629e-08
  outer loop
    vertex 2211.2663015761177 -732.0684841750541 928.5404221684952
    vertex 2211.2663053721226 -744.054199849978 942.5456276141703
    vertex 2211.2663037086522 -741.0562563126026 933.5404221684953
  endloop
endfacet
facet normal 0.9999999999999374 3.465136435953411e-07 7.228880565279629e-08
  outer loop
    vertex 2211.2663037086522 -741.0562563126026 933.5404221684953
    vertex 2211.2663053721226 -744.054199849978 942.5456276141703
    vertex 2211.266304812701 -744.0573981314313 933.5404221684953
  endloop
endfacet
facet normal 0.9999999999999374 3.465136435953411e-07 7.228880565279629e-08
  outer loop
    vertex 2211.266300626993 -729.0684841750543 928.5404221684952
    vertex 2211.2663089455095 -744.0580824410189 925.5438452496008
    vertex 2211.2663015761177 -729.0684841750541 925.5404221684952
  endloop
endfacet
facet normal 0.9999999999999374 3.465136435953411e-07 7.228880565279629e-08
  outer loop
    vertex 2211.2663089455095 -744.0580824410189 925.5438452496008
    vertex 2211.266300626993 -729.0684841750543 928.5404221684952
    vertex 2211.2663015761177 -732.0684841750541 928.5404221684952
  endloop
endfacet
facet normal 0.9999999999999374 3.465136435953411e-07 7.228880565279629e-08
  outer loop
    vertex 2211.2663089455095 -744.0580824410189 925.5438452496008
    vertex 2211.2663015761177 -732.0684841750541 928.5404221684952
    vertex 2211.2663037086522 -741.0562563126026 928.5404221684952
  endloop
endfacet
facet normal 0.9999999999999374 3.465136435953411e-07 7.228880565279629e-08
  outer loop
    vertex 2211.2663037086522 -741.0562563126026 928.5404221684952
    vertex 2211.2663015761177 -732.0684841750541 928.5404221684952
    vertex 2211.2663037086522 -741.0562563126026 933.5404221684953
  endloop
endfacet
facet normal 0.9999999999999374 3.465136435953411e-07 7.228880565279629e-08
  outer loop
    vertex 2211.2663089455095 -744.0580824410189 925.5438452496008
    vertex 2211.2663037086522 -741.0562563126026 928.5404221684952
    vertex 2211.266308315697 -744.0573981314301 928.5404221684952
  endloop
endfacet
facet normal 1.0107649567805195e-07 -0.0002812710678299934 -0.9999999604432874
  outer loop
    vertex 2215.266301712553 -729.0623740907475 942.5414112514691
    vertex 2211.2663053721226 -744.054199849978 942.5456276141703
    vertex 2211.266301712553 -729.062375562253 942.5414108475769
  endloop
endfacet
facet normal 1.0107649567805195e-07 -0.0002812710678299934 -0.9999999604432874
  outer loop
    vertex 2211.2663053721226 -744.054199849978 942.5456276141703
    vertex 2215.266301712553 -729.0623740907475 942.5414112514691
    vertex 2215.2663053721226 -744.0541983784724 942.5456280180623
  endloop
endfacet
facet normal 9.491247368487654e-08 4.953386492670136e-31 0.9999999999999954
  outer loop
    vertex 2218.2663154703364 -732.0684830677391 933.5404215041082
    vertex 2211.2663015761177 -729.068484175054 933.5404221684952
    vertex 2211.2663015761177 -732.0684841750541 933.5404221684952
  endloop
endfacet
facet normal 9.491247368487654e-08 4.953386492670136e-31 0.9999999999999954
  outer loop
    vertex 2211.2663015761177 -729.068484175054 933.5404221684952
    vertex 2218.2663154703364 -732.0684830677391 933.5404215041082
    vertex 2218.2663154703364 -729.0684830677391 933.5404215041079
  endloop
endfacet
facet normal 1.5818745614144865e-07 -0.9999999999999876 -1.0666585262242861e-30
  outer loop
    vertex 2211.2663015761177 -732.0684841750541 928.5404221684952
    vertex 2218.2663154703364 -732.0684830677391 933.5404215041082
    vertex 2211.2663015761177 -732.0684841750541 933.5404221684952
  endloop
endfacet
facet normal 1.5818745614144865e-07 -0.9999999999999876 -1.0666585262242861e-30
  outer loop
    vertex 2218.2663154703364 -732.0684830677391 933.5404215041082
    vertex 2211.2663015761177 -732.0684841750541 928.5404221684952
    vertex 2218.2663154703364 -732.0684830677391 928.5404215041083
  endloop
endfacet
facet normal -9.491247368487179e-08 -3.002792553660721e-14 -0.9999999999999956
  outer loop
    vertex 2218.266314521212 -729.0684830677393 928.540421504108
    vertex 2211.2663015761177 -732.0684841750541 928.5404221684952
    vertex 2211.266300626993 -729.0684841750543 928.5404221684952
  endloop
endfacet
facet normal -9.491247368487179e-08 -3.002792553660721e-14 -0.9999999999999956
  outer loop
    vertex 2211.2663015761177 -732.0684841750541 928.5404221684952
    vertex 2218.266314521212 -729.0684830677393 928.540421504108
    vertex 2218.2663154703364 -732.0684830677391 928.5404215041083
  endloop
endfacet
facet normal 3.5029961139757283e-07 5.37744046498212e-13 -0.9999999999999386
  outer loop
    vertex 2218.266316460087 -741.056249652182 928.5404246205968
    vertex 2211.266308315697 -744.0573981314301 928.5404221684952
    vertex 2211.2663037086522 -741.0562563126026 928.5404221684952
  endloop
endfacet
facet normal 3.5029961139757283e-07 5.37744046498212e-13 -0.9999999999999386
  outer loop
    vertex 2211.266308315697 -744.0573981314301 928.5404221684952
    vertex 2218.266316460087 -741.056249652182 928.5404246205968
    vertex 2218.266321067132 -744.0573914710095 928.5404246205968
  endloop
endfacet
facet normal -9.514869081787934e-07 0.9999999999995475 3.2512217721144704e-31
  outer loop
    vertex 2218.266316460087 -741.056249652182 928.5404246205968
    vertex 2211.2663037086522 -741.0562563126026 933.5404221684953
    vertex 2218.266316460087 -741.056249652182 933.5404246205969
  endloop
endfacet
facet normal -9.514869081787934e-07 0.9999999999995475 3.2512217721144704e-31
  outer loop
    vertex 2211.2663037086522 -741.0562563126026 933.5404221684953
    vertex 2218.266316460087 -741.056249652182 928.5404246205968
    vertex 2211.2663037086522 -741.0562563126026 928.5404221684952
  endloop
endfacet
facet normal -3.5029961139796194e-07 -1.288669418722359e-13 0.9999999999999386
  outer loop
    vertex 2211.266304812701 -744.0573981314313 933.5404221684953
    vertex 2218.266316460087 -741.056249652182 933.5404246205969
    vertex 2211.2663037086522 -741.0562563126026 933.5404221684953
  endloop
endfacet
facet normal -3.5029961139796194e-07 -1.288669418722359e-13 0.9999999999999386
  outer loop
    vertex 2218.266316460087 -741.056249652182 933.5404246205969
    vertex 2211.266304812701 -744.0573981314313 933.5404221684953
    vertex 2218.266317564136 -744.0573914710108 933.5404246205969
  endloop
endfacet
endsolid Main V1
