solid Main V1
facet normal 1.77635683940025e-15 -1.0877665618948093e-14 1.0
  outer loop
    vertex 2206.066315448552 -672.6556814757125 1007.8000000000047
    vertex 2206.0663154485524 -694.4556814757121 1007.8000000000045
    vertex 2215.2663154485517 -672.6556814757124 1007.8000000000051
  endloop
endfacet
facet normal 1.77635683940025e-15 -1.0877665618948093e-14 1.0
  outer loop
    vertex 2215.2663154485526 -703.8556814757121 1007.8000000000047
    vertex 2206.0663154485524 -694.4556814757121 1007.8000000000045
    vertex 2183.8663154485525 -703.8556814757125 1007.8000000000047
  endloop
endfacet
facet normal 1.77635683940025e-15 -1.0877665618948093e-14 1.0
  outer loop
    vertex 2206.0663154485524 -694.4556814757121 1007.8000000000045
    vertex 2215.2663154485526 -703.8556814757121 1007.8000000000047
    vertex 2215.2663154485517 -672.6556814757124 1007.8000000000051
  endloop
endfacet
facet normal 1.77635683940025e-15 -1.0877665618948093e-14 1.0
  outer loop
    vertex 2183.8663154485525 -703.8556814757125 1007.8000000000047
    vertex 2206.0663154485524 -694.4556814757121 1007.8000000000045
    vertex 2183.8663154485525 -694.4556814757125 1007.8000000000048
  endloop
endfacet
facet normal 1.1146338660448747e-14 -1.0 -1.2534315192222552e-14
  outer loop
    vertex 2213.766315448552 -703.8556814757117 974.8000000000046
    vertex 2183.8663154485525 -703.8556814757119 976.300000000005
    vertex 2185.3663154485525 -703.8556814757119 974.800000000005
  endloop
endfacet
facet normal 1.1146338660448747e-14 -1.0 -1.2534315192222552e-14
  outer loop
    vertex 2183.8663154485525 -703.8556814757119 976.300000000005
    vertex 2213.766315448552 -703.8556814757117 974.8000000000046
    vertex 2183.8663154485525 -703.8556814757125 1007.8000000000047
  endloop
endfacet
facet normal 1.1146338660448747e-14 -1.0 -1.2534315192222552e-14
  outer loop
    vertex 2183.8663154485525 -703.8556814757125 1007.8000000000047
    vertex 2213.766315448552 -703.8556814757117 974.8000000000046
    vertex 2215.266315448552 -703.8556814757117 976.3000000000045
  endloop
endfacet
facet normal 1.1146338660448747e-14 -1.0 -1.2534315192222552e-14
  outer loop
    vertex 2183.8663154485525 -703.8556814757125 1007.8000000000047
    vertex 2215.266315448552 -703.8556814757117 976.3000000000045
    vertex 2215.2663154485526 -703.8556814757121 1007.8000000000047
  endloop
endfacet
facet normal -1.0 -1.7976987725241904e-14 1.6653345369377343e-16
  outer loop
    vertex 2183.8663154485525 -694.4556814757119 976.3000000000048
    vertex 2183.8663154485525 -703.8556814757125 1007.8000000000047
    vertex 2183.8663154485525 -694.4556814757125 1007.8000000000048
  endloop
endfacet
facet normal -1.0 -1.7976987725241904e-14 1.6653345369377343e-16
  outer loop
    vertex 2183.8663154485525 -703.8556814757125 1007.8000000000047
    vertex 2183.8663154485525 -694.4556814757119 976.3000000000048
    vertex 2183.8663154485525 -703.8556814757119 976.300000000005
  endloop
endfacet
facet normal -9.904353656960591e-15 1.0 1.0395709409971263e-14
  outer loop
    vertex 2186.8663154485525 -700.8556814757122 1004.8000000000048
    vertex 2212.266315448552 -700.8556814757117 974.8000000000046
    vertex 2186.866315448552 -700.855681475712 974.8000000000048
  endloop
endfacet
facet normal -9.904353656960591e-15 1.0 1.0395709409971263e-14
  outer loop
    vertex 2212.266315448552 -700.8556814757117 974.8000000000046
    vertex 2186.8663154485525 -700.8556814757122 1004.8000000000048
    vertex 2212.2663154485526 -700.8556814757121 1004.8000000000046
  endloop
endfacet
facet normal 1.0 6.7696062933130066e-15 -1.8873791418627657e-15
  outer loop
    vertex 2186.8663154485525 -700.8556814757122 1004.8000000000048
    vertex 2186.866315448552 -697.4556814757119 974.8000000000048
    vertex 2186.8663154485525 -697.4556814757123 1004.8000000000048
  endloop
endfacet
facet normal 1.0 6.7696062933130066e-15 -1.8873791418627657e-15
  outer loop
    vertex 2186.866315448552 -697.4556814757119 974.8000000000048
    vertex 2186.8663154485525 -700.8556814757122 1004.8000000000048
    vertex 2186.866315448552 -700.855681475712 974.8000000000048
  endloop
endfacet
facet normal 5.82867087928207e-15 2.104984496906023e-14 1.0
  outer loop
    vertex 2208.866315448552 -697.455681475712 1004.8000000000045
    vertex 2212.2663154485526 -700.8556814757121 1004.8000000000046
    vertex 2212.2663154485526 -697.4556814757121 1004.8000000000046
  endloop
endfacet
facet normal 5.82867087928207e-15 2.104984496906023e-14 1.0
  outer loop
    vertex 2212.2663154485526 -700.8556814757121 1004.8000000000046
    vertex 2208.866315448552 -697.455681475712 1004.8000000000045
    vertex 2186.8663154485525 -700.8556814757122 1004.8000000000048
  endloop
endfacet
facet normal 5.82867087928207e-15 2.104984496906023e-14 1.0
  outer loop
    vertex 2186.8663154485525 -700.8556814757122 1004.8000000000048
    vertex 2208.866315448552 -697.455681475712 1004.8000000000045
    vertex 2186.8663154485525 -697.4556814757123 1004.8000000000048
  endloop
endfacet
facet normal 0.7071067811865493 1.6560683407213455e-14 -0.7071067811865459
  outer loop
    vertex 2215.2663154485517 -672.6556814757121 976.300000000005
    vertex 2213.766315448552 -703.8556814757117 974.8000000000046
    vertex 2213.7663154485517 -672.655681475712 974.800000000005
  endloop
endfacet
facet normal 0.7071067811865493 1.6560683407213455e-14 -0.7071067811865459
  outer loop
    vertex 2213.766315448552 -703.8556814757117 974.8000000000046
    vertex 2215.2663154485517 -672.6556814757121 976.300000000005
    vertex 2215.266315448552 -703.8556814757117 976.3000000000045
  endloop
endfacet
facet normal -0.707106781186546 -2.9401876861279563e-14 -0.7071067811865492
  outer loop
    vertex 2185.3663154485525 -703.8556814757119 974.800000000005
    vertex 2183.8663154485525 -694.4556814757119 976.3000000000048
    vertex 2185.3663154485525 -694.455681475712 974.8000000000046
  endloop
endfacet
facet normal -0.707106781186546 -2.9401876861279563e-14 -0.7071067811865492
  outer loop
    vertex 2183.8663154485525 -694.4556814757119 976.3000000000048
    vertex 2185.3663154485525 -703.8556814757119 974.800000000005
    vertex 2183.8663154485525 -703.8556814757119 976.300000000005
  endloop
endfacet
facet normal -9.938833668956362e-15 1.0 9.641727006256764e-15
  outer loop
    vertex 2183.8663154485525 -694.4556814757119 976.3000000000048
    vertex 2206.066315448552 -694.455681475712 974.8000000000046
    vertex 2185.3663154485525 -694.455681475712 974.8000000000046
  endloop
endfacet
facet normal -9.938833668956362e-15 1.0 9.641727006256764e-15
  outer loop
    vertex 2206.066315448552 -694.455681475712 974.8000000000046
    vertex 2183.8663154485525 -694.4556814757119 976.3000000000048
    vertex 2183.8663154485525 -694.4556814757125 1007.8000000000048
  endloop
endfacet
facet normal -9.938833668956362e-15 1.0 9.641727006256764e-15
  outer loop
    vertex 2206.066315448552 -694.455681475712 974.8000000000046
    vertex 2183.8663154485525 -694.4556814757125 1007.8000000000048
    vertex 2206.0663154485524 -694.4556814757121 1007.8000000000045
  endloop
endfacet
facet normal -1.6404424769839203e-14 1.0 1.0045922164713587e-14
  outer loop
    vertex 2206.066315448552 -672.6556814757125 1007.8000000000047
    vertex 2213.7663154485517 -672.655681475712 974.800000000005
    vertex 2206.0663154485514 -672.6556814757123 974.8000000000048
  endloop
endfacet
facet normal -1.6404424769839203e-14 1.0 1.0045922164713587e-14
  outer loop
    vertex 2213.7663154485517 -672.655681475712 974.800000000005
    vertex 2206.066315448552 -672.6556814757125 1007.8000000000047
    vertex 2215.2663154485517 -672.6556814757121 976.300000000005
  endloop
endfacet
facet normal -1.6404424769839203e-14 1.0 1.0045922164713587e-14
  outer loop
    vertex 2215.2663154485517 -672.6556814757121 976.300000000005
    vertex 2206.066315448552 -672.6556814757125 1007.8000000000047
    vertex 2215.2663154485517 -672.6556814757124 1007.8000000000051
  endloop
endfacet
facet normal -1.0 -1.640442476983929e-14 1.0991207943789047e-14
  outer loop
    vertex 2206.0663154485514 -672.6556814757123 974.8000000000048
    vertex 2206.0663154485524 -694.4556814757121 1007.8000000000045
    vertex 2206.066315448552 -672.6556814757125 1007.8000000000047
  endloop
endfacet
facet normal -1.0 -1.640442476983929e-14 1.0991207943789047e-14
  outer loop
    vertex 2206.0663154485524 -694.4556814757121 1007.8000000000045
    vertex 2206.0663154485514 -672.6556814757123 974.8000000000048
    vertex 2206.066315448552 -694.455681475712 974.8000000000046
  endloop
endfacet
facet normal -5.995204332975844e-15 9.330153975584047e-15 -1.0
  outer loop
    vertex 2213.766315448552 -703.8556814757117 974.8000000000046
    vertex 2212.266315448552 -700.8556814757117 974.8000000000046
    vertex 2213.7663154485517 -672.655681475712 974.800000000005
  endloop
endfacet
facet normal -5.995204332975844e-15 9.330153975584047e-15 -1.0
  outer loop
    vertex 2212.266315448552 -700.8556814757117 974.8000000000046
    vertex 2213.766315448552 -703.8556814757117 974.8000000000046
    vertex 2185.3663154485525 -703.8556814757119 974.800000000005
  endloop
endfacet
facet normal -5.995204332975844e-15 9.330153975584047e-15 -1.0
  outer loop
    vertex 2212.266315448552 -700.8556814757117 974.8000000000046
    vertex 2185.3663154485525 -703.8556814757119 974.800000000005
    vertex 2186.866315448552 -700.855681475712 974.8000000000048
  endloop
endfacet
facet normal -5.995204332975844e-15 9.330153975584047e-15 -1.0
  outer loop
    vertex 2186.866315448552 -700.855681475712 974.8000000000048
    vertex 2185.3663154485525 -703.8556814757119 974.800000000005
    vertex 2185.3663154485525 -694.455681475712 974.8000000000046
  endloop
endfacet
facet normal -5.995204332975844e-15 9.330153975584047e-15 -1.0
  outer loop
    vertex 2208.866315448552 -697.4556814757118 974.8000000000048
    vertex 2206.066315448552 -694.455681475712 974.8000000000046
    vertex 2208.866315448552 -675.455681475712 974.8000000000053
  endloop
endfacet
facet normal -5.995204332975844e-15 9.330153975584047e-15 -1.0
  outer loop
    vertex 2206.066315448552 -694.455681475712 974.8000000000046
    vertex 2208.866315448552 -697.4556814757118 974.8000000000048
    vertex 2186.866315448552 -697.4556814757119 974.8000000000048
  endloop
endfacet
facet normal -5.995204332975844e-15 9.330153975584047e-15 -1.0
  outer loop
    vertex 2206.066315448552 -694.455681475712 974.8000000000046
    vertex 2186.866315448552 -697.4556814757119 974.8000000000048
    vertex 2185.3663154485525 -694.455681475712 974.8000000000046
  endloop
endfacet
facet normal -5.995204332975844e-15 9.330153975584047e-15 -1.0
  outer loop
    vertex 2185.3663154485525 -694.455681475712 974.8000000000046
    vertex 2186.866315448552 -697.4556814757119 974.8000000000048
    vertex 2186.866315448552 -700.855681475712 974.8000000000048
  endloop
endfacet
facet normal -5.995204332975844e-15 9.330153975584047e-15 -1.0
  outer loop
    vertex 2213.7663154485517 -672.655681475712 974.800000000005
    vertex 2212.266315448552 -675.455681475712 974.8000000000055
    vertex 2206.0663154485514 -672.6556814757123 974.8000000000048
  endloop
endfacet
facet normal -5.995204332975844e-15 9.330153975584047e-15 -1.0
  outer loop
    vertex 2212.266315448552 -675.455681475712 974.8000000000055
    vertex 2213.7663154485517 -672.655681475712 974.800000000005
    vertex 2212.266315448552 -700.8556814757117 974.8000000000046
  endloop
endfacet
facet normal -5.995204332975844e-15 9.330153975584047e-15 -1.0
  outer loop
    vertex 2206.0663154485514 -672.6556814757123 974.8000000000048
    vertex 2212.266315448552 -675.455681475712 974.8000000000055
    vertex 2208.866315448552 -675.455681475712 974.8000000000053
  endloop
endfacet
facet normal -5.995204332975844e-15 9.330153975584047e-15 -1.0
  outer loop
    vertex 2206.0663154485514 -672.6556814757123 974.8000000000048
    vertex 2208.866315448552 -675.455681475712 974.8000000000053
    vertex 2206.066315448552 -694.455681475712 974.8000000000046
  endloop
endfacet
facet normal 1.0 4.938200656183886e-15 -4.218847493575594e-15
  outer loop
    vertex 2215.2663154485526 -703.8556814757121 1007.8000000000047
    vertex 2215.2663154485517 -672.6556814757121 976.300000000005
    vertex 2215.2663154485517 -672.6556814757124 1007.8000000000051
  endloop
endfacet
facet normal 1.0 4.938200656183886e-15 -4.218847493575594e-15
  outer loop
    vertex 2215.2663154485517 -672.6556814757121 976.300000000005
    vertex 2215.2663154485526 -703.8556814757121 1007.8000000000047
    vertex 2215.266315448552 -703.8556814757117 976.3000000000045
  endloop
endfacet
facet normal 1.5174212280514235e-14 -1.0 -9.643718347958404e-15
  outer loop
    vertex 2212.266315448552 -675.455681475712 974.8000000000055
    vertex 2208.866315448552 -675.4556814757124 1004.8000000000054
    vertex 2208.866315448552 -675.455681475712 974.8000000000053
  endloop
endfacet
facet normal 1.5174212280514235e-14 -1.0 -9.643718347958404e-15
  outer loop
    vertex 2208.866315448552 -675.4556814757124 1004.8000000000054
    vertex 2212.266315448552 -675.455681475712 974.8000000000055
    vertex 2212.266315448552 -675.4556814757124 1004.8000000000054
  endloop
endfacet
facet normal -1.0 -1.2421344765116773e-14 7.216449660063515e-16
  outer loop
    vertex 2212.266315448552 -675.455681475712 974.8000000000055
    vertex 2212.2663154485526 -697.4556814757121 1004.8000000000046
    vertex 2212.266315448552 -675.4556814757124 1004.8000000000054
  endloop
endfacet
facet normal -1.0 -1.2421344765116773e-14 7.216449660063515e-16
  outer loop
    vertex 2212.2663154485526 -697.4556814757121 1004.8000000000046
    vertex 2212.266315448552 -675.455681475712 974.8000000000055
    vertex 2212.266315448552 -700.8556814757117 974.8000000000046
  endloop
endfacet
facet normal -1.0 -1.2421344765116773e-14 7.216449660063515e-16
  outer loop
    vertex 2212.2663154485526 -697.4556814757121 1004.8000000000046
    vertex 2212.266315448552 -700.8556814757117 974.8000000000046
    vertex 2212.2663154485526 -700.8556814757121 1004.8000000000046
  endloop
endfacet
facet normal -3.813616089587412e-14 -3.61634765349046e-14 1.0
  outer loop
    vertex 2212.266315448552 -675.4556814757124 1004.8000000000054
    vertex 2208.866315448552 -697.455681475712 1004.8000000000045
    vertex 2212.2663154485526 -697.4556814757121 1004.8000000000046
  endloop
endfacet
facet normal -3.813616089587412e-14 -3.61634765349046e-14 1.0
  outer loop
    vertex 2208.866315448552 -697.455681475712 1004.8000000000045
    vertex 2212.266315448552 -675.4556814757124 1004.8000000000054
    vertex 2208.866315448552 -675.4556814757124 1004.8000000000054
  endloop
endfacet
facet normal 7.247820005244987e-15 -1.0 -5.8837630378944705e-15
  outer loop
    vertex 2208.866315448552 -697.4556814757118 974.8000000000048
    vertex 2186.8663154485525 -697.4556814757123 1004.8000000000048
    vertex 2186.866315448552 -697.4556814757119 974.8000000000048
  endloop
endfacet
facet normal 7.247820005244987e-15 -1.0 -5.8837630378944705e-15
  outer loop
    vertex 2186.8663154485525 -697.4556814757123 1004.8000000000048
    vertex 2208.866315448552 -697.4556814757118 974.8000000000048
    vertex 2208.866315448552 -697.455681475712 1004.8000000000045
  endloop
endfacet
facet normal 1.0 -5.039859386434522e-15 7.0499162063697425e-15
  outer loop
    vertex 2208.866315448552 -697.455681475712 1004.8000000000045
    vertex 2208.866315448552 -675.455681475712 974.8000000000053
    vertex 2208.866315448552 -675.4556814757124 1004.8000000000054
  endloop
endfacet
facet normal 1.0 -5.039859386434522e-15 7.0499162063697425e-15
  outer loop
    vertex 2208.866315448552 -675.455681475712 974.8000000000053
    vertex 2208.866315448552 -697.455681475712 1004.8000000000045
    vertex 2208.866315448552 -697.4556814757118 974.8000000000048
  endloop
endfacet
endsolid Main V1
