solid Main V1
facet normal 1.2676974457961913e-14 0.9998476951563913 -0.017452406437288265
  outer loop
    vertex 2215.266315448551 -655.5149228739465 805.487976825161
    vertex 2212.266315448551 -655.8081233020928 788.6905355465337
    vertex 2212.266315448551 -655.5149228739464 805.487976825161
  endloop
endfacet
facet normal 1.2676974457961913e-14 0.9998476951563913 -0.017452406437288265
  outer loop
    vertex 2212.266315448551 -655.8081233020928 788.6905355465337
    vertex 2215.266315448551 -655.5149228739465 805.487976825161
    vertex 2215.266315448551 -655.7034088634691 794.6896217174722
  endloop
endfacet
facet normal 1.2676974457961913e-14 0.9998476951563913 -0.017452406437288265
  outer loop
    vertex 2212.266315448551 -655.8081233020928 788.6905355465337
    vertex 2215.266315448551 -655.7034088634691 794.6896217174722
    vertex 2218.4663154485506 -655.755766082781 791.690078632003
  endloop
endfacet
facet normal 1.2676974457961913e-14 0.9998476951563913 -0.017452406437288265
  outer loop
    vertex 2212.266315448551 -655.8081233020928 788.6905355465337
    vertex 2218.4663154485506 -655.755766082781 791.690078632003
    vertex 2237.466315448551 -655.8081233020932 788.6905355465337
  endloop
endfacet
facet normal 1.2676974457961913e-14 0.9998476951563913 -0.017452406437288265
  outer loop
    vertex 2237.466315448551 -655.8081233020932 788.6905355465337
    vertex 2218.4663154485506 -655.755766082781 791.690078632003
    vertex 2231.4663154485506 -655.7557660827813 791.6900786320028
  endloop
endfacet
facet normal 1.2676974457961913e-14 0.9998476951563913 -0.017452406437288265
  outer loop
    vertex 2237.466315448551 -655.8081233020932 788.6905355465337
    vertex 2231.4663154485506 -655.7557660827813 791.6900786320028
    vertex 2234.4663154485506 -655.6929374196071 795.2895303345657
  endloop
endfacet
facet normal 1.2676974457961913e-14 0.9998476951563913 -0.017452406437288265
  outer loop
    vertex 2237.466315448551 -655.8081233020932 788.6905355465337
    vertex 2234.4663154485506 -655.6929374196071 795.2895303345657
    vertex 2240.466315448551 -655.6929374196071 795.2895303345658
  endloop
endfacet
facet normal 1.2676974457961913e-14 0.9998476951563913 -0.017452406437288265
  outer loop
    vertex 2237.466315448551 -655.8081233020932 788.6905355465337
    vertex 2240.466315448551 -655.6929374196071 795.2895303345658
    vertex 2237.466315448551 -655.86746148398 785.2910533830018
  endloop
endfacet
facet normal 1.2676974457961913e-14 0.9998476951563913 -0.017452406437288265
  outer loop
    vertex 2215.4663154485515 -655.8674614839797 785.2910533830019
    vertex 2218.466315448551 -655.9721759226034 779.2919672120636
    vertex 2215.4663154485515 -656.2514144256 763.2944040895613
  endloop
endfacet
facet normal 1.2676974457961913e-14 0.9998476951563913 -0.017452406437288265
  outer loop
    vertex 2218.466315448551 -655.9721759226034 779.2919672120636
    vertex 2215.4663154485515 -655.8674614839797 785.2910533830019
    vertex 2221.466315448551 -655.9198187032915 782.2915102975328
  endloop
endfacet
facet normal 1.2676974457961913e-14 0.9998476951563913 -0.017452406437288265
  outer loop
    vertex 2221.466315448551 -655.9198187032915 782.2915102975328
    vertex 2215.4663154485515 -655.8674614839797 785.2910533830019
    vertex 2237.2663154485513 -655.8674614839799 785.2910533830018
  endloop
endfacet
facet normal 1.2676974457961913e-14 0.9998476951563913 -0.017452406437288265
  outer loop
    vertex 2221.466315448551 -655.9198187032915 782.2915102975328
    vertex 2237.2663154485513 -655.8674614839799 785.2910533830018
    vertex 2231.4663154485506 -655.919818703292 782.2915102975328
  endloop
endfacet
facet normal 1.2676974457961913e-14 0.9998476951563913 -0.017452406437288265
  outer loop
    vertex 2231.4663154485506 -655.919818703292 782.2915102975328
    vertex 2237.2663154485513 -655.8674614839799 785.2910533830018
    vertex 2234.466315448551 -655.9721759226036 779.2919672120635
  endloop
endfacet
facet normal 1.2676974457961913e-14 0.9998476951563913 -0.017452406437288265
  outer loop
    vertex 2234.466315448551 -655.9721759226036 779.2919672120635
    vertex 2237.2663154485513 -655.8674614839799 785.2910533830018
    vertex 2240.466315448551 -655.9721759226037 779.2919672120635
  endloop
endfacet
facet normal 1.2676974457961913e-14 0.9998476951563913 -0.017452406437288265
  outer loop
    vertex 2240.466315448551 -655.9721759226037 779.2919672120635
    vertex 2237.2663154485513 -655.8674614839799 785.2910533830018
    vertex 2237.466315448551 -655.86746148398 785.2910533830018
  endloop
endfacet
facet normal 1.2676974457961913e-14 0.9998476951563913 -0.017452406437288265
  outer loop
    vertex 2240.466315448551 -655.9721759226037 779.2919672120635
    vertex 2237.466315448551 -655.86746148398 785.2910533830018
    vertex 2240.466315448551 -655.6929374196071 795.2895303345658
  endloop
endfacet
facet normal 1.2676974457961913e-14 0.9998476951563913 -0.017452406437288265
  outer loop
    vertex 2240.466315448551 -655.9721759226037 779.2919672120635
    vertex 2240.466315448551 -655.6929374196071 795.2895303345658
    vertex 2243.466315448551 -655.7452946389191 792.2899872490965
  endloop
endfacet
facet normal 1.2676974457961913e-14 0.9998476951563913 -0.017452406437288265
  outer loop
    vertex 2240.466315448551 -655.9721759226037 779.2919672120635
    vertex 2243.466315448551 -655.7452946389191 792.2899872490965
    vertex 2243.466315448551 -655.9198187032919 782.2915102975328
  endloop
endfacet
facet normal 1.2676974457961913e-14 0.9998476951563913 -0.017452406437288265
  outer loop
    vertex 2215.4663154485515 -656.2514144256 763.2944040895613
    vertex 2212.2663154485517 -656.5446148537465 746.4969628109336
    vertex 2212.2663154485517 -656.2514144255999 763.2944040895613
  endloop
endfacet
facet normal 1.2676974457961913e-14 0.9998476951563913 -0.017452406437288265
  outer loop
    vertex 2212.2663154485517 -656.5446148537465 746.4969628109336
    vertex 2215.4663154485515 -656.2514144256 763.2944040895613
    vertex 2215.2663154485513 -656.3596193455111 757.0953483795918
  endloop
endfacet
facet normal 1.2676974457961913e-14 0.9998476951563913 -0.017452406437288265
  outer loop
    vertex 2215.2663154485513 -656.3596193455111 757.0953483795918
    vertex 2215.4663154485515 -656.2514144256 763.2944040895613
    vertex 2218.4663154485506 -656.3037716449116 760.2948610040922
  endloop
endfacet
facet normal 1.2676974457961913e-14 0.9998476951563913 -0.017452406437288265
  outer loop
    vertex 2218.4663154485506 -656.3037716449116 760.2948610040922
    vertex 2215.4663154485515 -656.2514144256 763.2944040895613
    vertex 2218.466315448551 -655.9721759226034 779.2919672120636
  endloop
endfacet
facet normal 1.2676974457961913e-14 0.9998476951563913 -0.017452406437288265
  outer loop
    vertex 2215.2663154485517 -656.5446148537466 746.4969628109337
    vertex 2212.2663154485517 -656.5446148537465 746.4969628109336
    vertex 2215.2663154485513 -656.3596193455111 757.0953483795918
  endloop
endfacet
facet normal 3.8825095900160566e-15 0.01745240643728766 0.9998476951563913
  outer loop
    vertex 2240.4663154485506 -720.6830376047725 796.4239367529894
    vertex 2234.4663154485506 -655.6929374196071 795.2895303345657
    vertex 2234.4663154485506 -720.6830376047725 796.4239367529893
  endloop
endfacet
facet normal 3.8825095900160566e-15 0.01745240643728766 0.9998476951563913
  outer loop
    vertex 2234.4663154485506 -655.6929374196071 795.2895303345657
    vertex 2240.4663154485506 -720.6830376047725 796.4239367529894
    vertex 2240.466315448551 -655.6929374196071 795.2895303345658
  endloop
endfacet
facet normal -0.7682212795973606 0.011172758337764719 0.6400868964796261
  outer loop
    vertex 2231.4663154485506 -655.7557660827813 791.6900786320028
    vertex 2234.4663154485506 -720.6830376047725 796.4239367529893
    vertex 2234.4663154485506 -655.6929374196071 795.2895303345657
  endloop
endfacet
facet normal -0.7682212795973606 0.011172758337764719 0.6400868964796261
  outer loop
    vertex 2234.4663154485506 -720.6830376047725 796.4239367529893
    vertex 2231.4663154485506 -655.7557660827813 791.6900786320028
    vertex 2231.4663154485506 -720.7458662679467 792.8244850504265
  endloop
endfacet
facet normal 3.8825095900160566e-15 0.01745240643728766 0.9998476951563913
  outer loop
    vertex 2231.4663154485506 -720.7458662679467 792.8244850504265
    vertex 2218.4663154485506 -655.755766082781 791.690078632003
    vertex 2218.4663154485506 -720.7458662679466 792.8244850504265
  endloop
endfacet
facet normal 3.8825095900160566e-15 0.01745240643728766 0.9998476951563913
  outer loop
    vertex 2218.4663154485506 -655.755766082781 791.690078632003
    vertex 2231.4663154485506 -720.7458662679467 792.8244850504265
    vertex 2231.4663154485506 -655.7557660827813 791.6900786320028
  endloop
endfacet
facet normal 0.683941128881328 0.012732179797767378 0.7294260920903037
  outer loop
    vertex 2218.4663154485506 -655.755766082781 791.690078632003
    vertex 2215.2663154485504 -720.6935090486344 795.8240281358958
    vertex 2218.4663154485506 -720.7458662679466 792.8244850504265
  endloop
endfacet
facet normal 0.683941128881328 0.012732179797767378 0.7294260920903037
  outer loop
    vertex 2215.2663154485504 -720.6935090486344 795.8240281358958
    vertex 2218.4663154485506 -655.755766082781 791.690078632003
    vertex 2215.266315448551 -655.7034088634691 794.6896217174722
  endloop
endfacet
facet normal -1.0 1.1522413639808741e-14 4.5379948803402634e-15
  outer loop
    vertex 2212.2663154485513 -658.4621087401036 808.5398771299422
    vertex 2212.266315448551 -720.5050230591117 806.6223832435847
    vertex 2212.2663154485504 -717.4531227543306 809.569569109742
  endloop
endfacet
facet normal -1.0 1.1522413639808741e-14 4.5379948803402634e-15
  outer loop
    vertex 2212.266315448551 -720.5050230591117 806.6223832435847
    vertex 2212.2663154485513 -658.4621087401036 808.5398771299422
    vertex 2212.266315448551 -655.5149228739464 805.487976825161
  endloop
endfacet
facet normal -1.0 1.1522413639808741e-14 4.5379948803402634e-15
  outer loop
    vertex 2212.266315448551 -720.5050230591117 806.6223832435847
    vertex 2212.266315448551 -655.5149228739464 805.487976825161
    vertex 2212.2663154485504 -720.798223487258 789.8249419649574
  endloop
endfacet
facet normal -1.0 1.1522413639808741e-14 4.5379948803402634e-15
  outer loop
    vertex 2212.2663154485504 -720.798223487258 789.8249419649574
    vertex 2212.266315448551 -655.5149228739464 805.487976825161
    vertex 2212.266315448551 -655.8081233020928 788.6905355465337
  endloop
endfacet
facet normal -3.8825095900160566e-15 -0.01745240643728766 -0.9998476951563913
  outer loop
    vertex 2212.2663154485504 -720.798223487258 789.8249419649574
    vertex 2237.466315448551 -655.8081233020932 788.6905355465337
    vertex 2237.4663154485506 -720.7982234872585 789.8249419649572
  endloop
endfacet
facet normal -3.8825095900160566e-15 -0.01745240643728766 -0.9998476951563913
  outer loop
    vertex 2237.466315448551 -655.8081233020932 788.6905355465337
    vertex 2212.2663154485504 -720.798223487258 789.8249419649574
    vertex 2212.266315448551 -655.8081233020928 788.6905355465337
  endloop
endfacet
facet normal -1.0 1.1648216244015479e-14 3.679780634270097e-15
  outer loop
    vertex 2237.466315448551 -655.86746148398 785.2910533830018
    vertex 2237.4663154485506 -720.7982234872585 789.8249419649572
    vertex 2237.466315448551 -655.8081233020932 788.6905355465337
  endloop
endfacet
facet normal -1.0 1.1648216244015479e-14 3.679780634270097e-15
  outer loop
    vertex 2237.4663154485506 -720.7982234872585 789.8249419649572
    vertex 2237.466315448551 -655.86746148398 785.2910533830018
    vertex 2237.4663154485506 -720.8575616691451 786.4254598014255
  endloop
endfacet
facet normal 3.8825095900160566e-15 0.01745240643728766 0.9998476951563913
  outer loop
    vertex 2237.466315448551 -655.86746148398 785.2910533830018
    vertex 2237.266315448551 -720.8575616691451 786.4254598014255
    vertex 2237.4663154485506 -720.8575616691451 786.4254598014255
  endloop
endfacet
facet normal 3.8825095900160566e-15 0.01745240643728766 0.9998476951563913
  outer loop
    vertex 2237.266315448551 -720.8575616691451 786.4254598014255
    vertex 2237.466315448551 -655.86746148398 785.2910533830018
    vertex 2237.2663154485513 -655.8674614839799 785.2910533830018
  endloop
endfacet
facet normal 3.8825095900160566e-15 0.01745240643728766 0.9998476951563913
  outer loop
    vertex 2237.2663154485513 -655.8674614839799 785.2910533830018
    vertex 2215.466315448551 -720.8575616691448 786.4254598014256
    vertex 2237.266315448551 -720.8575616691451 786.4254598014255
  endloop
endfacet
facet normal 3.8825095900160566e-15 0.01745240643728766 0.9998476951563913
  outer loop
    vertex 2215.466315448551 -720.8575616691448 786.4254598014256
    vertex 2237.2663154485513 -655.8674614839799 785.2910533830018
    vertex 2215.4663154485515 -655.8674614839797 785.2910533830019
  endloop
endfacet
facet normal -1.0 1.3001121813696432e-14 5.99816533147806e-15
  outer loop
    vertex 2215.4663154485515 -655.8674614839797 785.2910533830019
    vertex 2215.4663154485506 -721.2415146107651 764.4288105079848
    vertex 2215.466315448551 -720.8575616691448 786.4254598014256
  endloop
endfacet
facet normal -1.0 1.3001121813696432e-14 5.99816533147806e-15
  outer loop
    vertex 2215.4663154485506 -721.2415146107651 764.4288105079848
    vertex 2215.4663154485515 -655.8674614839797 785.2910533830019
    vertex 2215.4663154485515 -656.2514144256 763.2944040895613
  endloop
endfacet
facet normal 3.8825095900160566e-15 0.01745240643728766 0.9998476951563913
  outer loop
    vertex 2215.4663154485506 -721.2415146107651 764.4288105079848
    vertex 2212.2663154485517 -656.2514144255999 763.2944040895613
    vertex 2212.266315448551 -721.2415146107651 764.4288105079848
  endloop
endfacet
facet normal 3.8825095900160566e-15 0.01745240643728766 0.9998476951563913
  outer loop
    vertex 2212.2663154485517 -656.2514144255999 763.2944040895613
    vertex 2215.4663154485506 -721.2415146107651 764.4288105079848
    vertex 2215.4663154485515 -656.2514144256 763.2944040895613
  endloop
endfacet
facet normal -1.0 1.4950063302118413e-14 -6.853174229913536e-15
  outer loop
    vertex 2212.2663154485517 -656.5446148537465 746.4969628109336
    vertex 2212.266315448551 -721.2415146107651 764.4288105079848
    vertex 2212.2663154485517 -656.2514144255999 763.2944040895613
  endloop
endfacet
facet normal -1.0 1.4950063302118413e-14 -6.853174229913536e-15
  outer loop
    vertex 2212.266315448551 -721.2415146107651 764.4288105079848
    vertex 2212.2663154485517 -656.5446148537465 746.4969628109336
    vertex 2212.266315448551 -721.534715038912 747.6313692293573
  endloop
endfacet
facet normal -1.0 1.4950063302118413e-14 -6.853174229913536e-15
  outer loop
    vertex 2212.266315448551 -721.534715038912 747.6313692293573
    vertex 2212.2663154485517 -656.5446148537465 746.4969628109336
    vertex 2212.266315448551 -718.5875291727549 744.5794689245762
  endloop
endfacet
facet normal -1.0 1.4950063302118413e-14 -6.853174229913536e-15
  outer loop
    vertex 2212.266315448551 -718.5875291727549 744.5794689245762
    vertex 2212.2663154485517 -656.5446148537465 746.4969628109336
    vertex 2212.2663154485517 -659.5965151585276 743.5497769447766
  endloop
endfacet
facet normal 0.7071067811865746 -0.012340714939837578 -0.706999085398797
  outer loop
    vertex 2218.4663154485506 -721.293871830077 761.4292674225157
    vertex 2215.2663154485513 -656.3596193455111 757.0953483795918
    vertex 2218.4663154485506 -656.3037716449116 760.2948610040922
  endloop
endfacet
facet normal 0.7071067811865746 -0.012340714939837578 -0.706999085398797
  outer loop
    vertex 2215.2663154485513 -656.3596193455111 757.0953483795918
    vertex 2218.4663154485506 -721.293871830077 761.4292674225157
    vertex 2215.266315448551 -721.3497195306762 758.2297547980153
  endloop
endfacet
facet normal 1.0 -1.1648216244015479e-14 -3.679780634270097e-15
  outer loop
    vertex 2218.4663154485506 -720.9622761077686 780.426373630487
    vertex 2218.4663154485506 -656.3037716449116 760.2948610040922
    vertex 2218.466315448551 -655.9721759226034 779.2919672120636
  endloop
endfacet
facet normal 1.0 -1.1648216244015479e-14 -3.679780634270097e-15
  outer loop
    vertex 2218.4663154485506 -656.3037716449116 760.2948610040922
    vertex 2218.4663154485506 -720.9622761077686 780.426373630487
    vertex 2218.4663154485506 -721.293871830077 761.4292674225157
  endloop
endfacet
facet normal 0.7071067811865447 -0.012340714939836895 -0.7069990853988268
  outer loop
    vertex 2218.466315448551 -655.9721759226034 779.2919672120636
    vertex 2221.466315448551 -720.9099188884568 783.4259167159564
    vertex 2218.4663154485506 -720.9622761077686 780.426373630487
  endloop
endfacet
facet normal 0.7071067811865447 -0.012340714939836895 -0.7069990853988268
  outer loop
    vertex 2221.466315448551 -720.9099188884568 783.4259167159564
    vertex 2218.466315448551 -655.9721759226034 779.2919672120636
    vertex 2221.466315448551 -655.9198187032915 782.2915102975328
  endloop
endfacet
facet normal -3.8825095900160306e-15 -0.01745240643728555 -0.9998476951563913
  outer loop
    vertex 2221.466315448551 -655.9198187032915 782.2915102975328
    vertex 2231.4663154485506 -720.9099188884569 783.4259167159563
    vertex 2221.466315448551 -720.9099188884568 783.4259167159564
  endloop
endfacet
facet normal -3.8825095900160306e-15 -0.01745240643728555 -0.9998476951563913
  outer loop
    vertex 2231.4663154485506 -720.9099188884569 783.4259167159563
    vertex 2221.466315448551 -655.9198187032915 782.2915102975328
    vertex 2231.4663154485506 -655.919818703292 782.2915102975328
  endloop
endfacet
facet normal -0.7071067811865502 -0.012340714939821617 -0.7069990853988216
  outer loop
    vertex 2234.466315448551 -655.9721759226036 779.2919672120635
    vertex 2231.4663154485506 -720.9099188884569 783.4259167159563
    vertex 2231.4663154485506 -655.919818703292 782.2915102975328
  endloop
endfacet
facet normal -0.7071067811865502 -0.012340714939821617 -0.7069990853988216
  outer loop
    vertex 2231.4663154485506 -720.9099188884569 783.4259167159563
    vertex 2234.466315448551 -655.9721759226036 779.2919672120635
    vertex 2234.4663154485506 -720.9622761077688 780.4263736304872
  endloop
endfacet
facet normal -3.8825095900160566e-15 -0.01745240643728766 -0.9998476951563913
  outer loop
    vertex 2234.4663154485506 -720.9622761077688 780.4263736304872
    vertex 2240.466315448551 -655.9721759226037 779.2919672120635
    vertex 2240.46631544855 -720.9622761077691 780.4263736304871
  endloop
endfacet
facet normal -3.8825095900160566e-15 -0.01745240643728766 -0.9998476951563913
  outer loop
    vertex 2240.466315448551 -655.9721759226037 779.2919672120635
    vertex 2234.4663154485506 -720.9622761077688 780.4263736304872
    vertex 2234.466315448551 -655.9721759226036 779.2919672120635
  endloop
endfacet
facet normal 0.7071067811865447 -0.012340714939838099 -0.7069990853988268
  outer loop
    vertex 2240.466315448551 -655.9721759226037 779.2919672120635
    vertex 2243.4663154485506 -720.9099188884571 783.4259167159563
    vertex 2240.46631544855 -720.9622761077691 780.4263736304871
  endloop
endfacet
facet normal 0.7071067811865447 -0.012340714939838099 -0.7069990853988268
  outer loop
    vertex 2243.4663154485506 -720.9099188884571 783.4259167159563
    vertex 2240.466315448551 -655.9721759226037 779.2919672120635
    vertex 2243.466315448551 -655.9198187032919 782.2915102975328
  endloop
endfacet
facet normal 1.0 -1.1648216244015479e-14 -3.679780634270097e-15
  outer loop
    vertex 2243.4663154485506 -720.9099188884571 783.4259167159563
    vertex 2243.466315448551 -655.7452946389191 792.2899872490965
    vertex 2243.4663154485506 -720.735394824084 793.4243936675202
  endloop
endfacet
facet normal 1.0 -1.1648216244015479e-14 -3.679780634270097e-15
  outer loop
    vertex 2243.466315448551 -655.7452946389191 792.2899872490965
    vertex 2243.4663154485506 -720.9099188884571 783.4259167159563
    vertex 2243.466315448551 -655.9198187032919 782.2915102975328
  endloop
endfacet
facet normal 0.7071067811865609 0.012340714939821432 0.706999085398811
  outer loop
    vertex 2243.4663154485506 -720.735394824084 793.4243936675202
    vertex 2240.466315448551 -655.6929374196071 795.2895303345658
    vertex 2240.4663154485506 -720.6830376047725 796.4239367529894
  endloop
endfacet
facet normal 0.7071067811865609 0.012340714939821432 0.706999085398811
  outer loop
    vertex 2240.466315448551 -655.6929374196071 795.2895303345658
    vertex 2243.4663154485506 -720.735394824084 793.4243936675202
    vertex 2243.466315448551 -655.7452946389191 792.2899872490965
  endloop
endfacet
facet normal 1.0 -1.1631644495784334e-14 -2.0395054843595797e-15
  outer loop
    vertex 2215.266315448551 -720.5050230591119 806.6223832435847
    vertex 2215.2663154485513 -658.4621087401038 808.5398771299422
    vertex 2215.2663154485504 -717.4531227543306 809.569569109742
  endloop
endfacet
facet normal 1.0 -1.1631644495784334e-14 -2.0395054843595797e-15
  outer loop
    vertex 2215.2663154485513 -658.4621087401038 808.5398771299422
    vertex 2215.266315448551 -720.5050230591119 806.6223832435847
    vertex 2215.266315448551 -655.5149228739465 805.487976825161
  endloop
endfacet
facet normal 1.0 -1.1631644495784334e-14 -2.0395054843595797e-15
  outer loop
    vertex 2215.266315448551 -655.5149228739465 805.487976825161
    vertex 2215.266315448551 -720.5050230591119 806.6223832435847
    vertex 2215.2663154485504 -720.6935090486344 795.8240281358958
  endloop
endfacet
facet normal 1.0 -1.1631644495784334e-14 -2.0395054843595797e-15
  outer loop
    vertex 2215.266315448551 -655.5149228739465 805.487976825161
    vertex 2215.2663154485504 -720.6935090486344 795.8240281358958
    vertex 2215.266315448551 -655.7034088634691 794.6896217174722
  endloop
endfacet
facet normal 3.997982832229858e-15 0.017452406437285434 0.9998476951563913
  outer loop
    vertex 2215.2663154485513 -658.4621087401038 808.5398771299422
    vertex 2212.2663154485504 -717.4531227543306 809.569569109742
    vertex 2215.2663154485504 -717.4531227543306 809.569569109742
  endloop
endfacet
facet normal 3.997982832229858e-15 0.017452406437285434 0.9998476951563913
  outer loop
    vertex 2212.2663154485504 -717.4531227543306 809.569569109742
    vertex 2215.2663154485513 -658.4621087401038 808.5398771299422
    vertex 2212.2663154485513 -658.4621087401036 808.5398771299422
  endloop
endfacet
facet normal -1.1920179236367733e-14 -0.9998476951563912 0.017452406437288945
  outer loop
    vertex 2215.266315448551 -721.5347150389123 747.6313692293573
    vertex 2212.266315448551 -721.2415146107651 764.4288105079848
    vertex 2212.266315448551 -721.534715038912 747.6313692293573
  endloop
endfacet
facet normal -1.1920179236367733e-14 -0.9998476951563912 0.017452406437288945
  outer loop
    vertex 2212.266315448551 -721.2415146107651 764.4288105079848
    vertex 2215.266315448551 -721.5347150389123 747.6313692293573
    vertex 2215.266315448551 -721.3497195306762 758.2297547980153
  endloop
endfacet
facet normal -1.1920179236367733e-14 -0.9998476951563912 0.017452406437288945
  outer loop
    vertex 2212.266315448551 -721.2415146107651 764.4288105079848
    vertex 2215.266315448551 -721.3497195306762 758.2297547980153
    vertex 2215.4663154485506 -721.2415146107651 764.4288105079848
  endloop
endfacet
facet normal -1.1920179236367733e-14 -0.9998476951563912 0.017452406437288945
  outer loop
    vertex 2215.4663154485506 -721.2415146107651 764.4288105079848
    vertex 2215.266315448551 -721.3497195306762 758.2297547980153
    vertex 2218.4663154485506 -721.293871830077 761.4292674225157
  endloop
endfacet
facet normal -1.1920179236367733e-14 -0.9998476951563912 0.017452406437288945
  outer loop
    vertex 2215.4663154485506 -721.2415146107651 764.4288105079848
    vertex 2218.4663154485506 -721.293871830077 761.4292674225157
    vertex 2215.466315448551 -720.8575616691448 786.4254598014256
  endloop
endfacet
facet normal -1.1920179236367733e-14 -0.9998476951563912 0.017452406437288945
  outer loop
    vertex 2215.466315448551 -720.8575616691448 786.4254598014256
    vertex 2218.4663154485506 -721.293871830077 761.4292674225157
    vertex 2218.4663154485506 -720.9622761077686 780.426373630487
  endloop
endfacet
facet normal -1.1920179236367733e-14 -0.9998476951563912 0.017452406437288945
  outer loop
    vertex 2215.466315448551 -720.8575616691448 786.4254598014256
    vertex 2218.4663154485506 -720.9622761077686 780.426373630487
    vertex 2221.466315448551 -720.9099188884568 783.4259167159564
  endloop
endfacet
facet normal -1.1920179236367733e-14 -0.9998476951563912 0.017452406437288945
  outer loop
    vertex 2215.466315448551 -720.8575616691448 786.4254598014256
    vertex 2221.466315448551 -720.9099188884568 783.4259167159564
    vertex 2237.266315448551 -720.8575616691451 786.4254598014255
  endloop
endfacet
facet normal -1.1920179236367733e-14 -0.9998476951563912 0.017452406437288945
  outer loop
    vertex 2237.266315448551 -720.8575616691451 786.4254598014255
    vertex 2221.466315448551 -720.9099188884568 783.4259167159564
    vertex 2231.4663154485506 -720.9099188884569 783.4259167159563
  endloop
endfacet
facet normal -1.1920179236367733e-14 -0.9998476951563912 0.017452406437288945
  outer loop
    vertex 2237.266315448551 -720.8575616691451 786.4254598014255
    vertex 2231.4663154485506 -720.9099188884569 783.4259167159563
    vertex 2234.4663154485506 -720.9622761077688 780.4263736304872
  endloop
endfacet
facet normal -1.1920179236367733e-14 -0.9998476951563912 0.017452406437288945
  outer loop
    vertex 2237.266315448551 -720.8575616691451 786.4254598014255
    vertex 2234.4663154485506 -720.9622761077688 780.4263736304872
    vertex 2240.46631544855 -720.9622761077691 780.4263736304871
  endloop
endfacet
facet normal -1.1920179236367733e-14 -0.9998476951563912 0.017452406437288945
  outer loop
    vertex 2237.266315448551 -720.8575616691451 786.4254598014255
    vertex 2240.46631544855 -720.9622761077691 780.4263736304871
    vertex 2237.4663154485506 -720.8575616691451 786.4254598014255
  endloop
endfacet
facet normal -1.1920179236367733e-14 -0.9998476951563912 0.017452406437288945
  outer loop
    vertex 2237.4663154485506 -720.8575616691451 786.4254598014255
    vertex 2240.46631544855 -720.9622761077691 780.4263736304871
    vertex 2237.4663154485506 -720.7982234872585 789.8249419649572
  endloop
endfacet
facet normal -1.1920179236367733e-14 -0.9998476951563912 0.017452406437288945
  outer loop
    vertex 2212.2663154485504 -720.798223487258 789.8249419649574
    vertex 2215.2663154485504 -720.6935090486344 795.8240281358958
    vertex 2212.266315448551 -720.5050230591117 806.6223832435847
  endloop
endfacet
facet normal -1.1920179236367733e-14 -0.9998476951563912 0.017452406437288945
  outer loop
    vertex 2215.2663154485504 -720.6935090486344 795.8240281358958
    vertex 2212.2663154485504 -720.798223487258 789.8249419649574
    vertex 2218.4663154485506 -720.7458662679466 792.8244850504265
  endloop
endfacet
facet normal -1.1920179236367733e-14 -0.9998476951563912 0.017452406437288945
  outer loop
    vertex 2218.4663154485506 -720.7458662679466 792.8244850504265
    vertex 2212.2663154485504 -720.798223487258 789.8249419649574
    vertex 2237.4663154485506 -720.7982234872585 789.8249419649572
  endloop
endfacet
facet normal -1.1920179236367733e-14 -0.9998476951563912 0.017452406437288945
  outer loop
    vertex 2218.4663154485506 -720.7458662679466 792.8244850504265
    vertex 2237.4663154485506 -720.7982234872585 789.8249419649572
    vertex 2231.4663154485506 -720.7458662679467 792.8244850504265
  endloop
endfacet
facet normal -1.1920179236367733e-14 -0.9998476951563912 0.017452406437288945
  outer loop
    vertex 2231.4663154485506 -720.7458662679467 792.8244850504265
    vertex 2237.4663154485506 -720.7982234872585 789.8249419649572
    vertex 2234.4663154485506 -720.6830376047725 796.4239367529893
  endloop
endfacet
facet normal -1.1920179236367733e-14 -0.9998476951563912 0.017452406437288945
  outer loop
    vertex 2234.4663154485506 -720.6830376047725 796.4239367529893
    vertex 2237.4663154485506 -720.7982234872585 789.8249419649572
    vertex 2240.4663154485506 -720.6830376047725 796.4239367529894
  endloop
endfacet
facet normal -1.1920179236367733e-14 -0.9998476951563912 0.017452406437288945
  outer loop
    vertex 2240.4663154485506 -720.6830376047725 796.4239367529894
    vertex 2237.4663154485506 -720.7982234872585 789.8249419649572
    vertex 2240.46631544855 -720.9622761077691 780.4263736304871
  endloop
endfacet
facet normal -1.1920179236367733e-14 -0.9998476951563912 0.017452406437288945
  outer loop
    vertex 2240.4663154485506 -720.6830376047725 796.4239367529894
    vertex 2240.46631544855 -720.9622761077691 780.4263736304871
    vertex 2243.4663154485506 -720.9099188884571 783.4259167159563
  endloop
endfacet
facet normal -1.1920179236367733e-14 -0.9998476951563912 0.017452406437288945
  outer loop
    vertex 2240.4663154485506 -720.6830376047725 796.4239367529894
    vertex 2243.4663154485506 -720.9099188884571 783.4259167159563
    vertex 2243.4663154485506 -720.735394824084 793.4243936675202
  endloop
endfacet
facet normal -1.1920179236367733e-14 -0.9998476951563912 0.017452406437288945
  outer loop
    vertex 2215.266315448551 -720.5050230591119 806.6223832435847
    vertex 2212.266315448551 -720.5050230591117 806.6223832435847
    vertex 2215.2663154485504 -720.6935090486344 795.8240281358958
  endloop
endfacet
facet normal 1.1041838408025692e-14 -0.01745240643728103 -0.9998476951563914
  outer loop
    vertex 2212.2663154485517 -659.5965151585276 743.5497769447766
    vertex 2215.266315448551 -718.5875291727549 744.5794689245762
    vertex 2212.266315448551 -718.5875291727549 744.5794689245762
  endloop
endfacet
facet normal 1.1041838408025692e-14 -0.01745240643728103 -0.9998476951563914
  outer loop
    vertex 2215.266315448551 -718.5875291727549 744.5794689245762
    vertex 2212.2663154485517 -659.5965151585276 743.5497769447766
    vertex 2215.2663154485517 -659.5965151585277 743.5497769447766
  endloop
endfacet
facet normal 1.0 -1.471500047082312e-14 9.398992122869374e-15
  outer loop
    vertex 2215.266315448551 -721.3497195306762 758.2297547980153
    vertex 2215.2663154485517 -656.5446148537466 746.4969628109337
    vertex 2215.2663154485513 -656.3596193455111 757.0953483795918
  endloop
endfacet
facet normal 1.0 -1.471500047082312e-14 9.398992122869374e-15
  outer loop
    vertex 2215.2663154485517 -656.5446148537466 746.4969628109337
    vertex 2215.266315448551 -721.3497195306762 758.2297547980153
    vertex 2215.266315448551 -721.5347150389123 747.6313692293573
  endloop
endfacet
facet normal 1.0 -1.471500047082312e-14 9.398992122869374e-15
  outer loop
    vertex 2215.2663154485517 -656.5446148537466 746.4969628109337
    vertex 2215.266315448551 -721.5347150389123 747.6313692293573
    vertex 2215.266315448551 -718.5875291727549 744.5794689245762
  endloop
endfacet
facet normal 1.0 -1.471500047082312e-14 9.398992122869374e-15
  outer loop
    vertex 2215.2663154485517 -656.5446148537466 746.4969628109337
    vertex 2215.266315448551 -718.5875291727549 744.5794689245762
    vertex 2215.2663154485517 -659.5965151585277 743.5497769447766
  endloop
endfacet
facet normal -1.434882123018928e-14 -0.6946583704589779 0.7193398003386698
  outer loop
    vertex 2215.2663154485504 -717.4531227543306 809.569569109742
    vertex 2212.266315448551 -720.5050230591117 806.6223832435847
    vertex 2215.266315448551 -720.5050230591119 806.6223832435847
  endloop
endfacet
facet normal -1.434882123018928e-14 -0.6946583704589779 0.7193398003386698
  outer loop
    vertex 2212.266315448551 -720.5050230591117 806.6223832435847
    vertex 2215.2663154485504 -717.4531227543306 809.569569109742
    vertex 2212.2663154485504 -717.4531227543306 809.569569109742
  endloop
endfacet
facet normal 9.363216616721433e-15 0.7193398003386555 0.6946583704589928
  outer loop
    vertex 2212.2663154485513 -658.4621087401036 808.5398771299422
    vertex 2215.266315448551 -655.5149228739465 805.487976825161
    vertex 2212.266315448551 -655.5149228739464 805.487976825161
  endloop
endfacet
facet normal 9.363216616721433e-15 0.7193398003386555 0.6946583704589928
  outer loop
    vertex 2215.266315448551 -655.5149228739465 805.487976825161
    vertex 2212.2663154485513 -658.4621087401036 808.5398771299422
    vertex 2215.2663154485513 -658.4621087401038 808.5398771299422
  endloop
endfacet
facet normal 2.4966444729779972e-14 0.6946583704589536 -0.7193398003386935
  outer loop
    vertex 2212.2663154485517 -656.5446148537465 746.4969628109336
    vertex 2215.2663154485517 -659.5965151585277 743.5497769447766
    vertex 2212.2663154485517 -659.5965151585276 743.5497769447766
  endloop
endfacet
facet normal 2.4966444729779972e-14 0.6946583704589536 -0.7193398003386935
  outer loop
    vertex 2215.2663154485517 -659.5965151585277 743.5497769447766
    vertex 2212.2663154485517 -656.5446148537465 746.4969628109336
    vertex 2215.2663154485517 -656.5446148537466 746.4969628109337
  endloop
endfacet
facet normal -1.9980840116314768e-14 -0.7193398003386569 -0.6946583704589914
  outer loop
    vertex 2215.266315448551 -718.5875291727549 744.5794689245762
    vertex 2212.266315448551 -721.534715038912 747.6313692293573
    vertex 2212.266315448551 -718.5875291727549 744.5794689245762
  endloop
endfacet
facet normal -1.9980840116314768e-14 -0.7193398003386569 -0.6946583704589914
  outer loop
    vertex 2212.266315448551 -721.534715038912 747.6313692293573
    vertex 2215.266315448551 -718.5875291727549 744.5794689245762
    vertex 2215.266315448551 -721.5347150389123 747.6313692293573
  endloop
endfacet
endsolid Main V1
