solid Main V1
facet normal -9.48548590869393e-15 1.0 -7.61532582228643e-15
  outer loop
    vertex 2162.266315448551 -700.6556814757068 672.8935549701639
    vertex 2237.2663154485517 -700.6556814757064 567.8935549701642
    vertex 2162.2663154485513 -700.6556814757071 567.8935549701639
  endloop
endfacet
facet normal -9.48548590869393e-15 1.0 -7.61532582228643e-15
  outer loop
    vertex 2237.2663154485517 -700.6556814757064 567.8935549701642
    vertex 2162.266315448551 -700.6556814757068 672.8935549701639
    vertex 2237.266315448551 -700.655681475706 672.8935549701642
  endloop
endfacet
facet normal -9.48548590869393e-15 1.0 -7.61532582228643e-15
  outer loop
    vertex 2237.266315448551 -700.655681475706 672.8935549701642
    vertex 2162.266315448551 -700.6556814757068 672.8935549701639
    vertex 2165.266315448551 -700.6556814757056 675.8935549701641
  endloop
endfacet
facet normal -9.48548590869393e-15 1.0 -7.61532582228643e-15
  outer loop
    vertex 2237.266315448551 -700.655681475706 672.8935549701642
    vertex 2165.266315448551 -700.6556814757056 675.8935549701641
    vertex 2234.266315448551 -700.655681475705 675.8935549701642
  endloop
endfacet
facet normal -1.064105273166369e-14 -1.0 6.787679907189711e-15
  outer loop
    vertex 2201.36631544855 -788.655681475707 577.8935549701648
    vertex 2199.3663154485494 -788.6556814757071 567.8935549701644
    vertex 2201.36631544855 -788.6556814757071 567.8935549701644
  endloop
endfacet
facet normal -1.064105273166369e-14 -1.0 6.787679907189711e-15
  outer loop
    vertex 2199.3663154485494 -788.6556814757071 567.8935549701644
    vertex 2201.36631544855 -788.655681475707 577.8935549701648
    vertex 2199.3663154485494 -788.6556814757071 577.8935549701645
  endloop
endfacet
facet normal -1.064105273166369e-14 -1.0 6.787679907189711e-15
  outer loop
    vertex 2199.3663154485494 -788.6556814757071 577.8935549701645
    vertex 2201.36631544855 -788.655681475707 577.8935549701648
    vertex 2193.3663154485494 -788.6556814757067 577.8935549701645
  endloop
endfacet
facet normal -1.064105273166369e-14 -1.0 6.787679907189711e-15
  outer loop
    vertex 2216.866315448547 -788.6556814757067 675.8935549701645
    vertex 2207.36631544855 -788.655681475707 567.8935549701644
    vertex 2216.866315448547 -788.655681475707 567.8935549701644
  endloop
endfacet
facet normal -1.064105273166369e-14 -1.0 6.787679907189711e-15
  outer loop
    vertex 2207.36631544855 -788.655681475707 567.8935549701644
    vertex 2216.866315448547 -788.6556814757067 675.8935549701645
    vertex 2207.36631544855 -788.6556814757067 577.8935549701647
  endloop
endfacet
facet normal -1.064105273166369e-14 -1.0 6.787679907189711e-15
  outer loop
    vertex 2207.36631544855 -788.6556814757067 577.8935549701647
    vertex 2216.866315448547 -788.6556814757067 675.8935549701645
    vertex 2201.36631544855 -788.655681475707 577.8935549701648
  endloop
endfacet
facet normal -1.064105273166369e-14 -1.0 6.787679907189711e-15
  outer loop
    vertex 2193.3663154485494 -788.6556814757066 567.8935549701644
    vertex 2183.8663154485516 -788.6556814757058 675.8935549701642
    vertex 2183.8663154485516 -788.6556814757072 567.8935549701642
  endloop
endfacet
facet normal -1.064105273166369e-14 -1.0 6.787679907189711e-15
  outer loop
    vertex 2183.8663154485516 -788.6556814757058 675.8935549701642
    vertex 2193.3663154485494 -788.6556814757066 567.8935549701644
    vertex 2193.3663154485494 -788.6556814757067 577.8935549701645
  endloop
endfacet
facet normal -1.064105273166369e-14 -1.0 6.787679907189711e-15
  outer loop
    vertex 2183.8663154485516 -788.6556814757058 675.8935549701642
    vertex 2193.3663154485494 -788.6556814757067 577.8935549701645
    vertex 2201.36631544855 -788.655681475707 577.8935549701648
  endloop
endfacet
facet normal -1.064105273166369e-14 -1.0 6.787679907189711e-15
  outer loop
    vertex 2183.8663154485516 -788.6556814757058 675.8935549701642
    vertex 2201.36631544855 -788.655681475707 577.8935549701648
    vertex 2216.866315448547 -788.6556814757067 675.8935549701645
  endloop
endfacet
facet normal -1.0 7.142936567797098e-14 9.198624535041905e-15
  outer loop
    vertex 2216.8663154485516 -706.6556814757068 570.8935549701641
    vertex 2216.8663154485507 -714.6556814757081 608.893554970164
    vertex 2216.866315448551 -706.6556814757066 675.8935549701637
  endloop
endfacet
facet normal -1.0 7.142936567797098e-14 9.198624535041905e-15
  outer loop
    vertex 2216.8663154485507 -714.6556814757081 608.893554970164
    vertex 2216.8663154485516 -706.6556814757068 570.8935549701641
    vertex 2216.8663154485507 -717.6556814757085 605.8935549701639
  endloop
endfacet
facet normal -1.0 7.142936567797098e-14 9.198624535041905e-15
  outer loop
    vertex 2216.8663154485507 -717.6556814757085 605.8935549701639
    vertex 2216.8663154485516 -706.6556814757068 570.8935549701641
    vertex 2216.866315448547 -782.655681475707 570.8935549701644
  endloop
endfacet
facet normal -1.0 7.142936567797098e-14 9.198624535041905e-15
  outer loop
    vertex 2216.866315448551 -706.6556814757066 675.8935549701637
    vertex 2216.8663154485507 -714.6556814757081 608.893554970164
    vertex 2216.866315448551 -709.6556814757076 675.8935549701638
  endloop
endfacet
facet normal -1.0 7.142936567797098e-14 9.198624535041905e-15
  outer loop
    vertex 2216.866315448551 -709.6556814757076 675.8935549701638
    vertex 2216.8663154485507 -714.6556814757081 608.893554970164
    vertex 2216.866315448551 -714.6556814757076 670.8935549701638
  endloop
endfacet
facet normal -1.0 7.142936567797098e-14 9.198624535041905e-15
  outer loop
    vertex 2216.8663154485507 -717.6556814757085 605.8935549701639
    vertex 2216.866315448547 -782.655681475707 570.8935549701644
    vertex 2216.8663154485434 -772.655681475708 605.8935549701642
  endloop
endfacet
facet normal -1.0 7.142936567797098e-14 9.198624535041905e-15
  outer loop
    vertex 2216.8663154485434 -772.655681475708 605.8935549701642
    vertex 2216.866315448547 -782.655681475707 570.8935549701644
    vertex 2216.8663154485434 -775.6556814757081 608.8935549701642
  endloop
endfacet
facet normal -1.0 7.142936567797098e-14 9.198624535041905e-15
  outer loop
    vertex 2216.8663154485434 -775.6556814757081 608.8935549701642
    vertex 2216.866315448547 -782.655681475707 570.8935549701644
    vertex 2216.8663154485475 -780.6556814757074 675.8935549701646
  endloop
endfacet
facet normal -1.0 7.142936567797098e-14 9.198624535041905e-15
  outer loop
    vertex 2216.8663154485475 -780.6556814757074 675.8935549701646
    vertex 2216.866315448547 -782.655681475707 570.8935549701644
    vertex 2216.866315448547 -782.6556814757066 675.893554970164
  endloop
endfacet
facet normal -1.0 7.142936567797098e-14 9.198624535041905e-15
  outer loop
    vertex 2216.8663154485475 -780.6556814757074 675.8935549701646
    vertex 2216.8663154485475 -775.6556814757074 670.8935549701641
    vertex 2216.8663154485434 -775.6556814757081 608.8935549701642
  endloop
endfacet
facet normal 3.67640074761864e-14 1.0 -2.6641969054166764e-14
  outer loop
    vertex 2186.8663154485516 -785.6556814757021 675.8935549701641
    vertex 2213.866315448547 -785.6556814757058 570.8935549701644
    vertex 2186.866315448552 -785.6556814757074 570.8935549701642
  endloop
endfacet
facet normal 3.67640074761864e-14 1.0 -2.6641969054166764e-14
  outer loop
    vertex 2213.866315448547 -785.6556814757058 570.8935549701644
    vertex 2186.8663154485516 -785.6556814757021 675.8935549701641
    vertex 2213.8663154485466 -785.6556814757056 675.893554970164
  endloop
endfacet
facet normal 1.503982124025542e-13 -1.0 -2.1485458914650222e-14
  outer loop
    vertex 2213.866315448551 -703.6556814757055 675.8935549701637
    vertex 2186.8663154485516 -703.6556814757073 570.8935549701652
    vertex 2213.8663154485516 -703.6556814757057 570.8935549701641
  endloop
endfacet
facet normal 1.503982124025542e-13 -1.0 -2.1485458914650222e-14
  outer loop
    vertex 2186.8663154485516 -703.6556814757073 570.8935549701652
    vertex 2213.866315448551 -703.6556814757055 675.8935549701637
    vertex 2186.866315448551 -703.6556814757121 675.8935549701638
  endloop
endfacet
facet normal -8.632537334466804e-15 2.652461994775148e-15 1.0
  outer loop
    vertex 2213.8663154485516 -703.6556814757057 570.8935549701641
    vertex 2216.866315448547 -782.655681475707 570.8935549701644
    vertex 2216.8663154485516 -706.6556814757068 570.8935549701641
  endloop
endfacet
facet normal -8.632537334466804e-15 2.652461994775148e-15 1.0
  outer loop
    vertex 2216.866315448547 -782.655681475707 570.8935549701644
    vertex 2213.8663154485516 -703.6556814757057 570.8935549701641
    vertex 2213.866315448547 -785.6556814757058 570.8935549701644
  endloop
endfacet
facet normal -8.632537334466804e-15 2.652461994775148e-15 1.0
  outer loop
    vertex 2213.866315448547 -785.6556814757058 570.8935549701644
    vertex 2213.8663154485516 -703.6556814757057 570.8935549701641
    vertex 2186.8663154485516 -703.6556814757073 570.8935549701652
  endloop
endfacet
facet normal -8.632537334466804e-15 2.652461994775148e-15 1.0
  outer loop
    vertex 2213.866315448547 -785.6556814757058 570.8935549701644
    vertex 2186.8663154485516 -703.6556814757073 570.8935549701652
    vertex 2186.866315448552 -785.6556814757074 570.8935549701642
  endloop
endfacet
facet normal -8.632537334466804e-15 2.652461994775148e-15 1.0
  outer loop
    vertex 2186.866315448552 -785.6556814757074 570.8935549701642
    vertex 2186.8663154485516 -703.6556814757073 570.8935549701652
    vertex 2183.8663154485516 -706.6556814757089 570.8935549701638
  endloop
endfacet
facet normal -8.632537334466804e-15 2.652461994775148e-15 1.0
  outer loop
    vertex 2186.866315448552 -785.6556814757074 570.8935549701642
    vertex 2183.8663154485516 -706.6556814757089 570.8935549701638
    vertex 2183.8663154485516 -782.6556814757085 570.8935549701641
  endloop
endfacet
facet normal 9.023892744153e-14 1.0 -1.9739765377840624e-14
  outer loop
    vertex 2180.8663154485516 -774.655681475707 672.8935549701641
    vertex 2183.866315448547 -774.6556814757083 608.8935549701641
    vertex 2180.866315448547 -774.6556814757085 608.8935549701641
  endloop
endfacet
facet normal 9.023892744153e-14 1.0 -1.9739765377840624e-14
  outer loop
    vertex 2183.866315448547 -774.6556814757083 608.8935549701641
    vertex 2180.8663154485516 -774.655681475707 672.8935549701641
    vertex 2183.866315448551 -774.6556814757075 672.8935549701642
  endloop
endfacet
facet normal 2.1055749736356898e-13 -1.0 1.9739765377835947e-14
  outer loop
    vertex 2183.866315448551 -713.6556814757066 672.893554970164
    vertex 2180.866315448551 -713.6556814757085 608.8935549701649
    vertex 2183.8663154485516 -713.6556814757075 608.8935549701639
  endloop
endfacet
facet normal 2.1055749736356898e-13 -1.0 1.9739765377835947e-14
  outer loop
    vertex 2180.866315448551 -713.6556814757085 608.8935549701649
    vertex 2183.866315448551 -713.6556814757066 672.893554970164
    vertex 2180.866315448551 -713.655681475707 672.893554970164
  endloop
endfacet
facet normal 7.888609052210118e-31 1.6407077716642458e-15 1.0
  outer loop
    vertex 2180.866315448551 -716.6556814757087 605.8935549701639
    vertex 2183.866315448547 -771.6556814757081 605.893554970164
    vertex 2183.8663154485516 -716.6556814757087 605.8935549701639
  endloop
endfacet
facet normal 7.888609052210118e-31 1.6407077716642458e-15 1.0
  outer loop
    vertex 2183.866315448547 -771.6556814757081 605.893554970164
    vertex 2180.866315448551 -716.6556814757087 605.8935549701639
    vertex 2180.866315448547 -771.6556814757081 605.893554970164
  endloop
endfacet
facet normal 1.0 -1.32359544837155e-14 -4.569806548084923e-15
  outer loop
    vertex 2183.866315448551 -777.6556814757066 675.8935549701642
    vertex 2183.866315448547 -774.6556814757083 608.8935549701641
    vertex 2183.866315448551 -774.6556814757075 672.8935549701642
  endloop
endfacet
facet normal 1.0 -1.32359544837155e-14 -4.569806548084923e-15
  outer loop
    vertex 2183.8663154485516 -706.6556814757089 570.8935549701638
    vertex 2183.8663154485516 -716.6556814757087 605.8935549701639
    vertex 2183.8663154485516 -782.6556814757085 570.8935549701641
  endloop
endfacet
facet normal 1.0 -1.32359544837155e-14 -4.569806548084923e-15
  outer loop
    vertex 2183.8663154485516 -716.6556814757087 605.8935549701639
    vertex 2183.8663154485516 -706.6556814757089 570.8935549701638
    vertex 2183.8663154485516 -713.6556814757075 608.8935549701639
  endloop
endfacet
facet normal 1.0 -1.32359544837155e-14 -4.569806548084923e-15
  outer loop
    vertex 2183.8663154485516 -713.6556814757075 608.8935549701639
    vertex 2183.8663154485516 -706.6556814757089 570.8935549701638
    vertex 2183.8663154485507 -706.6556814757125 675.8935549701638
  endloop
endfacet
facet normal 1.0 -1.32359544837155e-14 -4.569806548084923e-15
  outer loop
    vertex 2183.8663154485516 -713.6556814757075 608.8935549701639
    vertex 2183.8663154485507 -706.6556814757125 675.8935549701638
    vertex 2183.8663154485507 -710.6556814757066 675.8935549701641
  endloop
endfacet
facet normal 1.0 -1.32359544837155e-14 -4.569806548084923e-15
  outer loop
    vertex 2183.8663154485516 -713.6556814757075 608.8935549701639
    vertex 2183.8663154485507 -710.6556814757066 675.8935549701641
    vertex 2183.866315448551 -713.6556814757066 672.893554970164
  endloop
endfacet
facet normal 1.0 -1.32359544837155e-14 -4.569806548084923e-15
  outer loop
    vertex 2183.8663154485516 -782.6556814757085 570.8935549701641
    vertex 2183.8663154485516 -716.6556814757087 605.8935549701639
    vertex 2183.866315448547 -771.6556814757081 605.893554970164
  endloop
endfacet
facet normal 1.0 -1.32359544837155e-14 -4.569806548084923e-15
  outer loop
    vertex 2183.8663154485516 -782.6556814757085 570.8935549701641
    vertex 2183.866315448547 -771.6556814757081 605.893554970164
    vertex 2183.866315448547 -774.6556814757083 608.8935549701641
  endloop
endfacet
facet normal 1.0 -1.32359544837155e-14 -4.569806548084923e-15
  outer loop
    vertex 2183.8663154485516 -782.6556814757085 570.8935549701641
    vertex 2183.866315448547 -774.6556814757083 608.8935549701641
    vertex 2183.866315448551 -777.6556814757066 675.8935549701642
  endloop
endfacet
facet normal 1.0 -1.32359544837155e-14 -4.569806548084923e-15
  outer loop
    vertex 2183.8663154485516 -782.6556814757085 570.8935549701641
    vertex 2183.866315448551 -777.6556814757066 675.8935549701642
    vertex 2183.8663154485516 -782.6556814757022 675.8935549701638
  endloop
endfacet
facet normal 1.0 4.977195218495075e-30 6.875346852688205e-15
  outer loop
    vertex 2237.266315448551 -703.6556814757062 672.8935549701642
    vertex 2237.2663154485517 -700.6556814757064 567.8935549701642
    vertex 2237.266315448551 -700.655681475706 672.8935549701642
  endloop
endfacet
facet normal 1.0 4.977195218495075e-30 6.875346852688205e-15
  outer loop
    vertex 2237.2663154485517 -700.6556814757064 567.8935549701642
    vertex 2237.266315448551 -703.6556814757062 672.8935549701642
    vertex 2237.2663154485517 -703.6556814757064 567.8935549701642
  endloop
endfacet
facet normal 3.397032623880515e-15 -1.0 9.772390921461347e-15
  outer loop
    vertex 2237.266315448551 -703.6556814757062 672.8935549701642
    vertex 2222.866315448551 -703.6556814757068 567.8935549701641
    vertex 2237.2663154485517 -703.6556814757064 567.8935549701642
  endloop
endfacet
facet normal 3.397032623880515e-15 -1.0 9.772390921461347e-15
  outer loop
    vertex 2222.866315448551 -703.6556814757068 567.8935549701641
    vertex 2237.266315448551 -703.6556814757062 672.8935549701642
    vertex 2222.8663154485507 -703.6556814757055 675.8935549701637
  endloop
endfacet
facet normal 3.397032623880515e-15 -1.0 9.772390921461347e-15
  outer loop
    vertex 2222.8663154485507 -703.6556814757055 675.8935549701637
    vertex 2237.266315448551 -703.6556814757062 672.8935549701642
    vertex 2234.266315448551 -703.655681475705 675.8935549701642
  endloop
endfacet
facet normal -1.0 -4.977195218495075e-30 -6.875346852688205e-15
  outer loop
    vertex 2162.2663154485513 -703.6556814757071 567.8935549701639
    vertex 2162.266315448551 -700.6556814757068 672.8935549701639
    vertex 2162.2663154485513 -700.6556814757071 567.8935549701639
  endloop
endfacet
facet normal -1.0 -4.977195218495075e-30 -6.875346852688205e-15
  outer loop
    vertex 2162.266315448551 -700.6556814757068 672.8935549701639
    vertex 2162.2663154485513 -703.6556814757071 567.8935549701639
    vertex 2162.266315448551 -703.6556814757068 672.8935549701639
  endloop
endfacet
facet normal -7.459169039725464e-15 -1.0 5.711146666763187e-15
  outer loop
    vertex 2180.866315448551 -703.6556814757067 675.893554970164
    vertex 2162.2663154485513 -703.6556814757071 567.8935549701639
    vertex 2180.8663154485516 -703.655681475707 567.8935549701639
  endloop
endfacet
facet normal -7.459169039725464e-15 -1.0 5.711146666763187e-15
  outer loop
    vertex 2162.2663154485513 -703.6556814757071 567.8935549701639
    vertex 2180.866315448551 -703.6556814757067 675.893554970164
    vertex 2162.266315448551 -703.6556814757068 672.8935549701639
  endloop
endfacet
facet normal -7.459169039725464e-15 -1.0 5.711146666763187e-15
  outer loop
    vertex 2162.266315448551 -703.6556814757068 672.8935549701639
    vertex 2180.866315448551 -703.6556814757067 675.893554970164
    vertex 2165.266315448551 -703.6556814757057 675.8935549701641
  endloop
endfacet
facet normal -0.7071067811865581 7.613691026740595e-27 0.7071067811865369
  outer loop
    vertex 2162.266315448551 -700.6556814757068 672.8935549701639
    vertex 2165.266315448551 -703.6556814757057 675.8935549701641
    vertex 2165.266315448551 -700.6556814757056 675.8935549701641
  endloop
endfacet
facet normal -0.7071067811865581 7.613691026740595e-27 0.7071067811865369
  outer loop
    vertex 2165.266315448551 -703.6556814757057 675.8935549701641
    vertex 2162.266315448551 -700.6556814757068 672.8935549701639
    vertex 2162.266315448551 -703.6556814757068 672.8935549701639
  endloop
endfacet
facet normal 7.443327778389532e-14 -0.7071067811865421 0.7071067811865529
  outer loop
    vertex 2183.8663154485507 -710.6556814757066 675.8935549701641
    vertex 2180.866315448551 -713.655681475707 672.893554970164
    vertex 2183.866315448551 -713.6556814757066 672.893554970164
  endloop
endfacet
facet normal 7.443327778389532e-14 -0.7071067811865421 0.7071067811865529
  outer loop
    vertex 2180.866315448551 -713.655681475707 672.893554970164
    vertex 2183.8663154485507 -710.6556814757066 675.8935549701641
    vertex 2180.8663154485507 -710.655681475707 675.8935549701641
  endloop
endfacet
facet normal 4.2558424627779614e-14 0.7071067811866114 0.7071067811864837
  outer loop
    vertex 2180.8663154485516 -777.6556814757068 675.8935549701642
    vertex 2183.866315448551 -774.6556814757075 672.8935549701642
    vertex 2180.8663154485516 -774.655681475707 672.8935549701641
  endloop
endfacet
facet normal 4.2558424627779614e-14 0.7071067811866114 0.7071067811864837
  outer loop
    vertex 2183.866315448551 -774.6556814757075 672.8935549701642
    vertex 2180.8663154485516 -777.6556814757068 675.8935549701642
    vertex 2183.866315448551 -777.6556814757066 675.8935549701642
  endloop
endfacet
facet normal 0.7071067811865477 5.1492895588301546e-27 0.7071067811865475
  outer loop
    vertex 2234.266315448551 -703.655681475705 675.8935549701642
    vertex 2237.266315448551 -700.655681475706 672.8935549701642
    vertex 2234.266315448551 -700.655681475705 675.8935549701642
  endloop
endfacet
facet normal 0.7071067811865477 5.1492895588301546e-27 0.7071067811865475
  outer loop
    vertex 2237.266315448551 -700.655681475706 672.8935549701642
    vertex 2234.266315448551 -703.655681475705 675.8935549701642
    vertex 2237.266315448551 -703.6556814757062 672.8935549701642
  endloop
endfacet
facet normal -0.7071067811866645 -0.7071067811864307 -6.081210548943831e-16
  outer loop
    vertex 2216.8663154485516 -706.6556814757068 570.8935549701641
    vertex 2213.866315448551 -703.6556814757055 675.8935549701637
    vertex 2213.8663154485516 -703.6556814757057 570.8935549701641
  endloop
endfacet
facet normal -0.7071067811866645 -0.7071067811864307 -6.081210548943831e-16
  outer loop
    vertex 2213.866315448551 -703.6556814757055 675.8935549701637
    vertex 2216.8663154485516 -706.6556814757068 570.8935549701641
    vertex 2216.866315448551 -706.6556814757066 675.8935549701637
  endloop
endfacet
facet normal -0.7071067811864306 0.7071067811866645 -4.25340193918544e-15
  outer loop
    vertex 2213.8663154485466 -785.6556814757056 675.893554970164
    vertex 2216.866315448547 -782.655681475707 570.8935549701644
    vertex 2213.866315448547 -785.6556814757058 570.8935549701644
  endloop
endfacet
facet normal -0.7071067811864306 0.7071067811866645 -4.25340193918544e-15
  outer loop
    vertex 2216.866315448547 -782.655681475707 570.8935549701644
    vertex 2213.8663154485466 -785.6556814757056 675.893554970164
    vertex 2216.866315448547 -782.6556814757066 675.893554970164
  endloop
endfacet
facet normal 0.7071067811864837 0.7071067811866113 -3.707011775133661e-14
  outer loop
    vertex 2183.8663154485516 -782.6556814757022 675.8935549701638
    vertex 2186.866315448552 -785.6556814757074 570.8935549701642
    vertex 2183.8663154485516 -782.6556814757085 570.8935549701641
  endloop
endfacet
facet normal 0.7071067811864837 0.7071067811866113 -3.707011775133661e-14
  outer loop
    vertex 2186.866315448552 -785.6556814757074 570.8935549701642
    vertex 2183.8663154485516 -782.6556814757022 675.8935549701638
    vertex 2186.8663154485516 -785.6556814757021 675.8935549701641
  endloop
endfacet
facet normal 0.7071067811866326 -0.7071067811864625 -2.4916310266131205e-14
  outer loop
    vertex 2186.866315448551 -703.6556814757121 675.8935549701638
    vertex 2183.8663154485516 -706.6556814757089 570.8935549701638
    vertex 2186.8663154485516 -703.6556814757073 570.8935549701652
  endloop
endfacet
facet normal 0.7071067811866326 -0.7071067811864625 -2.4916310266131205e-14
  outer loop
    vertex 2183.8663154485516 -706.6556814757089 570.8935549701638
    vertex 2186.866315448551 -703.6556814757121 675.8935549701638
    vertex 2183.8663154485507 -706.6556814757125 675.8935549701638
  endloop
endfacet
facet normal 4.404089190241295e-15 -2.6524619947750663e-15 -1.0
  outer loop
    vertex 2219.866315448551 -703.6556814757068 567.8935549701641
    vertex 2222.866315448551 -703.6556814757068 567.8935549701641
    vertex 2219.866315448551 -706.6556814757068 567.8935549701641
  endloop
endfacet
facet normal 0.7071067811866113 -0.7071067811864838 7.680360530595333e-15
  outer loop
    vertex 2219.8663154485507 -706.6556814757066 675.8935549701637
    vertex 2222.866315448551 -703.6556814757068 567.8935549701641
    vertex 2222.8663154485507 -703.6556814757055 675.8935549701637
  endloop
endfacet
facet normal 0.7071067811866113 -0.7071067811864838 7.680360530595333e-15
  outer loop
    vertex 2222.866315448551 -703.6556814757068 567.8935549701641
    vertex 2219.8663154485507 -706.6556814757066 675.8935549701637
    vertex 2219.866315448551 -706.6556814757068 567.8935549701641
  endloop
endfacet
facet normal 4.747199306198987e-16 -1.968324863125762e-14 1.0
  outer loop
    vertex 2216.866315448551 -709.6556814757076 675.8935549701638
    vertex 2219.8663154485507 -709.6556814757076 675.8935549701638
    vertex 2216.866315448551 -706.6556814757066 675.8935549701637
  endloop
endfacet
facet normal 4.747199306198987e-16 -1.968324863125762e-14 1.0
  outer loop
    vertex 2165.266315448551 -700.6556814757056 675.8935549701641
    vertex 2234.266315448551 -703.655681475705 675.8935549701642
    vertex 2234.266315448551 -700.655681475705 675.8935549701642
  endloop
endfacet
facet normal 4.747199306198987e-16 -1.968324863125762e-14 1.0
  outer loop
    vertex 2234.266315448551 -703.655681475705 675.8935549701642
    vertex 2165.266315448551 -700.6556814757056 675.8935549701641
    vertex 2222.8663154485507 -703.6556814757055 675.8935549701637
  endloop
endfacet
facet normal 4.747199306198987e-16 -1.968324863125762e-14 1.0
  outer loop
    vertex 2222.8663154485507 -703.6556814757055 675.8935549701637
    vertex 2165.266315448551 -700.6556814757056 675.8935549701641
    vertex 2213.866315448551 -703.6556814757055 675.8935549701637
  endloop
endfacet
facet normal 4.747199306198987e-16 -1.968324863125762e-14 1.0
  outer loop
    vertex 2222.8663154485507 -703.6556814757055 675.8935549701637
    vertex 2213.866315448551 -703.6556814757055 675.8935549701637
    vertex 2219.8663154485507 -706.6556814757066 675.8935549701637
  endloop
endfacet
facet normal 4.747199306198987e-16 -1.968324863125762e-14 1.0
  outer loop
    vertex 2219.8663154485507 -706.6556814757066 675.8935549701637
    vertex 2213.866315448551 -703.6556814757055 675.8935549701637
    vertex 2216.866315448551 -706.6556814757066 675.8935549701637
  endloop
endfacet
facet normal 4.747199306198987e-16 -1.968324863125762e-14 1.0
  outer loop
    vertex 2219.8663154485507 -706.6556814757066 675.8935549701637
    vertex 2216.866315448551 -706.6556814757066 675.8935549701637
    vertex 2219.8663154485507 -709.6556814757076 675.8935549701638
  endloop
endfacet
facet normal 4.747199306198987e-16 -1.968324863125762e-14 1.0
  outer loop
    vertex 2213.866315448551 -703.6556814757055 675.8935549701637
    vertex 2165.266315448551 -700.6556814757056 675.8935549701641
    vertex 2186.866315448551 -703.6556814757121 675.8935549701638
  endloop
endfacet
facet normal 4.747199306198987e-16 -1.968324863125762e-14 1.0
  outer loop
    vertex 2186.866315448551 -703.6556814757121 675.8935549701638
    vertex 2165.266315448551 -700.6556814757056 675.8935549701641
    vertex 2180.866315448551 -703.6556814757067 675.893554970164
  endloop
endfacet
facet normal 4.747199306198987e-16 -1.968324863125762e-14 1.0
  outer loop
    vertex 2186.866315448551 -703.6556814757121 675.8935549701638
    vertex 2180.866315448551 -703.6556814757067 675.893554970164
    vertex 2183.8663154485507 -706.6556814757125 675.8935549701638
  endloop
endfacet
facet normal 4.747199306198987e-16 -1.968324863125762e-14 1.0
  outer loop
    vertex 2183.8663154485507 -706.6556814757125 675.8935549701638
    vertex 2180.866315448551 -703.6556814757067 675.893554970164
    vertex 2183.8663154485507 -710.6556814757066 675.8935549701641
  endloop
endfacet
facet normal 4.747199306198987e-16 -1.968324863125762e-14 1.0
  outer loop
    vertex 2180.866315448551 -703.6556814757067 675.893554970164
    vertex 2165.266315448551 -700.6556814757056 675.8935549701641
    vertex 2165.266315448551 -703.6556814757057 675.8935549701641
  endloop
endfacet
facet normal 4.747199306198987e-16 -1.968324863125762e-14 1.0
  outer loop
    vertex 2180.8663154485507 -710.655681475707 675.8935549701641
    vertex 2183.8663154485507 -710.6556814757066 675.8935549701641
    vertex 2180.866315448551 -703.6556814757067 675.893554970164
  endloop
endfacet
facet normal -0.7071067811864891 -0.7071067811866061 3.2490910343571856e-15
  outer loop
    vertex 2183.8663154485516 -788.6556814757058 675.8935549701642
    vertex 2180.8663154485516 -785.6556814757072 567.8935549701642
    vertex 2183.8663154485516 -788.6556814757072 567.8935549701642
  endloop
endfacet
facet normal -0.7071067811864891 -0.7071067811866061 3.2490910343571856e-15
  outer loop
    vertex 2180.8663154485516 -785.6556814757072 567.8935549701642
    vertex 2183.8663154485516 -788.6556814757058 675.8935549701642
    vertex 2180.8663154485516 -785.6556814757067 675.8935549701642
  endloop
endfacet
facet normal 0.7071067811865528 -0.7071067811865422 4.430183932913165e-15
  outer loop
    vertex 2216.866315448547 -788.6556814757067 675.8935549701645
    vertex 2219.866315448547 -785.655681475707 567.8935549701655
    vertex 2219.866315448547 -785.6556814757066 675.8935549701645
  endloop
endfacet
facet normal 0.7071067811865528 -0.7071067811865422 4.430183932913165e-15
  outer loop
    vertex 2219.866315448547 -785.655681475707 567.8935549701655
    vertex 2216.866315448547 -788.6556814757067 675.8935549701645
    vertex 2216.866315448547 -788.655681475707 567.8935549701644
  endloop
endfacet
facet normal -4.558588881957285e-15 -6.424455412407686e-16 1.0
  outer loop
    vertex 2216.8663154485475 -780.6556814757074 675.8935549701646
    vertex 2219.866315448547 -785.6556814757066 675.8935549701645
    vertex 2219.866315448547 -780.6556814757075 675.8935549701645
  endloop
endfacet
facet normal -4.558588881957285e-15 -6.424455412407686e-16 1.0
  outer loop
    vertex 2219.866315448547 -785.6556814757066 675.8935549701645
    vertex 2216.8663154485475 -780.6556814757074 675.8935549701646
    vertex 2216.866315448547 -788.6556814757067 675.8935549701645
  endloop
endfacet
facet normal -4.558588881957285e-15 -6.424455412407686e-16 1.0
  outer loop
    vertex 2216.866315448547 -788.6556814757067 675.8935549701645
    vertex 2216.8663154485475 -780.6556814757074 675.8935549701646
    vertex 2216.866315448547 -782.6556814757066 675.893554970164
  endloop
endfacet
facet normal -4.558588881957285e-15 -6.424455412407686e-16 1.0
  outer loop
    vertex 2216.866315448547 -788.6556814757067 675.8935549701645
    vertex 2216.866315448547 -782.6556814757066 675.893554970164
    vertex 2213.8663154485466 -785.6556814757056 675.893554970164
  endloop
endfacet
facet normal -4.558588881957285e-15 -6.424455412407686e-16 1.0
  outer loop
    vertex 2216.866315448547 -788.6556814757067 675.8935549701645
    vertex 2213.8663154485466 -785.6556814757056 675.893554970164
    vertex 2183.8663154485516 -788.6556814757058 675.8935549701642
  endloop
endfacet
facet normal -4.558588881957285e-15 -6.424455412407686e-16 1.0
  outer loop
    vertex 2183.8663154485516 -788.6556814757058 675.8935549701642
    vertex 2213.8663154485466 -785.6556814757056 675.893554970164
    vertex 2186.8663154485516 -785.6556814757021 675.8935549701641
  endloop
endfacet
facet normal -4.558588881957285e-15 -6.424455412407686e-16 1.0
  outer loop
    vertex 2183.8663154485516 -788.6556814757058 675.8935549701642
    vertex 2186.8663154485516 -785.6556814757021 675.8935549701641
    vertex 2183.8663154485516 -782.6556814757022 675.8935549701638
  endloop
endfacet
facet normal -4.558588881957285e-15 -6.424455412407686e-16 1.0
  outer loop
    vertex 2183.8663154485516 -788.6556814757058 675.8935549701642
    vertex 2183.8663154485516 -782.6556814757022 675.8935549701638
    vertex 2183.866315448551 -777.6556814757066 675.8935549701642
  endloop
endfacet
facet normal -4.558588881957285e-15 -6.424455412407686e-16 1.0
  outer loop
    vertex 2183.8663154485516 -788.6556814757058 675.8935549701642
    vertex 2183.866315448551 -777.6556814757066 675.8935549701642
    vertex 2180.8663154485516 -785.6556814757067 675.8935549701642
  endloop
endfacet
facet normal -4.558588881957285e-15 -6.424455412407686e-16 1.0
  outer loop
    vertex 2180.8663154485516 -785.6556814757067 675.8935549701642
    vertex 2183.866315448551 -777.6556814757066 675.8935549701642
    vertex 2180.8663154485516 -777.6556814757068 675.8935549701642
  endloop
endfacet
facet normal -1.503982124025887e-14 5.742477200826786e-15 1.0
  outer loop
    vertex 2216.8663154485507 -717.6556814757085 605.8935549701639
    vertex 2219.866315448543 -772.655681475708 605.8935549701642
    vertex 2219.8663154485507 -717.6556814757085 605.893554970164
  endloop
endfacet
facet normal -1.503982124025887e-14 5.742477200826786e-15 1.0
  outer loop
    vertex 2219.866315448543 -772.655681475708 605.8935549701642
    vertex 2216.8663154485507 -717.6556814757085 605.8935549701639
    vertex 2216.8663154485434 -772.655681475708 605.8935549701642
  endloop
endfacet
facet normal 3.007964248051749e-14 1.0 -8.73279942982753e-15
  outer loop
    vertex 2216.8663154485475 -775.6556814757074 670.8935549701641
    vertex 2219.866315448543 -775.6556814757081 608.8935549701642
    vertex 2216.8663154485434 -775.6556814757081 608.8935549701642
  endloop
endfacet
facet normal 3.007964248051749e-14 1.0 -8.73279942982753e-15
  outer loop
    vertex 2219.866315448543 -775.6556814757081 608.8935549701642
    vertex 2216.8663154485475 -775.6556814757074 670.8935549701641
    vertex 2219.866315448547 -775.6556814757076 670.893554970164
  endloop
endfacet
facet normal -1.110873478762358e-28 -1.0 7.277332858188142e-15
  outer loop
    vertex 2219.8663154485507 -714.6556814757076 670.893554970164
    vertex 2216.8663154485507 -714.6556814757081 608.893554970164
    vertex 2219.8663154485507 -714.6556814757081 608.893554970164
  endloop
endfacet
facet normal -1.110873478762358e-28 -1.0 7.277332858188142e-15
  outer loop
    vertex 2216.8663154485507 -714.6556814757081 608.893554970164
    vertex 2219.8663154485507 -714.6556814757076 670.893554970164
    vertex 2216.866315448551 -714.6556814757076 670.8935549701638
  endloop
endfacet
facet normal 2.547231862958647e-27 -0.7071067811865369 0.7071067811865581
  outer loop
    vertex 2180.866315448551 -713.6556814757085 608.8935549701649
    vertex 2183.8663154485516 -716.6556814757087 605.8935549701639
    vertex 2183.8663154485516 -713.6556814757075 608.8935549701639
  endloop
endfacet
facet normal 2.547231862958647e-27 -0.7071067811865369 0.7071067811865581
  outer loop
    vertex 2183.8663154485516 -716.6556814757087 605.8935549701639
    vertex 2180.866315448551 -713.6556814757085 608.8935549701649
    vertex 2180.866315448551 -716.6556814757087 605.8935549701639
  endloop
endfacet
facet normal -1.0639606156943867e-14 -0.7071067811865103 0.7071067811865849
  outer loop
    vertex 2216.8663154485507 -714.6556814757081 608.893554970164
    vertex 2219.8663154485507 -717.6556814757085 605.893554970164
    vertex 2219.8663154485507 -714.6556814757081 608.893554970164
  endloop
endfacet
facet normal -1.0639606156943867e-14 -0.7071067811865103 0.7071067811865849
  outer loop
    vertex 2219.8663154485507 -717.6556814757085 605.893554970164
    vertex 2216.8663154485507 -714.6556814757081 608.893554970164
    vertex 2216.8663154485507 -717.6556814757085 605.8935549701639
  endloop
endfacet
facet normal 7.888609052210118e-30 0.7071067811865476 0.7071067811865476
  outer loop
    vertex 2216.8663154485434 -772.655681475708 605.8935549701642
    vertex 2219.866315448543 -775.6556814757081 608.8935549701642
    vertex 2219.866315448543 -772.655681475708 605.8935549701642
  endloop
endfacet
facet normal 7.888609052210118e-30 0.7071067811865476 0.7071067811865476
  outer loop
    vertex 2219.866315448543 -775.6556814757081 608.8935549701642
    vertex 2216.8663154485434 -772.655681475708 605.8935549701642
    vertex 2216.8663154485434 -775.6556814757081 608.8935549701642
  endloop
endfacet
facet normal -2.1235246999185937e-14 0.7071067811865263 0.7071067811865688
  outer loop
    vertex 2180.866315448547 -771.6556814757081 605.893554970164
    vertex 2183.866315448547 -774.6556814757083 608.8935549701641
    vertex 2183.866315448547 -771.6556814757081 605.893554970164
  endloop
endfacet
facet normal -2.1235246999185937e-14 0.7071067811865263 0.7071067811865688
  outer loop
    vertex 2183.866315448547 -774.6556814757083 608.8935549701641
    vertex 2180.866315448547 -771.6556814757081 605.893554970164
    vertex 2180.866315448547 -774.6556814757085 608.8935549701641
  endloop
endfacet
facet normal -1.0026547493503689e-14 1.0 7.888609052210118e-31
  outer loop
    vertex 2162.866315448552 -737.6556814757073 570.8935549701641
    vertex 2180.8663154485516 -737.6556814757072 567.8935549701641
    vertex 2162.866315448552 -737.6556814757073 567.893554970164
  endloop
endfacet
facet normal -1.0026547493503689e-14 1.0 7.888609052210118e-31
  outer loop
    vertex 2180.8663154485516 -737.6556814757072 567.8935549701641
    vertex 2162.866315448552 -737.6556814757073 570.8935549701641
    vertex 2180.8663154485516 -737.6556814757072 570.8935549701641
  endloop
endfacet
facet normal 5.013273746751844e-15 -1.0 -3.944304526105059e-31
  outer loop
    vertex 2180.8663154485516 -751.6556814757073 570.8935549701641
    vertex 2162.866315448552 -751.6556814757074 567.893554970164
    vertex 2180.8663154485516 -751.6556814757073 567.8935549701641
  endloop
endfacet
facet normal 5.013273746751844e-15 -1.0 -3.944304526105059e-31
  outer loop
    vertex 2162.866315448552 -751.6556814757074 567.893554970164
    vertex 2180.8663154485516 -751.6556814757073 570.8935549701641
    vertex 2162.866315448552 -751.6556814757074 570.8935549701641
  endloop
endfacet
facet normal 1.2924777704899983e-29 1.0 -1.1091815042968689e-15
  outer loop
    vertex 2159.8663154485516 -775.6556814757071 598.8935549701641
    vertex 2180.8663154485516 -775.6556814757071 567.8935549701641
    vertex 2159.8663154485516 -775.6556814757071 567.893554970164
  endloop
endfacet
facet normal 1.2924777704899983e-29 1.0 -1.1091815042968689e-15
  outer loop
    vertex 2180.8663154485516 -775.6556814757071 567.8935549701641
    vertex 2159.8663154485516 -775.6556814757071 598.8935549701641
    vertex 2180.8663154485516 -775.6556814757071 598.8935549701642
  endloop
endfacet
facet normal 1.0 7.519910620127662e-15 -5.82186628655052e-15
  outer loop
    vertex 2159.8663154485516 -713.6556814757071 598.8935549701641
    vertex 2159.8663154485516 -737.6556814757073 567.8935549701641
    vertex 2159.8663154485516 -713.6556814757071 567.8935549701648
  endloop
endfacet
facet normal 1.0 7.519910620127662e-15 -5.82186628655052e-15
  outer loop
    vertex 2159.8663154485516 -737.6556814757073 567.8935549701641
    vertex 2159.8663154485516 -713.6556814757071 598.8935549701641
    vertex 2159.866315448552 -737.6556814757073 598.8935549701641
  endloop
endfacet
facet normal -8.191612273573912e-30 -1.0 1.109181504296869e-15
  outer loop
    vertex 2180.8663154485516 -713.6556814757071 598.8935549701649
    vertex 2159.8663154485516 -713.6556814757071 567.8935549701648
    vertex 2180.8663154485516 -713.6556814757071 567.8935549701648
  endloop
endfacet
facet normal -8.191612273573912e-30 -1.0 1.109181504296869e-15
  outer loop
    vertex 2159.8663154485516 -713.6556814757071 567.8935549701648
    vertex 2180.8663154485516 -713.6556814757071 598.8935549701649
    vertex 2159.8663154485516 -713.6556814757071 598.8935549701641
  endloop
endfacet
facet normal -1.0 4.624309318988262e-15 -4.731348679779283e-15
  outer loop
    vertex 2180.8663154485516 -751.6556814757073 567.8935549701641
    vertex 2180.8663154485516 -737.6556814757072 570.8935549701641
    vertex 2180.8663154485516 -737.6556814757072 567.8935549701641
  endloop
endfacet
facet normal -1.0 4.624309318988262e-15 -4.731348679779283e-15
  outer loop
    vertex 2180.8663154485516 -737.6556814757072 570.8935549701641
    vertex 2180.8663154485516 -716.6556814757071 598.8935549701641
    vertex 2180.8663154485516 -716.6556814757063 582.893554970164
  endloop
endfacet
facet normal -1.0 4.624309318988262e-15 -4.731348679779283e-15
  outer loop
    vertex 2180.8663154485516 -716.6556814757071 598.8935549701641
    vertex 2180.8663154485516 -737.6556814757072 570.8935549701641
    vertex 2180.866315448551 -716.6556814757087 605.8935549701639
  endloop
endfacet
facet normal -1.0 4.624309318988262e-15 -4.731348679779283e-15
  outer loop
    vertex 2180.866315448551 -716.6556814757087 605.8935549701639
    vertex 2180.8663154485516 -737.6556814757072 570.8935549701641
    vertex 2180.866315448547 -771.6556814757081 605.893554970164
  endloop
endfacet
facet normal -1.0 4.624309318988262e-15 -4.731348679779283e-15
  outer loop
    vertex 2180.866315448547 -771.6556814757081 605.893554970164
    vertex 2180.8663154485516 -737.6556814757072 570.8935549701641
    vertex 2180.8663154485516 -751.6556814757073 570.8935549701641
  endloop
endfacet
facet normal -1.0 4.624309318988262e-15 -4.731348679779283e-15
  outer loop
    vertex 2180.8663154485516 -751.6556814757073 570.8935549701641
    vertex 2180.8663154485516 -737.6556814757072 570.8935549701641
    vertex 2180.8663154485516 -751.6556814757073 567.8935549701641
  endloop
endfacet
facet normal -1.0 4.624309318988262e-15 -4.731348679779283e-15
  outer loop
    vertex 2180.866315448547 -771.6556814757081 605.893554970164
    vertex 2180.8663154485516 -751.6556814757073 570.8935549701641
    vertex 2180.8663154485516 -772.6556814757065 582.8935549701641
  endloop
endfacet
facet normal -1.0 4.624309318988262e-15 -4.731348679779283e-15
  outer loop
    vertex 2180.866315448547 -771.6556814757081 605.893554970164
    vertex 2180.8663154485516 -772.6556814757065 582.8935549701641
    vertex 2180.8663154485516 -772.6556814757073 598.8935549701642
  endloop
endfacet
facet normal -1.0 4.624309318988262e-15 -4.731348679779283e-15
  outer loop
    vertex 2180.866315448547 -771.6556814757081 605.893554970164
    vertex 2180.8663154485516 -772.6556814757073 598.8935549701642
    vertex 2180.866315448547 -774.6556814757085 608.8935549701641
  endloop
endfacet
facet normal -1.0 4.624309318988262e-15 -4.731348679779283e-15
  outer loop
    vertex 2180.866315448547 -774.6556814757085 608.8935549701641
    vertex 2180.8663154485516 -772.6556814757073 598.8935549701642
    vertex 2180.8663154485516 -775.6556814757071 598.8935549701642
  endloop
endfacet
facet normal -1.0 4.624309318988262e-15 -4.731348679779283e-15
  outer loop
    vertex 2180.8663154485516 -785.6556814757072 567.8935549701642
    vertex 2180.8663154485516 -775.6556814757071 598.8935549701642
    vertex 2180.8663154485516 -775.6556814757071 567.8935549701641
  endloop
endfacet
facet normal -1.0 4.624309318988262e-15 -4.731348679779283e-15
  outer loop
    vertex 2180.8663154485516 -775.6556814757071 598.8935549701642
    vertex 2180.8663154485516 -785.6556814757072 567.8935549701642
    vertex 2180.8663154485516 -777.6556814757068 675.8935549701642
  endloop
endfacet
facet normal -1.0 4.624309318988262e-15 -4.731348679779283e-15
  outer loop
    vertex 2180.8663154485516 -777.6556814757068 675.8935549701642
    vertex 2180.8663154485516 -785.6556814757072 567.8935549701642
    vertex 2180.8663154485516 -785.6556814757067 675.8935549701642
  endloop
endfacet
facet normal -1.0 4.624309318988262e-15 -4.731348679779283e-15
  outer loop
    vertex 2180.866315448547 -774.6556814757085 608.8935549701641
    vertex 2180.8663154485516 -777.6556814757068 675.8935549701642
    vertex 2180.8663154485516 -774.655681475707 672.8935549701641
  endloop
endfacet
facet normal -1.0 4.624309318988262e-15 -4.731348679779283e-15
  outer loop
    vertex 2180.8663154485516 -777.6556814757068 675.8935549701642
    vertex 2180.866315448547 -774.6556814757085 608.8935549701641
    vertex 2180.8663154485516 -775.6556814757071 598.8935549701642
  endloop
endfacet
facet normal -1.0 4.624309318988262e-15 -4.731348679779283e-15
  outer loop
    vertex 2180.8663154485516 -713.6556814757071 567.8935549701648
    vertex 2180.866315448551 -703.6556814757067 675.893554970164
    vertex 2180.8663154485516 -703.655681475707 567.8935549701639
  endloop
endfacet
facet normal -1.0 4.624309318988262e-15 -4.731348679779283e-15
  outer loop
    vertex 2180.866315448551 -703.6556814757067 675.893554970164
    vertex 2180.8663154485516 -713.6556814757071 567.8935549701648
    vertex 2180.8663154485507 -710.655681475707 675.8935549701641
  endloop
endfacet
facet normal -1.0 4.624309318988262e-15 -4.731348679779283e-15
  outer loop
    vertex 2180.8663154485507 -710.655681475707 675.8935549701641
    vertex 2180.8663154485516 -713.6556814757071 567.8935549701648
    vertex 2180.866315448551 -713.655681475707 672.893554970164
  endloop
endfacet
facet normal -1.0 4.624309318988262e-15 -4.731348679779283e-15
  outer loop
    vertex 2180.866315448551 -713.655681475707 672.893554970164
    vertex 2180.8663154485516 -713.6556814757071 567.8935549701648
    vertex 2180.8663154485516 -713.6556814757071 598.8935549701649
  endloop
endfacet
facet normal -1.0 4.624309318988262e-15 -4.731348679779283e-15
  outer loop
    vertex 2180.866315448551 -713.655681475707 672.893554970164
    vertex 2180.8663154485516 -713.6556814757071 598.8935549701649
    vertex 2180.866315448551 -713.6556814757085 608.8935549701649
  endloop
endfacet
facet normal -1.0 4.624309318988262e-15 -4.731348679779283e-15
  outer loop
    vertex 2180.866315448551 -713.6556814757085 608.8935549701649
    vertex 2180.8663154485516 -713.6556814757071 598.8935549701649
    vertex 2180.8663154485516 -716.6556814757071 598.8935549701641
  endloop
endfacet
facet normal -1.0 4.624309318988262e-15 -4.731348679779283e-15
  outer loop
    vertex 2180.866315448551 -713.6556814757085 608.8935549701649
    vertex 2180.8663154485516 -716.6556814757071 598.8935549701641
    vertex 2180.866315448551 -716.6556814757087 605.8935549701639
  endloop
endfacet
facet normal 3.119086218924523e-16 -0.49613893835683004 0.8682431421244614
  outer loop
    vertex 2180.8663154485516 -716.6556814757063 582.893554970164
    vertex 2162.866315448552 -737.6556814757073 570.8935549701641
    vertex 2180.8663154485516 -737.6556814757072 570.8935549701641
  endloop
endfacet
facet normal 3.119086218924523e-16 -0.49613893835683004 0.8682431421244614
  outer loop
    vertex 2162.866315448552 -737.6556814757073 570.8935549701641
    vertex 2180.8663154485516 -716.6556814757063 582.893554970164
    vertex 2162.8663154485507 -716.6556814757063 582.893554970164
  endloop
endfacet
facet normal -3.3967191680787536e-15 0.49613893835683526 0.8682431421244584
  outer loop
    vertex 2162.866315448552 -751.6556814757074 570.8935549701641
    vertex 2180.8663154485516 -772.6556814757065 582.8935549701641
    vertex 2180.8663154485516 -751.6556814757073 570.8935549701641
  endloop
endfacet
facet normal -3.3967191680787536e-15 0.49613893835683526 0.8682431421244584
  outer loop
    vertex 2180.8663154485516 -772.6556814757065 582.8935549701641
    vertex 2162.866315448552 -751.6556814757074 570.8935549701641
    vertex 2162.8663154485503 -772.6556814757065 582.8935549701641
  endloop
endfacet
facet normal 5.330112647546439e-15 3.2967288158641688e-15 -1.0
  outer loop
    vertex 2159.866315448552 -737.6556814757073 598.8935549701641
    vertex 2162.8663154485516 -716.6556814757073 598.893554970164
    vertex 2162.866315448552 -737.6556814757073 598.8935549701639
  endloop
endfacet
facet normal 5.330112647546439e-15 3.2967288158641688e-15 -1.0
  outer loop
    vertex 2162.8663154485516 -716.6556814757073 598.893554970164
    vertex 2180.8663154485516 -713.6556814757071 598.8935549701649
    vertex 2180.8663154485516 -716.6556814757071 598.8935549701641
  endloop
endfacet
facet normal 5.330112647546439e-15 3.2967288158641688e-15 -1.0
  outer loop
    vertex 2180.8663154485516 -713.6556814757071 598.8935549701649
    vertex 2162.8663154485516 -716.6556814757073 598.893554970164
    vertex 2159.8663154485516 -713.6556814757071 598.8935549701641
  endloop
endfacet
facet normal 5.330112647546439e-15 3.2967288158641688e-15 -1.0
  outer loop
    vertex 2159.8663154485516 -713.6556814757071 598.8935549701641
    vertex 2162.8663154485516 -716.6556814757073 598.893554970164
    vertex 2159.866315448552 -737.6556814757073 598.8935549701641
  endloop
endfacet
facet normal -1.0 6.227477630031088e-14 3.7483862168021675e-14
  outer loop
    vertex 2162.8663154485503 -772.6556814757065 582.8935549701641
    vertex 2162.86631544855 -751.6556814757074 598.8935549701639
    vertex 2162.866315448552 -751.6556814757074 570.8935549701641
  endloop
endfacet
facet normal -1.0 6.227477630031088e-14 3.7483862168021675e-14
  outer loop
    vertex 2162.86631544855 -751.6556814757074 598.8935549701639
    vertex 2162.8663154485503 -772.6556814757065 582.8935549701641
    vertex 2162.866315448552 -772.6556814757074 598.8935549701641
  endloop
endfacet
facet normal 3.342182497834226e-15 -1.0 -1.5243062067826722e-16
  outer loop
    vertex 2180.8663154485516 -772.6556814757073 598.8935549701642
    vertex 2162.8663154485503 -772.6556814757065 582.8935549701641
    vertex 2180.8663154485516 -772.6556814757065 582.8935549701641
  endloop
endfacet
facet normal 3.342182497834226e-15 -1.0 -1.5243062067826722e-16
  outer loop
    vertex 2162.8663154485503 -772.6556814757065 582.8935549701641
    vertex 2180.8663154485516 -772.6556814757073 598.8935549701642
    vertex 2162.866315448552 -772.6556814757074 598.8935549701641
  endloop
endfacet
facet normal -6.684364995668865e-15 1.0 3.048612413565293e-16
  outer loop
    vertex 2162.8663154485507 -716.6556814757063 582.893554970164
    vertex 2180.8663154485516 -716.6556814757071 598.8935549701641
    vertex 2180.8663154485516 -716.6556814757063 582.893554970164
  endloop
endfacet
facet normal -6.684364995668865e-15 1.0 3.048612413565293e-16
  outer loop
    vertex 2180.8663154485516 -716.6556814757071 598.8935549701641
    vertex 2162.8663154485507 -716.6556814757063 582.893554970164
    vertex 2162.8663154485516 -716.6556814757073 598.893554970164
  endloop
endfacet
facet normal 6.46212162136854e-30 1.0 0.0
  outer loop
    vertex 2159.8663154485516 -751.6556814757074 567.8935549701641
    vertex 2162.866315448552 -751.6556814757074 570.8935549701641
    vertex 2162.866315448552 -751.6556814757074 567.893554970164
  endloop
endfacet
facet normal 6.46212162136854e-30 1.0 0.0
  outer loop
    vertex 2162.866315448552 -751.6556814757074 570.8935549701641
    vertex 2159.8663154485516 -751.6556814757074 567.8935549701641
    vertex 2159.8663154485494 -751.6556814757074 598.8935549701641
  endloop
endfacet
facet normal 6.46212162136854e-30 1.0 0.0
  outer loop
    vertex 2162.866315448552 -751.6556814757074 570.8935549701641
    vertex 2159.8663154485494 -751.6556814757074 598.8935549701641
    vertex 2162.86631544855 -751.6556814757074 598.8935549701639
  endloop
endfacet
facet normal -6.46212162136854e-30 -1.0 0.0
  outer loop
    vertex 2162.866315448552 -737.6556814757073 570.8935549701641
    vertex 2159.8663154485516 -737.6556814757073 567.8935549701641
    vertex 2162.866315448552 -737.6556814757073 567.893554970164
  endloop
endfacet
facet normal -6.46212162136854e-30 -1.0 0.0
  outer loop
    vertex 2159.8663154485516 -737.6556814757073 567.8935549701641
    vertex 2162.866315448552 -737.6556814757073 570.8935549701641
    vertex 2159.866315448552 -737.6556814757073 598.8935549701641
  endloop
endfacet
facet normal -6.46212162136854e-30 -1.0 0.0
  outer loop
    vertex 2159.866315448552 -737.6556814757073 598.8935549701641
    vertex 2162.866315448552 -737.6556814757073 570.8935549701641
    vertex 2162.866315448552 -737.6556814757073 598.8935549701639
  endloop
endfacet
facet normal -1.0 -4.892073722105041e-14 2.082436787112281e-14
  outer loop
    vertex 2162.866315448552 -737.6556814757073 570.8935549701641
    vertex 2162.8663154485516 -716.6556814757073 598.893554970164
    vertex 2162.8663154485507 -716.6556814757063 582.893554970164
  endloop
endfacet
facet normal -1.0 -4.892073722105041e-14 2.082436787112281e-14
  outer loop
    vertex 2162.8663154485516 -716.6556814757073 598.893554970164
    vertex 2162.866315448552 -737.6556814757073 570.8935549701641
    vertex 2162.866315448552 -737.6556814757073 598.8935549701639
  endloop
endfacet
facet normal 1.0 -7.519910620127815e-15 -5.821866286550483e-15
  outer loop
    vertex 2159.8663154485494 -751.6556814757074 598.8935549701641
    vertex 2159.8663154485516 -775.6556814757071 567.893554970164
    vertex 2159.8663154485516 -751.6556814757074 567.8935549701641
  endloop
endfacet
facet normal 1.0 -7.519910620127815e-15 -5.821866286550483e-15
  outer loop
    vertex 2159.8663154485516 -775.6556814757071 567.893554970164
    vertex 2159.8663154485494 -751.6556814757074 598.8935549701641
    vertex 2159.8663154485516 -775.6556814757071 598.8935549701641
  endloop
endfacet
facet normal 3.898321665474097e-15 -4.295372946217108e-15 -1.0
  outer loop
    vertex 2159.8663154485516 -775.6556814757071 598.8935549701641
    vertex 2180.8663154485516 -772.6556814757073 598.8935549701642
    vertex 2180.8663154485516 -775.6556814757071 598.8935549701642
  endloop
endfacet
facet normal 3.898321665474097e-15 -4.295372946217108e-15 -1.0
  outer loop
    vertex 2180.8663154485516 -772.6556814757073 598.8935549701642
    vertex 2159.8663154485516 -775.6556814757071 598.8935549701641
    vertex 2162.866315448552 -772.6556814757074 598.8935549701641
  endloop
endfacet
facet normal 3.898321665474097e-15 -4.295372946217108e-15 -1.0
  outer loop
    vertex 2162.866315448552 -772.6556814757074 598.8935549701641
    vertex 2159.8663154485516 -775.6556814757071 598.8935549701641
    vertex 2162.86631544855 -751.6556814757074 598.8935549701639
  endloop
endfacet
facet normal 3.898321665474097e-15 -4.295372946217108e-15 -1.0
  outer loop
    vertex 2162.86631544855 -751.6556814757074 598.8935549701639
    vertex 2159.8663154485516 -775.6556814757071 598.8935549701641
    vertex 2159.8663154485494 -751.6556814757074 598.8935549701641
  endloop
endfacet
facet normal 3.625193304169431e-15 -2.3281549079494465e-15 -1.0
  outer loop
    vertex 2219.866315448547 -785.655681475707 567.8935549701655
    vertex 2219.866315448551 -703.6556814757068 567.8935549701641
    vertex 2219.866315448551 -706.6556814757068 567.8935549701641
  endloop
endfacet
facet normal 3.625193304169431e-15 -2.3281549079494465e-15 -1.0
  outer loop
    vertex 2204.36631544855 -805.6556814757071 567.8935549701644
    vertex 2207.36631544855 -788.655681475707 567.8935549701644
    vertex 2207.36631544855 -805.6556814757071 567.8935549701648
  endloop
endfacet
facet normal 3.625193304169431e-15 -2.3281549079494465e-15 -1.0
  outer loop
    vertex 2193.3663154485494 -805.6556814757067 567.8935549701644
    vertex 2196.3663154485494 -791.6556814757066 567.8935549701648
    vertex 2196.3663154485494 -805.6556814757067 567.8935549701644
  endloop
endfacet
facet normal 3.625193304169431e-15 -2.3281549079494465e-15 -1.0
  outer loop
    vertex 2180.8663154485516 -785.6556814757072 567.8935549701642
    vertex 2180.8663154485516 -737.6556814757072 567.8935549701641
    vertex 2183.8663154485516 -788.6556814757072 567.8935549701642
  endloop
endfacet
facet normal 3.625193304169431e-15 -2.3281549079494465e-15 -1.0
  outer loop
    vertex 2180.8663154485516 -737.6556814757072 567.8935549701641
    vertex 2180.8663154485516 -785.6556814757072 567.8935549701642
    vertex 2180.8663154485516 -751.6556814757073 567.8935549701641
  endloop
endfacet
facet normal 3.625193304169431e-15 -2.3281549079494465e-15 -1.0
  outer loop
    vertex 2180.8663154485516 -751.6556814757073 567.8935549701641
    vertex 2180.8663154485516 -785.6556814757072 567.8935549701642
    vertex 2180.8663154485516 -775.6556814757071 567.8935549701641
  endloop
endfacet
facet normal 3.625193304169431e-15 -2.3281549079494465e-15 -1.0
  outer loop
    vertex 2180.8663154485516 -751.6556814757073 567.8935549701641
    vertex 2180.8663154485516 -775.6556814757071 567.8935549701641
    vertex 2159.8663154485516 -775.6556814757071 567.893554970164
  endloop
endfacet
facet normal 3.625193304169431e-15 -2.3281549079494465e-15 -1.0
  outer loop
    vertex 2180.8663154485516 -751.6556814757073 567.8935549701641
    vertex 2159.8663154485516 -775.6556814757071 567.893554970164
    vertex 2162.866315448552 -751.6556814757074 567.893554970164
  endloop
endfacet
facet normal 3.625193304169431e-15 -2.3281549079494465e-15 -1.0
  outer loop
    vertex 2162.866315448552 -751.6556814757074 567.893554970164
    vertex 2159.8663154485516 -775.6556814757071 567.893554970164
    vertex 2159.8663154485516 -751.6556814757074 567.8935549701641
  endloop
endfacet
facet normal 3.625193304169431e-15 -2.3281549079494465e-15 -1.0
  outer loop
    vertex 2162.866315448552 -737.6556814757073 567.893554970164
    vertex 2180.8663154485516 -713.6556814757071 567.8935549701648
    vertex 2180.8663154485516 -737.6556814757072 567.8935549701641
  endloop
endfacet
facet normal 3.625193304169431e-15 -2.3281549079494465e-15 -1.0
  outer loop
    vertex 2180.8663154485516 -713.6556814757071 567.8935549701648
    vertex 2162.866315448552 -737.6556814757073 567.893554970164
    vertex 2159.8663154485516 -713.6556814757071 567.8935549701648
  endloop
endfacet
facet normal 3.625193304169431e-15 -2.3281549079494465e-15 -1.0
  outer loop
    vertex 2159.8663154485516 -713.6556814757071 567.8935549701648
    vertex 2162.866315448552 -737.6556814757073 567.893554970164
    vertex 2159.8663154485516 -737.6556814757073 567.8935549701641
  endloop
endfacet
facet normal 3.625193304169431e-15 -2.3281549079494465e-15 -1.0
  outer loop
    vertex 2222.866315448551 -703.6556814757068 567.8935549701641
    vertex 2237.2663154485517 -700.6556814757064 567.8935549701642
    vertex 2237.2663154485517 -703.6556814757064 567.8935549701642
  endloop
endfacet
facet normal 3.625193304169431e-15 -2.3281549079494465e-15 -1.0
  outer loop
    vertex 2237.2663154485517 -700.6556814757064 567.8935549701642
    vertex 2222.866315448551 -703.6556814757068 567.8935549701641
    vertex 2162.2663154485513 -700.6556814757071 567.8935549701639
  endloop
endfacet
facet normal 3.625193304169431e-15 -2.3281549079494465e-15 -1.0
  outer loop
    vertex 2162.2663154485513 -700.6556814757071 567.8935549701639
    vertex 2222.866315448551 -703.6556814757068 567.8935549701641
    vertex 2219.866315448551 -703.6556814757068 567.8935549701641
  endloop
endfacet
facet normal 3.625193304169431e-15 -2.3281549079494465e-15 -1.0
  outer loop
    vertex 2162.2663154485513 -700.6556814757071 567.8935549701639
    vertex 2219.866315448551 -703.6556814757068 567.8935549701641
    vertex 2180.8663154485516 -703.655681475707 567.8935549701639
  endloop
endfacet
facet normal 3.625193304169431e-15 -2.3281549079494465e-15 -1.0
  outer loop
    vertex 2180.8663154485516 -703.655681475707 567.8935549701639
    vertex 2219.866315448551 -703.6556814757068 567.8935549701641
    vertex 2219.866315448547 -785.655681475707 567.8935549701655
  endloop
endfacet
facet normal 3.625193304169431e-15 -2.3281549079494465e-15 -1.0
  outer loop
    vertex 2180.8663154485516 -703.655681475707 567.8935549701639
    vertex 2219.866315448547 -785.655681475707 567.8935549701655
    vertex 2216.866315448547 -788.655681475707 567.8935549701644
  endloop
endfacet
facet normal 3.625193304169431e-15 -2.3281549079494465e-15 -1.0
  outer loop
    vertex 2180.8663154485516 -703.655681475707 567.8935549701639
    vertex 2216.866315448547 -788.655681475707 567.8935549701644
    vertex 2207.36631544855 -788.655681475707 567.8935549701644
  endloop
endfacet
facet normal 3.625193304169431e-15 -2.3281549079494465e-15 -1.0
  outer loop
    vertex 2180.8663154485516 -703.655681475707 567.8935549701639
    vertex 2207.36631544855 -788.655681475707 567.8935549701644
    vertex 2204.36631544855 -791.6556814757071 567.8935549701644
  endloop
endfacet
facet normal 3.625193304169431e-15 -2.3281549079494465e-15 -1.0
  outer loop
    vertex 2204.36631544855 -791.6556814757071 567.8935549701644
    vertex 2207.36631544855 -788.655681475707 567.8935549701644
    vertex 2204.36631544855 -805.6556814757071 567.8935549701644
  endloop
endfacet
facet normal 3.625193304169431e-15 -2.3281549079494465e-15 -1.0
  outer loop
    vertex 2180.8663154485516 -703.655681475707 567.8935549701639
    vertex 2204.36631544855 -791.6556814757071 567.8935549701644
    vertex 2201.36631544855 -788.6556814757071 567.8935549701644
  endloop
endfacet
facet normal 3.625193304169431e-15 -2.3281549079494465e-15 -1.0
  outer loop
    vertex 2180.8663154485516 -703.655681475707 567.8935549701639
    vertex 2201.36631544855 -788.6556814757071 567.8935549701644
    vertex 2199.3663154485494 -788.6556814757071 567.8935549701644
  endloop
endfacet
facet normal 3.625193304169431e-15 -2.3281549079494465e-15 -1.0
  outer loop
    vertex 2180.8663154485516 -703.655681475707 567.8935549701639
    vertex 2199.3663154485494 -788.6556814757071 567.8935549701644
    vertex 2196.3663154485494 -791.6556814757066 567.8935549701648
  endloop
endfacet
facet normal 3.625193304169431e-15 -2.3281549079494465e-15 -1.0
  outer loop
    vertex 2180.8663154485516 -703.655681475707 567.8935549701639
    vertex 2196.3663154485494 -791.6556814757066 567.8935549701648
    vertex 2193.3663154485494 -788.6556814757066 567.8935549701644
  endloop
endfacet
facet normal 3.625193304169431e-15 -2.3281549079494465e-15 -1.0
  outer loop
    vertex 2193.3663154485494 -788.6556814757066 567.8935549701644
    vertex 2196.3663154485494 -791.6556814757066 567.8935549701648
    vertex 2193.3663154485494 -805.6556814757067 567.8935549701644
  endloop
endfacet
facet normal 3.625193304169431e-15 -2.3281549079494465e-15 -1.0
  outer loop
    vertex 2180.8663154485516 -703.655681475707 567.8935549701639
    vertex 2193.3663154485494 -788.6556814757066 567.8935549701644
    vertex 2183.8663154485516 -788.6556814757072 567.8935549701642
  endloop
endfacet
facet normal 3.625193304169431e-15 -2.3281549079494465e-15 -1.0
  outer loop
    vertex 2180.8663154485516 -703.655681475707 567.8935549701639
    vertex 2183.8663154485516 -788.6556814757072 567.8935549701642
    vertex 2180.8663154485516 -737.6556814757072 567.8935549701641
  endloop
endfacet
facet normal 3.625193304169431e-15 -2.3281549079494465e-15 -1.0
  outer loop
    vertex 2180.8663154485516 -703.655681475707 567.8935549701639
    vertex 2180.8663154485516 -737.6556814757072 567.8935549701641
    vertex 2180.8663154485516 -713.6556814757071 567.8935549701648
  endloop
endfacet
facet normal 3.625193304169431e-15 -2.3281549079494465e-15 -1.0
  outer loop
    vertex 2162.2663154485513 -700.6556814757071 567.8935549701639
    vertex 2180.8663154485516 -703.655681475707 567.8935549701639
    vertex 2162.2663154485513 -703.6556814757071 567.8935549701639
  endloop
endfacet
facet normal 0.0 0.0 1.0
  outer loop
    vertex 2193.3663154485494 -788.6556814757067 577.8935549701645
    vertex 2196.3663154485494 -791.6556814757066 577.8935549701649
    vertex 2199.3663154485494 -788.6556814757071 577.8935549701645
  endloop
endfacet
facet normal 0.0 0.0 1.0
  outer loop
    vertex 2196.3663154485494 -791.6556814757066 577.8935549701649
    vertex 2193.3663154485494 -788.6556814757067 577.8935549701645
    vertex 2196.3663154485494 -799.6556814757067 577.8935549701645
  endloop
endfacet
facet normal 0.0 0.0 1.0
  outer loop
    vertex 2196.3663154485494 -799.6556814757067 577.8935549701645
    vertex 2193.3663154485494 -788.6556814757067 577.8935549701645
    vertex 2193.3663154485494 -799.6556814757067 577.8935549701645
  endloop
endfacet
facet normal 1.0 -4.581931051725625e-30 0.0
  outer loop
    vertex 2196.3663154485494 -799.6556814757067 577.8935549701645
    vertex 2196.3663154485494 -791.6556814757066 567.8935549701648
    vertex 2196.3663154485494 -791.6556814757066 577.8935549701649
  endloop
endfacet
facet normal 1.0 -4.581931051725625e-30 0.0
  outer loop
    vertex 2196.3663154485494 -791.6556814757066 567.8935549701648
    vertex 2196.3663154485494 -799.6556814757067 577.8935549701645
    vertex 2196.3663154485494 -805.6556814757067 567.8935549701644
  endloop
endfacet
facet normal 1.0 -4.581931051725625e-30 0.0
  outer loop
    vertex 2196.3663154485494 -805.6556814757067 567.8935549701644
    vertex 2196.3663154485494 -799.6556814757067 577.8935549701645
    vertex 2196.3663154485494 -802.6556814757067 580.8935549701645
  endloop
endfacet
facet normal 1.0 -4.581931051725625e-30 0.0
  outer loop
    vertex 2196.3663154485494 -805.6556814757067 567.8935549701644
    vertex 2196.3663154485494 -802.6556814757067 580.8935549701645
    vertex 2196.3663154485494 -805.6556814757064 580.8935549701645
  endloop
endfacet
facet normal -1.0 4.581931051725625e-30 0.0
  outer loop
    vertex 2193.3663154485494 -805.6556814757067 567.8935549701644
    vertex 2193.3663154485494 -788.6556814757067 577.8935549701645
    vertex 2193.3663154485494 -788.6556814757066 567.8935549701644
  endloop
endfacet
facet normal -1.0 4.581931051725625e-30 0.0
  outer loop
    vertex 2193.3663154485494 -788.6556814757067 577.8935549701645
    vertex 2193.3663154485494 -805.6556814757067 567.8935549701644
    vertex 2193.3663154485494 -799.6556814757067 577.8935549701645
  endloop
endfacet
facet normal -1.0 4.581931051725625e-30 0.0
  outer loop
    vertex 2193.3663154485494 -799.6556814757067 577.8935549701645
    vertex 2193.3663154485494 -805.6556814757067 567.8935549701644
    vertex 2193.3663154485494 -802.6556814757067 580.8935549701645
  endloop
endfacet
facet normal -1.0 4.581931051725625e-30 0.0
  outer loop
    vertex 2193.3663154485494 -802.6556814757067 580.8935549701645
    vertex 2193.3663154485494 -805.6556814757067 567.8935549701644
    vertex 2193.3663154485494 -805.6556814757068 580.8935549701645
  endloop
endfacet
facet normal 1.2976596665779739e-14 -1.4659753555484262e-15 1.0
  outer loop
    vertex 2207.36631544855 -788.6556814757067 577.8935549701647
    vertex 2204.36631544855 -791.6556814757066 577.8935549701648
    vertex 2207.36631544855 -799.6556814757066 577.8935549701647
  endloop
endfacet
facet normal 1.2976596665779739e-14 -1.4659753555484262e-15 1.0
  outer loop
    vertex 2204.36631544855 -791.6556814757066 577.8935549701648
    vertex 2207.36631544855 -788.6556814757067 577.8935549701647
    vertex 2201.36631544855 -788.655681475707 577.8935549701648
  endloop
endfacet
facet normal 1.2976596665779739e-14 -1.4659753555484262e-15 1.0
  outer loop
    vertex 2204.36631544855 -799.6556814757066 577.8935549701647
    vertex 2207.36631544855 -799.6556814757066 577.8935549701647
    vertex 2204.36631544855 -791.6556814757066 577.8935549701648
  endloop
endfacet
facet normal -1.0 4.581931051725625e-30 0.0
  outer loop
    vertex 2204.36631544855 -791.6556814757071 567.8935549701644
    vertex 2204.36631544855 -799.6556814757066 577.8935549701647
    vertex 2204.36631544855 -791.6556814757066 577.8935549701648
  endloop
endfacet
facet normal -1.0 4.581931051725625e-30 0.0
  outer loop
    vertex 2204.36631544855 -799.6556814757066 577.8935549701647
    vertex 2204.36631544855 -791.6556814757071 567.8935549701644
    vertex 2204.36631544855 -805.6556814757071 567.8935549701644
  endloop
endfacet
facet normal -1.0 4.581931051725625e-30 0.0
  outer loop
    vertex 2204.36631544855 -799.6556814757066 577.8935549701647
    vertex 2204.36631544855 -805.6556814757071 567.8935549701644
    vertex 2204.36631544855 -802.6556814757067 580.8935549701648
  endloop
endfacet
facet normal -1.0 4.581931051725625e-30 0.0
  outer loop
    vertex 2204.36631544855 -802.6556814757067 580.8935549701648
    vertex 2204.36631544855 -805.6556814757071 567.8935549701644
    vertex 2204.36631544855 -805.6556814757067 580.8935549701648
  endloop
endfacet
facet normal 1.0 -4.581931051725625e-30 0.0
  outer loop
    vertex 2207.36631544855 -799.6556814757066 577.8935549701647
    vertex 2207.36631544855 -788.655681475707 567.8935549701644
    vertex 2207.36631544855 -788.6556814757067 577.8935549701647
  endloop
endfacet
facet normal 1.0 -4.581931051725625e-30 0.0
  outer loop
    vertex 2207.36631544855 -788.655681475707 567.8935549701644
    vertex 2207.36631544855 -799.6556814757066 577.8935549701647
    vertex 2207.36631544855 -805.6556814757071 567.8935549701648
  endloop
endfacet
facet normal 1.0 -4.581931051725625e-30 0.0
  outer loop
    vertex 2207.36631544855 -805.6556814757071 567.8935549701648
    vertex 2207.36631544855 -799.6556814757066 577.8935549701647
    vertex 2207.36631544855 -802.6556814757067 580.8935549701648
  endloop
endfacet
facet normal 1.0 -4.581931051725625e-30 0.0
  outer loop
    vertex 2207.36631544855 -805.6556814757071 567.8935549701648
    vertex 2207.36631544855 -802.6556814757067 580.8935549701648
    vertex 2207.36631544855 -805.6556814757067 580.8935549701653
  endloop
endfacet
facet normal 3.944304526105059e-30 0.7071067811865476 0.7071067811865476
  outer loop
    vertex 2204.36631544855 -799.6556814757066 577.8935549701647
    vertex 2207.36631544855 -802.6556814757067 580.8935549701648
    vertex 2207.36631544855 -799.6556814757066 577.8935549701647
  endloop
endfacet
facet normal 3.944304526105059e-30 0.7071067811865476 0.7071067811865476
  outer loop
    vertex 2207.36631544855 -802.6556814757067 580.8935549701648
    vertex 2204.36631544855 -799.6556814757066 577.8935549701647
    vertex 2204.36631544855 -802.6556814757067 580.8935549701648
  endloop
endfacet
facet normal 3.944304526105059e-30 0.7071067811865476 0.7071067811865476
  outer loop
    vertex 2193.3663154485494 -799.6556814757067 577.8935549701645
    vertex 2196.3663154485494 -802.6556814757067 580.8935549701645
    vertex 2196.3663154485494 -799.6556814757067 577.8935549701645
  endloop
endfacet
facet normal 3.944304526105059e-30 0.7071067811865476 0.7071067811865476
  outer loop
    vertex 2196.3663154485494 -802.6556814757067 580.8935549701645
    vertex 2193.3663154485494 -799.6556814757067 577.8935549701645
    vertex 2193.3663154485494 -802.6556814757067 580.8935549701645
  endloop
endfacet
facet normal -5.0791839696062426e-30 -1.0 -6.941455957040869e-15
  outer loop
    vertex 2196.3663154485494 -805.6556814757064 580.8935549701645
    vertex 2193.3663154485494 -805.6556814757067 567.8935549701644
    vertex 2196.3663154485494 -805.6556814757067 567.8935549701644
  endloop
endfacet
facet normal -5.0791839696062426e-30 -1.0 -6.941455957040869e-15
  outer loop
    vertex 2193.3663154485494 -805.6556814757067 567.8935549701644
    vertex 2196.3663154485494 -805.6556814757064 580.8935549701645
    vertex 2193.3663154485494 -805.6556814757068 580.8935549701645
  endloop
endfacet
facet normal -3.944304526105059e-30 -6.941455957040869e-15 1.0
  outer loop
    vertex 2193.3663154485494 -802.6556814757067 580.8935549701645
    vertex 2196.3663154485494 -805.6556814757064 580.8935549701645
    vertex 2196.3663154485494 -802.6556814757067 580.8935549701645
  endloop
endfacet
facet normal -3.944304526105059e-30 -6.941455957040869e-15 1.0
  outer loop
    vertex 2196.3663154485494 -805.6556814757064 580.8935549701645
    vertex 2193.3663154485494 -802.6556814757067 580.8935549701645
    vertex 2193.3663154485494 -805.6556814757068 580.8935549701645
  endloop
endfacet
facet normal -5.079183969606876e-30 -1.0 -6.941455957040725e-15
  outer loop
    vertex 2207.36631544855 -805.6556814757071 567.8935549701648
    vertex 2204.36631544855 -805.6556814757067 580.8935549701648
    vertex 2204.36631544855 -805.6556814757071 567.8935549701644
  endloop
endfacet
facet normal -5.079183969606876e-30 -1.0 -6.941455957040725e-15
  outer loop
    vertex 2204.36631544855 -805.6556814757067 580.8935549701648
    vertex 2207.36631544855 -805.6556814757071 567.8935549701648
    vertex 2207.36631544855 -805.6556814757067 580.8935549701653
  endloop
endfacet
facet normal -3.944304526105059e-30 -6.941455957040725e-15 1.0
  outer loop
    vertex 2204.36631544855 -802.6556814757067 580.8935549701648
    vertex 2207.36631544855 -805.6556814757067 580.8935549701653
    vertex 2207.36631544855 -802.6556814757067 580.8935549701648
  endloop
endfacet
facet normal -3.944304526105059e-30 -6.941455957040725e-15 1.0
  outer loop
    vertex 2207.36631544855 -805.6556814757067 580.8935549701653
    vertex 2204.36631544855 -802.6556814757067 580.8935549701648
    vertex 2204.36631544855 -805.6556814757067 580.8935549701648
  endloop
endfacet
facet normal 0.7071067811865476 -0.7071067811865476 -4.599059077438499e-28
  outer loop
    vertex 2199.3663154485494 -788.6556814757071 577.8935549701645
    vertex 2196.3663154485494 -791.6556814757066 567.8935549701648
    vertex 2199.3663154485494 -788.6556814757071 567.8935549701644
  endloop
endfacet
facet normal 0.7071067811865476 -0.7071067811865476 -4.599059077438499e-28
  outer loop
    vertex 2196.3663154485494 -791.6556814757066 567.8935549701648
    vertex 2199.3663154485494 -788.6556814757071 577.8935549701645
    vertex 2196.3663154485494 -791.6556814757066 577.8935549701649
  endloop
endfacet
facet normal -0.707106781186537 -0.7071067811865581 -7.913756646057753e-18
  outer loop
    vertex 2204.36631544855 -791.6556814757066 577.8935549701648
    vertex 2201.36631544855 -788.6556814757071 567.8935549701644
    vertex 2204.36631544855 -791.6556814757071 567.8935549701644
  endloop
endfacet
facet normal -0.707106781186537 -0.7071067811865581 -7.913756646057753e-18
  outer loop
    vertex 2201.36631544855 -788.6556814757071 567.8935549701644
    vertex 2204.36631544855 -791.6556814757066 577.8935549701648
    vertex 2201.36631544855 -788.655681475707 577.8935549701648
  endloop
endfacet
facet normal 1.0 -6.907808990440731e-14 -6.2616314470986135e-15
  outer loop
    vertex 2219.866315448547 -780.6556814757075 675.8935549701645
    vertex 2219.866315448543 -775.6556814757081 608.8935549701642
    vertex 2219.866315448547 -775.6556814757076 670.893554970164
  endloop
endfacet
facet normal 1.0 -6.907808990440731e-14 -6.2616314470986135e-15
  outer loop
    vertex 2219.8663154485507 -709.6556814757076 675.8935549701638
    vertex 2219.866315448551 -706.6556814757068 567.8935549701641
    vertex 2219.8663154485507 -706.6556814757066 675.8935549701637
  endloop
endfacet
facet normal 1.0 -6.907808990440731e-14 -6.2616314470986135e-15
  outer loop
    vertex 2219.866315448551 -706.6556814757068 567.8935549701641
    vertex 2219.8663154485507 -709.6556814757076 675.8935549701638
    vertex 2219.8663154485507 -714.6556814757081 608.893554970164
  endloop
endfacet
facet normal 1.0 -6.907808990440731e-14 -6.2616314470986135e-15
  outer loop
    vertex 2219.866315448551 -706.6556814757068 567.8935549701641
    vertex 2219.8663154485507 -714.6556814757081 608.893554970164
    vertex 2219.8663154485507 -717.6556814757085 605.893554970164
  endloop
endfacet
facet normal 1.0 -6.907808990440731e-14 -6.2616314470986135e-15
  outer loop
    vertex 2219.866315448551 -706.6556814757068 567.8935549701641
    vertex 2219.8663154485507 -717.6556814757085 605.893554970164
    vertex 2219.866315448547 -785.655681475707 567.8935549701655
  endloop
endfacet
facet normal 1.0 -6.907808990440731e-14 -6.2616314470986135e-15
  outer loop
    vertex 2219.8663154485507 -714.6556814757081 608.893554970164
    vertex 2219.8663154485507 -709.6556814757076 675.8935549701638
    vertex 2219.8663154485507 -714.6556814757076 670.893554970164
  endloop
endfacet
facet normal 1.0 -6.907808990440731e-14 -6.2616314470986135e-15
  outer loop
    vertex 2219.866315448547 -785.655681475707 567.8935549701655
    vertex 2219.8663154485507 -717.6556814757085 605.893554970164
    vertex 2219.866315448543 -772.655681475708 605.8935549701642
  endloop
endfacet
facet normal 1.0 -6.907808990440731e-14 -6.2616314470986135e-15
  outer loop
    vertex 2219.866315448547 -785.655681475707 567.8935549701655
    vertex 2219.866315448543 -772.655681475708 605.8935549701642
    vertex 2219.866315448543 -775.6556814757081 608.8935549701642
  endloop
endfacet
facet normal 1.0 -6.907808990440731e-14 -6.2616314470986135e-15
  outer loop
    vertex 2219.866315448547 -785.655681475707 567.8935549701655
    vertex 2219.866315448543 -775.6556814757081 608.8935549701642
    vertex 2219.866315448547 -780.6556814757075 675.8935549701645
  endloop
endfacet
facet normal 1.0 -6.907808990440731e-14 -6.2616314470986135e-15
  outer loop
    vertex 2219.866315448547 -785.655681475707 567.8935549701655
    vertex 2219.866315448547 -780.6556814757075 675.8935549701645
    vertex 2219.866315448547 -785.6556814757066 675.8935549701645
  endloop
endfacet
facet normal 7.443327778393145e-14 0.7071067811865762 0.7071067811865188
  outer loop
    vertex 2216.8663154485475 -775.6556814757074 670.8935549701641
    vertex 2219.866315448547 -780.6556814757075 675.8935549701645
    vertex 2219.866315448547 -775.6556814757076 670.893554970164
  endloop
endfacet
facet normal 7.443327778393145e-14 0.7071067811865762 0.7071067811865188
  outer loop
    vertex 2219.866315448547 -780.6556814757075 675.8935549701645
    vertex 2216.8663154485475 -775.6556814757074 670.8935549701641
    vertex 2216.8663154485475 -780.6556814757074 675.8935549701646
  endloop
endfacet
facet normal -1.059564084224916e-14 -0.7071067811865379 0.7071067811865572
  outer loop
    vertex 2216.866315448551 -709.6556814757076 675.8935549701638
    vertex 2219.8663154485507 -714.6556814757076 670.893554970164
    vertex 2219.8663154485507 -709.6556814757076 675.8935549701638
  endloop
endfacet
facet normal -1.059564084224916e-14 -0.7071067811865379 0.7071067811865572
  outer loop
    vertex 2219.8663154485507 -714.6556814757076 670.893554970164
    vertex 2216.866315448551 -709.6556814757076 675.8935549701638
    vertex 2216.866315448551 -714.6556814757076 670.8935549701638
  endloop
endfacet
endsolid Main V1
