solid Main
facet normal -1.3056946761380976e-13 8.983335161899615e-16 1.0
  outer loop
    vertex -9987.550000000023 14509.872265232769 9487.472312875005
    vertex -9970.750000000024 14512.87226523277 9487.472312875008
    vertex -9987.550000000025 14512.872265232767 9487.472312875005
  endloop
endfacet
facet normal -1.3056946761380976e-13 8.983335161899615e-16 1.0
  outer loop
    vertex -9970.750000000024 14512.87226523277 9487.472312875008
    vertex -9987.550000000023 14509.872265232769 9487.472312875005
    vertex -9976.750000000024 14509.87226523277 9487.472312875007
  endloop
endfacet
facet normal -1.3056946761380976e-13 8.983335161899615e-16 1.0
  outer loop
    vertex -9970.750000000024 14512.87226523277 9487.472312875008
    vertex -9976.750000000024 14509.87226523277 9487.472312875007
    vertex -9973.750000000024 14506.672265232772 9487.472312875008
  endloop
endfacet
facet normal -1.3056946761380976e-13 8.983335161899615e-16 1.0
  outer loop
    vertex -9970.750000000024 14512.87226523277 9487.472312875008
    vertex -9973.750000000024 14506.672265232772 9487.472312875008
    vertex -9970.75000000002 14487.67226523277 9487.472312875008
  endloop
endfacet
facet normal -1.3056946761380976e-13 8.983335161899615e-16 1.0
  outer loop
    vertex -9970.75000000002 14487.67226523277 9487.472312875008
    vertex -9973.750000000024 14506.672265232772 9487.472312875008
    vertex -9973.75000000002 14493.672265232772 9487.472312875008
  endloop
endfacet
facet normal -1.3056946761380976e-13 8.983335161899615e-16 1.0
  outer loop
    vertex -9970.75000000002 14487.67226523277 9487.472312875008
    vertex -9973.75000000002 14493.672265232772 9487.472312875008
    vertex -9977.350000000019 14490.67226523277 9487.472312875007
  endloop
endfacet
facet normal -1.3056946761380976e-13 8.983335161899615e-16 1.0
  outer loop
    vertex -9970.75000000002 14487.67226523277 9487.472312875008
    vertex -9977.350000000019 14490.67226523277 9487.472312875007
    vertex -9977.350000000019 14484.672265232772 9487.472312875007
  endloop
endfacet
facet normal -1.3056946761380976e-13 8.983335161899615e-16 1.0
  outer loop
    vertex -9970.75000000002 14487.67226523277 9487.472312875008
    vertex -9977.350000000019 14484.672265232772 9487.472312875007
    vertex -9967.350000000019 14487.672265232773 9487.472312875008
  endloop
endfacet
facet normal -1.3056946761380976e-13 8.983335161899615e-16 1.0
  outer loop
    vertex -9967.350000000019 14487.672265232773 9487.472312875008
    vertex -9977.350000000019 14484.672265232772 9487.472312875007
    vertex -9961.350000000019 14484.672265232773 9487.47231287501
  endloop
endfacet
facet normal -1.3056946761380976e-13 8.983335161899615e-16 1.0
  outer loop
    vertex -9961.350000000019 14484.672265232773 9487.47231287501
    vertex -9977.350000000019 14484.672265232772 9487.472312875007
    vertex -9964.350000000019 14481.672265232772 9487.47231287501
  endloop
endfacet
facet normal -1.3056946761380976e-13 8.983335161899615e-16 1.0
  outer loop
    vertex -9964.350000000019 14481.672265232772 9487.47231287501
    vertex -9977.350000000019 14484.672265232772 9487.472312875007
    vertex -9974.350000000019 14481.672265232772 9487.472312875008
  endloop
endfacet
facet normal -1.3056946761380976e-13 8.983335161899615e-16 1.0
  outer loop
    vertex -9967.350000000022 14509.672265232772 9487.472312875008
    vertex -9961.350000000022 14506.672265232775 9487.47231287501
    vertex -9945.350000000024 14509.672265232777 9487.47231287501
  endloop
endfacet
facet normal -1.3056946761380976e-13 8.983335161899615e-16 1.0
  outer loop
    vertex -9961.350000000022 14506.672265232775 9487.47231287501
    vertex -9967.350000000022 14509.672265232772 9487.472312875008
    vertex -9964.350000000022 14503.672265232772 9487.47231287501
  endloop
endfacet
facet normal -1.3056946761380976e-13 8.983335161899615e-16 1.0
  outer loop
    vertex -9964.350000000022 14503.672265232772 9487.47231287501
    vertex -9967.350000000022 14509.672265232772 9487.472312875008
    vertex -9967.350000000019 14487.872265232772 9487.472312875008
  endloop
endfacet
facet normal -1.3056946761380976e-13 8.983335161899615e-16 1.0
  outer loop
    vertex -9964.350000000022 14503.672265232772 9487.47231287501
    vertex -9967.350000000019 14487.872265232772 9487.472312875008
    vertex -9964.35000000002 14493.672265232772 9487.472312875008
  endloop
endfacet
facet normal -1.3056946761380976e-13 8.983335161899615e-16 1.0
  outer loop
    vertex -9964.35000000002 14493.672265232772 9487.472312875008
    vertex -9967.350000000019 14487.872265232772 9487.472312875008
    vertex -9961.35000000002 14490.672265232772 9487.47231287501
  endloop
endfacet
facet normal -1.3056946761380976e-13 8.983335161899615e-16 1.0
  outer loop
    vertex -9961.35000000002 14490.672265232772 9487.47231287501
    vertex -9967.350000000019 14487.872265232772 9487.472312875008
    vertex -9961.350000000019 14484.672265232773 9487.47231287501
  endloop
endfacet
facet normal -1.3056946761380976e-13 8.983335161899615e-16 1.0
  outer loop
    vertex -9961.350000000019 14484.672265232773 9487.47231287501
    vertex -9967.350000000019 14487.872265232772 9487.472312875008
    vertex -9967.350000000019 14487.672265232773 9487.472312875008
  endloop
endfacet
facet normal -1.3056946761380976e-13 8.983335161899615e-16 1.0
  outer loop
    vertex -9945.350000000024 14509.672265232777 9487.47231287501
    vertex -9928.550000000023 14512.87226523278 9487.472312875014
    vertex -9945.350000000024 14512.872265232776 9487.47231287501
  endloop
endfacet
facet normal -1.3056946761380976e-13 8.983335161899615e-16 1.0
  outer loop
    vertex -9928.550000000023 14512.87226523278 9487.472312875014
    vertex -9945.350000000024 14509.672265232777 9487.47231287501
    vertex -9939.150000000023 14509.872265232776 9487.472312875012
  endloop
endfacet
facet normal -1.3056946761380976e-13 8.983335161899615e-16 1.0
  outer loop
    vertex -9939.150000000023 14509.872265232776 9487.472312875012
    vertex -9945.350000000024 14509.672265232777 9487.47231287501
    vertex -9942.350000000022 14506.672265232777 9487.472312875012
  endloop
endfacet
facet normal -1.3056946761380976e-13 8.983335161899615e-16 1.0
  outer loop
    vertex -9942.350000000022 14506.672265232777 9487.472312875012
    vertex -9945.350000000024 14509.672265232777 9487.47231287501
    vertex -9961.350000000022 14506.672265232775 9487.47231287501
  endloop
endfacet
facet normal -1.3056946761380976e-13 8.983335161899615e-16 1.0
  outer loop
    vertex -9928.550000000023 14509.87226523278 9487.472312875014
    vertex -9928.550000000023 14512.87226523278 9487.472312875014
    vertex -9939.150000000023 14509.872265232776 9487.472312875012
  endloop
endfacet
facet normal -1.0 -1.8476886687324183e-13 -1.3117175246264478e-13
  outer loop
    vertex -9977.350000000019 14484.672265232772 9487.472312875007
    vertex -9977.350000000011 14490.67226523277 9422.472312875007
    vertex -9977.35000000001 14484.672265232772 9422.472312875007
  endloop
endfacet
facet normal -1.0 -1.8476886687324183e-13 -1.3117175246264478e-13
  outer loop
    vertex -9977.350000000011 14490.67226523277 9422.472312875007
    vertex -9977.350000000019 14484.672265232772 9487.472312875007
    vertex -9977.350000000019 14490.67226523277 9487.472312875007
  endloop
endfacet
facet normal -0.640184399664637 0.7682212795972451 -8.550524132361684e-14
  outer loop
    vertex -9973.75000000002 14493.672265232772 9487.472312875008
    vertex -9977.350000000011 14490.67226523277 9422.472312875007
    vertex -9977.350000000019 14490.67226523277 9487.472312875007
  endloop
endfacet
facet normal -0.640184399664637 0.7682212795972451 -8.550524132361684e-14
  outer loop
    vertex -9977.350000000011 14490.67226523277 9422.472312875007
    vertex -9973.75000000002 14493.672265232772 9487.472312875008
    vertex -9973.750000000011 14493.672265232772 9422.472312875007
  endloop
endfacet
facet normal -1.0 -1.8476886687324183e-13 -1.3117175246264478e-13
  outer loop
    vertex -9973.750000000011 14493.672265232772 9422.472312875007
    vertex -9973.750000000024 14506.672265232772 9487.472312875008
    vertex -9973.750000000015 14506.672265232772 9422.472312875007
  endloop
endfacet
facet normal -1.0 -1.8476886687324183e-13 -1.3117175246264478e-13
  outer loop
    vertex -9973.750000000024 14506.672265232772 9487.472312875008
    vertex -9973.750000000011 14493.672265232772 9422.472312875007
    vertex -9973.75000000002 14493.672265232772 9487.472312875008
  endloop
endfacet
facet normal -0.7295372041399633 -0.6839411288814599 -9.433151949239955e-14
  outer loop
    vertex -9973.750000000024 14506.672265232772 9487.472312875008
    vertex -9976.750000000015 14509.87226523277 9422.472312875007
    vertex -9973.750000000015 14506.672265232772 9422.472312875007
  endloop
endfacet
facet normal -0.7295372041399633 -0.6839411288814599 -9.433151949239955e-14
  outer loop
    vertex -9976.750000000015 14509.87226523277 9422.472312875007
    vertex -9973.750000000024 14506.672265232772 9487.472312875008
    vertex -9976.750000000024 14509.87226523277 9487.472312875007
  endloop
endfacet
facet normal -1.8562475485094568e-13 1.0 -2.1338481848368084e-15
  outer loop
    vertex -9987.550000000025 14512.872265232767 9487.472312875005
    vertex -9990.550000000016 14512.872265232767 9425.472312875005
    vertex -9990.550000000023 14512.872265232767 9484.472312875005
  endloop
endfacet
facet normal -1.8562475485094568e-13 1.0 -2.1338481848368084e-15
  outer loop
    vertex -9990.550000000016 14512.872265232767 9425.472312875005
    vertex -9987.550000000025 14512.872265232767 9487.472312875005
    vertex -9987.550000000016 14512.872265232767 9422.472312875005
  endloop
endfacet
facet normal -1.8562475485094568e-13 1.0 -2.1338481848368084e-15
  outer loop
    vertex -9987.550000000016 14512.872265232767 9422.472312875005
    vertex -9987.550000000025 14512.872265232767 9487.472312875005
    vertex -9970.750000000024 14512.87226523277 9487.472312875008
  endloop
endfacet
facet normal -1.8562475485094568e-13 1.0 -2.1338481848368084e-15
  outer loop
    vertex -9987.550000000016 14512.872265232767 9422.472312875005
    vertex -9970.750000000024 14512.87226523277 9487.472312875008
    vertex -9970.750000000015 14512.87226523277 9422.472312875008
  endloop
endfacet
facet normal 1.0 1.8476886687324183e-13 1.3117175246264478e-13
  outer loop
    vertex -9970.750000000015 14512.87226523277 9422.472312875008
    vertex -9970.75000000002 14487.67226523277 9487.472312875008
    vertex -9970.750000000011 14487.67226523277 9422.472312875008
  endloop
endfacet
facet normal 1.0 1.8476886687324183e-13 1.3117175246264478e-13
  outer loop
    vertex -9970.75000000002 14487.67226523277 9487.472312875008
    vertex -9970.750000000015 14512.87226523277 9422.472312875008
    vertex -9970.750000000024 14512.87226523277 9487.472312875008
  endloop
endfacet
facet normal -1.8476886687324155e-13 1.0 -1.9930868371432278e-15
  outer loop
    vertex -9970.75000000002 14487.67226523277 9487.472312875008
    vertex -9967.35000000001 14487.672265232773 9422.472312875008
    vertex -9970.750000000011 14487.67226523277 9422.472312875008
  endloop
endfacet
facet normal -1.8476886687324155e-13 1.0 -1.9930868371432278e-15
  outer loop
    vertex -9967.35000000001 14487.672265232773 9422.472312875008
    vertex -9970.75000000002 14487.67226523277 9487.472312875008
    vertex -9967.350000000019 14487.672265232773 9487.472312875008
  endloop
endfacet
facet normal -1.0 -1.8476886687324183e-13 -1.3117175246264478e-13
  outer loop
    vertex -9967.350000000019 14487.672265232773 9487.472312875008
    vertex -9967.35000000001 14487.872265232772 9422.472312875008
    vertex -9967.35000000001 14487.672265232773 9422.472312875008
  endloop
endfacet
facet normal -1.0 -1.8476886687324183e-13 -1.3117175246264478e-13
  outer loop
    vertex -9967.35000000001 14487.872265232772 9422.472312875008
    vertex -9967.350000000019 14487.672265232773 9487.472312875008
    vertex -9967.350000000019 14487.872265232772 9487.472312875008
  endloop
endfacet
facet normal -1.0 -1.8476886687324183e-13 -1.3117175246264478e-13
  outer loop
    vertex -9967.350000000019 14487.872265232772 9487.472312875008
    vertex -9967.350000000015 14509.672265232772 9422.472312875008
    vertex -9967.35000000001 14487.872265232772 9422.472312875008
  endloop
endfacet
facet normal -1.0 -1.8476886687324183e-13 -1.3117175246264478e-13
  outer loop
    vertex -9967.350000000015 14509.672265232772 9422.472312875008
    vertex -9967.350000000019 14487.872265232772 9487.472312875008
    vertex -9967.350000000022 14509.672265232772 9487.472312875008
  endloop
endfacet
facet normal -1.871105099271043e-13 1.0 -6.808487135474521e-16
  outer loop
    vertex -9967.350000000022 14509.672265232772 9487.472312875008
    vertex -9945.350000000015 14509.672265232777 9422.47231287501
    vertex -9967.350000000015 14509.672265232772 9422.472312875008
  endloop
endfacet
facet normal -1.871105099271043e-13 1.0 -6.808487135474521e-16
  outer loop
    vertex -9945.350000000015 14509.672265232777 9422.47231287501
    vertex -9967.350000000022 14509.672265232772 9487.472312875008
    vertex -9945.350000000024 14509.672265232777 9487.47231287501
  endloop
endfacet
facet normal -1.0 -1.8476886687324183e-13 -1.3117175246264478e-13
  outer loop
    vertex -9945.350000000015 14509.672265232777 9422.47231287501
    vertex -9945.350000000024 14512.872265232776 9487.47231287501
    vertex -9945.350000000015 14512.872265232776 9422.47231287501
  endloop
endfacet
facet normal -1.0 -1.8476886687324183e-13 -1.3117175246264478e-13
  outer loop
    vertex -9945.350000000024 14512.872265232776 9487.47231287501
    vertex -9945.350000000015 14509.672265232777 9422.47231287501
    vertex -9945.350000000024 14509.672265232777 9487.47231287501
  endloop
endfacet
facet normal -1.7429514140595349e-13 1.0 1.4920827429366155e-15
  outer loop
    vertex -9928.550000000023 14512.87226523278 9487.472312875014
    vertex -9945.350000000015 14512.872265232776 9422.47231287501
    vertex -9945.350000000024 14512.872265232776 9487.47231287501
  endloop
endfacet
facet normal -1.7429514140595349e-13 1.0 1.4920827429366155e-15
  outer loop
    vertex -9945.350000000015 14512.872265232776 9422.47231287501
    vertex -9928.550000000023 14512.87226523278 9487.472312875014
    vertex -9928.550000000014 14512.87226523278 9422.472312875012
  endloop
endfacet
facet normal -1.7429514140595349e-13 1.0 1.4920827429366155e-15
  outer loop
    vertex -9928.550000000014 14512.87226523278 9422.472312875012
    vertex -9928.550000000023 14512.87226523278 9487.472312875014
    vertex -9925.550000000016 14512.87226523278 9425.472312875014
  endloop
endfacet
facet normal -1.7429514140595349e-13 1.0 1.4920827429366155e-15
  outer loop
    vertex -9925.550000000016 14512.87226523278 9425.472312875014
    vertex -9928.550000000023 14512.87226523278 9487.472312875014
    vertex -9925.550000000025 14512.87226523278 9484.472312875012
  endloop
endfacet
facet normal 0.7071067811866484 -0.7071067811864468 9.416176088449312e-14
  outer loop
    vertex -9942.350000000015 14506.672265232777 9422.47231287501
    vertex -9939.150000000023 14509.872265232776 9487.472312875012
    vertex -9942.350000000022 14506.672265232777 9487.472312875012
  endloop
endfacet
facet normal 0.7071067811866484 -0.7071067811864468 9.416176088449312e-14
  outer loop
    vertex -9939.150000000023 14509.872265232776 9487.472312875012
    vertex -9942.350000000015 14506.672265232777 9422.47231287501
    vertex -9939.150000000014 14509.872265232776 9422.472312875012
  endloop
endfacet
facet normal 1.8476886687324155e-13 -1.0 1.9930868371432278e-15
  outer loop
    vertex -9961.350000000015 14506.672265232775 9422.47231287501
    vertex -9942.350000000022 14506.672265232777 9487.472312875012
    vertex -9961.350000000022 14506.672265232775 9487.47231287501
  endloop
endfacet
facet normal 1.8476886687324155e-13 -1.0 1.9930868371432278e-15
  outer loop
    vertex -9942.350000000022 14506.672265232777 9487.472312875012
    vertex -9961.350000000015 14506.672265232775 9422.47231287501
    vertex -9942.350000000015 14506.672265232777 9422.47231287501
  endloop
endfacet
facet normal 0.7071067811866782 -0.7071067811864169 9.536667421411238e-14
  outer loop
    vertex -9961.350000000015 14506.672265232775 9422.47231287501
    vertex -9964.350000000022 14503.672265232772 9487.47231287501
    vertex -9964.350000000013 14503.672265232772 9422.472312875008
  endloop
endfacet
facet normal 0.7071067811866782 -0.7071067811864169 9.536667421411238e-14
  outer loop
    vertex -9964.350000000022 14503.672265232772 9487.47231287501
    vertex -9961.350000000015 14506.672265232775 9422.47231287501
    vertex -9961.350000000022 14506.672265232775 9487.47231287501
  endloop
endfacet
facet normal 1.0 1.8476886687324183e-13 1.3328227410624982e-13
  outer loop
    vertex -9964.350000000022 14503.672265232772 9487.47231287501
    vertex -9964.350000000011 14493.672265232772 9422.472312875008
    vertex -9964.350000000013 14503.672265232772 9422.472312875008
  endloop
endfacet
facet normal 1.0 1.8476886687324183e-13 1.3328227410624982e-13
  outer loop
    vertex -9964.350000000011 14493.672265232772 9422.472312875008
    vertex -9964.350000000022 14503.672265232772 9487.47231287501
    vertex -9964.35000000002 14493.672265232772 9487.472312875008
  endloop
endfacet
facet normal 0.7071067811864169 0.7071067811866782 9.134311044842172e-14
  outer loop
    vertex -9964.35000000002 14493.672265232772 9487.472312875008
    vertex -9961.350000000011 14490.672265232772 9422.47231287501
    vertex -9964.350000000011 14493.672265232772 9422.472312875008
  endloop
endfacet
facet normal 0.7071067811864169 0.7071067811866782 9.134311044842172e-14
  outer loop
    vertex -9961.350000000011 14490.672265232772 9422.47231287501
    vertex -9964.35000000002 14493.672265232772 9487.472312875008
    vertex -9961.35000000002 14490.672265232772 9487.47231287501
  endloop
endfacet
facet normal 1.0 1.8476886687324183e-13 1.3117175246264478e-13
  outer loop
    vertex -9961.350000000011 14490.672265232772 9422.47231287501
    vertex -9961.350000000019 14484.672265232773 9487.47231287501
    vertex -9961.35000000001 14484.672265232773 9422.47231287501
  endloop
endfacet
facet normal 1.0 1.8476886687324183e-13 1.3117175246264478e-13
  outer loop
    vertex -9961.350000000019 14484.672265232773 9487.47231287501
    vertex -9961.350000000011 14490.672265232772 9422.47231287501
    vertex -9961.35000000002 14490.672265232772 9487.47231287501
  endloop
endfacet
facet normal 0.7071067811866782 -0.7071067811864169 9.416176088449697e-14
  outer loop
    vertex -9961.35000000001 14484.672265232773 9422.47231287501
    vertex -9964.350000000019 14481.672265232772 9487.47231287501
    vertex -9964.35000000001 14481.672265232772 9422.472312875008
  endloop
endfacet
facet normal 0.7071067811866782 -0.7071067811864169 9.416176088449697e-14
  outer loop
    vertex -9964.350000000019 14481.672265232772 9487.47231287501
    vertex -9961.35000000001 14484.672265232773 9422.47231287501
    vertex -9961.350000000019 14484.672265232773 9487.47231287501
  endloop
endfacet
facet normal 1.8476886687324155e-13 -1.0 1.9930868371432278e-15
  outer loop
    vertex -9964.35000000001 14481.672265232772 9422.472312875008
    vertex -9974.350000000019 14481.672265232772 9487.472312875008
    vertex -9974.35000000001 14481.672265232772 9422.472312875008
  endloop
endfacet
facet normal 1.8476886687324155e-13 -1.0 1.9930868371432278e-15
  outer loop
    vertex -9974.350000000019 14481.672265232772 9487.472312875008
    vertex -9964.35000000001 14481.672265232772 9422.472312875008
    vertex -9964.350000000019 14481.672265232772 9487.47231287501
  endloop
endfacet
facet normal -0.7071067811864062 -0.7071067811866889 -9.134311044842032e-14
  outer loop
    vertex -9974.35000000001 14481.672265232772 9422.472312875008
    vertex -9977.350000000019 14484.672265232772 9487.472312875007
    vertex -9977.35000000001 14484.672265232772 9422.472312875007
  endloop
endfacet
facet normal -0.7071067811864062 -0.7071067811866889 -9.134311044842032e-14
  outer loop
    vertex -9977.350000000019 14484.672265232772 9487.472312875007
    vertex -9974.35000000001 14481.672265232772 9422.472312875008
    vertex -9974.350000000019 14481.672265232772 9487.472312875008
  endloop
endfacet
facet normal 1.8312855232829572e-13 -1.0 1.9810293128314134e-15
  outer loop
    vertex -9990.550000000016 14509.872265232769 9425.472312875007
    vertex -9987.550000000023 14509.872265232769 9487.472312875005
    vertex -9990.550000000023 14509.872265232769 9484.472312875005
  endloop
endfacet
facet normal 1.8312855232829572e-13 -1.0 1.9810293128314134e-15
  outer loop
    vertex -9987.550000000023 14509.872265232769 9487.472312875005
    vertex -9990.550000000016 14509.872265232769 9425.472312875007
    vertex -9987.550000000014 14509.872265232769 9422.472312875005
  endloop
endfacet
facet normal 1.8312855232829572e-13 -1.0 1.9810293128314134e-15
  outer loop
    vertex -9987.550000000023 14509.872265232769 9487.472312875005
    vertex -9987.550000000014 14509.872265232769 9422.472312875005
    vertex -9976.750000000015 14509.87226523277 9422.472312875007
  endloop
endfacet
facet normal 1.8312855232829572e-13 -1.0 1.9810293128314134e-15
  outer loop
    vertex -9987.550000000023 14509.872265232769 9487.472312875005
    vertex -9976.750000000015 14509.87226523277 9422.472312875007
    vertex -9976.750000000024 14509.87226523277 9487.472312875007
  endloop
endfacet
facet normal -1.0 -1.8488434011545565e-13 -1.3340185829813954e-13
  outer loop
    vertex -9990.550000000016 14509.872265232769 9425.472312875007
    vertex -9990.550000000023 14512.872265232767 9484.472312875005
    vertex -9990.550000000016 14512.872265232767 9425.472312875005
  endloop
endfacet
facet normal -1.0 -1.8488434011545565e-13 -1.3340185829813954e-13
  outer loop
    vertex -9990.550000000023 14512.872265232767 9484.472312875005
    vertex -9990.550000000016 14509.872265232769 9425.472312875007
    vertex -9990.550000000023 14509.872265232769 9484.472312875005
  endloop
endfacet
facet normal 1.2988836608169554e-13 -1.6551287377842672e-15 -1.0
  outer loop
    vertex -9928.550000000014 14509.87226523278 9422.472312875012
    vertex -9939.150000000014 14509.872265232776 9422.472312875012
    vertex -9928.550000000014 14512.87226523278 9422.472312875012
  endloop
endfacet
facet normal 1.2988836608169554e-13 -1.6551287377842672e-15 -1.0
  outer loop
    vertex -9928.550000000014 14512.87226523278 9422.472312875012
    vertex -9945.350000000015 14509.672265232777 9422.47231287501
    vertex -9945.350000000015 14512.872265232776 9422.47231287501
  endloop
endfacet
facet normal 1.2988836608169554e-13 -1.6551287377842672e-15 -1.0
  outer loop
    vertex -9945.350000000015 14509.672265232777 9422.47231287501
    vertex -9928.550000000014 14512.87226523278 9422.472312875012
    vertex -9939.150000000014 14509.872265232776 9422.472312875012
  endloop
endfacet
facet normal 1.2988836608169554e-13 -1.6551287377842672e-15 -1.0
  outer loop
    vertex -9945.350000000015 14509.672265232777 9422.47231287501
    vertex -9939.150000000014 14509.872265232776 9422.472312875012
    vertex -9942.350000000015 14506.672265232777 9422.47231287501
  endloop
endfacet
facet normal 1.2988836608169554e-13 -1.6551287377842672e-15 -1.0
  outer loop
    vertex -9945.350000000015 14509.672265232777 9422.47231287501
    vertex -9942.350000000015 14506.672265232777 9422.47231287501
    vertex -9967.350000000015 14509.672265232772 9422.472312875008
  endloop
endfacet
facet normal 1.2988836608169554e-13 -1.6551287377842672e-15 -1.0
  outer loop
    vertex -9967.350000000015 14509.672265232772 9422.472312875008
    vertex -9942.350000000015 14506.672265232777 9422.47231287501
    vertex -9961.350000000015 14506.672265232775 9422.47231287501
  endloop
endfacet
facet normal 1.2988836608169554e-13 -1.6551287377842672e-15 -1.0
  outer loop
    vertex -9967.350000000015 14509.672265232772 9422.472312875008
    vertex -9961.350000000015 14506.672265232775 9422.47231287501
    vertex -9964.350000000013 14503.672265232772 9422.472312875008
  endloop
endfacet
facet normal 1.2988836608169554e-13 -1.6551287377842672e-15 -1.0
  outer loop
    vertex -9967.350000000015 14509.672265232772 9422.472312875008
    vertex -9964.350000000013 14503.672265232772 9422.472312875008
    vertex -9967.35000000001 14487.872265232772 9422.472312875008
  endloop
endfacet
facet normal 1.2988836608169554e-13 -1.6551287377842672e-15 -1.0
  outer loop
    vertex -9967.35000000001 14487.872265232772 9422.472312875008
    vertex -9964.350000000013 14503.672265232772 9422.472312875008
    vertex -9964.350000000011 14493.672265232772 9422.472312875008
  endloop
endfacet
facet normal 1.2988836608169554e-13 -1.6551287377842672e-15 -1.0
  outer loop
    vertex -9967.35000000001 14487.872265232772 9422.472312875008
    vertex -9964.350000000011 14493.672265232772 9422.472312875008
    vertex -9961.350000000011 14490.672265232772 9422.47231287501
  endloop
endfacet
facet normal 1.2988836608169554e-13 -1.6551287377842672e-15 -1.0
  outer loop
    vertex -9967.35000000001 14487.872265232772 9422.472312875008
    vertex -9961.350000000011 14490.672265232772 9422.47231287501
    vertex -9961.35000000001 14484.672265232773 9422.47231287501
  endloop
endfacet
facet normal 1.2988836608169554e-13 -1.6551287377842672e-15 -1.0
  outer loop
    vertex -9967.35000000001 14487.872265232772 9422.472312875008
    vertex -9961.35000000001 14484.672265232773 9422.47231287501
    vertex -9967.35000000001 14487.672265232773 9422.472312875008
  endloop
endfacet
facet normal 1.2988836608169554e-13 -1.6551287377842672e-15 -1.0
  outer loop
    vertex -9967.35000000001 14487.672265232773 9422.472312875008
    vertex -9961.35000000001 14484.672265232773 9422.47231287501
    vertex -9970.750000000011 14487.67226523277 9422.472312875008
  endloop
endfacet
facet normal 1.2988836608169554e-13 -1.6551287377842672e-15 -1.0
  outer loop
    vertex -9970.750000000015 14512.87226523277 9422.472312875008
    vertex -9976.750000000015 14509.87226523277 9422.472312875007
    vertex -9987.550000000016 14512.872265232767 9422.472312875005
  endloop
endfacet
facet normal 1.2988836608169554e-13 -1.6551287377842672e-15 -1.0
  outer loop
    vertex -9976.750000000015 14509.87226523277 9422.472312875007
    vertex -9970.750000000015 14512.87226523277 9422.472312875008
    vertex -9973.750000000015 14506.672265232772 9422.472312875007
  endloop
endfacet
facet normal 1.2988836608169554e-13 -1.6551287377842672e-15 -1.0
  outer loop
    vertex -9973.750000000015 14506.672265232772 9422.472312875007
    vertex -9970.750000000015 14512.87226523277 9422.472312875008
    vertex -9970.750000000011 14487.67226523277 9422.472312875008
  endloop
endfacet
facet normal 1.2988836608169554e-13 -1.6551287377842672e-15 -1.0
  outer loop
    vertex -9973.750000000015 14506.672265232772 9422.472312875007
    vertex -9970.750000000011 14487.67226523277 9422.472312875008
    vertex -9973.750000000011 14493.672265232772 9422.472312875007
  endloop
endfacet
facet normal 1.2988836608169554e-13 -1.6551287377842672e-15 -1.0
  outer loop
    vertex -9973.750000000011 14493.672265232772 9422.472312875007
    vertex -9970.750000000011 14487.67226523277 9422.472312875008
    vertex -9977.350000000011 14490.67226523277 9422.472312875007
  endloop
endfacet
facet normal 1.2988836608169554e-13 -1.6551287377842672e-15 -1.0
  outer loop
    vertex -9977.350000000011 14490.67226523277 9422.472312875007
    vertex -9970.750000000011 14487.67226523277 9422.472312875008
    vertex -9977.35000000001 14484.672265232772 9422.472312875007
  endloop
endfacet
facet normal 1.2988836608169554e-13 -1.6551287377842672e-15 -1.0
  outer loop
    vertex -9977.35000000001 14484.672265232772 9422.472312875007
    vertex -9970.750000000011 14487.67226523277 9422.472312875008
    vertex -9961.35000000001 14484.672265232773 9422.47231287501
  endloop
endfacet
facet normal 1.2988836608169554e-13 -1.6551287377842672e-15 -1.0
  outer loop
    vertex -9977.35000000001 14484.672265232772 9422.472312875007
    vertex -9961.35000000001 14484.672265232773 9422.47231287501
    vertex -9964.35000000001 14481.672265232772 9422.472312875008
  endloop
endfacet
facet normal 1.2988836608169554e-13 -1.6551287377842672e-15 -1.0
  outer loop
    vertex -9977.35000000001 14484.672265232772 9422.472312875007
    vertex -9964.35000000001 14481.672265232772 9422.472312875008
    vertex -9974.35000000001 14481.672265232772 9422.472312875008
  endloop
endfacet
facet normal 1.2988836608169554e-13 -1.6551287377842672e-15 -1.0
  outer loop
    vertex -9987.550000000014 14509.872265232769 9422.472312875005
    vertex -9987.550000000016 14512.872265232767 9422.472312875005
    vertex -9976.750000000015 14509.87226523277 9422.472312875007
  endloop
endfacet
facet normal 1.0 1.6984451887520017e-13 1.377990941692311e-13
  outer loop
    vertex -9925.550000000025 14512.87226523278 9484.472312875012
    vertex -9925.550000000016 14509.87226523278 9425.472312875014
    vertex -9925.550000000016 14512.87226523278 9425.472312875014
  endloop
endfacet
facet normal 1.0 1.6984451887520017e-13 1.377990941692311e-13
  outer loop
    vertex -9925.550000000016 14509.87226523278 9425.472312875014
    vertex -9925.550000000025 14512.87226523278 9484.472312875012
    vertex -9925.550000000023 14509.87226523278 9484.472312875012
  endloop
endfacet
facet normal 1.7174560884132362e-13 -1.0 -1.3014863614326002e-15
  outer loop
    vertex -9939.150000000014 14509.872265232776 9422.472312875012
    vertex -9928.550000000023 14509.87226523278 9487.472312875014
    vertex -9939.150000000023 14509.872265232776 9487.472312875012
  endloop
endfacet
facet normal 1.7174560884132362e-13 -1.0 -1.3014863614326002e-15
  outer loop
    vertex -9928.550000000023 14509.87226523278 9487.472312875014
    vertex -9939.150000000014 14509.872265232776 9422.472312875012
    vertex -9928.550000000014 14509.87226523278 9422.472312875012
  endloop
endfacet
facet normal 1.7174560884132362e-13 -1.0 -1.3014863614326002e-15
  outer loop
    vertex -9928.550000000023 14509.87226523278 9487.472312875014
    vertex -9928.550000000014 14509.87226523278 9422.472312875012
    vertex -9925.550000000016 14509.87226523278 9425.472312875014
  endloop
endfacet
facet normal 1.7174560884132362e-13 -1.0 -1.3014863614326002e-15
  outer loop
    vertex -9928.550000000023 14509.87226523278 9487.472312875014
    vertex -9925.550000000016 14509.87226523278 9425.472312875014
    vertex -9925.550000000023 14509.87226523278 9484.472312875012
  endloop
endfacet
facet normal -0.707106781186471 -1.2315634095413353e-13 -0.7071067811866242
  outer loop
    vertex -9990.550000000016 14509.872265232769 9425.472312875007
    vertex -9987.550000000016 14512.872265232767 9422.472312875005
    vertex -9987.550000000014 14509.872265232769 9422.472312875005
  endloop
endfacet
facet normal -0.707106781186471 -1.2315634095413353e-13 -0.7071067811866242
  outer loop
    vertex -9987.550000000016 14512.872265232767 9422.472312875005
    vertex -9990.550000000016 14509.872265232769 9425.472312875007
    vertex -9990.550000000016 14512.872265232767 9425.472312875005
  endloop
endfacet
facet normal -0.7071067811866387 -1.276699941506042e-13 0.7071067811864563
  outer loop
    vertex -9990.550000000023 14509.872265232769 9484.472312875005
    vertex -9987.550000000025 14512.872265232767 9487.472312875005
    vertex -9990.550000000023 14512.872265232767 9484.472312875005
  endloop
endfacet
facet normal -0.7071067811866387 -1.276699941506042e-13 0.7071067811864563
  outer loop
    vertex -9987.550000000025 14512.872265232767 9487.472312875005
    vertex -9990.550000000023 14509.872265232769 9484.472312875005
    vertex -9987.550000000023 14509.872265232769 9487.472312875005
  endloop
endfacet
facet normal 0.707106781186495 1.1253871745454683e-13 0.7071067811866002
  outer loop
    vertex -9928.550000000023 14512.87226523278 9487.472312875014
    vertex -9925.550000000023 14509.87226523278 9484.472312875012
    vertex -9925.550000000025 14512.87226523278 9484.472312875012
  endloop
endfacet
facet normal 0.707106781186495 1.1253871745454683e-13 0.7071067811866002
  outer loop
    vertex -9925.550000000023 14509.87226523278 9484.472312875012
    vertex -9928.550000000023 14512.87226523278 9487.472312875014
    vertex -9928.550000000023 14509.87226523278 9487.472312875014
  endloop
endfacet
facet normal 0.7071067811866374 1.3828761765019726e-13 -0.7071067811864578
  outer loop
    vertex -9925.550000000016 14509.87226523278 9425.472312875014
    vertex -9928.550000000014 14512.87226523278 9422.472312875012
    vertex -9925.550000000016 14512.87226523278 9425.472312875014
  endloop
endfacet
facet normal 0.7071067811866374 1.3828761765019726e-13 -0.7071067811864578
  outer loop
    vertex -9928.550000000014 14512.87226523278 9422.472312875012
    vertex -9925.550000000016 14509.87226523278 9425.472312875014
    vertex -9928.550000000014 14509.87226523278 9422.472312875012
  endloop
endfacet
endsolid Main
