solid Main
facet normal 2.606076932022844e-26 3.104995352827253e-13 1.0
  outer loop
    vertex -10013.55000000001 14389.272265232807 9499.272312875022
    vertex -10047.950000000003 14435.772265232805 9499.272312875008
    vertex -10047.950000000006 14389.27226523281 9499.272312875022
  endloop
endfacet
facet normal 2.606076932022844e-26 3.104995352827253e-13 1.0
  outer loop
    vertex -10047.950000000003 14435.772265232805 9499.272312875008
    vertex -10013.55000000001 14389.272265232807 9499.272312875022
    vertex -10013.550000000007 14435.772265232803 9499.272312875008
  endloop
endfacet
facet normal -1.0 2.2868187215238662e-14 1.6976165068363336e-14
  outer loop
    vertex -10047.950000000006 14384.380585280373 9498.628310991888
    vertex -10047.950000000003 14384.024216886093 9480.515451096842
    vertex -10047.950000000006 14379.822265232811 9496.740193006552
  endloop
endfacet
facet normal -1.0 2.2868187215238662e-14 1.6976165068363336e-14
  outer loop
    vertex -10047.950000000003 14384.024216886093 9480.515451096842
    vertex -10047.950000000006 14384.380585280373 9498.628310991888
    vertex -10047.950000000003 14384.24008669499 9481.868868641955
  endloop
endfacet
facet normal -1.0 2.2868187215238662e-14 1.6976165068363336e-14
  outer loop
    vertex -10047.950000000003 14384.24008669499 9481.868868641955
    vertex -10047.950000000006 14384.380585280373 9498.628310991888
    vertex -10047.950000000003 14384.798891155171 9483.12029838473
  endloop
endfacet
facet normal -1.0 2.2868187215238662e-14 1.6976165068363336e-14
  outer loop
    vertex -10047.950000000003 14384.798891155171 9483.12029838473
    vertex -10047.950000000006 14384.380585280373 9498.628310991888
    vertex -10047.950000000006 14389.27226523281 9499.272312875022
  endloop
endfacet
facet normal -1.0 2.2868187215238662e-14 1.6976165068363336e-14
  outer loop
    vertex -10047.950000000003 14384.798891155171 9483.12029838473
    vertex -10047.950000000006 14389.27226523281 9499.272312875022
    vertex -10047.950000000003 14385.662548666143 9484.184457456277
  endloop
endfacet
facet normal -1.0 2.2868187215238662e-14 1.6976165068363336e-14
  outer loop
    vertex -10047.950000000003 14385.662548666143 9484.184457456277
    vertex -10047.950000000006 14389.27226523281 9499.272312875022
    vertex -10047.950000000003 14386.772202395796 9484.988825174478
  endloop
endfacet
facet normal -1.0 2.2868187215238662e-14 1.6976165068363336e-14
  outer loop
    vertex -10047.950000000003 14386.772202395796 9484.988825174478
    vertex -10047.950000000006 14389.27226523281 9499.272312875022
    vertex -10047.950000000003 14388.052231276239 9485.47858520862
  endloop
endfacet
facet normal -1.0 2.2868187215238662e-14 1.6976165068363336e-14
  outer loop
    vertex -10047.950000000003 14388.052231276239 9485.47858520862
    vertex -10047.950000000006 14389.27226523281 9499.272312875022
    vertex -10047.950000000003 14389.415403454625 9485.620361221741
  endloop
endfacet
facet normal -1.0 2.2868187215238662e-14 1.6976165068363336e-14
  outer loop
    vertex -10047.950000000003 14389.415403454625 9485.620361221741
    vertex -10047.950000000006 14389.27226523281 9499.272312875022
    vertex -10047.950000000003 14435.772265232805 9499.272312875008
  endloop
endfacet
facet normal -1.0 2.2868187215238662e-14 1.6976165068363336e-14
  outer loop
    vertex -10047.950000000003 14389.415403454625 9485.620361221741
    vertex -10047.950000000003 14435.772265232805 9499.272312875008
    vertex -10047.950000000003 14390.768820999736 9485.404491412844
  endloop
endfacet
facet normal -1.0 2.2868187215238662e-14 1.6976165068363336e-14
  outer loop
    vertex -10047.950000000003 14390.768820999736 9485.404491412844
    vertex -10047.950000000003 14435.772265232805 9499.272312875008
    vertex -10047.950000000003 14392.02025074251 9484.845686952662
  endloop
endfacet
facet normal -1.0 2.2868187215238662e-14 1.6976165068363336e-14
  outer loop
    vertex -10047.950000000003 14392.02025074251 9484.845686952662
    vertex -10047.950000000003 14435.772265232805 9499.272312875008
    vertex -10047.950000000003 14393.084409814055 9483.982029441691
  endloop
endfacet
facet normal -1.0 2.2868187215238662e-14 1.6976165068363336e-14
  outer loop
    vertex -10047.950000000003 14393.084409814055 9483.982029441691
    vertex -10047.950000000003 14435.772265232805 9499.272312875008
    vertex -10047.95 14393.88877753226 9482.872375712039
  endloop
endfacet
facet normal -1.0 2.2868187215238662e-14 1.6976165068363336e-14
  outer loop
    vertex -10047.95 14393.88877753226 9482.872375712039
    vertex -10047.950000000003 14435.772265232805 9499.272312875008
    vertex -10047.95 14394.378537566401 9481.592346831594
  endloop
endfacet
facet normal -1.0 2.2868187215238662e-14 1.6976165068363336e-14
  outer loop
    vertex -10047.95 14394.378537566401 9481.592346831594
    vertex -10047.950000000003 14435.772265232805 9499.272312875008
    vertex -10047.95 14394.52031357952 9480.22917465321
  endloop
endfacet
facet normal -1.0 2.2868187215238662e-14 1.6976165068363336e-14
  outer loop
    vertex -10047.95 14394.52031357952 9480.22917465321
    vertex -10047.950000000003 14435.772265232805 9499.272312875008
    vertex -10047.950000000006 14435.7722652328 9461.47231287503
  endloop
endfacet
facet normal -1.0 2.2868187215238662e-14 1.6976165068363336e-14
  outer loop
    vertex -10047.950000000006 14371.016267115949 9485.263992827466
    vertex -10047.950000000006 14371.016267115945 9475.480632922592
    vertex -10047.950000000006 14370.37226523281 9480.37231287503
  endloop
endfacet
facet normal -1.0 2.2868187215238662e-14 1.6976165068363336e-14
  outer loop
    vertex -10047.950000000006 14371.016267115945 9475.480632922592
    vertex -10047.950000000006 14371.016267115949 9485.263992827466
    vertex -10047.950000000006 14372.904385101283 9470.922312875031
  endloop
endfacet
facet normal -1.0 2.2868187215238662e-14 1.6976165068363336e-14
  outer loop
    vertex -10047.950000000006 14372.904385101283 9470.922312875031
    vertex -10047.950000000006 14371.016267115949 9485.263992827466
    vertex -10047.950000000006 14372.904385101287 9489.822312875027
  endloop
endfacet
facet normal -1.0 2.2868187215238662e-14 1.6976165068363336e-14
  outer loop
    vertex -10047.950000000006 14372.904385101283 9470.922312875031
    vertex -10047.950000000006 14372.904385101287 9489.822312875027
    vertex -10047.950000000006 14375.907947068383 9467.007994710604
  endloop
endfacet
facet normal -1.0 2.2868187215238662e-14 1.6976165068363336e-14
  outer loop
    vertex -10047.950000000006 14375.907947068383 9467.007994710604
    vertex -10047.950000000006 14372.904385101287 9489.822312875027
    vertex -10047.950000000006 14375.907947068385 9493.736631039452
  endloop
endfacet
facet normal -1.0 2.2868187215238662e-14 1.6976165068363336e-14
  outer loop
    vertex -10047.950000000006 14375.907947068383 9467.007994710604
    vertex -10047.950000000006 14375.907947068385 9493.736631039452
    vertex -10047.950000000006 14379.822265232808 9464.004432743506
  endloop
endfacet
facet normal -1.0 2.2868187215238662e-14 1.6976165068363336e-14
  outer loop
    vertex -10047.950000000006 14379.822265232808 9464.004432743506
    vertex -10047.950000000006 14375.907947068385 9493.736631039452
    vertex -10047.950000000006 14379.822265232811 9496.740193006552
  endloop
endfacet
facet normal -1.0 2.2868187215238662e-14 1.6976165068363336e-14
  outer loop
    vertex -10047.950000000006 14379.822265232808 9464.004432743506
    vertex -10047.950000000006 14379.822265232811 9496.740193006552
    vertex -10047.950000000006 14384.380585280367 9462.116314758168
  endloop
endfacet
facet normal -1.0 2.2868187215238662e-14 1.6976165068363336e-14
  outer loop
    vertex -10047.950000000006 14384.380585280367 9462.116314758168
    vertex -10047.950000000006 14379.822265232811 9496.740193006552
    vertex -10047.950000000003 14384.024216886093 9480.515451096842
  endloop
endfacet
facet normal -1.0 2.2868187215238662e-14 1.6976165068363336e-14
  outer loop
    vertex -10047.950000000006 14384.380585280367 9462.116314758168
    vertex -10047.950000000003 14384.024216886093 9480.515451096842
    vertex -10047.950000000003 14384.165992899214 9479.152278918458
  endloop
endfacet
facet normal -1.0 2.2868187215238662e-14 1.6976165068363336e-14
  outer loop
    vertex -10047.950000000006 14384.380585280367 9462.116314758168
    vertex -10047.950000000003 14384.165992899214 9479.152278918458
    vertex -10047.950000000003 14384.655752933355 9477.872250038015
  endloop
endfacet
facet normal -1.0 2.2868187215238662e-14 1.6976165068363336e-14
  outer loop
    vertex -10047.950000000006 14384.380585280367 9462.116314758168
    vertex -10047.950000000003 14384.655752933355 9477.872250038015
    vertex -10047.950000000006 14389.27226523281 9461.47231287503
  endloop
endfacet
facet normal -1.0 2.2868187215238662e-14 1.6976165068363336e-14
  outer loop
    vertex -10047.950000000006 14389.27226523281 9461.47231287503
    vertex -10047.950000000003 14384.655752933355 9477.872250038015
    vertex -10047.950000000003 14385.460120651558 9476.762596308363
  endloop
endfacet
facet normal -1.0 2.2868187215238662e-14 1.6976165068363336e-14
  outer loop
    vertex -10047.950000000006 14389.27226523281 9461.47231287503
    vertex -10047.950000000003 14385.460120651558 9476.762596308363
    vertex -10047.950000000003 14386.524279723106 9475.89893879739
  endloop
endfacet
facet normal -1.0 2.2868187215238662e-14 1.6976165068363336e-14
  outer loop
    vertex -10047.950000000006 14389.27226523281 9461.47231287503
    vertex -10047.950000000003 14386.524279723106 9475.89893879739
    vertex -10047.950000000003 14387.775709465877 9475.34013433721
  endloop
endfacet
facet normal -1.0 2.2868187215238662e-14 1.6976165068363336e-14
  outer loop
    vertex -10047.950000000006 14389.27226523281 9461.47231287503
    vertex -10047.950000000003 14387.775709465877 9475.34013433721
    vertex -10047.950000000003 14389.12912701099 9475.124264528311
  endloop
endfacet
facet normal -1.0 2.2868187215238662e-14 1.6976165068363336e-14
  outer loop
    vertex -10047.950000000006 14389.27226523281 9461.47231287503
    vertex -10047.950000000003 14389.12912701099 9475.124264528311
    vertex -10047.95 14390.492299189375 9475.266040541434
  endloop
endfacet
facet normal -1.0 2.2868187215238662e-14 1.6976165068363336e-14
  outer loop
    vertex -10047.950000000006 14389.27226523281 9461.47231287503
    vertex -10047.95 14390.492299189375 9475.266040541434
    vertex -10047.950000000006 14435.7722652328 9461.47231287503
  endloop
endfacet
facet normal -1.0 2.2868187215238662e-14 1.6976165068363336e-14
  outer loop
    vertex -10047.950000000006 14435.7722652328 9461.47231287503
    vertex -10047.95 14390.492299189375 9475.266040541434
    vertex -10047.95 14391.77232806982 9475.755800575575
  endloop
endfacet
facet normal -1.0 2.2868187215238662e-14 1.6976165068363336e-14
  outer loop
    vertex -10047.950000000006 14435.7722652328 9461.47231287503
    vertex -10047.95 14391.77232806982 9475.755800575575
    vertex -10047.95 14392.881981799472 9476.560168293778
  endloop
endfacet
facet normal -1.0 2.2868187215238662e-14 1.6976165068363336e-14
  outer loop
    vertex -10047.950000000006 14435.7722652328 9461.47231287503
    vertex -10047.95 14392.881981799472 9476.560168293778
    vertex -10047.95 14393.745639310442 9477.624327365324
  endloop
endfacet
facet normal -1.0 2.2868187215238662e-14 1.6976165068363336e-14
  outer loop
    vertex -10047.950000000006 14435.7722652328 9461.47231287503
    vertex -10047.95 14393.745639310442 9477.624327365324
    vertex -10047.95 14394.304443770623 9478.875757108097
  endloop
endfacet
facet normal -1.0 2.2868187215238662e-14 1.6976165068363336e-14
  outer loop
    vertex -10047.950000000006 14435.7722652328 9461.47231287503
    vertex -10047.95 14394.304443770623 9478.875757108097
    vertex -10047.95 14394.52031357952 9480.22917465321
  endloop
endfacet
facet normal 0.0 0.0 -1.0
  outer loop
    vertex -10013.55000000001 14435.7722652328 9461.47231287503
    vertex -10047.950000000006 14389.27226523281 9461.47231287503
    vertex -10047.950000000006 14435.7722652328 9461.47231287503
  endloop
endfacet
facet normal 0.0 0.0 -1.0
  outer loop
    vertex -10047.950000000006 14389.27226523281 9461.47231287503
    vertex -10013.55000000001 14435.7722652328 9461.47231287503
    vertex -10013.55000000001 14389.27226523281 9461.47231287503
  endloop
endfacet
facet normal -1.919929588801999e-40 1.0 9.080646786570982e-14
  outer loop
    vertex -10044.950000000006 14404.272265232807 9496.272312875024
    vertex -10013.55000000001 14404.27226523281 9464.472312875028
    vertex -10044.950000000006 14404.27226523281 9464.472312875028
  endloop
endfacet
facet normal -1.919929588801999e-40 1.0 9.080646786570982e-14
  outer loop
    vertex -10013.55000000001 14404.27226523281 9464.472312875028
    vertex -10044.950000000006 14404.272265232807 9496.272312875024
    vertex -10013.55000000001 14404.272265232807 9496.272312875024
  endloop
endfacet
facet normal -4.537399232597295e-14 1.0 -5.903630214453832e-14
  outer loop
    vertex -10047.950000000006 14435.7722652328 9461.47231287503
    vertex -10044.950000000006 14435.772265232796 9464.47231287503
    vertex -10013.55000000001 14435.7722652328 9461.47231287503
  endloop
endfacet
facet normal -4.537399232597295e-14 1.0 -5.903630214453832e-14
  outer loop
    vertex -10044.950000000006 14435.772265232796 9464.47231287503
    vertex -10047.950000000006 14435.7722652328 9461.47231287503
    vertex -10047.950000000003 14435.772265232805 9499.272312875008
  endloop
endfacet
facet normal -4.537399232597295e-14 1.0 -5.903630214453832e-14
  outer loop
    vertex -10013.55000000001 14435.7722652328 9461.47231287503
    vertex -10044.950000000006 14435.772265232796 9464.47231287503
    vertex -10013.55000000001 14435.7722652328 9464.472312875028
  endloop
endfacet
facet normal -4.537399232597295e-14 1.0 -5.903630214453832e-14
  outer loop
    vertex -10044.950000000006 14435.772265232796 9464.47231287503
    vertex -10047.950000000003 14435.772265232805 9499.272312875008
    vertex -10044.950000000006 14435.772265232794 9496.272312875024
  endloop
endfacet
facet normal -4.537399232597295e-14 1.0 -5.903630214453832e-14
  outer loop
    vertex -10044.950000000006 14435.772265232794 9496.272312875024
    vertex -10013.550000000007 14435.772265232803 9499.272312875008
    vertex -10013.550000000007 14435.772265232803 9496.27231287501
  endloop
endfacet
facet normal -4.537399232597295e-14 1.0 -5.903630214453832e-14
  outer loop
    vertex -10013.550000000007 14435.772265232803 9499.272312875008
    vertex -10044.950000000006 14435.772265232794 9496.272312875024
    vertex -10047.950000000003 14435.772265232805 9499.272312875008
  endloop
endfacet
facet normal 2.2990809539247115e-14 -2.2917822842301334e-14 1.0
  outer loop
    vertex -10013.55000000001 14404.27226523281 9464.472312875028
    vertex -10044.950000000006 14435.772265232796 9464.47231287503
    vertex -10044.950000000006 14404.27226523281 9464.472312875028
  endloop
endfacet
facet normal 2.2990809539247115e-14 -2.2917822842301334e-14 1.0
  outer loop
    vertex -10044.950000000006 14435.772265232796 9464.47231287503
    vertex -10013.55000000001 14404.27226523281 9464.472312875028
    vertex -10013.55000000001 14435.7722652328 9464.472312875028
  endloop
endfacet
facet normal -2.528989049316782e-13 -2.0626040558072562e-13 -1.0
  outer loop
    vertex -10013.550000000007 14435.772265232803 9496.27231287501
    vertex -10044.950000000006 14404.272265232807 9496.272312875024
    vertex -10044.950000000006 14435.772265232794 9496.272312875024
  endloop
endfacet
facet normal -2.528989049316782e-13 -2.0626040558072562e-13 -1.0
  outer loop
    vertex -10044.950000000006 14404.272265232807 9496.272312875024
    vertex -10013.550000000007 14435.772265232803 9496.27231287501
    vertex -10013.55000000001 14404.272265232807 9496.272312875024
  endloop
endfacet
facet normal 1.0 0.0 0.0
  outer loop
    vertex -10044.950000000006 14404.27226523281 9464.472312875028
    vertex -10044.950000000006 14435.772265232794 9496.272312875024
    vertex -10044.950000000006 14404.272265232807 9496.272312875024
  endloop
endfacet
facet normal 1.0 0.0 0.0
  outer loop
    vertex -10044.950000000006 14435.772265232794 9496.272312875024
    vertex -10044.950000000006 14404.27226523281 9464.472312875028
    vertex -10044.950000000006 14435.772265232796 9464.47231287503
  endloop
endfacet
facet normal 1.0 -1.201744700343478e-13 -2.3778272225148866e-14
  outer loop
    vertex -10013.550000000016 14371.016267115945 9475.480632922592
    vertex -10013.550000000016 14371.016267115949 9485.263992827466
    vertex -10013.550000000016 14370.37226523281 9480.37231287503
  endloop
endfacet
facet normal 1.0 -1.201744700343478e-13 -2.3778272225148866e-14
  outer loop
    vertex -10013.550000000016 14371.016267115949 9485.263992827466
    vertex -10013.550000000016 14371.016267115945 9475.480632922592
    vertex -10013.550000000016 14372.904385101283 9470.922312875031
  endloop
endfacet
facet normal 1.0 -1.201744700343478e-13 -2.3778272225148866e-14
  outer loop
    vertex -10013.550000000016 14371.016267115949 9485.263992827466
    vertex -10013.550000000016 14372.904385101283 9470.922312875031
    vertex -10013.550000000016 14372.904385101287 9489.822312875027
  endloop
endfacet
facet normal 1.0 -1.201744700343478e-13 -2.3778272225148866e-14
  outer loop
    vertex -10013.550000000016 14372.904385101287 9489.822312875027
    vertex -10013.550000000016 14372.904385101283 9470.922312875031
    vertex -10013.550000000016 14375.907947068383 9467.007994710604
  endloop
endfacet
facet normal 1.0 -1.201744700343478e-13 -2.3778272225148866e-14
  outer loop
    vertex -10013.550000000016 14372.904385101287 9489.822312875027
    vertex -10013.550000000016 14375.907947068383 9467.007994710604
    vertex -10013.550000000016 14375.907947068385 9493.736631039452
  endloop
endfacet
facet normal 1.0 -1.201744700343478e-13 -2.3778272225148866e-14
  outer loop
    vertex -10013.550000000016 14375.907947068385 9493.736631039452
    vertex -10013.550000000016 14375.907947068383 9467.007994710604
    vertex -10013.550000000016 14379.822265232808 9464.004432743506
  endloop
endfacet
facet normal 1.0 -1.201744700343478e-13 -2.3778272225148866e-14
  outer loop
    vertex -10013.550000000016 14375.907947068385 9493.736631039452
    vertex -10013.550000000016 14379.822265232808 9464.004432743506
    vertex -10013.550000000016 14379.822265232811 9496.740193006552
  endloop
endfacet
facet normal 1.0 -1.201744700343478e-13 -2.3778272225148866e-14
  outer loop
    vertex -10013.550000000016 14379.822265232811 9496.740193006552
    vertex -10013.550000000016 14379.822265232808 9464.004432743506
    vertex -10013.550000000016 14384.380585280367 9462.116314758168
  endloop
endfacet
facet normal 1.0 -1.201744700343478e-13 -2.3778272225148866e-14
  outer loop
    vertex -10013.550000000016 14379.822265232811 9496.740193006552
    vertex -10013.550000000016 14384.380585280367 9462.116314758168
    vertex -10013.550000000017 14384.024216886093 9480.515451096842
  endloop
endfacet
facet normal 1.0 -1.201744700343478e-13 -2.3778272225148866e-14
  outer loop
    vertex -10013.550000000017 14384.024216886093 9480.515451096842
    vertex -10013.550000000016 14384.380585280367 9462.116314758168
    vertex -10013.550000000017 14384.165992899214 9479.152278918458
  endloop
endfacet
facet normal 1.0 -1.201744700343478e-13 -2.3778272225148866e-14
  outer loop
    vertex -10013.550000000017 14384.165992899214 9479.152278918458
    vertex -10013.550000000016 14384.380585280367 9462.116314758168
    vertex -10013.550000000017 14384.655752933355 9477.872250038015
  endloop
endfacet
facet normal 1.0 -1.201744700343478e-13 -2.3778272225148866e-14
  outer loop
    vertex -10013.550000000017 14384.655752933355 9477.872250038015
    vertex -10013.550000000016 14384.380585280367 9462.116314758168
    vertex -10013.55000000001 14389.27226523281 9461.47231287503
  endloop
endfacet
facet normal 1.0 -1.201744700343478e-13 -2.3778272225148866e-14
  outer loop
    vertex -10013.550000000017 14384.655752933355 9477.872250038015
    vertex -10013.55000000001 14389.27226523281 9461.47231287503
    vertex -10013.550000000016 14385.460120651558 9476.762596308363
  endloop
endfacet
facet normal 1.0 -1.201744700343478e-13 -2.3778272225148866e-14
  outer loop
    vertex -10013.550000000016 14385.460120651558 9476.762596308363
    vertex -10013.55000000001 14389.27226523281 9461.47231287503
    vertex -10013.550000000016 14386.524279723106 9475.89893879739
  endloop
endfacet
facet normal 1.0 -1.201744700343478e-13 -2.3778272225148866e-14
  outer loop
    vertex -10013.550000000016 14386.524279723106 9475.89893879739
    vertex -10013.55000000001 14389.27226523281 9461.47231287503
    vertex -10013.550000000016 14387.775709465877 9475.34013433721
  endloop
endfacet
facet normal 1.0 -1.201744700343478e-13 -2.3778272225148866e-14
  outer loop
    vertex -10013.550000000016 14387.775709465877 9475.34013433721
    vertex -10013.55000000001 14389.27226523281 9461.47231287503
    vertex -10013.550000000016 14389.12912701099 9475.124264528311
  endloop
endfacet
facet normal 1.0 -1.201744700343478e-13 -2.3778272225148866e-14
  outer loop
    vertex -10013.550000000016 14389.12912701099 9475.124264528311
    vertex -10013.55000000001 14389.27226523281 9461.47231287503
    vertex -10013.550000000014 14390.492299189375 9475.266040541434
  endloop
endfacet
facet normal 1.0 -1.201744700343478e-13 -2.3778272225148866e-14
  outer loop
    vertex -10013.550000000014 14390.492299189375 9475.266040541434
    vertex -10013.55000000001 14389.27226523281 9461.47231287503
    vertex -10013.55000000001 14404.27226523281 9464.472312875028
  endloop
endfacet
facet normal 1.0 -1.201744700343478e-13 -2.3778272225148866e-14
  outer loop
    vertex -10013.55000000001 14404.27226523281 9464.472312875028
    vertex -10013.55000000001 14389.27226523281 9461.47231287503
    vertex -10013.55000000001 14435.7722652328 9461.47231287503
  endloop
endfacet
facet normal 1.0 -1.201744700343478e-13 -2.3778272225148866e-14
  outer loop
    vertex -10013.550000000014 14390.492299189375 9475.266040541434
    vertex -10013.55000000001 14404.27226523281 9464.472312875028
    vertex -10013.550000000014 14391.77232806982 9475.755800575575
  endloop
endfacet
facet normal 1.0 -1.201744700343478e-13 -2.3778272225148866e-14
  outer loop
    vertex -10013.550000000014 14391.77232806982 9475.755800575575
    vertex -10013.55000000001 14404.27226523281 9464.472312875028
    vertex -10013.550000000014 14392.881981799472 9476.560168293778
  endloop
endfacet
facet normal 1.0 -1.201744700343478e-13 -2.3778272225148866e-14
  outer loop
    vertex -10013.550000000014 14392.881981799472 9476.560168293778
    vertex -10013.55000000001 14404.27226523281 9464.472312875028
    vertex -10013.550000000014 14393.745639310442 9477.624327365324
  endloop
endfacet
facet normal 1.0 -1.201744700343478e-13 -2.3778272225148866e-14
  outer loop
    vertex -10013.550000000014 14393.745639310442 9477.624327365324
    vertex -10013.55000000001 14404.27226523281 9464.472312875028
    vertex -10013.550000000014 14394.304443770623 9478.875757108097
  endloop
endfacet
facet normal 1.0 -1.201744700343478e-13 -2.3778272225148866e-14
  outer loop
    vertex -10013.550000000014 14394.304443770623 9478.875757108097
    vertex -10013.55000000001 14404.27226523281 9464.472312875028
    vertex -10013.550000000014 14394.52031357952 9480.22917465321
  endloop
endfacet
facet normal 1.0 -1.201744700343478e-13 -2.3778272225148866e-14
  outer loop
    vertex -10013.550000000014 14394.52031357952 9480.22917465321
    vertex -10013.55000000001 14404.27226523281 9464.472312875028
    vertex -10013.55000000001 14404.272265232807 9496.272312875024
  endloop
endfacet
facet normal 1.0 -1.201744700343478e-13 -2.3778272225148866e-14
  outer loop
    vertex -10013.55000000001 14404.27226523281 9464.472312875028
    vertex -10013.55000000001 14435.7722652328 9461.47231287503
    vertex -10013.55000000001 14435.7722652328 9464.472312875028
  endloop
endfacet
facet normal 1.0 -1.201744700343478e-13 -2.3778272225148866e-14
  outer loop
    vertex -10013.550000000017 14384.024216886093 9480.515451096842
    vertex -10013.550000000016 14384.380585280373 9498.628310991888
    vertex -10013.550000000016 14379.822265232811 9496.740193006552
  endloop
endfacet
facet normal 1.0 -1.201744700343478e-13 -2.3778272225148866e-14
  outer loop
    vertex -10013.550000000016 14384.380585280373 9498.628310991888
    vertex -10013.550000000017 14384.024216886093 9480.515451096842
    vertex -10013.550000000017 14384.24008669499 9481.868868641955
  endloop
endfacet
facet normal 1.0 -1.201744700343478e-13 -2.3778272225148866e-14
  outer loop
    vertex -10013.550000000016 14384.380585280373 9498.628310991888
    vertex -10013.550000000017 14384.24008669499 9481.868868641955
    vertex -10013.550000000017 14384.798891155171 9483.12029838473
  endloop
endfacet
facet normal 1.0 -1.201744700343478e-13 -2.3778272225148866e-14
  outer loop
    vertex -10013.550000000016 14384.380585280373 9498.628310991888
    vertex -10013.550000000017 14384.798891155171 9483.12029838473
    vertex -10013.55000000001 14389.272265232807 9499.272312875022
  endloop
endfacet
facet normal 1.0 -1.201744700343478e-13 -2.3778272225148866e-14
  outer loop
    vertex -10013.55000000001 14389.272265232807 9499.272312875022
    vertex -10013.550000000017 14384.798891155171 9483.12029838473
    vertex -10013.550000000017 14385.662548666143 9484.184457456277
  endloop
endfacet
facet normal 1.0 -1.201744700343478e-13 -2.3778272225148866e-14
  outer loop
    vertex -10013.55000000001 14389.272265232807 9499.272312875022
    vertex -10013.550000000017 14385.662548666143 9484.184457456277
    vertex -10013.550000000017 14386.772202395796 9484.988825174478
  endloop
endfacet
facet normal 1.0 -1.201744700343478e-13 -2.3778272225148866e-14
  outer loop
    vertex -10013.55000000001 14389.272265232807 9499.272312875022
    vertex -10013.550000000017 14386.772202395796 9484.988825174478
    vertex -10013.550000000017 14388.052231276239 9485.47858520862
  endloop
endfacet
facet normal 1.0 -1.201744700343478e-13 -2.3778272225148866e-14
  outer loop
    vertex -10013.55000000001 14389.272265232807 9499.272312875022
    vertex -10013.550000000017 14388.052231276239 9485.47858520862
    vertex -10013.550000000016 14389.415403454625 9485.620361221741
  endloop
endfacet
facet normal 1.0 -1.201744700343478e-13 -2.3778272225148866e-14
  outer loop
    vertex -10013.55000000001 14389.272265232807 9499.272312875022
    vertex -10013.550000000016 14389.415403454625 9485.620361221741
    vertex -10013.55000000001 14404.272265232807 9496.272312875024
  endloop
endfacet
facet normal 1.0 -1.201744700343478e-13 -2.3778272225148866e-14
  outer loop
    vertex -10013.55000000001 14389.272265232807 9499.272312875022
    vertex -10013.55000000001 14404.272265232807 9496.272312875024
    vertex -10013.550000000007 14435.772265232803 9499.272312875008
  endloop
endfacet
facet normal 1.0 -1.201744700343478e-13 -2.3778272225148866e-14
  outer loop
    vertex -10013.55000000001 14404.272265232807 9496.272312875024
    vertex -10013.550000000016 14389.415403454625 9485.620361221741
    vertex -10013.550000000016 14390.768820999736 9485.404491412844
  endloop
endfacet
facet normal 1.0 -1.201744700343478e-13 -2.3778272225148866e-14
  outer loop
    vertex -10013.55000000001 14404.272265232807 9496.272312875024
    vertex -10013.550000000016 14390.768820999736 9485.404491412844
    vertex -10013.550000000016 14392.02025074251 9484.845686952662
  endloop
endfacet
facet normal 1.0 -1.201744700343478e-13 -2.3778272225148866e-14
  outer loop
    vertex -10013.55000000001 14404.272265232807 9496.272312875024
    vertex -10013.550000000016 14392.02025074251 9484.845686952662
    vertex -10013.550000000016 14393.084409814055 9483.982029441691
  endloop
endfacet
facet normal 1.0 -1.201744700343478e-13 -2.3778272225148866e-14
  outer loop
    vertex -10013.55000000001 14404.272265232807 9496.272312875024
    vertex -10013.550000000016 14393.084409814055 9483.982029441691
    vertex -10013.550000000014 14393.88877753226 9482.872375712039
  endloop
endfacet
facet normal 1.0 -1.201744700343478e-13 -2.3778272225148866e-14
  outer loop
    vertex -10013.55000000001 14404.272265232807 9496.272312875024
    vertex -10013.550000000014 14393.88877753226 9482.872375712039
    vertex -10013.550000000014 14394.378537566401 9481.592346831594
  endloop
endfacet
facet normal 1.0 -1.201744700343478e-13 -2.3778272225148866e-14
  outer loop
    vertex -10013.55000000001 14404.272265232807 9496.272312875024
    vertex -10013.550000000014 14394.378537566401 9481.592346831594
    vertex -10013.550000000014 14394.52031357952 9480.22917465321
  endloop
endfacet
facet normal 1.0 -1.201744700343478e-13 -2.3778272225148866e-14
  outer loop
    vertex -10013.550000000007 14435.772265232803 9499.272312875008
    vertex -10013.55000000001 14404.272265232807 9496.272312875024
    vertex -10013.550000000007 14435.772265232803 9496.27231287501
  endloop
endfacet
facet normal -1.942934125185167e-18 -0.1305261922203084 -0.9914448613737767
  outer loop
    vertex -10013.55000000001 14389.27226523281 9461.47231287503
    vertex -10047.950000000006 14384.380585280367 9462.116314758168
    vertex -10047.950000000006 14389.27226523281 9461.47231287503
  endloop
endfacet
facet normal -1.942934125185167e-18 -0.1305261922203084 -0.9914448613737767
  outer loop
    vertex -10047.950000000006 14384.380585280367 9462.116314758168
    vertex -10013.55000000001 14389.27226523281 9461.47231287503
    vertex -10013.550000000016 14384.380585280367 9462.116314758168
  endloop
endfacet
facet normal -0.0 -0.38268343236526126 -0.9238795325112158
  outer loop
    vertex -10013.550000000016 14384.380585280367 9462.116314758168
    vertex -10047.950000000006 14379.822265232808 9464.004432743506
    vertex -10047.950000000006 14384.380585280367 9462.116314758168
  endloop
endfacet
facet normal -0.0 -0.38268343236526126 -0.9238795325112158
  outer loop
    vertex -10047.950000000006 14379.822265232808 9464.004432743506
    vertex -10013.550000000016 14384.380585280367 9462.116314758168
    vertex -10013.550000000016 14379.822265232808 9464.004432743506
  endloop
endfacet
facet normal -0.0 -0.6087614290086439 -0.7933533402912942
  outer loop
    vertex -10013.550000000016 14379.822265232808 9464.004432743506
    vertex -10047.950000000006 14375.907947068383 9467.007994710604
    vertex -10047.950000000006 14379.822265232808 9464.004432743506
  endloop
endfacet
facet normal -0.0 -0.6087614290086439 -0.7933533402912942
  outer loop
    vertex -10047.950000000006 14375.907947068383 9467.007994710604
    vertex -10013.550000000016 14379.822265232808 9464.004432743506
    vertex -10013.550000000016 14375.907947068383 9467.007994710604
  endloop
endfacet
facet normal -0.0 -0.7933533402912942 -0.6087614290086439
  outer loop
    vertex -10013.550000000016 14372.904385101283 9470.922312875031
    vertex -10047.950000000006 14375.907947068383 9467.007994710604
    vertex -10013.550000000016 14375.907947068383 9467.007994710604
  endloop
endfacet
facet normal -0.0 -0.7933533402912942 -0.6087614290086439
  outer loop
    vertex -10047.950000000006 14375.907947068383 9467.007994710604
    vertex -10013.550000000016 14372.904385101283 9470.922312875031
    vertex -10047.950000000006 14372.904385101283 9470.922312875031
  endloop
endfacet
facet normal -0.0 -0.9238795325113016 -0.38268343236505437
  outer loop
    vertex -10013.550000000016 14371.016267115945 9475.480632922592
    vertex -10047.950000000006 14372.904385101283 9470.922312875031
    vertex -10013.550000000016 14372.904385101283 9470.922312875031
  endloop
endfacet
facet normal -0.0 -0.9238795325113016 -0.38268343236505437
  outer loop
    vertex -10047.950000000006 14372.904385101283 9470.922312875031
    vertex -10013.550000000016 14371.016267115945 9475.480632922592
    vertex -10047.950000000006 14371.016267115945 9475.480632922592
  endloop
endfacet
facet normal -0.0 -0.9914448613738703 -0.13052619221959694
  outer loop
    vertex -10013.550000000016 14370.37226523281 9480.37231287503
    vertex -10047.950000000006 14371.016267115945 9475.480632922592
    vertex -10013.550000000016 14371.016267115945 9475.480632922592
  endloop
endfacet
facet normal -0.0 -0.9914448613738703 -0.13052619221959694
  outer loop
    vertex -10047.950000000006 14371.016267115945 9475.480632922592
    vertex -10013.550000000016 14370.37226523281 9480.37231287503
    vertex -10047.950000000006 14370.37226523281 9480.37231287503
  endloop
endfacet
facet normal 0.0 -0.9914448613737946 0.13052619222017223
  outer loop
    vertex -10013.550000000016 14371.016267115949 9485.263992827466
    vertex -10047.950000000006 14370.37226523281 9480.37231287503
    vertex -10013.550000000016 14370.37226523281 9480.37231287503
  endloop
endfacet
facet normal 0.0 -0.9914448613737946 0.13052619222017223
  outer loop
    vertex -10047.950000000006 14370.37226523281 9480.37231287503
    vertex -10013.550000000016 14371.016267115949 9485.263992827466
    vertex -10047.950000000006 14371.016267115949 9485.263992827466
  endloop
endfacet
facet normal 0.0 -0.9238795325112586 0.3826834323651578
  outer loop
    vertex -10013.550000000016 14372.904385101287 9489.822312875027
    vertex -10047.950000000006 14371.016267115949 9485.263992827466
    vertex -10013.550000000016 14371.016267115949 9485.263992827466
  endloop
endfacet
facet normal 0.0 -0.9238795325112586 0.3826834323651578
  outer loop
    vertex -10047.950000000006 14371.016267115949 9485.263992827466
    vertex -10013.550000000016 14372.904385101287 9489.822312875027
    vertex -10047.950000000006 14372.904385101287 9489.822312875027
  endloop
endfacet
facet normal 0.0 -0.7933533402911858 0.6087614290087853
  outer loop
    vertex -10013.550000000016 14375.907947068385 9493.736631039452
    vertex -10047.950000000006 14372.904385101287 9489.822312875027
    vertex -10013.550000000016 14372.904385101287 9489.822312875027
  endloop
endfacet
facet normal 0.0 -0.7933533402911858 0.6087614290087853
  outer loop
    vertex -10047.950000000006 14372.904385101287 9489.822312875027
    vertex -10013.550000000016 14375.907947068385 9493.736631039452
    vertex -10047.950000000006 14375.907947068385 9493.736631039452
  endloop
endfacet
facet normal 0.0 -0.6087614290086439 0.7933533402912942
  outer loop
    vertex -10013.550000000016 14375.907947068385 9493.736631039452
    vertex -10047.950000000006 14379.822265232811 9496.740193006552
    vertex -10047.950000000006 14375.907947068385 9493.736631039452
  endloop
endfacet
facet normal 0.0 -0.6087614290086439 0.7933533402912942
  outer loop
    vertex -10047.950000000006 14379.822265232811 9496.740193006552
    vertex -10013.550000000016 14375.907947068385 9493.736631039452
    vertex -10013.550000000016 14379.822265232811 9496.740193006552
  endloop
endfacet
facet normal 0.0 -0.3826834323648046 0.923879532511405
  outer loop
    vertex -10013.550000000016 14379.822265232811 9496.740193006552
    vertex -10047.950000000006 14384.380585280373 9498.628310991888
    vertex -10047.950000000006 14379.822265232811 9496.740193006552
  endloop
endfacet
facet normal 0.0 -0.3826834323648046 0.923879532511405
  outer loop
    vertex -10047.950000000006 14384.380585280373 9498.628310991888
    vertex -10013.550000000016 14379.822265232811 9496.740193006552
    vertex -10013.550000000016 14384.380585280373 9498.628310991888
  endloop
endfacet
facet normal -5.477138018067059e-15 -0.13052619221992245 0.9914448613738276
  outer loop
    vertex -10013.550000000016 14384.380585280373 9498.628310991888
    vertex -10047.950000000006 14389.27226523281 9499.272312875022
    vertex -10047.950000000006 14384.380585280373 9498.628310991888
  endloop
endfacet
facet normal -5.477138018067059e-15 -0.13052619221992245 0.9914448613738276
  outer loop
    vertex -10047.950000000006 14389.27226523281 9499.272312875022
    vertex -10013.550000000016 14384.380585280373 9498.628310991888
    vertex -10013.55000000001 14389.272265232807 9499.272312875022
  endloop
endfacet
facet normal -2.937515011766323e-13 -0.776460887127038 0.6301654471342372
  outer loop
    vertex -10013.550000000014 14393.745639310442 9477.624327365324
    vertex -10047.95 14392.881981799472 9476.560168293778
    vertex -10013.550000000014 14392.881981799472 9476.560168293778
  endloop
endfacet
facet normal -2.937515011766323e-13 -0.776460887127038 0.6301654471342372
  outer loop
    vertex -10047.95 14392.881981799472 9476.560168293778
    vertex -10013.550000000014 14393.745639310442 9477.624327365324
    vertex -10047.95 14393.745639310442 9477.624327365324
  endloop
endfacet
facet normal -3.0411393212789213e-13 -0.9131024432635816 0.407730214855458
  outer loop
    vertex -10013.550000000014 14394.304443770623 9478.875757108097
    vertex -10047.95 14393.745639310442 9477.624327365324
    vertex -10013.550000000014 14393.745639310442 9477.624327365324
  endloop
endfacet
facet normal -3.0411393212789213e-13 -0.9131024432635816 0.407730214855458
  outer loop
    vertex -10047.95 14393.745639310442 9477.624327365324
    vertex -10013.550000000014 14394.304443770623 9478.875757108097
    vertex -10047.95 14394.304443770623 9478.875757108097
  endloop
endfacet
facet normal -2.9375150117663437e-13 -0.9875175768642094 0.15750884224144554
  outer loop
    vertex -10013.550000000014 14394.52031357952 9480.22917465321
    vertex -10047.95 14394.304443770623 9478.875757108097
    vertex -10013.550000000014 14394.304443770623 9478.875757108097
  endloop
endfacet
facet normal -2.9375150117663437e-13 -0.9875175768642094 0.15750884224144554
  outer loop
    vertex -10047.95 14394.304443770623 9478.875757108097
    vertex -10013.550000000014 14394.52031357952 9480.22917465321
    vertex -10047.95 14394.52031357952 9480.22917465321
  endloop
endfacet
facet normal -2.6337039086765355e-13 -0.9946350195517807 -0.10344649767502533
  outer loop
    vertex -10013.550000000014 14394.378537566401 9481.592346831594
    vertex -10047.95 14394.52031357952 9480.22917465321
    vertex -10013.550000000014 14394.52031357952 9480.22917465321
  endloop
endfacet
facet normal -2.6337039086765355e-13 -0.9946350195517807 -0.10344649767502533
  outer loop
    vertex -10047.95 14394.52031357952 9480.22917465321
    vertex -10013.550000000014 14394.378537566401 9481.592346831594
    vertex -10047.95 14394.378537566401 9481.592346831594
  endloop
endfacet
facet normal -2.1504102366110758e-13 -0.9339697293691415 -0.3573521297293931
  outer loop
    vertex -10013.550000000014 14393.88877753226 9482.872375712039
    vertex -10047.95 14394.378537566401 9481.592346831594
    vertex -10013.550000000014 14394.378537566401 9481.592346831594
  endloop
endfacet
facet normal -2.1504102366110758e-13 -0.9339697293691415 -0.3573521297293931
  outer loop
    vertex -10047.95 14394.378537566401 9481.592346831594
    vertex -10013.550000000014 14393.88877753226 9482.872375712039
    vertex -10047.95 14393.88877753226 9482.872375712039
  endloop
endfacet
facet normal -1.5205696606361658e-13 -0.8096559455867546 -0.5869048046966546
  outer loop
    vertex -10013.550000000016 14393.084409814055 9483.982029441691
    vertex -10047.95 14393.88877753226 9482.872375712039
    vertex -10013.550000000014 14393.88877753226 9482.872375712039
  endloop
endfacet
facet normal -1.5205696606361658e-13 -0.8096559455867546 -0.5869048046966546
  outer loop
    vertex -10047.95 14393.88877753226 9482.872375712039
    vertex -10013.550000000016 14393.084409814055 9483.982029441691
    vertex -10047.950000000003 14393.084409814055 9483.982029441691
  endloop
endfacet
facet normal -7.871047751578672e-14 -0.6301654471342372 -0.776460887127038
  outer loop
    vertex -10013.550000000016 14393.084409814055 9483.982029441691
    vertex -10047.950000000003 14392.02025074251 9484.845686952662
    vertex -10047.950000000003 14393.084409814055 9483.982029441691
  endloop
endfacet
facet normal -7.871047751578672e-14 -0.6301654471342372 -0.776460887127038
  outer loop
    vertex -10047.950000000003 14392.02025074251 9484.845686952662
    vertex -10013.550000000016 14393.084409814055 9483.982029441691
    vertex -10013.550000000016 14392.02025074251 9484.845686952662
  endloop
endfacet
facet normal -2.2410988185274737e-25 -0.40773021485672856 -0.9131024432630142
  outer loop
    vertex -10013.550000000016 14392.02025074251 9484.845686952662
    vertex -10047.950000000003 14390.768820999736 9485.404491412844
    vertex -10047.950000000003 14392.02025074251 9484.845686952662
  endloop
endfacet
facet normal -2.2410988185274737e-25 -0.40773021485672856 -0.9131024432630142
  outer loop
    vertex -10047.950000000003 14390.768820999736 9485.404491412844
    vertex -10013.550000000016 14392.02025074251 9484.845686952662
    vertex -10013.550000000016 14390.768820999736 9485.404491412844
  endloop
endfacet
facet normal 7.871047751573043e-14 -0.15750884224160938 -0.9875175768641831
  outer loop
    vertex -10013.550000000016 14390.768820999736 9485.404491412844
    vertex -10047.950000000003 14389.415403454625 9485.620361221741
    vertex -10047.950000000003 14390.768820999736 9485.404491412844
  endloop
endfacet
facet normal 7.871047751573043e-14 -0.15750884224160938 -0.9875175768641831
  outer loop
    vertex -10047.950000000003 14389.415403454625 9485.620361221741
    vertex -10013.550000000016 14390.768820999736 9485.404491412844
    vertex -10013.550000000016 14389.415403454625 9485.620361221741
  endloop
endfacet
facet normal 1.5205696606398135e-13 0.10344649767595913 -0.9946350195516835
  outer loop
    vertex -10047.950000000003 14389.415403454625 9485.620361221741
    vertex -10013.550000000017 14388.052231276239 9485.47858520862
    vertex -10047.950000000003 14388.052231276239 9485.47858520862
  endloop
endfacet
facet normal 1.5205696606398135e-13 0.10344649767595913 -0.9946350195516835
  outer loop
    vertex -10013.550000000017 14388.052231276239 9485.47858520862
    vertex -10047.950000000003 14389.415403454625 9485.620361221741
    vertex -10013.550000000016 14389.415403454625 9485.620361221741
  endloop
endfacet
facet normal 2.1504102366098e-13 0.35735212973031205 -0.9339697293687897
  outer loop
    vertex -10013.550000000017 14388.052231276239 9485.47858520862
    vertex -10047.950000000003 14386.772202395796 9484.988825174478
    vertex -10047.950000000003 14388.052231276239 9485.47858520862
  endloop
endfacet
facet normal 2.1504102366098e-13 0.35735212973031205 -0.9339697293687897
  outer loop
    vertex -10047.950000000003 14386.772202395796 9484.988825174478
    vertex -10013.550000000017 14388.052231276239 9485.47858520862
    vertex -10013.550000000017 14386.772202395796 9484.988825174478
  endloop
endfacet
facet normal 2.6337039086746196e-13 0.5869048046952734 -0.8096559455877559
  outer loop
    vertex -10013.550000000017 14386.772202395796 9484.988825174478
    vertex -10047.950000000003 14385.662548666143 9484.184457456277
    vertex -10047.950000000003 14386.772202395796 9484.988825174478
  endloop
endfacet
facet normal 2.6337039086746196e-13 0.5869048046952734 -0.8096559455877559
  outer loop
    vertex -10047.950000000003 14385.662548666143 9484.184457456277
    vertex -10013.550000000017 14386.772202395796 9484.988825174478
    vertex -10013.550000000017 14385.662548666143 9484.184457456277
  endloop
endfacet
facet normal 2.937515011766323e-13 0.776460887127038 -0.6301654471342372
  outer loop
    vertex -10047.950000000003 14385.662548666143 9484.184457456277
    vertex -10013.550000000017 14384.798891155171 9483.12029838473
    vertex -10047.950000000003 14384.798891155171 9483.12029838473
  endloop
endfacet
facet normal 2.937515011766323e-13 0.776460887127038 -0.6301654471342372
  outer loop
    vertex -10013.550000000017 14384.798891155171 9483.12029838473
    vertex -10047.950000000003 14385.662548666143 9484.184457456277
    vertex -10013.550000000017 14385.662548666143 9484.184457456277
  endloop
endfacet
facet normal 3.0411393212789213e-13 0.9131024432635816 -0.407730214855458
  outer loop
    vertex -10047.950000000003 14384.798891155171 9483.12029838473
    vertex -10013.550000000017 14384.24008669499 9481.868868641955
    vertex -10047.950000000003 14384.24008669499 9481.868868641955
  endloop
endfacet
facet normal 3.0411393212789213e-13 0.9131024432635816 -0.407730214855458
  outer loop
    vertex -10013.550000000017 14384.24008669499 9481.868868641955
    vertex -10047.950000000003 14384.798891155171 9483.12029838473
    vertex -10013.550000000017 14384.798891155171 9483.12029838473
  endloop
endfacet
facet normal 2.9375150117663437e-13 0.9875175768642094 -0.15750884224144554
  outer loop
    vertex -10047.950000000003 14384.24008669499 9481.868868641955
    vertex -10013.550000000017 14384.024216886093 9480.515451096842
    vertex -10047.950000000003 14384.024216886093 9480.515451096842
  endloop
endfacet
facet normal 2.9375150117663437e-13 0.9875175768642094 -0.15750884224144554
  outer loop
    vertex -10013.550000000017 14384.024216886093 9480.515451096842
    vertex -10047.950000000003 14384.24008669499 9481.868868641955
    vertex -10013.550000000017 14384.24008669499 9481.868868641955
  endloop
endfacet
facet normal 2.6337039086765355e-13 0.9946350195517807 0.10344649767502533
  outer loop
    vertex -10047.950000000003 14384.024216886093 9480.515451096842
    vertex -10013.550000000017 14384.165992899214 9479.152278918458
    vertex -10047.950000000003 14384.165992899214 9479.152278918458
  endloop
endfacet
facet normal 2.6337039086765355e-13 0.9946350195517807 0.10344649767502533
  outer loop
    vertex -10013.550000000017 14384.165992899214 9479.152278918458
    vertex -10047.950000000003 14384.024216886093 9480.515451096842
    vertex -10013.550000000017 14384.024216886093 9480.515451096842
  endloop
endfacet
facet normal 2.1504102366110758e-13 0.9339697293691415 0.3573521297293931
  outer loop
    vertex -10047.950000000003 14384.165992899214 9479.152278918458
    vertex -10013.550000000017 14384.655752933355 9477.872250038015
    vertex -10047.950000000003 14384.655752933355 9477.872250038015
  endloop
endfacet
facet normal 2.1504102366110758e-13 0.9339697293691415 0.3573521297293931
  outer loop
    vertex -10013.550000000017 14384.655752933355 9477.872250038015
    vertex -10047.950000000003 14384.165992899214 9479.152278918458
    vertex -10013.550000000017 14384.165992899214 9479.152278918458
  endloop
endfacet
facet normal 1.5205696606361658e-13 0.8096559455867546 0.5869048046966546
  outer loop
    vertex -10047.950000000003 14384.655752933355 9477.872250038015
    vertex -10013.550000000016 14385.460120651558 9476.762596308363
    vertex -10047.950000000003 14385.460120651558 9476.762596308363
  endloop
endfacet
facet normal 1.5205696606361658e-13 0.8096559455867546 0.5869048046966546
  outer loop
    vertex -10013.550000000016 14385.460120651558 9476.762596308363
    vertex -10047.950000000003 14384.655752933355 9477.872250038015
    vertex -10013.550000000017 14384.655752933355 9477.872250038015
  endloop
endfacet
facet normal 7.871047751578672e-14 0.6301654471342372 0.776460887127038
  outer loop
    vertex -10013.550000000016 14385.460120651558 9476.762596308363
    vertex -10047.950000000003 14386.524279723106 9475.89893879739
    vertex -10047.950000000003 14385.460120651558 9476.762596308363
  endloop
endfacet
facet normal 7.871047751578672e-14 0.6301654471342372 0.776460887127038
  outer loop
    vertex -10047.950000000003 14386.524279723106 9475.89893879739
    vertex -10013.550000000016 14385.460120651558 9476.762596308363
    vertex -10013.550000000016 14386.524279723106 9475.89893879739
  endloop
endfacet
facet normal 2.2410988185274737e-25 0.40773021485672856 0.9131024432630142
  outer loop
    vertex -10013.550000000016 14386.524279723106 9475.89893879739
    vertex -10047.950000000003 14387.775709465877 9475.34013433721
    vertex -10047.950000000003 14386.524279723106 9475.89893879739
  endloop
endfacet
facet normal 2.2410988185274737e-25 0.40773021485672856 0.9131024432630142
  outer loop
    vertex -10047.950000000003 14387.775709465877 9475.34013433721
    vertex -10013.550000000016 14386.524279723106 9475.89893879739
    vertex -10013.550000000016 14387.775709465877 9475.34013433721
  endloop
endfacet
facet normal -7.871047751573043e-14 0.15750884224160938 0.9875175768641831
  outer loop
    vertex -10013.550000000016 14387.775709465877 9475.34013433721
    vertex -10047.950000000003 14389.12912701099 9475.124264528311
    vertex -10047.950000000003 14387.775709465877 9475.34013433721
  endloop
endfacet
facet normal -7.871047751573043e-14 0.15750884224160938 0.9875175768641831
  outer loop
    vertex -10047.950000000003 14389.12912701099 9475.124264528311
    vertex -10013.550000000016 14387.775709465877 9475.34013433721
    vertex -10013.550000000016 14389.12912701099 9475.124264528311
  endloop
endfacet
facet normal -1.5205696606398135e-13 -0.10344649767595913 0.9946350195516835
  outer loop
    vertex -10013.550000000016 14389.12912701099 9475.124264528311
    vertex -10047.95 14390.492299189375 9475.266040541434
    vertex -10047.950000000003 14389.12912701099 9475.124264528311
  endloop
endfacet
facet normal -1.5205696606398135e-13 -0.10344649767595913 0.9946350195516835
  outer loop
    vertex -10047.95 14390.492299189375 9475.266040541434
    vertex -10013.550000000016 14389.12912701099 9475.124264528311
    vertex -10013.550000000014 14390.492299189375 9475.266040541434
  endloop
endfacet
facet normal -2.1504102366098e-13 -0.35735212973031205 0.9339697293687897
  outer loop
    vertex -10013.550000000014 14390.492299189375 9475.266040541434
    vertex -10047.95 14391.77232806982 9475.755800575575
    vertex -10047.95 14390.492299189375 9475.266040541434
  endloop
endfacet
facet normal -2.1504102366098e-13 -0.35735212973031205 0.9339697293687897
  outer loop
    vertex -10047.95 14391.77232806982 9475.755800575575
    vertex -10013.550000000014 14390.492299189375 9475.266040541434
    vertex -10013.550000000014 14391.77232806982 9475.755800575575
  endloop
endfacet
facet normal -2.6337039086746196e-13 -0.5869048046952734 0.8096559455877559
  outer loop
    vertex -10013.550000000014 14391.77232806982 9475.755800575575
    vertex -10047.95 14392.881981799472 9476.560168293778
    vertex -10047.95 14391.77232806982 9475.755800575575
  endloop
endfacet
facet normal -2.6337039086746196e-13 -0.5869048046952734 0.8096559455877559
  outer loop
    vertex -10047.95 14392.881981799472 9476.560168293778
    vertex -10013.550000000014 14391.77232806982 9475.755800575575
    vertex -10013.550000000014 14392.881981799472 9476.560168293778
  endloop
endfacet
endsolid Main
