solid Main
facet normal 7.322261336166021e-15 4.940492459581946e-15 1.0
  outer loop
    vertex -9967.350000000026 14607.12226523278 9400.472312875012
    vertex -9976.75000000002 14638.622265232782 9400.472312875012
    vertex -9976.750000000025 14607.122265232782 9400.472312875012
  endloop
endfacet
facet normal 7.322261336166021e-15 4.940492459581946e-15 1.0
  outer loop
    vertex -9976.75000000002 14638.622265232782 9400.472312875012
    vertex -9967.350000000026 14607.12226523278 9400.472312875012
    vertex -9967.35000000002 14638.622265232782 9400.472312875012
  endloop
endfacet
facet normal -1.0 1.5774327718423805e-13 -1.792685781077597e-14
  outer loop
    vertex -9970.35000000002 14635.622265232778 9397.472312875012
    vertex -9970.350000000026 14605.62226523278 9381.272312875011
    vertex -9970.350000000026 14605.62226523278 9397.472312875012
  endloop
endfacet
facet normal -1.0 1.5774327718423805e-13 -1.792685781077597e-14
  outer loop
    vertex -9970.350000000026 14588.622265232778 9378.272312875015
    vertex -9970.350000000019 14635.622265232778 9375.272312875019
    vertex -9970.350000000028 14585.622265232778 9375.272312875013
  endloop
endfacet
facet normal -1.0 1.5774327718423805e-13 -1.792685781077597e-14
  outer loop
    vertex -9970.350000000019 14635.622265232778 9375.272312875019
    vertex -9970.350000000026 14588.622265232778 9378.272312875015
    vertex -9970.350000000026 14602.62226523278 9378.272312875013
  endloop
endfacet
facet normal -1.0 1.5774327718423805e-13 -1.792685781077597e-14
  outer loop
    vertex -9970.350000000019 14635.622265232778 9375.272312875019
    vertex -9970.350000000026 14602.62226523278 9378.272312875013
    vertex -9970.350000000026 14605.62226523278 9381.272312875011
  endloop
endfacet
facet normal -1.0 1.5774327718423805e-13 -1.792685781077597e-14
  outer loop
    vertex -9970.350000000019 14635.622265232778 9375.272312875019
    vertex -9970.350000000026 14605.62226523278 9381.272312875011
    vertex -9970.35000000002 14635.622265232778 9397.472312875012
  endloop
endfacet
facet normal 3.885120095762618e-15 -6.7168492989821955e-15 -1.0
  outer loop
    vertex -9970.35000000002 14635.622265232778 9397.472312875012
    vertex -9973.750000000025 14605.62226523278 9397.47231287501
    vertex -9973.750000000022 14635.622265232782 9397.47231287501
  endloop
endfacet
facet normal 3.885120095762618e-15 -6.7168492989821955e-15 -1.0
  outer loop
    vertex -9973.750000000025 14605.62226523278 9397.47231287501
    vertex -9970.35000000002 14635.622265232778 9397.472312875012
    vertex -9970.350000000026 14605.62226523278 9397.472312875012
  endloop
endfacet
facet normal 1.6953784227679145e-13 1.0 -9.769962616701378e-15
  outer loop
    vertex -9995.75000000002 14635.622265232785 9375.472312875012
    vertex -9948.35000000002 14635.622265232776 9372.072312875018
    vertex -9995.75000000002 14635.622265232785 9372.07231287501
  endloop
endfacet
facet normal 1.6953784227679145e-13 1.0 -9.769962616701378e-15
  outer loop
    vertex -9948.35000000002 14635.622265232776 9372.072312875018
    vertex -9995.75000000002 14635.622265232785 9375.472312875012
    vertex -9970.350000000019 14635.622265232778 9375.272312875019
  endloop
endfacet
facet normal 1.6953784227679145e-13 1.0 -9.769962616701378e-15
  outer loop
    vertex -9970.350000000019 14635.622265232778 9375.272312875019
    vertex -9995.75000000002 14635.622265232785 9375.472312875012
    vertex -9973.75000000002 14635.622265232782 9375.472312875012
  endloop
endfacet
facet normal 1.6953784227679145e-13 1.0 -9.769962616701378e-15
  outer loop
    vertex -9973.75000000002 14635.622265232782 9375.472312875012
    vertex -9970.35000000002 14635.622265232778 9397.472312875012
    vertex -9970.350000000019 14635.622265232778 9375.272312875019
  endloop
endfacet
facet normal 1.6953784227679145e-13 1.0 -9.769962616701378e-15
  outer loop
    vertex -9970.35000000002 14635.622265232778 9397.472312875012
    vertex -9973.75000000002 14635.622265232782 9375.472312875012
    vertex -9973.750000000022 14635.622265232782 9397.47231287501
  endloop
endfacet
facet normal 1.6953784227679145e-13 1.0 -9.769962616701378e-15
  outer loop
    vertex -9948.35000000002 14635.622265232776 9375.27231287502
    vertex -9948.35000000002 14635.622265232776 9372.072312875018
    vertex -9970.350000000019 14635.622265232778 9375.272312875019
  endloop
endfacet
facet normal -7.470793554865312e-14 -0.7071067811865461 0.707106781186549
  outer loop
    vertex -9967.350000000026 14605.62226523278 9398.972312875012
    vertex -9976.750000000025 14607.122265232782 9400.472312875012
    vertex -9976.750000000025 14605.62226523278 9398.97231287501
  endloop
endfacet
facet normal -7.470793554865312e-14 -0.7071067811865461 0.707106781186549
  outer loop
    vertex -9976.750000000025 14607.122265232782 9400.472312875012
    vertex -9967.350000000026 14605.62226523278 9398.972312875012
    vertex -9967.350000000026 14607.12226523278 9400.472312875012
  endloop
endfacet
facet normal 1.0 -1.5431035964358331e-13 -1.1367440695900713e-14
  outer loop
    vertex -9995.750000000027 14585.622265232783 9372.07231287501
    vertex -9995.75000000002 14635.622265232785 9375.472312875012
    vertex -9995.750000000027 14585.622265232783 9375.472312875012
  endloop
endfacet
facet normal 1.0 -1.5431035964358331e-13 -1.1367440695900713e-14
  outer loop
    vertex -9995.75000000002 14635.622265232785 9375.472312875012
    vertex -9995.750000000027 14585.622265232783 9372.07231287501
    vertex -9995.75000000002 14635.622265232785 9372.07231287501
  endloop
endfacet
facet normal -8.105286941844575e-14 -8.426592756904937e-14 1.0
  outer loop
    vertex -9995.750000000027 14585.622265232783 9372.07231287501
    vertex -9948.35000000002 14635.622265232776 9372.072312875018
    vertex -9995.75000000002 14635.622265232785 9372.07231287501
  endloop
endfacet
facet normal -8.105286941844575e-14 -8.426592756904937e-14 1.0
  outer loop
    vertex -9948.35000000002 14635.622265232776 9372.072312875018
    vertex -9995.750000000027 14585.622265232783 9372.07231287501
    vertex -9948.35000000003 14585.622265232776 9372.072312875012
  endloop
endfacet
facet normal 1.0 -1.4844853752171112e-13 1.8295368097084164e-15
  outer loop
    vertex -9973.75000000002 14635.622265232782 9375.472312875012
    vertex -9973.750000000027 14588.62226523278 9378.27231287501
    vertex -9973.75000000003 14585.622265232782 9375.472312875012
  endloop
endfacet
facet normal 1.0 -1.4844853752171112e-13 1.8295368097084164e-15
  outer loop
    vertex -9973.750000000027 14588.62226523278 9378.27231287501
    vertex -9973.75000000002 14635.622265232782 9375.472312875012
    vertex -9973.750000000025 14602.62226523278 9378.272312875013
  endloop
endfacet
facet normal 1.0 -1.4844853752171112e-13 1.8295368097084164e-15
  outer loop
    vertex -9973.750000000025 14602.62226523278 9378.272312875013
    vertex -9973.75000000002 14635.622265232782 9375.472312875012
    vertex -9973.750000000025 14605.62226523278 9381.272312875013
  endloop
endfacet
facet normal 1.0 -1.4844853752171112e-13 1.8295368097084164e-15
  outer loop
    vertex -9973.750000000025 14605.62226523278 9381.272312875013
    vertex -9973.75000000002 14635.622265232782 9375.472312875012
    vertex -9973.750000000022 14635.622265232782 9397.47231287501
  endloop
endfacet
facet normal 1.0 -1.4844853752171112e-13 1.8295368097084164e-15
  outer loop
    vertex -9973.750000000022 14635.622265232782 9397.47231287501
    vertex -9973.750000000025 14605.62226523278 9397.47231287501
    vertex -9973.750000000025 14605.62226523278 9381.272312875013
  endloop
endfacet
facet normal 2.0682659647636575e-14 -6.883382752675969e-15 -1.0
  outer loop
    vertex -9973.75000000002 14635.622265232782 9375.472312875012
    vertex -9995.750000000027 14585.622265232783 9375.472312875012
    vertex -9995.75000000002 14635.622265232785 9375.472312875012
  endloop
endfacet
facet normal 2.0682659647636575e-14 -6.883382752675969e-15 -1.0
  outer loop
    vertex -9995.750000000027 14585.622265232783 9375.472312875012
    vertex -9973.75000000002 14635.622265232782 9375.472312875012
    vertex -9973.75000000003 14585.622265232782 9375.472312875012
  endloop
endfacet
facet normal 4.186316577207599e-13 1.0 2.38142838782096e-14
  outer loop
    vertex -9949.350000000011 14638.622265232769 9367.072312875014
    vertex -9945.350000000024 14638.622265232749 9378.272312875031
    vertex -9945.350000000011 14638.622265232767 9367.072312875016
  endloop
endfacet
facet normal 4.186316577207599e-13 1.0 2.38142838782096e-14
  outer loop
    vertex -9945.350000000024 14638.622265232749 9378.272312875031
    vertex -9949.350000000011 14638.622265232769 9367.072312875014
    vertex -9949.350000000011 14638.622265232769 9369.072312875041
  endloop
endfacet
facet normal 4.186316577207599e-13 1.0 2.38142838782096e-14
  outer loop
    vertex -9965.350000000019 14638.622265232778 9367.072312875007
    vertex -9961.350000000019 14638.622265232774 9369.072312875027
    vertex -9961.350000000017 14638.622265232774 9367.072312875007
  endloop
endfacet
facet normal 4.186316577207599e-13 1.0 2.38142838782096e-14
  outer loop
    vertex -9961.350000000019 14638.622265232774 9369.072312875027
    vertex -9965.350000000019 14638.622265232778 9367.072312875007
    vertex -9965.350000000019 14638.622265232778 9369.072312875025
  endloop
endfacet
facet normal 4.186316577207599e-13 1.0 2.38142838782096e-14
  outer loop
    vertex -9961.350000000019 14638.622265232774 9369.072312875027
    vertex -9965.350000000019 14638.622265232778 9369.072312875025
    vertex -9969.350000000028 14638.622265232783 9369.072312875032
  endloop
endfacet
facet normal 4.186316577207599e-13 1.0 2.38142838782096e-14
  outer loop
    vertex -9961.350000000019 14638.622265232774 9369.072312875027
    vertex -9969.350000000028 14638.622265232783 9369.072312875032
    vertex -9957.350000000015 14638.622265232774 9369.072312875034
  endloop
endfacet
facet normal 4.186316577207599e-13 1.0 2.38142838782096e-14
  outer loop
    vertex -9957.350000000015 14638.622265232774 9369.072312875034
    vertex -9969.350000000028 14638.622265232783 9369.072312875032
    vertex -9953.350000000015 14638.622265232772 9369.072312875038
  endloop
endfacet
facet normal 4.186316577207599e-13 1.0 2.38142838782096e-14
  outer loop
    vertex -9953.350000000015 14638.622265232772 9369.072312875038
    vertex -9969.350000000028 14638.622265232783 9369.072312875032
    vertex -9949.350000000011 14638.622265232769 9369.072312875041
  endloop
endfacet
facet normal 4.186316577207599e-13 1.0 2.38142838782096e-14
  outer loop
    vertex -9957.350000000015 14638.622265232774 9369.072312875034
    vertex -9953.350000000015 14638.622265232772 9367.072312875014
    vertex -9957.350000000015 14638.622265232774 9367.072312875014
  endloop
endfacet
facet normal 4.186316577207599e-13 1.0 2.38142838782096e-14
  outer loop
    vertex -9953.350000000015 14638.622265232772 9367.072312875014
    vertex -9957.350000000015 14638.622265232774 9369.072312875034
    vertex -9953.350000000015 14638.622265232772 9369.072312875038
  endloop
endfacet
facet normal 4.186316577207599e-13 1.0 2.38142838782096e-14
  outer loop
    vertex -9974.550000000028 14638.622265232783 9369.072312875027
    vertex -9969.350000000028 14638.622265232783 9367.072312875018
    vertex -9974.550000000028 14638.622265232783 9367.072312875018
  endloop
endfacet
facet normal 4.186316577207599e-13 1.0 2.38142838782096e-14
  outer loop
    vertex -9969.350000000028 14638.622265232783 9367.072312875018
    vertex -9974.550000000028 14638.622265232783 9369.072312875027
    vertex -9969.350000000028 14638.622265232783 9369.072312875032
  endloop
endfacet
facet normal 4.186316577207599e-13 1.0 2.38142838782096e-14
  outer loop
    vertex -9982.550000000025 14638.622265232783 9367.072312875014
    vertex -9978.550000000025 14638.622265232783 9369.07231287502
    vertex -9978.550000000025 14638.622265232783 9367.072312875014
  endloop
endfacet
facet normal 4.186316577207599e-13 1.0 2.38142838782096e-14
  outer loop
    vertex -9978.550000000025 14638.622265232783 9369.07231287502
    vertex -9982.550000000025 14638.622265232783 9367.072312875014
    vertex -9982.550000000025 14638.622265232783 9369.07231287502
  endloop
endfacet
facet normal 4.186316577207599e-13 1.0 2.38142838782096e-14
  outer loop
    vertex -9978.550000000025 14638.622265232783 9369.07231287502
    vertex -9982.550000000025 14638.622265232783 9369.07231287502
    vertex -9986.550000000028 14638.622265232783 9369.072312875021
  endloop
endfacet
facet normal 4.186316577207599e-13 1.0 2.38142838782096e-14
  outer loop
    vertex -9978.550000000025 14638.622265232783 9369.07231287502
    vertex -9986.550000000028 14638.622265232783 9369.072312875021
    vertex -9974.550000000028 14638.622265232783 9369.072312875027
  endloop
endfacet
facet normal 4.186316577207599e-13 1.0 2.38142838782096e-14
  outer loop
    vertex -9990.55000000003 14638.622265232783 9367.07231287502
    vertex -9986.550000000028 14638.622265232783 9369.072312875021
    vertex -9986.550000000028 14638.622265232783 9367.072312875018
  endloop
endfacet
facet normal 4.186316577207599e-13 1.0 2.38142838782096e-14
  outer loop
    vertex -9986.550000000028 14638.622265232783 9369.072312875021
    vertex -9990.55000000003 14638.622265232783 9367.07231287502
    vertex -9990.55000000003 14638.622265232783 9369.07231287502
  endloop
endfacet
facet normal 4.186316577207599e-13 1.0 2.38142838782096e-14
  outer loop
    vertex -9998.550000000028 14638.622265232783 9367.072312875012
    vertex -9994.55000000003 14638.622265232783 9369.072312875014
    vertex -9994.550000000028 14638.622265232783 9367.072312875012
  endloop
endfacet
facet normal 4.186316577207599e-13 1.0 2.38142838782096e-14
  outer loop
    vertex -9994.55000000003 14638.622265232783 9369.072312875014
    vertex -9998.550000000028 14638.622265232783 9367.072312875012
    vertex -9998.550000000021 14638.622265232783 9378.272312875011
  endloop
endfacet
facet normal 4.186316577207599e-13 1.0 2.38142838782096e-14
  outer loop
    vertex -9994.55000000003 14638.622265232783 9369.072312875014
    vertex -9998.550000000021 14638.622265232783 9378.272312875011
    vertex -9990.55000000003 14638.622265232783 9369.07231287502
  endloop
endfacet
facet normal 4.186316577207599e-13 1.0 2.38142838782096e-14
  outer loop
    vertex -9990.55000000003 14638.622265232783 9369.07231287502
    vertex -9998.550000000021 14638.622265232783 9378.272312875011
    vertex -9986.550000000028 14638.622265232783 9369.072312875021
  endloop
endfacet
facet normal 4.186316577207599e-13 1.0 2.38142838782096e-14
  outer loop
    vertex -9986.550000000028 14638.622265232783 9369.072312875021
    vertex -9998.550000000021 14638.622265232783 9378.272312875011
    vertex -9974.550000000028 14638.622265232783 9369.072312875027
  endloop
endfacet
facet normal 4.186316577207599e-13 1.0 2.38142838782096e-14
  outer loop
    vertex -9974.550000000028 14638.622265232783 9369.072312875027
    vertex -9998.550000000021 14638.622265232783 9378.272312875011
    vertex -9969.350000000028 14638.622265232783 9369.072312875032
  endloop
endfacet
facet normal 4.186316577207599e-13 1.0 2.38142838782096e-14
  outer loop
    vertex -9969.350000000028 14638.622265232783 9369.072312875032
    vertex -9998.550000000021 14638.622265232783 9378.272312875011
    vertex -9949.350000000011 14638.622265232769 9369.072312875041
  endloop
endfacet
facet normal 4.186316577207599e-13 1.0 2.38142838782096e-14
  outer loop
    vertex -9949.350000000011 14638.622265232769 9369.072312875041
    vertex -9998.550000000021 14638.622265232783 9378.272312875011
    vertex -9976.75000000002 14638.622265232782 9378.272312875011
  endloop
endfacet
facet normal 4.186316577207599e-13 1.0 2.38142838782096e-14
  outer loop
    vertex -9949.350000000011 14638.622265232769 9369.072312875041
    vertex -9976.75000000002 14638.622265232782 9378.272312875011
    vertex -9945.350000000024 14638.622265232749 9378.272312875031
  endloop
endfacet
facet normal 4.186316577207599e-13 1.0 2.38142838782096e-14
  outer loop
    vertex -9976.75000000002 14638.622265232782 9378.272312875011
    vertex -9967.35000000002 14638.622265232767 9378.272312875031
    vertex -9945.350000000024 14638.622265232749 9378.272312875031
  endloop
endfacet
facet normal 4.186316577207599e-13 1.0 2.38142838782096e-14
  outer loop
    vertex -9967.35000000002 14638.622265232767 9378.272312875031
    vertex -9976.75000000002 14638.622265232782 9378.272312875011
    vertex -9976.75000000002 14638.622265232782 9386.272312875011
  endloop
endfacet
facet normal 4.186316577207599e-13 1.0 2.38142838782096e-14
  outer loop
    vertex -9967.35000000002 14638.622265232767 9378.272312875031
    vertex -9976.75000000002 14638.622265232782 9386.272312875011
    vertex -9967.35000000002 14638.622265232782 9400.472312875012
  endloop
endfacet
facet normal 4.186316577207599e-13 1.0 2.38142838782096e-14
  outer loop
    vertex -9967.35000000002 14638.622265232782 9400.472312875012
    vertex -9976.75000000002 14638.622265232782 9386.272312875011
    vertex -9977.25000000002 14638.622265232782 9386.272312875011
  endloop
endfacet
facet normal 4.186316577207599e-13 1.0 2.38142838782096e-14
  outer loop
    vertex -9967.35000000002 14638.622265232782 9400.472312875012
    vertex -9977.25000000002 14638.622265232782 9386.272312875011
    vertex -9976.75000000002 14638.622265232782 9392.272312875011
  endloop
endfacet
facet normal 4.186316577207599e-13 1.0 2.38142838782096e-14
  outer loop
    vertex -9976.75000000002 14638.622265232782 9392.272312875011
    vertex -9977.25000000002 14638.622265232782 9386.272312875011
    vertex -9977.25000000002 14638.622265232782 9392.272312875011
  endloop
endfacet
facet normal 4.186316577207599e-13 1.0 2.38142838782096e-14
  outer loop
    vertex -9967.35000000002 14638.622265232782 9400.472312875012
    vertex -9976.75000000002 14638.622265232782 9392.272312875011
    vertex -9976.75000000002 14638.622265232782 9400.472312875012
  endloop
endfacet
facet normal -8.172021893904527e-14 -3.211875210240578e-13 1.0
  outer loop
    vertex -9970.350000000026 14588.622265232778 9378.272312875015
    vertex -9967.350000000026 14602.62226523278 9378.272312875013
    vertex -9970.350000000026 14602.62226523278 9378.272312875013
  endloop
endfacet
facet normal -8.172021893904527e-14 -3.211875210240578e-13 1.0
  outer loop
    vertex -9967.350000000026 14602.62226523278 9378.272312875013
    vertex -9970.350000000026 14588.622265232778 9378.272312875015
    vertex -9945.350000000026 14588.622265232774 9378.272312875013
  endloop
endfacet
facet normal -8.172021893904527e-14 -3.211875210240578e-13 1.0
  outer loop
    vertex -9967.350000000026 14602.62226523278 9378.272312875013
    vertex -9945.350000000026 14588.622265232774 9378.272312875013
    vertex -9945.350000000024 14638.622265232749 9378.272312875031
  endloop
endfacet
facet normal -8.172021893904527e-14 -3.211875210240578e-13 1.0
  outer loop
    vertex -9945.350000000024 14638.622265232749 9378.272312875031
    vertex -9967.35000000002 14638.622265232767 9378.272312875031
    vertex -9967.350000000026 14602.62226523278 9378.272312875013
  endloop
endfacet
facet normal -1.432308421798688e-13 -1.0 2.2426505097428162e-14
  outer loop
    vertex -9967.350000000026 14605.62226523278 9381.272312875013
    vertex -9970.350000000026 14605.62226523278 9397.472312875012
    vertex -9970.350000000026 14605.62226523278 9381.272312875011
  endloop
endfacet
facet normal -1.432308421798688e-13 -1.0 2.2426505097428162e-14
  outer loop
    vertex -9970.350000000026 14605.62226523278 9397.472312875012
    vertex -9967.350000000026 14605.62226523278 9381.272312875013
    vertex -9967.350000000026 14605.62226523278 9398.972312875012
  endloop
endfacet
facet normal -1.432308421798688e-13 -1.0 2.2426505097428162e-14
  outer loop
    vertex -9970.350000000026 14605.62226523278 9397.472312875012
    vertex -9967.350000000026 14605.62226523278 9398.972312875012
    vertex -9976.750000000025 14605.62226523278 9398.97231287501
  endloop
endfacet
facet normal -1.432308421798688e-13 -1.0 2.2426505097428162e-14
  outer loop
    vertex -9973.750000000025 14605.62226523278 9381.272312875013
    vertex -9976.750000000025 14605.62226523278 9398.97231287501
    vertex -9976.750000000025 14605.62226523278 9381.272312875011
  endloop
endfacet
facet normal -1.432308421798688e-13 -1.0 2.2426505097428162e-14
  outer loop
    vertex -9976.750000000025 14605.62226523278 9398.97231287501
    vertex -9973.750000000025 14605.62226523278 9381.272312875013
    vertex -9973.750000000025 14605.62226523278 9397.47231287501
  endloop
endfacet
facet normal -1.432308421798688e-13 -1.0 2.2426505097428162e-14
  outer loop
    vertex -9976.750000000025 14605.62226523278 9398.97231287501
    vertex -9973.750000000025 14605.62226523278 9397.47231287501
    vertex -9970.350000000026 14605.62226523278 9397.472312875012
  endloop
endfacet
facet normal -1.20975748469244e-13 -0.7071067811865445 0.7071067811865509
  outer loop
    vertex -9967.350000000026 14602.62226523278 9378.272312875013
    vertex -9970.350000000026 14605.62226523278 9381.272312875011
    vertex -9970.350000000026 14602.62226523278 9378.272312875013
  endloop
endfacet
facet normal -1.20975748469244e-13 -0.7071067811865445 0.7071067811865509
  outer loop
    vertex -9970.350000000026 14605.62226523278 9381.272312875011
    vertex -9967.350000000026 14602.62226523278 9378.272312875013
    vertex -9967.350000000026 14605.62226523278 9381.272312875013
  endloop
endfacet
facet normal -1.0501633923383583e-13 -0.7071067811865688 0.7071067811865264
  outer loop
    vertex -9973.750000000025 14602.62226523278 9378.272312875013
    vertex -9976.750000000025 14605.62226523278 9381.272312875011
    vertex -9976.750000000025 14602.62226523278 9378.272312875013
  endloop
endfacet
facet normal -1.0501633923383583e-13 -0.7071067811865688 0.7071067811865264
  outer loop
    vertex -9976.750000000025 14605.62226523278 9381.272312875011
    vertex -9973.750000000025 14602.62226523278 9378.272312875013
    vertex -9973.750000000025 14605.62226523278 9381.272312875013
  endloop
endfacet
facet normal -1.0 1.507275206730192e-13 -1.7009563638263087e-14
  outer loop
    vertex -9976.750000000025 14607.122265232782 9400.472312875012
    vertex -9976.750000000025 14605.62226523278 9381.272312875011
    vertex -9976.750000000025 14605.62226523278 9398.97231287501
  endloop
endfacet
facet normal -1.0 1.507275206730192e-13 -1.7009563638263087e-14
  outer loop
    vertex -9976.750000000025 14605.62226523278 9381.272312875011
    vertex -9976.750000000025 14607.122265232782 9400.472312875012
    vertex -9976.750000000022 14622.622265232782 9392.272312875011
  endloop
endfacet
facet normal -1.0 1.507275206730192e-13 -1.7009563638263087e-14
  outer loop
    vertex -9976.750000000022 14622.622265232782 9392.272312875011
    vertex -9976.750000000025 14607.122265232782 9400.472312875012
    vertex -9976.75000000002 14638.622265232782 9400.472312875012
  endloop
endfacet
facet normal -1.0 1.507275206730192e-13 -1.7009563638263087e-14
  outer loop
    vertex -9976.750000000022 14622.622265232782 9392.272312875011
    vertex -9976.75000000002 14638.622265232782 9400.472312875012
    vertex -9976.75000000002 14638.622265232782 9392.272312875011
  endloop
endfacet
facet normal -1.0 1.507275206730192e-13 -1.7009563638263087e-14
  outer loop
    vertex -9976.750000000022 14625.520042711647 9390.048770010319
    vertex -9976.750000000022 14622.622265232782 9386.272312875011
    vertex -9976.750000000022 14625.220341444134 9390.772312875013
  endloop
endfacet
facet normal -1.0 1.507275206730192e-13 -1.7009563638263087e-14
  outer loop
    vertex -9976.750000000022 14622.622265232782 9386.272312875011
    vertex -9976.750000000022 14625.520042711647 9390.048770010319
    vertex -9976.750000000022 14623.398722368089 9386.374535396146
  endloop
endfacet
facet normal -1.0 1.507275206730192e-13 -1.7009563638263087e-14
  outer loop
    vertex -9976.750000000022 14623.398722368089 9386.374535396146
    vertex -9976.750000000022 14625.520042711647 9390.048770010319
    vertex -9976.750000000022 14625.622265232782 9389.272312875011
  endloop
endfacet
facet normal -1.0 1.507275206730192e-13 -1.7009563638263087e-14
  outer loop
    vertex -9976.750000000022 14623.398722368089 9386.374535396146
    vertex -9976.750000000022 14625.622265232782 9389.272312875011
    vertex -9976.750000000022 14624.122265232782 9386.674236663659
  endloop
endfacet
facet normal -1.0 1.507275206730192e-13 -1.7009563638263087e-14
  outer loop
    vertex -9976.750000000022 14624.122265232782 9386.674236663659
    vertex -9976.750000000022 14625.622265232782 9389.272312875011
    vertex -9976.750000000022 14625.520042711647 9388.495855739706
  endloop
endfacet
facet normal -1.0 1.507275206730192e-13 -1.7009563638263087e-14
  outer loop
    vertex -9976.750000000022 14624.122265232782 9386.674236663659
    vertex -9976.750000000022 14625.520042711647 9388.495855739706
    vertex -9976.750000000022 14624.74358557634 9387.150992531453
  endloop
endfacet
facet normal -1.0 1.507275206730192e-13 -1.7009563638263087e-14
  outer loop
    vertex -9976.750000000022 14624.74358557634 9387.150992531453
    vertex -9976.750000000022 14625.520042711647 9388.495855739706
    vertex -9976.750000000022 14625.220341444134 9387.772312875011
  endloop
endfacet
facet normal -1.0 1.507275206730192e-13 -1.7009563638263087e-14
  outer loop
    vertex -9976.750000000025 14605.62226523278 9381.272312875011
    vertex -9976.75000000002 14638.622265232782 9378.272312875011
    vertex -9976.750000000025 14602.62226523278 9378.272312875013
  endloop
endfacet
facet normal -1.0 1.507275206730192e-13 -1.7009563638263087e-14
  outer loop
    vertex -9976.75000000002 14638.622265232782 9378.272312875011
    vertex -9976.750000000025 14605.62226523278 9381.272312875011
    vertex -9976.750000000022 14622.622265232782 9386.272312875011
  endloop
endfacet
facet normal -1.0 1.507275206730192e-13 -1.7009563638263087e-14
  outer loop
    vertex -9976.750000000022 14622.622265232782 9386.272312875011
    vertex -9976.750000000025 14605.62226523278 9381.272312875011
    vertex -9976.750000000022 14622.622265232782 9392.272312875011
  endloop
endfacet
facet normal -1.0 1.507275206730192e-13 -1.7009563638263087e-14
  outer loop
    vertex -9976.750000000022 14622.622265232782 9386.272312875011
    vertex -9976.750000000022 14622.622265232782 9392.272312875011
    vertex -9976.750000000022 14623.398722368089 9392.170090353879
  endloop
endfacet
facet normal -1.0 1.507275206730192e-13 -1.7009563638263087e-14
  outer loop
    vertex -9976.750000000022 14622.622265232782 9386.272312875011
    vertex -9976.750000000022 14623.398722368089 9392.170090353879
    vertex -9976.750000000022 14624.122265232782 9391.870389086365
  endloop
endfacet
facet normal -1.0 1.507275206730192e-13 -1.7009563638263087e-14
  outer loop
    vertex -9976.750000000022 14622.622265232782 9386.272312875011
    vertex -9976.750000000022 14624.122265232782 9391.870389086365
    vertex -9976.750000000022 14624.74358557634 9391.393633218571
  endloop
endfacet
facet normal -1.0 1.507275206730192e-13 -1.7009563638263087e-14
  outer loop
    vertex -9976.750000000022 14622.622265232782 9386.272312875011
    vertex -9976.750000000022 14624.74358557634 9391.393633218571
    vertex -9976.750000000022 14625.220341444134 9390.772312875013
  endloop
endfacet
facet normal -1.0 1.507275206730192e-13 -1.7009563638263087e-14
  outer loop
    vertex -9976.75000000002 14638.622265232782 9378.272312875011
    vertex -9976.750000000022 14622.622265232782 9386.272312875011
    vertex -9976.75000000002 14638.622265232782 9386.272312875011
  endloop
endfacet
facet normal -1.0 1.524413796163312e-13 -6.3264666455754e-15
  outer loop
    vertex -9977.25000000002 14638.622265232782 9392.272312875011
    vertex -9977.250000000022 14623.398722368089 9392.170090353879
    vertex -9977.250000000022 14622.622265232782 9392.272312875011
  endloop
endfacet
facet normal -1.0 1.524413796163312e-13 -6.3264666455754e-15
  outer loop
    vertex -9977.250000000022 14623.398722368089 9392.170090353879
    vertex -9977.25000000002 14638.622265232782 9392.272312875011
    vertex -9977.250000000022 14624.122265232782 9391.870389086364
  endloop
endfacet
facet normal -1.0 1.524413796163312e-13 -6.3264666455754e-15
  outer loop
    vertex -9977.250000000022 14624.122265232782 9391.870389086364
    vertex -9977.25000000002 14638.622265232782 9392.272312875011
    vertex -9977.250000000022 14624.74358557634 9391.393633218571
  endloop
endfacet
facet normal -1.0 1.524413796163312e-13 -6.3264666455754e-15
  outer loop
    vertex -9977.250000000022 14624.74358557634 9391.393633218571
    vertex -9977.25000000002 14638.622265232782 9392.272312875011
    vertex -9977.250000000022 14625.220341444134 9390.772312875011
  endloop
endfacet
facet normal -1.0 1.524413796163312e-13 -6.3264666455754e-15
  outer loop
    vertex -9977.250000000022 14625.220341444134 9390.772312875011
    vertex -9977.25000000002 14638.622265232782 9392.272312875011
    vertex -9977.250000000022 14625.520042711647 9390.048770010319
  endloop
endfacet
facet normal -1.0 1.524413796163312e-13 -6.3264666455754e-15
  outer loop
    vertex -9977.250000000022 14625.520042711647 9390.048770010319
    vertex -9977.25000000002 14638.622265232782 9392.272312875011
    vertex -9977.250000000022 14625.622265232782 9389.272312875011
  endloop
endfacet
facet normal -1.0 1.524413796163312e-13 -6.3264666455754e-15
  outer loop
    vertex -9977.250000000022 14625.622265232782 9389.272312875011
    vertex -9977.25000000002 14638.622265232782 9392.272312875011
    vertex -9977.250000000022 14625.520042711647 9388.495855739704
  endloop
endfacet
facet normal -1.0 1.524413796163312e-13 -6.3264666455754e-15
  outer loop
    vertex -9977.250000000022 14625.520042711647 9388.495855739704
    vertex -9977.25000000002 14638.622265232782 9392.272312875011
    vertex -9977.250000000022 14625.220341444134 9387.772312875011
  endloop
endfacet
facet normal -1.0 1.524413796163312e-13 -6.3264666455754e-15
  outer loop
    vertex -9977.250000000022 14623.398722368089 9386.374535396144
    vertex -9977.25000000002 14638.622265232782 9386.272312875011
    vertex -9977.250000000022 14622.622265232782 9386.272312875011
  endloop
endfacet
facet normal -1.0 1.524413796163312e-13 -6.3264666455754e-15
  outer loop
    vertex -9977.25000000002 14638.622265232782 9386.272312875011
    vertex -9977.250000000022 14623.398722368089 9386.374535396144
    vertex -9977.250000000022 14624.122265232782 9386.674236663659
  endloop
endfacet
facet normal -1.0 1.524413796163312e-13 -6.3264666455754e-15
  outer loop
    vertex -9977.25000000002 14638.622265232782 9386.272312875011
    vertex -9977.250000000022 14624.122265232782 9386.674236663659
    vertex -9977.250000000022 14624.74358557634 9387.150992531451
  endloop
endfacet
facet normal -1.0 1.524413796163312e-13 -6.3264666455754e-15
  outer loop
    vertex -9977.25000000002 14638.622265232782 9386.272312875011
    vertex -9977.250000000022 14624.74358557634 9387.150992531451
    vertex -9977.250000000022 14625.220341444134 9387.772312875011
  endloop
endfacet
facet normal -1.0 1.524413796163312e-13 -6.3264666455754e-15
  outer loop
    vertex -9977.25000000002 14638.622265232782 9386.272312875011
    vertex -9977.250000000022 14625.220341444134 9387.772312875011
    vertex -9977.25000000002 14638.622265232782 9392.272312875011
  endloop
endfacet
facet normal 6.326466645572097e-15 -2.1593837828959288e-14 -1.0
  outer loop
    vertex -9976.75000000002 14638.622265232782 9386.272312875011
    vertex -9977.250000000022 14622.622265232782 9386.272312875011
    vertex -9977.25000000002 14638.622265232782 9386.272312875011
  endloop
endfacet
facet normal 6.326466645572097e-15 -2.1593837828959288e-14 -1.0
  outer loop
    vertex -9977.250000000022 14622.622265232782 9386.272312875011
    vertex -9976.75000000002 14638.622265232782 9386.272312875011
    vertex -9976.750000000022 14622.622265232782 9386.272312875011
  endloop
endfacet
facet normal -2.6169935664489426e-14 -0.1305261922199842 0.9914448613738194
  outer loop
    vertex -9976.750000000022 14622.622265232782 9386.272312875011
    vertex -9977.250000000022 14623.398722368089 9386.374535396144
    vertex -9977.250000000022 14622.622265232782 9386.272312875011
  endloop
endfacet
facet normal -2.6169935664489426e-14 -0.1305261922199842 0.9914448613738194
  outer loop
    vertex -9977.250000000022 14623.398722368089 9386.374535396144
    vertex -9976.750000000022 14622.622265232782 9386.272312875011
    vertex -9976.750000000022 14623.398722368089 9386.374535396146
  endloop
endfacet
facet normal -6.418168343300328e-14 -0.3826834323650468 0.9238795325113046
  outer loop
    vertex -9976.750000000022 14623.398722368089 9386.374535396146
    vertex -9977.250000000022 14624.122265232782 9386.674236663659
    vertex -9977.250000000022 14623.398722368089 9386.374535396144
  endloop
endfacet
facet normal -6.418168343300328e-14 -0.3826834323650468 0.9238795325113046
  outer loop
    vertex -9977.250000000022 14624.122265232782 9386.674236663659
    vertex -9976.750000000022 14623.398722368089 9386.374535396146
    vertex -9976.750000000022 14624.122265232782 9386.674236663659
  endloop
endfacet
facet normal -9.78195555408033e-14 -0.6087614290086958 0.7933533402912543
  outer loop
    vertex -9976.750000000022 14624.74358557634 9387.150992531453
    vertex -9977.250000000022 14624.122265232782 9386.674236663659
    vertex -9976.750000000022 14624.122265232782 9386.674236663659
  endloop
endfacet
facet normal -9.78195555408033e-14 -0.6087614290086958 0.7933533402912543
  outer loop
    vertex -9977.250000000022 14624.122265232782 9386.674236663659
    vertex -9976.750000000022 14624.74358557634 9387.150992531453
    vertex -9977.250000000022 14624.74358557634 9387.150992531451
  endloop
endfacet
facet normal -1.2479118659295049e-13 -0.7933533402911894 0.6087614290087803
  outer loop
    vertex -9976.750000000022 14624.74358557634 9387.150992531453
    vertex -9977.250000000022 14625.220341444134 9387.772312875011
    vertex -9977.250000000022 14624.74358557634 9387.150992531451
  endloop
endfacet
facet normal -1.2479118659295049e-13 -0.7933533402911894 0.6087614290087803
  outer loop
    vertex -9977.250000000022 14625.220341444134 9387.772312875011
    vertex -9976.750000000022 14624.74358557634 9387.150992531453
    vertex -9976.750000000022 14625.220341444134 9387.772312875011
  endloop
endfacet
facet normal -1.432585045059821e-13 -0.9238795325112747 0.3826834323651189
  outer loop
    vertex -9976.750000000022 14625.220341444134 9387.772312875011
    vertex -9977.250000000022 14625.520042711647 9388.495855739704
    vertex -9977.250000000022 14625.220341444134 9387.772312875011
  endloop
endfacet
facet normal -1.432585045059821e-13 -0.9238795325112747 0.3826834323651189
  outer loop
    vertex -9977.250000000022 14625.520042711647 9388.495855739704
    vertex -9976.750000000022 14625.220341444134 9387.772312875011
    vertex -9976.750000000022 14625.520042711647 9388.495855739706
  endloop
endfacet
facet normal -1.519629920827996e-13 -0.9914448613738063 0.130526192220084
  outer loop
    vertex -9976.750000000022 14625.520042711647 9388.495855739706
    vertex -9977.250000000022 14625.622265232782 9389.272312875011
    vertex -9977.250000000022 14625.520042711647 9388.495855739704
  endloop
endfacet
facet normal -1.519629920827996e-13 -0.9914448613738063 0.130526192220084
  outer loop
    vertex -9977.250000000022 14625.622265232782 9389.272312875011
    vertex -9976.750000000022 14625.520042711647 9388.495855739706
    vertex -9976.750000000022 14625.622265232782 9389.272312875011
  endloop
endfacet
facet normal -1.50311452879893e-13 -0.9914448613738164 -0.13052619222000625
  outer loop
    vertex -9976.750000000022 14625.622265232782 9389.272312875011
    vertex -9977.250000000022 14625.520042711647 9390.048770010319
    vertex -9977.250000000022 14625.622265232782 9389.272312875011
  endloop
endfacet
facet normal -1.50311452879893e-13 -0.9914448613738164 -0.13052619222000625
  outer loop
    vertex -9977.250000000022 14625.520042711647 9390.048770010319
    vertex -9976.750000000022 14625.622265232782 9389.272312875011
    vertex -9976.750000000022 14625.520042711647 9390.048770010319
  endloop
endfacet
facet normal -1.384164365646406e-13 -0.9238795325112926 -0.3826834323650754
  outer loop
    vertex -9977.250000000022 14625.520042711647 9390.048770010319
    vertex -9976.750000000022 14625.220341444134 9390.772312875013
    vertex -9977.250000000022 14625.220341444134 9390.772312875011
  endloop
endfacet
facet normal -1.384164365646406e-13 -0.9238795325112926 -0.3826834323650754
  outer loop
    vertex -9976.750000000022 14625.220341444134 9390.772312875013
    vertex -9977.250000000022 14625.520042711647 9390.048770010319
    vertex -9976.750000000022 14625.520042711647 9390.048770010319
  endloop
endfacet
facet normal -1.170885688414888e-13 -0.7933533402912645 -0.6087614290086824
  outer loop
    vertex -9976.750000000022 14625.220341444134 9390.772312875013
    vertex -9977.250000000022 14624.74358557634 9391.393633218571
    vertex -9977.250000000022 14625.220341444134 9390.772312875011
  endloop
endfacet
facet normal -1.170885688414888e-13 -0.7933533402912645 -0.6087614290086824
  outer loop
    vertex -9977.250000000022 14624.74358557634 9391.393633218571
    vertex -9976.750000000022 14625.220341444134 9390.772312875013
    vertex -9976.750000000022 14624.74358557634 9391.393633218571
  endloop
endfacet
facet normal -8.778130864978961e-14 -0.6087614290087162 -0.7933533402912385
  outer loop
    vertex -9976.750000000022 14624.74358557634 9391.393633218571
    vertex -9977.250000000022 14624.122265232782 9391.870389086364
    vertex -9977.250000000022 14624.74358557634 9391.393633218571
  endloop
endfacet
facet normal -8.778130864978961e-14 -0.6087614290087162 -0.7933533402912385
  outer loop
    vertex -9977.250000000022 14624.122265232782 9391.870389086364
    vertex -9976.750000000022 14624.74358557634 9391.393633218571
    vertex -9976.750000000022 14624.122265232782 9391.870389086365
  endloop
endfacet
facet normal -5.2491897339096244e-14 -0.38268343236516345 -0.9238795325112563
  outer loop
    vertex -9976.750000000022 14624.122265232782 9391.870389086365
    vertex -9977.250000000022 14623.398722368089 9392.170090353879
    vertex -9977.250000000022 14624.122265232782 9391.870389086364
  endloop
endfacet
facet normal -5.2491897339096244e-14 -0.38268343236516345 -0.9238795325112563
  outer loop
    vertex -9977.250000000022 14623.398722368089 9392.170090353879
    vertex -9976.750000000022 14624.122265232782 9391.870389086365
    vertex -9976.750000000022 14623.398722368089 9392.170090353879
  endloop
endfacet
facet normal -1.362524997167364e-14 -0.13052619221999337 -0.991444861373818
  outer loop
    vertex -9976.750000000022 14623.398722368089 9392.170090353879
    vertex -9977.250000000022 14622.622265232782 9392.272312875011
    vertex -9977.250000000022 14623.398722368089 9392.170090353879
  endloop
endfacet
facet normal -1.362524997167364e-14 -0.13052619221999337 -0.991444861373818
  outer loop
    vertex -9977.250000000022 14622.622265232782 9392.272312875011
    vertex -9976.750000000022 14623.398722368089 9392.170090353879
    vertex -9976.750000000022 14622.622265232782 9392.272312875011
  endloop
endfacet
facet normal -6.32646664557211e-15 2.153832667772803e-14 1.0
  outer loop
    vertex -9977.250000000022 14622.622265232782 9392.272312875011
    vertex -9976.75000000002 14638.622265232782 9392.272312875011
    vertex -9977.25000000002 14638.622265232782 9392.272312875011
  endloop
endfacet
facet normal -6.32646664557211e-15 2.153832667772803e-14 1.0
  outer loop
    vertex -9976.75000000002 14638.622265232782 9392.272312875011
    vertex -9977.250000000022 14622.622265232782 9392.272312875011
    vertex -9976.750000000022 14622.622265232782 9392.272312875011
  endloop
endfacet
facet normal 1.0 -1.5450882377627743e-13 -4.122503649566357e-15
  outer loop
    vertex -9967.35000000002 14638.622265232767 9378.272312875031
    vertex -9967.350000000026 14605.62226523278 9381.272312875013
    vertex -9967.350000000026 14602.62226523278 9378.272312875013
  endloop
endfacet
facet normal 1.0 -1.5450882377627743e-13 -4.122503649566357e-15
  outer loop
    vertex -9967.350000000026 14605.62226523278 9381.272312875013
    vertex -9967.35000000002 14638.622265232767 9378.272312875031
    vertex -9967.35000000002 14638.622265232782 9400.472312875012
  endloop
endfacet
facet normal 1.0 -1.5450882377627743e-13 -4.122503649566357e-15
  outer loop
    vertex -9967.350000000026 14605.62226523278 9381.272312875013
    vertex -9967.350000000026 14607.12226523278 9400.472312875012
    vertex -9967.350000000026 14605.62226523278 9398.972312875012
  endloop
endfacet
facet normal 1.0 -1.5450882377627743e-13 -4.122503649566357e-15
  outer loop
    vertex -9967.350000000026 14607.12226523278 9400.472312875012
    vertex -9967.350000000026 14605.62226523278 9381.272312875013
    vertex -9967.35000000002 14638.622265232782 9400.472312875012
  endloop
endfacet
facet normal -1.0 1.6701908647411182e-13 -2.042629905830997e-14
  outer loop
    vertex -9948.35000000002 14635.622265232776 9375.27231287502
    vertex -9948.35000000003 14585.622265232776 9372.072312875012
    vertex -9948.35000000003 14585.622265232776 9375.272312875013
  endloop
endfacet
facet normal -1.0 1.6701908647411182e-13 -2.042629905830997e-14
  outer loop
    vertex -9948.35000000003 14585.622265232776 9372.072312875012
    vertex -9948.35000000002 14635.622265232776 9375.27231287502
    vertex -9948.35000000002 14635.622265232776 9372.072312875018
  endloop
endfacet
facet normal 1.8959916487410712e-14 1.2850831510036184e-13 -1.0
  outer loop
    vertex -9970.350000000019 14635.622265232778 9375.272312875019
    vertex -9948.35000000003 14585.622265232776 9375.272312875013
    vertex -9970.350000000028 14585.622265232778 9375.272312875013
  endloop
endfacet
facet normal 1.8959916487410712e-14 1.2850831510036184e-13 -1.0
  outer loop
    vertex -9948.35000000003 14585.622265232776 9375.272312875013
    vertex -9970.350000000019 14635.622265232778 9375.272312875019
    vertex -9948.35000000002 14635.622265232776 9375.27231287502
  endloop
endfacet
facet normal 8.748761432700744e-13 1.193489751472043e-14 -1.0
  outer loop
    vertex -9953.350000000015 14638.622265232772 9369.072312875038
    vertex -9949.35000000003 14585.622265232778 9369.07231287504
    vertex -9953.350000000028 14585.622265232778 9369.072312875038
  endloop
endfacet
facet normal 8.748761432700744e-13 1.193489751472043e-14 -1.0
  outer loop
    vertex -9949.35000000003 14585.622265232778 9369.07231287504
    vertex -9953.350000000015 14638.622265232772 9369.072312875038
    vertex -9949.350000000011 14638.622265232769 9369.072312875041
  endloop
endfacet
facet normal 1.0 2.0978071453514294e-15 5.477600312941149e-13
  outer loop
    vertex -9994.550000000028 14585.622265232783 9367.072312875012
    vertex -9994.55000000003 14638.622265232783 9369.072312875014
    vertex -9994.55000000003 14585.622265232783 9369.072312875014
  endloop
endfacet
facet normal 1.0 2.0978071453514294e-15 5.477600312941149e-13
  outer loop
    vertex -9994.55000000003 14638.622265232783 9369.072312875014
    vertex -9994.550000000028 14585.622265232783 9367.072312875012
    vertex -9994.550000000028 14638.622265232783 9367.072312875012
  endloop
endfacet
facet normal -6.135272893557446e-14 -4.163336342344336e-15 -1.0
  outer loop
    vertex -9994.550000000028 14638.622265232783 9367.072312875012
    vertex -9998.550000000028 14585.622265232783 9367.072312875012
    vertex -9998.550000000028 14638.622265232783 9367.072312875012
  endloop
endfacet
facet normal -6.135272893557446e-14 -4.163336342344336e-15 -1.0
  outer loop
    vertex -9998.550000000028 14585.622265232783 9367.072312875012
    vertex -9994.550000000028 14638.622265232783 9367.072312875012
    vertex -9994.550000000028 14585.622265232783 9367.072312875012
  endloop
endfacet
facet normal 1.0 -1.3225784307020044e-14 3.2216271269052696e-13
  outer loop
    vertex -9986.550000000028 14585.622265232783 9367.072312875014
    vertex -9986.550000000028 14638.622265232783 9369.072312875021
    vertex -9986.55000000003 14585.622265232783 9369.072312875018
  endloop
endfacet
facet normal 1.0 -1.3225784307020044e-14 3.2216271269052696e-13
  outer loop
    vertex -9986.550000000028 14638.622265232783 9369.072312875021
    vertex -9986.550000000028 14585.622265232783 9367.072312875014
    vertex -9986.550000000028 14638.622265232783 9367.072312875018
  endloop
endfacet
facet normal -1.0 1.3225784307023881e-14 -3.6728217641168547e-13
  outer loop
    vertex -9990.55000000003 14638.622265232783 9369.07231287502
    vertex -9990.55000000003 14585.622265232783 9367.072312875014
    vertex -9990.55000000003 14585.622265232783 9369.072312875014
  endloop
endfacet
facet normal -1.0 1.3225784307023881e-14 -3.6728217641168547e-13
  outer loop
    vertex -9990.55000000003 14585.622265232783 9367.072312875014
    vertex -9990.55000000003 14638.622265232783 9369.07231287502
    vertex -9990.55000000003 14638.622265232783 9367.07231287502
  endloop
endfacet
facet normal -6.135272893556774e-14 8.609779555968086e-14 -1.0
  outer loop
    vertex -9986.550000000028 14638.622265232783 9367.072312875018
    vertex -9990.55000000003 14585.622265232783 9367.072312875014
    vertex -9990.55000000003 14638.622265232783 9367.07231287502
  endloop
endfacet
facet normal -6.135272893556774e-14 8.609779555968086e-14 -1.0
  outer loop
    vertex -9990.55000000003 14585.622265232783 9367.072312875014
    vertex -9986.550000000028 14638.622265232783 9367.072312875018
    vertex -9986.550000000028 14585.622265232783 9367.072312875014
  endloop
endfacet
facet normal 5.364801653645797e-13 4.096722960866827e-14 -1.0
  outer loop
    vertex -9990.55000000003 14638.622265232783 9369.07231287502
    vertex -9994.55000000003 14585.622265232783 9369.072312875014
    vertex -9994.55000000003 14638.622265232783 9369.072312875014
  endloop
endfacet
facet normal 5.364801653645797e-13 4.096722960866827e-14 -1.0
  outer loop
    vertex -9994.55000000003 14585.622265232783 9369.072312875014
    vertex -9990.55000000003 14638.622265232783 9369.07231287502
    vertex -9990.55000000003 14585.622265232783 9369.072312875014
  endloop
endfacet
facet normal -6.135272893557446e-14 -4.163336342344336e-15 -1.0
  outer loop
    vertex -9978.550000000025 14638.622265232783 9367.072312875014
    vertex -9982.55000000003 14585.622265232783 9367.072312875014
    vertex -9982.550000000025 14638.622265232783 9367.072312875014
  endloop
endfacet
facet normal -6.135272893557446e-14 -4.163336342344336e-15 -1.0
  outer loop
    vertex -9982.55000000003 14585.622265232783 9367.072312875014
    vertex -9978.550000000025 14638.622265232783 9367.072312875014
    vertex -9978.550000000028 14585.622265232783 9367.072312875014
  endloop
endfacet
facet normal 1.0 -7.452015011633341e-14 2.88861985058763e-14
  outer loop
    vertex -9978.550000000028 14585.622265232783 9367.072312875014
    vertex -9978.550000000025 14638.622265232783 9369.07231287502
    vertex -9978.550000000028 14585.622265232783 9369.07231287502
  endloop
endfacet
facet normal 1.0 -7.452015011633341e-14 2.88861985058763e-14
  outer loop
    vertex -9978.550000000025 14638.622265232783 9369.07231287502
    vertex -9978.550000000028 14585.622265232783 9367.072312875014
    vertex -9978.550000000025 14638.622265232783 9367.072312875014
  endloop
endfacet
facet normal -1.0 7.452015011633216e-14 -3.2216271269015694e-13
  outer loop
    vertex -9982.550000000025 14638.622265232783 9369.07231287502
    vertex -9982.55000000003 14585.622265232783 9367.072312875014
    vertex -9982.55000000003 14585.622265232783 9369.07231287502
  endloop
endfacet
facet normal -1.0 7.452015011633216e-14 -3.2216271269015694e-13
  outer loop
    vertex -9982.55000000003 14585.622265232783 9367.072312875014
    vertex -9982.550000000025 14638.622265232783 9369.07231287502
    vertex -9982.550000000025 14638.622265232783 9367.072312875014
  endloop
endfacet
facet normal -7.263259486596928e-14 4.096722960866827e-14 -1.0
  outer loop
    vertex -9982.550000000025 14638.622265232783 9369.07231287502
    vertex -9986.55000000003 14585.622265232783 9369.072312875018
    vertex -9986.550000000028 14638.622265232783 9369.072312875021
  endloop
endfacet
facet normal -7.263259486596928e-14 4.096722960866827e-14 -1.0
  outer loop
    vertex -9986.55000000003 14585.622265232783 9369.072312875018
    vertex -9982.550000000025 14638.622265232783 9369.07231287502
    vertex -9982.55000000003 14585.622265232783 9369.07231287502
  endloop
endfacet
facet normal -8.171151134615114e-14 8.609779555968086e-14 -1.0
  outer loop
    vertex -9969.350000000028 14638.622265232783 9367.072312875018
    vertex -9974.55000000003 14585.622265232782 9367.072312875014
    vertex -9974.550000000028 14638.622265232783 9367.072312875018
  endloop
endfacet
facet normal -8.171151134615114e-14 8.609779555968086e-14 -1.0
  outer loop
    vertex -9974.55000000003 14585.622265232782 9367.072312875014
    vertex -9969.350000000028 14638.622265232783 9367.072312875018
    vertex -9969.350000000028 14585.622265232783 9367.072312875014
  endloop
endfacet
facet normal 1.0 -1.5779716215716966e-14 6.326466645575191e-15
  outer loop
    vertex -9969.350000000028 14585.622265232783 9367.072312875014
    vertex -9969.350000000028 14638.622265232783 9369.072312875032
    vertex -9969.350000000028 14585.622265232782 9369.072312875027
  endloop
endfacet
facet normal 1.0 -1.5779716215716966e-14 6.326466645575191e-15
  outer loop
    vertex -9969.350000000028 14638.622265232783 9369.072312875032
    vertex -9969.350000000028 14585.622265232783 9367.072312875014
    vertex -9969.350000000028 14638.622265232783 9367.072312875018
  endloop
endfacet
facet normal -1.0 1.577971621571737e-14 -6.32646664557533e-15
  outer loop
    vertex -9974.550000000028 14638.622265232783 9369.072312875027
    vertex -9974.55000000003 14585.622265232782 9367.072312875014
    vertex -9974.55000000003 14585.622265232782 9369.072312875023
  endloop
endfacet
facet normal -1.0 1.577971621571737e-14 -6.32646664557533e-15
  outer loop
    vertex -9974.55000000003 14585.622265232782 9367.072312875014
    vertex -9974.550000000028 14638.622265232783 9369.072312875027
    vertex -9974.550000000028 14638.622265232783 9367.072312875018
  endloop
endfacet
facet normal 1.1455929255951207e-12 4.096722960866827e-14 -1.0
  outer loop
    vertex -9974.550000000028 14638.622265232783 9369.072312875027
    vertex -9978.550000000028 14585.622265232783 9369.07231287502
    vertex -9978.550000000025 14638.622265232783 9369.07231287502
  endloop
endfacet
facet normal 1.1455929255951207e-12 4.096722960866827e-14 -1.0
  outer loop
    vertex -9978.550000000028 14585.622265232783 9369.07231287502
    vertex -9974.550000000028 14638.622265232783 9369.072312875027
    vertex -9974.55000000003 14585.622265232782 9369.072312875023
  endloop
endfacet
facet normal 1.0 -2.098785412786369e-13 6.3264666455821204e-15
  outer loop
    vertex -9965.350000000028 14585.622265232782 9367.072312875012
    vertex -9965.350000000019 14638.622265232778 9369.072312875025
    vertex -9965.350000000028 14585.622265232782 9369.072312875029
  endloop
endfacet
facet normal 1.0 -2.098785412786369e-13 6.3264666455821204e-15
  outer loop
    vertex -9965.350000000019 14638.622265232778 9369.072312875025
    vertex -9965.350000000028 14585.622265232782 9367.072312875012
    vertex -9965.350000000019 14638.622265232778 9367.072312875007
  endloop
endfacet
facet normal -5.144593036632267e-14 9.436895709313828e-14 1.0
  outer loop
    vertex -9961.35000000003 14585.622265232782 9367.07231287501
    vertex -9965.350000000019 14638.622265232778 9367.072312875007
    vertex -9965.350000000028 14585.622265232782 9367.072312875012
  endloop
endfacet
facet normal -5.144593036632267e-14 9.436895709313828e-14 1.0
  outer loop
    vertex -9965.350000000019 14638.622265232778 9367.072312875007
    vertex -9961.35000000003 14585.622265232782 9367.07231287501
    vertex -9961.350000000017 14638.622265232774 9367.072312875007
  endloop
endfacet
facet normal -1.0 2.0987854127858368e-13 -5.703197631497384e-13
  outer loop
    vertex -9961.350000000019 14638.622265232774 9369.072312875027
    vertex -9961.35000000003 14585.622265232782 9367.07231287501
    vertex -9961.35000000003 14585.622265232782 9369.07231287503
  endloop
endfacet
facet normal -1.0 2.0987854127858368e-13 -5.703197631497384e-13
  outer loop
    vertex -9961.35000000003 14585.622265232782 9367.07231287501
    vertex -9961.350000000019 14638.622265232774 9369.072312875027
    vertex -9961.350000000017 14638.622265232774 9367.072312875007
  endloop
endfacet
facet normal -5.802265617251716e-13 -4.163336342344336e-15 -1.0
  outer loop
    vertex -9965.350000000019 14638.622265232778 9369.072312875025
    vertex -9969.350000000028 14585.622265232782 9369.072312875027
    vertex -9969.350000000028 14638.622265232783 9369.072312875032
  endloop
endfacet
facet normal -5.802265617251716e-13 -4.163336342344336e-15 -1.0
  outer loop
    vertex -9969.350000000028 14585.622265232782 9369.072312875027
    vertex -9965.350000000019 14638.622265232778 9369.072312875025
    vertex -9965.350000000028 14585.622265232782 9369.072312875029
  endloop
endfacet
facet normal 1.0 -2.5499800499941054e-13 6.326466645576226e-15
  outer loop
    vertex -9957.350000000028 14585.622265232782 9367.072312875014
    vertex -9957.350000000015 14638.622265232774 9369.072312875034
    vertex -9957.350000000028 14585.622265232782 9369.072312875034
  endloop
endfacet
facet normal 1.0 -2.5499800499941054e-13 6.326466645576226e-15
  outer loop
    vertex -9957.350000000015 14638.622265232774 9369.072312875034
    vertex -9957.350000000028 14585.622265232782 9367.072312875014
    vertex -9957.350000000015 14638.622265232774 9367.072312875014
  endloop
endfacet
facet normal -7.400566222672481e-14 4.163336342344336e-15 1.0
  outer loop
    vertex -9953.350000000028 14585.622265232778 9367.072312875014
    vertex -9957.350000000015 14638.622265232774 9367.072312875014
    vertex -9957.350000000028 14585.622265232782 9367.072312875014
  endloop
endfacet
facet normal -7.400566222672481e-14 4.163336342344336e-15 1.0
  outer loop
    vertex -9957.350000000015 14638.622265232774 9367.072312875014
    vertex -9953.350000000028 14585.622265232778 9367.072312875014
    vertex -9953.350000000015 14638.622265232772 9367.072312875014
  endloop
endfacet
facet normal -1.0 2.5499800499941054e-13 -6.326466645576226e-15
  outer loop
    vertex -9953.350000000015 14638.622265232772 9369.072312875038
    vertex -9953.350000000028 14585.622265232778 9367.072312875014
    vertex -9953.350000000028 14585.622265232778 9369.072312875038
  endloop
endfacet
facet normal -1.0 2.5499800499941054e-13 -6.326466645576226e-15
  outer loop
    vertex -9953.350000000028 14585.622265232778 9367.072312875014
    vertex -9953.350000000015 14638.622265232772 9369.072312875038
    vertex -9953.350000000015 14638.622265232772 9367.072312875014
  endloop
endfacet
facet normal 1.2358318530359052e-12 -4.929390229335694e-14 -1.0
  outer loop
    vertex -9961.350000000019 14638.622265232774 9369.072312875027
    vertex -9957.350000000028 14585.622265232782 9369.072312875034
    vertex -9961.35000000003 14585.622265232782 9369.07231287503
  endloop
endfacet
facet normal 1.2358318530359052e-12 -4.929390229335694e-14 -1.0
  outer loop
    vertex -9957.350000000028 14585.622265232782 9369.072312875034
    vertex -9961.350000000019 14638.622265232774 9369.072312875027
    vertex -9957.350000000015 14638.622265232774 9369.072312875034
  endloop
endfacet
facet normal 1.0 -3.1629237080877137e-13 6.326466645576365e-15
  outer loop
    vertex -9949.35000000003 14585.622265232778 9367.072312875014
    vertex -9949.350000000011 14638.622265232769 9369.072312875041
    vertex -9949.35000000003 14585.622265232778 9369.07231287504
  endloop
endfacet
facet normal 1.0 -3.1629237080877137e-13 6.326466645576365e-15
  outer loop
    vertex -9949.350000000011 14638.622265232769 9369.072312875041
    vertex -9949.35000000003 14585.622265232778 9367.072312875014
    vertex -9949.350000000011 14638.622265232769 9367.072312875014
  endloop
endfacet
facet normal -9.656539408712162e-14 -4.096722960866827e-14 1.0
  outer loop
    vertex -9945.350000000028 14585.622265232776 9367.072312875014
    vertex -9949.350000000011 14638.622265232769 9367.072312875014
    vertex -9949.35000000003 14585.622265232778 9367.072312875014
  endloop
endfacet
facet normal -9.656539408712162e-14 -4.096722960866827e-14 1.0
  outer loop
    vertex -9949.350000000011 14638.622265232769 9367.072312875014
    vertex -9945.350000000028 14585.622265232776 9367.072312875014
    vertex -9945.350000000011 14638.622265232767 9367.072312875016
  endloop
endfacet
facet normal -1.0 3.660914601119927e-14 -1.686840142536942e-14
  outer loop
    vertex -9945.350000000026 14588.622265232774 9378.272312875013
    vertex -9945.350000000028 14585.622265232776 9367.072312875014
    vertex -9945.350000000028 14585.622265232776 9375.272312875013
  endloop
endfacet
facet normal -1.0 3.660914601119927e-14 -1.686840142536942e-14
  outer loop
    vertex -9945.350000000028 14585.622265232776 9367.072312875014
    vertex -9945.350000000026 14588.622265232774 9378.272312875013
    vertex -9945.350000000024 14638.622265232749 9378.272312875031
  endloop
endfacet
facet normal -1.0 3.660914601119927e-14 -1.686840142536942e-14
  outer loop
    vertex -9945.350000000028 14585.622265232776 9367.072312875014
    vertex -9945.350000000024 14638.622265232749 9378.272312875031
    vertex -9945.350000000011 14638.622265232767 9367.072312875016
  endloop
endfacet
facet normal -5.149813690406278e-15 -9.436895709313829e-16 1.0
  outer loop
    vertex -9998.550000000028 14588.622265232787 9378.272312875013
    vertex -9976.75000000002 14638.622265232782 9378.272312875011
    vertex -9998.550000000021 14638.622265232783 9378.272312875011
  endloop
endfacet
facet normal -5.149813690406278e-15 -9.436895709313829e-16 1.0
  outer loop
    vertex -9976.75000000002 14638.622265232782 9378.272312875011
    vertex -9998.550000000028 14588.622265232787 9378.272312875013
    vertex -9976.750000000025 14602.62226523278 9378.272312875013
  endloop
endfacet
facet normal -5.149813690406278e-15 -9.436895709313829e-16 1.0
  outer loop
    vertex -9976.750000000025 14602.62226523278 9378.272312875013
    vertex -9998.550000000028 14588.622265232787 9378.272312875013
    vertex -9973.750000000027 14588.62226523278 9378.27231287501
  endloop
endfacet
facet normal -5.149813690406278e-15 -9.436895709313829e-16 1.0
  outer loop
    vertex -9976.750000000025 14602.62226523278 9378.272312875013
    vertex -9973.750000000027 14588.62226523278 9378.27231287501
    vertex -9973.750000000025 14602.62226523278 9378.272312875013
  endloop
endfacet
facet normal -1.3568792062432761e-13 -1.0 -2.106093077713922e-13
  outer loop
    vertex -9986.55000000003 14585.622265232783 9369.072312875018
    vertex -9990.55000000003 14585.622265232783 9367.072312875014
    vertex -9986.550000000028 14585.622265232783 9367.072312875014
  endloop
endfacet
facet normal -1.3568792062432761e-13 -1.0 -2.106093077713922e-13
  outer loop
    vertex -9990.55000000003 14585.622265232783 9367.072312875014
    vertex -9986.55000000003 14585.622265232783 9369.072312875018
    vertex -9990.55000000003 14585.622265232783 9369.072312875014
  endloop
endfacet
facet normal -1.3568792062432761e-13 -1.0 -2.106093077713922e-13
  outer loop
    vertex -9978.550000000028 14585.622265232783 9369.07231287502
    vertex -9982.55000000003 14585.622265232783 9367.072312875014
    vertex -9978.550000000028 14585.622265232783 9367.072312875014
  endloop
endfacet
facet normal -1.3568792062432761e-13 -1.0 -2.106093077713922e-13
  outer loop
    vertex -9982.55000000003 14585.622265232783 9367.072312875014
    vertex -9978.550000000028 14585.622265232783 9369.07231287502
    vertex -9982.55000000003 14585.622265232783 9369.07231287502
  endloop
endfacet
facet normal -1.3568792062432761e-13 -1.0 -2.106093077713922e-13
  outer loop
    vertex -9969.350000000028 14585.622265232783 9367.072312875014
    vertex -9974.55000000003 14585.622265232782 9369.072312875023
    vertex -9974.55000000003 14585.622265232782 9367.072312875014
  endloop
endfacet
facet normal -1.3568792062432761e-13 -1.0 -2.106093077713922e-13
  outer loop
    vertex -9974.55000000003 14585.622265232782 9369.072312875023
    vertex -9969.350000000028 14585.622265232783 9367.072312875014
    vertex -9969.350000000028 14585.622265232782 9369.072312875027
  endloop
endfacet
facet normal -1.3568792062432761e-13 -1.0 -2.106093077713922e-13
  outer loop
    vertex -9961.35000000003 14585.622265232782 9369.07231287503
    vertex -9965.350000000028 14585.622265232782 9367.072312875012
    vertex -9961.35000000003 14585.622265232782 9367.07231287501
  endloop
endfacet
facet normal -1.3568792062432761e-13 -1.0 -2.106093077713922e-13
  outer loop
    vertex -9965.350000000028 14585.622265232782 9367.072312875012
    vertex -9961.35000000003 14585.622265232782 9369.07231287503
    vertex -9965.350000000028 14585.622265232782 9369.072312875029
  endloop
endfacet
facet normal -1.3568792062432761e-13 -1.0 -2.106093077713922e-13
  outer loop
    vertex -9953.350000000028 14585.622265232778 9369.072312875038
    vertex -9957.350000000028 14585.622265232782 9367.072312875014
    vertex -9953.350000000028 14585.622265232778 9367.072312875014
  endloop
endfacet
facet normal -1.3568792062432761e-13 -1.0 -2.106093077713922e-13
  outer loop
    vertex -9957.350000000028 14585.622265232782 9367.072312875014
    vertex -9953.350000000028 14585.622265232778 9369.072312875038
    vertex -9957.350000000028 14585.622265232782 9369.072312875034
  endloop
endfacet
facet normal -1.3568792062432761e-13 -1.0 -2.106093077713922e-13
  outer loop
    vertex -9945.350000000028 14585.622265232776 9375.272312875013
    vertex -9949.35000000003 14585.622265232778 9367.072312875014
    vertex -9945.350000000028 14585.622265232776 9367.072312875014
  endloop
endfacet
facet normal -1.3568792062432761e-13 -1.0 -2.106093077713922e-13
  outer loop
    vertex -9949.35000000003 14585.622265232778 9367.072312875014
    vertex -9945.350000000028 14585.622265232776 9375.272312875013
    vertex -9949.35000000003 14585.622265232778 9369.07231287504
  endloop
endfacet
facet normal -1.3568792062432761e-13 -1.0 -2.106093077713922e-13
  outer loop
    vertex -9949.35000000003 14585.622265232778 9369.07231287504
    vertex -9945.350000000028 14585.622265232776 9375.272312875013
    vertex -9948.35000000003 14585.622265232776 9372.072312875012
  endloop
endfacet
facet normal -1.3568792062432761e-13 -1.0 -2.106093077713922e-13
  outer loop
    vertex -9948.35000000003 14585.622265232776 9372.072312875012
    vertex -9945.350000000028 14585.622265232776 9375.272312875013
    vertex -9948.35000000003 14585.622265232776 9375.272312875013
  endloop
endfacet
facet normal -1.3568792062432761e-13 -1.0 -2.106093077713922e-13
  outer loop
    vertex -9994.55000000003 14585.622265232783 9369.072312875014
    vertex -9998.550000000028 14585.622265232783 9367.072312875012
    vertex -9994.550000000028 14585.622265232783 9367.072312875012
  endloop
endfacet
facet normal -1.3568792062432761e-13 -1.0 -2.106093077713922e-13
  outer loop
    vertex -9998.550000000028 14585.622265232783 9367.072312875012
    vertex -9994.55000000003 14585.622265232783 9369.072312875014
    vertex -9998.550000000028 14585.622265232783 9375.472312875012
  endloop
endfacet
facet normal -1.3568792062432761e-13 -1.0 -2.106093077713922e-13
  outer loop
    vertex -9998.550000000028 14585.622265232783 9375.472312875012
    vertex -9994.55000000003 14585.622265232783 9369.072312875014
    vertex -9995.750000000027 14585.622265232783 9372.07231287501
  endloop
endfacet
facet normal -1.3568792062432761e-13 -1.0 -2.106093077713922e-13
  outer loop
    vertex -9995.750000000027 14585.622265232783 9372.07231287501
    vertex -9994.55000000003 14585.622265232783 9369.072312875014
    vertex -9990.55000000003 14585.622265232783 9369.072312875014
  endloop
endfacet
facet normal -1.3568792062432761e-13 -1.0 -2.106093077713922e-13
  outer loop
    vertex -9995.750000000027 14585.622265232783 9372.07231287501
    vertex -9990.55000000003 14585.622265232783 9369.072312875014
    vertex -9986.55000000003 14585.622265232783 9369.072312875018
  endloop
endfacet
facet normal -1.3568792062432761e-13 -1.0 -2.106093077713922e-13
  outer loop
    vertex -9995.750000000027 14585.622265232783 9372.07231287501
    vertex -9986.55000000003 14585.622265232783 9369.072312875018
    vertex -9982.55000000003 14585.622265232783 9369.07231287502
  endloop
endfacet
facet normal -1.3568792062432761e-13 -1.0 -2.106093077713922e-13
  outer loop
    vertex -9995.750000000027 14585.622265232783 9372.07231287501
    vertex -9982.55000000003 14585.622265232783 9369.07231287502
    vertex -9978.550000000028 14585.622265232783 9369.07231287502
  endloop
endfacet
facet normal -1.3568792062432761e-13 -1.0 -2.106093077713922e-13
  outer loop
    vertex -9995.750000000027 14585.622265232783 9372.07231287501
    vertex -9978.550000000028 14585.622265232783 9369.07231287502
    vertex -9974.55000000003 14585.622265232782 9369.072312875023
  endloop
endfacet
facet normal -1.3568792062432761e-13 -1.0 -2.106093077713922e-13
  outer loop
    vertex -9995.750000000027 14585.622265232783 9372.07231287501
    vertex -9974.55000000003 14585.622265232782 9369.072312875023
    vertex -9969.350000000028 14585.622265232782 9369.072312875027
  endloop
endfacet
facet normal -1.3568792062432761e-13 -1.0 -2.106093077713922e-13
  outer loop
    vertex -9995.750000000027 14585.622265232783 9372.07231287501
    vertex -9969.350000000028 14585.622265232782 9369.072312875027
    vertex -9965.350000000028 14585.622265232782 9369.072312875029
  endloop
endfacet
facet normal -1.3568792062432761e-13 -1.0 -2.106093077713922e-13
  outer loop
    vertex -9995.750000000027 14585.622265232783 9372.07231287501
    vertex -9965.350000000028 14585.622265232782 9369.072312875029
    vertex -9961.35000000003 14585.622265232782 9369.07231287503
  endloop
endfacet
facet normal -1.3568792062432761e-13 -1.0 -2.106093077713922e-13
  outer loop
    vertex -9995.750000000027 14585.622265232783 9372.07231287501
    vertex -9961.35000000003 14585.622265232782 9369.07231287503
    vertex -9957.350000000028 14585.622265232782 9369.072312875034
  endloop
endfacet
facet normal -1.3568792062432761e-13 -1.0 -2.106093077713922e-13
  outer loop
    vertex -9995.750000000027 14585.622265232783 9372.07231287501
    vertex -9957.350000000028 14585.622265232782 9369.072312875034
    vertex -9953.350000000028 14585.622265232778 9369.072312875038
  endloop
endfacet
facet normal -1.3568792062432761e-13 -1.0 -2.106093077713922e-13
  outer loop
    vertex -9995.750000000027 14585.622265232783 9372.07231287501
    vertex -9953.350000000028 14585.622265232778 9369.072312875038
    vertex -9949.35000000003 14585.622265232778 9369.07231287504
  endloop
endfacet
facet normal -1.3568792062432761e-13 -1.0 -2.106093077713922e-13
  outer loop
    vertex -9995.750000000027 14585.622265232783 9372.07231287501
    vertex -9949.35000000003 14585.622265232778 9369.07231287504
    vertex -9948.35000000003 14585.622265232776 9372.072312875012
  endloop
endfacet
facet normal -1.3568792062432761e-13 -1.0 -2.106093077713922e-13
  outer loop
    vertex -9998.550000000028 14585.622265232783 9375.472312875012
    vertex -9995.750000000027 14585.622265232783 9372.07231287501
    vertex -9995.750000000027 14585.622265232783 9375.472312875012
  endloop
endfacet
facet normal -1.0 7.72228129482228e-14 4.484616350851488e-13
  outer loop
    vertex -9998.550000000028 14588.622265232787 9378.272312875013
    vertex -9998.550000000028 14585.622265232783 9367.072312875012
    vertex -9998.550000000028 14585.622265232783 9375.472312875012
  endloop
endfacet
facet normal -1.0 7.72228129482228e-14 4.484616350851488e-13
  outer loop
    vertex -9998.550000000028 14585.622265232783 9367.072312875012
    vertex -9998.550000000028 14588.622265232787 9378.272312875013
    vertex -9998.550000000021 14638.622265232783 9378.272312875011
  endloop
endfacet
facet normal -1.0 7.72228129482228e-14 4.484616350851488e-13
  outer loop
    vertex -9998.550000000028 14585.622265232783 9367.072312875012
    vertex -9998.550000000021 14638.622265232783 9378.272312875011
    vertex -9998.550000000028 14638.622265232783 9367.072312875012
  endloop
endfacet
facet normal -5.263951572705307e-14 -0.7071067811870497 0.7071067811860455
  outer loop
    vertex -9945.350000000026 14588.622265232774 9378.272312875013
    vertex -9948.35000000003 14585.622265232776 9375.272312875013
    vertex -9945.350000000028 14585.622265232776 9375.272312875013
  endloop
endfacet
facet normal -5.263951572705307e-14 -0.7071067811870497 0.7071067811860455
  outer loop
    vertex -9948.35000000003 14585.622265232776 9375.272312875013
    vertex -9970.350000000026 14588.622265232778 9378.272312875015
    vertex -9970.350000000028 14585.622265232778 9375.272312875013
  endloop
endfacet
facet normal -5.263951572705307e-14 -0.7071067811870497 0.7071067811860455
  outer loop
    vertex -9970.350000000026 14588.622265232778 9378.272312875015
    vertex -9948.35000000003 14585.622265232776 9375.272312875013
    vertex -9945.350000000026 14588.622265232774 9378.272312875013
  endloop
endfacet
facet normal -9.490759148551803e-14 -0.6823182503599007 0.731055268242972
  outer loop
    vertex -9973.750000000027 14588.62226523278 9378.27231287501
    vertex -9995.750000000027 14585.622265232783 9375.472312875012
    vertex -9973.75000000003 14585.622265232782 9375.472312875012
  endloop
endfacet
facet normal -9.490759148551803e-14 -0.6823182503599007 0.731055268242972
  outer loop
    vertex -9995.750000000027 14585.622265232783 9375.472312875012
    vertex -9973.750000000027 14588.62226523278 9378.27231287501
    vertex -9998.550000000028 14585.622265232783 9375.472312875012
  endloop
endfacet
facet normal -9.490759148551803e-14 -0.6823182503599007 0.731055268242972
  outer loop
    vertex -9998.550000000028 14585.622265232783 9375.472312875012
    vertex -9973.750000000027 14588.62226523278 9378.27231287501
    vertex -9998.550000000028 14588.622265232787 9378.272312875013
  endloop
endfacet
endsolid Main
