solid Main
facet normal 2.1020820479786562e-13 -5.029613375510604e-13 -1.0
  outer loop
    vertex -9955.506822131103 14402.706545089972 9512.272312875015
    vertex -9955.592867912439 14401.25971483311 9512.272312875017
    vertex -9955.64508443022 14401.988794032548 9512.272312875017
  endloop
endfacet
facet normal 2.1020820479786562e-13 -5.029613375510604e-13 -1.0
  outer loop
    vertex -9955.592867912439 14401.25971483311 9512.272312875017
    vertex -9955.506822131103 14402.706545089972 9512.272312875015
    vertex -9955.35373104715 14400.568993034229 9512.272312875017
  endloop
endfacet
facet normal 2.1020820479786562e-13 -5.029613375510604e-13 -1.0
  outer loop
    vertex -9955.35373104715 14400.568993034229 9512.272312875017
    vertex -9955.506822131103 14402.706545089972 9512.272312875015
    vertex -9955.18750336228 14403.364054456948 9512.272312875015
  endloop
endfacet
facet normal 2.1020820479786562e-13 -5.029613375510604e-13 -1.0
  outer loop
    vertex -9955.35373104715 14400.568993034229 9512.272312875017
    vertex -9955.18750336228 14403.364054456948 9512.272312875015
    vertex -9954.94397061653 14399.963700185035 9512.272312875017
  endloop
endfacet
facet normal 2.1020820479786562e-13 -5.029613375510604e-13 -1.0
  outer loop
    vertex -9954.94397061653 14399.963700185035 9512.272312875017
    vertex -9955.18750336228 14403.364054456948 9512.272312875015
    vertex -9954.70888917015 14403.91651395671 9512.272312875015
  endloop
endfacet
facet normal 2.1020820479786562e-13 -5.029613375510604e-13 -1.0
  outer loop
    vertex -9954.94397061653 14399.963700185035 9512.272312875017
    vertex -9954.70888917015 14403.91651395671 9512.272312875015
    vertex -9954.39151111677 14399.485085992905 9512.272312875017
  endloop
endfacet
facet normal 2.1020820479786562e-13 -5.029613375510604e-13 -1.0
  outer loop
    vertex -9954.39151111677 14399.485085992905 9512.272312875017
    vertex -9954.70888917015 14403.91651395671 9512.272312875015
    vertex -9954.103596320952 14404.326274387327 9512.272312875015
  endloop
endfacet
facet normal 2.1020820479786562e-13 -5.029613375510604e-13 -1.0
  outer loop
    vertex -9954.39151111677 14399.485085992905 9512.272312875017
    vertex -9954.103596320952 14404.326274387327 9512.272312875015
    vertex -9953.734001749792 14399.165767224078 9512.272312875019
  endloop
endfacet
facet normal 2.1020820479786562e-13 -5.029613375510604e-13 -1.0
  outer loop
    vertex -9953.734001749792 14399.165767224078 9512.272312875019
    vertex -9954.103596320952 14404.326274387327 9512.272312875015
    vertex -9953.412874522073 14404.565411252614 9512.272312875015
  endloop
endfacet
facet normal 2.1020820479786562e-13 -5.029613375510604e-13 -1.0
  outer loop
    vertex -9953.734001749792 14399.165767224078 9512.272312875019
    vertex -9953.412874522073 14404.565411252614 9512.272312875015
    vertex -9953.016250692372 14399.027504924961 9512.272312875019
  endloop
endfacet
facet normal 2.1020820479786562e-13 -5.029613375510604e-13 -1.0
  outer loop
    vertex -9953.016250692372 14399.027504924961 9512.272312875019
    vertex -9953.412874522073 14404.565411252614 9512.272312875015
    vertex -9952.683795322633 14404.6176277704 9512.272312875015
  endloop
endfacet
facet normal 2.1020820479786562e-13 -5.029613375510604e-13 -1.0
  outer loop
    vertex -9953.016250692372 14399.027504924961 9512.272312875019
    vertex -9952.683795322633 14404.6176277704 9512.272312875015
    vertex -9952.28717149293 14399.079721442748 9512.272312875019
  endloop
endfacet
facet normal 2.1020820479786562e-13 -5.029613375510604e-13 -1.0
  outer loop
    vertex -9952.28717149293 14399.079721442748 9512.272312875019
    vertex -9952.683795322633 14404.6176277704 9512.272312875015
    vertex -9951.966044265213 14404.479365471283 9512.272312875015
  endloop
endfacet
facet normal 2.1020820479786562e-13 -5.029613375510604e-13 -1.0
  outer loop
    vertex -9952.28717149293 14399.079721442748 9512.272312875019
    vertex -9951.966044265213 14404.479365471283 9512.272312875015
    vertex -9951.59644969405 14399.318858308034 9512.272312875019
  endloop
endfacet
facet normal 2.1020820479786562e-13 -5.029613375510604e-13 -1.0
  outer loop
    vertex -9951.59644969405 14399.318858308034 9512.272312875019
    vertex -9951.966044265213 14404.479365471283 9512.272312875015
    vertex -9951.308534898235 14404.16004670246 9512.272312875015
  endloop
endfacet
facet normal 2.1020820479786562e-13 -5.029613375510604e-13 -1.0
  outer loop
    vertex -9951.59644969405 14399.318858308034 9512.272312875019
    vertex -9951.308534898235 14404.16004670246 9512.272312875015
    vertex -9950.991156844855 14399.728618738653 9512.272312875019
  endloop
endfacet
facet normal 2.1020820479786562e-13 -5.029613375510604e-13 -1.0
  outer loop
    vertex -9950.991156844855 14399.728618738653 9512.272312875019
    vertex -9951.308534898235 14404.16004670246 9512.272312875015
    vertex -9950.756075398473 14403.681432510326 9512.272312875017
  endloop
endfacet
facet normal 2.1020820479786562e-13 -5.029613375510604e-13 -1.0
  outer loop
    vertex -9950.991156844855 14399.728618738653 9512.272312875019
    vertex -9950.756075398473 14403.681432510326 9512.272312875017
    vertex -9950.512542652725 14400.281078238415 9512.272312875019
  endloop
endfacet
facet normal 2.1020820479786562e-13 -5.029613375510604e-13 -1.0
  outer loop
    vertex -9950.512542652725 14400.281078238415 9512.272312875019
    vertex -9950.756075398473 14403.681432510326 9512.272312875017
    vertex -9950.346314967856 14403.076139661134 9512.272312875017
  endloop
endfacet
facet normal 2.1020820479786562e-13 -5.029613375510604e-13 -1.0
  outer loop
    vertex -9950.512542652725 14400.281078238415 9512.272312875019
    vertex -9950.346314967856 14403.076139661134 9512.272312875017
    vertex -9950.193223883902 14400.938587605391 9512.272312875019
  endloop
endfacet
facet normal 2.1020820479786562e-13 -5.029613375510604e-13 -1.0
  outer loop
    vertex -9950.193223883902 14400.938587605391 9512.272312875019
    vertex -9950.346314967856 14403.076139661134 9512.272312875017
    vertex -9950.107178102566 14402.385417862251 9512.272312875017
  endloop
endfacet
facet normal 2.1020820479786562e-13 -5.029613375510604e-13 -1.0
  outer loop
    vertex -9950.193223883902 14400.938587605391 9512.272312875019
    vertex -9950.107178102566 14402.385417862251 9512.272312875017
    vertex -9950.054961584785 14401.656338662813 9512.272312875017
  endloop
endfacet
facet normal 0.9819472207266039 -0.18915511018023945 3.015510696960643e-13
  outer loop
    vertex -9950.054961584785 14401.656338662813 9512.272312875017
    vertex -9950.193223883902 14400.938587605391 9516.272312875019
    vertex -9950.193223883902 14400.938587605391 9512.272312875019
  endloop
endfacet
facet normal 0.9819472207266039 -0.18915511018023945 3.015510696960643e-13
  outer loop
    vertex -9950.193223883902 14400.938587605391 9516.272312875019
    vertex -9950.054961584785 14401.656338662813 9512.272312875017
    vertex -9950.054961584785 14401.656338662813 9516.272312875017
  endloop
endfacet
facet normal 0.8995312355577596 -0.4368564481107385 4.0881074964578503e-13
  outer loop
    vertex -9950.193223883902 14400.938587605391 9512.272312875019
    vertex -9950.512542652725 14400.281078238415 9516.272312875019
    vertex -9950.512542652725 14400.281078238415 9512.272312875019
  endloop
endfacet
facet normal 0.8995312355577596 -0.4368564481107385 4.0881074964578503e-13
  outer loop
    vertex -9950.512542652725 14400.281078238415 9516.272312875019
    vertex -9950.193223883902 14400.938587605391 9512.272312875019
    vertex -9950.193223883902 14400.938587605391 9516.272312875019
  endloop
endfacet
facet normal 0.7558136832351862 -0.6547867410344088 4.882106525958972e-13
  outer loop
    vertex -9950.512542652725 14400.281078238415 9512.272312875019
    vertex -9950.991156844855 14399.728618738653 9516.272312875019
    vertex -9950.991156844855 14399.728618738653 9512.272312875019
  endloop
endfacet
facet normal 0.7558136832351862 -0.6547867410344088 4.882106525958972e-13
  outer loop
    vertex -9950.991156844855 14399.728618738653 9516.272312875019
    vertex -9950.512542652725 14400.281078238415 9512.272312875019
    vertex -9950.512542652725 14400.281078238415 9516.272312875019
  endloop
endfacet
facet normal 0.5605886774358539 -0.8280943996494122 5.343398063800114e-13
  outer loop
    vertex -9950.991156844855 14399.728618738653 9516.272312875019
    vertex -9951.59644969405 14399.318858308034 9512.272312875019
    vertex -9950.991156844855 14399.728618738653 9512.272312875019
  endloop
endfacet
facet normal 0.5605886774358539 -0.8280943996494122 5.343398063800114e-13
  outer loop
    vertex -9951.59644969405 14399.318858308034 9512.272312875019
    vertex -9950.991156844855 14399.728618738653 9516.272312875019
    vertex -9951.59644969405 14399.318858308034 9516.272312875019
  endloop
endfacet
facet normal 0.327160479686908 -0.9449687934164981 5.440545853965671e-13
  outer loop
    vertex -9951.59644969405 14399.318858308034 9516.272312875019
    vertex -9952.28717149293 14399.079721442748 9512.272312875019
    vertex -9951.59644969405 14399.318858308034 9512.272312875019
  endloop
endfacet
facet normal 0.327160479686908 -0.9449687934164981 5.440545853965671e-13
  outer loop
    vertex -9952.28717149293 14399.079721442748 9512.272312875019
    vertex -9951.59644969405 14399.318858308034 9516.272312875019
    vertex -9952.28717149293 14399.079721442748 9516.272312875019
  endloop
endfacet
facet normal 0.07143683591360304 -0.9974451255455875 5.166929435120323e-13
  outer loop
    vertex -9952.28717149293 14399.079721442748 9516.272312875019
    vertex -9953.016250692372 14399.027504924961 9512.272312875019
    vertex -9952.28717149293 14399.079721442748 9512.272312875019
  endloop
endfacet
facet normal 0.07143683591360304 -0.9974451255455875 5.166929435120323e-13
  outer loop
    vertex -9953.016250692372 14399.027504924961 9512.272312875019
    vertex -9952.28717149293 14399.079721442748 9516.272312875019
    vertex -9953.016250692372 14399.027504924961 9516.272312875019
  endloop
endfacet
facet normal -0.1891551101809732 -0.9819472207264623 4.5411953140164297e-13
  outer loop
    vertex -9953.016250692372 14399.027504924961 9516.272312875019
    vertex -9953.734001749792 14399.165767224078 9512.272312875019
    vertex -9953.016250692372 14399.027504924961 9512.272312875019
  endloop
endfacet
facet normal -0.1891551101809732 -0.9819472207264623 4.5411953140164297e-13
  outer loop
    vertex -9953.734001749792 14399.165767224078 9512.272312875019
    vertex -9953.016250692372 14399.027504924961 9516.272312875019
    vertex -9953.734001749792 14399.165767224078 9516.272312875019
  endloop
endfacet
facet normal -0.4368564481123827 -0.8995312355569612 3.605986236926113e-13
  outer loop
    vertex -9953.734001749792 14399.165767224078 9512.272312875019
    vertex -9954.39151111677 14399.485085992905 9516.272312875017
    vertex -9954.39151111677 14399.485085992905 9512.272312875017
  endloop
endfacet
facet normal -0.4368564481123827 -0.8995312355569612 3.605986236926113e-13
  outer loop
    vertex -9954.39151111677 14399.485085992905 9516.272312875017
    vertex -9953.734001749792 14399.165767224078 9512.272312875019
    vertex -9953.734001749792 14399.165767224078 9516.272312875019
  endloop
endfacet
facet normal -0.6547867410353864 -0.7558136832343392 2.425035157004432e-13
  outer loop
    vertex -9954.39151111677 14399.485085992905 9516.272312875017
    vertex -9954.94397061653 14399.963700185035 9512.272312875017
    vertex -9954.39151111677 14399.485085992905 9512.272312875017
  endloop
endfacet
facet normal -0.6547867410353864 -0.7558136832343392 2.425035157004432e-13
  outer loop
    vertex -9954.94397061653 14399.963700185035 9512.272312875017
    vertex -9954.39151111677 14399.485085992905 9516.272312875017
    vertex -9954.94397061653 14399.963700185035 9516.272312875017
  endloop
endfacet
facet normal -0.8280943996481707 -0.5605886774376878 1.0788219386683119e-13
  outer loop
    vertex -9955.35373104715 14400.568993034229 9516.272312875017
    vertex -9954.94397061653 14399.963700185035 9512.272312875017
    vertex -9954.94397061653 14399.963700185035 9516.272312875017
  endloop
endfacet
facet normal -0.8280943996481707 -0.5605886774376878 1.0788219386683119e-13
  outer loop
    vertex -9954.94397061653 14399.963700185035 9512.272312875017
    vertex -9955.35373104715 14400.568993034229 9516.272312875017
    vertex -9955.35373104715 14400.568993034229 9512.272312875017
  endloop
endfacet
facet normal -0.9449687934156996 -0.32716047968921436 -3.409112119558558e-14
  outer loop
    vertex -9955.592867912439 14401.25971483311 9516.272312875017
    vertex -9955.35373104715 14400.568993034229 9512.272312875017
    vertex -9955.35373104715 14400.568993034229 9516.272312875017
  endloop
endfacet
facet normal -0.9449687934156996 -0.32716047968921436 -3.409112119558558e-14
  outer loop
    vertex -9955.35373104715 14400.568993034229 9512.272312875017
    vertex -9955.592867912439 14401.25971483311 9516.272312875017
    vertex -9955.592867912439 14401.25971483311 9512.272312875017
  endloop
endfacet
facet normal -0.9974451255459897 -0.07143683590798895 -1.7374118268670647e-13
  outer loop
    vertex -9955.64508443022 14401.988794032548 9516.272312875017
    vertex -9955.592867912439 14401.25971483311 9512.272312875017
    vertex -9955.592867912439 14401.25971483311 9516.272312875017
  endloop
endfacet
facet normal -0.9974451255459897 -0.07143683590798895 -1.7374118268670647e-13
  outer loop
    vertex -9955.592867912439 14401.25971483311 9512.272312875017
    vertex -9955.64508443022 14401.988794032548 9516.272312875017
    vertex -9955.64508443022 14401.988794032548 9512.272312875017
  endloop
endfacet
facet normal -0.9819472207266039 0.18915511018023945 -3.015510696960643e-13
  outer loop
    vertex -9955.506822131103 14402.706545089972 9516.272312875015
    vertex -9955.64508443022 14401.988794032548 9512.272312875017
    vertex -9955.64508443022 14401.988794032548 9516.272312875017
  endloop
endfacet
facet normal -0.9819472207266039 0.18915511018023945 -3.015510696960643e-13
  outer loop
    vertex -9955.64508443022 14401.988794032548 9512.272312875017
    vertex -9955.506822131103 14402.706545089972 9516.272312875015
    vertex -9955.506822131103 14402.706545089972 9512.272312875015
  endloop
endfacet
facet normal -0.8995312355577596 0.4368564481107385 -4.0881074964578503e-13
  outer loop
    vertex -9955.18750336228 14403.364054456948 9516.272312875015
    vertex -9955.506822131103 14402.706545089972 9512.272312875015
    vertex -9955.506822131103 14402.706545089972 9516.272312875015
  endloop
endfacet
facet normal -0.8995312355577596 0.4368564481107385 -4.0881074964578503e-13
  outer loop
    vertex -9955.506822131103 14402.706545089972 9512.272312875015
    vertex -9955.18750336228 14403.364054456948 9516.272312875015
    vertex -9955.18750336228 14403.364054456948 9512.272312875015
  endloop
endfacet
facet normal -0.7558136832351862 0.6547867410344088 -4.882106525958972e-13
  outer loop
    vertex -9954.70888917015 14403.91651395671 9516.272312875015
    vertex -9955.18750336228 14403.364054456948 9512.272312875015
    vertex -9955.18750336228 14403.364054456948 9516.272312875015
  endloop
endfacet
facet normal -0.7558136832351862 0.6547867410344088 -4.882106525958972e-13
  outer loop
    vertex -9955.18750336228 14403.364054456948 9512.272312875015
    vertex -9954.70888917015 14403.91651395671 9516.272312875015
    vertex -9954.70888917015 14403.91651395671 9512.272312875015
  endloop
endfacet
facet normal -0.5605886774358539 0.8280943996494122 -5.343398063800114e-13
  outer loop
    vertex -9954.70888917015 14403.91651395671 9516.272312875015
    vertex -9954.103596320952 14404.326274387327 9512.272312875015
    vertex -9954.70888917015 14403.91651395671 9512.272312875015
  endloop
endfacet
facet normal -0.5605886774358539 0.8280943996494122 -5.343398063800114e-13
  outer loop
    vertex -9954.103596320952 14404.326274387327 9512.272312875015
    vertex -9954.70888917015 14403.91651395671 9516.272312875015
    vertex -9954.103596320952 14404.326274387327 9516.272312875015
  endloop
endfacet
facet normal -0.327160479686908 0.9449687934164981 -5.440545853965671e-13
  outer loop
    vertex -9954.103596320952 14404.326274387327 9516.272312875015
    vertex -9953.412874522073 14404.565411252614 9512.272312875015
    vertex -9954.103596320952 14404.326274387327 9512.272312875015
  endloop
endfacet
facet normal -0.327160479686908 0.9449687934164981 -5.440545853965671e-13
  outer loop
    vertex -9953.412874522073 14404.565411252614 9512.272312875015
    vertex -9954.103596320952 14404.326274387327 9516.272312875015
    vertex -9953.412874522073 14404.565411252614 9516.272312875015
  endloop
endfacet
facet normal -0.07143683591360304 0.9974451255455875 -5.166929435120323e-13
  outer loop
    vertex -9953.412874522073 14404.565411252614 9516.272312875015
    vertex -9952.683795322633 14404.6176277704 9512.272312875015
    vertex -9953.412874522073 14404.565411252614 9512.272312875015
  endloop
endfacet
facet normal -0.07143683591360304 0.9974451255455875 -5.166929435120323e-13
  outer loop
    vertex -9952.683795322633 14404.6176277704 9512.272312875015
    vertex -9953.412874522073 14404.565411252614 9516.272312875015
    vertex -9952.683795322633 14404.6176277704 9516.272312875015
  endloop
endfacet
facet normal 0.1891551101809732 0.9819472207264623 -4.5411953140164297e-13
  outer loop
    vertex -9952.683795322633 14404.6176277704 9516.272312875015
    vertex -9951.966044265213 14404.479365471283 9512.272312875015
    vertex -9952.683795322633 14404.6176277704 9512.272312875015
  endloop
endfacet
facet normal 0.1891551101809732 0.9819472207264623 -4.5411953140164297e-13
  outer loop
    vertex -9951.966044265213 14404.479365471283 9512.272312875015
    vertex -9952.683795322633 14404.6176277704 9516.272312875015
    vertex -9951.966044265213 14404.479365471283 9516.272312875015
  endloop
endfacet
facet normal 0.4368564481099623 0.8995312355581367 -3.6059862369371133e-13
  outer loop
    vertex -9951.966044265213 14404.479365471283 9516.272312875015
    vertex -9951.308534898235 14404.16004670246 9512.272312875015
    vertex -9951.966044265213 14404.479365471283 9512.272312875015
  endloop
endfacet
facet normal 0.4368564481099623 0.8995312355581367 -3.6059862369371133e-13
  outer loop
    vertex -9951.308534898235 14404.16004670246 9512.272312875015
    vertex -9951.966044265213 14404.479365471283 9516.272312875015
    vertex -9951.308534898235 14404.16004670246 9516.272312875015
  endloop
endfacet
facet normal 0.6547867410366656 0.755813683233231 -2.4250351569961694e-13
  outer loop
    vertex -9951.308534898235 14404.16004670246 9516.272312875015
    vertex -9950.756075398473 14403.681432510326 9512.272312875017
    vertex -9951.308534898235 14404.16004670246 9512.272312875015
  endloop
endfacet
facet normal 0.6547867410366656 0.755813683233231 -2.4250351569961694e-13
  outer loop
    vertex -9950.756075398473 14403.681432510326 9512.272312875017
    vertex -9951.308534898235 14404.16004670246 9516.272312875015
    vertex -9950.756075398473 14403.681432510326 9516.272312875017
  endloop
endfacet
facet normal 0.8280943996481707 0.5605886774376878 -1.0788219386683119e-13
  outer loop
    vertex -9950.756075398473 14403.681432510326 9512.272312875017
    vertex -9950.346314967856 14403.076139661134 9516.272312875017
    vertex -9950.346314967856 14403.076139661134 9512.272312875017
  endloop
endfacet
facet normal 0.8280943996481707 0.5605886774376878 -1.0788219386683119e-13
  outer loop
    vertex -9950.346314967856 14403.076139661134 9516.272312875017
    vertex -9950.756075398473 14403.681432510326 9512.272312875017
    vertex -9950.756075398473 14403.681432510326 9516.272312875017
  endloop
endfacet
facet normal 0.9449687934156996 0.32716047968921436 3.409112119558558e-14
  outer loop
    vertex -9950.346314967856 14403.076139661134 9512.272312875017
    vertex -9950.107178102566 14402.385417862251 9516.272312875017
    vertex -9950.107178102566 14402.385417862251 9512.272312875017
  endloop
endfacet
facet normal 0.9449687934156996 0.32716047968921436 3.409112119558558e-14
  outer loop
    vertex -9950.107178102566 14402.385417862251 9516.272312875017
    vertex -9950.346314967856 14403.076139661134 9512.272312875017
    vertex -9950.346314967856 14403.076139661134 9516.272312875017
  endloop
endfacet
facet normal 0.9974451255459897 0.07143683590798895 1.7374118268670647e-13
  outer loop
    vertex -9950.107178102566 14402.385417862251 9512.272312875017
    vertex -9950.054961584785 14401.656338662813 9516.272312875017
    vertex -9950.054961584785 14401.656338662813 9512.272312875017
  endloop
endfacet
facet normal 0.9974451255459897 0.07143683590798895 1.7374118268670647e-13
  outer loop
    vertex -9950.054961584785 14401.656338662813 9516.272312875017
    vertex -9950.107178102566 14402.385417862251 9512.272312875017
    vertex -9950.107178102566 14402.385417862251 9516.272312875017
  endloop
endfacet
facet normal 4.0320988802423624e-14 6.960713568468106e-13 1.0
  outer loop
    vertex -9956.15168208003 14401.010749022927 9521.272312875019
    vertex -9956.15168208003 14402.634383672445 9521.272312875019
    vertex -9956.250023007502 14401.822566347686 9521.272312875019
  endloop
endfacet
facet normal 4.0320988802423624e-14 6.960713568468106e-13 1.0
  outer loop
    vertex -9956.15168208003 14402.634383672445 9521.272312875019
    vertex -9956.15168208003 14401.010749022927 9521.272312875019
    vertex -9955.862348084689 14400.245893385612 9521.27231287502
  endloop
endfacet
facet normal 4.0320988802423624e-14 6.960713568468106e-13 1.0
  outer loop
    vertex -9956.15168208003 14402.634383672445 9521.272312875019
    vertex -9955.862348084689 14400.245893385612 9521.27231287502
    vertex -9955.862348084689 14403.399239309765 9521.272312875017
  endloop
endfacet
facet normal 4.0320988802423624e-14 6.960713568468106e-13 1.0
  outer loop
    vertex -9955.862348084689 14403.399239309765 9521.272312875017
    vertex -9955.862348084689 14400.245893385612 9521.27231287502
    vertex -9955.398758299974 14399.572244502064 9521.27231287502
  endloop
endfacet
facet normal 4.0320988802423624e-14 6.960713568468106e-13 1.0
  outer loop
    vertex -9955.862348084689 14403.399239309765 9521.272312875017
    vertex -9955.398758299974 14399.572244502064 9521.27231287502
    vertex -9955.398758299974 14404.072888193312 9521.272312875017
  endloop
endfacet
facet normal 4.0320988802423624e-14 6.960713568468106e-13 1.0
  outer loop
    vertex -9955.398758299974 14404.072888193312 9521.272312875017
    vertex -9955.398758299974 14399.572244502064 9521.27231287502
    vertex -9954.787730284355 14399.0287713464 9521.27231287502
  endloop
endfacet
facet normal 4.0320988802423624e-14 6.960713568468106e-13 1.0
  outer loop
    vertex -9955.398758299974 14404.072888193312 9521.272312875017
    vertex -9954.787730284355 14399.0287713464 9521.27231287502
    vertex -9954.787730284355 14404.616361348973 9521.272312875017
  endloop
endfacet
facet normal 4.0320988802423624e-14 6.960713568468106e-13 1.0
  outer loop
    vertex -9954.787730284355 14404.616361348973 9521.272312875017
    vertex -9954.787730284355 14399.0287713464 9521.27231287502
    vertex -9954.064610544756 14398.64691253873 9521.272312875022
  endloop
endfacet
facet normal 4.0320988802423624e-14 6.960713568468106e-13 1.0
  outer loop
    vertex -9954.787730284355 14404.616361348973 9521.272312875017
    vertex -9954.064610544756 14398.64691253873 9521.272312875022
    vertex -9954.064610544756 14404.998220156642 9521.272312875017
  endloop
endfacet
facet normal 4.0320988802423624e-14 6.960713568468106e-13 1.0
  outer loop
    vertex -9954.064610544756 14404.998220156642 9521.272312875017
    vertex -9954.064610544756 14398.64691253873 9521.272312875022
    vertex -9953.271229825797 14398.448757696295 9521.272312875022
  endloop
endfacet
facet normal 4.0320988802423624e-14 6.960713568468106e-13 1.0
  outer loop
    vertex -9954.064610544756 14404.998220156642 9521.272312875017
    vertex -9953.271229825797 14398.448757696295 9521.272312875022
    vertex -9953.271229825797 14405.19637499908 9521.272312875017
  endloop
endfacet
facet normal 4.0320988802423624e-14 6.960713568468106e-13 1.0
  outer loop
    vertex -9953.271229825797 14405.19637499908 9521.272312875017
    vertex -9953.271229825797 14398.448757696295 9521.272312875022
    vertex -9952.453483301448 14398.445769602025 9521.272312875022
  endloop
endfacet
facet normal 4.0320988802423624e-14 6.960713568468106e-13 1.0
  outer loop
    vertex -9953.271229825797 14405.19637499908 9521.272312875017
    vertex -9952.453483301448 14398.445769602025 9521.272312875022
    vertex -9952.453483301448 14405.199363093345 9521.272312875017
  endloop
endfacet
facet normal 4.0320988802423624e-14 6.960713568468106e-13 1.0
  outer loop
    vertex -9952.453483301448 14405.199363093345 9521.272312875017
    vertex -9952.453483301448 14398.445769602025 9521.272312875022
    vertex -9951.658675649138 14398.63812111002 9521.27231287502
  endloop
endfacet
facet normal 4.0320988802423624e-14 6.960713568468106e-13 1.0
  outer loop
    vertex -9952.453483301448 14405.199363093345 9521.272312875017
    vertex -9951.658675649138 14398.63812111002 9521.27231287502
    vertex -9951.658675649138 14405.007011585354 9521.272312875017
  endloop
endfacet
facet normal 4.0320988802423624e-14 6.960713568468106e-13 1.0
  outer loop
    vertex -9951.658675649138 14405.007011585354 9521.272312875017
    vertex -9951.658675649138 14398.63812111002 9521.27231287502
    vertex -9950.93278458751 14404.630447549036 9521.272312875017
  endloop
endfacet
facet normal 4.0320988802423624e-14 6.960713568468106e-13 1.0
  outer loop
    vertex -9950.93278458751 14404.630447549036 9521.272312875017
    vertex -9951.658675649138 14398.63812111002 9521.27231287502
    vertex -9950.93278458751 14399.014685146338 9521.27231287502
  endloop
endfacet
facet normal 4.0320988802423624e-14 6.960713568468106e-13 1.0
  outer loop
    vertex -9950.93278458751 14404.630447549036 9521.272312875017
    vertex -9950.93278458751 14399.014685146338 9521.27231287502
    vertex -9950.317801175535 14399.553678383576 9521.27231287502
  endloop
endfacet
facet normal 4.0320988802423624e-14 6.960713568468106e-13 1.0
  outer loop
    vertex -9950.93278458751 14404.630447549036 9521.272312875017
    vertex -9950.317801175535 14399.553678383576 9521.27231287502
    vertex -9950.317801175535 14404.091454311798 9521.272312875017
  endloop
endfacet
facet normal -1.0 2.5658545264232448e-26 4.0320988802423624e-14
  outer loop
    vertex -9950.317801175535 14404.091454311798 9526.272312875015
    vertex -9950.317801175535 14399.553678383576 9521.27231287502
    vertex -9950.317801175535 14399.553678383576 9526.272312875019
  endloop
endfacet
facet normal -1.0 2.5658545264232448e-26 4.0320988802423624e-14
  outer loop
    vertex -9950.317801175535 14399.553678383576 9521.27231287502
    vertex -9950.317801175535 14404.091454311798 9526.272312875015
    vertex -9950.317801175535 14404.091454311798 9521.272312875017
  endloop
endfacet
facet normal -0.6591157808266503 -0.7520414798834404 5.500507333257618e-13
  outer loop
    vertex -9950.317801175535 14404.091454311798 9526.272312875015
    vertex -9950.93278458751 14404.630447549036 9521.272312875017
    vertex -9950.317801175535 14404.091454311798 9521.272312875017
  endloop
endfacet
facet normal -0.6591157808266503 -0.7520414798834404 5.500507333257618e-13
  outer loop
    vertex -9950.93278458751 14404.630447549036 9521.272312875017
    vertex -9950.317801175535 14404.091454311798 9526.272312875015
    vertex -9950.93278458751 14404.630447549036 9526.272312875015
  endloop
endfacet
facet normal -0.46048685155994745 -0.8876665249632922 6.36446527644104e-13
  outer loop
    vertex -9950.93278458751 14404.630447549036 9521.272312875017
    vertex -9951.658675649138 14405.007011585354 9526.272312875013
    vertex -9951.658675649138 14405.007011585354 9521.272312875017
  endloop
endfacet
facet normal -0.46048685155994745 -0.8876665249632922 6.36446527644104e-13
  outer loop
    vertex -9951.658675649138 14405.007011585354 9526.272312875013
    vertex -9950.93278458751 14404.630447549036 9521.272312875017
    vertex -9950.93278458751 14404.630447549036 9526.272312875015
  endloop
endfacet
facet normal -0.2352198610742292 -0.9719421880730461 6.860254150131449e-13
  outer loop
    vertex -9951.658675649138 14405.007011585354 9526.272312875013
    vertex -9952.453483301448 14405.199363093345 9521.272312875017
    vertex -9951.658675649138 14405.007011585354 9521.272312875017
  endloop
endfacet
facet normal -0.2352198610742292 -0.9719421880730461 6.860254150131449e-13
  outer loop
    vertex -9952.453483301448 14405.199363093345 9521.272312875017
    vertex -9951.658675649138 14405.007011585354 9526.272312875013
    vertex -9952.453483301448 14405.199363093345 9526.272312875013
  endloop
endfacet
facet normal 0.0036540348741074015 -0.9999933239922849 6.959193755698196e-13
  outer loop
    vertex -9952.453483301448 14405.199363093345 9526.272312875013
    vertex -9953.271229825797 14405.19637499908 9521.272312875017
    vertex -9952.453483301448 14405.199363093345 9521.272312875017
  endloop
endfacet
facet normal 0.0036540348741074015 -0.9999933239922849 6.959193755698196e-13
  outer loop
    vertex -9953.271229825797 14405.19637499908 9521.272312875017
    vertex -9952.453483301448 14405.199363093345 9526.272312875013
    vertex -9953.271229825797 14405.19637499908 9526.272312875013
  endloop
endfacet
facet normal 0.24231655366573035 -0.9701972417089029 6.655560673983512e-13
  outer loop
    vertex -9953.271229825797 14405.19637499908 9526.272312875013
    vertex -9954.064610544756 14404.998220156642 9521.272312875017
    vertex -9953.271229825797 14405.19637499908 9521.272312875017
  endloop
endfacet
facet normal 0.24231655366573035 -0.9701972417089029 6.655560673983512e-13
  outer loop
    vertex -9954.064610544756 14404.998220156642 9521.272312875017
    vertex -9953.271229825797 14405.19637499908 9526.272312875013
    vertex -9954.064610544756 14404.998220156642 9526.272312875015
  endloop
endfacet
facet normal 0.4669616403203254 -0.8842775732027535 5.966919351379283e-13
  outer loop
    vertex -9954.064610544756 14404.998220156642 9526.272312875015
    vertex -9954.787730284355 14404.616361348973 9521.272312875017
    vertex -9954.064610544756 14404.998220156642 9521.272312875017
  endloop
endfacet
facet normal 0.4669616403203254 -0.8842775732027535 5.966919351379283e-13
  outer loop
    vertex -9954.787730284355 14404.616361348973 9521.272312875017
    vertex -9954.064610544756 14404.998220156642 9526.272312875015
    vertex -9954.787730284355 14404.616361348973 9526.272312875015
  endloop
endfacet
facet normal 0.6645941147371224 -0.7472045654683734 4.933106038692301e-13
  outer loop
    vertex -9954.787730284355 14404.616361348973 9526.272312875015
    vertex -9955.398758299974 14404.072888193312 9521.272312875017
    vertex -9954.787730284355 14404.616361348973 9521.272312875017
  endloop
endfacet
facet normal 0.6645941147371224 -0.7472045654683734 4.933106038692301e-13
  outer loop
    vertex -9955.398758299974 14404.072888193312 9521.272312875017
    vertex -9954.787730284355 14404.616361348973 9526.272312875015
    vertex -9955.398758299974 14404.072888193312 9526.272312875015
  endloop
endfacet
facet normal 0.8237814117232227 -0.5669075636285816 3.613924359439296e-13
  outer loop
    vertex -9955.398758299974 14404.072888193312 9521.272312875017
    vertex -9955.862348084689 14403.399239309765 9526.272312875015
    vertex -9955.862348084689 14403.399239309765 9521.272312875017
  endloop
endfacet
facet normal 0.8237814117232227 -0.5669075636285816 3.613924359439296e-13
  outer loop
    vertex -9955.862348084689 14403.399239309765 9526.272312875015
    vertex -9955.398758299974 14404.072888193312 9521.272312875017
    vertex -9955.398758299974 14404.072888193312 9526.272312875015
  endloop
endfacet
facet normal 0.935314927498223 -0.3538163173159118 2.0856858135023287e-13
  outer loop
    vertex -9955.862348084689 14403.399239309765 9521.272312875017
    vertex -9956.15168208003 14402.634383672445 9526.272312875017
    vertex -9956.15168208003 14402.634383672445 9521.272312875019
  endloop
endfacet
facet normal 0.935314927498223 -0.3538163173159118 2.0856858135023287e-13
  outer loop
    vertex -9956.15168208003 14402.634383672445 9526.272312875017
    vertex -9955.862348084689 14403.399239309765 9521.272312875017
    vertex -9955.862348084689 14403.399239309765 9526.272312875015
  endloop
endfacet
facet normal 0.9927427153603999 -0.12025764465870768 4.367953397905395e-14
  outer loop
    vertex -9956.15168208003 14402.634383672445 9521.272312875019
    vertex -9956.250023007502 14401.822566347686 9526.272312875017
    vertex -9956.250023007502 14401.822566347686 9521.272312875019
  endloop
endfacet
facet normal 0.9927427153603999 -0.12025764465870768 4.367953397905395e-14
  outer loop
    vertex -9956.250023007502 14401.822566347686 9526.272312875017
    vertex -9956.15168208003 14402.634383672445 9521.272312875019
    vertex -9956.15168208003 14402.634383672445 9526.272312875017
  endloop
endfacet
facet normal 0.9927427153604511 0.12025764465828613 -1.237362697982312e-13
  outer loop
    vertex -9956.250023007502 14401.822566347686 9521.272312875019
    vertex -9956.15168208003 14401.010749022927 9526.272312875017
    vertex -9956.15168208003 14401.010749022927 9521.272312875019
  endloop
endfacet
facet normal 0.9927427153604511 0.12025764465828613 -1.237362697982312e-13
  outer loop
    vertex -9956.15168208003 14401.010749022927 9526.272312875017
    vertex -9956.250023007502 14401.822566347686 9521.272312875019
    vertex -9956.250023007502 14401.822566347686 9526.272312875017
  endloop
endfacet
facet normal 0.9353149274973388 0.3538163173182489 -2.8399422678861505e-13
  outer loop
    vertex -9956.15168208003 14401.010749022927 9521.272312875019
    vertex -9955.862348084689 14400.245893385612 9526.272312875019
    vertex -9955.862348084689 14400.245893385612 9521.27231287502
  endloop
endfacet
facet normal 0.9353149274973388 0.3538163173182489 -2.8399422678861505e-13
  outer loop
    vertex -9955.862348084689 14400.245893385612 9526.272312875019
    vertex -9956.15168208003 14401.010749022927 9521.272312875019
    vertex -9956.15168208003 14401.010749022927 9526.272312875017
  endloop
endfacet
facet normal 0.8237814117232227 0.5669075636285816 -4.2782379809940316e-13
  outer loop
    vertex -9955.862348084689 14400.245893385612 9521.27231287502
    vertex -9955.398758299974 14399.572244502064 9526.272312875019
    vertex -9955.398758299974 14399.572244502064 9521.27231287502
  endloop
endfacet
facet normal 0.8237814117232227 0.5669075636285816 -4.2782379809940316e-13
  outer loop
    vertex -9955.398758299974 14399.572244502064 9526.272312875019
    vertex -9955.862348084689 14400.245893385612 9521.27231287502
    vertex -9955.862348084689 14400.245893385612 9526.272312875019
  endloop
endfacet
facet normal 0.6645941147390938 0.7472045654666198 -5.469047875850332e-13
  outer loop
    vertex -9955.398758299974 14399.572244502064 9526.272312875019
    vertex -9954.787730284355 14399.0287713464 9521.27231287502
    vertex -9955.398758299974 14399.572244502064 9521.27231287502
  endloop
endfacet
facet normal 0.6645941147390938 0.7472045654666198 -5.469047875850332e-13
  outer loop
    vertex -9954.787730284355 14399.0287713464 9521.27231287502
    vertex -9955.398758299974 14399.572244502064 9526.272312875019
    vertex -9954.787730284355 14399.0287713464 9526.272312875019
  endloop
endfacet
facet normal 0.4669616403203254 0.8842775732027535 -6.343486452789627e-13
  outer loop
    vertex -9954.787730284355 14399.0287713464 9526.272312875019
    vertex -9954.064610544756 14398.64691253873 9521.272312875022
    vertex -9954.787730284355 14399.0287713464 9521.27231287502
  endloop
endfacet
facet normal 0.4669616403203254 0.8842775732027535 -6.343486452789627e-13
  outer loop
    vertex -9954.064610544756 14398.64691253873 9521.272312875022
    vertex -9954.787730284355 14399.0287713464 9526.272312875019
    vertex -9954.064610544756 14398.64691253873 9526.272312875019
  endloop
endfacet
facet normal 0.24231655366573035 0.9701972417089029 -6.850969534923469e-13
  outer loop
    vertex -9954.064610544756 14398.64691253873 9526.272312875019
    vertex -9953.271229825797 14398.448757696295 9521.272312875022
    vertex -9954.064610544756 14398.64691253873 9521.272312875022
  endloop
endfacet
facet normal 0.24231655366573035 0.9701972417089029 -6.850969534923469e-13
  outer loop
    vertex -9953.271229825797 14398.448757696295 9521.272312875022
    vertex -9954.064610544756 14398.64691253873 9526.272312875019
    vertex -9953.271229825797 14398.448757696295 9526.272312875019
  endloop
endfacet
facet normal 0.0036540348776385543 0.999993323992272 -6.962140441684379e-13
  outer loop
    vertex -9953.271229825797 14398.448757696295 9526.272312875019
    vertex -9952.453483301448 14398.445769602025 9521.272312875022
    vertex -9953.271229825797 14398.448757696295 9521.272312875022
  endloop
endfacet
facet normal 0.0036540348776385543 0.999993323992272 -6.962140441684379e-13
  outer loop
    vertex -9952.453483301448 14398.445769602025 9521.272312875022
    vertex -9953.271229825797 14398.448757696295 9526.272312875019
    vertex -9952.453483301448 14398.445769602025 9526.272312875019
  endloop
endfacet
facet normal -0.23521986107716136 0.9719421880723366 -6.670568202435694e-13
  outer loop
    vertex -9952.453483301448 14398.445769602025 9521.272312875022
    vertex -9951.658675649138 14398.63812111002 9526.272312875019
    vertex -9951.658675649138 14398.63812111002 9521.27231287502
  endloop
endfacet
facet normal -0.23521986107716136 0.9719421880723366 -6.670568202435694e-13
  outer loop
    vertex -9951.658675649138 14398.63812111002 9526.272312875019
    vertex -9952.453483301448 14398.445769602025 9521.272312875022
    vertex -9952.453483301448 14398.445769602025 9526.272312875019
  endloop
endfacet
facet normal -0.46048685156066915 0.8876665249629179 -5.993119572729904e-13
  outer loop
    vertex -9951.658675649138 14398.63812111002 9526.272312875019
    vertex -9950.93278458751 14399.014685146338 9521.27231287502
    vertex -9951.658675649138 14398.63812111002 9521.27231287502
  endloop
endfacet
facet normal -0.46048685156066915 0.8876665249629179 -5.993119572729904e-13
  outer loop
    vertex -9950.93278458751 14399.014685146338 9521.27231287502
    vertex -9951.658675649138 14398.63812111002 9526.272312875019
    vertex -9950.93278458751 14399.014685146338 9526.272312875019
  endloop
endfacet
facet normal -0.6591157808266503 0.7520414798834404 -4.968983332893376e-13
  outer loop
    vertex -9950.93278458751 14399.014685146338 9526.272312875019
    vertex -9950.317801175535 14399.553678383576 9521.27231287502
    vertex -9950.93278458751 14399.014685146338 9521.27231287502
  endloop
endfacet
facet normal -0.6591157808266503 0.7520414798834404 -4.968983332893376e-13
  outer loop
    vertex -9950.317801175535 14399.553678383576 9521.27231287502
    vertex -9950.93278458751 14399.014685146338 9526.272312875019
    vertex -9950.317801175535 14399.553678383576 9526.272312875019
  endloop
endfacet
facet normal -1.3501135763358607e-13 4.5431915480893833e-13 1.0
  outer loop
    vertex -9959.031948295755 14400.16612445903 9526.272312875017
    vertex -9959.031948295753 14403.479008236345 9526.272312875015
    vertex -9959.250023007504 14401.822566347686 9526.272312875015
  endloop
endfacet
facet normal -1.3501135763358607e-13 4.5431915480893833e-13 1.0
  outer loop
    vertex -9959.031948295753 14403.479008236345 9526.272312875015
    vertex -9959.031948295755 14400.16612445903 9526.272312875017
    vertex -9958.392585591724 14398.622566347687 9526.272312875019
  endloop
endfacet
facet normal -1.3501135763358607e-13 4.5431915480893833e-13 1.0
  outer loop
    vertex -9959.031948295753 14403.479008236345 9526.272312875015
    vertex -9958.392585591724 14398.622566347687 9526.272312875019
    vertex -9958.392585591724 14405.022566347689 9526.272312875013
  endloop
endfacet
facet normal -1.3501135763358607e-13 4.5431915480893833e-13 1.0
  outer loop
    vertex -9958.392585591724 14405.022566347689 9526.272312875013
    vertex -9958.392585591724 14398.622566347687 9526.272312875019
    vertex -9957.375506407097 14397.297082948095 9526.272312875019
  endloop
endfacet
facet normal -1.3501135763358607e-13 4.5431915480893833e-13 1.0
  outer loop
    vertex -9958.392585591724 14405.022566347689 9526.272312875013
    vertex -9957.375506407097 14397.297082948095 9526.272312875019
    vertex -9957.375506407097 14406.348049747281 9526.272312875013
  endloop
endfacet
facet normal -1.3501135763358607e-13 4.5431915480893833e-13 1.0
  outer loop
    vertex -9957.375506407097 14406.348049747281 9526.272312875013
    vertex -9957.375506407097 14397.297082948095 9526.272312875019
    vertex -9956.050023007505 14396.280003763466 9526.272312875019
  endloop
endfacet
facet normal -1.3501135763358607e-13 4.5431915480893833e-13 1.0
  outer loop
    vertex -9957.375506407097 14406.348049747281 9526.272312875013
    vertex -9956.050023007505 14396.280003763466 9526.272312875019
    vertex -9956.250023007502 14401.822566347686 9526.272312875017
  endloop
endfacet
facet normal -1.3501135763358607e-13 4.5431915480893833e-13 1.0
  outer loop
    vertex -9956.250023007502 14401.822566347686 9526.272312875017
    vertex -9956.050023007505 14396.280003763466 9526.272312875019
    vertex -9956.15168208003 14401.010749022927 9526.272312875017
  endloop
endfacet
facet normal -1.3501135763358607e-13 4.5431915480893833e-13 1.0
  outer loop
    vertex -9956.15168208003 14401.010749022927 9526.272312875017
    vertex -9956.050023007505 14396.280003763466 9526.272312875019
    vertex -9955.862348084689 14400.245893385612 9526.272312875019
  endloop
endfacet
facet normal -1.3501135763358607e-13 4.5431915480893833e-13 1.0
  outer loop
    vertex -9955.862348084689 14400.245893385612 9526.272312875019
    vertex -9956.050023007505 14396.280003763466 9526.272312875019
    vertex -9954.506464896162 14395.640641059435 9526.272312875019
  endloop
endfacet
facet normal -1.3501135763358607e-13 4.5431915480893833e-13 1.0
  outer loop
    vertex -9955.862348084689 14400.245893385612 9526.272312875019
    vertex -9954.506464896162 14395.640641059435 9526.272312875019
    vertex -9955.398758299974 14399.572244502064 9526.272312875019
  endloop
endfacet
facet normal -1.3501135763358607e-13 4.5431915480893833e-13 1.0
  outer loop
    vertex -9955.398758299974 14399.572244502064 9526.272312875019
    vertex -9954.506464896162 14395.640641059435 9526.272312875019
    vertex -9954.787730284355 14399.0287713464 9526.272312875019
  endloop
endfacet
facet normal -1.3501135763358607e-13 4.5431915480893833e-13 1.0
  outer loop
    vertex -9954.787730284355 14399.0287713464 9526.272312875019
    vertex -9954.506464896162 14395.640641059435 9526.272312875019
    vertex -9954.064610544756 14398.64691253873 9526.272312875019
  endloop
endfacet
facet normal -1.3501135763358607e-13 4.5431915480893833e-13 1.0
  outer loop
    vertex -9954.064610544756 14398.64691253873 9526.272312875019
    vertex -9954.506464896162 14395.640641059435 9526.272312875019
    vertex -9952.850023007504 14395.422566347685 9526.272312875019
  endloop
endfacet
facet normal -1.3501135763358607e-13 4.5431915480893833e-13 1.0
  outer loop
    vertex -9954.064610544756 14398.64691253873 9526.272312875019
    vertex -9952.850023007504 14395.422566347685 9526.272312875019
    vertex -9953.271229825797 14398.448757696295 9526.272312875019
  endloop
endfacet
facet normal -1.3501135763358607e-13 4.5431915480893833e-13 1.0
  outer loop
    vertex -9953.271229825797 14398.448757696295 9526.272312875019
    vertex -9952.850023007504 14395.422566347685 9526.272312875019
    vertex -9952.453483301448 14398.445769602025 9526.272312875019
  endloop
endfacet
facet normal -1.3501135763358607e-13 4.5431915480893833e-13 1.0
  outer loop
    vertex -9952.453483301448 14398.445769602025 9526.272312875019
    vertex -9952.850023007504 14395.422566347685 9526.272312875019
    vertex -9951.193581118849 14395.640641059435 9526.272312875019
  endloop
endfacet
facet normal -1.3501135763358607e-13 4.5431915480893833e-13 1.0
  outer loop
    vertex -9952.453483301448 14398.445769602025 9526.272312875019
    vertex -9951.193581118849 14395.640641059435 9526.272312875019
    vertex -9951.658675649138 14398.63812111002 9526.272312875019
  endloop
endfacet
facet normal -1.3501135763358607e-13 4.5431915480893833e-13 1.0
  outer loop
    vertex -9951.658675649138 14398.63812111002 9526.272312875019
    vertex -9951.193581118849 14395.640641059435 9526.272312875019
    vertex -9950.93278458751 14399.014685146338 9526.272312875019
  endloop
endfacet
facet normal -1.3501135763358607e-13 4.5431915480893833e-13 1.0
  outer loop
    vertex -9950.93278458751 14399.014685146338 9526.272312875019
    vertex -9951.193581118849 14395.640641059435 9526.272312875019
    vertex -9949.650023007503 14396.280003763466 9526.272312875019
  endloop
endfacet
facet normal -1.3501135763358607e-13 4.5431915480893833e-13 1.0
  outer loop
    vertex -9950.93278458751 14399.014685146338 9526.272312875019
    vertex -9949.650023007503 14396.280003763466 9526.272312875019
    vertex -9950.317801175535 14399.553678383576 9526.272312875019
  endloop
endfacet
facet normal -1.3501135763358607e-13 4.5431915480893833e-13 1.0
  outer loop
    vertex -9950.317801175535 14399.553678383576 9526.272312875019
    vertex -9949.650023007503 14396.280003763466 9526.272312875019
    vertex -9950.317801175535 14404.091454311798 9526.272312875015
  endloop
endfacet
facet normal -1.3501135763358607e-13 4.5431915480893833e-13 1.0
  outer loop
    vertex -9956.250023007502 14401.822566347686 9526.272312875017
    vertex -9956.050023007503 14407.365128931908 9526.272312875013
    vertex -9957.375506407097 14406.348049747281 9526.272312875013
  endloop
endfacet
facet normal -1.3501135763358607e-13 4.5431915480893833e-13 1.0
  outer loop
    vertex -9956.050023007503 14407.365128931908 9526.272312875013
    vertex -9956.250023007502 14401.822566347686 9526.272312875017
    vertex -9956.15168208003 14402.634383672445 9526.272312875017
  endloop
endfacet
facet normal -1.3501135763358607e-13 4.5431915480893833e-13 1.0
  outer loop
    vertex -9956.050023007503 14407.365128931908 9526.272312875013
    vertex -9956.15168208003 14402.634383672445 9526.272312875017
    vertex -9955.862348084689 14403.399239309765 9526.272312875015
  endloop
endfacet
facet normal -1.3501135763358607e-13 4.5431915480893833e-13 1.0
  outer loop
    vertex -9956.050023007503 14407.365128931908 9526.272312875013
    vertex -9955.862348084689 14403.399239309765 9526.272312875015
    vertex -9954.506464896158 14408.004491635938 9526.272312875013
  endloop
endfacet
facet normal -1.3501135763358607e-13 4.5431915480893833e-13 1.0
  outer loop
    vertex -9954.506464896158 14408.004491635938 9526.272312875013
    vertex -9955.862348084689 14403.399239309765 9526.272312875015
    vertex -9955.398758299974 14404.072888193312 9526.272312875015
  endloop
endfacet
facet normal -1.3501135763358607e-13 4.5431915480893833e-13 1.0
  outer loop
    vertex -9954.506464896158 14408.004491635938 9526.272312875013
    vertex -9955.398758299974 14404.072888193312 9526.272312875015
    vertex -9954.787730284355 14404.616361348973 9526.272312875015
  endloop
endfacet
facet normal -1.3501135763358607e-13 4.5431915480893833e-13 1.0
  outer loop
    vertex -9954.506464896158 14408.004491635938 9526.272312875013
    vertex -9954.787730284355 14404.616361348973 9526.272312875015
    vertex -9954.064610544756 14404.998220156642 9526.272312875015
  endloop
endfacet
facet normal -1.3501135763358607e-13 4.5431915480893833e-13 1.0
  outer loop
    vertex -9954.506464896158 14408.004491635938 9526.272312875013
    vertex -9954.064610544756 14404.998220156642 9526.272312875015
    vertex -9952.850023007502 14408.222566347687 9526.272312875013
  endloop
endfacet
facet normal -1.3501135763358607e-13 4.5431915480893833e-13 1.0
  outer loop
    vertex -9952.850023007502 14408.222566347687 9526.272312875013
    vertex -9954.064610544756 14404.998220156642 9526.272312875015
    vertex -9953.271229825797 14405.19637499908 9526.272312875013
  endloop
endfacet
facet normal -1.3501135763358607e-13 4.5431915480893833e-13 1.0
  outer loop
    vertex -9952.850023007502 14408.222566347687 9526.272312875013
    vertex -9953.271229825797 14405.19637499908 9526.272312875013
    vertex -9952.453483301448 14405.199363093345 9526.272312875013
  endloop
endfacet
facet normal -1.3501135763358607e-13 4.5431915480893833e-13 1.0
  outer loop
    vertex -9952.850023007502 14408.222566347687 9526.272312875013
    vertex -9952.453483301448 14405.199363093345 9526.272312875013
    vertex -9951.193581118845 14408.004491635938 9526.272312875015
  endloop
endfacet
facet normal -1.3501135763358607e-13 4.5431915480893833e-13 1.0
  outer loop
    vertex -9951.193581118845 14408.004491635938 9526.272312875015
    vertex -9952.453483301448 14405.199363093345 9526.272312875013
    vertex -9951.658675649138 14405.007011585354 9526.272312875013
  endloop
endfacet
facet normal -1.3501135763358607e-13 4.5431915480893833e-13 1.0
  outer loop
    vertex -9951.193581118845 14408.004491635938 9526.272312875015
    vertex -9951.658675649138 14405.007011585354 9526.272312875013
    vertex -9950.93278458751 14404.630447549036 9526.272312875015
  endloop
endfacet
facet normal -1.3501135763358607e-13 4.5431915480893833e-13 1.0
  outer loop
    vertex -9951.193581118845 14408.004491635938 9526.272312875015
    vertex -9950.93278458751 14404.630447549036 9526.272312875015
    vertex -9949.650023007503 14407.365128931908 9526.272312875015
  endloop
endfacet
facet normal -1.3501135763358607e-13 4.5431915480893833e-13 1.0
  outer loop
    vertex -9949.650023007503 14407.365128931908 9526.272312875015
    vertex -9950.93278458751 14404.630447549036 9526.272312875015
    vertex -9950.317801175535 14404.091454311798 9526.272312875015
  endloop
endfacet
facet normal -1.3501135763358607e-13 4.5431915480893833e-13 1.0
  outer loop
    vertex -9949.650023007503 14407.365128931908 9526.272312875015
    vertex -9950.317801175535 14404.091454311798 9526.272312875015
    vertex -9949.650023007503 14396.280003763466 9526.272312875019
  endloop
endfacet
facet normal -1.3501135763358607e-13 4.5431915480893833e-13 1.0
  outer loop
    vertex -9949.650023007503 14407.365128931908 9526.272312875015
    vertex -9949.650023007503 14396.280003763466 9526.272312875019
    vertex -9948.324539607911 14397.297082948093 9526.272312875019
  endloop
endfacet
facet normal -1.3501135763358607e-13 4.5431915480893833e-13 1.0
  outer loop
    vertex -9949.650023007503 14407.365128931908 9526.272312875015
    vertex -9948.324539607911 14397.297082948093 9526.272312875019
    vertex -9948.32453960791 14406.34804974728 9526.272312875013
  endloop
endfacet
facet normal -1.3501135763358607e-13 4.5431915480893833e-13 1.0
  outer loop
    vertex -9948.32453960791 14406.34804974728 9526.272312875013
    vertex -9948.324539607911 14397.297082948093 9526.272312875019
    vertex -9947.307460423284 14398.622566347685 9526.272312875019
  endloop
endfacet
facet normal -1.3501135763358607e-13 4.5431915480893833e-13 1.0
  outer loop
    vertex -9948.32453960791 14406.34804974728 9526.272312875013
    vertex -9947.307460423284 14398.622566347685 9526.272312875019
    vertex -9947.307460423282 14405.022566347687 9526.272312875015
  endloop
endfacet
facet normal -1.3501135763358607e-13 4.5431915480893833e-13 1.0
  outer loop
    vertex -9947.307460423282 14405.022566347687 9526.272312875015
    vertex -9947.307460423284 14398.622566347685 9526.272312875019
    vertex -9946.668097719254 14400.166124459027 9526.272312875019
  endloop
endfacet
facet normal -1.3501135763358607e-13 4.5431915480893833e-13 1.0
  outer loop
    vertex -9947.307460423282 14405.022566347687 9526.272312875015
    vertex -9946.668097719254 14400.166124459027 9526.272312875019
    vertex -9946.668097719252 14403.479008236343 9526.272312875017
  endloop
endfacet
facet normal -1.3501135763358607e-13 4.5431915480893833e-13 1.0
  outer loop
    vertex -9946.668097719252 14403.479008236343 9526.272312875017
    vertex -9946.668097719254 14400.166124459027 9526.272312875019
    vertex -9946.450023007503 14401.822566347686 9526.272312875019
  endloop
endfacet
facet normal 1.3501135763358607e-13 -4.543191548089383e-13 -1.0
  outer loop
    vertex -9954.50646489616 14408.004491635946 9516.272312875022
    vertex -9955.64508443022 14401.988794032548 9516.272312875017
    vertex -9956.050023007505 14407.365128931917 9516.272312875022
  endloop
endfacet
facet normal 1.3501135763358607e-13 -4.543191548089383e-13 -1.0
  outer loop
    vertex -9955.64508443022 14401.988794032548 9516.272312875017
    vertex -9954.50646489616 14408.004491635946 9516.272312875022
    vertex -9955.506822131103 14402.706545089972 9516.272312875015
  endloop
endfacet
facet normal 1.3501135763358607e-13 -4.543191548089383e-13 -1.0
  outer loop
    vertex -9955.506822131103 14402.706545089972 9516.272312875015
    vertex -9954.50646489616 14408.004491635946 9516.272312875022
    vertex -9955.18750336228 14403.364054456948 9516.272312875015
  endloop
endfacet
facet normal 1.3501135763358607e-13 -4.543191548089383e-13 -1.0
  outer loop
    vertex -9955.18750336228 14403.364054456948 9516.272312875015
    vertex -9954.50646489616 14408.004491635946 9516.272312875022
    vertex -9954.70888917015 14403.91651395671 9516.272312875015
  endloop
endfacet
facet normal 1.3501135763358607e-13 -4.543191548089383e-13 -1.0
  outer loop
    vertex -9954.70888917015 14403.91651395671 9516.272312875015
    vertex -9954.50646489616 14408.004491635946 9516.272312875022
    vertex -9954.103596320952 14404.326274387327 9516.272312875015
  endloop
endfacet
facet normal 1.3501135763358607e-13 -4.543191548089383e-13 -1.0
  outer loop
    vertex -9954.103596320952 14404.326274387327 9516.272312875015
    vertex -9954.50646489616 14408.004491635946 9516.272312875022
    vertex -9952.850023007504 14408.222566347697 9516.272312875022
  endloop
endfacet
facet normal 1.3501135763358607e-13 -4.543191548089383e-13 -1.0
  outer loop
    vertex -9954.103596320952 14404.326274387327 9516.272312875015
    vertex -9952.850023007504 14408.222566347697 9516.272312875022
    vertex -9953.412874522073 14404.565411252614 9516.272312875015
  endloop
endfacet
facet normal 1.3501135763358607e-13 -4.543191548089383e-13 -1.0
  outer loop
    vertex -9953.412874522073 14404.565411252614 9516.272312875015
    vertex -9952.850023007504 14408.222566347697 9516.272312875022
    vertex -9952.683795322633 14404.6176277704 9516.272312875015
  endloop
endfacet
facet normal 1.3501135763358607e-13 -4.543191548089383e-13 -1.0
  outer loop
    vertex -9952.683795322633 14404.6176277704 9516.272312875015
    vertex -9952.850023007504 14408.222566347697 9516.272312875022
    vertex -9951.193581118847 14408.004491635946 9516.272312875022
  endloop
endfacet
facet normal 1.3501135763358607e-13 -4.543191548089383e-13 -1.0
  outer loop
    vertex -9952.683795322633 14404.6176277704 9516.272312875015
    vertex -9951.193581118847 14408.004491635946 9516.272312875022
    vertex -9951.966044265213 14404.479365471283 9516.272312875015
  endloop
endfacet
facet normal 1.3501135763358607e-13 -4.543191548089383e-13 -1.0
  outer loop
    vertex -9951.966044265213 14404.479365471283 9516.272312875015
    vertex -9951.193581118847 14408.004491635946 9516.272312875022
    vertex -9951.308534898235 14404.16004670246 9516.272312875015
  endloop
endfacet
facet normal 1.3501135763358607e-13 -4.543191548089383e-13 -1.0
  outer loop
    vertex -9951.308534898235 14404.16004670246 9516.272312875015
    vertex -9951.193581118847 14408.004491635946 9516.272312875022
    vertex -9950.756075398473 14403.681432510326 9516.272312875017
  endloop
endfacet
facet normal 1.3501135763358607e-13 -4.543191548089383e-13 -1.0
  outer loop
    vertex -9950.756075398473 14403.681432510326 9516.272312875017
    vertex -9951.193581118847 14408.004491635946 9516.272312875022
    vertex -9949.650023007503 14407.365128931917 9516.272312875022
  endloop
endfacet
facet normal 1.3501135763358607e-13 -4.543191548089383e-13 -1.0
  outer loop
    vertex -9950.756075398473 14403.681432510326 9516.272312875017
    vertex -9949.650023007503 14407.365128931917 9516.272312875022
    vertex -9950.346314967856 14403.076139661134 9516.272312875017
  endloop
endfacet
facet normal 1.3501135763358607e-13 -4.543191548089383e-13 -1.0
  outer loop
    vertex -9950.346314967856 14403.076139661134 9516.272312875017
    vertex -9949.650023007503 14407.365128931917 9516.272312875022
    vertex -9950.107178102566 14402.385417862251 9516.272312875017
  endloop
endfacet
facet normal 1.3501135763358607e-13 -4.543191548089383e-13 -1.0
  outer loop
    vertex -9950.107178102566 14402.385417862251 9516.272312875017
    vertex -9949.650023007503 14407.365128931917 9516.272312875022
    vertex -9950.054961584785 14401.656338662813 9516.272312875017
  endloop
endfacet
facet normal 1.3501135763358607e-13 -4.543191548089383e-13 -1.0
  outer loop
    vertex -9950.054961584785 14401.656338662813 9516.272312875017
    vertex -9949.650023007503 14407.365128931917 9516.272312875022
    vertex -9949.650023007505 14396.280003763473 9516.272312875028
  endloop
endfacet
facet normal 1.3501135763358607e-13 -4.543191548089383e-13 -1.0
  outer loop
    vertex -9949.650023007505 14396.280003763473 9516.272312875028
    vertex -9949.650023007503 14407.365128931917 9516.272312875022
    vertex -9948.324539607911 14397.2970829481 9516.272312875028
  endloop
endfacet
facet normal 1.3501135763358607e-13 -4.543191548089383e-13 -1.0
  outer loop
    vertex -9948.324539607911 14397.2970829481 9516.272312875028
    vertex -9949.650023007503 14407.365128931917 9516.272312875022
    vertex -9948.324539607911 14406.348049747286 9516.272312875022
  endloop
endfacet
facet normal 1.3501135763358607e-13 -4.543191548089383e-13 -1.0
  outer loop
    vertex -9948.324539607911 14397.2970829481 9516.272312875028
    vertex -9948.324539607911 14406.348049747286 9516.272312875022
    vertex -9947.307460423284 14398.622566347693 9516.272312875028
  endloop
endfacet
facet normal 1.3501135763358607e-13 -4.543191548089383e-13 -1.0
  outer loop
    vertex -9947.307460423284 14398.622566347693 9516.272312875028
    vertex -9948.324539607911 14406.348049747286 9516.272312875022
    vertex -9947.307460423284 14405.022566347694 9516.272312875022
  endloop
endfacet
facet normal 1.3501135763358607e-13 -4.543191548089383e-13 -1.0
  outer loop
    vertex -9947.307460423284 14398.622566347693 9516.272312875028
    vertex -9947.307460423284 14405.022566347694 9516.272312875022
    vertex -9946.668097719255 14400.166124459036 9516.272312875026
  endloop
endfacet
facet normal 1.3501135763358607e-13 -4.543191548089383e-13 -1.0
  outer loop
    vertex -9946.668097719255 14400.166124459036 9516.272312875026
    vertex -9947.307460423284 14405.022566347694 9516.272312875022
    vertex -9946.668097719254 14403.479008236352 9516.272312875024
  endloop
endfacet
facet normal 1.3501135763358607e-13 -4.543191548089383e-13 -1.0
  outer loop
    vertex -9946.668097719255 14400.166124459036 9516.272312875026
    vertex -9946.668097719254 14403.479008236352 9516.272312875024
    vertex -9946.450023007505 14401.822566347695 9516.272312875026
  endloop
endfacet
facet normal 1.3501135763358607e-13 -4.543191548089383e-13 -1.0
  outer loop
    vertex -9959.031948295755 14403.479008236354 9516.272312875022
    vertex -9959.031948295757 14400.16612445904 9516.272312875024
    vertex -9959.250023007506 14401.822566347695 9516.272312875022
  endloop
endfacet
facet normal 1.3501135763358607e-13 -4.543191548089383e-13 -1.0
  outer loop
    vertex -9959.031948295757 14400.16612445904 9516.272312875024
    vertex -9959.031948295755 14403.479008236354 9516.272312875022
    vertex -9958.392585591726 14398.622566347696 9516.272312875026
  endloop
endfacet
facet normal 1.3501135763358607e-13 -4.543191548089383e-13 -1.0
  outer loop
    vertex -9958.392585591726 14398.622566347696 9516.272312875026
    vertex -9959.031948295755 14403.479008236354 9516.272312875022
    vertex -9958.392585591724 14405.022566347698 9516.272312875022
  endloop
endfacet
facet normal 1.3501135763358607e-13 -4.543191548089383e-13 -1.0
  outer loop
    vertex -9958.392585591726 14398.622566347696 9516.272312875026
    vertex -9958.392585591724 14405.022566347698 9516.272312875022
    vertex -9957.3755064071 14397.297082948104 9516.272312875028
  endloop
endfacet
facet normal 1.3501135763358607e-13 -4.543191548089383e-13 -1.0
  outer loop
    vertex -9957.3755064071 14397.297082948104 9516.272312875028
    vertex -9958.392585591724 14405.022566347698 9516.272312875022
    vertex -9957.375506407097 14406.34804974729 9516.272312875022
  endloop
endfacet
facet normal 1.3501135763358607e-13 -4.543191548089383e-13 -1.0
  outer loop
    vertex -9957.3755064071 14397.297082948104 9516.272312875028
    vertex -9957.375506407097 14406.34804974729 9516.272312875022
    vertex -9956.050023007505 14396.280003763473 9516.272312875026
  endloop
endfacet
facet normal 1.3501135763358607e-13 -4.543191548089383e-13 -1.0
  outer loop
    vertex -9956.050023007505 14396.280003763473 9516.272312875026
    vertex -9957.375506407097 14406.34804974729 9516.272312875022
    vertex -9956.050023007505 14407.365128931917 9516.272312875022
  endloop
endfacet
facet normal 1.3501135763358607e-13 -4.543191548089383e-13 -1.0
  outer loop
    vertex -9956.050023007505 14396.280003763473 9516.272312875026
    vertex -9956.050023007505 14407.365128931917 9516.272312875022
    vertex -9955.592867912439 14401.25971483311 9516.272312875017
  endloop
endfacet
facet normal 1.3501135763358607e-13 -4.543191548089383e-13 -1.0
  outer loop
    vertex -9956.050023007505 14396.280003763473 9516.272312875026
    vertex -9955.592867912439 14401.25971483311 9516.272312875017
    vertex -9954.506464896163 14395.640641059445 9516.272312875026
  endloop
endfacet
facet normal 1.3501135763358607e-13 -4.543191548089383e-13 -1.0
  outer loop
    vertex -9955.592867912439 14401.25971483311 9516.272312875017
    vertex -9956.050023007505 14407.365128931917 9516.272312875022
    vertex -9955.64508443022 14401.988794032548 9516.272312875017
  endloop
endfacet
facet normal 1.3501135763358607e-13 -4.543191548089383e-13 -1.0
  outer loop
    vertex -9954.506464896163 14395.640641059445 9516.272312875026
    vertex -9955.592867912439 14401.25971483311 9516.272312875017
    vertex -9955.35373104715 14400.568993034229 9516.272312875017
  endloop
endfacet
facet normal 1.3501135763358607e-13 -4.543191548089383e-13 -1.0
  outer loop
    vertex -9954.506464896163 14395.640641059445 9516.272312875026
    vertex -9955.35373104715 14400.568993034229 9516.272312875017
    vertex -9954.94397061653 14399.963700185035 9516.272312875017
  endloop
endfacet
facet normal 1.3501135763358607e-13 -4.543191548089383e-13 -1.0
  outer loop
    vertex -9954.506464896163 14395.640641059445 9516.272312875026
    vertex -9954.94397061653 14399.963700185035 9516.272312875017
    vertex -9954.39151111677 14399.485085992905 9516.272312875017
  endloop
endfacet
facet normal 1.3501135763358607e-13 -4.543191548089383e-13 -1.0
  outer loop
    vertex -9954.506464896163 14395.640641059445 9516.272312875026
    vertex -9954.39151111677 14399.485085992905 9516.272312875017
    vertex -9952.850023007506 14395.422566347694 9516.272312875028
  endloop
endfacet
facet normal 1.3501135763358607e-13 -4.543191548089383e-13 -1.0
  outer loop
    vertex -9952.850023007506 14395.422566347694 9516.272312875028
    vertex -9954.39151111677 14399.485085992905 9516.272312875017
    vertex -9953.734001749792 14399.165767224078 9516.272312875019
  endloop
endfacet
facet normal 1.3501135763358607e-13 -4.543191548089383e-13 -1.0
  outer loop
    vertex -9952.850023007506 14395.422566347694 9516.272312875028
    vertex -9953.734001749792 14399.165767224078 9516.272312875019
    vertex -9953.016250692372 14399.027504924961 9516.272312875019
  endloop
endfacet
facet normal 1.3501135763358607e-13 -4.543191548089383e-13 -1.0
  outer loop
    vertex -9952.850023007506 14395.422566347694 9516.272312875028
    vertex -9953.016250692372 14399.027504924961 9516.272312875019
    vertex -9952.28717149293 14399.079721442748 9516.272312875019
  endloop
endfacet
facet normal 1.3501135763358607e-13 -4.543191548089383e-13 -1.0
  outer loop
    vertex -9952.850023007506 14395.422566347694 9516.272312875028
    vertex -9952.28717149293 14399.079721442748 9516.272312875019
    vertex -9951.19358111885 14395.640641059445 9516.272312875028
  endloop
endfacet
facet normal 1.3501135763358607e-13 -4.543191548089383e-13 -1.0
  outer loop
    vertex -9951.19358111885 14395.640641059445 9516.272312875028
    vertex -9952.28717149293 14399.079721442748 9516.272312875019
    vertex -9951.59644969405 14399.318858308034 9516.272312875019
  endloop
endfacet
facet normal 1.3501135763358607e-13 -4.543191548089383e-13 -1.0
  outer loop
    vertex -9951.19358111885 14395.640641059445 9516.272312875028
    vertex -9951.59644969405 14399.318858308034 9516.272312875019
    vertex -9950.991156844855 14399.728618738653 9516.272312875019
  endloop
endfacet
facet normal 1.3501135763358607e-13 -4.543191548089383e-13 -1.0
  outer loop
    vertex -9951.19358111885 14395.640641059445 9516.272312875028
    vertex -9950.991156844855 14399.728618738653 9516.272312875019
    vertex -9949.650023007505 14396.280003763473 9516.272312875028
  endloop
endfacet
facet normal 1.3501135763358607e-13 -4.543191548089383e-13 -1.0
  outer loop
    vertex -9949.650023007505 14396.280003763473 9516.272312875028
    vertex -9950.991156844855 14399.728618738653 9516.272312875019
    vertex -9950.512542652725 14400.281078238415 9516.272312875019
  endloop
endfacet
facet normal 1.3501135763358607e-13 -4.543191548089383e-13 -1.0
  outer loop
    vertex -9949.650023007505 14396.280003763473 9516.272312875028
    vertex -9950.512542652725 14400.281078238415 9516.272312875019
    vertex -9950.193223883902 14400.938587605391 9516.272312875019
  endloop
endfacet
facet normal 1.3501135763358607e-13 -4.543191548089383e-13 -1.0
  outer loop
    vertex -9949.650023007505 14396.280003763473 9516.272312875028
    vertex -9950.193223883902 14400.938587605391 9516.272312875019
    vertex -9950.054961584785 14401.656338662813 9516.272312875017
  endloop
endfacet
facet normal -0.9238795325111883 0.38268343236532776 -2.9859464352581754e-13
  outer loop
    vertex -9958.392585591724 14405.022566347689 9526.272312875013
    vertex -9959.031948295755 14403.479008236354 9516.272312875022
    vertex -9959.031948295753 14403.479008236345 9526.272312875015
  endloop
endfacet
facet normal -0.9238795325111883 0.38268343236532776 -2.9859464352581754e-13
  outer loop
    vertex -9959.031948295755 14403.479008236354 9516.272312875022
    vertex -9958.392585591724 14405.022566347689 9526.272312875013
    vertex -9958.392585591724 14405.022566347698 9516.272312875022
  endloop
endfacet
facet normal -0.9914448613738045 0.13052619222009756 -1.9315686608278365e-13
  outer loop
    vertex -9959.031948295753 14403.479008236345 9526.272312875015
    vertex -9959.250023007506 14401.822566347695 9516.272312875022
    vertex -9959.250023007504 14401.822566347686 9526.272312875015
  endloop
endfacet
facet normal -0.9914448613738045 0.13052619222009756 -1.9315686608278365e-13
  outer loop
    vertex -9959.250023007506 14401.822566347695 9516.272312875022
    vertex -9959.031948295753 14403.479008236345 9526.272312875015
    vertex -9959.031948295755 14403.479008236354 9516.272312875022
  endloop
endfacet
facet normal -0.9914448613738868 -0.13052619221947176 -7.455576742335157e-14
  outer loop
    vertex -9959.250023007504 14401.822566347686 9526.272312875015
    vertex -9959.031948295757 14400.16612445904 9516.272312875024
    vertex -9959.031948295755 14400.16612445903 9526.272312875017
  endloop
endfacet
facet normal -0.9914448613738868 -0.13052619221947176 -7.455576742335157e-14
  outer loop
    vertex -9959.031948295757 14400.16612445904 9516.272312875024
    vertex -9959.250023007504 14401.822566347686 9526.272312875015
    vertex -9959.250023007506 14401.822566347695 9516.272312875022
  endloop
endfacet
facet normal -0.9238795325111883 -0.38268343236532776 4.912618357738083e-14
  outer loop
    vertex -9959.031948295755 14400.16612445903 9526.272312875017
    vertex -9958.392585591726 14398.622566347696 9516.272312875026
    vertex -9958.392585591724 14398.622566347687 9526.272312875019
  endloop
endfacet
facet normal -0.9238795325111883 -0.38268343236532776 4.912618357738083e-14
  outer loop
    vertex -9958.392585591726 14398.622566347696 9516.272312875026
    vertex -9959.031948295755 14400.16612445903 9526.272312875017
    vertex -9959.031948295757 14400.16612445904 9516.272312875024
  endloop
endfacet
facet normal -0.7933533402909634 -0.6087614290090747 1.6946026635186093e-13
  outer loop
    vertex -9958.392585591724 14398.622566347687 9526.272312875019
    vertex -9957.3755064071 14397.297082948104 9516.272312875028
    vertex -9957.375506407097 14397.297082948095 9526.272312875019
  endloop
endfacet
facet normal -0.7933533402909634 -0.6087614290090747 1.6946026635186093e-13
  outer loop
    vertex -9957.3755064071 14397.297082948104 9516.272312875028
    vertex -9958.392585591724 14398.622566347687 9526.272312875019
    vertex -9958.392585591726 14398.622566347696 9516.272312875026
  endloop
endfacet
facet normal -0.6087614290097453 -0.793353340290449 2.7824591202003715e-13
  outer loop
    vertex -9956.050023007505 14396.280003763466 9526.272312875019
    vertex -9957.3755064071 14397.297082948104 9516.272312875028
    vertex -9956.050023007505 14396.280003763473 9516.272312875026
  endloop
endfacet
facet normal -0.6087614290097453 -0.793353340290449 2.7824591202003715e-13
  outer loop
    vertex -9957.3755064071 14397.297082948104 9516.272312875028
    vertex -9956.050023007505 14396.280003763466 9526.272312875019
    vertex -9957.375506407097 14397.297082948095 9526.272312875019
  endloop
endfacet
facet normal -0.38268343236532776 -0.9238795325111883 3.680695586082366e-13
  outer loop
    vertex -9954.506464896162 14395.640641059435 9526.272312875019
    vertex -9956.050023007505 14396.280003763473 9516.272312875026
    vertex -9954.506464896163 14395.640641059445 9516.272312875026
  endloop
endfacet
facet normal -0.38268343236532776 -0.9238795325111883 3.680695586082366e-13
  outer loop
    vertex -9956.050023007505 14396.280003763473 9516.272312875026
    vertex -9954.506464896162 14395.640641059435 9526.272312875019
    vertex -9956.050023007505 14396.280003763466 9526.272312875019
  endloop
endfacet
facet normal -0.13052619222032125 -0.9914448613737751 4.328098730405904e-13
  outer loop
    vertex -9952.850023007506 14395.422566347694 9516.272312875028
    vertex -9954.506464896162 14395.640641059435 9526.272312875019
    vertex -9954.506464896163 14395.640641059445 9516.272312875026
  endloop
endfacet
facet normal -0.13052619222032125 -0.9914448613737751 4.328098730405904e-13
  outer loop
    vertex -9954.506464896162 14395.640641059435 9526.272312875019
    vertex -9952.850023007506 14395.422566347694 9516.272312875028
    vertex -9952.850023007504 14395.422566347685 9526.272312875019
  endloop
endfacet
facet normal 0.13052619222032125 -0.9914448613737751 4.680549098774064e-13
  outer loop
    vertex -9951.193581118849 14395.640641059435 9526.272312875019
    vertex -9952.850023007506 14395.422566347694 9516.272312875028
    vertex -9951.19358111885 14395.640641059445 9516.272312875028
  endloop
endfacet
facet normal 0.13052619222032125 -0.9914448613737751 4.680549098774064e-13
  outer loop
    vertex -9952.850023007506 14395.422566347694 9516.272312875028
    vertex -9951.193581118849 14395.640641059435 9526.272312875019
    vertex -9952.850023007504 14395.422566347685 9526.272312875019
  endloop
endfacet
facet normal 0.38268343236502217 -0.9238795325113147 4.714027781032998e-13
  outer loop
    vertex -9949.650023007503 14396.280003763466 9526.272312875019
    vertex -9951.19358111885 14395.640641059445 9516.272312875028
    vertex -9949.650023007505 14396.280003763473 9516.272312875028
  endloop
endfacet
facet normal 0.38268343236502217 -0.9238795325113147 4.714027781032998e-13
  outer loop
    vertex -9951.19358111885 14395.640641059445 9516.272312875028
    vertex -9949.650023007503 14396.280003763466 9526.272312875019
    vertex -9951.193581118849 14395.640641059435 9526.272312875019
  endloop
endfacet
facet normal 0.6087614290086574 -0.7933533402912838 4.426253260314048e-13
  outer loop
    vertex -9948.324539607911 14397.297082948093 9526.272312875019
    vertex -9949.650023007505 14396.280003763473 9516.272312875028
    vertex -9948.324539607911 14397.2970829481 9516.272312875028
  endloop
endfacet
facet normal 0.6087614290086574 -0.7933533402912838 4.426253260314048e-13
  outer loop
    vertex -9949.650023007505 14396.280003763473 9516.272312875028
    vertex -9948.324539607911 14397.297082948093 9526.272312875019
    vertex -9949.650023007503 14396.280003763466 9526.272312875019
  endloop
endfacet
facet normal 0.7933533402909634 -0.6087614290090747 3.836836894635077e-13
  outer loop
    vertex -9948.324539607911 14397.2970829481 9516.272312875028
    vertex -9947.307460423284 14398.622566347685 9526.272312875019
    vertex -9948.324539607911 14397.297082948093 9526.272312875019
  endloop
endfacet
facet normal 0.7933533402909634 -0.6087614290090747 3.836836894635077e-13
  outer loop
    vertex -9947.307460423284 14398.622566347685 9526.272312875019
    vertex -9948.324539607911 14397.2970829481 9516.272312875028
    vertex -9947.307460423284 14398.622566347693 9516.272312875028
  endloop
endfacet
facet normal 0.9238795325111883 -0.38268343236532776 2.9859464352581754e-13
  outer loop
    vertex -9947.307460423284 14398.622566347693 9516.272312875028
    vertex -9946.668097719254 14400.166124459027 9526.272312875019
    vertex -9947.307460423284 14398.622566347685 9526.272312875019
  endloop
endfacet
facet normal 0.9238795325111883 -0.38268343236532776 2.9859464352581754e-13
  outer loop
    vertex -9946.668097719254 14400.166124459027 9526.272312875019
    vertex -9947.307460423284 14398.622566347693 9516.272312875028
    vertex -9946.668097719255 14400.166124459036 9516.272312875026
  endloop
endfacet
facet normal 0.9914448613738045 -0.13052619222009756 1.9315686608278365e-13
  outer loop
    vertex -9946.668097719255 14400.166124459036 9516.272312875026
    vertex -9946.450023007503 14401.822566347686 9526.272312875019
    vertex -9946.668097719254 14400.166124459027 9526.272312875019
  endloop
endfacet
facet normal 0.9914448613738045 -0.13052619222009756 1.9315686608278365e-13
  outer loop
    vertex -9946.450023007503 14401.822566347686 9526.272312875019
    vertex -9946.668097719255 14400.166124459036 9516.272312875026
    vertex -9946.450023007505 14401.822566347695 9516.272312875026
  endloop
endfacet
facet normal 0.9914448613738868 0.13052619221947176 7.455576742335157e-14
  outer loop
    vertex -9946.450023007505 14401.822566347695 9516.272312875026
    vertex -9946.668097719252 14403.479008236343 9526.272312875017
    vertex -9946.450023007503 14401.822566347686 9526.272312875019
  endloop
endfacet
facet normal 0.9914448613738868 0.13052619221947176 7.455576742335157e-14
  outer loop
    vertex -9946.668097719252 14403.479008236343 9526.272312875017
    vertex -9946.450023007505 14401.822566347695 9516.272312875026
    vertex -9946.668097719254 14403.479008236352 9516.272312875024
  endloop
endfacet
facet normal 0.9238795325111883 0.38268343236532776 -4.912618357738083e-14
  outer loop
    vertex -9946.668097719254 14403.479008236352 9516.272312875024
    vertex -9947.307460423282 14405.022566347687 9526.272312875015
    vertex -9946.668097719252 14403.479008236343 9526.272312875017
  endloop
endfacet
facet normal 0.9238795325111883 0.38268343236532776 -4.912618357738083e-14
  outer loop
    vertex -9947.307460423282 14405.022566347687 9526.272312875015
    vertex -9946.668097719254 14403.479008236352 9516.272312875024
    vertex -9947.307460423284 14405.022566347694 9516.272312875022
  endloop
endfacet
facet normal 0.7933533402909634 0.6087614290090747 -1.6946026635186093e-13
  outer loop
    vertex -9947.307460423284 14405.022566347694 9516.272312875022
    vertex -9948.32453960791 14406.34804974728 9526.272312875013
    vertex -9947.307460423282 14405.022566347687 9526.272312875015
  endloop
endfacet
facet normal 0.7933533402909634 0.6087614290090747 -1.6946026635186093e-13
  outer loop
    vertex -9948.32453960791 14406.34804974728 9526.272312875013
    vertex -9947.307460423284 14405.022566347694 9516.272312875022
    vertex -9948.324539607911 14406.348049747286 9516.272312875022
  endloop
endfacet
facet normal 0.6087614290097453 0.793353340290449 -2.7824591202003715e-13
  outer loop
    vertex -9949.650023007503 14407.365128931917 9516.272312875022
    vertex -9948.32453960791 14406.34804974728 9526.272312875013
    vertex -9948.324539607911 14406.348049747286 9516.272312875022
  endloop
endfacet
facet normal 0.6087614290097453 0.793353340290449 -2.7824591202003715e-13
  outer loop
    vertex -9948.32453960791 14406.34804974728 9526.272312875013
    vertex -9949.650023007503 14407.365128931917 9516.272312875022
    vertex -9949.650023007503 14407.365128931908 9526.272312875015
  endloop
endfacet
facet normal 0.38268343236532776 0.9238795325111883 -3.680695586082366e-13
  outer loop
    vertex -9951.193581118845 14408.004491635938 9526.272312875015
    vertex -9949.650023007503 14407.365128931917 9516.272312875022
    vertex -9951.193581118847 14408.004491635946 9516.272312875022
  endloop
endfacet
facet normal 0.38268343236532776 0.9238795325111883 -3.680695586082366e-13
  outer loop
    vertex -9949.650023007503 14407.365128931917 9516.272312875022
    vertex -9951.193581118845 14408.004491635938 9526.272312875015
    vertex -9949.650023007503 14407.365128931908 9526.272312875015
  endloop
endfacet
facet normal 0.13052619222032125 0.9914448613737751 -4.328098730405904e-13
  outer loop
    vertex -9952.850023007502 14408.222566347687 9526.272312875013
    vertex -9951.193581118847 14408.004491635946 9516.272312875022
    vertex -9952.850023007504 14408.222566347697 9516.272312875022
  endloop
endfacet
facet normal 0.13052619222032125 0.9914448613737751 -4.328098730405904e-13
  outer loop
    vertex -9951.193581118847 14408.004491635946 9516.272312875022
    vertex -9952.850023007502 14408.222566347687 9526.272312875013
    vertex -9951.193581118845 14408.004491635938 9526.272312875015
  endloop
endfacet
facet normal -0.13052619222032125 0.9914448613737751 -4.680549098774064e-13
  outer loop
    vertex -9954.506464896158 14408.004491635938 9526.272312875013
    vertex -9952.850023007504 14408.222566347697 9516.272312875022
    vertex -9954.50646489616 14408.004491635946 9516.272312875022
  endloop
endfacet
facet normal -0.13052619222032125 0.9914448613737751 -4.680549098774064e-13
  outer loop
    vertex -9952.850023007504 14408.222566347697 9516.272312875022
    vertex -9954.506464896158 14408.004491635938 9526.272312875013
    vertex -9952.850023007502 14408.222566347687 9526.272312875013
  endloop
endfacet
facet normal -0.38268343236502217 0.9238795325113147 -4.714027781032998e-13
  outer loop
    vertex -9956.050023007503 14407.365128931908 9526.272312875013
    vertex -9954.50646489616 14408.004491635946 9516.272312875022
    vertex -9956.050023007505 14407.365128931917 9516.272312875022
  endloop
endfacet
facet normal -0.38268343236502217 0.9238795325113147 -4.714027781032998e-13
  outer loop
    vertex -9954.50646489616 14408.004491635946 9516.272312875022
    vertex -9956.050023007503 14407.365128931908 9526.272312875013
    vertex -9954.506464896158 14408.004491635938 9526.272312875013
  endloop
endfacet
facet normal -0.6087614290086574 0.7933533402912838 -4.426253260314048e-13
  outer loop
    vertex -9957.375506407097 14406.348049747281 9526.272312875013
    vertex -9956.050023007505 14407.365128931917 9516.272312875022
    vertex -9957.375506407097 14406.34804974729 9516.272312875022
  endloop
endfacet
facet normal -0.6087614290086574 0.7933533402912838 -4.426253260314048e-13
  outer loop
    vertex -9956.050023007505 14407.365128931917 9516.272312875022
    vertex -9957.375506407097 14406.348049747281 9526.272312875013
    vertex -9956.050023007503 14407.365128931908 9526.272312875013
  endloop
endfacet
facet normal -0.7933533402909634 0.6087614290090747 -3.836836894635077e-13
  outer loop
    vertex -9957.375506407097 14406.348049747281 9526.272312875013
    vertex -9958.392585591724 14405.022566347698 9516.272312875022
    vertex -9958.392585591724 14405.022566347689 9526.272312875013
  endloop
endfacet
facet normal -0.7933533402909634 0.6087614290090747 -3.836836894635077e-13
  outer loop
    vertex -9958.392585591724 14405.022566347698 9516.272312875022
    vertex -9957.375506407097 14406.348049747281 9526.272312875013
    vertex -9957.375506407097 14406.34804974729 9516.272312875022
  endloop
endfacet
endsolid Main
