solid Main
facet normal 0.0 -1.0 0.0
  outer loop
    vertex -10041.150000000014 14365.125603784243 9450.879664974213
    vertex -10051.150000000014 14365.125603784243 9499.849909802493
    vertex -10051.150000000014 14365.125603784243 9460.879664974213
  endloop
endfacet
facet normal 0.0 -1.0 0.0
  outer loop
    vertex -10051.150000000014 14365.125603784243 9499.849909802493
    vertex -10041.150000000014 14365.125603784243 9450.879664974213
    vertex -10010.550000000014 14365.125603784243 9499.849909802493
  endloop
endfacet
facet normal 0.0 -1.0 0.0
  outer loop
    vertex -10010.550000000014 14365.125603784243 9499.849909802493
    vertex -10041.150000000014 14365.125603784243 9450.879664974213
    vertex -10020.550000000016 14365.125603784243 9450.879664974213
  endloop
endfacet
facet normal 0.0 -1.0 0.0
  outer loop
    vertex -10010.550000000014 14365.125603784243 9499.849909802493
    vertex -10020.550000000016 14365.125603784243 9450.879664974213
    vertex -10010.550000000014 14365.125603784243 9460.879664974213
  endloop
endfacet
facet normal 0.0 0.0 -1.0
  outer loop
    vertex -10048.150000000014 14368.125603784243 9460.879664974213
    vertex -10051.150000000012 14389.225603784242 9460.879664974213
    vertex -10048.150000000014 14389.225603784242 9460.879664974213
  endloop
endfacet
facet normal 0.0 0.0 -1.0
  outer loop
    vertex -10051.150000000012 14389.225603784242 9460.879664974213
    vertex -10048.150000000014 14368.125603784243 9460.879664974213
    vertex -10051.150000000014 14368.125603784243 9460.879664974213
  endloop
endfacet
facet normal -1.0 3.506579729560414e-14 1.4093598998783883e-15
  outer loop
    vertex -10051.150000000014 14365.125603784243 9499.849909802493
    vertex -10051.150000000014 14368.125603784243 9460.879664974213
    vertex -10051.150000000014 14365.125603784243 9460.879664974213
  endloop
endfacet
facet normal -1.0 3.506579729560414e-14 1.4093598998783883e-15
  outer loop
    vertex -10051.150000000014 14368.125603784243 9460.879664974213
    vertex -10051.150000000014 14365.125603784243 9499.849909802493
    vertex -10051.150000000012 14389.225603784242 9460.879664974213
  endloop
endfacet
facet normal -1.0 3.506579729560414e-14 1.4093598998783883e-15
  outer loop
    vertex -10051.150000000012 14389.225603784242 9460.879664974213
    vertex -10051.150000000014 14365.125603784243 9499.849909802493
    vertex -10051.150000000012 14394.153561664789 9461.669091605301
  endloop
endfacet
facet normal -1.0 3.506579729560414e-14 1.4093598998783883e-15
  outer loop
    vertex -10051.150000000012 14394.153561664789 9461.669091605301
    vertex -10051.150000000014 14365.125603784243 9499.849909802493
    vertex -10051.15000000001 14385.51329318301 9476.652476787125
  endloop
endfacet
facet normal -1.0 3.506579729560414e-14 1.4093598998783883e-15
  outer loop
    vertex -10051.150000000012 14394.153561664789 9461.669091605301
    vertex -10051.15000000001 14385.51329318301 9476.652476787125
    vertex -10051.150000000012 14398.719580437391 9463.683895776072
  endloop
endfacet
facet normal -1.0 3.506579729560414e-14 1.4093598998783883e-15
  outer loop
    vertex -10051.150000000012 14398.719580437391 9463.683895776072
    vertex -10051.15000000001 14385.51329318301 9476.652476787125
    vertex -10051.15000000001 14386.600603784242 9475.818154018485
  endloop
endfacet
facet normal -1.0 3.506579729560414e-14 1.4093598998783883e-15
  outer loop
    vertex -10051.150000000012 14398.719580437391 9463.683895776072
    vertex -10051.15000000001 14386.600603784242 9475.818154018485
    vertex -10051.150000000012 14402.62438817793 9466.792020578543
  endloop
endfacet
facet normal -1.0 3.506579729560414e-14 1.4093598998783883e-15
  outer loop
    vertex -10051.150000000012 14402.62438817793 9466.792020578543
    vertex -10051.15000000001 14386.600603784242 9475.818154018485
    vertex -10051.15000000001 14387.866803797453 9475.293676800336
  endloop
endfacet
facet normal -1.0 3.506579729560414e-14 1.4093598998783883e-15
  outer loop
    vertex -10051.150000000012 14402.62438817793 9466.792020578543
    vertex -10051.15000000001 14387.866803797453 9475.293676800336
    vertex -10051.150000000012 14405.612050913285 9470.789749265947
  endloop
endfacet
facet normal -1.0 3.506579729560414e-14 1.4093598998783883e-15
  outer loop
    vertex -10051.150000000012 14405.612050913285 9470.789749265947
    vertex -10051.15000000001 14387.866803797453 9475.293676800336
    vertex -10051.15000000001 14389.225603784242 9475.114787388353
  endloop
endfacet
facet normal -1.0 3.506579729560414e-14 1.4093598998783883e-15
  outer loop
    vertex -10051.15000000001 14385.51329318301 9476.652476787125
    vertex -10051.150000000014 14365.125603784243 9499.849909802493
    vertex -10051.15000000001 14384.678970414372 9477.739787388353
  endloop
endfacet
facet normal -1.0 3.506579729560414e-14 1.4093598998783883e-15
  outer loop
    vertex -10051.15000000001 14384.678970414372 9477.739787388353
    vertex -10051.150000000014 14365.125603784243 9499.849909802493
    vertex -10051.15000000001 14384.154493196223 9479.005987401564
  endloop
endfacet
facet normal -1.0 3.506579729560414e-14 1.4093598998783883e-15
  outer loop
    vertex -10051.15000000001 14384.154493196223 9479.005987401564
    vertex -10051.150000000014 14365.125603784243 9499.849909802493
    vertex -10051.15000000001 14383.97560378424 9480.364787388353
  endloop
endfacet
facet normal -1.0 3.506579729560414e-14 1.4093598998783883e-15
  outer loop
    vertex -10051.15000000001 14383.97560378424 9480.364787388353
    vertex -10051.150000000014 14365.125603784243 9499.849909802493
    vertex -10051.15000000001 14384.154493196223 9481.723587375142
  endloop
endfacet
facet normal -1.0 3.506579729560414e-14 1.4093598998783883e-15
  outer loop
    vertex -10051.15000000001 14384.154493196223 9481.723587375142
    vertex -10051.150000000014 14365.125603784243 9499.849909802493
    vertex -10051.15000000001 14384.678970414372 9482.989787388353
  endloop
endfacet
facet normal -1.0 3.506579729560414e-14 1.4093598998783883e-15
  outer loop
    vertex -10051.15000000001 14384.678970414372 9482.989787388353
    vertex -10051.150000000014 14365.125603784243 9499.849909802493
    vertex -10051.15000000001 14385.51329318301 9484.077097989582
  endloop
endfacet
facet normal -1.0 3.506579729560414e-14 1.4093598998783883e-15
  outer loop
    vertex -10051.15000000001 14385.51329318301 9484.077097989582
    vertex -10051.150000000014 14365.125603784243 9499.849909802493
    vertex -10051.15000000001 14386.60060378424 9484.91142075822
  endloop
endfacet
facet normal -1.0 3.506579729560414e-14 1.4093598998783883e-15
  outer loop
    vertex -10051.15000000001 14386.60060378424 9484.91142075822
    vertex -10051.150000000014 14365.125603784243 9499.849909802493
    vertex -10051.15000000001 14387.866803797453 9485.435897976371
  endloop
endfacet
facet normal -1.0 3.506579729560414e-14 1.4093598998783883e-15
  outer loop
    vertex -10051.15000000001 14387.866803797453 9485.435897976371
    vertex -10051.150000000014 14365.125603784243 9499.849909802493
    vertex -10051.15000000001 14389.225603784242 9485.614787388353
  endloop
endfacet
facet normal -1.0 3.506579729560414e-14 1.4093598998783883e-15
  outer loop
    vertex -10051.15000000001 14389.225603784242 9485.614787388353
    vertex -10051.150000000014 14365.125603784243 9499.849909802493
    vertex -10051.150000000012 14405.612050913285 9489.939825510759
  endloop
endfacet
facet normal -1.0 3.506579729560414e-14 1.4093598998783883e-15
  outer loop
    vertex -10051.150000000012 14405.612050913285 9489.939825510759
    vertex -10051.150000000014 14365.125603784243 9499.849909802493
    vertex -10051.150000000012 14402.62438817793 9493.937554198164
  endloop
endfacet
facet normal -1.0 3.506579729560414e-14 1.4093598998783883e-15
  outer loop
    vertex -10051.150000000012 14402.62438817793 9493.937554198164
    vertex -10051.150000000014 14365.125603784243 9499.849909802493
    vertex -10051.150000000012 14398.719580437391 9497.045679000636
  endloop
endfacet
facet normal -1.0 3.506579729560414e-14 1.4093598998783883e-15
  outer loop
    vertex -10051.150000000012 14398.719580437391 9497.045679000636
    vertex -10051.150000000014 14365.125603784243 9499.849909802493
    vertex -10051.150000000012 14394.153561664789 9499.060483171406
  endloop
endfacet
facet normal -1.0 3.506579729560414e-14 1.4093598998783883e-15
  outer loop
    vertex -10051.150000000012 14394.153561664789 9499.060483171406
    vertex -10051.150000000014 14365.125603784243 9499.849909802493
    vertex -10051.150000000012 14389.225603784242 9499.849909802493
  endloop
endfacet
facet normal -1.0 3.506579729560414e-14 1.4093598998783883e-15
  outer loop
    vertex -10051.15000000001 14389.225603784242 9475.114787388353
    vertex -10051.150000000012 14407.486747377716 9475.415057519951
    vertex -10051.150000000012 14405.612050913285 9470.789749265947
  endloop
endfacet
facet normal -1.0 3.506579729560414e-14 1.4093598998783883e-15
  outer loop
    vertex -10051.150000000012 14407.486747377716 9475.415057519951
    vertex -10051.15000000001 14389.225603784242 9475.114787388353
    vertex -10051.15000000001 14390.584403771029 9475.293676800336
  endloop
endfacet
facet normal -1.0 3.506579729560414e-14 1.4093598998783883e-15
  outer loop
    vertex -10051.150000000012 14407.486747377716 9475.415057519951
    vertex -10051.15000000001 14390.584403771029 9475.293676800336
    vertex -10051.15000000001 14391.850603784242 9475.818154018485
  endloop
endfacet
facet normal -1.0 3.506579729560414e-14 1.4093598998783883e-15
  outer loop
    vertex -10051.150000000012 14407.486747377716 9475.415057519951
    vertex -10051.15000000001 14391.850603784242 9475.818154018485
    vertex -10051.150000000012 14408.12560378424 9480.364787388353
  endloop
endfacet
facet normal -1.0 3.506579729560414e-14 1.4093598998783883e-15
  outer loop
    vertex -10051.150000000012 14408.12560378424 9480.364787388353
    vertex -10051.15000000001 14391.850603784242 9475.818154018485
    vertex -10051.15000000001 14392.937914385471 9476.652476787125
  endloop
endfacet
facet normal -1.0 3.506579729560414e-14 1.4093598998783883e-15
  outer loop
    vertex -10051.150000000012 14408.12560378424 9480.364787388353
    vertex -10051.15000000001 14392.937914385471 9476.652476787125
    vertex -10051.15000000001 14393.772237154111 9477.739787388353
  endloop
endfacet
facet normal -1.0 3.506579729560414e-14 1.4093598998783883e-15
  outer loop
    vertex -10051.150000000012 14408.12560378424 9480.364787388353
    vertex -10051.15000000001 14393.772237154111 9477.739787388353
    vertex -10051.15000000001 14394.296714372258 9479.005987401564
  endloop
endfacet
facet normal -1.0 3.506579729560414e-14 1.4093598998783883e-15
  outer loop
    vertex -10051.150000000012 14408.12560378424 9480.364787388353
    vertex -10051.15000000001 14394.296714372258 9479.005987401564
    vertex -10051.15000000001 14394.475603784242 9480.364787388353
  endloop
endfacet
facet normal -1.0 3.506579729560414e-14 1.4093598998783883e-15
  outer loop
    vertex -10051.150000000012 14408.12560378424 9480.364787388353
    vertex -10051.15000000001 14394.475603784242 9480.364787388353
    vertex -10051.15000000001 14394.296714372258 9481.723587375142
  endloop
endfacet
facet normal -1.0 3.506579729560414e-14 1.4093598998783883e-15
  outer loop
    vertex -10051.150000000012 14408.12560378424 9480.364787388353
    vertex -10051.15000000001 14394.296714372258 9481.723587375142
    vertex -10051.150000000012 14407.486747377716 9485.314517256755
  endloop
endfacet
facet normal -1.0 3.506579729560414e-14 1.4093598998783883e-15
  outer loop
    vertex -10051.150000000012 14407.486747377716 9485.314517256755
    vertex -10051.15000000001 14394.296714372258 9481.723587375142
    vertex -10051.15000000001 14393.772237154111 9482.989787388353
  endloop
endfacet
facet normal -1.0 3.506579729560414e-14 1.4093598998783883e-15
  outer loop
    vertex -10051.150000000012 14407.486747377716 9485.314517256755
    vertex -10051.15000000001 14393.772237154111 9482.989787388353
    vertex -10051.15000000001 14392.937914385471 9484.077097989582
  endloop
endfacet
facet normal -1.0 3.506579729560414e-14 1.4093598998783883e-15
  outer loop
    vertex -10051.150000000012 14407.486747377716 9485.314517256755
    vertex -10051.15000000001 14392.937914385471 9484.077097989582
    vertex -10051.15000000001 14391.85060378424 9484.91142075822
  endloop
endfacet
facet normal -1.0 3.506579729560414e-14 1.4093598998783883e-15
  outer loop
    vertex -10051.150000000012 14407.486747377716 9485.314517256755
    vertex -10051.15000000001 14391.85060378424 9484.91142075822
    vertex -10051.15000000001 14390.584403771029 9485.435897976371
  endloop
endfacet
facet normal -1.0 3.506579729560414e-14 1.4093598998783883e-15
  outer loop
    vertex -10051.150000000012 14407.486747377716 9485.314517256755
    vertex -10051.15000000001 14390.584403771029 9485.435897976371
    vertex -10051.150000000012 14405.612050913285 9489.939825510759
  endloop
endfacet
facet normal -1.0 3.506579729560414e-14 1.4093598998783883e-15
  outer loop
    vertex -10051.150000000012 14405.612050913285 9489.939825510759
    vertex -10051.15000000001 14390.584403771029 9485.435897976371
    vertex -10051.15000000001 14389.225603784242 9485.614787388353
  endloop
endfacet
facet normal 0.0 0.0 1.0
  outer loop
    vertex -10051.150000000014 14365.125603784243 9499.849909802493
    vertex -10048.150000000014 14389.225603784242 9499.849909802493
    vertex -10051.150000000012 14389.225603784242 9499.849909802493
  endloop
endfacet
facet normal 0.0 0.0 1.0
  outer loop
    vertex -10048.150000000014 14389.225603784242 9499.849909802493
    vertex -10051.150000000014 14365.125603784243 9499.849909802493
    vertex -10048.150000000014 14368.125603784243 9499.849909802493
  endloop
endfacet
facet normal 0.0 0.0 1.0
  outer loop
    vertex -10048.150000000014 14368.125603784243 9499.849909802493
    vertex -10051.150000000014 14365.125603784243 9499.849909802493
    vertex -10013.550000000014 14368.125603784243 9499.849909802493
  endloop
endfacet
facet normal 0.0 0.0 1.0
  outer loop
    vertex -10013.550000000014 14368.125603784243 9499.849909802493
    vertex -10010.550000000014 14389.225603784244 9499.849909802493
    vertex -10013.550000000014 14389.225603784244 9499.849909802493
  endloop
endfacet
facet normal 0.0 0.0 1.0
  outer loop
    vertex -10010.550000000014 14389.225603784244 9499.849909802493
    vertex -10013.550000000014 14368.125603784243 9499.849909802493
    vertex -10010.550000000014 14365.125603784243 9499.849909802493
  endloop
endfacet
facet normal 0.0 0.0 1.0
  outer loop
    vertex -10010.550000000014 14365.125603784243 9499.849909802493
    vertex -10013.550000000014 14368.125603784243 9499.849909802493
    vertex -10051.150000000014 14365.125603784243 9499.849909802493
  endloop
endfacet
facet normal -1.0 0.0 0.0
  outer loop
    vertex -10013.550000000014 14368.125603784243 9499.849909802493
    vertex -10013.550000000014 14389.225603784244 9460.879664974213
    vertex -10013.550000000014 14368.125603784243 9460.879664974213
  endloop
endfacet
facet normal -1.0 0.0 0.0
  outer loop
    vertex -10013.550000000014 14389.225603784244 9460.879664974213
    vertex -10013.550000000014 14368.125603784243 9499.849909802493
    vertex -10013.550000000014 14394.153561664793 9461.669091605301
  endloop
endfacet
facet normal -1.0 0.0 0.0
  outer loop
    vertex -10013.550000000014 14394.153561664793 9461.669091605301
    vertex -10013.550000000014 14368.125603784243 9499.849909802493
    vertex -10013.550000000014 14384.983602039854 9477.271581737159
  endloop
endfacet
facet normal -1.0 0.0 0.0
  outer loop
    vertex -10013.550000000014 14394.153561664793 9461.669091605301
    vertex -10013.550000000014 14384.983602039854 9477.271581737159
    vertex -10013.550000000014 14385.928725277125 9476.279069323034
  endloop
endfacet
facet normal -1.0 0.0 0.0
  outer loop
    vertex -10013.550000000014 14394.153561664793 9461.669091605301
    vertex -10013.550000000014 14385.928725277125 9476.279069323034
    vertex -10013.550000000014 14398.719580437393 9463.683895776072
  endloop
endfacet
facet normal -1.0 0.0 0.0
  outer loop
    vertex -10013.550000000014 14398.719580437393 9463.683895776072
    vertex -10013.550000000014 14385.928725277125 9476.279069323034
    vertex -10013.550000000014 14387.098525336301 9475.564991843094
  endloop
endfacet
facet normal -1.0 0.0 0.0
  outer loop
    vertex -10013.550000000014 14398.719580437393 9463.683895776072
    vertex -10013.550000000014 14387.098525336301 9475.564991843094
    vertex -10013.550000000014 14402.624388177934 9466.792020578543
  endloop
endfacet
facet normal -1.0 0.0 0.0
  outer loop
    vertex -10013.550000000014 14402.624388177934 9466.792020578543
    vertex -10013.550000000014 14387.098525336301 9475.564991843094
    vertex -10013.550000000014 14388.413282276546 9475.178012497525
  endloop
endfacet
facet normal -1.0 0.0 0.0
  outer loop
    vertex -10013.550000000014 14402.624388177934 9466.792020578543
    vertex -10013.550000000014 14388.413282276546 9475.178012497525
    vertex -10013.550000000014 14405.612050913287 9470.789749265947
  endloop
endfacet
facet normal -1.0 0.0 0.0
  outer loop
    vertex -10013.550000000014 14405.612050913287 9470.789749265947
    vertex -10013.550000000014 14388.413282276546 9475.178012497525
    vertex -10013.550000000014 14389.783397585114 9475.144503289217
  endloop
endfacet
facet normal -1.0 0.0 0.0
  outer loop
    vertex -10013.550000000014 14384.983602039854 9477.271581737159
    vertex -10013.550000000014 14368.125603784243 9499.849909802493
    vertex -10013.550000000014 14384.327564211228 9478.474891004647
  endloop
endfacet
facet normal -1.0 0.0 0.0
  outer loop
    vertex -10013.550000000014 14384.327564211228 9478.474891004647
    vertex -10013.550000000014 14368.125603784243 9499.849909802493
    vertex -10013.550000000014 14384.005319685108 9479.806993587483
  endloop
endfacet
facet normal -1.0 0.0 0.0
  outer loop
    vertex -10013.550000000014 14384.005319685108 9479.806993587483
    vertex -10013.550000000014 14368.125603784243 9499.849909802493
    vertex -10013.550000000014 14384.038828893417 9481.177108896052
  endloop
endfacet
facet normal -1.0 0.0 0.0
  outer loop
    vertex -10013.550000000014 14384.038828893417 9481.177108896052
    vertex -10013.550000000014 14368.125603784243 9499.849909802493
    vertex -10013.550000000014 14384.425808238984 9482.491865836295
  endloop
endfacet
facet normal -1.0 0.0 0.0
  outer loop
    vertex -10013.550000000014 14384.425808238984 9482.491865836295
    vertex -10013.550000000014 14368.125603784243 9499.849909802493
    vertex -10013.550000000014 14385.139885718925 9483.661665895475
  endloop
endfacet
facet normal -1.0 0.0 0.0
  outer loop
    vertex -10013.550000000014 14385.139885718925 9483.661665895475
    vertex -10013.550000000014 14368.125603784243 9499.849909802493
    vertex -10013.550000000014 14386.13239813305 9484.606789132744
  endloop
endfacet
facet normal -1.0 0.0 0.0
  outer loop
    vertex -10013.550000000014 14386.13239813305 9484.606789132744
    vertex -10013.550000000014 14368.125603784243 9499.849909802493
    vertex -10013.550000000014 14387.335707400538 9485.26282696137
  endloop
endfacet
facet normal -1.0 0.0 0.0
  outer loop
    vertex -10013.550000000014 14387.335707400538 9485.26282696137
    vertex -10013.550000000014 14368.125603784243 9499.849909802493
    vertex -10013.550000000014 14388.667809983373 9485.58507148749
  endloop
endfacet
facet normal -1.0 0.0 0.0
  outer loop
    vertex -10013.550000000014 14388.667809983373 9485.58507148749
    vertex -10013.550000000014 14368.125603784243 9499.849909802493
    vertex -10013.550000000014 14405.612050913287 9489.939825510759
  endloop
endfacet
facet normal -1.0 0.0 0.0
  outer loop
    vertex -10013.550000000014 14405.612050913287 9489.939825510759
    vertex -10013.550000000014 14368.125603784243 9499.849909802493
    vertex -10013.550000000014 14402.624388177934 9493.937554198164
  endloop
endfacet
facet normal -1.0 0.0 0.0
  outer loop
    vertex -10013.550000000014 14402.624388177934 9493.937554198164
    vertex -10013.550000000014 14368.125603784243 9499.849909802493
    vertex -10013.550000000014 14398.719580437393 9497.045679000636
  endloop
endfacet
facet normal -1.0 0.0 0.0
  outer loop
    vertex -10013.550000000014 14398.719580437393 9497.045679000636
    vertex -10013.550000000014 14368.125603784243 9499.849909802493
    vertex -10013.550000000014 14394.153561664793 9499.060483171406
  endloop
endfacet
facet normal -1.0 0.0 0.0
  outer loop
    vertex -10013.550000000014 14394.153561664793 9499.060483171406
    vertex -10013.550000000014 14368.125603784243 9499.849909802493
    vertex -10013.550000000014 14389.225603784244 9499.849909802493
  endloop
endfacet
facet normal -1.0 0.0 0.0
  outer loop
    vertex -10013.550000000014 14389.783397585114 9475.144503289217
    vertex -10013.550000000014 14407.48674737772 9475.415057519951
    vertex -10013.550000000014 14405.612050913287 9470.789749265947
  endloop
endfacet
facet normal -1.0 0.0 0.0
  outer loop
    vertex -10013.550000000014 14407.48674737772 9475.415057519951
    vertex -10013.550000000014 14389.783397585114 9475.144503289217
    vertex -10013.550000000014 14391.11550016795 9475.466747815335
  endloop
endfacet
facet normal -1.0 0.0 0.0
  outer loop
    vertex -10013.550000000014 14407.48674737772 9475.415057519951
    vertex -10013.550000000014 14391.11550016795 9475.466747815335
    vertex -10013.550000000014 14408.125603784243 9480.364787388353
  endloop
endfacet
facet normal -1.0 0.0 0.0
  outer loop
    vertex -10013.550000000014 14408.125603784243 9480.364787388353
    vertex -10013.550000000014 14391.11550016795 9475.466747815335
    vertex -10013.550000000014 14392.31880943544 9476.122785643964
  endloop
endfacet
facet normal -1.0 0.0 0.0
  outer loop
    vertex -10013.550000000014 14408.125603784243 9480.364787388353
    vertex -10013.550000000014 14392.31880943544 9476.122785643964
    vertex -10013.550000000014 14393.311321849562 9477.067908881232
  endloop
endfacet
facet normal -1.0 0.0 0.0
  outer loop
    vertex -10013.550000000014 14408.125603784243 9480.364787388353
    vertex -10013.550000000014 14393.311321849562 9477.067908881232
    vertex -10013.550000000014 14394.025399329503 9478.23770894041
  endloop
endfacet
facet normal -1.0 0.0 0.0
  outer loop
    vertex -10013.550000000014 14408.125603784243 9480.364787388353
    vertex -10013.550000000014 14394.025399329503 9478.23770894041
    vertex -10013.550000000014 14394.412378675072 9479.552465880655
  endloop
endfacet
facet normal -1.0 0.0 0.0
  outer loop
    vertex -10013.550000000014 14408.125603784243 9480.364787388353
    vertex -10013.550000000014 14394.412378675072 9479.552465880655
    vertex -10013.550000000014 14394.445887883381 9480.922581189223
  endloop
endfacet
facet normal -1.0 0.0 0.0
  outer loop
    vertex -10013.550000000014 14408.125603784243 9480.364787388353
    vertex -10013.550000000014 14394.445887883381 9480.922581189223
    vertex -10013.550000000014 14407.48674737772 9485.314517256755
  endloop
endfacet
facet normal -1.0 0.0 0.0
  outer loop
    vertex -10013.550000000014 14407.48674737772 9485.314517256755
    vertex -10013.550000000014 14394.445887883381 9480.922581189223
    vertex -10013.550000000014 14394.123643357261 9482.25468377206
  endloop
endfacet
facet normal -1.0 0.0 0.0
  outer loop
    vertex -10013.550000000014 14407.48674737772 9485.314517256755
    vertex -10013.550000000014 14394.123643357261 9482.25468377206
    vertex -10013.550000000014 14393.467605528635 9483.457993039548
  endloop
endfacet
facet normal -1.0 0.0 0.0
  outer loop
    vertex -10013.550000000014 14407.48674737772 9485.314517256755
    vertex -10013.550000000014 14393.467605528635 9483.457993039548
    vertex -10013.550000000014 14392.522482291364 9484.450505453673
  endloop
endfacet
facet normal -1.0 0.0 0.0
  outer loop
    vertex -10013.550000000014 14407.48674737772 9485.314517256755
    vertex -10013.550000000014 14392.522482291364 9484.450505453673
    vertex -10013.550000000014 14391.352682232186 9485.164582933612
  endloop
endfacet
facet normal -1.0 0.0 0.0
  outer loop
    vertex -10013.550000000014 14407.48674737772 9485.314517256755
    vertex -10013.550000000014 14391.352682232186 9485.164582933612
    vertex -10013.550000000014 14390.037925291943 9485.55156227918
  endloop
endfacet
facet normal -1.0 0.0 0.0
  outer loop
    vertex -10013.550000000014 14407.48674737772 9485.314517256755
    vertex -10013.550000000014 14390.037925291943 9485.55156227918
    vertex -10013.550000000014 14405.612050913287 9489.939825510759
  endloop
endfacet
facet normal -1.0 0.0 0.0
  outer loop
    vertex -10013.550000000014 14405.612050913287 9489.939825510759
    vertex -10013.550000000014 14390.037925291943 9485.55156227918
    vertex -10013.550000000014 14388.667809983373 9485.58507148749
  endloop
endfacet
facet normal 1.0 0.0 0.0
  outer loop
    vertex -10010.550000000014 14407.48674737772 9475.415057519951
    vertex -10010.550000000014 14389.783397585114 9475.144503289217
    vertex -10010.550000000014 14405.612050913287 9470.789749265947
  endloop
endfacet
facet normal 1.0 0.0 0.0
  outer loop
    vertex -10010.550000000014 14389.783397585114 9475.144503289217
    vertex -10010.550000000014 14407.48674737772 9475.415057519951
    vertex -10010.550000000014 14391.11550016795 9475.466747815335
  endloop
endfacet
facet normal 1.0 0.0 0.0
  outer loop
    vertex -10010.550000000014 14391.11550016795 9475.466747815335
    vertex -10010.550000000014 14407.48674737772 9475.415057519951
    vertex -10010.550000000014 14408.125603784243 9480.364787388353
  endloop
endfacet
facet normal 1.0 0.0 0.0
  outer loop
    vertex -10010.550000000014 14391.11550016795 9475.466747815335
    vertex -10010.550000000014 14408.125603784243 9480.364787388353
    vertex -10010.550000000014 14392.31880943544 9476.122785643964
  endloop
endfacet
facet normal 1.0 0.0 0.0
  outer loop
    vertex -10010.550000000014 14392.31880943544 9476.122785643964
    vertex -10010.550000000014 14408.125603784243 9480.364787388353
    vertex -10010.550000000014 14393.311321849562 9477.067908881232
  endloop
endfacet
facet normal 1.0 0.0 0.0
  outer loop
    vertex -10010.550000000014 14393.311321849562 9477.067908881232
    vertex -10010.550000000014 14408.125603784243 9480.364787388353
    vertex -10010.550000000014 14394.025399329503 9478.23770894041
  endloop
endfacet
facet normal 1.0 0.0 0.0
  outer loop
    vertex -10010.550000000014 14394.025399329503 9478.23770894041
    vertex -10010.550000000014 14408.125603784243 9480.364787388353
    vertex -10010.550000000014 14394.412378675072 9479.552465880655
  endloop
endfacet
facet normal 1.0 0.0 0.0
  outer loop
    vertex -10010.550000000014 14394.412378675072 9479.552465880655
    vertex -10010.550000000014 14408.125603784243 9480.364787388353
    vertex -10010.550000000014 14394.445887883381 9480.922581189223
  endloop
endfacet
facet normal 1.0 0.0 0.0
  outer loop
    vertex -10010.550000000014 14394.445887883381 9480.922581189223
    vertex -10010.550000000014 14408.125603784243 9480.364787388353
    vertex -10010.550000000014 14407.48674737772 9485.314517256755
  endloop
endfacet
facet normal 1.0 0.0 0.0
  outer loop
    vertex -10010.550000000014 14394.445887883381 9480.922581189223
    vertex -10010.550000000014 14407.48674737772 9485.314517256755
    vertex -10010.550000000014 14394.123643357261 9482.25468377206
  endloop
endfacet
facet normal 1.0 0.0 0.0
  outer loop
    vertex -10010.550000000014 14394.123643357261 9482.25468377206
    vertex -10010.550000000014 14407.48674737772 9485.314517256755
    vertex -10010.550000000014 14393.467605528635 9483.457993039548
  endloop
endfacet
facet normal 1.0 0.0 0.0
  outer loop
    vertex -10010.550000000014 14393.467605528635 9483.457993039548
    vertex -10010.550000000014 14407.48674737772 9485.314517256755
    vertex -10010.550000000014 14392.522482291364 9484.450505453673
  endloop
endfacet
facet normal 1.0 0.0 0.0
  outer loop
    vertex -10010.550000000014 14392.522482291364 9484.450505453673
    vertex -10010.550000000014 14407.48674737772 9485.314517256755
    vertex -10010.550000000014 14391.352682232186 9485.164582933612
  endloop
endfacet
facet normal 1.0 0.0 0.0
  outer loop
    vertex -10010.550000000014 14391.352682232186 9485.164582933612
    vertex -10010.550000000014 14407.48674737772 9485.314517256755
    vertex -10010.550000000014 14390.037925291943 9485.55156227918
  endloop
endfacet
facet normal 1.0 0.0 0.0
  outer loop
    vertex -10010.550000000014 14390.037925291943 9485.55156227918
    vertex -10010.550000000014 14407.48674737772 9485.314517256755
    vertex -10010.550000000014 14405.612050913287 9489.939825510759
  endloop
endfacet
facet normal 1.0 0.0 0.0
  outer loop
    vertex -10010.550000000014 14390.037925291943 9485.55156227918
    vertex -10010.550000000014 14405.612050913287 9489.939825510759
    vertex -10010.550000000014 14388.667809983373 9485.58507148749
  endloop
endfacet
facet normal 1.0 0.0 0.0
  outer loop
    vertex -10010.550000000014 14394.153561664793 9461.669091605301
    vertex -10010.550000000014 14368.151316159163 9460.879664974213
    vertex -10010.550000000014 14389.225603784244 9460.879664974213
  endloop
endfacet
facet normal 1.0 0.0 0.0
  outer loop
    vertex -10010.550000000014 14368.151316159163 9460.879664974213
    vertex -10010.550000000014 14394.153561664793 9461.669091605301
    vertex -10010.550000000014 14368.125603784243 9460.879664974213
  endloop
endfacet
facet normal 1.0 0.0 0.0
  outer loop
    vertex -10010.550000000014 14368.125603784243 9460.879664974213
    vertex -10010.550000000014 14394.153561664793 9461.669091605301
    vertex -10010.550000000014 14365.125603784243 9460.879664974213
  endloop
endfacet
facet normal 1.0 0.0 0.0
  outer loop
    vertex -10010.550000000014 14365.125603784243 9460.879664974213
    vertex -10010.550000000014 14394.153561664793 9461.669091605301
    vertex -10010.550000000014 14365.125603784243 9499.849909802493
  endloop
endfacet
facet normal 1.0 0.0 0.0
  outer loop
    vertex -10010.550000000014 14365.125603784243 9499.849909802493
    vertex -10010.550000000014 14394.153561664793 9461.669091605301
    vertex -10010.550000000014 14384.983602039854 9477.271581737159
  endloop
endfacet
facet normal 1.0 0.0 0.0
  outer loop
    vertex -10010.550000000014 14384.983602039854 9477.271581737159
    vertex -10010.550000000014 14394.153561664793 9461.669091605301
    vertex -10010.550000000014 14385.928725277125 9476.279069323034
  endloop
endfacet
facet normal 1.0 0.0 0.0
  outer loop
    vertex -10010.550000000014 14385.928725277125 9476.279069323034
    vertex -10010.550000000014 14394.153561664793 9461.669091605301
    vertex -10010.550000000014 14398.719580437393 9463.683895776072
  endloop
endfacet
facet normal 1.0 0.0 0.0
  outer loop
    vertex -10010.550000000014 14385.928725277125 9476.279069323034
    vertex -10010.550000000014 14398.719580437393 9463.683895776072
    vertex -10010.550000000014 14387.098525336301 9475.564991843094
  endloop
endfacet
facet normal 1.0 0.0 0.0
  outer loop
    vertex -10010.550000000014 14387.098525336301 9475.564991843094
    vertex -10010.550000000014 14398.719580437393 9463.683895776072
    vertex -10010.550000000014 14402.624388177934 9466.792020578543
  endloop
endfacet
facet normal 1.0 0.0 0.0
  outer loop
    vertex -10010.550000000014 14387.098525336301 9475.564991843094
    vertex -10010.550000000014 14402.624388177934 9466.792020578543
    vertex -10010.550000000014 14388.413282276546 9475.178012497525
  endloop
endfacet
facet normal 1.0 0.0 0.0
  outer loop
    vertex -10010.550000000014 14388.413282276546 9475.178012497525
    vertex -10010.550000000014 14402.624388177934 9466.792020578543
    vertex -10010.550000000014 14405.612050913287 9470.789749265947
  endloop
endfacet
facet normal 1.0 0.0 0.0
  outer loop
    vertex -10010.550000000014 14388.413282276546 9475.178012497525
    vertex -10010.550000000014 14405.612050913287 9470.789749265947
    vertex -10010.550000000014 14389.783397585114 9475.144503289217
  endloop
endfacet
facet normal 1.0 0.0 0.0
  outer loop
    vertex -10010.550000000014 14365.125603784243 9499.849909802493
    vertex -10010.550000000014 14384.983602039854 9477.271581737159
    vertex -10010.550000000014 14384.327564211228 9478.474891004647
  endloop
endfacet
facet normal 1.0 0.0 0.0
  outer loop
    vertex -10010.550000000014 14365.125603784243 9499.849909802493
    vertex -10010.550000000014 14384.327564211228 9478.474891004647
    vertex -10010.550000000014 14384.005319685108 9479.806993587483
  endloop
endfacet
facet normal 1.0 0.0 0.0
  outer loop
    vertex -10010.550000000014 14365.125603784243 9499.849909802493
    vertex -10010.550000000014 14384.005319685108 9479.806993587483
    vertex -10010.550000000014 14384.038828893417 9481.177108896052
  endloop
endfacet
facet normal 1.0 0.0 0.0
  outer loop
    vertex -10010.550000000014 14365.125603784243 9499.849909802493
    vertex -10010.550000000014 14384.038828893417 9481.177108896052
    vertex -10010.550000000014 14384.425808238984 9482.491865836295
  endloop
endfacet
facet normal 1.0 0.0 0.0
  outer loop
    vertex -10010.550000000014 14365.125603784243 9499.849909802493
    vertex -10010.550000000014 14384.425808238984 9482.491865836295
    vertex -10010.550000000014 14385.139885718925 9483.661665895475
  endloop
endfacet
facet normal 1.0 0.0 0.0
  outer loop
    vertex -10010.550000000014 14365.125603784243 9499.849909802493
    vertex -10010.550000000014 14385.139885718925 9483.661665895475
    vertex -10010.550000000014 14386.13239813305 9484.606789132744
  endloop
endfacet
facet normal 1.0 0.0 0.0
  outer loop
    vertex -10010.550000000014 14365.125603784243 9499.849909802493
    vertex -10010.550000000014 14386.13239813305 9484.606789132744
    vertex -10010.550000000014 14387.335707400538 9485.26282696137
  endloop
endfacet
facet normal 1.0 0.0 0.0
  outer loop
    vertex -10010.550000000014 14365.125603784243 9499.849909802493
    vertex -10010.550000000014 14387.335707400538 9485.26282696137
    vertex -10010.550000000014 14388.667809983373 9485.58507148749
  endloop
endfacet
facet normal 1.0 0.0 0.0
  outer loop
    vertex -10010.550000000014 14365.125603784243 9499.849909802493
    vertex -10010.550000000014 14388.667809983373 9485.58507148749
    vertex -10010.550000000014 14405.612050913287 9489.939825510759
  endloop
endfacet
facet normal 1.0 0.0 0.0
  outer loop
    vertex -10010.550000000014 14365.125603784243 9499.849909802493
    vertex -10010.550000000014 14405.612050913287 9489.939825510759
    vertex -10010.550000000014 14402.624388177934 9493.937554198164
  endloop
endfacet
facet normal 1.0 0.0 0.0
  outer loop
    vertex -10010.550000000014 14365.125603784243 9499.849909802493
    vertex -10010.550000000014 14402.624388177934 9493.937554198164
    vertex -10010.550000000014 14398.719580437393 9497.045679000636
  endloop
endfacet
facet normal 1.0 0.0 0.0
  outer loop
    vertex -10010.550000000014 14365.125603784243 9499.849909802493
    vertex -10010.550000000014 14398.719580437393 9497.045679000636
    vertex -10010.550000000014 14394.153561664793 9499.060483171406
  endloop
endfacet
facet normal 1.0 0.0 0.0
  outer loop
    vertex -10010.550000000014 14365.125603784243 9499.849909802493
    vertex -10010.550000000014 14394.153561664793 9499.060483171406
    vertex -10010.550000000014 14389.225603784244 9499.849909802493
  endloop
endfacet
facet normal 0.0 0.15817675608889006 0.9874108131032372
  outer loop
    vertex -10013.550000000014 14389.225603784244 9499.849909802493
    vertex -10010.550000000014 14394.153561664793 9499.060483171406
    vertex -10013.550000000014 14394.153561664793 9499.060483171406
  endloop
endfacet
facet normal 0.0 0.15817675608889006 0.9874108131032372
  outer loop
    vertex -10010.550000000014 14394.153561664793 9499.060483171406
    vertex -10013.550000000014 14389.225603784244 9499.849909802493
    vertex -10010.550000000014 14389.225603784244 9499.849909802493
  endloop
endfacet
facet normal 0.0 0.4037046323708205 0.9148893757183656
  outer loop
    vertex -10013.550000000014 14394.153561664793 9499.060483171406
    vertex -10010.550000000014 14398.719580437393 9497.045679000636
    vertex -10013.550000000014 14398.719580437393 9497.045679000636
  endloop
endfacet
facet normal 0.0 0.4037046323708205 0.9148893757183656
  outer loop
    vertex -10010.550000000014 14398.719580437393 9497.045679000636
    vertex -10013.550000000014 14394.153561664793 9499.060483171406
    vertex -10010.550000000014 14394.153561664793 9499.060483171406
  endloop
endfacet
facet normal 0.0 0.6227723760686456 0.7824030723391965
  outer loop
    vertex -10013.550000000014 14398.719580437393 9497.045679000636
    vertex -10010.550000000014 14402.624388177934 9493.937554198164
    vertex -10013.550000000014 14402.624388177934 9493.937554198164
  endloop
endfacet
facet normal 0.0 0.6227723760686456 0.7824030723391965
  outer loop
    vertex -10010.550000000014 14402.624388177934 9493.937554198164
    vertex -10013.550000000014 14398.719580437393 9497.045679000636
    vertex -10010.550000000014 14398.719580437393 9497.045679000636
  endloop
endfacet
facet normal 0.0 0.8010215650133691 0.5986354920847352
  outer loop
    vertex -10010.550000000014 14402.624388177934 9493.937554198164
    vertex -10013.550000000014 14405.612050913287 9489.939825510759
    vertex -10013.550000000014 14402.624388177934 9493.937554198164
  endloop
endfacet
facet normal 0.0 0.8010215650133691 0.5986354920847352
  outer loop
    vertex -10013.550000000014 14405.612050913287 9489.939825510759
    vertex -10010.550000000014 14402.624388177934 9493.937554198164
    vertex -10010.550000000014 14405.612050913287 9489.939825510759
  endloop
endfacet
facet normal 0.0 0.9267691596894827 0.3756313680304802
  outer loop
    vertex -10010.550000000014 14405.612050913287 9489.939825510759
    vertex -10013.550000000014 14407.48674737772 9485.314517256755
    vertex -10013.550000000014 14405.612050913287 9489.939825510759
  endloop
endfacet
facet normal 0.0 0.9267691596894827 0.3756313680304802
  outer loop
    vertex -10013.550000000014 14407.48674737772 9485.314517256755
    vertex -10010.550000000014 14405.612050913287 9489.939825510759
    vertex -10010.550000000014 14407.48674737772 9485.314517256755
  endloop
endfacet
facet normal 0.0 0.9917732481631044 0.12800712569230485
  outer loop
    vertex -10010.550000000014 14407.48674737772 9485.314517256755
    vertex -10013.550000000014 14408.125603784243 9480.364787388353
    vertex -10013.550000000014 14407.48674737772 9485.314517256755
  endloop
endfacet
facet normal 0.0 0.9917732481631044 0.12800712569230485
  outer loop
    vertex -10013.550000000014 14408.125603784243 9480.364787388353
    vertex -10010.550000000014 14407.48674737772 9485.314517256755
    vertex -10010.550000000014 14408.125603784243 9480.364787388353
  endloop
endfacet
facet normal 0.0 0.9917732481631044 -0.12800712569230488
  outer loop
    vertex -10010.550000000014 14408.125603784243 9480.364787388353
    vertex -10013.550000000014 14407.48674737772 9475.415057519951
    vertex -10013.550000000014 14408.125603784243 9480.364787388353
  endloop
endfacet
facet normal 0.0 0.9917732481631044 -0.12800712569230488
  outer loop
    vertex -10013.550000000014 14407.48674737772 9475.415057519951
    vertex -10010.550000000014 14408.125603784243 9480.364787388353
    vertex -10010.550000000014 14407.48674737772 9475.415057519951
  endloop
endfacet
facet normal 0.0 0.9267691596894827 -0.3756313680304802
  outer loop
    vertex -10010.550000000014 14407.48674737772 9475.415057519951
    vertex -10013.550000000014 14405.612050913287 9470.789749265947
    vertex -10013.550000000014 14407.48674737772 9475.415057519951
  endloop
endfacet
facet normal 0.0 0.9267691596894827 -0.3756313680304802
  outer loop
    vertex -10013.550000000014 14405.612050913287 9470.789749265947
    vertex -10010.550000000014 14407.48674737772 9475.415057519951
    vertex -10010.550000000014 14405.612050913287 9470.789749265947
  endloop
endfacet
facet normal 0.0 0.8010215650133691 -0.5986354920847352
  outer loop
    vertex -10010.550000000014 14405.612050913287 9470.789749265947
    vertex -10013.550000000014 14402.624388177934 9466.792020578543
    vertex -10013.550000000014 14405.612050913287 9470.789749265947
  endloop
endfacet
facet normal 0.0 0.8010215650133691 -0.5986354920847352
  outer loop
    vertex -10013.550000000014 14402.624388177934 9466.792020578543
    vertex -10010.550000000014 14405.612050913287 9470.789749265947
    vertex -10010.550000000014 14402.624388177934 9466.792020578543
  endloop
endfacet
facet normal 0.0 0.6227723760686456 -0.7824030723391965
  outer loop
    vertex -10010.550000000014 14398.719580437393 9463.683895776072
    vertex -10013.550000000014 14402.624388177934 9466.792020578543
    vertex -10010.550000000014 14402.624388177934 9466.792020578543
  endloop
endfacet
facet normal 0.0 0.6227723760686456 -0.7824030723391965
  outer loop
    vertex -10013.550000000014 14402.624388177934 9466.792020578543
    vertex -10010.550000000014 14398.719580437393 9463.683895776072
    vertex -10013.550000000014 14398.719580437393 9463.683895776072
  endloop
endfacet
facet normal 0.0 0.4037046323708205 -0.9148893757183656
  outer loop
    vertex -10010.550000000014 14394.153561664793 9461.669091605301
    vertex -10013.550000000014 14398.719580437393 9463.683895776072
    vertex -10010.550000000014 14398.719580437393 9463.683895776072
  endloop
endfacet
facet normal 0.0 0.4037046323708205 -0.9148893757183656
  outer loop
    vertex -10013.550000000014 14398.719580437393 9463.683895776072
    vertex -10010.550000000014 14394.153561664793 9461.669091605301
    vertex -10013.550000000014 14394.153561664793 9461.669091605301
  endloop
endfacet
facet normal 0.0 0.1581767560888901 -0.9874108131032372
  outer loop
    vertex -10010.550000000014 14389.225603784244 9460.879664974213
    vertex -10013.550000000014 14394.153561664793 9461.669091605301
    vertex -10010.550000000014 14394.153561664793 9461.669091605301
  endloop
endfacet
facet normal 0.0 0.1581767560888901 -0.9874108131032372
  outer loop
    vertex -10013.550000000014 14394.153561664793 9461.669091605301
    vertex -10010.550000000014 14389.225603784244 9460.879664974213
    vertex -10013.550000000014 14389.225603784244 9460.879664974213
  endloop
endfacet
facet normal 1.0 0.0 0.0
  outer loop
    vertex -10048.150000000014 14407.486747377716 9475.415057519951
    vertex -10048.150000000014 14389.225603784242 9475.114787388353
    vertex -10048.150000000014 14405.612050913285 9470.789749265947
  endloop
endfacet
facet normal 1.0 0.0 0.0
  outer loop
    vertex -10048.150000000014 14389.225603784242 9475.114787388353
    vertex -10048.150000000014 14407.486747377716 9475.415057519951
    vertex -10048.150000000014 14390.584403771029 9475.293676800336
  endloop
endfacet
facet normal 1.0 0.0 0.0
  outer loop
    vertex -10048.150000000014 14390.584403771029 9475.293676800336
    vertex -10048.150000000014 14407.486747377716 9475.415057519951
    vertex -10048.150000000014 14391.850603784242 9475.818154018485
  endloop
endfacet
facet normal 1.0 0.0 0.0
  outer loop
    vertex -10048.150000000014 14391.850603784242 9475.818154018485
    vertex -10048.150000000014 14407.486747377716 9475.415057519951
    vertex -10048.150000000014 14408.12560378424 9480.364787388353
  endloop
endfacet
facet normal 1.0 0.0 0.0
  outer loop
    vertex -10048.150000000014 14391.850603784242 9475.818154018485
    vertex -10048.150000000014 14408.12560378424 9480.364787388353
    vertex -10048.150000000014 14392.937914385471 9476.652476787125
  endloop
endfacet
facet normal 1.0 0.0 0.0
  outer loop
    vertex -10048.150000000014 14392.937914385471 9476.652476787125
    vertex -10048.150000000014 14408.12560378424 9480.364787388353
    vertex -10048.150000000014 14393.772237154111 9477.739787388353
  endloop
endfacet
facet normal 1.0 0.0 0.0
  outer loop
    vertex -10048.150000000014 14393.772237154111 9477.739787388353
    vertex -10048.150000000014 14408.12560378424 9480.364787388353
    vertex -10048.150000000014 14394.296714372258 9479.005987401564
  endloop
endfacet
facet normal 1.0 0.0 0.0
  outer loop
    vertex -10048.150000000014 14394.296714372258 9479.005987401564
    vertex -10048.150000000014 14408.12560378424 9480.364787388353
    vertex -10048.150000000014 14394.475603784242 9480.364787388353
  endloop
endfacet
facet normal 1.0 0.0 0.0
  outer loop
    vertex -10048.150000000014 14394.475603784242 9480.364787388353
    vertex -10048.150000000014 14408.12560378424 9480.364787388353
    vertex -10048.150000000014 14407.486747377716 9485.314517256755
  endloop
endfacet
facet normal 1.0 0.0 0.0
  outer loop
    vertex -10048.150000000014 14394.475603784242 9480.364787388353
    vertex -10048.150000000014 14407.486747377716 9485.314517256755
    vertex -10048.150000000014 14394.296714372258 9481.723587375142
  endloop
endfacet
facet normal 1.0 0.0 0.0
  outer loop
    vertex -10048.150000000014 14394.296714372258 9481.723587375142
    vertex -10048.150000000014 14407.486747377716 9485.314517256755
    vertex -10048.150000000014 14393.772237154111 9482.989787388353
  endloop
endfacet
facet normal 1.0 0.0 0.0
  outer loop
    vertex -10048.150000000014 14393.772237154111 9482.989787388353
    vertex -10048.150000000014 14407.486747377716 9485.314517256755
    vertex -10048.150000000014 14392.937914385471 9484.077097989582
  endloop
endfacet
facet normal 1.0 0.0 0.0
  outer loop
    vertex -10048.150000000014 14392.937914385471 9484.077097989582
    vertex -10048.150000000014 14407.486747377716 9485.314517256755
    vertex -10048.150000000014 14391.85060378424 9484.91142075822
  endloop
endfacet
facet normal 1.0 0.0 0.0
  outer loop
    vertex -10048.150000000014 14391.85060378424 9484.91142075822
    vertex -10048.150000000014 14407.486747377716 9485.314517256755
    vertex -10048.150000000014 14390.584403771029 9485.435897976371
  endloop
endfacet
facet normal 1.0 0.0 0.0
  outer loop
    vertex -10048.150000000014 14390.584403771029 9485.435897976371
    vertex -10048.150000000014 14407.486747377716 9485.314517256755
    vertex -10048.150000000014 14405.612050913285 9489.939825510759
  endloop
endfacet
facet normal 1.0 0.0 0.0
  outer loop
    vertex -10048.150000000014 14390.584403771029 9485.435897976371
    vertex -10048.150000000014 14405.612050913285 9489.939825510759
    vertex -10048.150000000014 14389.225603784242 9485.614787388353
  endloop
endfacet
facet normal 1.0 0.0 0.0
  outer loop
    vertex -10048.150000000014 14394.153561664789 9461.669091605301
    vertex -10048.150000000014 14368.125603784243 9460.879664974213
    vertex -10048.150000000014 14389.225603784242 9460.879664974213
  endloop
endfacet
facet normal 1.0 0.0 0.0
  outer loop
    vertex -10048.150000000014 14368.125603784243 9460.879664974213
    vertex -10048.150000000014 14394.153561664789 9461.669091605301
    vertex -10048.150000000014 14368.125603784243 9499.849909802493
  endloop
endfacet
facet normal 1.0 0.0 0.0
  outer loop
    vertex -10048.150000000014 14368.125603784243 9499.849909802493
    vertex -10048.150000000014 14394.153561664789 9461.669091605301
    vertex -10048.150000000014 14384.678970414372 9477.739787388353
  endloop
endfacet
facet normal 1.0 0.0 0.0
  outer loop
    vertex -10048.150000000014 14384.678970414372 9477.739787388353
    vertex -10048.150000000014 14394.153561664789 9461.669091605301
    vertex -10048.150000000014 14385.51329318301 9476.652476787125
  endloop
endfacet
facet normal 1.0 0.0 0.0
  outer loop
    vertex -10048.150000000014 14385.51329318301 9476.652476787125
    vertex -10048.150000000014 14394.153561664789 9461.669091605301
    vertex -10048.150000000014 14398.719580437391 9463.683895776072
  endloop
endfacet
facet normal 1.0 0.0 0.0
  outer loop
    vertex -10048.150000000014 14385.51329318301 9476.652476787125
    vertex -10048.150000000014 14398.719580437391 9463.683895776072
    vertex -10048.150000000014 14386.600603784242 9475.818154018485
  endloop
endfacet
facet normal 1.0 0.0 0.0
  outer loop
    vertex -10048.150000000014 14386.600603784242 9475.818154018485
    vertex -10048.150000000014 14398.719580437391 9463.683895776072
    vertex -10048.150000000014 14402.62438817793 9466.792020578543
  endloop
endfacet
facet normal 1.0 0.0 0.0
  outer loop
    vertex -10048.150000000014 14386.600603784242 9475.818154018485
    vertex -10048.150000000014 14402.62438817793 9466.792020578543
    vertex -10048.150000000014 14387.866803797453 9475.293676800336
  endloop
endfacet
facet normal 1.0 0.0 0.0
  outer loop
    vertex -10048.150000000014 14387.866803797453 9475.293676800336
    vertex -10048.150000000014 14402.62438817793 9466.792020578543
    vertex -10048.150000000014 14405.612050913285 9470.789749265947
  endloop
endfacet
facet normal 1.0 0.0 0.0
  outer loop
    vertex -10048.150000000014 14387.866803797453 9475.293676800336
    vertex -10048.150000000014 14405.612050913285 9470.789749265947
    vertex -10048.150000000014 14389.225603784242 9475.114787388353
  endloop
endfacet
facet normal 1.0 0.0 0.0
  outer loop
    vertex -10048.150000000014 14368.125603784243 9499.849909802493
    vertex -10048.150000000014 14384.678970414372 9477.739787388353
    vertex -10048.150000000014 14384.154493196223 9479.005987401564
  endloop
endfacet
facet normal 1.0 0.0 0.0
  outer loop
    vertex -10048.150000000014 14368.125603784243 9499.849909802493
    vertex -10048.150000000014 14384.154493196223 9479.005987401564
    vertex -10048.150000000014 14383.97560378424 9480.364787388353
  endloop
endfacet
facet normal 1.0 0.0 0.0
  outer loop
    vertex -10048.150000000014 14368.125603784243 9499.849909802493
    vertex -10048.150000000014 14383.97560378424 9480.364787388353
    vertex -10048.150000000014 14384.154493196223 9481.723587375142
  endloop
endfacet
facet normal 1.0 0.0 0.0
  outer loop
    vertex -10048.150000000014 14368.125603784243 9499.849909802493
    vertex -10048.150000000014 14384.154493196223 9481.723587375142
    vertex -10048.150000000014 14384.678970414372 9482.989787388353
  endloop
endfacet
facet normal 1.0 0.0 0.0
  outer loop
    vertex -10048.150000000014 14368.125603784243 9499.849909802493
    vertex -10048.150000000014 14384.678970414372 9482.989787388353
    vertex -10048.150000000014 14385.51329318301 9484.077097989582
  endloop
endfacet
facet normal 1.0 0.0 0.0
  outer loop
    vertex -10048.150000000014 14368.125603784243 9499.849909802493
    vertex -10048.150000000014 14385.51329318301 9484.077097989582
    vertex -10048.150000000014 14386.60060378424 9484.91142075822
  endloop
endfacet
facet normal 1.0 0.0 0.0
  outer loop
    vertex -10048.150000000014 14368.125603784243 9499.849909802493
    vertex -10048.150000000014 14386.60060378424 9484.91142075822
    vertex -10048.150000000014 14387.866803797453 9485.435897976371
  endloop
endfacet
facet normal 1.0 0.0 0.0
  outer loop
    vertex -10048.150000000014 14368.125603784243 9499.849909802493
    vertex -10048.150000000014 14387.866803797453 9485.435897976371
    vertex -10048.150000000014 14389.225603784242 9485.614787388353
  endloop
endfacet
facet normal 1.0 0.0 0.0
  outer loop
    vertex -10048.150000000014 14368.125603784243 9499.849909802493
    vertex -10048.150000000014 14389.225603784242 9485.614787388353
    vertex -10048.150000000014 14405.612050913285 9489.939825510759
  endloop
endfacet
facet normal 1.0 0.0 0.0
  outer loop
    vertex -10048.150000000014 14368.125603784243 9499.849909802493
    vertex -10048.150000000014 14405.612050913285 9489.939825510759
    vertex -10048.150000000014 14402.62438817793 9493.937554198164
  endloop
endfacet
facet normal 1.0 0.0 0.0
  outer loop
    vertex -10048.150000000014 14368.125603784243 9499.849909802493
    vertex -10048.150000000014 14402.62438817793 9493.937554198164
    vertex -10048.150000000014 14398.719580437391 9497.045679000636
  endloop
endfacet
facet normal 1.0 0.0 0.0
  outer loop
    vertex -10048.150000000014 14368.125603784243 9499.849909802493
    vertex -10048.150000000014 14398.719580437391 9497.045679000636
    vertex -10048.150000000014 14394.153561664789 9499.060483171406
  endloop
endfacet
facet normal 1.0 0.0 0.0
  outer loop
    vertex -10048.150000000014 14368.125603784243 9499.849909802493
    vertex -10048.150000000014 14394.153561664789 9499.060483171406
    vertex -10048.150000000014 14389.225603784242 9499.849909802493
  endloop
endfacet
facet normal -2.160653267842709e-18 0.15817675608889012 0.9874108131032372
  outer loop
    vertex -10051.150000000012 14389.225603784242 9499.849909802493
    vertex -10048.150000000014 14394.153561664789 9499.060483171406
    vertex -10051.150000000012 14394.153561664789 9499.060483171406
  endloop
endfacet
facet normal -2.160653267842709e-18 0.15817675608889012 0.9874108131032372
  outer loop
    vertex -10048.150000000014 14394.153561664789 9499.060483171406
    vertex -10051.150000000012 14389.225603784242 9499.849909802493
    vertex -10048.150000000014 14389.225603784242 9499.849909802493
  endloop
endfacet
facet normal 0.0 0.4037046323708205 0.9148893757183656
  outer loop
    vertex -10051.150000000012 14394.153561664789 9499.060483171406
    vertex -10048.150000000014 14398.719580437391 9497.045679000636
    vertex -10051.150000000012 14398.719580437391 9497.045679000636
  endloop
endfacet
facet normal 0.0 0.4037046323708205 0.9148893757183656
  outer loop
    vertex -10048.150000000014 14398.719580437391 9497.045679000636
    vertex -10051.150000000012 14394.153561664789 9499.060483171406
    vertex -10048.150000000014 14394.153561664789 9499.060483171406
  endloop
endfacet
facet normal 0.0 0.6227723760686456 0.7824030723391965
  outer loop
    vertex -10051.150000000012 14398.719580437391 9497.045679000636
    vertex -10048.150000000014 14402.62438817793 9493.937554198164
    vertex -10051.150000000012 14402.62438817793 9493.937554198164
  endloop
endfacet
facet normal 0.0 0.6227723760686456 0.7824030723391965
  outer loop
    vertex -10048.150000000014 14402.62438817793 9493.937554198164
    vertex -10051.150000000012 14398.719580437391 9497.045679000636
    vertex -10048.150000000014 14398.719580437391 9497.045679000636
  endloop
endfacet
facet normal 0.0 0.8010215650133691 0.5986354920847352
  outer loop
    vertex -10048.150000000014 14402.62438817793 9493.937554198164
    vertex -10051.150000000012 14405.612050913285 9489.939825510759
    vertex -10051.150000000012 14402.62438817793 9493.937554198164
  endloop
endfacet
facet normal 0.0 0.8010215650133691 0.5986354920847352
  outer loop
    vertex -10051.150000000012 14405.612050913285 9489.939825510759
    vertex -10048.150000000014 14402.62438817793 9493.937554198164
    vertex -10048.150000000014 14405.612050913285 9489.939825510759
  endloop
endfacet
facet normal 0.0 0.9267691596894827 0.3756313680304802
  outer loop
    vertex -10048.150000000014 14405.612050913285 9489.939825510759
    vertex -10051.150000000012 14407.486747377716 9485.314517256755
    vertex -10051.150000000012 14405.612050913285 9489.939825510759
  endloop
endfacet
facet normal 0.0 0.9267691596894827 0.3756313680304802
  outer loop
    vertex -10051.150000000012 14407.486747377716 9485.314517256755
    vertex -10048.150000000014 14405.612050913285 9489.939825510759
    vertex -10048.150000000014 14407.486747377716 9485.314517256755
  endloop
endfacet
facet normal -7.959014722338516e-18 0.9917732481631044 0.12800712569230485
  outer loop
    vertex -10048.150000000014 14407.486747377716 9485.314517256755
    vertex -10051.150000000012 14408.12560378424 9480.364787388353
    vertex -10051.150000000012 14407.486747377716 9485.314517256755
  endloop
endfacet
facet normal -7.959014722338516e-18 0.9917732481631044 0.12800712569230485
  outer loop
    vertex -10051.150000000012 14408.12560378424 9480.364787388353
    vertex -10048.150000000014 14407.486747377716 9485.314517256755
    vertex -10048.150000000014 14408.12560378424 9480.364787388353
  endloop
endfacet
facet normal 4.5943882290502885e-25 0.9917732481631044 -0.12800712569230488
  outer loop
    vertex -10048.150000000014 14408.12560378424 9480.364787388353
    vertex -10051.150000000012 14407.486747377716 9475.415057519951
    vertex -10051.150000000012 14408.12560378424 9480.364787388353
  endloop
endfacet
facet normal 4.5943882290502885e-25 0.9917732481631044 -0.12800712569230488
  outer loop
    vertex -10051.150000000012 14407.486747377716 9475.415057519951
    vertex -10048.150000000014 14408.12560378424 9480.364787388353
    vertex -10048.150000000014 14407.486747377716 9475.415057519951
  endloop
endfacet
facet normal 0.0 0.9267691596894827 -0.3756313680304802
  outer loop
    vertex -10048.150000000014 14407.486747377716 9475.415057519951
    vertex -10051.150000000012 14405.612050913285 9470.789749265947
    vertex -10051.150000000012 14407.486747377716 9475.415057519951
  endloop
endfacet
facet normal 0.0 0.9267691596894827 -0.3756313680304802
  outer loop
    vertex -10051.150000000012 14405.612050913285 9470.789749265947
    vertex -10048.150000000014 14407.486747377716 9475.415057519951
    vertex -10048.150000000014 14405.612050913285 9470.789749265947
  endloop
endfacet
facet normal 0.0 0.8010215650133691 -0.5986354920847352
  outer loop
    vertex -10048.150000000014 14405.612050913285 9470.789749265947
    vertex -10051.150000000012 14402.62438817793 9466.792020578543
    vertex -10051.150000000012 14405.612050913285 9470.789749265947
  endloop
endfacet
facet normal 0.0 0.8010215650133691 -0.5986354920847352
  outer loop
    vertex -10051.150000000012 14402.62438817793 9466.792020578543
    vertex -10048.150000000014 14405.612050913285 9470.789749265947
    vertex -10048.150000000014 14402.62438817793 9466.792020578543
  endloop
endfacet
facet normal 0.0 0.6227723760686456 -0.7824030723391965
  outer loop
    vertex -10048.150000000014 14398.719580437391 9463.683895776072
    vertex -10051.150000000012 14402.62438817793 9466.792020578543
    vertex -10048.150000000014 14402.62438817793 9466.792020578543
  endloop
endfacet
facet normal 0.0 0.6227723760686456 -0.7824030723391965
  outer loop
    vertex -10051.150000000012 14402.62438817793 9466.792020578543
    vertex -10048.150000000014 14398.719580437391 9463.683895776072
    vertex -10051.150000000012 14398.719580437391 9463.683895776072
  endloop
endfacet
facet normal 0.0 0.4037046323708205 -0.9148893757183656
  outer loop
    vertex -10048.150000000014 14394.153561664789 9461.669091605301
    vertex -10051.150000000012 14398.719580437391 9463.683895776072
    vertex -10048.150000000014 14398.719580437391 9463.683895776072
  endloop
endfacet
facet normal 0.0 0.4037046323708205 -0.9148893757183656
  outer loop
    vertex -10051.150000000012 14398.719580437391 9463.683895776072
    vertex -10048.150000000014 14394.153561664789 9461.669091605301
    vertex -10051.150000000012 14394.153561664789 9461.669091605301
  endloop
endfacet
facet normal -2.1606532678427076e-18 0.1581767560888901 -0.9874108131032372
  outer loop
    vertex -10048.150000000014 14389.225603784242 9460.879664974213
    vertex -10051.150000000012 14394.153561664789 9461.669091605301
    vertex -10048.150000000014 14394.153561664789 9461.669091605301
  endloop
endfacet
facet normal -2.1606532678427076e-18 0.1581767560888901 -0.9874108131032372
  outer loop
    vertex -10051.150000000012 14394.153561664789 9461.669091605301
    vertex -10048.150000000014 14389.225603784242 9460.879664974213
    vertex -10051.150000000012 14389.225603784242 9460.879664974213
  endloop
endfacet
facet normal 0.0 -0.47867628818400515 0.8779914641557648
  outer loop
    vertex -10013.550000000014 14391.11550016795 9475.466747815335
    vertex -10010.550000000014 14392.31880943544 9476.122785643964
    vertex -10013.550000000014 14392.31880943544 9476.122785643964
  endloop
endfacet
facet normal 0.0 -0.47867628818400515 0.8779914641557648
  outer loop
    vertex -10010.550000000014 14392.31880943544 9476.122785643964
    vertex -10013.550000000014 14391.11550016795 9475.466747815335
    vertex -10010.550000000014 14391.11550016795 9475.466747815335
  endloop
endfacet
facet normal 0.0 -0.6896067015499593 0.724184090668516
  outer loop
    vertex -10013.550000000014 14392.31880943544 9476.122785643964
    vertex -10010.550000000014 14393.311321849562 9477.067908881232
    vertex -10013.550000000014 14393.311321849562 9477.067908881232
  endloop
endfacet
facet normal 0.0 -0.6896067015499593 0.724184090668516
  outer loop
    vertex -10010.550000000014 14393.311321849562 9477.067908881232
    vertex -10013.550000000014 14392.31880943544 9476.122785643964
    vertex -10010.550000000014 14392.31880943544 9476.122785643964
  endloop
endfacet
facet normal 0.0 -0.8535415578340226 0.5210247681735196
  outer loop
    vertex -10010.550000000014 14393.311321849562 9477.067908881232
    vertex -10013.550000000014 14394.025399329503 9478.23770894041
    vertex -10013.550000000014 14393.311321849562 9477.067908881232
  endloop
endfacet
facet normal 0.0 -0.8535415578340226 0.5210247681735196
  outer loop
    vertex -10013.550000000014 14394.025399329503 9478.23770894041
    vertex -10010.550000000014 14393.311321849562 9477.067908881232
    vertex -10010.550000000014 14394.025399329503 9478.23770894041
  endloop
endfacet
facet normal 0.0 -0.9593089674966879 0.2823584687599057
  outer loop
    vertex -10010.550000000014 14394.025399329503 9478.23770894041
    vertex -10013.550000000014 14394.412378675072 9479.552465880655
    vertex -10013.550000000014 14394.025399329503 9478.23770894041
  endloop
endfacet
facet normal 0.0 -0.9593089674966879 0.2823584687599057
  outer loop
    vertex -10013.550000000014 14394.412378675072 9479.552465880655
    vertex -10010.550000000014 14394.025399329503 9478.23770894041
    vertex -10010.550000000014 14394.412378675072 9479.552465880655
  endloop
endfacet
facet normal 0.0 -0.9997010563567676 0.024449906322171543
  outer loop
    vertex -10010.550000000014 14394.412378675072 9479.552465880655
    vertex -10013.550000000014 14394.445887883381 9480.922581189223
    vertex -10013.550000000014 14394.412378675072 9479.552465880655
  endloop
endfacet
facet normal 0.0 -0.9997010563567676 0.024449906322171543
  outer loop
    vertex -10013.550000000014 14394.445887883381 9480.922581189223
    vertex -10010.550000000014 14394.412378675072 9479.552465880655
    vertex -10010.550000000014 14394.445887883381 9480.922581189223
  endloop
endfacet
facet normal 0.0 -0.9719651703104237 -0.2351248768281002
  outer loop
    vertex -10010.550000000014 14394.445887883381 9480.922581189223
    vertex -10013.550000000014 14394.123643357261 9482.25468377206
    vertex -10013.550000000014 14394.445887883381 9480.922581189223
  endloop
endfacet
facet normal 0.0 -0.9719651703104237 -0.2351248768281002
  outer loop
    vertex -10013.550000000014 14394.123643357261 9482.25468377206
    vertex -10010.550000000014 14394.445887883381 9480.922581189223
    vertex -10010.550000000014 14394.123643357261 9482.25468377206
  endloop
endfacet
facet normal 0.0 -0.8779914641562074 -0.478676288183193
  outer loop
    vertex -10010.550000000014 14394.123643357261 9482.25468377206
    vertex -10013.550000000014 14393.467605528635 9483.457993039548
    vertex -10013.550000000014 14394.123643357261 9482.25468377206
  endloop
endfacet
facet normal 0.0 -0.8779914641562074 -0.478676288183193
  outer loop
    vertex -10013.550000000014 14393.467605528635 9483.457993039548
    vertex -10010.550000000014 14394.123643357261 9482.25468377206
    vertex -10010.550000000014 14393.467605528635 9483.457993039548
  endloop
endfacet
facet normal 0.0 -0.7241840906684909 -0.6896067015499857
  outer loop
    vertex -10010.550000000014 14393.467605528635 9483.457993039548
    vertex -10013.550000000014 14392.522482291364 9484.450505453673
    vertex -10013.550000000014 14393.467605528635 9483.457993039548
  endloop
endfacet
facet normal 0.0 -0.7241840906684909 -0.6896067015499857
  outer loop
    vertex -10013.550000000014 14392.522482291364 9484.450505453673
    vertex -10010.550000000014 14393.467605528635 9483.457993039548
    vertex -10010.550000000014 14392.522482291364 9484.450505453673
  endloop
endfacet
facet normal 0.0 -0.5210247681732207 -0.8535415578342053
  outer loop
    vertex -10010.550000000014 14391.352682232186 9485.164582933612
    vertex -10013.550000000014 14392.522482291364 9484.450505453673
    vertex -10010.550000000014 14392.522482291364 9484.450505453673
  endloop
endfacet
facet normal 0.0 -0.5210247681732207 -0.8535415578342053
  outer loop
    vertex -10013.550000000014 14392.522482291364 9484.450505453673
    vertex -10010.550000000014 14391.352682232186 9485.164582933612
    vertex -10013.550000000014 14391.352682232186 9485.164582933612
  endloop
endfacet
facet normal 0.0 -0.2823584687608752 -0.9593089674964027
  outer loop
    vertex -10010.550000000014 14390.037925291943 9485.55156227918
    vertex -10013.550000000014 14391.352682232186 9485.164582933612
    vertex -10010.550000000014 14391.352682232186 9485.164582933612
  endloop
endfacet
facet normal 0.0 -0.2823584687608752 -0.9593089674964027
  outer loop
    vertex -10013.550000000014 14391.352682232186 9485.164582933612
    vertex -10010.550000000014 14390.037925291943 9485.55156227918
    vertex -10013.550000000014 14390.037925291943 9485.55156227918
  endloop
endfacet
facet normal 0.0 -0.024449906321118698 -0.9997010563567935
  outer loop
    vertex -10010.550000000014 14388.667809983373 9485.58507148749
    vertex -10013.550000000014 14390.037925291943 9485.55156227918
    vertex -10010.550000000014 14390.037925291943 9485.55156227918
  endloop
endfacet
facet normal 0.0 -0.024449906321118698 -0.9997010563567935
  outer loop
    vertex -10013.550000000014 14390.037925291943 9485.55156227918
    vertex -10010.550000000014 14388.667809983373 9485.58507148749
    vertex -10013.550000000014 14388.667809983373 9485.58507148749
  endloop
endfacet
facet normal 0.0 0.23512487682710495 -0.9719651703106644
  outer loop
    vertex -10010.550000000014 14387.335707400538 9485.26282696137
    vertex -10013.550000000014 14388.667809983373 9485.58507148749
    vertex -10010.550000000014 14388.667809983373 9485.58507148749
  endloop
endfacet
facet normal 0.0 0.23512487682710495 -0.9719651703106644
  outer loop
    vertex -10013.550000000014 14388.667809983373 9485.58507148749
    vertex -10010.550000000014 14387.335707400538 9485.26282696137
    vertex -10013.550000000014 14387.335707400538 9485.26282696137
  endloop
endfacet
facet normal 0.0 0.47867628818400515 -0.8779914641557648
  outer loop
    vertex -10010.550000000014 14386.13239813305 9484.606789132744
    vertex -10013.550000000014 14387.335707400538 9485.26282696137
    vertex -10010.550000000014 14387.335707400538 9485.26282696137
  endloop
endfacet
facet normal 0.0 0.47867628818400515 -0.8779914641557648
  outer loop
    vertex -10013.550000000014 14387.335707400538 9485.26282696137
    vertex -10010.550000000014 14386.13239813305 9484.606789132744
    vertex -10013.550000000014 14386.13239813305 9484.606789132744
  endloop
endfacet
facet normal 0.0 0.6896067015499593 -0.724184090668516
  outer loop
    vertex -10010.550000000014 14385.139885718925 9483.661665895475
    vertex -10013.550000000014 14386.13239813305 9484.606789132744
    vertex -10010.550000000014 14386.13239813305 9484.606789132744
  endloop
endfacet
facet normal 0.0 0.6896067015499593 -0.724184090668516
  outer loop
    vertex -10013.550000000014 14386.13239813305 9484.606789132744
    vertex -10010.550000000014 14385.139885718925 9483.661665895475
    vertex -10013.550000000014 14385.139885718925 9483.661665895475
  endloop
endfacet
facet normal 0.0 0.8535415578340226 -0.5210247681735196
  outer loop
    vertex -10010.550000000014 14385.139885718925 9483.661665895475
    vertex -10013.550000000014 14384.425808238984 9482.491865836295
    vertex -10013.550000000014 14385.139885718925 9483.661665895475
  endloop
endfacet
facet normal 0.0 0.8535415578340226 -0.5210247681735196
  outer loop
    vertex -10013.550000000014 14384.425808238984 9482.491865836295
    vertex -10010.550000000014 14385.139885718925 9483.661665895475
    vertex -10010.550000000014 14384.425808238984 9482.491865836295
  endloop
endfacet
facet normal 0.0 0.9593089674966879 -0.2823584687599057
  outer loop
    vertex -10010.550000000014 14384.425808238984 9482.491865836295
    vertex -10013.550000000014 14384.038828893417 9481.177108896052
    vertex -10013.550000000014 14384.425808238984 9482.491865836295
  endloop
endfacet
facet normal 0.0 0.9593089674966879 -0.2823584687599057
  outer loop
    vertex -10013.550000000014 14384.038828893417 9481.177108896052
    vertex -10010.550000000014 14384.425808238984 9482.491865836295
    vertex -10010.550000000014 14384.038828893417 9481.177108896052
  endloop
endfacet
facet normal 0.0 0.9997010563567676 -0.024449906322171543
  outer loop
    vertex -10010.550000000014 14384.038828893417 9481.177108896052
    vertex -10013.550000000014 14384.005319685108 9479.806993587483
    vertex -10013.550000000014 14384.038828893417 9481.177108896052
  endloop
endfacet
facet normal 0.0 0.9997010563567676 -0.024449906322171543
  outer loop
    vertex -10013.550000000014 14384.005319685108 9479.806993587483
    vertex -10010.550000000014 14384.038828893417 9481.177108896052
    vertex -10010.550000000014 14384.005319685108 9479.806993587483
  endloop
endfacet
facet normal 0.0 0.9719651703104237 0.2351248768281002
  outer loop
    vertex -10010.550000000014 14384.005319685108 9479.806993587483
    vertex -10013.550000000014 14384.327564211228 9478.474891004647
    vertex -10013.550000000014 14384.005319685108 9479.806993587483
  endloop
endfacet
facet normal 0.0 0.9719651703104237 0.2351248768281002
  outer loop
    vertex -10013.550000000014 14384.327564211228 9478.474891004647
    vertex -10010.550000000014 14384.005319685108 9479.806993587483
    vertex -10010.550000000014 14384.327564211228 9478.474891004647
  endloop
endfacet
facet normal 0.0 0.8779914641562074 0.478676288183193
  outer loop
    vertex -10010.550000000014 14384.327564211228 9478.474891004647
    vertex -10013.550000000014 14384.983602039854 9477.271581737159
    vertex -10013.550000000014 14384.327564211228 9478.474891004647
  endloop
endfacet
facet normal 0.0 0.8779914641562074 0.478676288183193
  outer loop
    vertex -10013.550000000014 14384.983602039854 9477.271581737159
    vertex -10010.550000000014 14384.327564211228 9478.474891004647
    vertex -10010.550000000014 14384.983602039854 9477.271581737159
  endloop
endfacet
facet normal 0.0 0.7241840906684909 0.6896067015499857
  outer loop
    vertex -10010.550000000014 14384.983602039854 9477.271581737159
    vertex -10013.550000000014 14385.928725277125 9476.279069323034
    vertex -10013.550000000014 14384.983602039854 9477.271581737159
  endloop
endfacet
facet normal 0.0 0.7241840906684909 0.6896067015499857
  outer loop
    vertex -10013.550000000014 14385.928725277125 9476.279069323034
    vertex -10010.550000000014 14384.983602039854 9477.271581737159
    vertex -10010.550000000014 14385.928725277125 9476.279069323034
  endloop
endfacet
facet normal 0.0 0.5210247681732207 0.8535415578342053
  outer loop
    vertex -10013.550000000014 14385.928725277125 9476.279069323034
    vertex -10010.550000000014 14387.098525336301 9475.564991843094
    vertex -10013.550000000014 14387.098525336301 9475.564991843094
  endloop
endfacet
facet normal 0.0 0.5210247681732207 0.8535415578342053
  outer loop
    vertex -10010.550000000014 14387.098525336301 9475.564991843094
    vertex -10013.550000000014 14385.928725277125 9476.279069323034
    vertex -10010.550000000014 14385.928725277125 9476.279069323034
  endloop
endfacet
facet normal 0.0 0.2823584687608752 0.9593089674964027
  outer loop
    vertex -10013.550000000014 14387.098525336301 9475.564991843094
    vertex -10010.550000000014 14388.413282276546 9475.178012497525
    vertex -10013.550000000014 14388.413282276546 9475.178012497525
  endloop
endfacet
facet normal 0.0 0.2823584687608752 0.9593089674964027
  outer loop
    vertex -10010.550000000014 14388.413282276546 9475.178012497525
    vertex -10013.550000000014 14387.098525336301 9475.564991843094
    vertex -10010.550000000014 14387.098525336301 9475.564991843094
  endloop
endfacet
facet normal 0.0 0.024449906321118698 0.9997010563567935
  outer loop
    vertex -10013.550000000014 14388.413282276546 9475.178012497525
    vertex -10010.550000000014 14389.783397585114 9475.144503289217
    vertex -10013.550000000014 14389.783397585114 9475.144503289217
  endloop
endfacet
facet normal 0.0 0.024449906321118698 0.9997010563567935
  outer loop
    vertex -10010.550000000014 14389.783397585114 9475.144503289217
    vertex -10013.550000000014 14388.413282276546 9475.178012497525
    vertex -10010.550000000014 14388.413282276546 9475.178012497525
  endloop
endfacet
facet normal 0.0 -0.23512487682710495 0.9719651703106644
  outer loop
    vertex -10013.550000000014 14389.783397585114 9475.144503289217
    vertex -10010.550000000014 14391.11550016795 9475.466747815335
    vertex -10013.550000000014 14391.11550016795 9475.466747815335
  endloop
endfacet
facet normal 0.0 -0.23512487682710495 0.9719651703106644
  outer loop
    vertex -10010.550000000014 14391.11550016795 9475.466747815335
    vertex -10013.550000000014 14389.783397585114 9475.144503289217
    vertex -10010.550000000014 14389.783397585114 9475.144503289217
  endloop
endfacet
facet normal 0.0 0.13052619222036305 0.9914448613737695
  outer loop
    vertex -10051.15000000001 14387.866803797453 9475.293676800336
    vertex -10048.150000000014 14389.225603784242 9475.114787388353
    vertex -10051.15000000001 14389.225603784242 9475.114787388353
  endloop
endfacet
facet normal 0.0 0.13052619222036305 0.9914448613737695
  outer loop
    vertex -10048.150000000014 14389.225603784242 9475.114787388353
    vertex -10051.15000000001 14387.866803797453 9475.293676800336
    vertex -10048.150000000014 14387.866803797453 9475.293676800336
  endloop
endfacet
facet normal 0.0 -0.13052619222036305 0.9914448613737695
  outer loop
    vertex -10051.15000000001 14389.225603784242 9475.114787388353
    vertex -10048.150000000014 14390.584403771029 9475.293676800336
    vertex -10051.15000000001 14390.584403771029 9475.293676800336
  endloop
endfacet
facet normal 0.0 -0.13052619222036305 0.9914448613737695
  outer loop
    vertex -10048.150000000014 14390.584403771029 9475.293676800336
    vertex -10051.15000000001 14389.225603784242 9475.114787388353
    vertex -10048.150000000014 14389.225603784242 9475.114787388353
  endloop
endfacet
facet normal 0.0 -0.38268343236449215 0.9238795325115344
  outer loop
    vertex -10051.15000000001 14390.584403771029 9475.293676800336
    vertex -10048.150000000014 14391.850603784242 9475.818154018485
    vertex -10051.15000000001 14391.850603784242 9475.818154018485
  endloop
endfacet
facet normal 0.0 -0.38268343236449215 0.9238795325115344
  outer loop
    vertex -10048.150000000014 14391.850603784242 9475.818154018485
    vertex -10051.15000000001 14390.584403771029 9475.293676800336
    vertex -10048.150000000014 14390.584403771029 9475.293676800336
  endloop
endfacet
facet normal 0.0 -0.6087614290090346 0.7933533402909945
  outer loop
    vertex -10051.15000000001 14391.850603784242 9475.818154018485
    vertex -10048.150000000014 14392.937914385471 9476.652476787125
    vertex -10051.15000000001 14392.937914385471 9476.652476787125
  endloop
endfacet
facet normal 0.0 -0.6087614290090346 0.7933533402909945
  outer loop
    vertex -10048.150000000014 14392.937914385471 9476.652476787125
    vertex -10051.15000000001 14391.850603784242 9475.818154018485
    vertex -10048.150000000014 14391.850603784242 9475.818154018485
  endloop
endfacet
facet normal 0.0 -0.7933533402909945 0.6087614290090346
  outer loop
    vertex -10048.150000000014 14392.937914385471 9476.652476787125
    vertex -10051.15000000001 14393.772237154111 9477.739787388353
    vertex -10051.15000000001 14392.937914385471 9476.652476787125
  endloop
endfacet
facet normal 0.0 -0.7933533402909945 0.6087614290090346
  outer loop
    vertex -10051.15000000001 14393.772237154111 9477.739787388353
    vertex -10048.150000000014 14392.937914385471 9476.652476787125
    vertex -10048.150000000014 14393.772237154111 9477.739787388353
  endloop
endfacet
facet normal 0.0 -0.9238795325115983 0.38268343236433777
  outer loop
    vertex -10048.150000000014 14393.772237154111 9477.739787388353
    vertex -10051.15000000001 14394.296714372258 9479.005987401564
    vertex -10051.15000000001 14393.772237154111 9477.739787388353
  endloop
endfacet
facet normal 0.0 -0.9238795325115983 0.38268343236433777
  outer loop
    vertex -10051.15000000001 14394.296714372258 9479.005987401564
    vertex -10048.150000000014 14393.772237154111 9477.739787388353
    vertex -10048.150000000014 14394.296714372258 9479.005987401564
  endloop
endfacet
facet normal 0.0 -0.9914448613737874 0.13052619222022668
  outer loop
    vertex -10048.150000000014 14394.296714372258 9479.005987401564
    vertex -10051.15000000001 14394.475603784242 9480.364787388353
    vertex -10051.15000000001 14394.296714372258 9479.005987401564
  endloop
endfacet
facet normal 0.0 -0.9914448613737874 0.13052619222022668
  outer loop
    vertex -10051.15000000001 14394.475603784242 9480.364787388353
    vertex -10048.150000000014 14394.296714372258 9479.005987401564
    vertex -10048.150000000014 14394.475603784242 9480.364787388353
  endloop
endfacet
facet normal 0.0 -0.9914448613737874 -0.13052619222022668
  outer loop
    vertex -10048.150000000014 14394.475603784242 9480.364787388353
    vertex -10051.15000000001 14394.296714372258 9481.723587375142
    vertex -10051.15000000001 14394.475603784242 9480.364787388353
  endloop
endfacet
facet normal 0.0 -0.9914448613737874 -0.13052619222022668
  outer loop
    vertex -10051.15000000001 14394.296714372258 9481.723587375142
    vertex -10048.150000000014 14394.475603784242 9480.364787388353
    vertex -10048.150000000014 14394.296714372258 9481.723587375142
  endloop
endfacet
facet normal 0.0 -0.9238795325115983 -0.38268343236433777
  outer loop
    vertex -10048.150000000014 14394.296714372258 9481.723587375142
    vertex -10051.15000000001 14393.772237154111 9482.989787388353
    vertex -10051.15000000001 14394.296714372258 9481.723587375142
  endloop
endfacet
facet normal 0.0 -0.9238795325115983 -0.38268343236433777
  outer loop
    vertex -10051.15000000001 14393.772237154111 9482.989787388353
    vertex -10048.150000000014 14394.296714372258 9481.723587375142
    vertex -10048.150000000014 14393.772237154111 9482.989787388353
  endloop
endfacet
facet normal 0.0 -0.7933533402909945 -0.6087614290090346
  outer loop
    vertex -10048.150000000014 14393.772237154111 9482.989787388353
    vertex -10051.15000000001 14392.937914385471 9484.077097989582
    vertex -10051.15000000001 14393.772237154111 9482.989787388353
  endloop
endfacet
facet normal 0.0 -0.7933533402909945 -0.6087614290090346
  outer loop
    vertex -10051.15000000001 14392.937914385471 9484.077097989582
    vertex -10048.150000000014 14393.772237154111 9482.989787388353
    vertex -10048.150000000014 14392.937914385471 9484.077097989582
  endloop
endfacet
facet normal 0.0 -0.608761429008017 -0.7933533402917753
  outer loop
    vertex -10048.150000000014 14391.85060378424 9484.91142075822
    vertex -10051.15000000001 14392.937914385471 9484.077097989582
    vertex -10048.150000000014 14392.937914385471 9484.077097989582
  endloop
endfacet
facet normal 0.0 -0.608761429008017 -0.7933533402917753
  outer loop
    vertex -10051.15000000001 14392.937914385471 9484.077097989582
    vertex -10048.150000000014 14391.85060378424 9484.91142075822
    vertex -10051.15000000001 14391.85060378424 9484.91142075822
  endloop
endfacet
facet normal 0.0 -0.382683432365237 -0.9238795325112258
  outer loop
    vertex -10048.150000000014 14390.584403771029 9485.435897976371
    vertex -10051.15000000001 14391.85060378424 9484.91142075822
    vertex -10048.150000000014 14391.85060378424 9484.91142075822
  endloop
endfacet
facet normal 0.0 -0.382683432365237 -0.9238795325112258
  outer loop
    vertex -10051.15000000001 14391.85060378424 9484.91142075822
    vertex -10048.150000000014 14390.584403771029 9485.435897976371
    vertex -10051.15000000001 14390.584403771029 9485.435897976371
  endloop
endfacet
facet normal 0.0 -0.13052619222036305 -0.9914448613737695
  outer loop
    vertex -10048.150000000014 14389.225603784242 9485.614787388353
    vertex -10051.15000000001 14390.584403771029 9485.435897976371
    vertex -10048.150000000014 14390.584403771029 9485.435897976371
  endloop
endfacet
facet normal 0.0 -0.13052619222036305 -0.9914448613737695
  outer loop
    vertex -10051.15000000001 14390.584403771029 9485.435897976371
    vertex -10048.150000000014 14389.225603784242 9485.614787388353
    vertex -10051.15000000001 14389.225603784242 9485.614787388353
  endloop
endfacet
facet normal 0.0 0.13052619222036305 -0.9914448613737695
  outer loop
    vertex -10048.150000000014 14387.866803797453 9485.435897976371
    vertex -10051.15000000001 14389.225603784242 9485.614787388353
    vertex -10048.150000000014 14389.225603784242 9485.614787388353
  endloop
endfacet
facet normal 0.0 0.13052619222036305 -0.9914448613737695
  outer loop
    vertex -10051.15000000001 14389.225603784242 9485.614787388353
    vertex -10048.150000000014 14387.866803797453 9485.435897976371
    vertex -10051.15000000001 14387.866803797453 9485.435897976371
  endloop
endfacet
facet normal 0.0 0.38268343236449215 -0.9238795325115344
  outer loop
    vertex -10048.150000000014 14386.60060378424 9484.91142075822
    vertex -10051.15000000001 14387.866803797453 9485.435897976371
    vertex -10048.150000000014 14387.866803797453 9485.435897976371
  endloop
endfacet
facet normal 0.0 0.38268343236449215 -0.9238795325115344
  outer loop
    vertex -10051.15000000001 14387.866803797453 9485.435897976371
    vertex -10048.150000000014 14386.60060378424 9484.91142075822
    vertex -10051.15000000001 14386.60060378424 9484.91142075822
  endloop
endfacet
facet normal 0.0 0.6087614290090346 -0.7933533402909945
  outer loop
    vertex -10048.150000000014 14385.51329318301 9484.077097989582
    vertex -10051.15000000001 14386.60060378424 9484.91142075822
    vertex -10048.150000000014 14386.60060378424 9484.91142075822
  endloop
endfacet
facet normal 0.0 0.6087614290090346 -0.7933533402909945
  outer loop
    vertex -10051.15000000001 14386.60060378424 9484.91142075822
    vertex -10048.150000000014 14385.51329318301 9484.077097989582
    vertex -10051.15000000001 14385.51329318301 9484.077097989582
  endloop
endfacet
facet normal 0.0 0.7933533402909945 -0.6087614290090346
  outer loop
    vertex -10048.150000000014 14385.51329318301 9484.077097989582
    vertex -10051.15000000001 14384.678970414372 9482.989787388353
    vertex -10051.15000000001 14385.51329318301 9484.077097989582
  endloop
endfacet
facet normal 0.0 0.7933533402909945 -0.6087614290090346
  outer loop
    vertex -10051.15000000001 14384.678970414372 9482.989787388353
    vertex -10048.150000000014 14385.51329318301 9484.077097989582
    vertex -10048.150000000014 14384.678970414372 9482.989787388353
  endloop
endfacet
facet normal 0.0 0.9238795325115983 -0.38268343236433777
  outer loop
    vertex -10048.150000000014 14384.678970414372 9482.989787388353
    vertex -10051.15000000001 14384.154493196223 9481.723587375142
    vertex -10051.15000000001 14384.678970414372 9482.989787388353
  endloop
endfacet
facet normal 0.0 0.9238795325115983 -0.38268343236433777
  outer loop
    vertex -10051.15000000001 14384.154493196223 9481.723587375142
    vertex -10048.150000000014 14384.678970414372 9482.989787388353
    vertex -10048.150000000014 14384.154493196223 9481.723587375142
  endloop
endfacet
facet normal 0.0 0.9914448613737874 -0.13052619222022668
  outer loop
    vertex -10048.150000000014 14384.154493196223 9481.723587375142
    vertex -10051.15000000001 14383.97560378424 9480.364787388353
    vertex -10051.15000000001 14384.154493196223 9481.723587375142
  endloop
endfacet
facet normal 0.0 0.9914448613737874 -0.13052619222022668
  outer loop
    vertex -10051.15000000001 14383.97560378424 9480.364787388353
    vertex -10048.150000000014 14384.154493196223 9481.723587375142
    vertex -10048.150000000014 14383.97560378424 9480.364787388353
  endloop
endfacet
facet normal 0.0 0.9914448613737874 0.13052619222022668
  outer loop
    vertex -10048.150000000014 14383.97560378424 9480.364787388353
    vertex -10051.15000000001 14384.154493196223 9479.005987401564
    vertex -10051.15000000001 14383.97560378424 9480.364787388353
  endloop
endfacet
facet normal 0.0 0.9914448613737874 0.13052619222022668
  outer loop
    vertex -10051.15000000001 14384.154493196223 9479.005987401564
    vertex -10048.150000000014 14383.97560378424 9480.364787388353
    vertex -10048.150000000014 14384.154493196223 9479.005987401564
  endloop
endfacet
facet normal 0.0 0.9238795325115983 0.38268343236433777
  outer loop
    vertex -10048.150000000014 14384.154493196223 9479.005987401564
    vertex -10051.15000000001 14384.678970414372 9477.739787388353
    vertex -10051.15000000001 14384.154493196223 9479.005987401564
  endloop
endfacet
facet normal 0.0 0.9238795325115983 0.38268343236433777
  outer loop
    vertex -10051.15000000001 14384.678970414372 9477.739787388353
    vertex -10048.150000000014 14384.154493196223 9479.005987401564
    vertex -10048.150000000014 14384.678970414372 9477.739787388353
  endloop
endfacet
facet normal 0.0 0.7933533402909945 0.6087614290090346
  outer loop
    vertex -10048.150000000014 14384.678970414372 9477.739787388353
    vertex -10051.15000000001 14385.51329318301 9476.652476787125
    vertex -10051.15000000001 14384.678970414372 9477.739787388353
  endloop
endfacet
facet normal 0.0 0.7933533402909945 0.6087614290090346
  outer loop
    vertex -10051.15000000001 14385.51329318301 9476.652476787125
    vertex -10048.150000000014 14384.678970414372 9477.739787388353
    vertex -10048.150000000014 14385.51329318301 9476.652476787125
  endloop
endfacet
facet normal 0.0 0.608761429008017 0.7933533402917753
  outer loop
    vertex -10051.15000000001 14385.51329318301 9476.652476787125
    vertex -10048.150000000014 14386.600603784242 9475.818154018485
    vertex -10051.15000000001 14386.600603784242 9475.818154018485
  endloop
endfacet
facet normal 0.0 0.608761429008017 0.7933533402917753
  outer loop
    vertex -10048.150000000014 14386.600603784242 9475.818154018485
    vertex -10051.15000000001 14385.51329318301 9476.652476787125
    vertex -10048.150000000014 14385.51329318301 9476.652476787125
  endloop
endfacet
facet normal 0.0 0.382683432365237 0.9238795325112258
  outer loop
    vertex -10051.15000000001 14386.600603784242 9475.818154018485
    vertex -10048.150000000014 14387.866803797453 9475.293676800336
    vertex -10051.15000000001 14387.866803797453 9475.293676800336
  endloop
endfacet
facet normal 0.0 0.382683432365237 0.9238795325112258
  outer loop
    vertex -10048.150000000014 14387.866803797453 9475.293676800336
    vertex -10051.15000000001 14386.600603784242 9475.818154018485
    vertex -10048.150000000014 14386.600603784242 9475.818154018485
  endloop
endfacet
facet normal 0.0 0.0 -1.0
  outer loop
    vertex -10010.550000000014 14368.151316159163 9460.879664974213
    vertex -10013.550000000014 14389.225603784244 9460.879664974213
    vertex -10010.550000000014 14389.225603784244 9460.879664974213
  endloop
endfacet
facet normal 0.0 0.0 -1.0
  outer loop
    vertex -10013.550000000014 14389.225603784244 9460.879664974213
    vertex -10010.550000000014 14368.151316159163 9460.879664974213
    vertex -10013.550000000014 14368.125603784243 9460.879664974213
  endloop
endfacet
facet normal 0.0 0.0 -1.0
  outer loop
    vertex -10013.550000000014 14368.125603784243 9460.879664974213
    vertex -10010.550000000014 14368.151316159163 9460.879664974213
    vertex -10010.550000000014 14368.125603784243 9460.879664974213
  endloop
endfacet
facet normal 0.0 1.0 0.0
  outer loop
    vertex -10013.550000000014 14368.125603784243 9499.849909802493
    vertex -10048.150000000014 14368.125603784243 9460.879664974213
    vertex -10048.150000000014 14368.125603784243 9499.849909802493
  endloop
endfacet
facet normal 0.0 1.0 0.0
  outer loop
    vertex -10048.150000000014 14368.125603784243 9460.879664974213
    vertex -10013.550000000014 14368.125603784243 9499.849909802493
    vertex -10041.150000000014 14368.125603784243 9450.879664974213
  endloop
endfacet
facet normal 0.0 1.0 0.0
  outer loop
    vertex -10041.150000000014 14368.125603784243 9450.879664974213
    vertex -10013.550000000014 14368.125603784243 9499.849909802493
    vertex -10020.550000000016 14368.125603784243 9450.879664974213
  endloop
endfacet
facet normal 0.0 1.0 0.0
  outer loop
    vertex -10020.550000000016 14368.125603784243 9450.879664974213
    vertex -10013.550000000014 14368.125603784243 9499.849909802493
    vertex -10013.550000000014 14368.125603784243 9460.879664974213
  endloop
endfacet
facet normal 0.0 1.0 0.0
  outer loop
    vertex -10020.550000000016 14368.125603784243 9450.879664974213
    vertex -10013.550000000014 14368.125603784243 9460.879664974213
    vertex -10010.550000000014 14368.125603784243 9460.879664974213
  endloop
endfacet
facet normal 0.0 1.0 0.0
  outer loop
    vertex -10041.150000000014 14368.125603784243 9450.879664974213
    vertex -10051.150000000014 14368.125603784243 9460.879664974213
    vertex -10048.150000000014 14368.125603784243 9460.879664974213
  endloop
endfacet
facet normal 0.0 0.0 -1.0
  outer loop
    vertex -10020.550000000016 14365.125603784243 9450.879664974213
    vertex -10041.150000000014 14368.125603784243 9450.879664974213
    vertex -10020.550000000016 14368.125603784243 9450.879664974213
  endloop
endfacet
facet normal 0.0 0.0 -1.0
  outer loop
    vertex -10041.150000000014 14368.125603784243 9450.879664974213
    vertex -10020.550000000016 14365.125603784243 9450.879664974213
    vertex -10041.150000000014 14365.125603784243 9450.879664974213
  endloop
endfacet
facet normal 0.7071067811865476 0.0 -0.7071067811865476
  outer loop
    vertex -10010.550000000014 14368.125603784243 9460.879664974213
    vertex -10020.550000000016 14365.125603784243 9450.879664974213
    vertex -10020.550000000016 14368.125603784243 9450.879664974213
  endloop
endfacet
facet normal 0.7071067811865476 0.0 -0.7071067811865476
  outer loop
    vertex -10020.550000000016 14365.125603784243 9450.879664974213
    vertex -10010.550000000014 14368.125603784243 9460.879664974213
    vertex -10010.550000000014 14365.125603784243 9460.879664974213
  endloop
endfacet
facet normal -0.7071067811865476 0.0 -0.7071067811865476
  outer loop
    vertex -10051.150000000014 14365.125603784243 9460.879664974213
    vertex -10041.150000000014 14368.125603784243 9450.879664974213
    vertex -10041.150000000014 14365.125603784243 9450.879664974213
  endloop
endfacet
facet normal -0.7071067811865476 0.0 -0.7071067811865476
  outer loop
    vertex -10041.150000000014 14368.125603784243 9450.879664974213
    vertex -10051.150000000014 14365.125603784243 9460.879664974213
    vertex -10051.150000000014 14368.125603784243 9460.879664974213
  endloop
endfacet
endsolid Main
