solid Main
facet normal -1.0040247161364675e-18 5.30445713516392e-18 -1.0
  outer loop
    vertex -22034.688990231643 27390.189591359158 3.524958103184872e-16
    vertex -22037.688990231643 27385.189591359158 0.0
    vertex -22037.688990231643 27387.189591359158 3.524958103184872e-16
  endloop
endfacet
facet normal -1.0040247161364675e-18 5.30445713516392e-18 -1.0
  outer loop
    vertex -22037.688990231643 27385.189591359158 0.0
    vertex -22034.688990231643 27390.189591359158 3.524958103184872e-16
    vertex -22029.188990231647 27385.189591359158 0.0
  endloop
endfacet
facet normal -1.0040247161364675e-18 5.30445713516392e-18 -1.0
  outer loop
    vertex -22029.188990231647 27385.189591359158 0.0
    vertex -22034.688990231643 27390.189591359158 3.524958103184872e-16
    vertex -22013.68899023165 27390.189591359158 3.524958103184872e-16
  endloop
endfacet
facet normal -1.0040247161364675e-18 5.30445713516392e-18 -1.0
  outer loop
    vertex -22029.188990231647 27385.189591359158 0.0
    vertex -22013.68899023165 27390.189591359158 3.524958103184872e-16
    vertex -22029.188990231647 27380.18959135916 0.0
  endloop
endfacet
facet normal -1.0040247161364675e-18 5.30445713516392e-18 -1.0
  outer loop
    vertex -22029.188990231647 27380.18959135916 0.0
    vertex -22013.68899023165 27390.189591359158 3.524958103184872e-16
    vertex -22019.188990231647 27385.189591359158 0.0
  endloop
endfacet
facet normal -1.0040247161364675e-18 5.30445713516392e-18 -1.0
  outer loop
    vertex -22019.188990231647 27385.189591359158 0.0
    vertex -22013.68899023165 27390.189591359158 3.524958103184872e-16
    vertex -22010.68899023165 27385.189591359158 0.0
  endloop
endfacet
facet normal -1.0040247161364675e-18 5.30445713516392e-18 -1.0
  outer loop
    vertex -22010.68899023165 27385.189591359158 0.0
    vertex -22013.68899023165 27390.189591359158 3.524958103184872e-16
    vertex -22010.68899023165 27387.189591359158 3.524958103184872e-16
  endloop
endfacet
facet normal -1.0040247161364675e-18 5.30445713516392e-18 -1.0
  outer loop
    vertex -22029.188990231647 27380.18959135916 0.0
    vertex -22037.68899023165 27351.189591359165 0.0
    vertex -22037.68899023165 27380.18959135916 0.0
  endloop
endfacet
facet normal -1.0040247161364675e-18 5.30445713516392e-18 -1.0
  outer loop
    vertex -22037.68899023165 27351.189591359165 0.0
    vertex -22029.188990231647 27380.18959135916 0.0
    vertex -22010.688990231647 27351.189591359165 0.0
  endloop
endfacet
facet normal -1.0040247161364675e-18 5.30445713516392e-18 -1.0
  outer loop
    vertex -22010.688990231647 27351.189591359165 0.0
    vertex -22029.188990231647 27380.18959135916 0.0
    vertex -22019.188990231647 27380.18959135916 0.0
  endloop
endfacet
facet normal -1.0040247161364675e-18 5.30445713516392e-18 -1.0
  outer loop
    vertex -22019.188990231647 27380.18959135916 0.0
    vertex -22029.188990231647 27380.18959135916 0.0
    vertex -22019.188990231647 27385.189591359158 0.0
  endloop
endfacet
facet normal -1.0040247161364675e-18 5.30445713516392e-18 -1.0
  outer loop
    vertex -22010.688990231647 27351.189591359165 0.0
    vertex -22019.188990231647 27380.18959135916 0.0
    vertex -22010.688990231647 27380.18959135916 0.0
  endloop
endfacet
facet normal 1.0 0.0 0.0
  outer loop
    vertex -22010.688990231647 27380.18959135916 0.0
    vertex -22010.688990231647 27351.189591359165 7.0
    vertex -22010.688990231647 27351.189591359165 0.0
  endloop
endfacet
facet normal 1.0 0.0 0.0
  outer loop
    vertex -22010.688990231647 27351.189591359165 7.0
    vertex -22010.688990231647 27380.18959135916 0.0
    vertex -22010.688990231647 27370.18959135916 3.0
  endloop
endfacet
facet normal 1.0 0.0 0.0
  outer loop
    vertex -22010.688990231647 27370.18959135916 3.0
    vertex -22010.688990231647 27380.18959135916 0.0
    vertex -22010.688990231647 27380.18959135916 3.0
  endloop
endfacet
facet normal 1.0 0.0 0.0
  outer loop
    vertex -22010.688990231647 27370.18959135916 7.0
    vertex -22010.688990231647 27351.189591359165 7.0
    vertex -22010.688990231647 27370.18959135916 3.0
  endloop
endfacet
facet normal -0.0 -1.0 -0.0
  outer loop
    vertex -22010.688990231647 27351.189591359165 7.0
    vertex -22037.68899023165 27351.189591359165 0.0
    vertex -22010.688990231647 27351.189591359165 0.0
  endloop
endfacet
facet normal -0.0 -1.0 -0.0
  outer loop
    vertex -22037.68899023165 27351.189591359165 0.0
    vertex -22010.688990231647 27351.189591359165 7.0
    vertex -22037.68899023165 27351.189591359165 7.0
  endloop
endfacet
facet normal -1.0 5.048872015284763e-14 -1.957725883477319e-14
  outer loop
    vertex -22037.68899023165 27370.18959135916 7.0
    vertex -22037.68899023165 27351.189591359165 0.0
    vertex -22037.68899023165 27351.189591359165 7.0
  endloop
endfacet
facet normal -1.0 5.048872015284763e-14 -1.957725883477319e-14
  outer loop
    vertex -22037.68899023165 27351.189591359165 0.0
    vertex -22037.68899023165 27370.18959135916 7.0
    vertex -22037.688990231647 27370.18959135916 3.0
  endloop
endfacet
facet normal -1.0 5.048872015284763e-14 -1.957725883477319e-14
  outer loop
    vertex -22037.68899023165 27351.189591359165 0.0
    vertex -22037.688990231647 27370.18959135916 3.0
    vertex -22037.68899023165 27380.18959135916 0.0
  endloop
endfacet
facet normal -1.0 5.048872015284763e-14 -1.957725883477319e-14
  outer loop
    vertex -22037.68899023165 27380.18959135916 0.0
    vertex -22037.688990231647 27370.18959135916 3.0
    vertex -22037.688990231647 27380.18959135916 3.0
  endloop
endfacet
facet normal 0.0 0.0 1.0
  outer loop
    vertex -22037.68899023165 27351.189591359165 7.0
    vertex -22034.68899023165 27354.189591359165 7.0
    vertex -22037.68899023165 27370.18959135916 7.0
  endloop
endfacet
facet normal 0.0 0.0 1.0
  outer loop
    vertex -22034.68899023165 27354.189591359165 7.0
    vertex -22037.68899023165 27351.189591359165 7.0
    vertex -22010.688990231647 27351.189591359165 7.0
  endloop
endfacet
facet normal 0.0 0.0 1.0
  outer loop
    vertex -22034.68899023165 27354.189591359165 7.0
    vertex -22010.688990231647 27351.189591359165 7.0
    vertex -22013.688990231647 27354.189591359165 7.0
  endloop
endfacet
facet normal 0.0 0.0 1.0
  outer loop
    vertex -22013.688990231647 27354.189591359165 7.0
    vertex -22010.688990231647 27351.189591359165 7.0
    vertex -22013.688990231647 27367.18959135916 7.0
  endloop
endfacet
facet normal 0.0 0.0 1.0
  outer loop
    vertex -22013.688990231647 27367.18959135916 7.0
    vertex -22015.688990231647 27370.18959135916 7.0
    vertex -22015.688990231647 27367.18959135916 7.0
  endloop
endfacet
facet normal 0.0 0.0 1.0
  outer loop
    vertex -22015.688990231647 27370.18959135916 7.0
    vertex -22013.688990231647 27367.18959135916 7.0
    vertex -22010.688990231647 27370.18959135916 7.0
  endloop
endfacet
facet normal 0.0 0.0 1.0
  outer loop
    vertex -22010.688990231647 27370.18959135916 7.0
    vertex -22013.688990231647 27367.18959135916 7.0
    vertex -22010.688990231647 27351.189591359165 7.0
  endloop
endfacet
facet normal 0.0 0.0 1.0
  outer loop
    vertex -22037.68899023165 27370.18959135916 7.0
    vertex -22034.68899023165 27367.18959135916 7.0
    vertex -22032.68899023165 27370.18959135916 7.0
  endloop
endfacet
facet normal 0.0 0.0 1.0
  outer loop
    vertex -22034.68899023165 27367.18959135916 7.0
    vertex -22037.68899023165 27370.18959135916 7.0
    vertex -22034.68899023165 27354.189591359165 7.0
  endloop
endfacet
facet normal 0.0 0.0 1.0
  outer loop
    vertex -22032.68899023165 27370.18959135916 7.0
    vertex -22034.68899023165 27367.18959135916 7.0
    vertex -22032.68899023165 27367.18959135916 7.0
  endloop
endfacet
facet normal 0.0 -1.0 0.0
  outer loop
    vertex -22013.688990231647 27367.18959135916 3.0
    vertex -22016.688990231647 27367.18959135916 6.0
    vertex -22034.68899023165 27367.18959135916 3.0
  endloop
endfacet
facet normal 0.0 -1.0 0.0
  outer loop
    vertex -22016.688990231647 27367.18959135916 6.0
    vertex -22013.688990231647 27367.18959135916 3.0
    vertex -22013.688990231647 27367.18959135916 7.0
  endloop
endfacet
facet normal 0.0 -1.0 0.0
  outer loop
    vertex -22016.688990231647 27367.18959135916 6.0
    vertex -22013.688990231647 27367.18959135916 7.0
    vertex -22015.688990231647 27367.18959135916 7.0
  endloop
endfacet
facet normal 0.0 -1.0 0.0
  outer loop
    vertex -22034.68899023165 27367.18959135916 3.0
    vertex -22031.68899023165 27367.18959135916 6.0
    vertex -22034.68899023165 27367.18959135916 7.0
  endloop
endfacet
facet normal 0.0 -1.0 0.0
  outer loop
    vertex -22031.68899023165 27367.18959135916 6.0
    vertex -22034.68899023165 27367.18959135916 3.0
    vertex -22016.688990231647 27367.18959135916 6.0
  endloop
endfacet
facet normal 0.0 -1.0 0.0
  outer loop
    vertex -22034.68899023165 27367.18959135916 7.0
    vertex -22031.68899023165 27367.18959135916 6.0
    vertex -22032.68899023165 27367.18959135916 7.0
  endloop
endfacet
facet normal -1.0 0.0 0.0
  outer loop
    vertex -22013.688990231647 27367.18959135916 7.0
    vertex -22013.688990231647 27354.189591359165 3.9999999999999996
    vertex -22013.688990231647 27354.189591359165 7.0
  endloop
endfacet
facet normal -1.0 0.0 0.0
  outer loop
    vertex -22013.688990231647 27354.189591359165 3.9999999999999996
    vertex -22013.688990231647 27367.18959135916 7.0
    vertex -22013.688990231647 27360.189591359165 3.9999999999999996
  endloop
endfacet
facet normal -1.0 0.0 0.0
  outer loop
    vertex -22013.688990231647 27360.189591359165 3.9999999999999996
    vertex -22013.688990231647 27367.18959135916 7.0
    vertex -22013.688990231647 27360.189591359165 3.0
  endloop
endfacet
facet normal -1.0 0.0 0.0
  outer loop
    vertex -22013.688990231647 27360.189591359165 3.0
    vertex -22013.688990231647 27367.18959135916 7.0
    vertex -22013.688990231647 27367.18959135916 3.0
  endloop
endfacet
facet normal 1.0 0.0 0.0
  outer loop
    vertex -22034.68899023165 27367.18959135916 3.0
    vertex -22034.68899023165 27360.189591359165 3.9999999999999996
    vertex -22034.68899023165 27360.189591359165 3.0
  endloop
endfacet
facet normal 1.0 0.0 0.0
  outer loop
    vertex -22034.68899023165 27360.189591359165 3.9999999999999996
    vertex -22034.68899023165 27354.189591359165 7.0
    vertex -22034.68899023165 27354.189591359165 3.9999999999999996
  endloop
endfacet
facet normal 1.0 0.0 0.0
  outer loop
    vertex -22034.68899023165 27354.189591359165 7.0
    vertex -22034.68899023165 27360.189591359165 3.9999999999999996
    vertex -22034.68899023165 27367.18959135916 7.0
  endloop
endfacet
facet normal 1.0 0.0 0.0
  outer loop
    vertex -22034.68899023165 27367.18959135916 7.0
    vertex -22034.68899023165 27360.189591359165 3.9999999999999996
    vertex -22034.68899023165 27367.18959135916 3.0
  endloop
endfacet
facet normal 0.0 0.0 1.0
  outer loop
    vertex -22013.688990231647 27354.189591359165 3.9999999999999996
    vertex -22034.68899023165 27360.189591359165 3.9999999999999996
    vertex -22034.68899023165 27354.189591359165 3.9999999999999996
  endloop
endfacet
facet normal 0.0 0.0 1.0
  outer loop
    vertex -22034.68899023165 27360.189591359165 3.9999999999999996
    vertex -22013.688990231647 27354.189591359165 3.9999999999999996
    vertex -22013.688990231647 27360.189591359165 3.9999999999999996
  endloop
endfacet
facet normal 0.0 0.0 1.0
  outer loop
    vertex -22016.688990231647 27367.18959135916 6.0
    vertex -22031.68899023165 27370.18959135916 6.0
    vertex -22031.68899023165 27367.18959135916 6.0
  endloop
endfacet
facet normal 0.0 0.0 1.0
  outer loop
    vertex -22031.68899023165 27370.18959135916 6.0
    vertex -22016.688990231647 27367.18959135916 6.0
    vertex -22016.688990231647 27370.18959135916 6.0
  endloop
endfacet
facet normal -0.7071067811866278 -2.6211767445529943e-24 0.7071067811864673
  outer loop
    vertex -22015.688990231647 27370.18959135916 7.0
    vertex -22016.688990231647 27367.18959135916 6.0
    vertex -22015.688990231647 27367.18959135916 7.0
  endloop
endfacet
facet normal -0.7071067811866278 -2.6211767445529943e-24 0.7071067811864673
  outer loop
    vertex -22016.688990231647 27367.18959135916 6.0
    vertex -22015.688990231647 27370.18959135916 7.0
    vertex -22016.688990231647 27370.18959135916 6.0
  endloop
endfacet
facet normal 0.7071067811866278 -6.397795324755673e-28 0.7071067811864673
  outer loop
    vertex -22031.68899023165 27370.18959135916 6.0
    vertex -22032.68899023165 27367.18959135916 7.0
    vertex -22031.68899023165 27367.18959135916 6.0
  endloop
endfacet
facet normal 0.7071067811866278 -6.397795324755673e-28 0.7071067811864673
  outer loop
    vertex -22032.68899023165 27367.18959135916 7.0
    vertex -22031.68899023165 27370.18959135916 6.0
    vertex -22032.68899023165 27370.18959135916 7.0
  endloop
endfacet
facet normal 0.0 1.0 0.0
  outer loop
    vertex -22037.688990231647 27370.18959135916 3.0
    vertex -22031.68899023165 27370.18959135916 6.0
    vertex -22010.688990231647 27370.18959135916 3.0
  endloop
endfacet
facet normal 0.0 1.0 0.0
  outer loop
    vertex -22031.68899023165 27370.18959135916 6.0
    vertex -22037.688990231647 27370.18959135916 3.0
    vertex -22037.68899023165 27370.18959135916 7.0
  endloop
endfacet
facet normal 0.0 1.0 0.0
  outer loop
    vertex -22031.68899023165 27370.18959135916 6.0
    vertex -22037.68899023165 27370.18959135916 7.0
    vertex -22032.68899023165 27370.18959135916 7.0
  endloop
endfacet
facet normal 0.0 1.0 0.0
  outer loop
    vertex -22010.688990231647 27370.18959135916 3.0
    vertex -22016.688990231647 27370.18959135916 6.0
    vertex -22010.688990231647 27370.18959135916 7.0
  endloop
endfacet
facet normal 0.0 1.0 0.0
  outer loop
    vertex -22016.688990231647 27370.18959135916 6.0
    vertex -22010.688990231647 27370.18959135916 3.0
    vertex -22031.68899023165 27370.18959135916 6.0
  endloop
endfacet
facet normal 0.0 1.0 0.0
  outer loop
    vertex -22010.688990231647 27370.18959135916 7.0
    vertex -22016.688990231647 27370.18959135916 6.0
    vertex -22015.688990231647 27370.18959135916 7.0
  endloop
endfacet
facet normal 0.0 1.0 0.0
  outer loop
    vertex -22019.188990231647 27380.18959135916 3.0
    vertex -22010.688990231647 27380.18959135916 0.0
    vertex -22019.188990231647 27380.18959135916 0.0
  endloop
endfacet
facet normal 0.0 1.0 0.0
  outer loop
    vertex -22010.688990231647 27380.18959135916 0.0
    vertex -22019.188990231647 27380.18959135916 3.0
    vertex -22010.688990231647 27380.18959135916 3.0
  endloop
endfacet
facet normal 0.0 1.0 0.0
  outer loop
    vertex -22037.688990231647 27380.18959135916 3.0
    vertex -22029.188990231647 27380.18959135916 0.0
    vertex -22037.68899023165 27380.18959135916 0.0
  endloop
endfacet
facet normal 0.0 1.0 0.0
  outer loop
    vertex -22029.188990231647 27380.18959135916 0.0
    vertex -22037.688990231647 27380.18959135916 3.0
    vertex -22029.188990231647 27380.18959135916 3.0
  endloop
endfacet
facet normal 0.0 1.0 0.0
  outer loop
    vertex -22034.688990231643 27390.189591359158 3.0
    vertex -22013.68899023165 27390.189591359158 3.524958103184872e-16
    vertex -22034.688990231643 27390.189591359158 3.524958103184872e-16
  endloop
endfacet
facet normal 0.0 1.0 0.0
  outer loop
    vertex -22013.68899023165 27390.189591359158 3.524958103184872e-16
    vertex -22034.688990231643 27390.189591359158 3.0
    vertex -22013.68899023165 27390.189591359158 3.0
  endloop
endfacet
facet normal 1.0 0.0 0.0
  outer loop
    vertex -22019.188990231647 27385.189591359158 0.0
    vertex -22019.188990231647 27380.18959135916 3.0
    vertex -22019.188990231647 27380.18959135916 0.0
  endloop
endfacet
facet normal 1.0 0.0 0.0
  outer loop
    vertex -22019.188990231647 27380.18959135916 3.0
    vertex -22019.188990231647 27385.189591359158 0.0
    vertex -22019.188990231647 27385.189591359158 3.0
  endloop
endfacet
facet normal -1.0 0.0 0.0
  outer loop
    vertex -22029.188990231647 27385.189591359158 3.0
    vertex -22029.188990231647 27380.18959135916 0.0
    vertex -22029.188990231647 27380.18959135916 3.0
  endloop
endfacet
facet normal -1.0 0.0 0.0
  outer loop
    vertex -22029.188990231647 27380.18959135916 0.0
    vertex -22029.188990231647 27385.189591359158 3.0
    vertex -22029.188990231647 27385.189591359158 0.0
  endloop
endfacet
facet normal -1.0 0.0 0.0
  outer loop
    vertex -22037.688990231643 27387.189591359158 3.0
    vertex -22037.688990231643 27385.189591359158 0.0
    vertex -22037.688990231643 27385.189591359158 3.0
  endloop
endfacet
facet normal -1.0 0.0 0.0
  outer loop
    vertex -22037.688990231643 27385.189591359158 0.0
    vertex -22037.688990231643 27387.189591359158 3.0
    vertex -22037.688990231643 27387.189591359158 3.524958103184872e-16
  endloop
endfacet
facet normal 0.0 -1.0 0.0
  outer loop
    vertex -22029.188990231647 27385.189591359158 3.0
    vertex -22037.688990231643 27385.189591359158 0.0
    vertex -22029.188990231647 27385.189591359158 0.0
  endloop
endfacet
facet normal 0.0 -1.0 0.0
  outer loop
    vertex -22037.688990231643 27385.189591359158 0.0
    vertex -22029.188990231647 27385.189591359158 3.0
    vertex -22037.688990231643 27385.189591359158 3.0
  endloop
endfacet
facet normal 1.0 0.0 0.0
  outer loop
    vertex -22010.68899023165 27387.189591359158 3.524958103184872e-16
    vertex -22010.68899023165 27385.189591359158 3.0
    vertex -22010.68899023165 27385.189591359158 0.0
  endloop
endfacet
facet normal 1.0 0.0 0.0
  outer loop
    vertex -22010.68899023165 27385.189591359158 3.0
    vertex -22010.68899023165 27387.189591359158 3.524958103184872e-16
    vertex -22010.68899023165 27387.189591359158 3.0
  endloop
endfacet
facet normal -0.0 -1.0 -0.0
  outer loop
    vertex -22010.68899023165 27385.189591359158 3.0
    vertex -22019.188990231647 27385.189591359158 0.0
    vertex -22010.68899023165 27385.189591359158 0.0
  endloop
endfacet
facet normal -0.0 -1.0 -0.0
  outer loop
    vertex -22019.188990231647 27385.189591359158 0.0
    vertex -22010.68899023165 27385.189591359158 3.0
    vertex -22019.188990231647 27385.189591359158 3.0
  endloop
endfacet
facet normal 0.0 1.0 0.0
  outer loop
    vertex -22034.68899023165 27360.189591359165 3.9999999999999996
    vertex -22013.688990231647 27360.189591359165 3.0
    vertex -22034.68899023165 27360.189591359165 3.0
  endloop
endfacet
facet normal 0.0 1.0 0.0
  outer loop
    vertex -22013.688990231647 27360.189591359165 3.0
    vertex -22034.68899023165 27360.189591359165 3.9999999999999996
    vertex -22013.688990231647 27360.189591359165 3.9999999999999996
  endloop
endfacet
facet normal 0.0 1.0 0.0
  outer loop
    vertex -22034.68899023165 27354.189591359165 7.0
    vertex -22013.688990231647 27354.189591359165 3.9999999999999996
    vertex -22034.68899023165 27354.189591359165 3.9999999999999996
  endloop
endfacet
facet normal 0.0 1.0 0.0
  outer loop
    vertex -22013.688990231647 27354.189591359165 3.9999999999999996
    vertex -22034.68899023165 27354.189591359165 7.0
    vertex -22013.688990231647 27354.189591359165 7.0
  endloop
endfacet
facet normal 0.0 0.0 -1.0
  outer loop
    vertex -22013.688990231647 27360.189591359165 3.0
    vertex -22034.68899023165 27354.189591359165 3.0
    vertex -22034.68899023165 27360.189591359165 3.0
  endloop
endfacet
facet normal 0.0 0.0 -1.0
  outer loop
    vertex -22034.68899023165 27354.189591359165 3.0
    vertex -22013.688990231647 27360.189591359165 3.0
    vertex -22013.688990231647 27354.189591359165 3.0
  endloop
endfacet
facet normal 0.0 0.0 1.0
  outer loop
    vertex -22010.688990231647 27370.18959135916 3.0
    vertex -22037.688990231647 27380.18959135916 3.0
    vertex -22037.688990231647 27370.18959135916 3.0
  endloop
endfacet
facet normal 0.0 0.0 1.0
  outer loop
    vertex -22037.688990231647 27380.18959135916 3.0
    vertex -22010.688990231647 27370.18959135916 3.0
    vertex -22029.188990231647 27380.18959135916 3.0
  endloop
endfacet
facet normal 0.0 0.0 1.0
  outer loop
    vertex -22029.188990231647 27380.18959135916 3.0
    vertex -22010.688990231647 27370.18959135916 3.0
    vertex -22029.188990231647 27385.189591359158 3.0
  endloop
endfacet
facet normal 0.0 0.0 1.0
  outer loop
    vertex -22029.188990231647 27385.189591359158 3.0
    vertex -22010.688990231647 27370.18959135916 3.0
    vertex -22019.188990231647 27380.18959135916 3.0
  endloop
endfacet
facet normal 0.0 0.0 1.0
  outer loop
    vertex -22019.188990231647 27380.18959135916 3.0
    vertex -22010.688990231647 27370.18959135916 3.0
    vertex -22010.688990231647 27380.18959135916 3.0
  endloop
endfacet
facet normal 0.0 0.0 1.0
  outer loop
    vertex -22029.188990231647 27385.189591359158 3.0
    vertex -22037.688990231643 27387.189591359158 3.0
    vertex -22037.688990231643 27385.189591359158 3.0
  endloop
endfacet
facet normal 0.0 0.0 1.0
  outer loop
    vertex -22037.688990231643 27387.189591359158 3.0
    vertex -22029.188990231647 27385.189591359158 3.0
    vertex -22034.688990231643 27390.189591359158 3.0
  endloop
endfacet
facet normal 0.0 0.0 1.0
  outer loop
    vertex -22034.688990231643 27390.189591359158 3.0
    vertex -22029.188990231647 27385.189591359158 3.0
    vertex -22013.68899023165 27390.189591359158 3.0
  endloop
endfacet
facet normal 0.0 0.0 1.0
  outer loop
    vertex -22013.68899023165 27390.189591359158 3.0
    vertex -22029.188990231647 27385.189591359158 3.0
    vertex -22019.188990231647 27385.189591359158 3.0
  endloop
endfacet
facet normal 0.0 0.0 1.0
  outer loop
    vertex -22019.188990231647 27385.189591359158 3.0
    vertex -22029.188990231647 27385.189591359158 3.0
    vertex -22019.188990231647 27380.18959135916 3.0
  endloop
endfacet
facet normal 0.0 0.0 1.0
  outer loop
    vertex -22013.68899023165 27390.189591359158 3.0
    vertex -22019.188990231647 27385.189591359158 3.0
    vertex -22010.68899023165 27385.189591359158 3.0
  endloop
endfacet
facet normal 0.0 0.0 1.0
  outer loop
    vertex -22013.68899023165 27390.189591359158 3.0
    vertex -22010.68899023165 27385.189591359158 3.0
    vertex -22010.68899023165 27387.189591359158 3.0
  endloop
endfacet
facet normal -0.7071067811865476 0.7071067811865476 1.5994488311883727e-28
  outer loop
    vertex -22034.688990231643 27390.189591359158 3.0
    vertex -22037.688990231643 27387.189591359158 3.524958103184872e-16
    vertex -22037.688990231643 27387.189591359158 3.0
  endloop
endfacet
facet normal -0.7071067811865476 0.7071067811865476 1.5994488311883727e-28
  outer loop
    vertex -22037.688990231643 27387.189591359158 3.524958103184872e-16
    vertex -22034.688990231643 27390.189591359158 3.0
    vertex -22034.688990231643 27390.189591359158 3.524958103184872e-16
  endloop
endfacet
facet normal 0.7071067811865475 0.7071067811865476 1.5994488311883725e-28
  outer loop
    vertex -22013.68899023165 27390.189591359158 3.0
    vertex -22010.68899023165 27387.189591359158 3.524958103184872e-16
    vertex -22013.68899023165 27390.189591359158 3.524958103184872e-16
  endloop
endfacet
facet normal 0.7071067811865475 0.7071067811865476 1.5994488311883725e-28
  outer loop
    vertex -22010.68899023165 27387.189591359158 3.524958103184872e-16
    vertex -22013.68899023165 27390.189591359158 3.0
    vertex -22010.68899023165 27387.189591359158 3.0
  endloop
endfacet
facet normal 0.0 0.0 -1.0
  outer loop
    vertex -22013.688990231647 27367.18959135916 3.0
    vertex -22034.68899023165 27360.189591359165 3.0
    vertex -22034.68899023165 27367.18959135916 3.0
  endloop
endfacet
facet normal 0.0 0.0 -1.0
  outer loop
    vertex -22034.68899023165 27360.189591359165 3.0
    vertex -22013.688990231647 27367.18959135916 3.0
    vertex -22013.688990231647 27360.189591359165 3.0
  endloop
endfacet
endsolid Main
