solid Main
facet normal 3.287842486877094e-18 -2.6062409586063113e-18 -1.0
  outer loop
    vertex -22106.720589469012 27409.592592073423 -3.0
    vertex -22103.720589469012 27406.592592073423 -2.999999999999993
    vertex -22106.720589469012 27356.192592073417 -3.0
  endloop
endfacet
facet normal 3.287842486877094e-18 -2.6062409586063113e-18 -1.0
  outer loop
    vertex -22103.720589469012 27406.592592073423 -2.999999999999993
    vertex -22106.720589469012 27409.592592073423 -3.0
    vertex -22061.32058946901 27409.592592073423 -3.0
  endloop
endfacet
facet normal 3.287842486877094e-18 -2.6062409586063113e-18 -1.0
  outer loop
    vertex -22103.720589469012 27406.592592073423 -2.999999999999993
    vertex -22061.32058946901 27409.592592073423 -3.0
    vertex -22064.32058946901 27406.592592073423 -2.999999999999993
  endloop
endfacet
facet normal 3.287842486877094e-18 -2.6062409586063113e-18 -1.0
  outer loop
    vertex -22064.32058946901 27406.592592073423 -2.999999999999993
    vertex -22061.32058946901 27409.592592073423 -3.0
    vertex -22064.32058946901 27401.092592073426 -2.999999999999993
  endloop
endfacet
facet normal 3.287842486877094e-18 -2.6062409586063113e-18 -1.0
  outer loop
    vertex -22064.32058946901 27401.092592073426 -2.999999999999993
    vertex -22061.32058946901 27409.592592073423 -3.0
    vertex -22064.32058946901 27398.092592073423 -3.0000000000000058
  endloop
endfacet
facet normal 3.287842486877094e-18 -2.6062409586063113e-18 -1.0
  outer loop
    vertex -22064.32058946901 27398.092592073423 -3.0000000000000058
    vertex -22061.32058946901 27409.592592073423 -3.0
    vertex -22064.32058946901 27392.59259207342 -3.0000000000000058
  endloop
endfacet
facet normal 3.287842486877094e-18 -2.6062409586063113e-18 -1.0
  outer loop
    vertex -22106.720589469012 27356.192592073417 -3.0
    vertex -22103.720589469012 27392.59259207342 -3.0000000000000058
    vertex -22096.72058946901 27346.19259207342 -3.0
  endloop
endfacet
facet normal 3.287842486877094e-18 -2.6062409586063113e-18 -1.0
  outer loop
    vertex -22103.720589469012 27392.59259207342 -3.0000000000000058
    vertex -22106.720589469012 27356.192592073417 -3.0
    vertex -22103.720589469012 27406.592592073423 -2.999999999999993
  endloop
endfacet
facet normal 3.287842486877094e-18 -2.6062409586063113e-18 -1.0
  outer loop
    vertex -22103.720589469012 27392.59259207342 -3.0000000000000058
    vertex -22103.720589469012 27406.592592073423 -2.999999999999993
    vertex -22103.720589469012 27401.092592073426 -2.999999999999993
  endloop
endfacet
facet normal 3.287842486877094e-18 -2.6062409586063113e-18 -1.0
  outer loop
    vertex -22103.720589469012 27392.59259207342 -3.0000000000000058
    vertex -22103.720589469012 27401.092592073426 -2.999999999999993
    vertex -22103.720589469012 27398.092592073423 -3.0000000000000058
  endloop
endfacet
facet normal 3.287842486877094e-18 -2.6062409586063113e-18 -1.0
  outer loop
    vertex -22096.72058946901 27346.19259207342 -3.0
    vertex -22103.720589469012 27392.59259207342 -3.0000000000000058
    vertex -22064.32058946901 27392.59259207342 -3.0000000000000058
  endloop
endfacet
facet normal 3.287842486877094e-18 -2.6062409586063113e-18 -1.0
  outer loop
    vertex -22096.72058946901 27346.19259207342 -3.0
    vertex -22064.32058946901 27392.59259207342 -3.0000000000000058
    vertex -22071.320589469015 27346.19259207342 -3.0
  endloop
endfacet
facet normal 3.287842486877094e-18 -2.6062409586063113e-18 -1.0
  outer loop
    vertex -22071.320589469015 27346.19259207342 -3.0
    vertex -22064.32058946901 27392.59259207342 -3.0000000000000058
    vertex -22061.32058946901 27356.192592073417 -3.0
  endloop
endfacet
facet normal 3.287842486877094e-18 -2.6062409586063113e-18 -1.0
  outer loop
    vertex -22061.32058946901 27356.192592073417 -3.0
    vertex -22064.32058946901 27392.59259207342 -3.0000000000000058
    vertex -22061.32058946901 27409.592592073423 -3.0
  endloop
endfacet
facet normal 3.287842486877094e-18 -2.6062409586063113e-18 -1.0
  outer loop
    vertex -22064.32058946901 27401.092592073426 -2.999999999999993
    vertex -22103.720589469012 27398.092592073423 -3.0000000000000058
    vertex -22103.720589469012 27401.092592073426 -2.999999999999993
  endloop
endfacet
facet normal 3.287842486877094e-18 -2.6062409586063113e-18 -1.0
  outer loop
    vertex -22103.720589469012 27398.092592073423 -3.0000000000000058
    vertex -22064.32058946901 27401.092592073426 -2.999999999999993
    vertex -22064.32058946901 27398.092592073423 -3.0000000000000058
  endloop
endfacet
facet normal 0.0 -1.0 0.0
  outer loop
    vertex -22071.320589469015 27346.19259207342 -3.0
    vertex -22096.72058946901 27346.19259207342 21.0
    vertex -22096.72058946901 27346.19259207342 -3.0
  endloop
endfacet
facet normal 0.0 -1.0 0.0
  outer loop
    vertex -22096.72058946901 27346.19259207342 21.0
    vertex -22071.320589469015 27346.19259207342 -3.0
    vertex -22071.320589469015 27346.19259207342 21.0
  endloop
endfacet
facet normal -1.0 0.0 0.0
  outer loop
    vertex -22106.720589469012 27389.592592073423 21.0
    vertex -22106.720589469012 27356.192592073417 -3.0
    vertex -22106.720589469012 27356.192592073417 21.0
  endloop
endfacet
facet normal -1.0 0.0 0.0
  outer loop
    vertex -22106.720589469012 27356.192592073417 -3.0
    vertex -22106.720589469012 27389.592592073423 21.0
    vertex -22106.720589469012 27389.592592073423 9.0
  endloop
endfacet
facet normal -1.0 0.0 0.0
  outer loop
    vertex -22106.720589469012 27356.192592073417 -3.0
    vertex -22106.720589469012 27389.592592073423 9.0
    vertex -22106.720589469012 27409.592592073423 -3.0
  endloop
endfacet
facet normal -1.0 0.0 0.0
  outer loop
    vertex -22106.720589469012 27409.592592073423 -3.0
    vertex -22106.720589469012 27389.592592073423 9.0
    vertex -22106.720589469012 27409.592592073423 9.0
  endloop
endfacet
facet normal 0.0 1.0 0.0
  outer loop
    vertex -22066.32058946901 27389.592592073423 21.0
    vertex -22061.32058946901 27389.592592073423 9.0
    vertex -22066.32058946901 27389.592592073423 9.0
  endloop
endfacet
facet normal 0.0 1.0 0.0
  outer loop
    vertex -22061.32058946901 27389.592592073423 9.0
    vertex -22066.32058946901 27389.592592073423 21.0
    vertex -22061.32058946901 27389.592592073423 21.0
  endloop
endfacet
facet normal 1.0 0.0 0.0
  outer loop
    vertex -22061.32058946901 27409.592592073423 -3.0
    vertex -22061.32058946901 27356.192592073417 21.0
    vertex -22061.32058946901 27356.192592073417 -3.0
  endloop
endfacet
facet normal 1.0 0.0 0.0
  outer loop
    vertex -22061.32058946901 27356.192592073417 21.0
    vertex -22061.32058946901 27409.592592073423 -3.0
    vertex -22061.32058946901 27389.592592073423 9.0
  endloop
endfacet
facet normal 1.0 0.0 0.0
  outer loop
    vertex -22061.32058946901 27389.592592073423 9.0
    vertex -22061.32058946901 27409.592592073423 -3.0
    vertex -22061.32058946901 27394.592592073426 9.0
  endloop
endfacet
facet normal 1.0 0.0 0.0
  outer loop
    vertex -22061.32058946901 27394.592592073426 9.0
    vertex -22061.32058946901 27409.592592073423 -3.0
    vertex -22061.32058946901 27399.592592073426 9.0
  endloop
endfacet
facet normal 1.0 0.0 0.0
  outer loop
    vertex -22061.32058946901 27399.592592073426 9.0
    vertex -22061.32058946901 27409.592592073423 -3.0
    vertex -22061.32058946901 27404.592592073423 9.0
  endloop
endfacet
facet normal 1.0 0.0 0.0
  outer loop
    vertex -22061.32058946901 27404.592592073423 9.0
    vertex -22061.32058946901 27409.592592073423 -3.0
    vertex -22061.32058946901 27409.592592073423 9.0
  endloop
endfacet
facet normal 1.0 0.0 0.0
  outer loop
    vertex -22061.32058946901 27389.592592073423 21.0
    vertex -22061.32058946901 27356.192592073417 21.0
    vertex -22061.32058946901 27389.592592073423 9.0
  endloop
endfacet
facet normal 0.0 0.0 1.0
  outer loop
    vertex -22077.32058946901 27349.192592073417 0.0
    vertex -22090.720589469012 27364.192592073414 0.0
    vertex -22090.720589469012 27349.192592073417 0.0
  endloop
endfacet
facet normal 0.0 0.0 1.0
  outer loop
    vertex -22090.720589469012 27364.192592073414 0.0
    vertex -22103.720589469012 27386.592592073423 0.0
    vertex -22103.720589469012 27364.192592073414 0.0
  endloop
endfacet
facet normal 0.0 0.0 1.0
  outer loop
    vertex -22103.720589469012 27386.592592073423 0.0
    vertex -22090.720589469012 27364.192592073414 0.0
    vertex -22064.32058946901 27386.592592073423 0.0
  endloop
endfacet
facet normal 0.0 0.0 1.0
  outer loop
    vertex -22064.32058946901 27386.592592073423 0.0
    vertex -22090.720589469012 27364.192592073414 0.0
    vertex -22077.32058946901 27364.192592073414 0.0
  endloop
endfacet
facet normal 0.0 0.0 1.0
  outer loop
    vertex -22077.32058946901 27364.192592073414 0.0
    vertex -22090.720589469012 27364.192592073414 0.0
    vertex -22077.32058946901 27349.192592073417 0.0
  endloop
endfacet
facet normal 0.0 0.0 1.0
  outer loop
    vertex -22064.32058946901 27386.592592073423 0.0
    vertex -22077.32058946901 27364.192592073414 0.0
    vertex -22064.32058946901 27364.192592073414 0.0
  endloop
endfacet
facet normal -0.7071067811864455 -0.7071067811866496 0.0
  outer loop
    vertex -22096.72058946901 27346.19259207342 21.0
    vertex -22106.720589469012 27356.192592073417 -3.0
    vertex -22096.72058946901 27346.19259207342 -3.0
  endloop
endfacet
facet normal -0.7071067811864455 -0.7071067811866496 0.0
  outer loop
    vertex -22106.720589469012 27356.192592073417 -3.0
    vertex -22096.72058946901 27346.19259207342 21.0
    vertex -22106.720589469012 27356.192592073417 21.0
  endloop
endfacet
facet normal 0.7071067811864455 -0.7071067811866496 0.0
  outer loop
    vertex -22061.32058946901 27356.192592073417 21.0
    vertex -22071.320589469015 27346.19259207342 -3.0
    vertex -22061.32058946901 27356.192592073417 -3.0
  endloop
endfacet
facet normal 0.7071067811864455 -0.7071067811866496 0.0
  outer loop
    vertex -22071.320589469015 27346.19259207342 -3.0
    vertex -22061.32058946901 27356.192592073417 21.0
    vertex -22071.320589469015 27346.19259207342 21.0
  endloop
endfacet
facet normal 0.0 0.0 1.0
  outer loop
    vertex -22071.320589469015 27346.19259207342 21.0
    vertex -22090.720589469012 27349.192592073417 21.0
    vertex -22096.72058946901 27346.19259207342 21.0
  endloop
endfacet
facet normal 0.0 0.0 1.0
  outer loop
    vertex -22090.720589469012 27349.192592073417 21.0
    vertex -22071.320589469015 27346.19259207342 21.0
    vertex -22077.32058946901 27349.192592073417 21.0
  endloop
endfacet
facet normal 0.0 0.0 1.0
  outer loop
    vertex -22077.32058946901 27349.192592073417 21.0
    vertex -22071.320589469015 27346.19259207342 21.0
    vertex -22077.32058946901 27364.192592073414 21.0
  endloop
endfacet
facet normal 0.0 0.0 1.0
  outer loop
    vertex -22077.32058946901 27364.192592073414 21.0
    vertex -22071.320589469015 27346.19259207342 21.0
    vertex -22064.32058946901 27364.192592073414 21.0
  endloop
endfacet
facet normal 0.0 0.0 1.0
  outer loop
    vertex -22064.32058946901 27364.192592073414 21.0
    vertex -22071.320589469015 27346.19259207342 21.0
    vertex -22061.32058946901 27356.192592073417 21.0
  endloop
endfacet
facet normal 0.0 0.0 1.0
  outer loop
    vertex -22064.32058946901 27364.192592073414 21.0
    vertex -22061.32058946901 27356.192592073417 21.0
    vertex -22064.32058946901 27386.592592073423 21.0
  endloop
endfacet
facet normal 0.0 0.0 1.0
  outer loop
    vertex -22064.32058946901 27386.592592073423 21.0
    vertex -22066.32058946901 27389.592592073423 21.0
    vertex -22066.32058946901 27386.592592073423 21.0
  endloop
endfacet
facet normal 0.0 0.0 1.0
  outer loop
    vertex -22066.32058946901 27389.592592073423 21.0
    vertex -22064.32058946901 27386.592592073423 21.0
    vertex -22061.32058946901 27389.592592073423 21.0
  endloop
endfacet
facet normal 0.0 0.0 1.0
  outer loop
    vertex -22061.32058946901 27389.592592073423 21.0
    vertex -22064.32058946901 27386.592592073423 21.0
    vertex -22061.32058946901 27356.192592073417 21.0
  endloop
endfacet
facet normal 0.0 0.0 1.0
  outer loop
    vertex -22106.720589469012 27356.192592073417 21.0
    vertex -22103.720589469012 27364.192592073414 21.0
    vertex -22106.720589469012 27389.592592073423 21.0
  endloop
endfacet
facet normal 0.0 0.0 1.0
  outer loop
    vertex -22103.720589469012 27364.192592073414 21.0
    vertex -22106.720589469012 27356.192592073417 21.0
    vertex -22096.72058946901 27346.19259207342 21.0
  endloop
endfacet
facet normal 0.0 0.0 1.0
  outer loop
    vertex -22103.720589469012 27364.192592073414 21.0
    vertex -22096.72058946901 27346.19259207342 21.0
    vertex -22090.720589469012 27364.192592073414 21.0
  endloop
endfacet
facet normal 0.0 0.0 1.0
  outer loop
    vertex -22090.720589469012 27364.192592073414 21.0
    vertex -22096.72058946901 27346.19259207342 21.0
    vertex -22090.720589469012 27349.192592073417 21.0
  endloop
endfacet
facet normal 0.0 0.0 1.0
  outer loop
    vertex -22106.720589469012 27389.592592073423 21.0
    vertex -22103.720589469012 27386.592592073423 21.0
    vertex -22101.720589469012 27389.592592073423 21.0
  endloop
endfacet
facet normal 0.0 0.0 1.0
  outer loop
    vertex -22103.720589469012 27386.592592073423 21.0
    vertex -22106.720589469012 27389.592592073423 21.0
    vertex -22103.720589469012 27364.192592073414 21.0
  endloop
endfacet
facet normal 0.0 0.0 1.0
  outer loop
    vertex -22101.720589469012 27389.592592073423 21.0
    vertex -22103.720589469012 27386.592592073423 21.0
    vertex -22101.720589469012 27386.592592073423 21.0
  endloop
endfacet
facet normal -1.0 0.0 0.0
  outer loop
    vertex -22064.32058946901 27386.592592073423 21.0
    vertex -22064.32058946901 27364.192592073414 0.0
    vertex -22064.32058946901 27364.192592073414 21.0
  endloop
endfacet
facet normal -1.0 0.0 0.0
  outer loop
    vertex -22064.32058946901 27364.192592073414 0.0
    vertex -22064.32058946901 27386.592592073423 21.0
    vertex -22064.32058946901 27386.592592073423 0.0
  endloop
endfacet
facet normal 0.0 1.0 0.0
  outer loop
    vertex -22077.32058946901 27364.192592073414 21.0
    vertex -22064.32058946901 27364.192592073414 0.0
    vertex -22077.32058946901 27364.192592073414 0.0
  endloop
endfacet
facet normal 0.0 1.0 0.0
  outer loop
    vertex -22064.32058946901 27364.192592073414 0.0
    vertex -22077.32058946901 27364.192592073414 21.0
    vertex -22064.32058946901 27364.192592073414 21.0
  endloop
endfacet
facet normal -1.0 0.0 0.0
  outer loop
    vertex -22077.32058946901 27364.192592073414 21.0
    vertex -22077.32058946901 27349.192592073417 0.0
    vertex -22077.32058946901 27349.192592073417 21.0
  endloop
endfacet
facet normal -1.0 0.0 0.0
  outer loop
    vertex -22077.32058946901 27349.192592073417 0.0
    vertex -22077.32058946901 27364.192592073414 21.0
    vertex -22077.32058946901 27364.192592073414 0.0
  endloop
endfacet
facet normal 0.0 1.0 0.0
  outer loop
    vertex -22090.720589469012 27349.192592073417 21.0
    vertex -22077.32058946901 27349.192592073417 0.0
    vertex -22090.720589469012 27349.192592073417 0.0
  endloop
endfacet
facet normal 0.0 1.0 0.0
  outer loop
    vertex -22077.32058946901 27349.192592073417 0.0
    vertex -22090.720589469012 27349.192592073417 21.0
    vertex -22077.32058946901 27349.192592073417 21.0
  endloop
endfacet
facet normal 1.0 0.0 0.0
  outer loop
    vertex -22090.720589469012 27364.192592073414 0.0
    vertex -22090.720589469012 27349.192592073417 21.0
    vertex -22090.720589469012 27349.192592073417 0.0
  endloop
endfacet
facet normal 1.0 0.0 0.0
  outer loop
    vertex -22090.720589469012 27349.192592073417 21.0
    vertex -22090.720589469012 27364.192592073414 0.0
    vertex -22090.720589469012 27364.192592073414 21.0
  endloop
endfacet
facet normal 0.0 1.0 0.0
  outer loop
    vertex -22103.720589469012 27364.192592073414 21.0
    vertex -22090.720589469012 27364.192592073414 0.0
    vertex -22103.720589469012 27364.192592073414 0.0
  endloop
endfacet
facet normal 0.0 1.0 0.0
  outer loop
    vertex -22090.720589469012 27364.192592073414 0.0
    vertex -22103.720589469012 27364.192592073414 21.0
    vertex -22090.720589469012 27364.192592073414 21.0
  endloop
endfacet
facet normal 1.0 0.0 0.0
  outer loop
    vertex -22103.720589469012 27386.592592073423 0.0
    vertex -22103.720589469012 27364.192592073414 21.0
    vertex -22103.720589469012 27364.192592073414 0.0
  endloop
endfacet
facet normal 1.0 0.0 0.0
  outer loop
    vertex -22103.720589469012 27364.192592073414 21.0
    vertex -22103.720589469012 27386.592592073423 0.0
    vertex -22103.720589469012 27386.592592073423 21.0
  endloop
endfacet
facet normal 0.0 -1.0 0.0
  outer loop
    vertex -22064.32058946901 27386.592592073423 0.0
    vertex -22066.32058946901 27386.592592073423 9.0
    vertex -22103.720589469012 27386.592592073423 0.0
  endloop
endfacet
facet normal 0.0 -1.0 0.0
  outer loop
    vertex -22066.32058946901 27386.592592073423 9.0
    vertex -22064.32058946901 27386.592592073423 0.0
    vertex -22064.32058946901 27386.592592073423 21.0
  endloop
endfacet
facet normal 0.0 -1.0 0.0
  outer loop
    vertex -22066.32058946901 27386.592592073423 9.0
    vertex -22064.32058946901 27386.592592073423 21.0
    vertex -22066.32058946901 27386.592592073423 21.0
  endloop
endfacet
facet normal 0.0 -1.0 0.0
  outer loop
    vertex -22076.32058946901 27386.592592073423 21.0
    vertex -22078.32058946901 27386.592592073423 9.0
    vertex -22076.32058946901 27386.592592073423 9.0
  endloop
endfacet
facet normal 0.0 -1.0 0.0
  outer loop
    vertex -22078.32058946901 27386.592592073423 9.0
    vertex -22076.32058946901 27386.592592073423 21.0
    vertex -22078.32058946901 27386.592592073423 21.0
  endloop
endfacet
facet normal 0.0 -1.0 0.0
  outer loop
    vertex -22089.720589469012 27386.592592073423 21.0
    vertex -22091.720589469012 27386.592592073423 9.0
    vertex -22089.720589469012 27386.592592073423 9.0
  endloop
endfacet
facet normal 0.0 -1.0 0.0
  outer loop
    vertex -22091.720589469012 27386.592592073423 9.0
    vertex -22089.720589469012 27386.592592073423 21.0
    vertex -22091.720589469012 27386.592592073423 21.0
  endloop
endfacet
facet normal 0.0 -1.0 0.0
  outer loop
    vertex -22103.720589469012 27386.592592073423 0.0
    vertex -22101.720589469012 27386.592592073423 9.0
    vertex -22103.720589469012 27386.592592073423 21.0
  endloop
endfacet
facet normal 0.0 -1.0 0.0
  outer loop
    vertex -22101.720589469012 27386.592592073423 9.0
    vertex -22103.720589469012 27386.592592073423 0.0
    vertex -22066.32058946901 27386.592592073423 9.0
  endloop
endfacet
facet normal 0.0 -1.0 0.0
  outer loop
    vertex -22101.720589469012 27386.592592073423 9.0
    vertex -22066.32058946901 27386.592592073423 9.0
    vertex -22076.32058946901 27386.592592073423 9.0
  endloop
endfacet
facet normal 0.0 -1.0 0.0
  outer loop
    vertex -22101.720589469012 27386.592592073423 9.0
    vertex -22076.32058946901 27386.592592073423 9.0
    vertex -22078.32058946901 27386.592592073423 9.0
  endloop
endfacet
facet normal 0.0 -1.0 0.0
  outer loop
    vertex -22101.720589469012 27386.592592073423 9.0
    vertex -22078.32058946901 27386.592592073423 9.0
    vertex -22089.720589469012 27386.592592073423 9.0
  endloop
endfacet
facet normal 0.0 -1.0 0.0
  outer loop
    vertex -22101.720589469012 27386.592592073423 9.0
    vertex -22089.720589469012 27386.592592073423 9.0
    vertex -22091.720589469012 27386.592592073423 9.0
  endloop
endfacet
facet normal 0.0 -1.0 0.0
  outer loop
    vertex -22103.720589469012 27386.592592073423 21.0
    vertex -22101.720589469012 27386.592592073423 9.0
    vertex -22101.720589469012 27386.592592073423 21.0
  endloop
endfacet
facet normal 0.0 0.0 1.0
  outer loop
    vertex -22076.32058946901 27386.592592073423 21.0
    vertex -22078.32058946901 27389.592592073423 21.0
    vertex -22078.32058946901 27386.592592073423 21.0
  endloop
endfacet
facet normal 0.0 0.0 1.0
  outer loop
    vertex -22078.32058946901 27389.592592073423 21.0
    vertex -22076.32058946901 27386.592592073423 21.0
    vertex -22076.32058946901 27389.592592073423 21.0
  endloop
endfacet
facet normal 0.0 0.0 1.0
  outer loop
    vertex -22089.720589469012 27386.592592073423 21.0
    vertex -22091.720589469012 27389.592592073423 21.0
    vertex -22091.720589469012 27386.592592073423 21.0
  endloop
endfacet
facet normal 0.0 0.0 1.0
  outer loop
    vertex -22091.720589469012 27389.592592073423 21.0
    vertex -22089.720589469012 27386.592592073423 21.0
    vertex -22089.720589469012 27389.592592073423 21.0
  endloop
endfacet
facet normal 1.0 0.0 0.0
  outer loop
    vertex -22076.32058946901 27389.592592073423 9.0
    vertex -22076.32058946901 27386.592592073423 21.0
    vertex -22076.32058946901 27386.592592073423 9.0
  endloop
endfacet
facet normal 1.0 0.0 0.0
  outer loop
    vertex -22076.32058946901 27386.592592073423 21.0
    vertex -22076.32058946901 27389.592592073423 9.0
    vertex -22076.32058946901 27389.592592073423 21.0
  endloop
endfacet
facet normal -1.0 0.0 0.0
  outer loop
    vertex -22066.32058946901 27389.592592073423 21.0
    vertex -22066.32058946901 27386.592592073423 9.0
    vertex -22066.32058946901 27386.592592073423 21.0
  endloop
endfacet
facet normal -1.0 0.0 0.0
  outer loop
    vertex -22066.32058946901 27386.592592073423 9.0
    vertex -22066.32058946901 27389.592592073423 21.0
    vertex -22066.32058946901 27389.592592073423 9.0
  endloop
endfacet
facet normal 1.0 0.0 0.0
  outer loop
    vertex -22089.720589469012 27389.592592073423 9.0
    vertex -22089.720589469012 27386.592592073423 21.0
    vertex -22089.720589469012 27386.592592073423 9.0
  endloop
endfacet
facet normal 1.0 0.0 0.0
  outer loop
    vertex -22089.720589469012 27386.592592073423 21.0
    vertex -22089.720589469012 27389.592592073423 9.0
    vertex -22089.720589469012 27389.592592073423 21.0
  endloop
endfacet
facet normal -1.0 0.0 0.0
  outer loop
    vertex -22078.32058946901 27389.592592073423 21.0
    vertex -22078.32058946901 27386.592592073423 9.0
    vertex -22078.32058946901 27386.592592073423 21.0
  endloop
endfacet
facet normal -1.0 0.0 0.0
  outer loop
    vertex -22078.32058946901 27386.592592073423 9.0
    vertex -22078.32058946901 27389.592592073423 21.0
    vertex -22078.32058946901 27389.592592073423 9.0
  endloop
endfacet
facet normal -1.0 0.0 0.0
  outer loop
    vertex -22091.720589469012 27389.592592073423 21.0
    vertex -22091.720589469012 27386.592592073423 9.0
    vertex -22091.720589469012 27386.592592073423 21.0
  endloop
endfacet
facet normal -1.0 0.0 0.0
  outer loop
    vertex -22091.720589469012 27386.592592073423 9.0
    vertex -22091.720589469012 27389.592592073423 21.0
    vertex -22091.720589469012 27389.592592073423 9.0
  endloop
endfacet
facet normal 1.0 0.0 0.0
  outer loop
    vertex -22101.720589469012 27389.592592073423 9.0
    vertex -22101.720589469012 27386.592592073423 21.0
    vertex -22101.720589469012 27386.592592073423 9.0
  endloop
endfacet
facet normal 1.0 0.0 0.0
  outer loop
    vertex -22101.720589469012 27386.592592073423 21.0
    vertex -22101.720589469012 27389.592592073423 9.0
    vertex -22101.720589469012 27389.592592073423 21.0
  endloop
endfacet
facet normal 0.0 1.0 0.0
  outer loop
    vertex -22106.720589469012 27389.592592073423 21.0
    vertex -22102.32058946901 27389.592592073423 9.0
    vertex -22106.720589469012 27389.592592073423 9.0
  endloop
endfacet
facet normal 0.0 1.0 0.0
  outer loop
    vertex -22102.32058946901 27389.592592073423 9.0
    vertex -22106.720589469012 27389.592592073423 21.0
    vertex -22101.720589469012 27389.592592073423 9.0
  endloop
endfacet
facet normal 0.0 1.0 0.0
  outer loop
    vertex -22101.720589469012 27389.592592073423 9.0
    vertex -22106.720589469012 27389.592592073423 21.0
    vertex -22101.720589469012 27389.592592073423 21.0
  endloop
endfacet
facet normal 0.0 1.0 0.0
  outer loop
    vertex -22091.720589469012 27389.592592073423 21.0
    vertex -22089.720589469012 27389.592592073423 9.0
    vertex -22091.720589469012 27389.592592073423 9.0
  endloop
endfacet
facet normal 0.0 1.0 0.0
  outer loop
    vertex -22089.720589469012 27389.592592073423 9.0
    vertex -22091.720589469012 27389.592592073423 21.0
    vertex -22089.720589469012 27389.592592073423 21.0
  endloop
endfacet
facet normal 0.0 1.0 0.0
  outer loop
    vertex -22078.32058946901 27389.592592073423 21.0
    vertex -22076.32058946901 27389.592592073423 9.0
    vertex -22078.32058946901 27389.592592073423 9.0
  endloop
endfacet
facet normal 0.0 1.0 0.0
  outer loop
    vertex -22076.32058946901 27389.592592073423 9.0
    vertex -22078.32058946901 27389.592592073423 21.0
    vertex -22076.32058946901 27389.592592073423 21.0
  endloop
endfacet
facet normal 0.0 1.0 0.0
  outer loop
    vertex -22106.720589469012 27409.592592073423 9.0
    vertex -22061.32058946901 27409.592592073423 -3.0
    vertex -22106.720589469012 27409.592592073423 -3.0
  endloop
endfacet
facet normal 0.0 1.0 0.0
  outer loop
    vertex -22061.32058946901 27409.592592073423 -3.0
    vertex -22106.720589469012 27409.592592073423 9.0
    vertex -22061.32058946901 27409.592592073423 9.0
  endloop
endfacet
facet normal 0.0 0.0 1.0
  outer loop
    vertex -22078.32058946901 27386.592592073423 9.0
    vertex -22089.720589469012 27389.592592073423 9.0
    vertex -22089.720589469012 27386.592592073423 9.0
  endloop
endfacet
facet normal 0.0 0.0 1.0
  outer loop
    vertex -22089.720589469012 27389.592592073423 9.0
    vertex -22078.32058946901 27386.592592073423 9.0
    vertex -22078.32058946901 27389.592592073423 9.0
  endloop
endfacet
facet normal 0.0 0.0 1.0
  outer loop
    vertex -22091.720589469012 27386.592592073423 9.0
    vertex -22101.720589469012 27389.592592073423 9.0
    vertex -22101.720589469012 27386.592592073423 9.0
  endloop
endfacet
facet normal 0.0 0.0 1.0
  outer loop
    vertex -22101.720589469012 27389.592592073423 9.0
    vertex -22091.720589469012 27386.592592073423 9.0
    vertex -22091.720589469012 27389.592592073423 9.0
  endloop
endfacet
facet normal 0.0 0.0 1.0
  outer loop
    vertex -22066.32058946901 27386.592592073423 9.0
    vertex -22076.32058946901 27389.592592073423 9.0
    vertex -22076.32058946901 27386.592592073423 9.0
  endloop
endfacet
facet normal 0.0 0.0 1.0
  outer loop
    vertex -22076.32058946901 27389.592592073423 9.0
    vertex -22066.32058946901 27386.592592073423 9.0
    vertex -22066.32058946901 27389.592592073423 9.0
  endloop
endfacet
facet normal 0.0 0.0 1.0
  outer loop
    vertex -22106.720589469012 27389.592592073423 9.0
    vertex -22103.720589469012 27392.59259207342 9.0
    vertex -22106.720589469012 27409.592592073423 9.0
  endloop
endfacet
facet normal 0.0 0.0 1.0
  outer loop
    vertex -22103.720589469012 27392.59259207342 9.0
    vertex -22106.720589469012 27389.592592073423 9.0
    vertex -22102.32058946901 27389.592592073423 9.0
  endloop
endfacet
facet normal 0.0 0.0 1.0
  outer loop
    vertex -22103.720589469012 27392.59259207342 9.0
    vertex -22102.32058946901 27389.592592073423 9.0
    vertex -22064.32058946901 27392.59259207342 9.0
  endloop
endfacet
facet normal 0.0 0.0 1.0
  outer loop
    vertex -22064.32058946901 27392.59259207342 9.0
    vertex -22102.32058946901 27389.592592073423 9.0
    vertex -22101.720589469012 27389.592592073423 9.0
  endloop
endfacet
facet normal 0.0 0.0 1.0
  outer loop
    vertex -22064.32058946901 27392.59259207342 9.0
    vertex -22101.720589469012 27389.592592073423 9.0
    vertex -22091.720589469012 27389.592592073423 9.0
  endloop
endfacet
facet normal 0.0 0.0 1.0
  outer loop
    vertex -22064.32058946901 27392.59259207342 9.0
    vertex -22091.720589469012 27389.592592073423 9.0
    vertex -22089.720589469012 27389.592592073423 9.0
  endloop
endfacet
facet normal 0.0 0.0 1.0
  outer loop
    vertex -22064.32058946901 27392.59259207342 9.0
    vertex -22089.720589469012 27389.592592073423 9.0
    vertex -22078.32058946901 27389.592592073423 9.0
  endloop
endfacet
facet normal 0.0 0.0 1.0
  outer loop
    vertex -22064.32058946901 27392.59259207342 9.0
    vertex -22078.32058946901 27389.592592073423 9.0
    vertex -22076.32058946901 27389.592592073423 9.0
  endloop
endfacet
facet normal 0.0 0.0 1.0
  outer loop
    vertex -22064.32058946901 27392.59259207342 9.0
    vertex -22076.32058946901 27389.592592073423 9.0
    vertex -22066.32058946901 27389.592592073423 9.0
  endloop
endfacet
facet normal 0.0 0.0 1.0
  outer loop
    vertex -22064.32058946901 27392.59259207342 9.0
    vertex -22066.32058946901 27389.592592073423 9.0
    vertex -22061.32058946901 27389.592592073423 9.0
  endloop
endfacet
facet normal 0.0 0.0 1.0
  outer loop
    vertex -22064.32058946901 27392.59259207342 9.0
    vertex -22061.32058946901 27389.592592073423 9.0
    vertex -22064.32058946901 27398.092592073423 9.0
  endloop
endfacet
facet normal 0.0 0.0 1.0
  outer loop
    vertex -22064.32058946901 27398.092592073423 9.0
    vertex -22061.32058946901 27389.592592073423 9.0
    vertex -22064.32058946901 27401.092592073426 9.0
  endloop
endfacet
facet normal 0.0 0.0 1.0
  outer loop
    vertex -22064.32058946901 27401.092592073426 9.0
    vertex -22061.32058946901 27389.592592073423 9.0
    vertex -22064.32058946901 27406.592592073423 9.0
  endloop
endfacet
facet normal 0.0 0.0 1.0
  outer loop
    vertex -22106.720589469012 27409.592592073423 9.0
    vertex -22103.720589469012 27406.592592073423 9.0
    vertex -22061.32058946901 27409.592592073423 9.0
  endloop
endfacet
facet normal 0.0 0.0 1.0
  outer loop
    vertex -22103.720589469012 27406.592592073423 9.0
    vertex -22106.720589469012 27409.592592073423 9.0
    vertex -22103.720589469012 27392.59259207342 9.0
  endloop
endfacet
facet normal 0.0 0.0 1.0
  outer loop
    vertex -22103.720589469012 27406.592592073423 9.0
    vertex -22103.720589469012 27392.59259207342 9.0
    vertex -22103.720589469012 27398.092592073423 9.0
  endloop
endfacet
facet normal 0.0 0.0 1.0
  outer loop
    vertex -22103.720589469012 27406.592592073423 9.0
    vertex -22103.720589469012 27398.092592073423 9.0
    vertex -22103.720589469012 27401.092592073426 9.0
  endloop
endfacet
facet normal 0.0 0.0 1.0
  outer loop
    vertex -22061.32058946901 27409.592592073423 9.0
    vertex -22103.720589469012 27406.592592073423 9.0
    vertex -22064.32058946901 27406.592592073423 9.0
  endloop
endfacet
facet normal 0.0 0.0 1.0
  outer loop
    vertex -22061.32058946901 27409.592592073423 9.0
    vertex -22064.32058946901 27406.592592073423 9.0
    vertex -22061.32058946901 27389.592592073423 9.0
  endloop
endfacet
facet normal 0.0 0.0 1.0
  outer loop
    vertex -22061.32058946901 27409.592592073423 9.0
    vertex -22061.32058946901 27389.592592073423 9.0
    vertex -22061.32058946901 27394.592592073426 9.0
  endloop
endfacet
facet normal 0.0 0.0 1.0
  outer loop
    vertex -22061.32058946901 27409.592592073423 9.0
    vertex -22061.32058946901 27394.592592073426 9.0
    vertex -22061.32058946901 27399.592592073426 9.0
  endloop
endfacet
facet normal 0.0 0.0 1.0
  outer loop
    vertex -22061.32058946901 27409.592592073423 9.0
    vertex -22061.32058946901 27399.592592073426 9.0
    vertex -22061.32058946901 27404.592592073423 9.0
  endloop
endfacet
facet normal 0.0 0.0 1.0
  outer loop
    vertex -22064.32058946901 27398.092592073423 9.0
    vertex -22103.720589469012 27401.092592073426 9.0
    vertex -22103.720589469012 27398.092592073423 9.0
  endloop
endfacet
facet normal 0.0 0.0 1.0
  outer loop
    vertex -22103.720589469012 27401.092592073426 9.0
    vertex -22064.32058946901 27398.092592073423 9.0
    vertex -22064.32058946901 27401.092592073426 9.0
  endloop
endfacet
facet normal -1.0 0.0 0.0
  outer loop
    vertex -22064.32058946901 27398.092592073423 9.0
    vertex -22064.32058946901 27392.59259207342 -3.0000000000000058
    vertex -22064.32058946901 27392.59259207342 9.0
  endloop
endfacet
facet normal -1.0 0.0 0.0
  outer loop
    vertex -22064.32058946901 27392.59259207342 -3.0000000000000058
    vertex -22064.32058946901 27398.092592073423 9.0
    vertex -22064.32058946901 27398.092592073423 -3.0000000000000058
  endloop
endfacet
facet normal -0.0 -1.0 -0.0
  outer loop
    vertex -22064.32058946901 27398.092592073423 9.0
    vertex -22103.720589469012 27398.092592073423 -3.0000000000000058
    vertex -22064.32058946901 27398.092592073423 -3.0000000000000058
  endloop
endfacet
facet normal -0.0 -1.0 -0.0
  outer loop
    vertex -22103.720589469012 27398.092592073423 -3.0000000000000058
    vertex -22064.32058946901 27398.092592073423 9.0
    vertex -22103.720589469012 27398.092592073423 9.0
  endloop
endfacet
facet normal 1.0 0.0 0.0
  outer loop
    vertex -22103.720589469012 27398.092592073423 -3.0000000000000058
    vertex -22103.720589469012 27392.59259207342 9.0
    vertex -22103.720589469012 27392.59259207342 -3.0000000000000058
  endloop
endfacet
facet normal 1.0 0.0 0.0
  outer loop
    vertex -22103.720589469012 27392.59259207342 9.0
    vertex -22103.720589469012 27398.092592073423 -3.0000000000000058
    vertex -22103.720589469012 27398.092592073423 9.0
  endloop
endfacet
facet normal 0.0 1.0 0.0
  outer loop
    vertex -22103.720589469012 27392.59259207342 9.0
    vertex -22064.32058946901 27392.59259207342 -3.0000000000000058
    vertex -22103.720589469012 27392.59259207342 -3.0000000000000058
  endloop
endfacet
facet normal 0.0 1.0 0.0
  outer loop
    vertex -22064.32058946901 27392.59259207342 -3.0000000000000058
    vertex -22103.720589469012 27392.59259207342 9.0
    vertex -22064.32058946901 27392.59259207342 9.0
  endloop
endfacet
facet normal 1.0 0.0 0.0
  outer loop
    vertex -22103.720589469012 27406.592592073423 -2.999999999999993
    vertex -22103.720589469012 27401.092592073426 9.0
    vertex -22103.720589469012 27401.092592073426 -2.999999999999993
  endloop
endfacet
facet normal 1.0 0.0 0.0
  outer loop
    vertex -22103.720589469012 27401.092592073426 9.0
    vertex -22103.720589469012 27406.592592073423 -2.999999999999993
    vertex -22103.720589469012 27406.592592073423 9.0
  endloop
endfacet
facet normal 0.0 1.0 0.0
  outer loop
    vertex -22103.720589469012 27401.092592073426 9.0
    vertex -22064.32058946901 27401.092592073426 -2.999999999999993
    vertex -22103.720589469012 27401.092592073426 -2.999999999999993
  endloop
endfacet
facet normal 0.0 1.0 0.0
  outer loop
    vertex -22064.32058946901 27401.092592073426 -2.999999999999993
    vertex -22103.720589469012 27401.092592073426 9.0
    vertex -22064.32058946901 27401.092592073426 9.0
  endloop
endfacet
facet normal -1.0 0.0 0.0
  outer loop
    vertex -22064.32058946901 27406.592592073423 9.0
    vertex -22064.32058946901 27401.092592073426 -2.999999999999993
    vertex -22064.32058946901 27401.092592073426 9.0
  endloop
endfacet
facet normal -1.0 0.0 0.0
  outer loop
    vertex -22064.32058946901 27401.092592073426 -2.999999999999993
    vertex -22064.32058946901 27406.592592073423 9.0
    vertex -22064.32058946901 27406.592592073423 -2.999999999999993
  endloop
endfacet
facet normal -0.0 -1.0 -0.0
  outer loop
    vertex -22064.32058946901 27406.592592073423 9.0
    vertex -22103.720589469012 27406.592592073423 -2.999999999999993
    vertex -22064.32058946901 27406.592592073423 -2.999999999999993
  endloop
endfacet
facet normal -0.0 -1.0 -0.0
  outer loop
    vertex -22103.720589469012 27406.592592073423 -2.999999999999993
    vertex -22064.32058946901 27406.592592073423 9.0
    vertex -22103.720589469012 27406.592592073423 9.0
  endloop
endfacet
endsolid Main
