solid Main
facet normal 5.234778828762708e-18 -2.9530054456957405e-18 -1.0
  outer loop
    vertex -22106.720589469012 27309.592592073423 -3.0
    vertex -22103.720589469012 27306.592592073423 -2.999999999999993
    vertex -22106.720589469012 27256.192592073417 -3.0
  endloop
endfacet
facet normal 5.234778828762708e-18 -2.9530054456957405e-18 -1.0
  outer loop
    vertex -22103.720589469012 27306.592592073423 -2.999999999999993
    vertex -22106.720589469012 27309.592592073423 -3.0
    vertex -22061.32058946901 27309.592592073423 -3.0
  endloop
endfacet
facet normal 5.234778828762708e-18 -2.9530054456957405e-18 -1.0
  outer loop
    vertex -22103.720589469012 27306.592592073423 -2.999999999999993
    vertex -22061.32058946901 27309.592592073423 -3.0
    vertex -22098.720589469012 27306.592592073423 -2.9999999999999947
  endloop
endfacet
facet normal 5.234778828762708e-18 -2.9530054456957405e-18 -1.0
  outer loop
    vertex -22098.720589469012 27306.592592073423 -2.9999999999999947
    vertex -22061.32058946901 27309.592592073423 -3.0
    vertex -22094.720589469012 27306.592592073423 -2.9999999999999947
  endloop
endfacet
facet normal 5.234778828762708e-18 -2.9530054456957405e-18 -1.0
  outer loop
    vertex -22094.720589469012 27306.592592073423 -2.9999999999999947
    vertex -22061.32058946901 27309.592592073423 -3.0
    vertex -22086.02058946901 27306.592592073423 -2.999999999999989
  endloop
endfacet
facet normal 5.234778828762708e-18 -2.9530054456957405e-18 -1.0
  outer loop
    vertex -22086.02058946901 27306.592592073423 -2.999999999999989
    vertex -22061.32058946901 27309.592592073423 -3.0
    vertex -22082.02058946901 27306.592592073423 -2.999999999999989
  endloop
endfacet
facet normal 5.234778828762708e-18 -2.9530054456957405e-18 -1.0
  outer loop
    vertex -22082.02058946901 27306.592592073423 -2.999999999999989
    vertex -22061.32058946901 27309.592592073423 -3.0
    vertex -22073.32058946901 27306.592592073423 -2.9999999999999947
  endloop
endfacet
facet normal 5.234778828762708e-18 -2.9530054456957405e-18 -1.0
  outer loop
    vertex -22073.32058946901 27306.592592073423 -2.9999999999999947
    vertex -22061.32058946901 27309.592592073423 -3.0
    vertex -22069.32058946901 27306.592592073423 -2.9999999999999947
  endloop
endfacet
facet normal 5.234778828762708e-18 -2.9530054456957405e-18 -1.0
  outer loop
    vertex -22069.32058946901 27306.592592073423 -2.9999999999999947
    vertex -22061.32058946901 27309.592592073423 -3.0
    vertex -22064.32058946901 27306.592592073423 -2.999999999999993
  endloop
endfacet
facet normal 5.234778828762708e-18 -2.9530054456957405e-18 -1.0
  outer loop
    vertex -22064.32058946901 27306.592592073423 -2.999999999999993
    vertex -22061.32058946901 27309.592592073423 -3.0
    vertex -22064.32058946901 27292.59259207342 -3.0000000000000058
  endloop
endfacet
facet normal 5.234778828762708e-18 -2.9530054456957405e-18 -1.0
  outer loop
    vertex -22106.720589469012 27256.192592073417 -3.0
    vertex -22103.720589469012 27292.59259207342 -3.0000000000000058
    vertex -22096.72058946901 27246.192592073417 -3.0
  endloop
endfacet
facet normal 5.234778828762708e-18 -2.9530054456957405e-18 -1.0
  outer loop
    vertex -22103.720589469012 27292.59259207342 -3.0000000000000058
    vertex -22106.720589469012 27256.192592073417 -3.0
    vertex -22103.720589469012 27306.592592073423 -2.999999999999993
  endloop
endfacet
facet normal 5.234778828762708e-18 -2.9530054456957405e-18 -1.0
  outer loop
    vertex -22096.72058946901 27246.192592073417 -3.0
    vertex -22103.720589469012 27292.59259207342 -3.0000000000000058
    vertex -22064.32058946901 27292.59259207342 -3.0000000000000058
  endloop
endfacet
facet normal 5.234778828762708e-18 -2.9530054456957405e-18 -1.0
  outer loop
    vertex -22096.72058946901 27246.192592073417 -3.0
    vertex -22064.32058946901 27292.59259207342 -3.0000000000000058
    vertex -22071.320589469015 27246.192592073417 -3.0
  endloop
endfacet
facet normal 5.234778828762708e-18 -2.9530054456957405e-18 -1.0
  outer loop
    vertex -22071.320589469015 27246.192592073417 -3.0
    vertex -22064.32058946901 27292.59259207342 -3.0000000000000058
    vertex -22061.32058946901 27256.192592073417 -3.0
  endloop
endfacet
facet normal 5.234778828762708e-18 -2.9530054456957405e-18 -1.0
  outer loop
    vertex -22061.32058946901 27256.192592073417 -3.0
    vertex -22064.32058946901 27292.59259207342 -3.0000000000000058
    vertex -22061.32058946901 27309.592592073423 -3.0
  endloop
endfacet
facet normal 0.0 -1.0 0.0
  outer loop
    vertex -22071.320589469015 27246.192592073417 -3.0
    vertex -22096.72058946901 27246.192592073417 21.0
    vertex -22096.72058946901 27246.192592073417 -3.0
  endloop
endfacet
facet normal 0.0 -1.0 0.0
  outer loop
    vertex -22096.72058946901 27246.192592073417 21.0
    vertex -22071.320589469015 27246.192592073417 -3.0
    vertex -22071.320589469015 27246.192592073417 21.0
  endloop
endfacet
facet normal -1.0 0.0 0.0
  outer loop
    vertex -22106.720589469012 27289.592592073423 21.0
    vertex -22106.720589469012 27256.192592073417 -3.0
    vertex -22106.720589469012 27256.192592073417 21.0
  endloop
endfacet
facet normal -1.0 0.0 0.0
  outer loop
    vertex -22106.720589469012 27256.192592073417 -3.0
    vertex -22106.720589469012 27289.592592073423 21.0
    vertex -22106.720589469012 27289.592592073423 9.0
  endloop
endfacet
facet normal -1.0 0.0 0.0
  outer loop
    vertex -22106.720589469012 27256.192592073417 -3.0
    vertex -22106.720589469012 27289.592592073423 9.0
    vertex -22106.720589469012 27309.592592073423 -3.0
  endloop
endfacet
facet normal -1.0 0.0 0.0
  outer loop
    vertex -22106.720589469012 27309.592592073423 -3.0
    vertex -22106.720589469012 27289.592592073423 9.0
    vertex -22106.720589469012 27309.592592073423 9.0
  endloop
endfacet
facet normal 0.0 1.0 0.0
  outer loop
    vertex -22066.32058946901 27289.592592073423 21.0
    vertex -22061.32058946901 27289.592592073423 9.0
    vertex -22066.32058946901 27289.592592073423 9.0
  endloop
endfacet
facet normal 0.0 1.0 0.0
  outer loop
    vertex -22061.32058946901 27289.592592073423 9.0
    vertex -22066.32058946901 27289.592592073423 21.0
    vertex -22061.32058946901 27289.592592073423 21.0
  endloop
endfacet
facet normal 1.0 0.0 0.0
  outer loop
    vertex -22061.32058946901 27309.592592073423 -3.0
    vertex -22061.32058946901 27256.192592073417 21.0
    vertex -22061.32058946901 27256.192592073417 -3.0
  endloop
endfacet
facet normal 1.0 0.0 0.0
  outer loop
    vertex -22061.32058946901 27256.192592073417 21.0
    vertex -22061.32058946901 27309.592592073423 -3.0
    vertex -22061.32058946901 27289.592592073423 9.0
  endloop
endfacet
facet normal 1.0 0.0 0.0
  outer loop
    vertex -22061.32058946901 27289.592592073423 9.0
    vertex -22061.32058946901 27309.592592073423 -3.0
    vertex -22061.32058946901 27294.592592073426 9.0
  endloop
endfacet
facet normal 1.0 0.0 0.0
  outer loop
    vertex -22061.32058946901 27294.592592073426 9.0
    vertex -22061.32058946901 27309.592592073423 -3.0
    vertex -22061.32058946901 27299.592592073426 9.0
  endloop
endfacet
facet normal 1.0 0.0 0.0
  outer loop
    vertex -22061.32058946901 27299.592592073426 9.0
    vertex -22061.32058946901 27309.592592073423 -3.0
    vertex -22061.32058946901 27304.592592073423 9.0
  endloop
endfacet
facet normal 1.0 0.0 0.0
  outer loop
    vertex -22061.32058946901 27304.592592073423 9.0
    vertex -22061.32058946901 27309.592592073423 -3.0
    vertex -22061.32058946901 27309.592592073423 9.0
  endloop
endfacet
facet normal 1.0 0.0 0.0
  outer loop
    vertex -22061.32058946901 27289.592592073423 21.0
    vertex -22061.32058946901 27256.192592073417 21.0
    vertex -22061.32058946901 27289.592592073423 9.0
  endloop
endfacet
facet normal 0.0 0.0 1.0
  outer loop
    vertex -22077.32058946901 27249.192592073417 0.0
    vertex -22090.720589469012 27264.192592073414 0.0
    vertex -22090.720589469012 27249.192592073417 0.0
  endloop
endfacet
facet normal 0.0 0.0 1.0
  outer loop
    vertex -22090.720589469012 27264.192592073414 0.0
    vertex -22103.720589469012 27286.592592073423 0.0
    vertex -22103.720589469012 27264.192592073414 0.0
  endloop
endfacet
facet normal 0.0 0.0 1.0
  outer loop
    vertex -22103.720589469012 27286.592592073423 0.0
    vertex -22090.720589469012 27264.192592073414 0.0
    vertex -22064.32058946901 27286.592592073423 0.0
  endloop
endfacet
facet normal 0.0 0.0 1.0
  outer loop
    vertex -22064.32058946901 27286.592592073423 0.0
    vertex -22090.720589469012 27264.192592073414 0.0
    vertex -22077.32058946901 27264.192592073414 0.0
  endloop
endfacet
facet normal 0.0 0.0 1.0
  outer loop
    vertex -22077.32058946901 27264.192592073414 0.0
    vertex -22090.720589469012 27264.192592073414 0.0
    vertex -22077.32058946901 27249.192592073417 0.0
  endloop
endfacet
facet normal 0.0 0.0 1.0
  outer loop
    vertex -22064.32058946901 27286.592592073423 0.0
    vertex -22077.32058946901 27264.192592073414 0.0
    vertex -22064.32058946901 27264.192592073414 0.0
  endloop
endfacet
facet normal -0.7071067811864455 -0.7071067811866496 0.0
  outer loop
    vertex -22096.72058946901 27246.192592073417 21.0
    vertex -22106.720589469012 27256.192592073417 -3.0
    vertex -22096.72058946901 27246.192592073417 -3.0
  endloop
endfacet
facet normal -0.7071067811864455 -0.7071067811866496 0.0
  outer loop
    vertex -22106.720589469012 27256.192592073417 -3.0
    vertex -22096.72058946901 27246.192592073417 21.0
    vertex -22106.720589469012 27256.192592073417 21.0
  endloop
endfacet
facet normal 0.7071067811864455 -0.7071067811866496 0.0
  outer loop
    vertex -22061.32058946901 27256.192592073417 21.0
    vertex -22071.320589469015 27246.192592073417 -3.0
    vertex -22061.32058946901 27256.192592073417 -3.0
  endloop
endfacet
facet normal 0.7071067811864455 -0.7071067811866496 0.0
  outer loop
    vertex -22071.320589469015 27246.192592073417 -3.0
    vertex -22061.32058946901 27256.192592073417 21.0
    vertex -22071.320589469015 27246.192592073417 21.0
  endloop
endfacet
facet normal 0.0 0.0 1.0
  outer loop
    vertex -22071.320589469015 27246.192592073417 21.0
    vertex -22090.720589469012 27249.192592073417 21.0
    vertex -22096.72058946901 27246.192592073417 21.0
  endloop
endfacet
facet normal 0.0 0.0 1.0
  outer loop
    vertex -22090.720589469012 27249.192592073417 21.0
    vertex -22071.320589469015 27246.192592073417 21.0
    vertex -22077.32058946901 27249.192592073417 21.0
  endloop
endfacet
facet normal 0.0 0.0 1.0
  outer loop
    vertex -22077.32058946901 27249.192592073417 21.0
    vertex -22071.320589469015 27246.192592073417 21.0
    vertex -22077.32058946901 27264.192592073414 21.0
  endloop
endfacet
facet normal 0.0 0.0 1.0
  outer loop
    vertex -22077.32058946901 27264.192592073414 21.0
    vertex -22071.320589469015 27246.192592073417 21.0
    vertex -22064.32058946901 27264.192592073414 21.0
  endloop
endfacet
facet normal 0.0 0.0 1.0
  outer loop
    vertex -22064.32058946901 27264.192592073414 21.0
    vertex -22071.320589469015 27246.192592073417 21.0
    vertex -22061.32058946901 27256.192592073417 21.0
  endloop
endfacet
facet normal 0.0 0.0 1.0
  outer loop
    vertex -22064.32058946901 27264.192592073414 21.0
    vertex -22061.32058946901 27256.192592073417 21.0
    vertex -22064.32058946901 27286.592592073423 21.0
  endloop
endfacet
facet normal 0.0 0.0 1.0
  outer loop
    vertex -22064.32058946901 27286.592592073423 21.0
    vertex -22066.32058946901 27289.592592073423 21.0
    vertex -22066.32058946901 27286.592592073423 21.0
  endloop
endfacet
facet normal 0.0 0.0 1.0
  outer loop
    vertex -22066.32058946901 27289.592592073423 21.0
    vertex -22064.32058946901 27286.592592073423 21.0
    vertex -22061.32058946901 27289.592592073423 21.0
  endloop
endfacet
facet normal 0.0 0.0 1.0
  outer loop
    vertex -22061.32058946901 27289.592592073423 21.0
    vertex -22064.32058946901 27286.592592073423 21.0
    vertex -22061.32058946901 27256.192592073417 21.0
  endloop
endfacet
facet normal 0.0 0.0 1.0
  outer loop
    vertex -22106.720589469012 27256.192592073417 21.0
    vertex -22103.720589469012 27264.192592073414 21.0
    vertex -22106.720589469012 27289.592592073423 21.0
  endloop
endfacet
facet normal 0.0 0.0 1.0
  outer loop
    vertex -22103.720589469012 27264.192592073414 21.0
    vertex -22106.720589469012 27256.192592073417 21.0
    vertex -22096.72058946901 27246.192592073417 21.0
  endloop
endfacet
facet normal 0.0 0.0 1.0
  outer loop
    vertex -22103.720589469012 27264.192592073414 21.0
    vertex -22096.72058946901 27246.192592073417 21.0
    vertex -22090.720589469012 27264.192592073414 21.0
  endloop
endfacet
facet normal 0.0 0.0 1.0
  outer loop
    vertex -22090.720589469012 27264.192592073414 21.0
    vertex -22096.72058946901 27246.192592073417 21.0
    vertex -22090.720589469012 27249.192592073417 21.0
  endloop
endfacet
facet normal 0.0 0.0 1.0
  outer loop
    vertex -22106.720589469012 27289.592592073423 21.0
    vertex -22103.720589469012 27286.592592073423 21.0
    vertex -22101.720589469012 27289.592592073423 21.0
  endloop
endfacet
facet normal 0.0 0.0 1.0
  outer loop
    vertex -22103.720589469012 27286.592592073423 21.0
    vertex -22106.720589469012 27289.592592073423 21.0
    vertex -22103.720589469012 27264.192592073414 21.0
  endloop
endfacet
facet normal 0.0 0.0 1.0
  outer loop
    vertex -22101.720589469012 27289.592592073423 21.0
    vertex -22103.720589469012 27286.592592073423 21.0
    vertex -22101.720589469012 27286.592592073423 21.0
  endloop
endfacet
facet normal -1.0 0.0 0.0
  outer loop
    vertex -22064.32058946901 27286.592592073423 21.0
    vertex -22064.32058946901 27264.192592073414 0.0
    vertex -22064.32058946901 27264.192592073414 21.0
  endloop
endfacet
facet normal -1.0 0.0 0.0
  outer loop
    vertex -22064.32058946901 27264.192592073414 0.0
    vertex -22064.32058946901 27286.592592073423 21.0
    vertex -22064.32058946901 27286.592592073423 0.0
  endloop
endfacet
facet normal 0.0 1.0 0.0
  outer loop
    vertex -22077.32058946901 27264.192592073414 21.0
    vertex -22064.32058946901 27264.192592073414 0.0
    vertex -22077.32058946901 27264.192592073414 0.0
  endloop
endfacet
facet normal 0.0 1.0 0.0
  outer loop
    vertex -22064.32058946901 27264.192592073414 0.0
    vertex -22077.32058946901 27264.192592073414 21.0
    vertex -22064.32058946901 27264.192592073414 21.0
  endloop
endfacet
facet normal -1.0 0.0 0.0
  outer loop
    vertex -22077.32058946901 27264.192592073414 21.0
    vertex -22077.32058946901 27249.192592073417 0.0
    vertex -22077.32058946901 27249.192592073417 21.0
  endloop
endfacet
facet normal -1.0 0.0 0.0
  outer loop
    vertex -22077.32058946901 27249.192592073417 0.0
    vertex -22077.32058946901 27264.192592073414 21.0
    vertex -22077.32058946901 27264.192592073414 0.0
  endloop
endfacet
facet normal 0.0 1.0 0.0
  outer loop
    vertex -22090.720589469012 27249.192592073417 21.0
    vertex -22077.32058946901 27249.192592073417 0.0
    vertex -22090.720589469012 27249.192592073417 0.0
  endloop
endfacet
facet normal 0.0 1.0 0.0
  outer loop
    vertex -22077.32058946901 27249.192592073417 0.0
    vertex -22090.720589469012 27249.192592073417 21.0
    vertex -22077.32058946901 27249.192592073417 21.0
  endloop
endfacet
facet normal 1.0 0.0 0.0
  outer loop
    vertex -22090.720589469012 27264.192592073414 0.0
    vertex -22090.720589469012 27249.192592073417 21.0
    vertex -22090.720589469012 27249.192592073417 0.0
  endloop
endfacet
facet normal 1.0 0.0 0.0
  outer loop
    vertex -22090.720589469012 27249.192592073417 21.0
    vertex -22090.720589469012 27264.192592073414 0.0
    vertex -22090.720589469012 27264.192592073414 21.0
  endloop
endfacet
facet normal 0.0 1.0 0.0
  outer loop
    vertex -22103.720589469012 27264.192592073414 21.0
    vertex -22090.720589469012 27264.192592073414 0.0
    vertex -22103.720589469012 27264.192592073414 0.0
  endloop
endfacet
facet normal 0.0 1.0 0.0
  outer loop
    vertex -22090.720589469012 27264.192592073414 0.0
    vertex -22103.720589469012 27264.192592073414 21.0
    vertex -22090.720589469012 27264.192592073414 21.0
  endloop
endfacet
facet normal 1.0 0.0 0.0
  outer loop
    vertex -22103.720589469012 27286.592592073423 0.0
    vertex -22103.720589469012 27264.192592073414 21.0
    vertex -22103.720589469012 27264.192592073414 0.0
  endloop
endfacet
facet normal 1.0 0.0 0.0
  outer loop
    vertex -22103.720589469012 27264.192592073414 21.0
    vertex -22103.720589469012 27286.592592073423 0.0
    vertex -22103.720589469012 27286.592592073423 21.0
  endloop
endfacet
facet normal 0.0 -1.0 0.0
  outer loop
    vertex -22064.32058946901 27286.592592073423 0.0
    vertex -22066.32058946901 27286.592592073423 9.0
    vertex -22103.720589469012 27286.592592073423 0.0
  endloop
endfacet
facet normal 0.0 -1.0 0.0
  outer loop
    vertex -22066.32058946901 27286.592592073423 9.0
    vertex -22064.32058946901 27286.592592073423 0.0
    vertex -22064.32058946901 27286.592592073423 21.0
  endloop
endfacet
facet normal 0.0 -1.0 0.0
  outer loop
    vertex -22066.32058946901 27286.592592073423 9.0
    vertex -22064.32058946901 27286.592592073423 21.0
    vertex -22066.32058946901 27286.592592073423 21.0
  endloop
endfacet
facet normal 0.0 -1.0 0.0
  outer loop
    vertex -22076.32058946901 27286.592592073423 21.0
    vertex -22078.32058946901 27286.592592073423 9.0
    vertex -22076.32058946901 27286.592592073423 9.0
  endloop
endfacet
facet normal 0.0 -1.0 0.0
  outer loop
    vertex -22078.32058946901 27286.592592073423 9.0
    vertex -22076.32058946901 27286.592592073423 21.0
    vertex -22078.32058946901 27286.592592073423 21.0
  endloop
endfacet
facet normal 0.0 -1.0 0.0
  outer loop
    vertex -22089.720589469012 27286.592592073423 21.0
    vertex -22091.720589469012 27286.592592073423 9.0
    vertex -22089.720589469012 27286.592592073423 9.0
  endloop
endfacet
facet normal 0.0 -1.0 0.0
  outer loop
    vertex -22091.720589469012 27286.592592073423 9.0
    vertex -22089.720589469012 27286.592592073423 21.0
    vertex -22091.720589469012 27286.592592073423 21.0
  endloop
endfacet
facet normal 0.0 -1.0 0.0
  outer loop
    vertex -22103.720589469012 27286.592592073423 0.0
    vertex -22101.720589469012 27286.592592073423 9.0
    vertex -22103.720589469012 27286.592592073423 21.0
  endloop
endfacet
facet normal 0.0 -1.0 0.0
  outer loop
    vertex -22101.720589469012 27286.592592073423 9.0
    vertex -22103.720589469012 27286.592592073423 0.0
    vertex -22066.32058946901 27286.592592073423 9.0
  endloop
endfacet
facet normal 0.0 -1.0 0.0
  outer loop
    vertex -22101.720589469012 27286.592592073423 9.0
    vertex -22066.32058946901 27286.592592073423 9.0
    vertex -22076.32058946901 27286.592592073423 9.0
  endloop
endfacet
facet normal 0.0 -1.0 0.0
  outer loop
    vertex -22101.720589469012 27286.592592073423 9.0
    vertex -22076.32058946901 27286.592592073423 9.0
    vertex -22078.32058946901 27286.592592073423 9.0
  endloop
endfacet
facet normal 0.0 -1.0 0.0
  outer loop
    vertex -22101.720589469012 27286.592592073423 9.0
    vertex -22078.32058946901 27286.592592073423 9.0
    vertex -22089.720589469012 27286.592592073423 9.0
  endloop
endfacet
facet normal 0.0 -1.0 0.0
  outer loop
    vertex -22101.720589469012 27286.592592073423 9.0
    vertex -22089.720589469012 27286.592592073423 9.0
    vertex -22091.720589469012 27286.592592073423 9.0
  endloop
endfacet
facet normal 0.0 -1.0 0.0
  outer loop
    vertex -22103.720589469012 27286.592592073423 21.0
    vertex -22101.720589469012 27286.592592073423 9.0
    vertex -22101.720589469012 27286.592592073423 21.0
  endloop
endfacet
facet normal 0.0 0.0 1.0
  outer loop
    vertex -22076.32058946901 27286.592592073423 21.0
    vertex -22078.32058946901 27289.592592073423 21.0
    vertex -22078.32058946901 27286.592592073423 21.0
  endloop
endfacet
facet normal 0.0 0.0 1.0
  outer loop
    vertex -22078.32058946901 27289.592592073423 21.0
    vertex -22076.32058946901 27286.592592073423 21.0
    vertex -22076.32058946901 27289.592592073423 21.0
  endloop
endfacet
facet normal 0.0 0.0 1.0
  outer loop
    vertex -22089.720589469012 27286.592592073423 21.0
    vertex -22091.720589469012 27289.592592073423 21.0
    vertex -22091.720589469012 27286.592592073423 21.0
  endloop
endfacet
facet normal 0.0 0.0 1.0
  outer loop
    vertex -22091.720589469012 27289.592592073423 21.0
    vertex -22089.720589469012 27286.592592073423 21.0
    vertex -22089.720589469012 27289.592592073423 21.0
  endloop
endfacet
facet normal 1.0 0.0 0.0
  outer loop
    vertex -22076.32058946901 27289.592592073423 9.0
    vertex -22076.32058946901 27286.592592073423 21.0
    vertex -22076.32058946901 27286.592592073423 9.0
  endloop
endfacet
facet normal 1.0 0.0 0.0
  outer loop
    vertex -22076.32058946901 27286.592592073423 21.0
    vertex -22076.32058946901 27289.592592073423 9.0
    vertex -22076.32058946901 27289.592592073423 21.0
  endloop
endfacet
facet normal -1.0 0.0 0.0
  outer loop
    vertex -22066.32058946901 27289.592592073423 21.0
    vertex -22066.32058946901 27286.592592073423 9.0
    vertex -22066.32058946901 27286.592592073423 21.0
  endloop
endfacet
facet normal -1.0 0.0 0.0
  outer loop
    vertex -22066.32058946901 27286.592592073423 9.0
    vertex -22066.32058946901 27289.592592073423 21.0
    vertex -22066.32058946901 27289.592592073423 9.0
  endloop
endfacet
facet normal 1.0 0.0 0.0
  outer loop
    vertex -22089.720589469012 27289.592592073423 9.0
    vertex -22089.720589469012 27286.592592073423 21.0
    vertex -22089.720589469012 27286.592592073423 9.0
  endloop
endfacet
facet normal 1.0 0.0 0.0
  outer loop
    vertex -22089.720589469012 27286.592592073423 21.0
    vertex -22089.720589469012 27289.592592073423 9.0
    vertex -22089.720589469012 27289.592592073423 21.0
  endloop
endfacet
facet normal -1.0 0.0 0.0
  outer loop
    vertex -22078.32058946901 27289.592592073423 21.0
    vertex -22078.32058946901 27286.592592073423 9.0
    vertex -22078.32058946901 27286.592592073423 21.0
  endloop
endfacet
facet normal -1.0 0.0 0.0
  outer loop
    vertex -22078.32058946901 27286.592592073423 9.0
    vertex -22078.32058946901 27289.592592073423 21.0
    vertex -22078.32058946901 27289.592592073423 9.0
  endloop
endfacet
facet normal -1.0 0.0 0.0
  outer loop
    vertex -22091.720589469012 27289.592592073423 21.0
    vertex -22091.720589469012 27286.592592073423 9.0
    vertex -22091.720589469012 27286.592592073423 21.0
  endloop
endfacet
facet normal -1.0 0.0 0.0
  outer loop
    vertex -22091.720589469012 27286.592592073423 9.0
    vertex -22091.720589469012 27289.592592073423 21.0
    vertex -22091.720589469012 27289.592592073423 9.0
  endloop
endfacet
facet normal 1.0 0.0 0.0
  outer loop
    vertex -22101.720589469012 27289.592592073423 9.0
    vertex -22101.720589469012 27286.592592073423 21.0
    vertex -22101.720589469012 27286.592592073423 9.0
  endloop
endfacet
facet normal 1.0 0.0 0.0
  outer loop
    vertex -22101.720589469012 27286.592592073423 21.0
    vertex -22101.720589469012 27289.592592073423 9.0
    vertex -22101.720589469012 27289.592592073423 21.0
  endloop
endfacet
facet normal 0.0 1.0 0.0
  outer loop
    vertex -22106.720589469012 27289.592592073423 21.0
    vertex -22102.32058946901 27289.592592073423 9.0
    vertex -22106.720589469012 27289.592592073423 9.0
  endloop
endfacet
facet normal 0.0 1.0 0.0
  outer loop
    vertex -22102.32058946901 27289.592592073423 9.0
    vertex -22106.720589469012 27289.592592073423 21.0
    vertex -22101.720589469012 27289.592592073423 9.0
  endloop
endfacet
facet normal 0.0 1.0 0.0
  outer loop
    vertex -22101.720589469012 27289.592592073423 9.0
    vertex -22106.720589469012 27289.592592073423 21.0
    vertex -22101.720589469012 27289.592592073423 21.0
  endloop
endfacet
facet normal 0.0 1.0 0.0
  outer loop
    vertex -22091.720589469012 27289.592592073423 21.0
    vertex -22089.720589469012 27289.592592073423 9.0
    vertex -22091.720589469012 27289.592592073423 9.0
  endloop
endfacet
facet normal 0.0 1.0 0.0
  outer loop
    vertex -22089.720589469012 27289.592592073423 9.0
    vertex -22091.720589469012 27289.592592073423 21.0
    vertex -22089.720589469012 27289.592592073423 21.0
  endloop
endfacet
facet normal 0.0 1.0 0.0
  outer loop
    vertex -22078.32058946901 27289.592592073423 21.0
    vertex -22076.32058946901 27289.592592073423 9.0
    vertex -22078.32058946901 27289.592592073423 9.0
  endloop
endfacet
facet normal 0.0 1.0 0.0
  outer loop
    vertex -22076.32058946901 27289.592592073423 9.0
    vertex -22078.32058946901 27289.592592073423 21.0
    vertex -22076.32058946901 27289.592592073423 21.0
  endloop
endfacet
facet normal 0.0 1.0 0.0
  outer loop
    vertex -22106.720589469012 27309.592592073423 9.0
    vertex -22061.32058946901 27309.592592073423 -3.0
    vertex -22106.720589469012 27309.592592073423 -3.0
  endloop
endfacet
facet normal 0.0 1.0 0.0
  outer loop
    vertex -22061.32058946901 27309.592592073423 -3.0
    vertex -22106.720589469012 27309.592592073423 9.0
    vertex -22061.32058946901 27309.592592073423 9.0
  endloop
endfacet
facet normal 0.0 0.0 1.0
  outer loop
    vertex -22078.32058946901 27286.592592073423 9.0
    vertex -22089.720589469012 27289.592592073423 9.0
    vertex -22089.720589469012 27286.592592073423 9.0
  endloop
endfacet
facet normal 0.0 0.0 1.0
  outer loop
    vertex -22089.720589469012 27289.592592073423 9.0
    vertex -22078.32058946901 27286.592592073423 9.0
    vertex -22078.32058946901 27289.592592073423 9.0
  endloop
endfacet
facet normal 0.0 0.0 1.0
  outer loop
    vertex -22091.720589469012 27286.592592073423 9.0
    vertex -22101.720589469012 27289.592592073423 9.0
    vertex -22101.720589469012 27286.592592073423 9.0
  endloop
endfacet
facet normal 0.0 0.0 1.0
  outer loop
    vertex -22101.720589469012 27289.592592073423 9.0
    vertex -22091.720589469012 27286.592592073423 9.0
    vertex -22091.720589469012 27289.592592073423 9.0
  endloop
endfacet
facet normal 0.0 0.0 1.0
  outer loop
    vertex -22066.32058946901 27286.592592073423 9.0
    vertex -22076.32058946901 27289.592592073423 9.0
    vertex -22076.32058946901 27286.592592073423 9.0
  endloop
endfacet
facet normal 0.0 0.0 1.0
  outer loop
    vertex -22076.32058946901 27289.592592073423 9.0
    vertex -22066.32058946901 27286.592592073423 9.0
    vertex -22066.32058946901 27289.592592073423 9.0
  endloop
endfacet
facet normal 1.0 0.0 0.0
  outer loop
    vertex -22103.720589469012 27306.592592073423 -2.999999999999993
    vertex -22103.720589469012 27292.59259207342 9.0
    vertex -22103.720589469012 27292.59259207342 -3.0000000000000058
  endloop
endfacet
facet normal 1.0 0.0 0.0
  outer loop
    vertex -22103.720589469012 27292.59259207342 9.0
    vertex -22103.720589469012 27306.592592073423 -2.999999999999993
    vertex -22103.720589469012 27306.592592073423 9.0
  endloop
endfacet
facet normal 0.0 -1.0 0.0
  outer loop
    vertex -22064.32058946901 27306.592592073423 -2.999999999999993
    vertex -22069.32058946901 27306.592592073423 5.000000000000005
    vertex -22069.32058946901 27306.592592073423 -2.9999999999999947
  endloop
endfacet
facet normal 0.0 -1.0 0.0
  outer loop
    vertex -22069.32058946901 27306.592592073423 5.000000000000005
    vertex -22064.32058946901 27306.592592073423 -2.999999999999993
    vertex -22064.32058946901 27306.592592073423 9.0
  endloop
endfacet
facet normal 0.0 -1.0 0.0
  outer loop
    vertex -22069.32058946901 27306.592592073423 5.000000000000005
    vertex -22064.32058946901 27306.592592073423 9.0
    vertex -22069.32058946901 27306.592592073423 9.0
  endloop
endfacet
facet normal -1.0 0.0 0.0
  outer loop
    vertex -22064.32058946901 27306.592592073423 9.0
    vertex -22064.32058946901 27292.59259207342 -3.0000000000000058
    vertex -22064.32058946901 27292.59259207342 9.0
  endloop
endfacet
facet normal -1.0 0.0 0.0
  outer loop
    vertex -22064.32058946901 27292.59259207342 -3.0000000000000058
    vertex -22064.32058946901 27306.592592073423 9.0
    vertex -22064.32058946901 27306.592592073423 -2.999999999999993
  endloop
endfacet
facet normal 0.0 0.0 1.0
  outer loop
    vertex -22106.720589469012 27289.592592073423 9.0
    vertex -22103.720589469012 27292.59259207342 9.0
    vertex -22106.720589469012 27309.592592073423 9.0
  endloop
endfacet
facet normal 0.0 0.0 1.0
  outer loop
    vertex -22103.720589469012 27292.59259207342 9.0
    vertex -22106.720589469012 27289.592592073423 9.0
    vertex -22102.32058946901 27289.592592073423 9.0
  endloop
endfacet
facet normal 0.0 0.0 1.0
  outer loop
    vertex -22103.720589469012 27292.59259207342 9.0
    vertex -22102.32058946901 27289.592592073423 9.0
    vertex -22098.720589469012 27292.59259207342 9.0
  endloop
endfacet
facet normal 0.0 0.0 1.0
  outer loop
    vertex -22098.720589469012 27292.59259207342 9.0
    vertex -22102.32058946901 27289.592592073423 9.0
    vertex -22101.720589469012 27289.592592073423 9.0
  endloop
endfacet
facet normal 0.0 0.0 1.0
  outer loop
    vertex -22098.720589469012 27292.59259207342 9.0
    vertex -22101.720589469012 27289.592592073423 9.0
    vertex -22091.720589469012 27289.592592073423 9.0
  endloop
endfacet
facet normal 0.0 0.0 1.0
  outer loop
    vertex -22098.720589469012 27292.59259207342 9.0
    vertex -22091.720589469012 27289.592592073423 9.0
    vertex -22094.720589469012 27292.59259207342 9.0
  endloop
endfacet
facet normal 0.0 0.0 1.0
  outer loop
    vertex -22094.720589469012 27292.59259207342 9.0
    vertex -22091.720589469012 27289.592592073423 9.0
    vertex -22086.02058946901 27292.59259207342 9.0
  endloop
endfacet
facet normal 0.0 0.0 1.0
  outer loop
    vertex -22086.02058946901 27292.59259207342 9.0
    vertex -22091.720589469012 27289.592592073423 9.0
    vertex -22089.720589469012 27289.592592073423 9.0
  endloop
endfacet
facet normal 0.0 0.0 1.0
  outer loop
    vertex -22086.02058946901 27292.59259207342 9.0
    vertex -22089.720589469012 27289.592592073423 9.0
    vertex -22078.32058946901 27289.592592073423 9.0
  endloop
endfacet
facet normal 0.0 0.0 1.0
  outer loop
    vertex -22086.02058946901 27292.59259207342 9.0
    vertex -22078.32058946901 27289.592592073423 9.0
    vertex -22082.02058946901 27292.59259207342 9.0
  endloop
endfacet
facet normal 0.0 0.0 1.0
  outer loop
    vertex -22082.02058946901 27292.59259207342 9.0
    vertex -22078.32058946901 27289.592592073423 9.0
    vertex -22073.32058946901 27292.59259207342 9.0
  endloop
endfacet
facet normal 0.0 0.0 1.0
  outer loop
    vertex -22073.32058946901 27292.59259207342 9.0
    vertex -22078.32058946901 27289.592592073423 9.0
    vertex -22076.32058946901 27289.592592073423 9.0
  endloop
endfacet
facet normal 0.0 0.0 1.0
  outer loop
    vertex -22073.32058946901 27292.59259207342 9.0
    vertex -22076.32058946901 27289.592592073423 9.0
    vertex -22066.32058946901 27289.592592073423 9.0
  endloop
endfacet
facet normal 0.0 0.0 1.0
  outer loop
    vertex -22073.32058946901 27292.59259207342 9.0
    vertex -22066.32058946901 27289.592592073423 9.0
    vertex -22069.32058946901 27292.59259207342 9.0
  endloop
endfacet
facet normal 0.0 0.0 1.0
  outer loop
    vertex -22069.32058946901 27292.59259207342 9.0
    vertex -22066.32058946901 27289.592592073423 9.0
    vertex -22064.32058946901 27292.59259207342 9.0
  endloop
endfacet
facet normal 0.0 0.0 1.0
  outer loop
    vertex -22064.32058946901 27292.59259207342 9.0
    vertex -22066.32058946901 27289.592592073423 9.0
    vertex -22061.32058946901 27289.592592073423 9.0
  endloop
endfacet
facet normal 0.0 0.0 1.0
  outer loop
    vertex -22064.32058946901 27292.59259207342 9.0
    vertex -22061.32058946901 27289.592592073423 9.0
    vertex -22064.32058946901 27306.592592073423 9.0
  endloop
endfacet
facet normal 0.0 0.0 1.0
  outer loop
    vertex -22106.720589469012 27309.592592073423 9.0
    vertex -22103.720589469012 27306.592592073423 9.0
    vertex -22061.32058946901 27309.592592073423 9.0
  endloop
endfacet
facet normal 0.0 0.0 1.0
  outer loop
    vertex -22103.720589469012 27306.592592073423 9.0
    vertex -22106.720589469012 27309.592592073423 9.0
    vertex -22103.720589469012 27292.59259207342 9.0
  endloop
endfacet
facet normal 0.0 0.0 1.0
  outer loop
    vertex -22061.32058946901 27309.592592073423 9.0
    vertex -22103.720589469012 27306.592592073423 9.0
    vertex -22098.720589469012 27306.592592073423 9.0
  endloop
endfacet
facet normal 0.0 0.0 1.0
  outer loop
    vertex -22061.32058946901 27309.592592073423 9.0
    vertex -22098.720589469012 27306.592592073423 9.0
    vertex -22094.720589469012 27306.592592073423 9.0
  endloop
endfacet
facet normal 0.0 0.0 1.0
  outer loop
    vertex -22061.32058946901 27309.592592073423 9.0
    vertex -22094.720589469012 27306.592592073423 9.0
    vertex -22086.02058946901 27306.592592073423 9.0
  endloop
endfacet
facet normal 0.0 0.0 1.0
  outer loop
    vertex -22061.32058946901 27309.592592073423 9.0
    vertex -22086.02058946901 27306.592592073423 9.0
    vertex -22082.02058946901 27306.592592073423 9.0
  endloop
endfacet
facet normal 0.0 0.0 1.0
  outer loop
    vertex -22061.32058946901 27309.592592073423 9.0
    vertex -22082.02058946901 27306.592592073423 9.0
    vertex -22073.32058946901 27306.592592073423 9.0
  endloop
endfacet
facet normal 0.0 0.0 1.0
  outer loop
    vertex -22061.32058946901 27309.592592073423 9.0
    vertex -22073.32058946901 27306.592592073423 9.0
    vertex -22069.32058946901 27306.592592073423 9.0
  endloop
endfacet
facet normal 0.0 0.0 1.0
  outer loop
    vertex -22061.32058946901 27309.592592073423 9.0
    vertex -22069.32058946901 27306.592592073423 9.0
    vertex -22064.32058946901 27306.592592073423 9.0
  endloop
endfacet
facet normal 0.0 0.0 1.0
  outer loop
    vertex -22061.32058946901 27309.592592073423 9.0
    vertex -22064.32058946901 27306.592592073423 9.0
    vertex -22061.32058946901 27289.592592073423 9.0
  endloop
endfacet
facet normal 0.0 0.0 1.0
  outer loop
    vertex -22061.32058946901 27309.592592073423 9.0
    vertex -22061.32058946901 27289.592592073423 9.0
    vertex -22061.32058946901 27294.592592073426 9.0
  endloop
endfacet
facet normal 0.0 0.0 1.0
  outer loop
    vertex -22061.32058946901 27309.592592073423 9.0
    vertex -22061.32058946901 27294.592592073426 9.0
    vertex -22061.32058946901 27299.592592073426 9.0
  endloop
endfacet
facet normal 0.0 0.0 1.0
  outer loop
    vertex -22061.32058946901 27309.592592073423 9.0
    vertex -22061.32058946901 27299.592592073426 9.0
    vertex -22061.32058946901 27304.592592073423 9.0
  endloop
endfacet
facet normal 0.0 -1.0 0.0
  outer loop
    vertex -22069.32058946901 27306.592592073423 9.0
    vertex -22073.32058946901 27306.592592073423 5.000000000000005
    vertex -22069.32058946901 27306.592592073423 5.000000000000005
  endloop
endfacet
facet normal 0.0 -1.0 0.0
  outer loop
    vertex -22073.32058946901 27306.592592073423 5.000000000000005
    vertex -22069.32058946901 27306.592592073423 9.0
    vertex -22073.32058946901 27306.592592073423 9.0
  endloop
endfacet
facet normal 0.0 -1.0 0.0
  outer loop
    vertex -22073.32058946901 27306.592592073423 5.000000000000005
    vertex -22082.02058946901 27306.592592073423 -2.999999999999989
    vertex -22073.32058946901 27306.592592073423 -2.9999999999999947
  endloop
endfacet
facet normal 0.0 -1.0 0.0
  outer loop
    vertex -22082.02058946901 27306.592592073423 -2.999999999999989
    vertex -22073.32058946901 27306.592592073423 5.000000000000005
    vertex -22082.02058946901 27306.592592073423 5.000000000000011
  endloop
endfacet
facet normal 0.0 -1.0 0.0
  outer loop
    vertex -22082.02058946901 27306.592592073423 5.000000000000011
    vertex -22073.32058946901 27306.592592073423 5.000000000000005
    vertex -22073.32058946901 27306.592592073423 9.0
  endloop
endfacet
facet normal 0.0 -1.0 0.0
  outer loop
    vertex -22082.02058946901 27306.592592073423 5.000000000000011
    vertex -22073.32058946901 27306.592592073423 9.0
    vertex -22082.02058946901 27306.592592073423 9.0
  endloop
endfacet
facet normal 0.0 1.0 0.0
  outer loop
    vertex -22073.32058946901 27292.59259207342 9.0
    vertex -22069.32058946901 27292.59259207342 5.000000000000005
    vertex -22073.32058946901 27292.59259207342 5.000000000000005
  endloop
endfacet
facet normal 0.0 1.0 0.0
  outer loop
    vertex -22069.32058946901 27292.59259207342 5.000000000000005
    vertex -22073.32058946901 27292.59259207342 9.0
    vertex -22069.32058946901 27292.59259207342 9.0
  endloop
endfacet
facet normal 0.0 -1.0 0.0
  outer loop
    vertex -22082.02058946901 27306.592592073423 9.0
    vertex -22086.02058946901 27306.592592073423 5.000000000000011
    vertex -22082.02058946901 27306.592592073423 5.000000000000011
  endloop
endfacet
facet normal 0.0 -1.0 0.0
  outer loop
    vertex -22086.02058946901 27306.592592073423 5.000000000000011
    vertex -22082.02058946901 27306.592592073423 9.0
    vertex -22086.02058946901 27306.592592073423 9.0
  endloop
endfacet
facet normal 0.0 1.0 0.0
  outer loop
    vertex -22086.02058946901 27292.59259207342 9.0
    vertex -22082.02058946901 27292.59259207342 5.000000000000011
    vertex -22086.02058946901 27292.59259207342 5.000000000000011
  endloop
endfacet
facet normal 0.0 1.0 0.0
  outer loop
    vertex -22082.02058946901 27292.59259207342 5.000000000000011
    vertex -22086.02058946901 27292.59259207342 9.0
    vertex -22082.02058946901 27292.59259207342 9.0
  endloop
endfacet
facet normal 0.0 -1.0 0.0
  outer loop
    vertex -22086.02058946901 27306.592592073423 -2.999999999999989
    vertex -22094.720589469012 27306.592592073423 5.000000000000011
    vertex -22094.720589469012 27306.592592073423 -2.9999999999999947
  endloop
endfacet
facet normal 0.0 -1.0 0.0
  outer loop
    vertex -22094.720589469012 27306.592592073423 5.000000000000011
    vertex -22086.02058946901 27306.592592073423 -2.999999999999989
    vertex -22086.02058946901 27306.592592073423 5.000000000000011
  endloop
endfacet
facet normal 0.0 -1.0 0.0
  outer loop
    vertex -22094.720589469012 27306.592592073423 5.000000000000011
    vertex -22086.02058946901 27306.592592073423 5.000000000000011
    vertex -22086.02058946901 27306.592592073423 9.0
  endloop
endfacet
facet normal 0.0 -1.0 0.0
  outer loop
    vertex -22094.720589469012 27306.592592073423 5.000000000000011
    vertex -22086.02058946901 27306.592592073423 9.0
    vertex -22094.720589469012 27306.592592073423 9.0
  endloop
endfacet
facet normal 0.0 -1.0 0.0
  outer loop
    vertex -22094.720589469012 27306.592592073423 9.0
    vertex -22098.720589469012 27306.592592073423 5.000000000000011
    vertex -22094.720589469012 27306.592592073423 5.000000000000011
  endloop
endfacet
facet normal 0.0 -1.0 0.0
  outer loop
    vertex -22098.720589469012 27306.592592073423 5.000000000000011
    vertex -22094.720589469012 27306.592592073423 9.0
    vertex -22098.720589469012 27306.592592073423 9.0
  endloop
endfacet
facet normal 0.0 1.0 0.0
  outer loop
    vertex -22098.720589469012 27292.59259207342 9.0
    vertex -22094.720589469012 27292.59259207342 5.000000000000011
    vertex -22098.720589469012 27292.59259207342 5.000000000000011
  endloop
endfacet
facet normal 0.0 1.0 0.0
  outer loop
    vertex -22094.720589469012 27292.59259207342 5.000000000000011
    vertex -22098.720589469012 27292.59259207342 9.0
    vertex -22094.720589469012 27292.59259207342 9.0
  endloop
endfacet
facet normal 0.0 -1.0 0.0
  outer loop
    vertex -22098.720589469012 27306.592592073423 5.000000000000011
    vertex -22103.720589469012 27306.592592073423 -2.999999999999993
    vertex -22098.720589469012 27306.592592073423 -2.9999999999999947
  endloop
endfacet
facet normal 0.0 -1.0 0.0
  outer loop
    vertex -22103.720589469012 27306.592592073423 -2.999999999999993
    vertex -22098.720589469012 27306.592592073423 5.000000000000011
    vertex -22103.720589469012 27306.592592073423 9.0
  endloop
endfacet
facet normal 0.0 -1.0 0.0
  outer loop
    vertex -22103.720589469012 27306.592592073423 9.0
    vertex -22098.720589469012 27306.592592073423 5.000000000000011
    vertex -22098.720589469012 27306.592592073423 9.0
  endloop
endfacet
facet normal 0.0 0.0 1.0
  outer loop
    vertex -22094.720589469012 27292.59259207342 9.0
    vertex -22098.720589469012 27306.592592073423 9.0
    vertex -22098.720589469012 27292.59259207342 9.0
  endloop
endfacet
facet normal 0.0 0.0 1.0
  outer loop
    vertex -22098.720589469012 27306.592592073423 9.0
    vertex -22094.720589469012 27292.59259207342 9.0
    vertex -22094.720589469012 27306.592592073423 9.0
  endloop
endfacet
facet normal 0.0 0.0 1.0
  outer loop
    vertex -22082.02058946901 27292.59259207342 9.0
    vertex -22086.02058946901 27306.592592073423 9.0
    vertex -22086.02058946901 27292.59259207342 9.0
  endloop
endfacet
facet normal 0.0 0.0 1.0
  outer loop
    vertex -22086.02058946901 27306.592592073423 9.0
    vertex -22082.02058946901 27292.59259207342 9.0
    vertex -22082.02058946901 27306.592592073423 9.0
  endloop
endfacet
facet normal 0.0 0.0 1.0
  outer loop
    vertex -22069.32058946901 27292.59259207342 9.0
    vertex -22073.32058946901 27306.592592073423 9.0
    vertex -22073.32058946901 27292.59259207342 9.0
  endloop
endfacet
facet normal 0.0 0.0 1.0
  outer loop
    vertex -22073.32058946901 27306.592592073423 9.0
    vertex -22069.32058946901 27292.59259207342 9.0
    vertex -22069.32058946901 27306.592592073423 9.0
  endloop
endfacet
facet normal 1.0 0.0 0.0
  outer loop
    vertex -22073.32058946901 27306.592592073423 5.000000000000005
    vertex -22073.32058946901 27292.59259207342 9.0
    vertex -22073.32058946901 27292.59259207342 5.000000000000005
  endloop
endfacet
facet normal 1.0 0.0 0.0
  outer loop
    vertex -22073.32058946901 27292.59259207342 9.0
    vertex -22073.32058946901 27306.592592073423 5.000000000000005
    vertex -22073.32058946901 27306.592592073423 9.0
  endloop
endfacet
facet normal -1.0 0.0 0.0
  outer loop
    vertex -22069.32058946901 27306.592592073423 9.0
    vertex -22069.32058946901 27292.59259207342 5.000000000000005
    vertex -22069.32058946901 27292.59259207342 9.0
  endloop
endfacet
facet normal -1.0 0.0 0.0
  outer loop
    vertex -22069.32058946901 27292.59259207342 5.000000000000005
    vertex -22069.32058946901 27306.592592073423 9.0
    vertex -22069.32058946901 27306.592592073423 5.000000000000005
  endloop
endfacet
facet normal -1.0 0.0 0.0
  outer loop
    vertex -22082.02058946901 27306.592592073423 9.0
    vertex -22082.02058946901 27292.59259207342 5.000000000000011
    vertex -22082.02058946901 27292.59259207342 9.0
  endloop
endfacet
facet normal -1.0 0.0 0.0
  outer loop
    vertex -22082.02058946901 27292.59259207342 5.000000000000011
    vertex -22082.02058946901 27306.592592073423 9.0
    vertex -22082.02058946901 27306.592592073423 5.000000000000011
  endloop
endfacet
facet normal 1.0 0.0 0.0
  outer loop
    vertex -22086.02058946901 27306.592592073423 5.000000000000011
    vertex -22086.02058946901 27292.59259207342 9.0
    vertex -22086.02058946901 27292.59259207342 5.000000000000011
  endloop
endfacet
facet normal 1.0 0.0 0.0
  outer loop
    vertex -22086.02058946901 27292.59259207342 9.0
    vertex -22086.02058946901 27306.592592073423 5.000000000000011
    vertex -22086.02058946901 27306.592592073423 9.0
  endloop
endfacet
facet normal -1.0 0.0 0.0
  outer loop
    vertex -22094.720589469012 27306.592592073423 9.0
    vertex -22094.720589469012 27292.59259207342 5.000000000000011
    vertex -22094.720589469012 27292.59259207342 9.0
  endloop
endfacet
facet normal -1.0 0.0 0.0
  outer loop
    vertex -22094.720589469012 27292.59259207342 5.000000000000011
    vertex -22094.720589469012 27306.592592073423 9.0
    vertex -22094.720589469012 27306.592592073423 5.000000000000011
  endloop
endfacet
facet normal 1.0 0.0 0.0
  outer loop
    vertex -22098.720589469012 27306.592592073423 5.000000000000011
    vertex -22098.720589469012 27292.59259207342 9.0
    vertex -22098.720589469012 27292.59259207342 5.000000000000011
  endloop
endfacet
facet normal 1.0 0.0 0.0
  outer loop
    vertex -22098.720589469012 27292.59259207342 9.0
    vertex -22098.720589469012 27306.592592073423 5.000000000000011
    vertex -22098.720589469012 27306.592592073423 9.0
  endloop
endfacet
facet normal 0.0 0.0 1.0
  outer loop
    vertex -22069.32058946901 27292.59259207342 5.000000000000005
    vertex -22073.32058946901 27306.592592073423 5.000000000000005
    vertex -22073.32058946901 27292.59259207342 5.000000000000005
  endloop
endfacet
facet normal 0.0 0.0 1.0
  outer loop
    vertex -22073.32058946901 27306.592592073423 5.000000000000005
    vertex -22069.32058946901 27292.59259207342 5.000000000000005
    vertex -22069.32058946901 27306.592592073423 5.000000000000005
  endloop
endfacet
facet normal -0.0 -1.0 -0.0
  outer loop
    vertex -22069.32058946901 27306.592592073423 5.000000000000005
    vertex -22073.32058946901 27306.592592073423 -2.9999999999999947
    vertex -22069.32058946901 27306.592592073423 -2.9999999999999947
  endloop
endfacet
facet normal -0.0 -1.0 -0.0
  outer loop
    vertex -22073.32058946901 27306.592592073423 -2.9999999999999947
    vertex -22069.32058946901 27306.592592073423 5.000000000000005
    vertex -22073.32058946901 27306.592592073423 5.000000000000005
  endloop
endfacet
facet normal 0.0 0.0 1.0
  outer loop
    vertex -22082.02058946901 27292.59259207342 5.000000000000011
    vertex -22086.02058946901 27306.592592073423 5.000000000000011
    vertex -22086.02058946901 27292.59259207342 5.000000000000011
  endloop
endfacet
facet normal 0.0 0.0 1.0
  outer loop
    vertex -22086.02058946901 27306.592592073423 5.000000000000011
    vertex -22082.02058946901 27292.59259207342 5.000000000000011
    vertex -22082.02058946901 27306.592592073423 5.000000000000011
  endloop
endfacet
facet normal -0.0 -1.0 -0.0
  outer loop
    vertex -22082.02058946901 27306.592592073423 5.000000000000011
    vertex -22086.02058946901 27306.592592073423 -2.999999999999989
    vertex -22082.02058946901 27306.592592073423 -2.999999999999989
  endloop
endfacet
facet normal -0.0 -1.0 -0.0
  outer loop
    vertex -22086.02058946901 27306.592592073423 -2.999999999999989
    vertex -22082.02058946901 27306.592592073423 5.000000000000011
    vertex -22086.02058946901 27306.592592073423 5.000000000000011
  endloop
endfacet
facet normal 0.0 0.0 1.0
  outer loop
    vertex -22094.720589469012 27292.59259207342 5.000000000000011
    vertex -22098.720589469012 27306.592592073423 5.000000000000011
    vertex -22098.720589469012 27292.59259207342 5.000000000000011
  endloop
endfacet
facet normal 0.0 0.0 1.0
  outer loop
    vertex -22098.720589469012 27306.592592073423 5.000000000000011
    vertex -22094.720589469012 27292.59259207342 5.000000000000011
    vertex -22094.720589469012 27306.592592073423 5.000000000000011
  endloop
endfacet
facet normal -0.0 -1.0 -0.0
  outer loop
    vertex -22094.720589469012 27306.592592073423 5.000000000000011
    vertex -22098.720589469012 27306.592592073423 -2.9999999999999947
    vertex -22094.720589469012 27306.592592073423 -2.9999999999999947
  endloop
endfacet
facet normal -0.0 -1.0 -0.0
  outer loop
    vertex -22098.720589469012 27306.592592073423 -2.9999999999999947
    vertex -22094.720589469012 27306.592592073423 5.000000000000011
    vertex -22098.720589469012 27306.592592073423 5.000000000000011
  endloop
endfacet
facet normal 0.0 1.0 0.0
  outer loop
    vertex -22103.720589469012 27292.59259207342 -3.0000000000000058
    vertex -22098.720589469012 27292.59259207342 5.000000000000011
    vertex -22064.32058946901 27292.59259207342 -3.0000000000000058
  endloop
endfacet
facet normal 0.0 1.0 0.0
  outer loop
    vertex -22098.720589469012 27292.59259207342 5.000000000000011
    vertex -22103.720589469012 27292.59259207342 -3.0000000000000058
    vertex -22103.720589469012 27292.59259207342 9.0
  endloop
endfacet
facet normal 0.0 1.0 0.0
  outer loop
    vertex -22064.32058946901 27292.59259207342 -3.0000000000000058
    vertex -22098.720589469012 27292.59259207342 5.000000000000011
    vertex -22073.32058946901 27292.59259207342 5.000000000000005
  endloop
endfacet
facet normal 0.0 1.0 0.0
  outer loop
    vertex -22098.720589469012 27292.59259207342 5.000000000000011
    vertex -22103.720589469012 27292.59259207342 9.0
    vertex -22098.720589469012 27292.59259207342 9.0
  endloop
endfacet
facet normal 0.0 1.0 0.0
  outer loop
    vertex -22094.720589469012 27292.59259207342 9.0
    vertex -22086.02058946901 27292.59259207342 5.000000000000011
    vertex -22094.720589469012 27292.59259207342 5.000000000000011
  endloop
endfacet
facet normal 0.0 1.0 0.0
  outer loop
    vertex -22086.02058946901 27292.59259207342 5.000000000000011
    vertex -22094.720589469012 27292.59259207342 9.0
    vertex -22086.02058946901 27292.59259207342 9.0
  endloop
endfacet
facet normal 0.0 1.0 0.0
  outer loop
    vertex -22073.32058946901 27292.59259207342 5.000000000000005
    vertex -22082.02058946901 27292.59259207342 5.000000000000011
    vertex -22073.32058946901 27292.59259207342 9.0
  endloop
endfacet
facet normal 0.0 1.0 0.0
  outer loop
    vertex -22082.02058946901 27292.59259207342 5.000000000000011
    vertex -22073.32058946901 27292.59259207342 5.000000000000005
    vertex -22098.720589469012 27292.59259207342 5.000000000000011
  endloop
endfacet
facet normal 0.0 1.0 0.0
  outer loop
    vertex -22082.02058946901 27292.59259207342 5.000000000000011
    vertex -22098.720589469012 27292.59259207342 5.000000000000011
    vertex -22094.720589469012 27292.59259207342 5.000000000000011
  endloop
endfacet
facet normal 0.0 1.0 0.0
  outer loop
    vertex -22082.02058946901 27292.59259207342 5.000000000000011
    vertex -22094.720589469012 27292.59259207342 5.000000000000011
    vertex -22086.02058946901 27292.59259207342 5.000000000000011
  endloop
endfacet
facet normal 0.0 1.0 0.0
  outer loop
    vertex -22073.32058946901 27292.59259207342 9.0
    vertex -22082.02058946901 27292.59259207342 5.000000000000011
    vertex -22082.02058946901 27292.59259207342 9.0
  endloop
endfacet
facet normal 0.0 1.0 0.0
  outer loop
    vertex -22064.32058946901 27292.59259207342 -3.0000000000000058
    vertex -22069.32058946901 27292.59259207342 5.000000000000005
    vertex -22064.32058946901 27292.59259207342 9.0
  endloop
endfacet
facet normal 0.0 1.0 0.0
  outer loop
    vertex -22069.32058946901 27292.59259207342 5.000000000000005
    vertex -22064.32058946901 27292.59259207342 -3.0000000000000058
    vertex -22073.32058946901 27292.59259207342 5.000000000000005
  endloop
endfacet
facet normal 0.0 1.0 0.0
  outer loop
    vertex -22064.32058946901 27292.59259207342 9.0
    vertex -22069.32058946901 27292.59259207342 5.000000000000005
    vertex -22069.32058946901 27292.59259207342 9.0
  endloop
endfacet
endsolid Main
