solid Main
facet normal -0.0 -1.0 -0.0
  outer loop
    vertex -21934.990717304932 27350.151208205953 6.999999999999997
    vertex -21940.990717304932 27350.151208205953 0.0
    vertex -21934.990717304932 27350.151208205953 0.0
  endloop
endfacet
facet normal -0.0 -1.0 -0.0
  outer loop
    vertex -21940.990717304932 27350.151208205953 0.0
    vertex -21934.990717304932 27350.151208205953 6.999999999999997
    vertex -21940.990717304932 27350.151208205953 3.0
  endloop
endfacet
facet normal -0.0 -1.0 -0.0
  outer loop
    vertex -21940.990717304932 27350.151208205953 3.0
    vertex -21934.990717304932 27350.151208205953 6.999999999999997
    vertex -21945.990717304932 27350.151208205953 3.0
  endloop
endfacet
facet normal -0.0 -1.0 -0.0
  outer loop
    vertex -21945.990717304932 27350.151208205953 3.0
    vertex -21934.990717304932 27350.151208205953 6.999999999999997
    vertex -21938.990717304932 27350.151208205953 5.999999999999997
  endloop
endfacet
facet normal -0.0 -1.0 -0.0
  outer loop
    vertex -21945.990717304932 27350.151208205953 3.0
    vertex -21938.990717304932 27350.151208205953 5.999999999999997
    vertex -21950.990717304932 27350.151208205953 3.0
  endloop
endfacet
facet normal -0.0 -1.0 -0.0
  outer loop
    vertex -21938.990717304932 27350.151208205953 5.999999999999997
    vertex -21934.990717304932 27350.151208205953 6.999999999999997
    vertex -21937.990717304932 27350.151208205953 6.999999999999997
  endloop
endfacet
facet normal -0.0 -1.0 -0.0
  outer loop
    vertex -21950.990717304932 27350.151208205953 3.0
    vertex -21956.99071730493 27350.151208205953 0.0
    vertex -21950.990717304932 27350.151208205953 0.0
  endloop
endfacet
facet normal -0.0 -1.0 -0.0
  outer loop
    vertex -21956.99071730493 27350.151208205953 0.0
    vertex -21950.990717304932 27350.151208205953 3.0
    vertex -21956.99071730493 27350.151208205953 6.999999999999997
  endloop
endfacet
facet normal -0.0 -1.0 -0.0
  outer loop
    vertex -21956.99071730493 27350.151208205953 6.999999999999997
    vertex -21950.990717304932 27350.151208205953 3.0
    vertex -21952.990717304932 27350.151208205953 5.999999999999997
  endloop
endfacet
facet normal -0.0 -1.0 -0.0
  outer loop
    vertex -21952.990717304932 27350.151208205953 5.999999999999997
    vertex -21950.990717304932 27350.151208205953 3.0
    vertex -21938.990717304932 27350.151208205953 5.999999999999997
  endloop
endfacet
facet normal -0.0 -1.0 -0.0
  outer loop
    vertex -21956.99071730493 27350.151208205953 6.999999999999997
    vertex -21952.990717304932 27350.151208205953 5.999999999999997
    vertex -21953.990717304932 27350.151208205953 6.999999999999997
  endloop
endfacet
facet normal 0.0 1.0 0.0
  outer loop
    vertex -21956.99071730493 27375.75120820595 6.999999999999997
    vertex -21950.990717304936 27375.75120820595 0.0
    vertex -21956.99071730493 27375.75120820595 0.0
  endloop
endfacet
facet normal 0.0 1.0 0.0
  outer loop
    vertex -21950.990717304936 27375.75120820595 0.0
    vertex -21956.99071730493 27375.75120820595 6.999999999999997
    vertex -21950.990717304936 27375.75120820595 3.0
  endloop
endfacet
facet normal 0.0 1.0 0.0
  outer loop
    vertex -21950.990717304936 27375.75120820595 3.0
    vertex -21956.99071730493 27375.75120820595 6.999999999999997
    vertex -21945.990717304932 27375.75120820595 3.0
  endloop
endfacet
facet normal 0.0 1.0 0.0
  outer loop
    vertex -21945.990717304932 27375.75120820595 3.0
    vertex -21956.99071730493 27375.75120820595 6.999999999999997
    vertex -21940.990717304932 27375.75120820595 3.0
  endloop
endfacet
facet normal 0.0 1.0 0.0
  outer loop
    vertex -21940.990717304932 27375.75120820595 3.0
    vertex -21934.990717304932 27375.75120820595 0.0
    vertex -21940.990717304932 27375.75120820595 0.0
  endloop
endfacet
facet normal 0.0 1.0 0.0
  outer loop
    vertex -21934.990717304932 27375.75120820595 0.0
    vertex -21940.990717304932 27375.75120820595 3.0
    vertex -21934.990717304932 27375.75120820595 6.999999999999997
  endloop
endfacet
facet normal 0.0 1.0 0.0
  outer loop
    vertex -21934.990717304932 27375.75120820595 6.999999999999997
    vertex -21940.990717304932 27375.75120820595 3.0
    vertex -21956.99071730493 27375.75120820595 6.999999999999997
  endloop
endfacet
facet normal 1.0 0.0 0.0
  outer loop
    vertex -21934.990717304932 27375.75120820595 0.0
    vertex -21934.990717304932 27350.151208205953 6.999999999999997
    vertex -21934.990717304932 27350.151208205953 0.0
  endloop
endfacet
facet normal 1.0 0.0 0.0
  outer loop
    vertex -21934.990717304932 27350.151208205953 6.999999999999997
    vertex -21934.990717304932 27375.75120820595 0.0
    vertex -21934.990717304932 27375.75120820595 6.999999999999997
  endloop
endfacet
facet normal 0.0 0.0 -1.0
  outer loop
    vertex -21950.990717304936 27375.75120820595 0.0
    vertex -21956.99071730493 27350.151208205953 0.0
    vertex -21956.99071730493 27375.75120820595 0.0
  endloop
endfacet
facet normal 0.0 0.0 -1.0
  outer loop
    vertex -21956.99071730493 27350.151208205953 0.0
    vertex -21950.990717304936 27375.75120820595 0.0
    vertex -21950.990717304932 27350.151208205953 0.0
  endloop
endfacet
facet normal 0.0 0.0 -1.0
  outer loop
    vertex -21950.990717304932 27350.151208205953 0.0
    vertex -21950.990717304936 27375.75120820595 0.0
    vertex -21945.990717304932 27375.75120820595 0.0
  endloop
endfacet
facet normal 0.0 0.0 -1.0
  outer loop
    vertex -21950.990717304932 27350.151208205953 0.0
    vertex -21945.990717304932 27375.75120820595 0.0
    vertex -21945.990717304932 27350.151208205953 0.0
  endloop
endfacet
facet normal 0.0 0.0 -1.0
  outer loop
    vertex -21945.990717304932 27350.151208205953 0.0
    vertex -21945.990717304932 27375.75120820595 0.0
    vertex -21940.990717304932 27375.75120820595 0.0
  endloop
endfacet
facet normal 0.0 0.0 -1.0
  outer loop
    vertex -21945.990717304932 27350.151208205953 0.0
    vertex -21940.990717304932 27375.75120820595 0.0
    vertex -21940.990717304932 27350.151208205953 0.0
  endloop
endfacet
facet normal 0.0 0.0 -1.0
  outer loop
    vertex -21940.990717304932 27350.151208205953 0.0
    vertex -21940.990717304932 27375.75120820595 0.0
    vertex -21934.990717304932 27375.75120820595 0.0
  endloop
endfacet
facet normal 0.0 0.0 -1.0
  outer loop
    vertex -21940.990717304932 27350.151208205953 0.0
    vertex -21934.990717304932 27375.75120820595 0.0
    vertex -21934.990717304932 27350.151208205953 0.0
  endloop
endfacet
facet normal -1.0 0.0 0.0
  outer loop
    vertex -21956.99071730493 27375.75120820595 6.999999999999997
    vertex -21956.99071730493 27350.151208205953 0.0
    vertex -21956.99071730493 27350.151208205953 6.999999999999997
  endloop
endfacet
facet normal -1.0 0.0 0.0
  outer loop
    vertex -21956.99071730493 27350.151208205953 0.0
    vertex -21956.99071730493 27375.75120820595 6.999999999999997
    vertex -21956.99071730493 27375.75120820595 0.0
  endloop
endfacet
facet normal 0.0 0.0 1.0
  outer loop
    vertex -21937.990717304932 27358.15120820595 3.0
    vertex -21953.990717304932 27372.75120820595 3.0
    vertex -21953.990717304932 27358.15120820595 3.0
  endloop
endfacet
facet normal 0.0 0.0 1.0
  outer loop
    vertex -21953.990717304932 27372.75120820595 3.0
    vertex -21937.990717304932 27358.15120820595 3.0
    vertex -21937.990717304932 27372.75120820595 3.0
  endloop
endfacet
facet normal 0.0 0.0 1.0
  outer loop
    vertex -21934.990717304932 27350.151208205953 6.999999999999997
    vertex -21937.990717304932 27353.15120820595 6.999999999999997
    vertex -21937.990717304932 27350.151208205953 6.999999999999997
  endloop
endfacet
facet normal 0.0 0.0 1.0
  outer loop
    vertex -21937.990717304932 27353.15120820595 6.999999999999997
    vertex -21934.990717304932 27350.151208205953 6.999999999999997
    vertex -21937.990717304932 27372.75120820595 6.999999999999997
  endloop
endfacet
facet normal 0.0 0.0 1.0
  outer loop
    vertex -21953.990717304932 27350.151208205953 6.999999999999997
    vertex -21956.99071730493 27375.75120820595 6.999999999999997
    vertex -21956.99071730493 27350.151208205953 6.999999999999997
  endloop
endfacet
facet normal 0.0 0.0 1.0
  outer loop
    vertex -21956.99071730493 27375.75120820595 6.999999999999997
    vertex -21953.990717304932 27350.151208205953 6.999999999999997
    vertex -21953.990717304932 27372.75120820595 6.999999999999997
  endloop
endfacet
facet normal 0.0 0.0 1.0
  outer loop
    vertex -21956.99071730493 27375.75120820595 6.999999999999997
    vertex -21953.990717304932 27372.75120820595 6.999999999999997
    vertex -21934.990717304932 27375.75120820595 6.999999999999997
  endloop
endfacet
facet normal 0.0 0.0 1.0
  outer loop
    vertex -21953.990717304932 27372.75120820595 6.999999999999997
    vertex -21953.990717304932 27350.151208205953 6.999999999999997
    vertex -21953.990717304932 27353.15120820595 6.999999999999997
  endloop
endfacet
facet normal 0.0 0.0 1.0
  outer loop
    vertex -21934.990717304932 27375.75120820595 6.999999999999997
    vertex -21953.990717304932 27372.75120820595 6.999999999999997
    vertex -21937.990717304932 27372.75120820595 6.999999999999997
  endloop
endfacet
facet normal 0.0 0.0 1.0
  outer loop
    vertex -21934.990717304932 27375.75120820595 6.999999999999997
    vertex -21937.990717304932 27372.75120820595 6.999999999999997
    vertex -21934.990717304932 27350.151208205953 6.999999999999997
  endloop
endfacet
facet normal 0.0 1.0 0.0
  outer loop
    vertex -21953.990717304932 27353.15120820595 3.9999999999999996
    vertex -21952.990717304932 27353.15120820595 5.999999999999997
    vertex -21937.990717304932 27353.15120820595 3.9999999999999996
  endloop
endfacet
facet normal 0.0 1.0 0.0
  outer loop
    vertex -21952.990717304932 27353.15120820595 5.999999999999997
    vertex -21953.990717304932 27353.15120820595 3.9999999999999996
    vertex -21953.990717304932 27353.15120820595 6.999999999999997
  endloop
endfacet
facet normal 0.0 1.0 0.0
  outer loop
    vertex -21937.990717304932 27353.15120820595 3.9999999999999996
    vertex -21938.990717304932 27353.15120820595 5.999999999999997
    vertex -21937.990717304932 27353.15120820595 6.999999999999997
  endloop
endfacet
facet normal 0.0 1.0 0.0
  outer loop
    vertex -21938.990717304932 27353.15120820595 5.999999999999997
    vertex -21937.990717304932 27353.15120820595 3.9999999999999996
    vertex -21952.990717304932 27353.15120820595 5.999999999999997
  endloop
endfacet
facet normal 1.0 0.0 0.0
  outer loop
    vertex -21953.990717304932 27372.75120820595 3.0
    vertex -21953.990717304932 27358.15120820595 3.9999999999999996
    vertex -21953.990717304932 27358.15120820595 3.0
  endloop
endfacet
facet normal 1.0 0.0 0.0
  outer loop
    vertex -21953.990717304932 27358.15120820595 3.9999999999999996
    vertex -21953.990717304932 27353.15120820595 6.999999999999997
    vertex -21953.990717304932 27353.15120820595 3.9999999999999996
  endloop
endfacet
facet normal 1.0 0.0 0.0
  outer loop
    vertex -21953.990717304932 27353.15120820595 6.999999999999997
    vertex -21953.990717304932 27358.15120820595 3.9999999999999996
    vertex -21953.990717304932 27372.75120820595 6.999999999999997
  endloop
endfacet
facet normal 1.0 0.0 0.0
  outer loop
    vertex -21953.990717304932 27372.75120820595 6.999999999999997
    vertex -21953.990717304932 27358.15120820595 3.9999999999999996
    vertex -21953.990717304932 27372.75120820595 3.0
  endloop
endfacet
facet normal 0.0 -1.0 0.0
  outer loop
    vertex -21937.990717304932 27372.75120820595 6.999999999999997
    vertex -21953.990717304932 27372.75120820595 3.0
    vertex -21937.990717304932 27372.75120820595 3.0
  endloop
endfacet
facet normal 0.0 -1.0 0.0
  outer loop
    vertex -21953.990717304932 27372.75120820595 3.0
    vertex -21937.990717304932 27372.75120820595 6.999999999999997
    vertex -21953.990717304932 27372.75120820595 6.999999999999997
  endloop
endfacet
facet normal -1.0 0.0 0.0
  outer loop
    vertex -21937.990717304932 27372.75120820595 6.999999999999997
    vertex -21937.990717304932 27353.15120820595 3.9999999999999996
    vertex -21937.990717304932 27353.15120820595 6.999999999999997
  endloop
endfacet
facet normal -1.0 0.0 0.0
  outer loop
    vertex -21937.990717304932 27353.15120820595 3.9999999999999996
    vertex -21937.990717304932 27372.75120820595 6.999999999999997
    vertex -21937.990717304932 27358.15120820595 3.9999999999999996
  endloop
endfacet
facet normal -1.0 0.0 0.0
  outer loop
    vertex -21937.990717304932 27358.15120820595 3.9999999999999996
    vertex -21937.990717304932 27372.75120820595 6.999999999999997
    vertex -21937.990717304932 27358.15120820595 3.0
  endloop
endfacet
facet normal -1.0 0.0 0.0
  outer loop
    vertex -21937.990717304932 27358.15120820595 3.0
    vertex -21937.990717304932 27372.75120820595 6.999999999999997
    vertex -21937.990717304932 27372.75120820595 3.0
  endloop
endfacet
facet normal 1.0721040041801931e-17 -1.7443331918946853e-17 -1.0
  outer loop
    vertex -21945.990717304932 27350.151208205953 0.0
    vertex -21950.990717304932 27345.151208205953 0.0
    vertex -21950.990717304932 27350.151208205953 0.0
  endloop
endfacet
facet normal 1.0721040041801931e-17 -1.7443331918946853e-17 -1.0
  outer loop
    vertex -21950.990717304932 27345.151208205953 0.0
    vertex -21955.990717304932 27343.151208205953 0.0
    vertex -21955.990717304932 27345.151208205953 0.0
  endloop
endfacet
facet normal 1.0721040041801931e-17 -1.7443331918946853e-17 -1.0
  outer loop
    vertex -21955.990717304932 27343.151208205953 0.0
    vertex -21950.990717304932 27345.151208205953 0.0
    vertex -21952.990717304932 27340.151208205953 0.0
  endloop
endfacet
facet normal 1.0721040041801931e-17 -1.7443331918946853e-17 -1.0
  outer loop
    vertex -21952.990717304932 27340.151208205953 0.0
    vertex -21950.990717304932 27345.151208205953 0.0
    vertex -21938.990717304932 27340.151208205953 3.524958103184872e-16
  endloop
endfacet
facet normal 1.0721040041801931e-17 -1.7443331918946853e-17 -1.0
  outer loop
    vertex -21938.990717304932 27340.151208205953 3.524958103184872e-16
    vertex -21950.990717304932 27345.151208205953 0.0
    vertex -21945.990717304932 27350.151208205953 0.0
  endloop
endfacet
facet normal 1.0721040041801931e-17 -1.7443331918946853e-17 -1.0
  outer loop
    vertex -21938.990717304932 27340.151208205953 3.524958103184872e-16
    vertex -21945.990717304932 27350.151208205953 0.0
    vertex -21940.990717304932 27345.151208205953 0.0
  endloop
endfacet
facet normal 1.0721040041801931e-17 -1.7443331918946853e-17 -1.0
  outer loop
    vertex -21940.990717304932 27345.151208205953 0.0
    vertex -21945.990717304932 27350.151208205953 0.0
    vertex -21940.990717304932 27350.151208205953 0.0
  endloop
endfacet
facet normal 1.0721040041801931e-17 -1.7443331918946853e-17 -1.0
  outer loop
    vertex -21938.990717304932 27340.151208205953 3.524958103184872e-16
    vertex -21940.990717304932 27345.151208205953 0.0
    vertex -21935.990717304932 27345.151208205953 0.0
  endloop
endfacet
facet normal 1.0721040041801931e-17 -1.7443331918946853e-17 -1.0
  outer loop
    vertex -21938.990717304932 27340.151208205953 3.524958103184872e-16
    vertex -21935.990717304932 27345.151208205953 0.0
    vertex -21935.990717304932 27343.151208205953 3.524958103184872e-16
  endloop
endfacet
facet normal 0.0 0.0 -1.0
  outer loop
    vertex -21952.990717304936 27385.751208205947 0.0
    vertex -21955.990717304932 27380.75120820595 0.0
    vertex -21955.990717304932 27382.75120820595 0.0
  endloop
endfacet
facet normal 0.0 0.0 -1.0
  outer loop
    vertex -21955.990717304932 27380.75120820595 0.0
    vertex -21952.990717304936 27385.751208205947 0.0
    vertex -21950.990717304936 27380.75120820595 0.0
  endloop
endfacet
facet normal 0.0 0.0 -1.0
  outer loop
    vertex -21950.990717304936 27380.75120820595 0.0
    vertex -21952.990717304936 27385.751208205947 0.0
    vertex -21938.990717304936 27385.751208205947 0.0
  endloop
endfacet
facet normal 0.0 0.0 -1.0
  outer loop
    vertex -21950.990717304936 27380.75120820595 0.0
    vertex -21938.990717304936 27385.751208205947 0.0
    vertex -21950.990717304936 27375.75120820595 0.0
  endloop
endfacet
facet normal 0.0 0.0 -1.0
  outer loop
    vertex -21950.990717304936 27375.75120820595 0.0
    vertex -21938.990717304936 27385.751208205947 0.0
    vertex -21945.990717304932 27375.75120820595 0.0
  endloop
endfacet
facet normal 0.0 0.0 -1.0
  outer loop
    vertex -21945.990717304932 27375.75120820595 0.0
    vertex -21938.990717304936 27385.751208205947 0.0
    vertex -21940.990717304932 27380.75120820595 0.0
  endloop
endfacet
facet normal 0.0 0.0 -1.0
  outer loop
    vertex -21940.990717304932 27380.75120820595 0.0
    vertex -21938.990717304936 27385.751208205947 0.0
    vertex -21935.990717304936 27380.75120820595 0.0
  endloop
endfacet
facet normal 0.0 0.0 -1.0
  outer loop
    vertex -21935.990717304936 27380.75120820595 0.0
    vertex -21938.990717304936 27385.751208205947 0.0
    vertex -21935.990717304936 27382.75120820595 0.0
  endloop
endfacet
facet normal 0.0 0.0 -1.0
  outer loop
    vertex -21940.990717304932 27375.75120820595 0.0
    vertex -21945.990717304932 27375.75120820595 0.0
    vertex -21940.990717304932 27380.75120820595 0.0
  endloop
endfacet
facet normal 0.0 1.0 0.0
  outer loop
    vertex -21952.990717304936 27385.751208205947 3.0
    vertex -21938.990717304936 27385.751208205947 0.0
    vertex -21952.990717304936 27385.751208205947 0.0
  endloop
endfacet
facet normal 0.0 1.0 0.0
  outer loop
    vertex -21938.990717304936 27385.751208205947 0.0
    vertex -21952.990717304936 27385.751208205947 3.0
    vertex -21938.990717304936 27385.751208205947 3.0
  endloop
endfacet
facet normal 1.0 0.0 0.0
  outer loop
    vertex -21940.990717304932 27380.75120820595 0.0
    vertex -21940.990717304932 27375.75120820595 3.0
    vertex -21940.990717304932 27375.75120820595 0.0
  endloop
endfacet
facet normal 1.0 0.0 0.0
  outer loop
    vertex -21940.990717304932 27375.75120820595 3.0
    vertex -21940.990717304932 27380.75120820595 0.0
    vertex -21940.990717304932 27380.75120820595 3.0
  endloop
endfacet
facet normal 0.0 1.0 0.0
  outer loop
    vertex -21945.990717304932 27375.75120820595 3.0
    vertex -21940.990717304932 27375.75120820595 0.0
    vertex -21945.990717304932 27375.75120820595 0.0
  endloop
endfacet
facet normal 0.0 1.0 0.0
  outer loop
    vertex -21940.990717304932 27375.75120820595 0.0
    vertex -21945.990717304932 27375.75120820595 3.0
    vertex -21940.990717304932 27375.75120820595 3.0
  endloop
endfacet
facet normal 0.0 1.0 0.0
  outer loop
    vertex -21950.990717304936 27375.75120820595 3.0
    vertex -21945.990717304932 27375.75120820595 0.0
    vertex -21950.990717304936 27375.75120820595 0.0
  endloop
endfacet
facet normal 0.0 1.0 0.0
  outer loop
    vertex -21945.990717304932 27375.75120820595 0.0
    vertex -21950.990717304936 27375.75120820595 3.0
    vertex -21945.990717304932 27375.75120820595 3.0
  endloop
endfacet
facet normal 0.0 -1.0 0.0
  outer loop
    vertex -21938.990717304932 27340.151208205953 3.524958103184872e-16
    vertex -21952.990717304932 27340.151208205953 3.0
    vertex -21952.990717304932 27340.151208205953 0.0
  endloop
endfacet
facet normal 0.0 -1.0 0.0
  outer loop
    vertex -21952.990717304932 27340.151208205953 3.0
    vertex -21938.990717304932 27340.151208205953 3.524958103184872e-16
    vertex -21938.990717304932 27340.151208205953 3.0
  endloop
endfacet
facet normal -1.0 0.0 0.0
  outer loop
    vertex -21950.990717304932 27350.151208205953 3.0
    vertex -21950.990717304932 27345.151208205953 0.0
    vertex -21950.990717304932 27345.151208205953 3.0
  endloop
endfacet
facet normal -1.0 0.0 0.0
  outer loop
    vertex -21950.990717304932 27345.151208205953 0.0
    vertex -21950.990717304932 27350.151208205953 3.0
    vertex -21950.990717304932 27350.151208205953 0.0
  endloop
endfacet
facet normal 0.0 -1.0 0.0
  outer loop
    vertex -21945.990717304932 27350.151208205953 3.0
    vertex -21950.990717304932 27350.151208205953 0.0
    vertex -21945.990717304932 27350.151208205953 0.0
  endloop
endfacet
facet normal 0.0 -1.0 0.0
  outer loop
    vertex -21950.990717304932 27350.151208205953 0.0
    vertex -21945.990717304932 27350.151208205953 3.0
    vertex -21950.990717304932 27350.151208205953 3.0
  endloop
endfacet
facet normal 0.0 -1.0 0.0
  outer loop
    vertex -21940.990717304932 27350.151208205953 3.0
    vertex -21945.990717304932 27350.151208205953 0.0
    vertex -21940.990717304932 27350.151208205953 0.0
  endloop
endfacet
facet normal 0.0 -1.0 0.0
  outer loop
    vertex -21945.990717304932 27350.151208205953 0.0
    vertex -21940.990717304932 27350.151208205953 3.0
    vertex -21945.990717304932 27350.151208205953 3.0
  endloop
endfacet
facet normal 1.0 0.0 0.0
  outer loop
    vertex -21940.990717304932 27350.151208205953 0.0
    vertex -21940.990717304932 27345.151208205953 3.0
    vertex -21940.990717304932 27345.151208205953 0.0
  endloop
endfacet
facet normal 1.0 0.0 0.0
  outer loop
    vertex -21940.990717304932 27345.151208205953 3.0
    vertex -21940.990717304932 27350.151208205953 0.0
    vertex -21940.990717304932 27350.151208205953 3.0
  endloop
endfacet
facet normal -1.0 0.0 0.0
  outer loop
    vertex -21950.990717304936 27380.75120820595 3.0
    vertex -21950.990717304936 27375.75120820595 0.0
    vertex -21950.990717304936 27375.75120820595 3.0
  endloop
endfacet
facet normal -1.0 0.0 0.0
  outer loop
    vertex -21950.990717304936 27375.75120820595 0.0
    vertex -21950.990717304936 27380.75120820595 3.0
    vertex -21950.990717304936 27380.75120820595 0.0
  endloop
endfacet
facet normal -1.0 0.0 0.0
  outer loop
    vertex -21955.990717304932 27382.75120820595 3.0
    vertex -21955.990717304932 27380.75120820595 0.0
    vertex -21955.990717304932 27380.75120820595 3.0
  endloop
endfacet
facet normal -1.0 0.0 0.0
  outer loop
    vertex -21955.990717304932 27380.75120820595 0.0
    vertex -21955.990717304932 27382.75120820595 3.0
    vertex -21955.990717304932 27382.75120820595 0.0
  endloop
endfacet
facet normal 0.0 -1.0 0.0
  outer loop
    vertex -21950.990717304936 27380.75120820595 3.0
    vertex -21955.990717304932 27380.75120820595 0.0
    vertex -21950.990717304936 27380.75120820595 0.0
  endloop
endfacet
facet normal 0.0 -1.0 0.0
  outer loop
    vertex -21955.990717304932 27380.75120820595 0.0
    vertex -21950.990717304936 27380.75120820595 3.0
    vertex -21955.990717304932 27380.75120820595 3.0
  endloop
endfacet
facet normal -1.0 0.0 0.0
  outer loop
    vertex -21955.990717304932 27345.151208205953 3.0
    vertex -21955.990717304932 27343.151208205953 0.0
    vertex -21955.990717304932 27343.151208205953 3.0
  endloop
endfacet
facet normal -1.0 0.0 0.0
  outer loop
    vertex -21955.990717304932 27343.151208205953 0.0
    vertex -21955.990717304932 27345.151208205953 3.0
    vertex -21955.990717304932 27345.151208205953 0.0
  endloop
endfacet
facet normal 0.0 1.0 0.0
  outer loop
    vertex -21955.990717304932 27345.151208205953 3.0
    vertex -21950.990717304932 27345.151208205953 0.0
    vertex -21955.990717304932 27345.151208205953 0.0
  endloop
endfacet
facet normal 0.0 1.0 0.0
  outer loop
    vertex -21950.990717304932 27345.151208205953 0.0
    vertex -21955.990717304932 27345.151208205953 3.0
    vertex -21950.990717304932 27345.151208205953 3.0
  endloop
endfacet
facet normal 1.0 0.0 0.0
  outer loop
    vertex -21935.990717304936 27382.75120820595 0.0
    vertex -21935.990717304936 27380.75120820595 3.0
    vertex -21935.990717304936 27380.75120820595 0.0
  endloop
endfacet
facet normal 1.0 0.0 0.0
  outer loop
    vertex -21935.990717304936 27380.75120820595 3.0
    vertex -21935.990717304936 27382.75120820595 0.0
    vertex -21935.990717304936 27382.75120820595 3.0
  endloop
endfacet
facet normal -0.0 -1.0 -0.0
  outer loop
    vertex -21935.990717304936 27380.75120820595 3.0
    vertex -21940.990717304932 27380.75120820595 0.0
    vertex -21935.990717304936 27380.75120820595 0.0
  endloop
endfacet
facet normal -0.0 -1.0 -0.0
  outer loop
    vertex -21940.990717304932 27380.75120820595 0.0
    vertex -21935.990717304936 27380.75120820595 3.0
    vertex -21940.990717304932 27380.75120820595 3.0
  endloop
endfacet
facet normal 1.0 0.0 0.0
  outer loop
    vertex -21935.990717304932 27345.151208205953 0.0
    vertex -21935.990717304932 27343.151208205953 3.0
    vertex -21935.990717304932 27343.151208205953 3.524958103184872e-16
  endloop
endfacet
facet normal 1.0 0.0 0.0
  outer loop
    vertex -21935.990717304932 27343.151208205953 3.0
    vertex -21935.990717304932 27345.151208205953 0.0
    vertex -21935.990717304932 27345.151208205953 3.0
  endloop
endfacet
facet normal 0.0 1.0 0.0
  outer loop
    vertex -21940.990717304932 27345.151208205953 3.0
    vertex -21935.990717304932 27345.151208205953 0.0
    vertex -21940.990717304932 27345.151208205953 0.0
  endloop
endfacet
facet normal 0.0 1.0 0.0
  outer loop
    vertex -21935.990717304932 27345.151208205953 0.0
    vertex -21940.990717304932 27345.151208205953 3.0
    vertex -21935.990717304932 27345.151208205953 3.0
  endloop
endfacet
facet normal 0.0 0.0 1.0
  outer loop
    vertex -21945.990717304932 27375.75120820595 3.0
    vertex -21950.990717304936 27380.75120820595 3.0
    vertex -21950.990717304936 27375.75120820595 3.0
  endloop
endfacet
facet normal 0.0 0.0 1.0
  outer loop
    vertex -21950.990717304936 27380.75120820595 3.0
    vertex -21955.990717304932 27382.75120820595 3.0
    vertex -21955.990717304932 27380.75120820595 3.0
  endloop
endfacet
facet normal 0.0 0.0 1.0
  outer loop
    vertex -21955.990717304932 27382.75120820595 3.0
    vertex -21950.990717304936 27380.75120820595 3.0
    vertex -21952.990717304936 27385.751208205947 3.0
  endloop
endfacet
facet normal 0.0 0.0 1.0
  outer loop
    vertex -21952.990717304936 27385.751208205947 3.0
    vertex -21950.990717304936 27380.75120820595 3.0
    vertex -21938.990717304936 27385.751208205947 3.0
  endloop
endfacet
facet normal 0.0 0.0 1.0
  outer loop
    vertex -21938.990717304936 27385.751208205947 3.0
    vertex -21950.990717304936 27380.75120820595 3.0
    vertex -21945.990717304932 27375.75120820595 3.0
  endloop
endfacet
facet normal 0.0 0.0 1.0
  outer loop
    vertex -21938.990717304936 27385.751208205947 3.0
    vertex -21945.990717304932 27375.75120820595 3.0
    vertex -21940.990717304932 27380.75120820595 3.0
  endloop
endfacet
facet normal 0.0 0.0 1.0
  outer loop
    vertex -21940.990717304932 27380.75120820595 3.0
    vertex -21945.990717304932 27375.75120820595 3.0
    vertex -21940.990717304932 27375.75120820595 3.0
  endloop
endfacet
facet normal 0.0 0.0 1.0
  outer loop
    vertex -21938.990717304936 27385.751208205947 3.0
    vertex -21940.990717304932 27380.75120820595 3.0
    vertex -21935.990717304936 27380.75120820595 3.0
  endloop
endfacet
facet normal 0.0 0.0 1.0
  outer loop
    vertex -21938.990717304936 27385.751208205947 3.0
    vertex -21935.990717304936 27380.75120820595 3.0
    vertex -21935.990717304936 27382.75120820595 3.0
  endloop
endfacet
facet normal 0.0 0.0 1.0
  outer loop
    vertex -21952.990717304932 27340.151208205953 3.0
    vertex -21955.990717304932 27345.151208205953 3.0
    vertex -21955.990717304932 27343.151208205953 3.0
  endloop
endfacet
facet normal 0.0 0.0 1.0
  outer loop
    vertex -21955.990717304932 27345.151208205953 3.0
    vertex -21952.990717304932 27340.151208205953 3.0
    vertex -21950.990717304932 27345.151208205953 3.0
  endloop
endfacet
facet normal 0.0 0.0 1.0
  outer loop
    vertex -21950.990717304932 27345.151208205953 3.0
    vertex -21952.990717304932 27340.151208205953 3.0
    vertex -21938.990717304932 27340.151208205953 3.0
  endloop
endfacet
facet normal 0.0 0.0 1.0
  outer loop
    vertex -21950.990717304932 27345.151208205953 3.0
    vertex -21938.990717304932 27340.151208205953 3.0
    vertex -21950.990717304932 27350.151208205953 3.0
  endloop
endfacet
facet normal 0.0 0.0 1.0
  outer loop
    vertex -21950.990717304932 27350.151208205953 3.0
    vertex -21938.990717304932 27340.151208205953 3.0
    vertex -21945.990717304932 27350.151208205953 3.0
  endloop
endfacet
facet normal 0.0 0.0 1.0
  outer loop
    vertex -21945.990717304932 27350.151208205953 3.0
    vertex -21938.990717304932 27340.151208205953 3.0
    vertex -21940.990717304932 27345.151208205953 3.0
  endloop
endfacet
facet normal 0.0 0.0 1.0
  outer loop
    vertex -21940.990717304932 27345.151208205953 3.0
    vertex -21938.990717304932 27340.151208205953 3.0
    vertex -21935.990717304932 27345.151208205953 3.0
  endloop
endfacet
facet normal 0.0 0.0 1.0
  outer loop
    vertex -21935.990717304932 27345.151208205953 3.0
    vertex -21938.990717304932 27340.151208205953 3.0
    vertex -21935.990717304932 27343.151208205953 3.0
  endloop
endfacet
facet normal 0.0 0.0 1.0
  outer loop
    vertex -21940.990717304932 27350.151208205953 3.0
    vertex -21945.990717304932 27350.151208205953 3.0
    vertex -21940.990717304932 27345.151208205953 3.0
  endloop
endfacet
facet normal 0.7071067811865475 -0.7071067811865476 -1.5994488311883725e-28
  outer loop
    vertex -21935.990717304932 27343.151208205953 3.0
    vertex -21938.990717304932 27340.151208205953 3.524958103184872e-16
    vertex -21935.990717304932 27343.151208205953 3.524958103184872e-16
  endloop
endfacet
facet normal 0.7071067811865475 -0.7071067811865476 -1.5994488311883725e-28
  outer loop
    vertex -21938.990717304932 27340.151208205953 3.524958103184872e-16
    vertex -21935.990717304932 27343.151208205953 3.0
    vertex -21938.990717304932 27340.151208205953 3.0
  endloop
endfacet
facet normal -0.7071067811865477 -0.7071067811865475 0.0
  outer loop
    vertex -21955.990717304932 27343.151208205953 3.0
    vertex -21952.990717304932 27340.151208205953 0.0
    vertex -21952.990717304932 27340.151208205953 3.0
  endloop
endfacet
facet normal -0.7071067811865477 -0.7071067811865475 0.0
  outer loop
    vertex -21952.990717304932 27340.151208205953 0.0
    vertex -21955.990717304932 27343.151208205953 3.0
    vertex -21955.990717304932 27343.151208205953 0.0
  endloop
endfacet
facet normal -0.7071067811865476 0.7071067811865476 0.0
  outer loop
    vertex -21952.990717304936 27385.751208205947 3.0
    vertex -21955.990717304932 27382.75120820595 0.0
    vertex -21955.990717304932 27382.75120820595 3.0
  endloop
endfacet
facet normal -0.7071067811865476 0.7071067811865476 0.0
  outer loop
    vertex -21955.990717304932 27382.75120820595 0.0
    vertex -21952.990717304936 27385.751208205947 3.0
    vertex -21952.990717304936 27385.751208205947 0.0
  endloop
endfacet
facet normal 0.7071067811865476 0.7071067811865476 0.0
  outer loop
    vertex -21938.990717304936 27385.751208205947 0.0
    vertex -21935.990717304936 27382.75120820595 3.0
    vertex -21935.990717304936 27382.75120820595 0.0
  endloop
endfacet
facet normal 0.7071067811865476 0.7071067811865476 0.0
  outer loop
    vertex -21935.990717304936 27382.75120820595 3.0
    vertex -21938.990717304936 27385.751208205947 0.0
    vertex -21938.990717304936 27385.751208205947 3.0
  endloop
endfacet
facet normal 0.0 0.0 1.0
  outer loop
    vertex -21937.990717304932 27353.15120820595 3.9999999999999996
    vertex -21953.990717304932 27358.15120820595 3.9999999999999996
    vertex -21953.990717304932 27353.15120820595 3.9999999999999996
  endloop
endfacet
facet normal 0.0 0.0 1.0
  outer loop
    vertex -21953.990717304932 27358.15120820595 3.9999999999999996
    vertex -21937.990717304932 27353.15120820595 3.9999999999999996
    vertex -21937.990717304932 27358.15120820595 3.9999999999999996
  endloop
endfacet
facet normal 0.0 1.0 0.0
  outer loop
    vertex -21953.990717304932 27358.15120820595 3.9999999999999996
    vertex -21937.990717304932 27358.15120820595 3.0
    vertex -21953.990717304932 27358.15120820595 3.0
  endloop
endfacet
facet normal 0.0 1.0 0.0
  outer loop
    vertex -21937.990717304932 27358.15120820595 3.0
    vertex -21953.990717304932 27358.15120820595 3.9999999999999996
    vertex -21937.990717304932 27358.15120820595 3.9999999999999996
  endloop
endfacet
facet normal 0.0 0.0 1.0
  outer loop
    vertex -21938.990717304932 27350.151208205953 5.999999999999997
    vertex -21952.990717304932 27353.15120820595 5.999999999999997
    vertex -21952.990717304932 27350.151208205953 5.999999999999997
  endloop
endfacet
facet normal 0.0 0.0 1.0
  outer loop
    vertex -21952.990717304932 27353.15120820595 5.999999999999997
    vertex -21938.990717304932 27350.151208205953 5.999999999999997
    vertex -21938.990717304932 27353.15120820595 5.999999999999997
  endloop
endfacet
facet normal 0.7071067811866278 6.397795324755673e-28 0.7071067811864673
  outer loop
    vertex -21952.990717304932 27353.15120820595 5.999999999999997
    vertex -21953.990717304932 27350.151208205953 6.999999999999997
    vertex -21952.990717304932 27350.151208205953 5.999999999999997
  endloop
endfacet
facet normal 0.7071067811866278 6.397795324755673e-28 0.7071067811864673
  outer loop
    vertex -21953.990717304932 27350.151208205953 6.999999999999997
    vertex -21952.990717304932 27353.15120820595 5.999999999999997
    vertex -21953.990717304932 27353.15120820595 6.999999999999997
  endloop
endfacet
facet normal -0.7071067811866278 6.397795324755673e-28 0.7071067811864673
  outer loop
    vertex -21937.990717304932 27353.15120820595 6.999999999999997
    vertex -21938.990717304932 27350.151208205953 5.999999999999997
    vertex -21937.990717304932 27350.151208205953 6.999999999999997
  endloop
endfacet
facet normal -0.7071067811866278 6.397795324755673e-28 0.7071067811864673
  outer loop
    vertex -21938.990717304932 27350.151208205953 5.999999999999997
    vertex -21937.990717304932 27353.15120820595 6.999999999999997
    vertex -21938.990717304932 27353.15120820595 5.999999999999997
  endloop
endfacet
endsolid Main
