solid Main
facet normal -0.707106781186416 0.7071067811866791 0.0
  outer loop
    vertex -21973.100147286423 27450.736703775525 6.0
    vertex -21965.34278797354 27458.494063088405 3.0
    vertex -21973.100147286423 27450.736703775525 3.0
  endloop
endfacet
facet normal -0.707106781186416 0.7071067811866791 0.0
  outer loop
    vertex -21965.34278797354 27458.494063088405 3.0
    vertex -21973.100147286423 27450.736703775525 6.0
    vertex -21965.34278797354 27458.494063088405 6.0
  endloop
endfacet
facet normal 1.0 0.0 0.0
  outer loop
    vertex -21973.100147286423 27466.251422401285 3.0
    vertex -21973.100147286423 27465.4940630884 6.0
    vertex -21973.100147286423 27465.4940630884 3.0
  endloop
endfacet
facet normal 1.0 0.0 0.0
  outer loop
    vertex -21973.100147286423 27465.4940630884 6.0
    vertex -21973.100147286423 27466.251422401285 3.0
    vertex -21973.100147286423 27466.251422401285 6.0
  endloop
endfacet
facet normal 1.3918730859280165e-14 -3.351529660503524e-14 1.0
  outer loop
    vertex -22009.100147286423 27450.736703775525 3.0
    vertex -22009.100147286423 27466.251422401285 3.0
    vertex -22016.857506599306 27458.494063088405 3.0
  endloop
endfacet
facet normal 1.3918730859280165e-14 -3.351529660503524e-14 1.0
  outer loop
    vertex -22009.100147286423 27466.251422401285 3.0
    vertex -22009.100147286423 27450.736703775525 3.0
    vertex -22009.100147286423 27451.494063088405 3.0
  endloop
endfacet
facet normal 1.3918730859280165e-14 -3.351529660503524e-14 1.0
  outer loop
    vertex -22009.100147286423 27466.251422401285 3.0
    vertex -22009.100147286423 27451.494063088405 3.0
    vertex -22009.100147286423 27465.4940630884 3.0
  endloop
endfacet
facet normal 1.3918730859280165e-14 -3.351529660503524e-14 1.0
  outer loop
    vertex -21965.34278797354 27458.494063088405 3.0
    vertex -21973.100147286423 27451.494063088405 3.0
    vertex -21973.100147286423 27450.736703775525 3.0
  endloop
endfacet
facet normal 1.3918730859280165e-14 -3.351529660503524e-14 1.0
  outer loop
    vertex -21973.100147286423 27451.494063088405 3.0
    vertex -21965.34278797354 27458.494063088405 3.0
    vertex -21973.100147286423 27465.4940630884 3.0
  endloop
endfacet
facet normal 1.3918730859280165e-14 -3.351529660503524e-14 1.0
  outer loop
    vertex -21973.100147286423 27465.4940630884 3.0
    vertex -21965.34278797354 27458.494063088405 3.0
    vertex -21973.100147286423 27466.251422401285 3.0
  endloop
endfacet
facet normal 1.3918730859280165e-14 -3.351529660503524e-14 1.0
  outer loop
    vertex -22009.100147286423 27451.494063088405 3.0
    vertex -21992.10014728642 27456.762012280837 3.0
    vertex -22009.100147286423 27465.4940630884 3.0
  endloop
endfacet
facet normal 1.3918730859280165e-14 -3.351529660503524e-14 1.0
  outer loop
    vertex -21992.10014728642 27456.762012280837 3.0
    vertex -22009.100147286423 27451.494063088405 3.0
    vertex -21991.617785376628 27456.56221143583 3.0
  endloop
endfacet
facet normal 1.3918730859280165e-14 -3.351529660503524e-14 1.0
  outer loop
    vertex -21991.617785376628 27456.56221143583 3.0
    vertex -22009.100147286423 27451.494063088405 3.0
    vertex -21973.100147286423 27451.494063088405 3.0
  endloop
endfacet
facet normal 1.3918730859280165e-14 -3.351529660503524e-14 1.0
  outer loop
    vertex -22009.100147286423 27465.4940630884 3.0
    vertex -21992.10014728642 27456.762012280837 3.0
    vertex -21992.514360848792 27457.07984952603 3.0
  endloop
endfacet
facet normal 1.3918730859280165e-14 -3.351529660503524e-14 1.0
  outer loop
    vertex -22009.100147286423 27465.4940630884 3.0
    vertex -21992.514360848792 27457.07984952603 3.0
    vertex -21992.83219809399 27457.494063088405 3.0
  endloop
endfacet
facet normal 1.3918730859280165e-14 -3.351529660503524e-14 1.0
  outer loop
    vertex -22009.100147286423 27465.4940630884 3.0
    vertex -21992.83219809399 27457.494063088405 3.0
    vertex -21993.031998939 27457.9764249982 3.0
  endloop
endfacet
facet normal 1.3918730859280165e-14 -3.351529660503524e-14 1.0
  outer loop
    vertex -22009.100147286423 27465.4940630884 3.0
    vertex -21993.031998939 27457.9764249982 3.0
    vertex -21996.10014728642 27465.4940630884 3.0000000000000013
  endloop
endfacet
facet normal 1.3918730859280165e-14 -3.351529660503524e-14 1.0
  outer loop
    vertex -21996.10014728642 27465.4940630884 3.0000000000000013
    vertex -21993.031998939 27457.9764249982 3.0
    vertex -21996.10014728642 27468.4940630884 3.0000000000000013
  endloop
endfacet
facet normal 1.3918730859280165e-14 -3.351529660503524e-14 1.0
  outer loop
    vertex -21996.10014728642 27468.4940630884 3.0000000000000013
    vertex -21993.031998939 27457.9764249982 3.0
    vertex -21993.10014728642 27458.494063088405 3.0
  endloop
endfacet
facet normal 1.3918730859280165e-14 -3.351529660503524e-14 1.0
  outer loop
    vertex -21991.617785376628 27456.56221143583 3.0
    vertex -21973.100147286423 27451.494063088405 3.0
    vertex -21991.10014728642 27456.494063088405 3.0
  endloop
endfacet
facet normal 1.3918730859280165e-14 -3.351529660503524e-14 1.0
  outer loop
    vertex -21991.10014728642 27456.494063088405 3.0
    vertex -21973.100147286423 27451.494063088405 3.0
    vertex -21990.582509196214 27456.56221143583 3.0
  endloop
endfacet
facet normal 1.3918730859280165e-14 -3.351529660503524e-14 1.0
  outer loop
    vertex -21990.582509196214 27456.56221143583 3.0
    vertex -21973.100147286423 27451.494063088405 3.0
    vertex -21990.100147286423 27456.762012280837 3.0
  endloop
endfacet
facet normal 1.3918730859280165e-14 -3.351529660503524e-14 1.0
  outer loop
    vertex -21990.100147286423 27456.762012280837 3.0
    vertex -21973.100147286423 27451.494063088405 3.0
    vertex -21989.68593372405 27457.07984952603 3.0
  endloop
endfacet
facet normal 1.3918730859280165e-14 -3.351529660503524e-14 1.0
  outer loop
    vertex -21989.68593372405 27457.07984952603 3.0
    vertex -21973.100147286423 27451.494063088405 3.0
    vertex -21989.36809647885 27457.494063088405 3.0
  endloop
endfacet
facet normal 1.3918730859280165e-14 -3.351529660503524e-14 1.0
  outer loop
    vertex -21989.36809647885 27457.494063088405 3.0
    vertex -21973.100147286423 27451.494063088405 3.0
    vertex -21989.16829563384 27457.9764249982 3.0
  endloop
endfacet
facet normal 1.3918730859280165e-14 -3.351529660503524e-14 1.0
  outer loop
    vertex -21989.16829563384 27457.9764249982 3.0
    vertex -21973.100147286423 27451.494063088405 3.0
    vertex -21989.100147286423 27458.494063088405 3.0
  endloop
endfacet
facet normal 1.3918730859280165e-14 -3.351529660503524e-14 1.0
  outer loop
    vertex -21989.100147286423 27458.494063088405 3.0
    vertex -21973.100147286423 27451.494063088405 3.0
    vertex -21986.100147286423 27465.4940630884 3.0000000000000013
  endloop
endfacet
facet normal 1.3918730859280165e-14 -3.351529660503524e-14 1.0
  outer loop
    vertex -21986.100147286423 27465.4940630884 3.0000000000000013
    vertex -21973.100147286423 27451.494063088405 3.0
    vertex -21973.100147286423 27465.4940630884 3.0
  endloop
endfacet
facet normal 1.3918730859280165e-14 -3.351529660503524e-14 1.0
  outer loop
    vertex -21996.100147286423 27478.4940630884 3.0000000000000004
    vertex -22001.10014728642 27485.494063088398 3.000000000002268
    vertex -22001.100147286423 27478.4940630884 3.000000000002407
  endloop
endfacet
facet normal 1.3918730859280165e-14 -3.351529660503524e-14 1.0
  outer loop
    vertex -22001.10014728642 27485.494063088398 3.000000000002268
    vertex -21996.100147286423 27478.4940630884 3.0000000000000004
    vertex -21998.10014728642 27488.494063088398 3.000000000002408
  endloop
endfacet
facet normal 1.3918730859280165e-14 -3.351529660503524e-14 1.0
  outer loop
    vertex -21998.10014728642 27488.494063088398 3.000000000002408
    vertex -21996.100147286423 27478.4940630884 3.0000000000000004
    vertex -21984.100147286423 27488.494063088398 3.0000000000000013
  endloop
endfacet
facet normal 1.3918730859280165e-14 -3.351529660503524e-14 1.0
  outer loop
    vertex -21984.100147286423 27488.494063088398 3.0000000000000013
    vertex -21996.100147286423 27478.4940630884 3.0000000000000004
    vertex -21996.10014728642 27468.4940630884 3.0000000000000013
  endloop
endfacet
facet normal 1.3918730859280165e-14 -3.351529660503524e-14 1.0
  outer loop
    vertex -21984.100147286423 27488.494063088398 3.0000000000000013
    vertex -21996.10014728642 27468.4940630884 3.0000000000000013
    vertex -21993.031998939 27459.011701178606 3.0
  endloop
endfacet
facet normal 1.3918730859280165e-14 -3.351529660503524e-14 1.0
  outer loop
    vertex -21993.031998939 27459.011701178606 3.0
    vertex -21996.10014728642 27468.4940630884 3.0000000000000013
    vertex -21993.10014728642 27458.494063088405 3.0
  endloop
endfacet
facet normal 1.3918730859280165e-14 -3.351529660503524e-14 1.0
  outer loop
    vertex -21984.100147286423 27488.494063088398 3.0000000000000013
    vertex -21993.031998939 27459.011701178606 3.0
    vertex -21992.83219809399 27459.494063088405 3.0
  endloop
endfacet
facet normal 1.3918730859280165e-14 -3.351529660503524e-14 1.0
  outer loop
    vertex -21984.100147286423 27488.494063088398 3.0000000000000013
    vertex -21992.83219809399 27459.494063088405 3.0
    vertex -21992.514360848792 27459.908276650774 3.0
  endloop
endfacet
facet normal 1.3918730859280165e-14 -3.351529660503524e-14 1.0
  outer loop
    vertex -21984.100147286423 27488.494063088398 3.0000000000000013
    vertex -21992.514360848792 27459.908276650774 3.0
    vertex -21992.10014728642 27460.22611389597 3.0
  endloop
endfacet
facet normal 1.3918730859280165e-14 -3.351529660503524e-14 1.0
  outer loop
    vertex -21984.100147286423 27488.494063088398 3.0000000000000013
    vertex -21992.10014728642 27460.22611389597 3.0
    vertex -21991.617785376628 27460.42591474098 3.0
  endloop
endfacet
facet normal 1.3918730859280165e-14 -3.351529660503524e-14 1.0
  outer loop
    vertex -21984.100147286423 27488.494063088398 3.0000000000000013
    vertex -21991.617785376628 27460.42591474098 3.0
    vertex -21991.10014728642 27460.494063088405 3.0
  endloop
endfacet
facet normal 1.3918730859280165e-14 -3.351529660503524e-14 1.0
  outer loop
    vertex -21984.100147286423 27488.494063088398 3.0000000000000013
    vertex -21991.10014728642 27460.494063088405 3.0
    vertex -21990.582509196214 27460.42591474098 3.0
  endloop
endfacet
facet normal 1.3918730859280165e-14 -3.351529660503524e-14 1.0
  outer loop
    vertex -21984.100147286423 27488.494063088398 3.0000000000000013
    vertex -21990.582509196214 27460.42591474098 3.0
    vertex -21990.100147286423 27460.22611389597 3.0
  endloop
endfacet
facet normal 1.3918730859280165e-14 -3.351529660503524e-14 1.0
  outer loop
    vertex -21984.100147286423 27488.494063088398 3.0000000000000013
    vertex -21990.100147286423 27460.22611389597 3.0
    vertex -21986.100147286423 27478.4940630884 3.0000000000000013
  endloop
endfacet
facet normal 1.3918730859280165e-14 -3.351529660503524e-14 1.0
  outer loop
    vertex -21986.100147286423 27478.4940630884 3.0000000000000013
    vertex -21990.100147286423 27460.22611389597 3.0
    vertex -21989.68593372405 27459.908276650774 3.0
  endloop
endfacet
facet normal 1.3918730859280165e-14 -3.351529660503524e-14 1.0
  outer loop
    vertex -21986.100147286423 27478.4940630884 3.0000000000000013
    vertex -21989.68593372405 27459.908276650774 3.0
    vertex -21989.36809647885 27459.494063088405 3.0
  endloop
endfacet
facet normal 1.3918730859280165e-14 -3.351529660503524e-14 1.0
  outer loop
    vertex -21986.100147286423 27478.4940630884 3.0000000000000013
    vertex -21989.36809647885 27459.494063088405 3.0
    vertex -21989.16829563384 27459.011701178606 3.0
  endloop
endfacet
facet normal 1.3918730859280165e-14 -3.351529660503524e-14 1.0
  outer loop
    vertex -21986.100147286423 27478.4940630884 3.0000000000000013
    vertex -21989.16829563384 27459.011701178606 3.0
    vertex -21989.100147286423 27458.494063088405 3.0
  endloop
endfacet
facet normal 1.3918730859280165e-14 -3.351529660503524e-14 1.0
  outer loop
    vertex -21986.100147286423 27478.4940630884 3.0000000000000013
    vertex -21989.100147286423 27458.494063088405 3.0
    vertex -21986.100147286423 27465.4940630884 3.0000000000000013
  endloop
endfacet
facet normal 1.3918730859280165e-14 -3.351529660503524e-14 1.0
  outer loop
    vertex -21986.100147286423 27478.4940630884 3.0000000000000013
    vertex -21986.100147286423 27465.4940630884 3.0000000000000013
    vertex -21986.100147286423 27468.4940630884 3.0000000000000013
  endloop
endfacet
facet normal 1.3918730859280165e-14 -3.351529660503524e-14 1.0
  outer loop
    vertex -21984.100147286423 27488.494063088398 3.0000000000000013
    vertex -21986.100147286423 27478.4940630884 3.0000000000000013
    vertex -21981.100147286423 27478.4940630884 3.0000000000000013
  endloop
endfacet
facet normal 1.3918730859280165e-14 -3.351529660503524e-14 1.0
  outer loop
    vertex -21984.100147286423 27488.494063088398 3.0000000000000013
    vertex -21981.100147286423 27478.4940630884 3.0000000000000013
    vertex -21981.100147286423 27485.494063088398 3.0000000000000013
  endloop
endfacet
facet normal -0.707106781186416 -0.7071067811866791 -0.0
  outer loop
    vertex -21965.34278797354 27458.494063088405 6.0
    vertex -21973.100147286423 27466.251422401285 3.0
    vertex -21965.34278797354 27458.494063088405 3.0
  endloop
endfacet
facet normal -0.707106781186416 -0.7071067811866791 -0.0
  outer loop
    vertex -21973.100147286423 27466.251422401285 3.0
    vertex -21965.34278797354 27458.494063088405 6.0
    vertex -21973.100147286423 27466.251422401285 6.0
  endloop
endfacet
facet normal 0.0 0.0 1.0
  outer loop
    vertex -21996.10014728642 27465.4940630884 6.0
    vertex -22009.100147286423 27466.251422401285 6.0
    vertex -22009.100147286423 27465.4940630884 6.0
  endloop
endfacet
facet normal 0.0 0.0 1.0
  outer loop
    vertex -22009.100147286423 27466.251422401285 6.0
    vertex -21996.10014728642 27465.4940630884 6.0
    vertex -22006.100147286423 27468.4940630884 6.0
  endloop
endfacet
facet normal 0.0 0.0 1.0
  outer loop
    vertex -22006.100147286423 27468.4940630884 6.0
    vertex -21996.10014728642 27465.4940630884 6.0
    vertex -21996.10014728642 27468.4940630884 6.0
  endloop
endfacet
facet normal 0.0 0.0 1.0
  outer loop
    vertex -21961.100147286423 27458.494063088405 6.0
    vertex -21976.100147286423 27448.494063088405 6.0
    vertex -21976.100147286423 27443.4940630884 6.0
  endloop
endfacet
facet normal 0.0 0.0 1.0
  outer loop
    vertex -21976.100147286423 27448.494063088405 6.0
    vertex -21961.100147286423 27458.494063088405 6.0
    vertex -21973.100147286423 27450.736703775525 6.0
  endloop
endfacet
facet normal 0.0 0.0 1.0
  outer loop
    vertex -21973.100147286423 27450.736703775525 6.0
    vertex -21961.100147286423 27458.494063088405 6.0
    vertex -21965.34278797354 27458.494063088405 6.0
  endloop
endfacet
facet normal 0.0 0.0 1.0
  outer loop
    vertex -21973.100147286423 27465.4940630884 6.0
    vertex -21986.100147286423 27468.4940630884 6.0
    vertex -21986.100147286423 27465.4940630884 6.0
  endloop
endfacet
facet normal 0.0 0.0 1.0
  outer loop
    vertex -21986.100147286423 27468.4940630884 6.0
    vertex -21973.100147286423 27465.4940630884 6.0
    vertex -21976.100147286423 27468.4940630884 6.0
  endloop
endfacet
facet normal 0.0 0.0 1.0
  outer loop
    vertex -21976.100147286423 27468.4940630884 6.0
    vertex -21973.100147286423 27465.4940630884 6.0
    vertex -21976.100147286423 27473.494063088405 6.0
  endloop
endfacet
facet normal 0.0 0.0 1.0
  outer loop
    vertex -21976.100147286423 27473.494063088405 6.0
    vertex -21973.100147286423 27465.4940630884 6.0
    vertex -21973.100147286423 27466.251422401285 6.0
  endloop
endfacet
facet normal 0.0 0.0 1.0
  outer loop
    vertex -21976.100147286423 27473.494063088405 6.0
    vertex -21973.100147286423 27466.251422401285 6.0
    vertex -21961.100147286423 27458.494063088405 6.0
  endloop
endfacet
facet normal 0.0 0.0 1.0
  outer loop
    vertex -21961.100147286423 27458.494063088405 6.0
    vertex -21973.100147286423 27466.251422401285 6.0
    vertex -21965.34278797354 27458.494063088405 6.0
  endloop
endfacet
facet normal 0.0 0.0 1.0
  outer loop
    vertex -22006.100147286423 27443.4940630884 6.0
    vertex -22016.857506599306 27458.494063088405 6.0
    vertex -22021.100147286423 27458.494063088405 6.0
  endloop
endfacet
facet normal 0.0 0.0 1.0
  outer loop
    vertex -22016.857506599306 27458.494063088405 6.0
    vertex -22006.100147286423 27443.4940630884 6.0
    vertex -22009.100147286423 27450.736703775525 6.0
  endloop
endfacet
facet normal 0.0 0.0 1.0
  outer loop
    vertex -22009.100147286423 27450.736703775525 6.0
    vertex -22006.100147286423 27443.4940630884 6.0
    vertex -22009.100147286423 27451.494063088405 6.0
  endloop
endfacet
facet normal 0.0 0.0 1.0
  outer loop
    vertex -22009.100147286423 27451.494063088405 6.0
    vertex -22006.100147286423 27443.4940630884 6.0
    vertex -22006.100147286423 27448.494063088405 6.0
  endloop
endfacet
facet normal 0.0 0.0 1.0
  outer loop
    vertex -22009.100147286423 27451.494063088405 6.0
    vertex -22006.100147286423 27448.494063088405 6.0
    vertex -21973.100147286423 27451.494063088405 6.0
  endloop
endfacet
facet normal 0.0 0.0 1.0
  outer loop
    vertex -21973.100147286423 27451.494063088405 6.0
    vertex -22006.100147286423 27448.494063088405 6.0
    vertex -21976.100147286423 27448.494063088405 6.0
  endloop
endfacet
facet normal 0.0 0.0 1.0
  outer loop
    vertex -21973.100147286423 27451.494063088405 6.0
    vertex -21976.100147286423 27448.494063088405 6.0
    vertex -21973.100147286423 27450.736703775525 6.0
  endloop
endfacet
facet normal 0.0 0.0 1.0
  outer loop
    vertex -22016.857506599306 27458.494063088405 6.0
    vertex -22006.100147286423 27473.494063088405 6.0
    vertex -22021.100147286423 27458.494063088405 6.0
  endloop
endfacet
facet normal 0.0 0.0 1.0
  outer loop
    vertex -22006.100147286423 27473.494063088405 6.0
    vertex -22016.857506599306 27458.494063088405 6.0
    vertex -22009.100147286423 27466.251422401285 6.0
  endloop
endfacet
facet normal 0.0 0.0 1.0
  outer loop
    vertex -22006.100147286423 27473.494063088405 6.0
    vertex -22009.100147286423 27466.251422401285 6.0
    vertex -22006.100147286423 27468.4940630884 6.0
  endloop
endfacet
facet normal -1.2635883349315826e-14 4.288207669276819e-14 -1.0
  outer loop
    vertex -22001.10014728642 27485.494063088398 2.4071938886649488e-12
    vertex -21996.100147286423 27478.4940630884 7.049916206369744e-16
    vertex -22001.100147286423 27478.4940630884 2.407076390061509e-12
  endloop
endfacet
facet normal -1.2635883349315826e-14 4.288207669276819e-14 -1.0
  outer loop
    vertex -21996.100147286423 27478.4940630884 7.049916206369744e-16
    vertex -22001.10014728642 27485.494063088398 2.4071938886649488e-12
    vertex -21998.10014728642 27488.494063088398 2.5471347253613884e-12
  endloop
endfacet
facet normal -1.2635883349315826e-14 4.288207669276819e-14 -1.0
  outer loop
    vertex -21996.100147286423 27478.4940630884 7.049916206369744e-16
    vertex -21998.10014728642 27488.494063088398 2.5471347253613884e-12
    vertex -21984.100147286423 27488.494063088398 1.2943646154894848e-12
  endloop
endfacet
facet normal -1.2635883349315826e-14 4.288207669276819e-14 -1.0
  outer loop
    vertex -21996.100147286423 27478.4940630884 7.049916206369744e-16
    vertex -21984.100147286423 27488.494063088398 1.2943646154894848e-12
    vertex -21996.100147286423 27468.4940630884 7.049916206369744e-16
  endloop
endfacet
facet normal -1.2635883349315826e-14 4.288207669276819e-14 -1.0
  outer loop
    vertex -21996.100147286423 27468.4940630884 7.049916206369744e-16
    vertex -21984.100147286423 27488.494063088398 1.2943646154894848e-12
    vertex -21993.031998939 27459.011701178606 4.229949723821846e-15
  endloop
endfacet
facet normal -1.2635883349315826e-14 4.288207669276819e-14 -1.0
  outer loop
    vertex -21996.100147286423 27468.4940630884 7.049916206369744e-16
    vertex -21993.031998939 27459.011701178606 4.229949723821846e-15
    vertex -21993.10014728642 27458.494063088405 4.229949723821846e-15
  endloop
endfacet
facet normal -1.2635883349315826e-14 4.288207669276819e-14 -1.0
  outer loop
    vertex -21993.031998939 27459.011701178606 4.229949723821846e-15
    vertex -21984.100147286423 27488.494063088398 1.2943646154894848e-12
    vertex -21992.83219809399 27459.494063088405 4.229949723821846e-15
  endloop
endfacet
facet normal -1.2635883349315826e-14 4.288207669276819e-14 -1.0
  outer loop
    vertex -21992.83219809399 27459.494063088405 4.229949723821846e-15
    vertex -21984.100147286423 27488.494063088398 1.2943646154894848e-12
    vertex -21992.514360848792 27459.908276650774 4.229949723821846e-15
  endloop
endfacet
facet normal -1.2635883349315826e-14 4.288207669276819e-14 -1.0
  outer loop
    vertex -21992.514360848792 27459.908276650774 4.229949723821846e-15
    vertex -21984.100147286423 27488.494063088398 1.2943646154894848e-12
    vertex -21992.10014728642 27460.22611389597 4.229949723821846e-15
  endloop
endfacet
facet normal -1.2635883349315826e-14 4.288207669276819e-14 -1.0
  outer loop
    vertex -21992.10014728642 27460.22611389597 4.229949723821846e-15
    vertex -21984.100147286423 27488.494063088398 1.2943646154894848e-12
    vertex -21991.617785376628 27460.42591474098 4.229949723821846e-15
  endloop
endfacet
facet normal -1.2635883349315826e-14 4.288207669276819e-14 -1.0
  outer loop
    vertex -21991.617785376628 27460.42591474098 4.229949723821846e-15
    vertex -21984.100147286423 27488.494063088398 1.2943646154894848e-12
    vertex -21991.10014728642 27460.494063088405 4.229949723821846e-15
  endloop
endfacet
facet normal -1.2635883349315826e-14 4.288207669276819e-14 -1.0
  outer loop
    vertex -21991.10014728642 27460.494063088405 4.229949723821846e-15
    vertex -21984.100147286423 27488.494063088398 1.2943646154894848e-12
    vertex -21990.582509196214 27460.42591474098 4.229949723821846e-15
  endloop
endfacet
facet normal -1.2635883349315826e-14 4.288207669276819e-14 -1.0
  outer loop
    vertex -21990.582509196214 27460.42591474098 4.229949723821846e-15
    vertex -21984.100147286423 27488.494063088398 1.2943646154894848e-12
    vertex -21990.100147286423 27460.22611389597 4.229949723821846e-15
  endloop
endfacet
facet normal -1.2635883349315826e-14 4.288207669276819e-14 -1.0
  outer loop
    vertex -21990.100147286423 27460.22611389597 4.229949723821846e-15
    vertex -21984.100147286423 27488.494063088398 1.2943646154894848e-12
    vertex -21986.100147286423 27478.4940630884 1.4099832412739487e-15
  endloop
endfacet
facet normal -1.2635883349315826e-14 4.288207669276819e-14 -1.0
  outer loop
    vertex -21990.100147286423 27460.22611389597 4.229949723821846e-15
    vertex -21986.100147286423 27478.4940630884 1.4099832412739487e-15
    vertex -21989.68593372405 27459.908276650774 4.229949723821846e-15
  endloop
endfacet
facet normal -1.2635883349315826e-14 4.288207669276819e-14 -1.0
  outer loop
    vertex -21989.68593372405 27459.908276650774 4.229949723821846e-15
    vertex -21986.100147286423 27478.4940630884 1.4099832412739487e-15
    vertex -21989.36809647885 27459.494063088405 4.229949723821846e-15
  endloop
endfacet
facet normal -1.2635883349315826e-14 4.288207669276819e-14 -1.0
  outer loop
    vertex -21989.36809647885 27459.494063088405 4.229949723821846e-15
    vertex -21986.100147286423 27478.4940630884 1.4099832412739487e-15
    vertex -21989.16829563384 27459.011701178606 4.229949723821846e-15
  endloop
endfacet
facet normal -1.2635883349315826e-14 4.288207669276819e-14 -1.0
  outer loop
    vertex -21989.16829563384 27459.011701178606 4.229949723821846e-15
    vertex -21986.100147286423 27478.4940630884 1.4099832412739487e-15
    vertex -21989.100147286423 27458.494063088405 4.229949723821846e-15
  endloop
endfacet
facet normal -1.2635883349315826e-14 4.288207669276819e-14 -1.0
  outer loop
    vertex -21986.100147286423 27478.4940630884 1.4099832412739487e-15
    vertex -21984.100147286423 27488.494063088398 1.2943646154894848e-12
    vertex -21981.100147286423 27478.4940630884 1.4099832412739487e-15
  endloop
endfacet
facet normal -1.2635883349315826e-14 4.288207669276819e-14 -1.0
  outer loop
    vertex -21981.100147286423 27478.4940630884 1.4099832412739487e-15
    vertex -21984.100147286423 27488.494063088398 1.2943646154894848e-12
    vertex -21981.100147286423 27485.494063088398 1.2943646154894848e-12
  endloop
endfacet
facet normal -1.2635883349315826e-14 4.288207669276819e-14 -1.0
  outer loop
    vertex -21961.100147286423 27458.494063088405 0.0
    vertex -21976.100147286423 27468.4940630884 0.0
    vertex -21976.100147286423 27473.494063088405 0.0
  endloop
endfacet
facet normal -1.2635883349315826e-14 4.288207669276819e-14 -1.0
  outer loop
    vertex -21976.100147286423 27468.4940630884 0.0
    vertex -21961.100147286423 27458.494063088405 0.0
    vertex -21976.100147286423 27448.494063088405 0.0
  endloop
endfacet
facet normal -1.2635883349315826e-14 4.288207669276819e-14 -1.0
  outer loop
    vertex -21976.100147286423 27448.494063088405 0.0
    vertex -21961.100147286423 27458.494063088405 0.0
    vertex -21976.100147286423 27443.4940630884 0.0
  endloop
endfacet
facet normal -1.2635883349315826e-14 4.288207669276819e-14 -1.0
  outer loop
    vertex -21996.100147286423 27468.4940630884 7.049916206369744e-16
    vertex -22006.100147286423 27448.494063088405 0.0
    vertex -22006.100147286423 27468.4940630884 0.0
  endloop
endfacet
facet normal -1.2635883349315826e-14 4.288207669276819e-14 -1.0
  outer loop
    vertex -22006.100147286423 27448.494063088405 0.0
    vertex -21996.100147286423 27468.4940630884 7.049916206369744e-16
    vertex -21993.031998939 27457.9764249982 4.229949723821846e-15
  endloop
endfacet
facet normal -1.2635883349315826e-14 4.288207669276819e-14 -1.0
  outer loop
    vertex -22006.100147286423 27448.494063088405 0.0
    vertex -21993.031998939 27457.9764249982 4.229949723821846e-15
    vertex -21992.83219809399 27457.494063088405 4.229949723821846e-15
  endloop
endfacet
facet normal -1.2635883349315826e-14 4.288207669276819e-14 -1.0
  outer loop
    vertex -22006.100147286423 27448.494063088405 0.0
    vertex -21992.83219809399 27457.494063088405 4.229949723821846e-15
    vertex -21992.514360848792 27457.07984952603 4.229949723821846e-15
  endloop
endfacet
facet normal -1.2635883349315826e-14 4.288207669276819e-14 -1.0
  outer loop
    vertex -22006.100147286423 27448.494063088405 0.0
    vertex -21992.514360848792 27457.07984952603 4.229949723821846e-15
    vertex -21992.10014728642 27456.762012280837 4.229949723821846e-15
  endloop
endfacet
facet normal -1.2635883349315826e-14 4.288207669276819e-14 -1.0
  outer loop
    vertex -22006.100147286423 27448.494063088405 0.0
    vertex -21992.10014728642 27456.762012280837 4.229949723821846e-15
    vertex -21976.100147286423 27448.494063088405 0.0
  endloop
endfacet
facet normal -1.2635883349315826e-14 4.288207669276819e-14 -1.0
  outer loop
    vertex -21993.031998939 27457.9764249982 4.229949723821846e-15
    vertex -21996.100147286423 27468.4940630884 7.049916206369744e-16
    vertex -21993.10014728642 27458.494063088405 4.229949723821846e-15
  endloop
endfacet
facet normal -1.2635883349315826e-14 4.288207669276819e-14 -1.0
  outer loop
    vertex -21976.100147286423 27448.494063088405 0.0
    vertex -21992.10014728642 27456.762012280837 4.229949723821846e-15
    vertex -21991.617785376628 27456.56221143583 4.229949723821846e-15
  endloop
endfacet
facet normal -1.2635883349315826e-14 4.288207669276819e-14 -1.0
  outer loop
    vertex -21976.100147286423 27448.494063088405 0.0
    vertex -21991.617785376628 27456.56221143583 4.229949723821846e-15
    vertex -21991.10014728642 27456.494063088405 4.229949723821846e-15
  endloop
endfacet
facet normal -1.2635883349315826e-14 4.288207669276819e-14 -1.0
  outer loop
    vertex -21976.100147286423 27448.494063088405 0.0
    vertex -21991.10014728642 27456.494063088405 4.229949723821846e-15
    vertex -21990.582509196214 27456.56221143583 4.229949723821846e-15
  endloop
endfacet
facet normal -1.2635883349315826e-14 4.288207669276819e-14 -1.0
  outer loop
    vertex -21976.100147286423 27448.494063088405 0.0
    vertex -21990.582509196214 27456.56221143583 4.229949723821846e-15
    vertex -21990.100147286423 27456.762012280837 4.229949723821846e-15
  endloop
endfacet
facet normal -1.2635883349315826e-14 4.288207669276819e-14 -1.0
  outer loop
    vertex -21976.100147286423 27448.494063088405 0.0
    vertex -21990.100147286423 27456.762012280837 4.229949723821846e-15
    vertex -21989.68593372405 27457.07984952603 4.229949723821846e-15
  endloop
endfacet
facet normal -1.2635883349315826e-14 4.288207669276819e-14 -1.0
  outer loop
    vertex -21976.100147286423 27448.494063088405 0.0
    vertex -21989.68593372405 27457.07984952603 4.229949723821846e-15
    vertex -21989.36809647885 27457.494063088405 4.229949723821846e-15
  endloop
endfacet
facet normal -1.2635883349315826e-14 4.288207669276819e-14 -1.0
  outer loop
    vertex -21976.100147286423 27448.494063088405 0.0
    vertex -21989.36809647885 27457.494063088405 4.229949723821846e-15
    vertex -21989.16829563384 27457.9764249982 4.229949723821846e-15
  endloop
endfacet
facet normal -1.2635883349315826e-14 4.288207669276819e-14 -1.0
  outer loop
    vertex -21976.100147286423 27448.494063088405 0.0
    vertex -21989.16829563384 27457.9764249982 4.229949723821846e-15
    vertex -21989.100147286423 27458.494063088405 4.229949723821846e-15
  endloop
endfacet
facet normal -1.2635883349315826e-14 4.288207669276819e-14 -1.0
  outer loop
    vertex -21976.100147286423 27448.494063088405 0.0
    vertex -21989.100147286423 27458.494063088405 4.229949723821846e-15
    vertex -21986.100147286423 27468.4940630884 1.4099832412739487e-15
  endloop
endfacet
facet normal -1.2635883349315826e-14 4.288207669276819e-14 -1.0
  outer loop
    vertex -21986.100147286423 27468.4940630884 1.4099832412739487e-15
    vertex -21989.100147286423 27458.494063088405 4.229949723821846e-15
    vertex -21986.100147286423 27478.4940630884 1.4099832412739487e-15
  endloop
endfacet
facet normal -1.2635883349315826e-14 4.288207669276819e-14 -1.0
  outer loop
    vertex -21976.100147286423 27448.494063088405 0.0
    vertex -21986.100147286423 27468.4940630884 1.4099832412739487e-15
    vertex -21976.100147286423 27468.4940630884 0.0
  endloop
endfacet
facet normal -1.2635883349315826e-14 4.288207669276819e-14 -1.0
  outer loop
    vertex -22006.100147286423 27473.494063088405 0.0
    vertex -22006.100147286423 27443.4940630884 0.0
    vertex -22021.100147286423 27458.494063088405 0.0
  endloop
endfacet
facet normal -1.2635883349315826e-14 4.288207669276819e-14 -1.0
  outer loop
    vertex -22006.100147286423 27443.4940630884 0.0
    vertex -22006.100147286423 27473.494063088405 0.0
    vertex -22006.100147286423 27468.4940630884 0.0
  endloop
endfacet
facet normal -1.2635883349315826e-14 4.288207669276819e-14 -1.0
  outer loop
    vertex -22006.100147286423 27443.4940630884 0.0
    vertex -22006.100147286423 27468.4940630884 0.0
    vertex -22006.100147286423 27448.494063088405 0.0
  endloop
endfacet
facet normal 1.0 0.0 0.0
  outer loop
    vertex -21973.100147286423 27451.494063088405 3.0
    vertex -21973.100147286423 27450.736703775525 6.0
    vertex -21973.100147286423 27450.736703775525 3.0
  endloop
endfacet
facet normal 1.0 0.0 0.0
  outer loop
    vertex -21973.100147286423 27450.736703775525 6.0
    vertex -21973.100147286423 27451.494063088405 3.0
    vertex -21973.100147286423 27451.494063088405 6.0
  endloop
endfacet
facet normal 0.0 1.0 0.0
  outer loop
    vertex -22009.100147286423 27451.494063088405 6.0
    vertex -21973.100147286423 27451.494063088405 3.0
    vertex -22009.100147286423 27451.494063088405 3.0
  endloop
endfacet
facet normal 0.0 1.0 0.0
  outer loop
    vertex -21973.100147286423 27451.494063088405 3.0
    vertex -22009.100147286423 27451.494063088405 6.0
    vertex -21973.100147286423 27451.494063088405 6.0
  endloop
endfacet
facet normal -1.0 -0.0 -0.0
  outer loop
    vertex -22009.100147286423 27466.251422401285 6.0
    vertex -22009.100147286423 27465.4940630884 3.0
    vertex -22009.100147286423 27465.4940630884 6.0
  endloop
endfacet
facet normal -1.0 -0.0 -0.0
  outer loop
    vertex -22009.100147286423 27465.4940630884 3.0
    vertex -22009.100147286423 27466.251422401285 6.0
    vertex -22009.100147286423 27466.251422401285 3.0
  endloop
endfacet
facet normal -1.0 -0.0 -0.0
  outer loop
    vertex -22009.100147286423 27451.494063088405 6.0
    vertex -22009.100147286423 27450.736703775525 3.0
    vertex -22009.100147286423 27450.736703775525 6.0
  endloop
endfacet
facet normal -1.0 -0.0 -0.0
  outer loop
    vertex -22009.100147286423 27450.736703775525 3.0
    vertex -22009.100147286423 27451.494063088405 6.0
    vertex -22009.100147286423 27451.494063088405 3.0
  endloop
endfacet
facet normal 0.707106781186416 -0.7071067811866791 0.0
  outer loop
    vertex -22009.100147286423 27466.251422401285 6.0
    vertex -22016.857506599306 27458.494063088405 3.0
    vertex -22009.100147286423 27466.251422401285 3.0
  endloop
endfacet
facet normal 0.707106781186416 -0.7071067811866791 0.0
  outer loop
    vertex -22016.857506599306 27458.494063088405 3.0
    vertex -22009.100147286423 27466.251422401285 6.0
    vertex -22016.857506599306 27458.494063088405 6.0
  endloop
endfacet
facet normal 0.0 -1.0 0.0
  outer loop
    vertex -21996.10014728642 27465.4940630884 3.0000000000000013
    vertex -22009.100147286423 27465.4940630884 6.0
    vertex -22009.100147286423 27465.4940630884 3.0
  endloop
endfacet
facet normal 0.0 -1.0 0.0
  outer loop
    vertex -22009.100147286423 27465.4940630884 6.0
    vertex -21996.10014728642 27465.4940630884 3.0000000000000013
    vertex -21996.10014728642 27465.4940630884 6.0
  endloop
endfacet
facet normal 0.707106781186416 0.7071067811866791 0.0
  outer loop
    vertex -22016.857506599306 27458.494063088405 6.0
    vertex -22009.100147286423 27450.736703775525 3.0
    vertex -22016.857506599306 27458.494063088405 3.0
  endloop
endfacet
facet normal 0.707106781186416 0.7071067811866791 0.0
  outer loop
    vertex -22009.100147286423 27450.736703775525 3.0
    vertex -22016.857506599306 27458.494063088405 6.0
    vertex -22009.100147286423 27450.736703775525 6.0
  endloop
endfacet
facet normal 1.0 0.0 0.0
  outer loop
    vertex -22006.100147286423 27448.494063088405 0.0
    vertex -22006.100147286423 27443.4940630884 6.0
    vertex -22006.100147286423 27443.4940630884 0.0
  endloop
endfacet
facet normal 1.0 0.0 0.0
  outer loop
    vertex -22006.100147286423 27443.4940630884 6.0
    vertex -22006.100147286423 27448.494063088405 0.0
    vertex -22006.100147286423 27448.494063088405 6.0
  endloop
endfacet
facet normal -0.0 -1.0 -0.0
  outer loop
    vertex -21976.100147286423 27448.494063088405 6.0
    vertex -22006.100147286423 27448.494063088405 0.0
    vertex -21976.100147286423 27448.494063088405 0.0
  endloop
endfacet
facet normal -0.0 -1.0 -0.0
  outer loop
    vertex -22006.100147286423 27448.494063088405 0.0
    vertex -21976.100147286423 27448.494063088405 6.0
    vertex -22006.100147286423 27448.494063088405 6.0
  endloop
endfacet
facet normal 0.0 1.0 0.0
  outer loop
    vertex -22006.100147286423 27468.4940630884 6.0
    vertex -21996.100147286423 27468.4940630884 7.049916206369744e-16
    vertex -22006.100147286423 27468.4940630884 0.0
  endloop
endfacet
facet normal 0.0 1.0 0.0
  outer loop
    vertex -21996.100147286423 27468.4940630884 7.049916206369744e-16
    vertex -22006.100147286423 27468.4940630884 6.0
    vertex -21996.10014728642 27468.4940630884 3.0000000000000013
  endloop
endfacet
facet normal 0.0 1.0 0.0
  outer loop
    vertex -21996.10014728642 27468.4940630884 3.0000000000000013
    vertex -22006.100147286423 27468.4940630884 6.0
    vertex -21996.10014728642 27468.4940630884 6.0
  endloop
endfacet
facet normal -1.0 0.0 0.0
  outer loop
    vertex -21976.100147286423 27473.494063088405 6.0
    vertex -21976.100147286423 27468.4940630884 0.0
    vertex -21976.100147286423 27468.4940630884 6.0
  endloop
endfacet
facet normal -1.0 0.0 0.0
  outer loop
    vertex -21976.100147286423 27468.4940630884 0.0
    vertex -21976.100147286423 27473.494063088405 6.0
    vertex -21976.100147286423 27473.494063088405 0.0
  endloop
endfacet
facet normal 0.7071067811866156 -0.7071067811864794 0.0
  outer loop
    vertex -21961.100147286423 27458.494063088405 0.0
    vertex -21976.100147286423 27443.4940630884 6.0
    vertex -21976.100147286423 27443.4940630884 0.0
  endloop
endfacet
facet normal 0.7071067811866156 -0.7071067811864794 0.0
  outer loop
    vertex -21976.100147286423 27443.4940630884 6.0
    vertex -21961.100147286423 27458.494063088405 0.0
    vertex -21961.100147286423 27458.494063088405 6.0
  endloop
endfacet
facet normal -0.7071067811866156 -0.7071067811864794 -0.0
  outer loop
    vertex -22021.100147286423 27458.494063088405 6.0
    vertex -22006.100147286423 27443.4940630884 0.0
    vertex -22006.100147286423 27443.4940630884 6.0
  endloop
endfacet
facet normal -0.7071067811866156 -0.7071067811864794 -0.0
  outer loop
    vertex -22006.100147286423 27443.4940630884 0.0
    vertex -22021.100147286423 27458.494063088405 6.0
    vertex -22021.100147286423 27458.494063088405 0.0
  endloop
endfacet
facet normal -1.0 0.0 0.0
  outer loop
    vertex -21976.100147286423 27448.494063088405 6.0
    vertex -21976.100147286423 27443.4940630884 0.0
    vertex -21976.100147286423 27443.4940630884 6.0
  endloop
endfacet
facet normal -1.0 0.0 0.0
  outer loop
    vertex -21976.100147286423 27443.4940630884 0.0
    vertex -21976.100147286423 27448.494063088405 6.0
    vertex -21976.100147286423 27448.494063088405 0.0
  endloop
endfacet
facet normal -0.7071067811866156 0.7071067811864794 0.0
  outer loop
    vertex -22006.100147286423 27473.494063088405 6.0
    vertex -22021.100147286423 27458.494063088405 0.0
    vertex -22021.100147286423 27458.494063088405 6.0
  endloop
endfacet
facet normal -0.7071067811866156 0.7071067811864794 0.0
  outer loop
    vertex -22021.100147286423 27458.494063088405 0.0
    vertex -22006.100147286423 27473.494063088405 6.0
    vertex -22006.100147286423 27473.494063088405 0.0
  endloop
endfacet
facet normal 1.0 0.0 0.0
  outer loop
    vertex -22006.100147286423 27473.494063088405 0.0
    vertex -22006.100147286423 27468.4940630884 6.0
    vertex -22006.100147286423 27468.4940630884 0.0
  endloop
endfacet
facet normal 1.0 0.0 0.0
  outer loop
    vertex -22006.100147286423 27468.4940630884 6.0
    vertex -22006.100147286423 27473.494063088405 0.0
    vertex -22006.100147286423 27473.494063088405 6.0
  endloop
endfacet
facet normal 0.7071067811866156 0.7071067811864794 0.0
  outer loop
    vertex -21976.100147286423 27473.494063088405 0.0
    vertex -21961.100147286423 27458.494063088405 6.0
    vertex -21961.100147286423 27458.494063088405 0.0
  endloop
endfacet
facet normal 0.7071067811866156 0.7071067811864794 0.0
  outer loop
    vertex -21961.100147286423 27458.494063088405 6.0
    vertex -21976.100147286423 27473.494063088405 0.0
    vertex -21976.100147286423 27473.494063088405 6.0
  endloop
endfacet
facet normal -0.7071067811865477 0.7071067811865475 2.1982657349384332e-17
  outer loop
    vertex -21998.10014728642 27488.494063088398 3.000000000002408
    vertex -22001.10014728642 27485.494063088398 2.4071938886649488e-12
    vertex -22001.10014728642 27485.494063088398 3.000000000002268
  endloop
endfacet
facet normal -0.7071067811865477 0.7071067811865475 2.1982657349384332e-17
  outer loop
    vertex -22001.10014728642 27485.494063088398 2.4071938886649488e-12
    vertex -21998.10014728642 27488.494063088398 3.000000000002408
    vertex -21998.10014728642 27488.494063088398 2.5471347253613884e-12
  endloop
endfacet
facet normal 0.7071067811865476 0.7071067811865476 0.0
  outer loop
    vertex -21984.100147286423 27488.494063088398 1.2943646154894848e-12
    vertex -21981.100147286423 27485.494063088398 3.0000000000000013
    vertex -21981.100147286423 27485.494063088398 1.2943646154894848e-12
  endloop
endfacet
facet normal 0.7071067811865476 0.7071067811865476 0.0
  outer loop
    vertex -21981.100147286423 27485.494063088398 3.0000000000000013
    vertex -21984.100147286423 27488.494063088398 1.2943646154894848e-12
    vertex -21984.100147286423 27488.494063088398 3.0000000000000013
  endloop
endfacet
facet normal 0.9238795325120611 -0.38268343236322044 0.0
  outer loop
    vertex -21992.83219809399 27459.494063088405 4.229949723821846e-15
    vertex -21993.031998939 27459.011701178606 3.0
    vertex -21993.031998939 27459.011701178606 4.229949723821846e-15
  endloop
endfacet
facet normal 0.9238795325120611 -0.38268343236322044 0.0
  outer loop
    vertex -21993.031998939 27459.011701178606 3.0
    vertex -21992.83219809399 27459.494063088405 4.229949723821846e-15
    vertex -21992.83219809399 27459.494063088405 3.0
  endloop
endfacet
facet normal 0.3826834323651758 0.9238795325112511 0.0
  outer loop
    vertex -21992.10014728642 27456.762012280837 3.0
    vertex -21991.617785376628 27456.56221143583 4.229949723821846e-15
    vertex -21992.10014728642 27456.762012280837 4.229949723821846e-15
  endloop
endfacet
facet normal 0.3826834323651758 0.9238795325112511 0.0
  outer loop
    vertex -21991.617785376628 27456.56221143583 4.229949723821846e-15
    vertex -21992.10014728642 27456.762012280837 3.0
    vertex -21991.617785376628 27456.56221143583 3.0
  endloop
endfacet
facet normal -0.6087614290078857 0.7933533402918759 0.0
  outer loop
    vertex -21990.100147286423 27456.762012280837 3.0
    vertex -21989.68593372405 27457.07984952603 4.229949723821846e-15
    vertex -21990.100147286423 27456.762012280837 4.229949723821846e-15
  endloop
endfacet
facet normal -0.6087614290078857 0.7933533402918759 0.0
  outer loop
    vertex -21989.68593372405 27457.07984952603 4.229949723821846e-15
    vertex -21990.100147286423 27456.762012280837 3.0
    vertex -21989.68593372405 27457.07984952603 3.0
  endloop
endfacet
facet normal 0.7933533402892049 -0.6087614290113668 0.0
  outer loop
    vertex -21992.514360848792 27459.908276650774 4.229949723821846e-15
    vertex -21992.83219809399 27459.494063088405 3.0
    vertex -21992.83219809399 27459.494063088405 4.229949723821846e-15
  endloop
endfacet
facet normal 0.7933533402892049 -0.6087614290113668 0.0
  outer loop
    vertex -21992.83219809399 27459.494063088405 3.0
    vertex -21992.514360848792 27459.908276650774 4.229949723821846e-15
    vertex -21992.514360848792 27459.908276650774 3.0
  endloop
endfacet
facet normal 0.9238795325120611 0.38268343236322044 0.0
  outer loop
    vertex -21993.031998939 27457.9764249982 4.229949723821846e-15
    vertex -21992.83219809399 27457.494063088405 3.0
    vertex -21992.83219809399 27457.494063088405 4.229949723821846e-15
  endloop
endfacet
facet normal 0.9238795325120611 0.38268343236322044 0.0
  outer loop
    vertex -21992.83219809399 27457.494063088405 3.0
    vertex -21993.031998939 27457.9764249982 4.229949723821846e-15
    vertex -21993.031998939 27457.9764249982 3.0
  endloop
endfacet
facet normal 0.991444861373895 0.13052619221940942 0.0
  outer loop
    vertex -21993.10014728642 27458.494063088405 4.229949723821846e-15
    vertex -21993.031998939 27457.9764249982 3.0
    vertex -21993.031998939 27457.9764249982 4.229949723821846e-15
  endloop
endfacet
facet normal 0.991444861373895 0.13052619221940942 0.0
  outer loop
    vertex -21993.031998939 27457.9764249982 3.0
    vertex -21993.10014728642 27458.494063088405 4.229949723821846e-15
    vertex -21993.10014728642 27458.494063088405 3.0
  endloop
endfacet
facet normal -0.991444861373895 0.13052619221940942 0.0
  outer loop
    vertex -21989.100147286423 27458.494063088405 3.0
    vertex -21989.16829563384 27457.9764249982 4.229949723821846e-15
    vertex -21989.16829563384 27457.9764249982 3.0
  endloop
endfacet
facet normal -0.991444861373895 0.13052619221940942 0.0
  outer loop
    vertex -21989.16829563384 27457.9764249982 4.229949723821846e-15
    vertex -21989.100147286423 27458.494063088405 3.0
    vertex -21989.100147286423 27458.494063088405 4.229949723821846e-15
  endloop
endfacet
facet normal -0.991444861373895 -0.13052619221940942 -0.0
  outer loop
    vertex -21989.16829563384 27459.011701178606 3.0
    vertex -21989.100147286423 27458.494063088405 4.229949723821846e-15
    vertex -21989.100147286423 27458.494063088405 3.0
  endloop
endfacet
facet normal -0.991444861373895 -0.13052619221940942 -0.0
  outer loop
    vertex -21989.100147286423 27458.494063088405 4.229949723821846e-15
    vertex -21989.16829563384 27459.011701178606 3.0
    vertex -21989.16829563384 27459.011701178606 4.229949723821846e-15
  endloop
endfacet
facet normal 0.991444861373895 -0.13052619221940942 0.0
  outer loop
    vertex -21993.031998939 27459.011701178606 4.229949723821846e-15
    vertex -21993.10014728642 27458.494063088405 3.0
    vertex -21993.10014728642 27458.494063088405 4.229949723821846e-15
  endloop
endfacet
facet normal 0.991444861373895 -0.13052619221940942 0.0
  outer loop
    vertex -21993.10014728642 27458.494063088405 3.0
    vertex -21993.031998939 27459.011701178606 4.229949723821846e-15
    vertex -21993.031998939 27459.011701178606 3.0
  endloop
endfacet
facet normal -0.13052619222413026 0.9914448613732735 0.0
  outer loop
    vertex -21991.10014728642 27456.494063088405 3.0
    vertex -21990.582509196214 27456.56221143583 4.229949723821846e-15
    vertex -21991.10014728642 27456.494063088405 4.229949723821846e-15
  endloop
endfacet
facet normal -0.13052619222413026 0.9914448613732735 0.0
  outer loop
    vertex -21990.582509196214 27456.56221143583 4.229949723821846e-15
    vertex -21991.10014728642 27456.494063088405 3.0
    vertex -21990.582509196214 27456.56221143583 3.0
  endloop
endfacet
facet normal -0.3826834323651758 0.9238795325112511 0.0
  outer loop
    vertex -21990.582509196214 27456.56221143583 3.0
    vertex -21990.100147286423 27456.762012280837 4.229949723821846e-15
    vertex -21990.582509196214 27456.56221143583 4.229949723821846e-15
  endloop
endfacet
facet normal -0.3826834323651758 0.9238795325112511 0.0
  outer loop
    vertex -21990.100147286423 27456.762012280837 4.229949723821846e-15
    vertex -21990.582509196214 27456.56221143583 3.0
    vertex -21990.100147286423 27456.762012280837 3.0
  endloop
endfacet
facet normal -0.9238795325120611 -0.38268343236322044 -0.0
  outer loop
    vertex -21989.36809647885 27459.494063088405 3.0
    vertex -21989.16829563384 27459.011701178606 4.229949723821846e-15
    vertex -21989.16829563384 27459.011701178606 3.0
  endloop
endfacet
facet normal -0.9238795325120611 -0.38268343236322044 -0.0
  outer loop
    vertex -21989.16829563384 27459.011701178606 4.229949723821846e-15
    vertex -21989.36809647885 27459.494063088405 3.0
    vertex -21989.36809647885 27459.494063088405 4.229949723821846e-15
  endloop
endfacet
facet normal -0.7933533402892049 -0.6087614290113668 -0.0
  outer loop
    vertex -21989.68593372405 27459.908276650774 3.0
    vertex -21989.36809647885 27459.494063088405 4.229949723821846e-15
    vertex -21989.36809647885 27459.494063088405 3.0
  endloop
endfacet
facet normal -0.7933533402892049 -0.6087614290113668 -0.0
  outer loop
    vertex -21989.36809647885 27459.494063088405 4.229949723821846e-15
    vertex -21989.68593372405 27459.908276650774 3.0
    vertex -21989.68593372405 27459.908276650774 4.229949723821846e-15
  endloop
endfacet
facet normal -0.6087614290078857 -0.7933533402918759 -0.0
  outer loop
    vertex -21989.68593372405 27459.908276650774 3.0
    vertex -21990.100147286423 27460.22611389597 4.229949723821846e-15
    vertex -21989.68593372405 27459.908276650774 4.229949723821846e-15
  endloop
endfacet
facet normal -0.6087614290078857 -0.7933533402918759 -0.0
  outer loop
    vertex -21990.100147286423 27460.22611389597 4.229949723821846e-15
    vertex -21989.68593372405 27459.908276650774 3.0
    vertex -21990.100147286423 27460.22611389597 3.0
  endloop
endfacet
facet normal -0.9238795325120611 0.38268343236322044 0.0
  outer loop
    vertex -21989.16829563384 27457.9764249982 3.0
    vertex -21989.36809647885 27457.494063088405 4.229949723821846e-15
    vertex -21989.36809647885 27457.494063088405 3.0
  endloop
endfacet
facet normal -0.9238795325120611 0.38268343236322044 0.0
  outer loop
    vertex -21989.36809647885 27457.494063088405 4.229949723821846e-15
    vertex -21989.16829563384 27457.9764249982 3.0
    vertex -21989.16829563384 27457.9764249982 4.229949723821846e-15
  endloop
endfacet
facet normal 0.7933533402892049 0.6087614290113668 0.0
  outer loop
    vertex -21992.83219809399 27457.494063088405 4.229949723821846e-15
    vertex -21992.514360848792 27457.07984952603 3.0
    vertex -21992.514360848792 27457.07984952603 4.229949723821846e-15
  endloop
endfacet
facet normal 0.7933533402892049 0.6087614290113668 0.0
  outer loop
    vertex -21992.514360848792 27457.07984952603 3.0
    vertex -21992.83219809399 27457.494063088405 4.229949723821846e-15
    vertex -21992.83219809399 27457.494063088405 3.0
  endloop
endfacet
facet normal -0.7933533402892049 0.6087614290113668 0.0
  outer loop
    vertex -21989.36809647885 27457.494063088405 3.0
    vertex -21989.68593372405 27457.07984952603 4.229949723821846e-15
    vertex -21989.68593372405 27457.07984952603 3.0
  endloop
endfacet
facet normal -0.7933533402892049 0.6087614290113668 0.0
  outer loop
    vertex -21989.68593372405 27457.07984952603 4.229949723821846e-15
    vertex -21989.36809647885 27457.494063088405 3.0
    vertex -21989.36809647885 27457.494063088405 4.229949723821846e-15
  endloop
endfacet
facet normal 0.6087614290078857 -0.7933533402918759 0.0
  outer loop
    vertex -21992.10014728642 27460.22611389597 3.0
    vertex -21992.514360848792 27459.908276650774 4.229949723821846e-15
    vertex -21992.10014728642 27460.22611389597 4.229949723821846e-15
  endloop
endfacet
facet normal 0.6087614290078857 -0.7933533402918759 0.0
  outer loop
    vertex -21992.514360848792 27459.908276650774 4.229949723821846e-15
    vertex -21992.10014728642 27460.22611389597 3.0
    vertex -21992.514360848792 27459.908276650774 3.0
  endloop
endfacet
facet normal -0.3826834323651758 -0.9238795325112511 -0.0
  outer loop
    vertex -21990.100147286423 27460.22611389597 3.0
    vertex -21990.582509196214 27460.42591474098 4.229949723821846e-15
    vertex -21990.100147286423 27460.22611389597 4.229949723821846e-15
  endloop
endfacet
facet normal -0.3826834323651758 -0.9238795325112511 -0.0
  outer loop
    vertex -21990.582509196214 27460.42591474098 4.229949723821846e-15
    vertex -21990.100147286423 27460.22611389597 3.0
    vertex -21990.582509196214 27460.42591474098 3.0
  endloop
endfacet
facet normal 0.3826834323651758 -0.9238795325112511 0.0
  outer loop
    vertex -21991.617785376628 27460.42591474098 3.0
    vertex -21992.10014728642 27460.22611389597 4.229949723821846e-15
    vertex -21991.617785376628 27460.42591474098 4.229949723821846e-15
  endloop
endfacet
facet normal 0.3826834323651758 -0.9238795325112511 0.0
  outer loop
    vertex -21992.10014728642 27460.22611389597 4.229949723821846e-15
    vertex -21991.617785376628 27460.42591474098 3.0
    vertex -21992.10014728642 27460.22611389597 3.0
  endloop
endfacet
facet normal -0.13052619222413026 -0.9914448613732735 -0.0
  outer loop
    vertex -21990.582509196214 27460.42591474098 3.0
    vertex -21991.10014728642 27460.494063088405 4.229949723821846e-15
    vertex -21990.582509196214 27460.42591474098 4.229949723821846e-15
  endloop
endfacet
facet normal -0.13052619222413026 -0.9914448613732735 -0.0
  outer loop
    vertex -21991.10014728642 27460.494063088405 4.229949723821846e-15
    vertex -21990.582509196214 27460.42591474098 3.0
    vertex -21991.10014728642 27460.494063088405 3.0
  endloop
endfacet
facet normal 0.13052619222413026 -0.9914448613732735 0.0
  outer loop
    vertex -21991.10014728642 27460.494063088405 3.0
    vertex -21991.617785376628 27460.42591474098 4.229949723821846e-15
    vertex -21991.10014728642 27460.494063088405 4.229949723821846e-15
  endloop
endfacet
facet normal 0.13052619222413026 -0.9914448613732735 0.0
  outer loop
    vertex -21991.617785376628 27460.42591474098 4.229949723821846e-15
    vertex -21991.10014728642 27460.494063088405 3.0
    vertex -21991.617785376628 27460.42591474098 3.0
  endloop
endfacet
facet normal 0.6087614290078857 0.7933533402918759 0.0
  outer loop
    vertex -21992.514360848792 27457.07984952603 3.0
    vertex -21992.10014728642 27456.762012280837 4.229949723821846e-15
    vertex -21992.514360848792 27457.07984952603 4.229949723821846e-15
  endloop
endfacet
facet normal 0.6087614290078857 0.7933533402918759 0.0
  outer loop
    vertex -21992.10014728642 27456.762012280837 4.229949723821846e-15
    vertex -21992.514360848792 27457.07984952603 3.0
    vertex -21992.10014728642 27456.762012280837 3.0
  endloop
endfacet
facet normal 0.13052619222413026 0.9914448613732735 0.0
  outer loop
    vertex -21991.617785376628 27456.56221143583 3.0
    vertex -21991.10014728642 27456.494063088405 4.229949723821846e-15
    vertex -21991.617785376628 27456.56221143583 4.229949723821846e-15
  endloop
endfacet
facet normal 0.13052619222413026 0.9914448613732735 0.0
  outer loop
    vertex -21991.10014728642 27456.494063088405 4.229949723821846e-15
    vertex -21991.617785376628 27456.56221143583 3.0
    vertex -21991.10014728642 27456.494063088405 3.0
  endloop
endfacet
facet normal 0.0 -1.0 0.0
  outer loop
    vertex -21973.100147286423 27465.4940630884 6.0
    vertex -21986.100147286423 27465.4940630884 3.0000000000000013
    vertex -21973.100147286423 27465.4940630884 3.0
  endloop
endfacet
facet normal 0.0 -1.0 0.0
  outer loop
    vertex -21986.100147286423 27465.4940630884 3.0000000000000013
    vertex -21973.100147286423 27465.4940630884 6.0
    vertex -21986.100147286423 27465.4940630884 6.0
  endloop
endfacet
facet normal -1.0 0.0 0.0
  outer loop
    vertex -21986.100147286423 27468.4940630884 6.0
    vertex -21986.100147286423 27465.4940630884 3.0000000000000013
    vertex -21986.100147286423 27465.4940630884 6.0
  endloop
endfacet
facet normal -1.0 0.0 0.0
  outer loop
    vertex -21986.100147286423 27465.4940630884 3.0000000000000013
    vertex -21986.100147286423 27468.4940630884 6.0
    vertex -21986.100147286423 27468.4940630884 3.0000000000000013
  endloop
endfacet
facet normal 1.0 0.0 0.0
  outer loop
    vertex -21996.10014728642 27468.4940630884 3.0000000000000013
    vertex -21996.10014728642 27465.4940630884 6.0
    vertex -21996.10014728642 27465.4940630884 3.0000000000000013
  endloop
endfacet
facet normal 1.0 0.0 0.0
  outer loop
    vertex -21996.10014728642 27465.4940630884 6.0
    vertex -21996.10014728642 27468.4940630884 3.0000000000000013
    vertex -21996.10014728642 27468.4940630884 6.0
  endloop
endfacet
facet normal 0.0 1.0 0.0
  outer loop
    vertex -21986.100147286423 27468.4940630884 1.4099832412739487e-15
    vertex -21976.100147286423 27468.4940630884 6.0
    vertex -21976.100147286423 27468.4940630884 0.0
  endloop
endfacet
facet normal 0.0 1.0 0.0
  outer loop
    vertex -21976.100147286423 27468.4940630884 6.0
    vertex -21986.100147286423 27468.4940630884 1.4099832412739487e-15
    vertex -21986.100147286423 27468.4940630884 3.0000000000000013
  endloop
endfacet
facet normal 0.0 1.0 0.0
  outer loop
    vertex -21976.100147286423 27468.4940630884 6.0
    vertex -21986.100147286423 27468.4940630884 3.0000000000000013
    vertex -21986.100147286423 27468.4940630884 6.0
  endloop
endfacet
facet normal -0.0 -1.0 -0.0
  outer loop
    vertex -21981.100147286423 27478.4940630884 3.0000000000000013
    vertex -21986.100147286423 27478.4940630884 1.4099832412739487e-15
    vertex -21981.100147286423 27478.4940630884 1.4099832412739487e-15
  endloop
endfacet
facet normal -0.0 -1.0 -0.0
  outer loop
    vertex -21986.100147286423 27478.4940630884 1.4099832412739487e-15
    vertex -21981.100147286423 27478.4940630884 3.0000000000000013
    vertex -21986.100147286423 27478.4940630884 3.0000000000000013
  endloop
endfacet
facet normal 0.0 1.0 0.0
  outer loop
    vertex -21998.10014728642 27488.494063088398 2.5471347253613884e-12
    vertex -21984.100147286423 27488.494063088398 3.0000000000000013
    vertex -21984.100147286423 27488.494063088398 1.2943646154894848e-12
  endloop
endfacet
facet normal 0.0 1.0 0.0
  outer loop
    vertex -21984.100147286423 27488.494063088398 3.0000000000000013
    vertex -21998.10014728642 27488.494063088398 2.5471347253613884e-12
    vertex -21998.10014728642 27488.494063088398 3.000000000002408
  endloop
endfacet
facet normal 1.0 0.0 0.0
  outer loop
    vertex -21981.100147286423 27485.494063088398 1.2943646154894848e-12
    vertex -21981.100147286423 27478.4940630884 3.0000000000000013
    vertex -21981.100147286423 27478.4940630884 1.4099832412739487e-15
  endloop
endfacet
facet normal 1.0 0.0 0.0
  outer loop
    vertex -21981.100147286423 27478.4940630884 3.0000000000000013
    vertex -21981.100147286423 27485.494063088398 1.2943646154894848e-12
    vertex -21981.100147286423 27485.494063088398 3.0000000000000013
  endloop
endfacet
facet normal -1.0 -1.4438228390648518e-13 4.812742796881744e-13
  outer loop
    vertex -21996.100147286423 27478.4940630884 3.0000000000000004
    vertex -21996.100147286423 27468.4940630884 7.049916206369744e-16
    vertex -21996.10014728642 27468.4940630884 3.0000000000000013
  endloop
endfacet
facet normal -1.0 -1.4438228390648518e-13 4.812742796881744e-13
  outer loop
    vertex -21996.100147286423 27468.4940630884 7.049916206369744e-16
    vertex -21996.100147286423 27478.4940630884 3.0000000000000004
    vertex -21996.100147286423 27478.4940630884 7.049916206369744e-16
  endloop
endfacet
facet normal 1.0 0.0 0.0
  outer loop
    vertex -21986.100147286423 27478.4940630884 1.4099832412739487e-15
    vertex -21986.100147286423 27468.4940630884 3.0000000000000013
    vertex -21986.100147286423 27468.4940630884 1.4099832412739487e-15
  endloop
endfacet
facet normal 1.0 0.0 0.0
  outer loop
    vertex -21986.100147286423 27468.4940630884 3.0000000000000013
    vertex -21986.100147286423 27478.4940630884 1.4099832412739487e-15
    vertex -21986.100147286423 27478.4940630884 3.0000000000000013
  endloop
endfacet
facet normal -1.0 4.1252081116138636e-13 6.0588274051542316e-30
  outer loop
    vertex -22001.10014728642 27485.494063088398 3.000000000002268
    vertex -22001.100147286423 27478.4940630884 2.407076390061509e-12
    vertex -22001.100147286423 27478.4940630884 3.000000000002407
  endloop
endfacet
facet normal -1.0 4.1252081116138636e-13 6.0588274051542316e-30
  outer loop
    vertex -22001.100147286423 27478.4940630884 2.407076390061509e-12
    vertex -22001.10014728642 27485.494063088398 3.000000000002268
    vertex -22001.10014728642 27485.494063088398 2.4071938886649488e-12
  endloop
endfacet
facet normal -1.4438228390648518e-13 -1.0 0.0
  outer loop
    vertex -21996.100147286423 27478.4940630884 3.0000000000000004
    vertex -22001.100147286423 27478.4940630884 2.407076390061509e-12
    vertex -21996.100147286423 27478.4940630884 7.049916206369744e-16
  endloop
endfacet
facet normal -1.4438228390648518e-13 -1.0 0.0
  outer loop
    vertex -22001.100147286423 27478.4940630884 2.407076390061509e-12
    vertex -21996.100147286423 27478.4940630884 3.0000000000000004
    vertex -22001.100147286423 27478.4940630884 3.000000000002407
  endloop
endfacet
endsolid Main
