solid Main
facet normal 3.1587910452231357e-18 3.469446951953614e-18 -1.0
  outer loop
    vertex -21988.23970167757 27375.209971724056 0.0
    vertex -21993.93970167757 27349.809971724055 0.0
    vertex -21993.93970167757 27375.209971724056 0.0
  endloop
endfacet
facet normal 3.1587910452231357e-18 3.469446951953614e-18 -1.0
  outer loop
    vertex -21993.93970167757 27349.809971724055 0.0
    vertex -21988.23970167757 27375.209971724056 0.0
    vertex -21988.23970167757 27349.809971724055 0.0
  endloop
endfacet
facet normal 3.1587910452231357e-18 3.469446951953614e-18 -1.0
  outer loop
    vertex -21988.23970167757 27349.809971724055 0.0
    vertex -21988.23970167757 27375.209971724056 0.0
    vertex -21978.239701677572 27375.209971724056 3.524958103184872e-16
  endloop
endfacet
facet normal 3.1587910452231357e-18 3.469446951953614e-18 -1.0
  outer loop
    vertex -21988.23970167757 27349.809971724055 0.0
    vertex -21978.239701677572 27375.209971724056 3.524958103184872e-16
    vertex -21978.239701677572 27349.809971724055 0.0
  endloop
endfacet
facet normal 3.1587910452231357e-18 3.469446951953614e-18 -1.0
  outer loop
    vertex -21978.239701677572 27349.809971724055 0.0
    vertex -21978.239701677572 27375.209971724056 3.524958103184872e-16
    vertex -21972.53970167757 27375.209971724056 0.0
  endloop
endfacet
facet normal 3.1587910452231357e-18 3.469446951953614e-18 -1.0
  outer loop
    vertex -21978.239701677572 27349.809971724055 0.0
    vertex -21972.53970167757 27375.209971724056 0.0
    vertex -21972.53970167757 27349.809971724055 0.0
  endloop
endfacet
facet normal 0.0 -1.0 0.0
  outer loop
    vertex -21972.53970167757 27349.809971724055 7.0
    vertex -21978.239701677572 27349.809971724055 0.0
    vertex -21972.53970167757 27349.809971724055 0.0
  endloop
endfacet
facet normal 0.0 -1.0 0.0
  outer loop
    vertex -21978.239701677572 27349.809971724055 0.0
    vertex -21972.53970167757 27349.809971724055 7.0
    vertex -21978.239701677572 27349.809971724055 3.0
  endloop
endfacet
facet normal 0.0 -1.0 0.0
  outer loop
    vertex -21978.239701677572 27349.809971724055 3.0
    vertex -21972.53970167757 27349.809971724055 7.0
    vertex -21988.23970167757 27349.809971724055 3.0
  endloop
endfacet
facet normal 0.0 -1.0 0.0
  outer loop
    vertex -21988.23970167757 27349.809971724055 3.0
    vertex -21972.53970167757 27349.809971724055 7.0
    vertex -21976.53970167757 27349.809971724055 6.0
  endloop
endfacet
facet normal 0.0 -1.0 0.0
  outer loop
    vertex -21976.53970167757 27349.809971724055 6.0
    vertex -21972.53970167757 27349.809971724055 7.0
    vertex -21975.53970167757 27349.809971724055 7.0
  endloop
endfacet
facet normal 0.0 -1.0 0.0
  outer loop
    vertex -21988.23970167757 27349.809971724055 3.0
    vertex -21993.93970167757 27349.809971724055 0.0
    vertex -21988.23970167757 27349.809971724055 0.0
  endloop
endfacet
facet normal 0.0 -1.0 0.0
  outer loop
    vertex -21993.93970167757 27349.809971724055 0.0
    vertex -21988.23970167757 27349.809971724055 3.0
    vertex -21993.93970167757 27349.809971724055 7.0
  endloop
endfacet
facet normal 0.0 -1.0 0.0
  outer loop
    vertex -21993.93970167757 27349.809971724055 7.0
    vertex -21988.23970167757 27349.809971724055 3.0
    vertex -21989.939701677573 27349.809971724055 6.0
  endloop
endfacet
facet normal 0.0 -1.0 0.0
  outer loop
    vertex -21989.939701677573 27349.809971724055 6.0
    vertex -21988.23970167757 27349.809971724055 3.0
    vertex -21976.53970167757 27349.809971724055 6.0
  endloop
endfacet
facet normal 0.0 -1.0 0.0
  outer loop
    vertex -21993.93970167757 27349.809971724055 7.0
    vertex -21989.939701677573 27349.809971724055 6.0
    vertex -21990.939701677573 27349.809971724055 7.0
  endloop
endfacet
facet normal 1.0 0.0 0.0
  outer loop
    vertex -21972.53970167757 27375.209971724056 0.0
    vertex -21972.53970167757 27349.809971724055 7.0
    vertex -21972.53970167757 27349.809971724055 0.0
  endloop
endfacet
facet normal 1.0 0.0 0.0
  outer loop
    vertex -21972.53970167757 27349.809971724055 7.0
    vertex -21972.53970167757 27375.209971724056 0.0
    vertex -21972.53970167757 27375.209971724056 7.0
  endloop
endfacet
facet normal -1.0 0.0 0.0
  outer loop
    vertex -21993.93970167757 27375.209971724056 7.0
    vertex -21993.93970167757 27349.809971724055 0.0
    vertex -21993.93970167757 27349.809971724055 7.0
  endloop
endfacet
facet normal -1.0 0.0 0.0
  outer loop
    vertex -21993.93970167757 27349.809971724055 0.0
    vertex -21993.93970167757 27375.209971724056 7.0
    vertex -21993.93970167757 27375.209971724056 0.0
  endloop
endfacet
facet normal 0.0 1.0 0.0
  outer loop
    vertex -21993.93970167757 27375.209971724056 7.0
    vertex -21988.23970167757 27375.209971724056 0.0
    vertex -21993.93970167757 27375.209971724056 0.0
  endloop
endfacet
facet normal 0.0 1.0 0.0
  outer loop
    vertex -21988.23970167757 27375.209971724056 0.0
    vertex -21993.93970167757 27375.209971724056 7.0
    vertex -21988.23970167757 27375.209971724056 3.0
  endloop
endfacet
facet normal 0.0 1.0 0.0
  outer loop
    vertex -21988.23970167757 27375.209971724056 3.0
    vertex -21993.93970167757 27375.209971724056 7.0
    vertex -21978.239701677572 27375.209971724056 3.0
  endloop
endfacet
facet normal 0.0 1.0 0.0
  outer loop
    vertex -21978.239701677572 27375.209971724056 3.524958103184872e-16
    vertex -21972.53970167757 27375.209971724056 7.0
    vertex -21972.53970167757 27375.209971724056 0.0
  endloop
endfacet
facet normal 0.0 1.0 0.0
  outer loop
    vertex -21972.53970167757 27375.209971724056 7.0
    vertex -21978.239701677572 27375.209971724056 3.524958103184872e-16
    vertex -21978.239701677572 27375.209971724056 3.0
  endloop
endfacet
facet normal 0.0 1.0 0.0
  outer loop
    vertex -21972.53970167757 27375.209971724056 7.0
    vertex -21978.239701677572 27375.209971724056 3.0
    vertex -21993.93970167757 27375.209971724056 7.0
  endloop
endfacet
facet normal 0.0 0.0 1.0
  outer loop
    vertex -21972.53970167757 27349.809971724055 7.0
    vertex -21975.53970167757 27352.809971724055 7.0
    vertex -21975.53970167757 27349.809971724055 7.0
  endloop
endfacet
facet normal 0.0 0.0 1.0
  outer loop
    vertex -21975.53970167757 27352.809971724055 7.0
    vertex -21972.53970167757 27349.809971724055 7.0
    vertex -21975.53970167757 27372.209971724056 7.0
  endloop
endfacet
facet normal 0.0 0.0 1.0
  outer loop
    vertex -21990.939701677573 27349.809971724055 7.0
    vertex -21993.93970167757 27375.209971724056 7.0
    vertex -21993.93970167757 27349.809971724055 7.0
  endloop
endfacet
facet normal 0.0 0.0 1.0
  outer loop
    vertex -21993.93970167757 27375.209971724056 7.0
    vertex -21990.939701677573 27349.809971724055 7.0
    vertex -21990.939701677573 27372.209971724056 7.0
  endloop
endfacet
facet normal 0.0 0.0 1.0
  outer loop
    vertex -21993.93970167757 27375.209971724056 7.0
    vertex -21990.939701677573 27372.209971724056 7.0
    vertex -21972.53970167757 27375.209971724056 7.0
  endloop
endfacet
facet normal 0.0 0.0 1.0
  outer loop
    vertex -21990.939701677573 27372.209971724056 7.0
    vertex -21990.939701677573 27349.809971724055 7.0
    vertex -21990.939701677573 27352.809971724055 7.0
  endloop
endfacet
facet normal 0.0 0.0 1.0
  outer loop
    vertex -21972.53970167757 27375.209971724056 7.0
    vertex -21990.939701677573 27372.209971724056 7.0
    vertex -21975.53970167757 27372.209971724056 7.0
  endloop
endfacet
facet normal 0.0 0.0 1.0
  outer loop
    vertex -21972.53970167757 27375.209971724056 7.0
    vertex -21975.53970167757 27372.209971724056 7.0
    vertex -21972.53970167757 27349.809971724055 7.0
  endloop
endfacet
facet normal -1.0 0.0 0.0
  outer loop
    vertex -21975.53970167757 27372.209971724056 7.0
    vertex -21975.53970167757 27352.809971724055 3.0
    vertex -21975.53970167757 27352.809971724055 7.0
  endloop
endfacet
facet normal -1.0 0.0 0.0
  outer loop
    vertex -21975.53970167757 27352.809971724055 3.0
    vertex -21975.53970167757 27372.209971724056 7.0
    vertex -21975.53970167757 27358.209971724053 3.9999999999999996
  endloop
endfacet
facet normal -1.0 0.0 0.0
  outer loop
    vertex -21975.53970167757 27358.209971724053 3.9999999999999996
    vertex -21975.53970167757 27372.209971724056 7.0
    vertex -21975.53970167757 27372.209971724056 3.9999999999999996
  endloop
endfacet
facet normal -1.0 0.0 0.0
  outer loop
    vertex -21975.53970167757 27358.209971724053 3.0
    vertex -21975.53970167757 27352.809971724055 3.0
    vertex -21975.53970167757 27358.209971724053 3.9999999999999996
  endloop
endfacet
facet normal 0.0 1.0 0.0
  outer loop
    vertex -21990.939701677573 27352.809971724055 3.0
    vertex -21989.939701677573 27352.809971724055 6.0
    vertex -21975.53970167757 27352.809971724055 3.0
  endloop
endfacet
facet normal 0.0 1.0 0.0
  outer loop
    vertex -21989.939701677573 27352.809971724055 6.0
    vertex -21990.939701677573 27352.809971724055 3.0
    vertex -21990.939701677573 27352.809971724055 7.0
  endloop
endfacet
facet normal 0.0 1.0 0.0
  outer loop
    vertex -21975.53970167757 27352.809971724055 3.0
    vertex -21976.53970167757 27352.809971724055 6.0
    vertex -21975.53970167757 27352.809971724055 7.0
  endloop
endfacet
facet normal 0.0 1.0 0.0
  outer loop
    vertex -21976.53970167757 27352.809971724055 6.0
    vertex -21975.53970167757 27352.809971724055 3.0
    vertex -21989.939701677573 27352.809971724055 6.0
  endloop
endfacet
facet normal 1.0 0.0 0.0
  outer loop
    vertex -21990.939701677573 27358.209971724053 3.0
    vertex -21990.939701677573 27352.809971724055 7.0
    vertex -21990.939701677573 27352.809971724055 3.0
  endloop
endfacet
facet normal 1.0 0.0 0.0
  outer loop
    vertex -21990.939701677573 27352.809971724055 7.0
    vertex -21990.939701677573 27358.209971724053 3.0
    vertex -21990.939701677573 27358.209971724053 3.9999999999999996
  endloop
endfacet
facet normal 1.0 0.0 0.0
  outer loop
    vertex -21990.939701677573 27352.809971724055 7.0
    vertex -21990.939701677573 27358.209971724053 3.9999999999999996
    vertex -21990.939701677573 27372.209971724056 7.0
  endloop
endfacet
facet normal 1.0 0.0 0.0
  outer loop
    vertex -21990.939701677573 27372.209971724056 7.0
    vertex -21990.939701677573 27358.209971724053 3.9999999999999996
    vertex -21990.939701677573 27372.209971724056 3.9999999999999996
  endloop
endfacet
facet normal 0.0 -1.0 0.0
  outer loop
    vertex -21975.53970167757 27372.209971724056 7.0
    vertex -21980.53970167757 27372.209971724056 3.9999999999999996
    vertex -21975.53970167757 27372.209971724056 3.9999999999999996
  endloop
endfacet
facet normal 0.0 -1.0 0.0
  outer loop
    vertex -21980.53970167757 27372.209971724056 3.9999999999999996
    vertex -21975.53970167757 27372.209971724056 7.0
    vertex -21985.939701677573 27372.209971724056 3.9999999999999996
  endloop
endfacet
facet normal 0.0 -1.0 0.0
  outer loop
    vertex -21985.939701677573 27372.209971724056 3.9999999999999996
    vertex -21975.53970167757 27372.209971724056 7.0
    vertex -21990.939701677573 27372.209971724056 3.9999999999999996
  endloop
endfacet
facet normal 0.0 -1.0 0.0
  outer loop
    vertex -21990.939701677573 27372.209971724056 3.9999999999999996
    vertex -21975.53970167757 27372.209971724056 7.0
    vertex -21990.939701677573 27372.209971724056 7.0
  endloop
endfacet
facet normal 0.0 -1.0 0.0
  outer loop
    vertex -21980.53970167757 27372.209971724056 3.9999999999999996
    vertex -21985.939701677573 27372.209971724056 3.0
    vertex -21980.53970167757 27372.209971724056 3.0
  endloop
endfacet
facet normal 0.0 -1.0 0.0
  outer loop
    vertex -21985.939701677573 27372.209971724056 3.0
    vertex -21980.53970167757 27372.209971724056 3.9999999999999996
    vertex -21985.939701677573 27372.209971724056 3.9999999999999996
  endloop
endfacet
facet normal 0.0 0.0 1.0
  outer loop
    vertex -21975.53970167757 27352.809971724055 3.0
    vertex -21990.939701677573 27358.209971724053 3.0
    vertex -21990.939701677573 27352.809971724055 3.0
  endloop
endfacet
facet normal 0.0 0.0 1.0
  outer loop
    vertex -21990.939701677573 27358.209971724053 3.0
    vertex -21975.53970167757 27352.809971724055 3.0
    vertex -21985.939701677573 27358.209971724053 3.0
  endloop
endfacet
facet normal 0.0 0.0 1.0
  outer loop
    vertex -21985.939701677573 27358.209971724053 3.0
    vertex -21975.53970167757 27352.809971724055 3.0
    vertex -21980.53970167757 27358.209971724053 3.0
  endloop
endfacet
facet normal 0.0 0.0 1.0
  outer loop
    vertex -21985.939701677573 27358.209971724053 3.0
    vertex -21980.53970167757 27358.209971724053 3.0
    vertex -21985.939701677573 27372.209971724056 3.0
  endloop
endfacet
facet normal 0.0 0.0 1.0
  outer loop
    vertex -21980.53970167757 27358.209971724053 3.0
    vertex -21975.53970167757 27352.809971724055 3.0
    vertex -21975.53970167757 27358.209971724053 3.0
  endloop
endfacet
facet normal 0.0 0.0 1.0
  outer loop
    vertex -21980.53970167757 27372.209971724056 3.0
    vertex -21985.939701677573 27372.209971724056 3.0
    vertex -21980.53970167757 27358.209971724053 3.0
  endloop
endfacet
facet normal 0.0 0.0 1.0
  outer loop
    vertex -21985.939701677573 27358.209971724053 3.9999999999999996
    vertex -21990.939701677573 27372.209971724056 3.9999999999999996
    vertex -21990.939701677573 27358.209971724053 3.9999999999999996
  endloop
endfacet
facet normal 0.0 0.0 1.0
  outer loop
    vertex -21990.939701677573 27372.209971724056 3.9999999999999996
    vertex -21985.939701677573 27358.209971724053 3.9999999999999996
    vertex -21985.939701677573 27372.209971724056 3.9999999999999996
  endloop
endfacet
facet normal 0.0 -1.0 0.0
  outer loop
    vertex -21985.939701677573 27358.209971724053 3.9999999999999996
    vertex -21990.939701677573 27358.209971724053 3.0
    vertex -21985.939701677573 27358.209971724053 3.0
  endloop
endfacet
facet normal 0.0 -1.0 0.0
  outer loop
    vertex -21990.939701677573 27358.209971724053 3.0
    vertex -21985.939701677573 27358.209971724053 3.9999999999999996
    vertex -21990.939701677573 27358.209971724053 3.9999999999999996
  endloop
endfacet
facet normal 1.0 0.0 0.0
  outer loop
    vertex -21985.939701677573 27372.209971724056 3.0
    vertex -21985.939701677573 27358.209971724053 3.9999999999999996
    vertex -21985.939701677573 27358.209971724053 3.0
  endloop
endfacet
facet normal 1.0 0.0 0.0
  outer loop
    vertex -21985.939701677573 27358.209971724053 3.9999999999999996
    vertex -21985.939701677573 27372.209971724056 3.0
    vertex -21985.939701677573 27372.209971724056 3.9999999999999996
  endloop
endfacet
facet normal 0.0 0.0 1.0
  outer loop
    vertex -21975.53970167757 27358.209971724053 3.9999999999999996
    vertex -21980.53970167757 27372.209971724056 3.9999999999999996
    vertex -21980.53970167757 27358.209971724053 3.9999999999999996
  endloop
endfacet
facet normal 0.0 0.0 1.0
  outer loop
    vertex -21980.53970167757 27372.209971724056 3.9999999999999996
    vertex -21975.53970167757 27358.209971724053 3.9999999999999996
    vertex -21975.53970167757 27372.209971724056 3.9999999999999996
  endloop
endfacet
facet normal -1.0 -0.0 -0.0
  outer loop
    vertex -21980.53970167757 27372.209971724056 3.9999999999999996
    vertex -21980.53970167757 27358.209971724053 3.0
    vertex -21980.53970167757 27358.209971724053 3.9999999999999996
  endloop
endfacet
facet normal -1.0 -0.0 -0.0
  outer loop
    vertex -21980.53970167757 27358.209971724053 3.0
    vertex -21980.53970167757 27372.209971724056 3.9999999999999996
    vertex -21980.53970167757 27372.209971724056 3.0
  endloop
endfacet
facet normal 0.0 -1.0 0.0
  outer loop
    vertex -21975.53970167757 27358.209971724053 3.9999999999999996
    vertex -21980.53970167757 27358.209971724053 3.0
    vertex -21975.53970167757 27358.209971724053 3.0
  endloop
endfacet
facet normal 0.0 -1.0 0.0
  outer loop
    vertex -21980.53970167757 27358.209971724053 3.0
    vertex -21975.53970167757 27358.209971724053 3.9999999999999996
    vertex -21980.53970167757 27358.209971724053 3.9999999999999996
  endloop
endfacet
facet normal 0.0 0.0 1.0
  outer loop
    vertex -21976.53970167757 27349.809971724055 6.0
    vertex -21989.939701677573 27352.809971724055 6.0
    vertex -21989.939701677573 27349.809971724055 6.0
  endloop
endfacet
facet normal 0.0 0.0 1.0
  outer loop
    vertex -21989.939701677573 27352.809971724055 6.0
    vertex -21976.53970167757 27349.809971724055 6.0
    vertex -21976.53970167757 27352.809971724055 6.0
  endloop
endfacet
facet normal 0.7071067811866278 2.6198971854880427e-24 0.7071067811864673
  outer loop
    vertex -21989.939701677573 27352.809971724055 6.0
    vertex -21990.939701677573 27349.809971724055 7.0
    vertex -21989.939701677573 27349.809971724055 6.0
  endloop
endfacet
facet normal 0.7071067811866278 2.6198971854880427e-24 0.7071067811864673
  outer loop
    vertex -21990.939701677573 27349.809971724055 7.0
    vertex -21989.939701677573 27352.809971724055 6.0
    vertex -21990.939701677573 27352.809971724055 7.0
  endloop
endfacet
facet normal -0.7071067811866278 -6.397795324755671e-28 0.7071067811864672
  outer loop
    vertex -21975.53970167757 27352.809971724055 7.0
    vertex -21976.53970167757 27349.809971724055 6.0
    vertex -21975.53970167757 27349.809971724055 7.0
  endloop
endfacet
facet normal -0.7071067811866278 -6.397795324755671e-28 0.7071067811864672
  outer loop
    vertex -21976.53970167757 27349.809971724055 6.0
    vertex -21975.53970167757 27352.809971724055 7.0
    vertex -21976.53970167757 27352.809971724055 6.0
  endloop
endfacet
facet normal 1.6125148808218238e-17 -1.1609408017894168e-17 -1.0
  outer loop
    vertex -21990.939701677573 27385.209971724053 0.0
    vertex -21993.93970167757 27380.209971724053 0.0
    vertex -21993.93970167757 27382.209971724053 0.0
  endloop
endfacet
facet normal 1.6125148808218238e-17 -1.1609408017894168e-17 -1.0
  outer loop
    vertex -21993.93970167757 27380.209971724053 0.0
    vertex -21990.939701677573 27385.209971724053 0.0
    vertex -21988.23970167757 27380.209971724053 0.0
  endloop
endfacet
facet normal 1.6125148808218238e-17 -1.1609408017894168e-17 -1.0
  outer loop
    vertex -21988.23970167757 27380.209971724053 0.0
    vertex -21990.939701677573 27385.209971724053 0.0
    vertex -21975.53970167757 27385.209971724053 3.524958103184872e-16
  endloop
endfacet
facet normal 1.6125148808218238e-17 -1.1609408017894168e-17 -1.0
  outer loop
    vertex -21988.23970167757 27380.209971724053 0.0
    vertex -21975.53970167757 27385.209971724053 3.524958103184872e-16
    vertex -21988.23970167757 27375.209971724056 0.0
  endloop
endfacet
facet normal 1.6125148808218238e-17 -1.1609408017894168e-17 -1.0
  outer loop
    vertex -21988.23970167757 27375.209971724056 0.0
    vertex -21975.53970167757 27385.209971724053 3.524958103184872e-16
    vertex -21978.239701677572 27380.209971724053 3.524958103184872e-16
  endloop
endfacet
facet normal 1.6125148808218238e-17 -1.1609408017894168e-17 -1.0
  outer loop
    vertex -21978.239701677572 27380.209971724053 3.524958103184872e-16
    vertex -21975.53970167757 27385.209971724053 3.524958103184872e-16
    vertex -21972.53970167757 27380.209971724053 3.524958103184872e-16
  endloop
endfacet
facet normal 1.6125148808218238e-17 -1.1609408017894168e-17 -1.0
  outer loop
    vertex -21972.53970167757 27380.209971724053 3.524958103184872e-16
    vertex -21975.53970167757 27385.209971724053 3.524958103184872e-16
    vertex -21972.53970167757 27382.209971724053 3.524958103184872e-16
  endloop
endfacet
facet normal 1.6125148808218238e-17 -1.1609408017894168e-17 -1.0
  outer loop
    vertex -21978.239701677572 27375.209971724056 3.524958103184872e-16
    vertex -21988.23970167757 27375.209971724056 0.0
    vertex -21978.239701677572 27380.209971724053 3.524958103184872e-16
  endloop
endfacet
facet normal -2.0518356105805513e-17 -3.740494970540192e-17 -1.0
  outer loop
    vertex -21978.239701677572 27349.809971724055 0.0
    vertex -21988.23970167757 27344.809971724055 0.0
    vertex -21988.23970167757 27349.809971724055 0.0
  endloop
endfacet
facet normal -2.0518356105805513e-17 -3.740494970540192e-17 -1.0
  outer loop
    vertex -21988.23970167757 27344.809971724055 0.0
    vertex -21993.93970167757 27342.80997172406 7.049916206369744e-16
    vertex -21993.93970167757 27344.809971724055 0.0
  endloop
endfacet
facet normal -2.0518356105805513e-17 -3.740494970540192e-17 -1.0
  outer loop
    vertex -21993.93970167757 27342.80997172406 7.049916206369744e-16
    vertex -21988.23970167757 27344.809971724055 0.0
    vertex -21990.939701677573 27339.80997172406 7.049916206369744e-16
  endloop
endfacet
facet normal -2.0518356105805513e-17 -3.740494970540192e-17 -1.0
  outer loop
    vertex -21990.939701677573 27339.80997172406 7.049916206369744e-16
    vertex -21988.23970167757 27344.809971724055 0.0
    vertex -21975.53970167757 27339.80997172406 0.0
  endloop
endfacet
facet normal -2.0518356105805513e-17 -3.740494970540192e-17 -1.0
  outer loop
    vertex -21975.53970167757 27339.80997172406 0.0
    vertex -21988.23970167757 27344.809971724055 0.0
    vertex -21978.239701677572 27344.809971724055 0.0
  endloop
endfacet
facet normal -2.0518356105805513e-17 -3.740494970540192e-17 -1.0
  outer loop
    vertex -21978.239701677572 27344.809971724055 0.0
    vertex -21988.23970167757 27344.809971724055 0.0
    vertex -21978.239701677572 27349.809971724055 0.0
  endloop
endfacet
facet normal -2.0518356105805513e-17 -3.740494970540192e-17 -1.0
  outer loop
    vertex -21975.53970167757 27339.80997172406 0.0
    vertex -21978.239701677572 27344.809971724055 0.0
    vertex -21972.53970167757 27344.809971724055 0.0
  endloop
endfacet
facet normal -2.0518356105805513e-17 -3.740494970540192e-17 -1.0
  outer loop
    vertex -21975.53970167757 27339.80997172406 0.0
    vertex -21972.53970167757 27344.809971724055 0.0
    vertex -21972.53970167757 27342.80997172406 0.0
  endloop
endfacet
facet normal -1.0 0.0 0.0
  outer loop
    vertex -21993.93970167757 27344.809971724055 3.0
    vertex -21993.93970167757 27342.80997172406 7.049916206369744e-16
    vertex -21993.93970167757 27342.80997172406 3.0
  endloop
endfacet
facet normal -1.0 0.0 0.0
  outer loop
    vertex -21993.93970167757 27342.80997172406 7.049916206369744e-16
    vertex -21993.93970167757 27344.809971724055 3.0
    vertex -21993.93970167757 27344.809971724055 0.0
  endloop
endfacet
facet normal 0.0 -1.0 0.0
  outer loop
    vertex -21978.239701677572 27349.809971724055 3.0
    vertex -21988.23970167757 27349.809971724055 0.0
    vertex -21978.239701677572 27349.809971724055 0.0
  endloop
endfacet
facet normal 0.0 -1.0 0.0
  outer loop
    vertex -21988.23970167757 27349.809971724055 0.0
    vertex -21978.239701677572 27349.809971724055 3.0
    vertex -21988.23970167757 27349.809971724055 3.0
  endloop
endfacet
facet normal 1.0 0.0 0.0
  outer loop
    vertex -21972.53970167757 27344.809971724055 0.0
    vertex -21972.53970167757 27342.80997172406 3.0
    vertex -21972.53970167757 27342.80997172406 0.0
  endloop
endfacet
facet normal 1.0 0.0 0.0
  outer loop
    vertex -21972.53970167757 27342.80997172406 3.0
    vertex -21972.53970167757 27344.809971724055 0.0
    vertex -21972.53970167757 27344.809971724055 3.0
  endloop
endfacet
facet normal 0.0 -1.0 0.0
  outer loop
    vertex -21975.53970167757 27339.80997172406 3.0
    vertex -21990.939701677573 27339.80997172406 7.049916206369744e-16
    vertex -21975.53970167757 27339.80997172406 0.0
  endloop
endfacet
facet normal 0.0 -1.0 0.0
  outer loop
    vertex -21990.939701677573 27339.80997172406 7.049916206369744e-16
    vertex -21975.53970167757 27339.80997172406 3.0
    vertex -21990.939701677573 27339.80997172406 3.0
  endloop
endfacet
facet normal -1.0 0.0 0.0
  outer loop
    vertex -21993.93970167757 27382.209971724053 3.0
    vertex -21993.93970167757 27380.209971724053 0.0
    vertex -21993.93970167757 27380.209971724053 3.0
  endloop
endfacet
facet normal -1.0 0.0 0.0
  outer loop
    vertex -21993.93970167757 27380.209971724053 0.0
    vertex -21993.93970167757 27382.209971724053 3.0
    vertex -21993.93970167757 27382.209971724053 0.0
  endloop
endfacet
facet normal 0.0 1.0 0.0
  outer loop
    vertex -21990.939701677573 27385.209971724053 3.0
    vertex -21975.53970167757 27385.209971724053 3.524958103184872e-16
    vertex -21990.939701677573 27385.209971724053 0.0
  endloop
endfacet
facet normal 0.0 1.0 0.0
  outer loop
    vertex -21975.53970167757 27385.209971724053 3.524958103184872e-16
    vertex -21990.939701677573 27385.209971724053 3.0
    vertex -21975.53970167757 27385.209971724053 3.0
  endloop
endfacet
facet normal 1.0 0.0 0.0
  outer loop
    vertex -21972.53970167757 27382.209971724053 3.524958103184872e-16
    vertex -21972.53970167757 27380.209971724053 3.0
    vertex -21972.53970167757 27380.209971724053 3.524958103184872e-16
  endloop
endfacet
facet normal 1.0 0.0 0.0
  outer loop
    vertex -21972.53970167757 27380.209971724053 3.0
    vertex -21972.53970167757 27382.209971724053 3.524958103184872e-16
    vertex -21972.53970167757 27382.209971724053 3.0
  endloop
endfacet
facet normal 0.0 1.0 0.0
  outer loop
    vertex -21988.23970167757 27375.209971724056 3.0
    vertex -21978.239701677572 27375.209971724056 3.524958103184872e-16
    vertex -21988.23970167757 27375.209971724056 0.0
  endloop
endfacet
facet normal 0.0 1.0 0.0
  outer loop
    vertex -21978.239701677572 27375.209971724056 3.524958103184872e-16
    vertex -21988.23970167757 27375.209971724056 3.0
    vertex -21978.239701677572 27375.209971724056 3.0
  endloop
endfacet
facet normal 0.0 0.0 1.0
  outer loop
    vertex -21978.239701677572 27375.209971724056 3.0
    vertex -21988.23970167757 27380.209971724053 3.0
    vertex -21988.23970167757 27375.209971724056 3.0
  endloop
endfacet
facet normal 0.0 0.0 1.0
  outer loop
    vertex -21988.23970167757 27380.209971724053 3.0
    vertex -21993.93970167757 27382.209971724053 3.0
    vertex -21993.93970167757 27380.209971724053 3.0
  endloop
endfacet
facet normal 0.0 0.0 1.0
  outer loop
    vertex -21993.93970167757 27382.209971724053 3.0
    vertex -21988.23970167757 27380.209971724053 3.0
    vertex -21990.939701677573 27385.209971724053 3.0
  endloop
endfacet
facet normal 0.0 0.0 1.0
  outer loop
    vertex -21990.939701677573 27385.209971724053 3.0
    vertex -21988.23970167757 27380.209971724053 3.0
    vertex -21975.53970167757 27385.209971724053 3.0
  endloop
endfacet
facet normal 0.0 0.0 1.0
  outer loop
    vertex -21975.53970167757 27385.209971724053 3.0
    vertex -21988.23970167757 27380.209971724053 3.0
    vertex -21978.239701677572 27380.209971724053 3.0
  endloop
endfacet
facet normal 0.0 0.0 1.0
  outer loop
    vertex -21978.239701677572 27380.209971724053 3.0
    vertex -21988.23970167757 27380.209971724053 3.0
    vertex -21978.239701677572 27375.209971724056 3.0
  endloop
endfacet
facet normal 0.0 0.0 1.0
  outer loop
    vertex -21975.53970167757 27385.209971724053 3.0
    vertex -21978.239701677572 27380.209971724053 3.0
    vertex -21972.53970167757 27380.209971724053 3.0
  endloop
endfacet
facet normal 0.0 0.0 1.0
  outer loop
    vertex -21975.53970167757 27385.209971724053 3.0
    vertex -21972.53970167757 27380.209971724053 3.0
    vertex -21972.53970167757 27382.209971724053 3.0
  endloop
endfacet
facet normal 0.0 1.0 0.0
  outer loop
    vertex -21993.93970167757 27344.809971724055 3.0
    vertex -21988.23970167757 27344.809971724055 0.0
    vertex -21993.93970167757 27344.809971724055 0.0
  endloop
endfacet
facet normal 0.0 1.0 0.0
  outer loop
    vertex -21988.23970167757 27344.809971724055 0.0
    vertex -21993.93970167757 27344.809971724055 3.0
    vertex -21988.23970167757 27344.809971724055 3.0
  endloop
endfacet
facet normal -1.0 0.0 0.0
  outer loop
    vertex -21988.23970167757 27349.809971724055 3.0
    vertex -21988.23970167757 27344.809971724055 0.0
    vertex -21988.23970167757 27344.809971724055 3.0
  endloop
endfacet
facet normal -1.0 0.0 0.0
  outer loop
    vertex -21988.23970167757 27344.809971724055 0.0
    vertex -21988.23970167757 27349.809971724055 3.0
    vertex -21988.23970167757 27349.809971724055 0.0
  endloop
endfacet
facet normal 1.0 0.0 0.0
  outer loop
    vertex -21978.239701677572 27349.809971724055 0.0
    vertex -21978.239701677572 27344.809971724055 3.0
    vertex -21978.239701677572 27344.809971724055 0.0
  endloop
endfacet
facet normal 1.0 0.0 0.0
  outer loop
    vertex -21978.239701677572 27344.809971724055 3.0
    vertex -21978.239701677572 27349.809971724055 0.0
    vertex -21978.239701677572 27349.809971724055 3.0
  endloop
endfacet
facet normal 0.0 1.0 0.0
  outer loop
    vertex -21978.239701677572 27344.809971724055 3.0
    vertex -21972.53970167757 27344.809971724055 0.0
    vertex -21978.239701677572 27344.809971724055 0.0
  endloop
endfacet
facet normal 0.0 1.0 0.0
  outer loop
    vertex -21972.53970167757 27344.809971724055 0.0
    vertex -21978.239701677572 27344.809971724055 3.0
    vertex -21972.53970167757 27344.809971724055 3.0
  endloop
endfacet
facet normal -1.0 0.0 0.0
  outer loop
    vertex -21988.23970167757 27380.209971724053 3.0
    vertex -21988.23970167757 27375.209971724056 0.0
    vertex -21988.23970167757 27375.209971724056 3.0
  endloop
endfacet
facet normal -1.0 0.0 0.0
  outer loop
    vertex -21988.23970167757 27375.209971724056 0.0
    vertex -21988.23970167757 27380.209971724053 3.0
    vertex -21988.23970167757 27380.209971724053 0.0
  endloop
endfacet
facet normal 0.0 -1.0 0.0
  outer loop
    vertex -21988.23970167757 27380.209971724053 3.0
    vertex -21993.93970167757 27380.209971724053 0.0
    vertex -21988.23970167757 27380.209971724053 0.0
  endloop
endfacet
facet normal 0.0 -1.0 0.0
  outer loop
    vertex -21993.93970167757 27380.209971724053 0.0
    vertex -21988.23970167757 27380.209971724053 3.0
    vertex -21993.93970167757 27380.209971724053 3.0
  endloop
endfacet
facet normal 0.0 -1.0 0.0
  outer loop
    vertex -21972.53970167757 27380.209971724053 3.0
    vertex -21978.239701677572 27380.209971724053 3.524958103184872e-16
    vertex -21972.53970167757 27380.209971724053 3.524958103184872e-16
  endloop
endfacet
facet normal 0.0 -1.0 0.0
  outer loop
    vertex -21978.239701677572 27380.209971724053 3.524958103184872e-16
    vertex -21972.53970167757 27380.209971724053 3.0
    vertex -21978.239701677572 27380.209971724053 3.0
  endloop
endfacet
facet normal 1.0 0.0 0.0
  outer loop
    vertex -21978.239701677572 27380.209971724053 3.524958103184872e-16
    vertex -21978.239701677572 27375.209971724056 3.0
    vertex -21978.239701677572 27375.209971724056 3.524958103184872e-16
  endloop
endfacet
facet normal 1.0 0.0 0.0
  outer loop
    vertex -21978.239701677572 27375.209971724056 3.0
    vertex -21978.239701677572 27380.209971724053 3.524958103184872e-16
    vertex -21978.239701677572 27380.209971724053 3.0
  endloop
endfacet
facet normal 0.0 0.0 1.0
  outer loop
    vertex -21990.939701677573 27339.80997172406 3.0
    vertex -21993.93970167757 27344.809971724055 3.0
    vertex -21993.93970167757 27342.80997172406 3.0
  endloop
endfacet
facet normal 0.0 0.0 1.0
  outer loop
    vertex -21993.93970167757 27344.809971724055 3.0
    vertex -21990.939701677573 27339.80997172406 3.0
    vertex -21988.23970167757 27344.809971724055 3.0
  endloop
endfacet
facet normal 0.0 0.0 1.0
  outer loop
    vertex -21988.23970167757 27344.809971724055 3.0
    vertex -21990.939701677573 27339.80997172406 3.0
    vertex -21975.53970167757 27339.80997172406 3.0
  endloop
endfacet
facet normal 0.0 0.0 1.0
  outer loop
    vertex -21988.23970167757 27344.809971724055 3.0
    vertex -21975.53970167757 27339.80997172406 3.0
    vertex -21988.23970167757 27349.809971724055 3.0
  endloop
endfacet
facet normal 0.0 0.0 1.0
  outer loop
    vertex -21988.23970167757 27349.809971724055 3.0
    vertex -21975.53970167757 27339.80997172406 3.0
    vertex -21978.239701677572 27344.809971724055 3.0
  endloop
endfacet
facet normal 0.0 0.0 1.0
  outer loop
    vertex -21978.239701677572 27344.809971724055 3.0
    vertex -21975.53970167757 27339.80997172406 3.0
    vertex -21972.53970167757 27344.809971724055 3.0
  endloop
endfacet
facet normal 0.0 0.0 1.0
  outer loop
    vertex -21972.53970167757 27344.809971724055 3.0
    vertex -21975.53970167757 27339.80997172406 3.0
    vertex -21972.53970167757 27342.80997172406 3.0
  endloop
endfacet
facet normal 0.0 0.0 1.0
  outer loop
    vertex -21978.239701677572 27349.809971724055 3.0
    vertex -21988.23970167757 27349.809971724055 3.0
    vertex -21978.239701677572 27344.809971724055 3.0
  endloop
endfacet
facet normal -0.7071067811865477 -0.7071067811865475 0.0
  outer loop
    vertex -21993.93970167757 27342.80997172406 3.0
    vertex -21990.939701677573 27339.80997172406 7.049916206369744e-16
    vertex -21990.939701677573 27339.80997172406 3.0
  endloop
endfacet
facet normal -0.7071067811865477 -0.7071067811865475 0.0
  outer loop
    vertex -21990.939701677573 27339.80997172406 7.049916206369744e-16
    vertex -21993.93970167757 27342.80997172406 3.0
    vertex -21993.93970167757 27342.80997172406 7.049916206369744e-16
  endloop
endfacet
facet normal -0.7071067811865476 0.7071067811865476 0.0
  outer loop
    vertex -21990.939701677573 27385.209971724053 3.0
    vertex -21993.93970167757 27382.209971724053 0.0
    vertex -21993.93970167757 27382.209971724053 3.0
  endloop
endfacet
facet normal -0.7071067811865476 0.7071067811865476 0.0
  outer loop
    vertex -21993.93970167757 27382.209971724053 0.0
    vertex -21990.939701677573 27385.209971724053 3.0
    vertex -21990.939701677573 27385.209971724053 0.0
  endloop
endfacet
facet normal 0.7071067811865475 0.7071067811865476 1.5994488311883725e-28
  outer loop
    vertex -21975.53970167757 27385.209971724053 3.0
    vertex -21972.53970167757 27382.209971724053 3.524958103184872e-16
    vertex -21975.53970167757 27385.209971724053 3.524958103184872e-16
  endloop
endfacet
facet normal 0.7071067811865475 0.7071067811865476 1.5994488311883725e-28
  outer loop
    vertex -21972.53970167757 27382.209971724053 3.524958103184872e-16
    vertex -21975.53970167757 27385.209971724053 3.0
    vertex -21972.53970167757 27382.209971724053 3.0
  endloop
endfacet
facet normal 0.7071067811865476 -0.7071067811865476 0.0
  outer loop
    vertex -21972.53970167757 27342.80997172406 0.0
    vertex -21975.53970167757 27339.80997172406 3.0
    vertex -21975.53970167757 27339.80997172406 0.0
  endloop
endfacet
facet normal 0.7071067811865476 -0.7071067811865476 0.0
  outer loop
    vertex -21975.53970167757 27339.80997172406 3.0
    vertex -21972.53970167757 27342.80997172406 0.0
    vertex -21972.53970167757 27342.80997172406 3.0
  endloop
endfacet
endsolid Main
