solid Main
facet normal -1.1795883795840058e-14 -1.0 3.592732292071751e-15
  outer loop
    vertex -21975.6072413896 27363.630221423165 13.000000000000002
    vertex -21976.571707483665 27363.630221423165 12.535533905928276
    vertex -21976.39250281924 27363.630221423165 12.301989840315409
  endloop
endfacet
facet normal -1.1795883795840058e-14 -1.0 3.592732292071751e-15
  outer loop
    vertex -21976.571707483665 27363.630221423165 12.535533905928276
    vertex -21975.6072413896 27363.630221423165 13.000000000000002
    vertex -21977.6072413896 27363.630221423165 13.330127018917722
  endloop
endfacet
facet normal -1.1795883795840058e-14 -1.0 3.592732292071751e-15
  outer loop
    vertex -21977.6072413896 27363.630221423165 13.330127018917722
    vertex -21975.6072413896 27363.630221423165 13.000000000000002
    vertex -21975.6072413896 27363.630221423165 60.49999999999999
  endloop
endfacet
facet normal -1.1795883795840058e-14 -1.0 3.592732292071751e-15
  outer loop
    vertex -21977.6072413896 27363.630221423165 13.330127018917722
    vertex -21975.6072413896 27363.630221423165 60.49999999999999
    vertex -21978.813146164088 27363.630221423165 13.829629131440862
  endloop
endfacet
facet normal -1.1795883795840058e-14 -1.0 3.592732292071751e-15
  outer loop
    vertex -21978.813146164088 27363.630221423165 13.829629131440862
    vertex -21975.6072413896 27363.630221423165 60.49999999999999
    vertex -21980.107241389596 27363.630221423165 13.999999999995518
  endloop
endfacet
facet normal -1.1795883795840058e-14 -1.0 3.592732292071751e-15
  outer loop
    vertex -21980.107241389596 27363.630221423165 13.999999999995518
    vertex -21975.6072413896 27363.630221423165 60.49999999999999
    vertex -21978.813146164088 27363.630221423165 59.67037086855458
  endloop
endfacet
facet normal -1.1795883795840058e-14 -1.0 3.592732292071751e-15
  outer loop
    vertex -21980.107241389596 27363.630221423165 13.999999999995518
    vertex -21978.813146164088 27363.630221423165 59.67037086855458
    vertex -21980.107241389596 27363.630221423165 59.49999999999992
  endloop
endfacet
facet normal -1.1795883795840058e-14 -1.0 3.592732292071751e-15
  outer loop
    vertex -21978.813146164088 27363.630221423165 59.67037086855458
    vertex -21975.6072413896 27363.630221423165 60.49999999999999
    vertex -21977.6072413896 27363.630221423165 60.169872981077724
  endloop
endfacet
facet normal -1.1795883795840058e-14 -1.0 3.592732292071751e-15
  outer loop
    vertex -21977.6072413896 27363.630221423165 60.169872981077724
    vertex -21975.6072413896 27363.630221423165 60.49999999999999
    vertex -21976.571707483665 27363.630221423165 60.96446609406717
  endloop
endfacet
facet normal -1.1795883795840058e-14 -1.0 3.592732292071751e-15
  outer loop
    vertex -21976.571707483665 27363.630221423165 60.96446609406717
    vertex -21975.6072413896 27363.630221423165 60.49999999999999
    vertex -21976.39250281924 27363.630221423165 61.19801015968008
  endloop
endfacet
facet normal -1.1795883795840058e-14 -1.0 3.592732292071751e-15
  outer loop
    vertex -21984.936870521044 27363.630221423165 10.294095225508164
    vertex -21986.1072413896 27363.630221423165 9.000000000000002
    vertex -21985.1072413896 27363.630221423165 8.999999999995575
  endloop
endfacet
facet normal -1.1795883795840058e-14 -1.0 3.592732292071751e-15
  outer loop
    vertex -21986.1072413896 27363.630221423165 9.000000000000002
    vertex -21984.936870521044 27363.630221423165 10.294095225508164
    vertex -21986.24353808444 27363.630221423165 10.035276180410085
  endloop
endfacet
facet normal -1.1795883795840058e-14 -1.0 3.592732292071751e-15
  outer loop
    vertex -21986.24353808444 27363.630221423165 10.035276180410085
    vertex -21984.936870521044 27363.630221423165 10.294095225508164
    vertex -21986.64313977446 27363.630221423165 11.0
  endloop
endfacet
facet normal -1.1795883795840058e-14 -1.0 3.592732292071751e-15
  outer loop
    vertex -21986.64313977446 27363.630221423165 11.0
    vertex -21984.936870521044 27363.630221423165 10.294095225508164
    vertex -21984.43736840852 27363.630221423165 11.499999999995547
  endloop
endfacet
facet normal -1.1795883795840058e-14 -1.0 3.592732292071751e-15
  outer loop
    vertex -21986.64313977446 27363.630221423165 11.0
    vertex -21984.43736840852 27363.630221423165 11.499999999995547
    vertex -21987.27881426485 27363.630221423165 11.828427124746192
  endloop
endfacet
facet normal -1.1795883795840058e-14 -1.0 3.592732292071751e-15
  outer loop
    vertex -21987.27881426485 27363.630221423165 11.828427124746192
    vertex -21984.43736840852 27363.630221423165 11.499999999995547
    vertex -21983.64277529553 27363.630221423165 12.535533905928274
  endloop
endfacet
facet normal -1.1795883795840058e-14 -1.0 3.592732292071751e-15
  outer loop
    vertex -21987.27881426485 27363.630221423165 11.828427124746192
    vertex -21983.64277529553 27363.630221423165 12.535533905928274
    vertex -21988.1072413896 27363.630221423165 12.464101615137753
  endloop
endfacet
facet normal -1.1795883795840058e-14 -1.0 3.592732292071751e-15
  outer loop
    vertex -21988.1072413896 27363.630221423165 12.464101615137753
    vertex -21983.64277529553 27363.630221423165 12.535533905928274
    vertex -21989.07196520919 27363.630221423165 12.863703305156275
  endloop
endfacet
facet normal -1.1795883795840058e-14 -1.0 3.592732292071751e-15
  outer loop
    vertex -21989.07196520919 27363.630221423165 12.863703305156275
    vertex -21983.64277529553 27363.630221423165 12.535533905928274
    vertex -21982.6072413896 27363.630221423165 13.330127018917718
  endloop
endfacet
facet normal -1.1795883795840058e-14 -1.0 3.592732292071751e-15
  outer loop
    vertex -21989.07196520919 27363.630221423165 12.863703305156275
    vertex -21982.6072413896 27363.630221423165 13.330127018917718
    vertex -21989.6072413896 27363.630221423165 12.934173751206318
  endloop
endfacet
facet normal -1.1795883795840058e-14 -1.0 3.592732292071751e-15
  outer loop
    vertex -21989.6072413896 27363.630221423165 12.934173751206318
    vertex -21982.6072413896 27363.630221423165 13.330127018917718
    vertex -21989.6072413896 27363.630221423165 60.56582624879379
  endloop
endfacet
facet normal -1.1795883795840058e-14 -1.0 3.592732292071751e-15
  outer loop
    vertex -21989.6072413896 27363.630221423165 60.56582624879379
    vertex -21982.6072413896 27363.630221423165 13.330127018917718
    vertex -21981.401336615112 27363.630221423165 13.82962913144086
  endloop
endfacet
facet normal -1.1795883795840058e-14 -1.0 3.592732292071751e-15
  outer loop
    vertex -21989.6072413896 27363.630221423165 60.56582624879379
    vertex -21981.401336615112 27363.630221423165 13.82962913144086
    vertex -21980.107241389596 27363.630221423165 13.999999999995518
  endloop
endfacet
facet normal -1.1795883795840058e-14 -1.0 3.592732292071751e-15
  outer loop
    vertex -21989.6072413896 27363.630221423165 60.56582624879379
    vertex -21980.107241389596 27363.630221423165 13.999999999995518
    vertex -21980.107241389596 27363.630221423165 59.49999999999992
  endloop
endfacet
facet normal -1.1795883795840058e-14 -1.0 3.592732292071751e-15
  outer loop
    vertex -21989.6072413896 27363.630221423165 60.56582624879379
    vertex -21980.107241389596 27363.630221423165 59.49999999999992
    vertex -21981.401336615112 27363.630221423165 59.67037086855458
  endloop
endfacet
facet normal -1.1795883795840058e-14 -1.0 3.592732292071751e-15
  outer loop
    vertex -21989.6072413896 27363.630221423165 60.56582624879379
    vertex -21981.401336615112 27363.630221423165 59.67037086855458
    vertex -21982.6072413896 27363.630221423165 60.169872981077724
  endloop
endfacet
facet normal -1.1795883795840058e-14 -1.0 3.592732292071751e-15
  outer loop
    vertex -21989.6072413896 27363.630221423165 60.56582624879379
    vertex -21982.6072413896 27363.630221423165 60.169872981077724
    vertex -21983.64277529553 27363.630221423165 60.96446609406717
  endloop
endfacet
facet normal -1.1795883795840058e-14 -1.0 3.592732292071751e-15
  outer loop
    vertex -21989.6072413896 27363.630221423165 60.56582624879379
    vertex -21983.64277529553 27363.630221423165 60.96446609406717
    vertex -21989.07196520919 27363.630221423165 60.636296694843715
  endloop
endfacet
facet normal -1.1795883795840058e-14 -1.0 3.592732292071751e-15
  outer loop
    vertex -21989.07196520919 27363.630221423165 60.636296694843715
    vertex -21983.64277529553 27363.630221423165 60.96446609406717
    vertex -21988.1072413896 27363.630221423165 61.035898384862236
  endloop
endfacet
facet normal -1.1795883795840058e-14 -1.0 3.592732292071751e-15
  outer loop
    vertex -21988.1072413896 27363.630221423165 61.035898384862236
    vertex -21983.64277529553 27363.630221423165 60.96446609406717
    vertex -21984.43736840852 27363.630221423165 61.9999999999999
  endloop
endfacet
facet normal -1.1795883795840058e-14 -1.0 3.592732292071751e-15
  outer loop
    vertex -21988.1072413896 27363.630221423165 61.035898384862236
    vertex -21984.43736840852 27363.630221423165 61.9999999999999
    vertex -21987.27881426485 27363.630221423165 61.671572875253794
  endloop
endfacet
facet normal -1.1795883795840058e-14 -1.0 3.592732292071751e-15
  outer loop
    vertex -21987.27881426485 27363.630221423165 61.671572875253794
    vertex -21984.43736840852 27363.630221423165 61.9999999999999
    vertex -21986.64313977446 27363.630221423165 62.499999999999986
  endloop
endfacet
facet normal -1.1795883795840058e-14 -1.0 3.592732292071751e-15
  outer loop
    vertex -21986.64313977446 27363.630221423165 62.499999999999986
    vertex -21984.43736840852 27363.630221423165 61.9999999999999
    vertex -21984.936870521044 27363.630221423165 63.20590477448728
  endloop
endfacet
facet normal -1.1795883795840058e-14 -1.0 3.592732292071751e-15
  outer loop
    vertex -21986.64313977446 27363.630221423165 62.499999999999986
    vertex -21984.936870521044 27363.630221423165 63.20590477448728
    vertex -21986.24353808444 27363.630221423165 63.46472381958991
  endloop
endfacet
facet normal -1.1795883795840058e-14 -1.0 3.592732292071751e-15
  outer loop
    vertex -21986.24353808444 27363.630221423165 63.46472381958991
    vertex -21984.936870521044 27363.630221423165 63.20590477448728
    vertex -21985.1072413896 27363.630221423165 64.49999999999987
  endloop
endfacet
facet normal -1.1795883795840058e-14 -1.0 3.592732292071751e-15
  outer loop
    vertex -21986.24353808444 27363.630221423165 63.46472381958991
    vertex -21985.1072413896 27363.630221423165 64.49999999999987
    vertex -21986.1072413896 27363.630221423165 64.5
  endloop
endfacet
facet normal 1.1416064372656238e-13 1.0 -2.201953756120232e-13
  outer loop
    vertex -21997.6072413896 27387.630221423165 37.99999999999981
    vertex -21975.6072413896 27387.63022142316 32.80903533472306
    vertex -21997.6072413896 27387.630221423165 32.80903533472279
  endloop
endfacet
facet normal 1.1416064372656238e-13 1.0 -2.201953756120232e-13
  outer loop
    vertex -21975.6072413896 27387.63022142316 32.80903533472306
    vertex -21997.6072413896 27387.630221423165 37.99999999999981
    vertex -21975.6072413896 27387.630221423165 37.99999999999981
  endloop
endfacet
facet normal 2.6277094386920407e-14 3.3716486851966126e-14 1.0
  outer loop
    vertex -21989.6072413896 27376.23022142316 50.50000000000117
    vertex -21997.6072413896 27387.630221423165 50.49999999999973
    vertex -21997.6072413896 27376.23022142316 50.5000000000009
  endloop
endfacet
facet normal 2.6277094386920407e-14 3.3716486851966126e-14 1.0
  outer loop
    vertex -21997.6072413896 27387.630221423165 50.49999999999973
    vertex -21989.6072413896 27376.23022142316 50.50000000000117
    vertex -21975.6072413896 27387.630221423165 50.5
  endloop
endfacet
facet normal 2.6277094386920407e-14 3.3716486851966126e-14 1.0
  outer loop
    vertex -21975.6072413896 27387.630221423165 50.5
    vertex -21989.6072413896 27376.23022142316 50.50000000000117
    vertex -21975.6072413896 27376.23022142316 50.5
  endloop
endfacet
facet normal -1.245247613513424e-14 -8.584106505949854e-15 1.0
  outer loop
    vertex -21975.6072413896 27374.23022142316 20.56623533472354
    vertex -21989.6072413896 27376.230221423168 20.566235334722876
    vertex -21989.6072413896 27374.230221423168 20.56623533472354
  endloop
endfacet
facet normal -1.245247613513424e-14 -8.584106505949854e-15 1.0
  outer loop
    vertex -21989.6072413896 27376.230221423168 20.566235334722876
    vertex -22002.1072413896 27387.630221423165 20.56623533472335
    vertex -22002.1072413896 27376.230221423168 20.56623533472288
  endloop
endfacet
facet normal -1.245247613513424e-14 -8.584106505949854e-15 1.0
  outer loop
    vertex -22002.1072413896 27387.630221423165 20.56623533472335
    vertex -21989.6072413896 27376.230221423168 20.566235334722876
    vertex -21975.6072413896 27387.63022142316 20.56623533472335
  endloop
endfacet
facet normal -1.245247613513424e-14 -8.584106505949854e-15 1.0
  outer loop
    vertex -21975.6072413896 27387.63022142316 20.56623533472335
    vertex -21989.6072413896 27376.230221423168 20.566235334722876
    vertex -21975.6072413896 27374.23022142316 20.56623533472354
  endloop
endfacet
facet normal 1.2690221087781842e-14 -4.717995546056722e-14 -1.0
  outer loop
    vertex -21997.6072413896 27387.630221423165 32.80903533472279
    vertex -21989.6072413896 27376.230221423168 32.809035334723475
    vertex -21997.6072413896 27376.230221423168 32.809035334723205
  endloop
endfacet
facet normal 1.2690221087781842e-14 -4.717995546056722e-14 -1.0
  outer loop
    vertex -21989.6072413896 27376.230221423168 32.809035334723475
    vertex -21997.6072413896 27387.630221423165 32.80903533472279
    vertex -21975.6072413896 27387.63022142316 32.80903533472306
  endloop
endfacet
facet normal 1.2690221087781842e-14 -4.717995546056722e-14 -1.0
  outer loop
    vertex -21989.6072413896 27376.230221423168 32.809035334723475
    vertex -21975.6072413896 27387.63022142316 32.80903533472306
    vertex -21975.6072413896 27374.23022142316 32.80903533472364
  endloop
endfacet
facet normal 1.2690221087781842e-14 -4.717995546056722e-14 -1.0
  outer loop
    vertex -21975.6072413896 27374.23022142316 32.80903533472364
    vertex -21989.6072413896 27374.230221423168 32.809035334723625
    vertex -21989.6072413896 27376.230221423168 32.809035334723475
  endloop
endfacet
facet normal 1.1202073751364394e-13 1.0 1.9692263767921316e-30
  outer loop
    vertex -21989.6072413896 27374.230221423168 32.809035334723625
    vertex -21975.6072413896 27374.23022142316 20.56623533472354
    vertex -21989.6072413896 27374.230221423168 20.56623533472354
  endloop
endfacet
facet normal 1.1202073751364394e-13 1.0 1.9692263767921316e-30
  outer loop
    vertex -21975.6072413896 27374.23022142316 20.56623533472354
    vertex -21989.6072413896 27374.230221423168 32.809035334723625
    vertex -21975.6072413896 27374.23022142316 32.80903533472364
  endloop
endfacet
facet normal -1.0 1.4248251701292582e-13 -1.0430307265834427e-13
  outer loop
    vertex -21997.607241389604 27376.230221423168 38.000000000012776
    vertex -21997.6072413896 27387.630221423165 32.80903533472279
    vertex -21997.6072413896 27376.230221423168 32.809035334723205
  endloop
endfacet
facet normal -1.0 1.4248251701292582e-13 -1.0430307265834427e-13
  outer loop
    vertex -21997.6072413896 27387.630221423165 32.80903533472279
    vertex -21997.607241389604 27376.230221423168 38.000000000012776
    vertex -21997.6072413896 27387.630221423165 37.99999999999981
  endloop
endfacet
facet normal 0.664363838831185 6.61812048309963e-14 -0.747409318682535
  outer loop
    vertex -21975.6072413896 27387.630221423165 12.99999999999981
    vertex -21976.39250281924 27363.630221423165 12.301989840315409
    vertex -21976.39250281924 27387.630221423165 12.301989840319644
  endloop
endfacet
facet normal 0.664363838831185 6.61812048309963e-14 -0.747409318682535
  outer loop
    vertex -21976.39250281924 27363.630221423165 12.301989840315409
    vertex -21975.6072413896 27387.630221423165 12.99999999999981
    vertex -21975.6072413896 27363.630221423165 13.000000000000002
  endloop
endfacet
facet normal -2.213673688800651e-12 8.854694755200495e-14 -1.0
  outer loop
    vertex -21985.1072413896 27387.630221423165 8.999999999999808
    vertex -21986.1072413896 27363.630221423165 9.000000000000002
    vertex -21986.1072413896 27387.630221423165 8.999999999999808
  endloop
endfacet
facet normal -2.213673688800651e-12 8.854694755200495e-14 -1.0
  outer loop
    vertex -21986.1072413896 27363.630221423165 9.000000000000002
    vertex -21985.1072413896 27387.630221423165 8.999999999999808
    vertex -21985.1072413896 27363.630221423165 8.999999999995575
  endloop
endfacet
facet normal -0.9914448613737741 0.0 -0.13052619222032788
  outer loop
    vertex -21986.24353808444 27387.630221423165 10.035276180409891
    vertex -21986.1072413896 27363.630221423165 9.000000000000002
    vertex -21986.24353808444 27363.630221423165 10.035276180410085
  endloop
endfacet
facet normal -0.9914448613737741 0.0 -0.13052619222032788
  outer loop
    vertex -21986.1072413896 27363.630221423165 9.000000000000002
    vertex -21986.24353808444 27387.630221423165 10.035276180409891
    vertex -21986.1072413896 27387.630221423165 8.999999999999808
  endloop
endfacet
facet normal -0.9238795325113814 -0.0 -0.3826834323648613
  outer loop
    vertex -21986.64313977446 27387.630221423165 10.999999999999806
    vertex -21986.24353808444 27363.630221423165 10.035276180410085
    vertex -21986.64313977446 27363.630221423165 11.0
  endloop
endfacet
facet normal -0.9238795325113814 -0.0 -0.3826834323648613
  outer loop
    vertex -21986.24353808444 27363.630221423165 10.035276180410085
    vertex -21986.64313977446 27387.630221423165 10.999999999999806
    vertex -21986.24353808444 27387.630221423165 10.035276180409891
  endloop
endfacet
facet normal -0.7933533402910817 -0.0 -0.6087614290089206
  outer loop
    vertex -21987.27881426485 27387.630221423165 11.828427124745998
    vertex -21986.64313977446 27363.630221423165 11.0
    vertex -21987.27881426485 27363.630221423165 11.828427124746192
  endloop
endfacet
facet normal -0.7933533402910817 -0.0 -0.6087614290089206
  outer loop
    vertex -21986.64313977446 27363.630221423165 11.0
    vertex -21987.27881426485 27387.630221423165 11.828427124745998
    vertex -21986.64313977446 27387.630221423165 10.999999999999806
  endloop
endfacet
facet normal -0.6087614290087562 -0.0 -0.793353340291208
  outer loop
    vertex -21987.27881426485 27387.630221423165 11.828427124745998
    vertex -21988.1072413896 27363.630221423165 12.464101615137753
    vertex -21988.1072413896 27387.630221423165 12.464101615137562
  endloop
endfacet
facet normal -0.6087614290087562 -0.0 -0.793353340291208
  outer loop
    vertex -21988.1072413896 27363.630221423165 12.464101615137753
    vertex -21987.27881426485 27387.630221423165 11.828427124745998
    vertex -21987.27881426485 27363.630221423165 11.828427124746192
  endloop
endfacet
facet normal -0.38268343236514096 -0.0 -0.9238795325112655
  outer loop
    vertex -21988.1072413896 27387.630221423165 12.464101615137562
    vertex -21989.07196520919 27363.630221423165 12.863703305156275
    vertex -21989.07196520919 27387.630221423165 12.863703305156083
  endloop
endfacet
facet normal -0.38268343236514096 -0.0 -0.9238795325112655
  outer loop
    vertex -21989.07196520919 27363.630221423165 12.863703305156275
    vertex -21988.1072413896 27387.630221423165 12.464101615137562
    vertex -21988.1072413896 27363.630221423165 12.464101615137753
  endloop
endfacet
facet normal -0.1305261922200445 9.703022862396439e-17 -0.9914448613738114
  outer loop
    vertex -21989.07196520919 27387.630221423165 12.863703305156083
    vertex -21990.1072413896 27376.23022142316 13.000000000000002
    vertex -21990.1072413896 27387.630221423165 12.99999999999981
  endloop
endfacet
facet normal -0.1305261922200445 9.703022862396439e-17 -0.9914448613738114
  outer loop
    vertex -21990.1072413896 27376.23022142316 13.000000000000002
    vertex -21989.07196520919 27387.630221423165 12.863703305156083
    vertex -21989.6072413896 27376.23022142316 12.934173751206318
  endloop
endfacet
facet normal -0.1305261922200445 9.703022862396439e-17 -0.9914448613738114
  outer loop
    vertex -21989.6072413896 27376.23022142316 12.934173751206318
    vertex -21989.07196520919 27387.630221423165 12.863703305156083
    vertex -21989.6072413896 27363.630221423165 12.934173751206318
  endloop
endfacet
facet normal -0.1305261922200445 9.703022862396439e-17 -0.9914448613738114
  outer loop
    vertex -21989.6072413896 27363.630221423165 12.934173751206318
    vertex -21989.07196520919 27387.630221423165 12.863703305156083
    vertex -21989.07196520919 27363.630221423165 12.863703305156275
  endloop
endfacet
facet normal -0.6643638388298951 1.2723325775044615e-14 -0.7474093186836817
  outer loop
    vertex -21975.6072413896 27374.23022142316 60.49999999999999
    vertex -21976.39250281924 27363.630221423165 61.19801015968008
    vertex -21976.39250281924 27374.23022142316 61.19801015968044
  endloop
endfacet
facet normal -0.6643638388298951 1.2723325775044615e-14 -0.7474093186836817
  outer loop
    vertex -21976.39250281924 27363.630221423165 61.19801015968008
    vertex -21975.6072413896 27374.23022142316 60.49999999999999
    vertex -21975.6072413896 27363.630221423165 60.49999999999999
  endloop
endfacet
facet normal -6.203926261606275e-14 2.8199664825480008e-14 -1.0
  outer loop
    vertex -21985.1072413896 27374.23022142316 64.50000000000023
    vertex -21986.1072413896 27363.630221423165 64.5
    vertex -21986.1072413896 27374.23022142316 64.50000000000023
  endloop
endfacet
facet normal -6.203926261606275e-14 2.8199664825480008e-14 -1.0
  outer loop
    vertex -21986.1072413896 27363.630221423165 64.5
    vertex -21985.1072413896 27374.23022142316 64.50000000000023
    vertex -21985.1072413896 27363.630221423165 64.49999999999987
  endloop
endfacet
facet normal 0.9914448613737741 3.667898100773729e-14 -0.1305261922203282
  outer loop
    vertex -21986.24353808444 27374.23022142316 63.464723819590155
    vertex -21986.1072413896 27363.630221423165 64.5
    vertex -21986.24353808444 27363.630221423165 63.46472381958991
  endloop
endfacet
facet normal 0.9914448613737741 3.667898100773729e-14 -0.1305261922203282
  outer loop
    vertex -21986.1072413896 27363.630221423165 64.5
    vertex -21986.24353808444 27374.23022142316 63.464723819590155
    vertex -21986.1072413896 27374.23022142316 64.50000000000023
  endloop
endfacet
facet normal 0.9238795325113832 -7.387993061347907e-15 -0.38268343236485697
  outer loop
    vertex -21986.643139774464 27374.23022142316 62.50000000000023
    vertex -21986.24353808444 27363.630221423165 63.46472381958991
    vertex -21986.64313977446 27363.630221423165 62.499999999999986
  endloop
endfacet
facet normal 0.9238795325113832 -7.387993061347907e-15 -0.38268343236485697
  outer loop
    vertex -21986.24353808444 27363.630221423165 63.46472381958991
    vertex -21986.643139774464 27374.23022142316 62.50000000000023
    vertex -21986.24353808444 27374.23022142316 63.464723819590155
  endloop
endfacet
facet normal 0.7933533402910808 -1.512333040719857e-15 -0.6087614290089219
  outer loop
    vertex -21987.27881426485 27363.630221423165 61.671572875253794
    vertex -21986.643139774464 27374.23022142316 62.50000000000023
    vertex -21986.64313977446 27363.630221423165 62.499999999999986
  endloop
endfacet
facet normal 0.7933533402910808 -1.512333040719857e-15 -0.6087614290089219
  outer loop
    vertex -21986.643139774464 27374.23022142316 62.50000000000023
    vertex -21987.27881426485 27363.630221423165 61.671572875253794
    vertex -21987.27881426485 27374.23022142316 61.671572875254036
  endloop
endfacet
facet normal 0.6087614290087544 4.4663899773670785e-15 -0.7933533402912093
  outer loop
    vertex -21987.27881426485 27374.23022142316 61.671572875254036
    vertex -21988.1072413896 27363.630221423165 61.035898384862236
    vertex -21988.1072413896 27374.23022142316 61.03589838486248
  endloop
endfacet
facet normal 0.6087614290087544 4.4663899773670785e-15 -0.7933533402912093
  outer loop
    vertex -21988.1072413896 27363.630221423165 61.035898384862236
    vertex -21987.27881426485 27374.23022142316 61.671572875254036
    vertex -21987.27881426485 27363.630221423165 61.671572875253794
  endloop
endfacet
facet normal 0.38268343236514096 1.0140735899561393e-14 -0.9238795325112655
  outer loop
    vertex -21988.1072413896 27374.23022142316 61.03589838486248
    vertex -21989.07196520919 27363.630221423165 60.636296694843715
    vertex -21989.07196520919 27374.23022142316 60.636296694843956
  endloop
endfacet
facet normal 0.38268343236514096 1.0140735899561393e-14 -0.9238795325112655
  outer loop
    vertex -21989.07196520919 27363.630221423165 60.636296694843715
    vertex -21988.1072413896 27374.23022142316 61.03589838486248
    vertex -21988.1072413896 27363.630221423165 61.035898384862236
  endloop
endfacet
facet normal 0.13052619222008013 1.3300084461024703e-14 -0.9914448613738068
  outer loop
    vertex -21989.07196520919 27374.23022142316 60.636296694843956
    vertex -21989.6072413896 27363.630221423165 60.56582624879379
    vertex -21989.6072413896 27374.23022142316 60.56582624879379
  endloop
endfacet
facet normal 0.13052619222008013 1.3300084461024703e-14 -0.9914448613738068
  outer loop
    vertex -21989.6072413896 27363.630221423165 60.56582624879379
    vertex -21989.07196520919 27374.23022142316 60.636296694843956
    vertex -21989.07196520919 27363.630221423165 60.636296694843715
  endloop
endfacet
facet normal -1.0151879337171728e-13 -1.0 -6.070618755156817e-13
  outer loop
    vertex -21989.6072413896 27376.23022142316 50.50000000000117
    vertex -21997.6072413896 27376.230221423168 45.00000000000039
    vertex -21989.6072413896 27376.230221423168 45.00000000000039
  endloop
endfacet
facet normal -1.0151879337171728e-13 -1.0 -6.070618755156817e-13
  outer loop
    vertex -21997.6072413896 27376.230221423168 45.00000000000039
    vertex -21989.6072413896 27376.23022142316 50.50000000000117
    vertex -21997.6072413896 27376.23022142316 50.5000000000009
  endloop
endfacet
facet normal -3.722355756962022e-13 -1.0 1.738384544313721e-14
  outer loop
    vertex -21989.6072413896 27376.230221423168 32.809035334723475
    vertex -21997.607241389604 27376.230221423168 38.000000000012776
    vertex -21997.6072413896 27376.230221423168 32.809035334723205
  endloop
endfacet
facet normal -3.722355756962022e-13 -1.0 1.738384544313721e-14
  outer loop
    vertex -21997.607241389604 27376.230221423168 38.000000000012776
    vertex -21989.6072413896 27376.230221423168 32.809035334723475
    vertex -21989.6072413896 27376.23022142316 38.00000000000426
  endloop
endfacet
facet normal -4.126940728573649e-15 1.0 4.234545786518668e-14
  outer loop
    vertex -21989.6072413896 27374.23022142316 60.56582624879379
    vertex -21975.6072413896 27374.23022142316 52.49999999999999
    vertex -21989.6072413896 27374.23022142316 52.49999999999999
  endloop
endfacet
facet normal -4.126940728573649e-15 1.0 4.234545786518668e-14
  outer loop
    vertex -21975.6072413896 27374.23022142316 52.49999999999999
    vertex -21989.6072413896 27374.23022142316 60.56582624879379
    vertex -21980.107241389596 27374.23022142316 59.500000000000284
  endloop
endfacet
facet normal -4.126940728573649e-15 1.0 4.234545786518668e-14
  outer loop
    vertex -21980.107241389596 27374.23022142316 59.500000000000284
    vertex -21989.6072413896 27374.23022142316 60.56582624879379
    vertex -21981.401336615112 27374.23022142316 59.67037086855494
  endloop
endfacet
facet normal -4.126940728573649e-15 1.0 4.234545786518668e-14
  outer loop
    vertex -21981.401336615112 27374.23022142316 59.67037086855494
    vertex -21989.6072413896 27374.23022142316 60.56582624879379
    vertex -21982.6072413896 27374.23022142316 60.169872981078086
  endloop
endfacet
facet normal -4.126940728573649e-15 1.0 4.234545786518668e-14
  outer loop
    vertex -21982.6072413896 27374.23022142316 60.169872981078086
    vertex -21989.6072413896 27374.23022142316 60.56582624879379
    vertex -21983.64277529553 27374.23022142316 60.96446609406753
  endloop
endfacet
facet normal -4.126940728573649e-15 1.0 4.234545786518668e-14
  outer loop
    vertex -21983.64277529553 27374.23022142316 60.96446609406753
    vertex -21989.6072413896 27374.23022142316 60.56582624879379
    vertex -21989.07196520919 27374.23022142316 60.636296694843956
  endloop
endfacet
facet normal -4.126940728573649e-15 1.0 4.234545786518668e-14
  outer loop
    vertex -21983.64277529553 27374.23022142316 60.96446609406753
    vertex -21989.07196520919 27374.23022142316 60.636296694843956
    vertex -21988.1072413896 27374.23022142316 61.03589838486248
  endloop
endfacet
facet normal -4.126940728573649e-15 1.0 4.234545786518668e-14
  outer loop
    vertex -21983.64277529553 27374.23022142316 60.96446609406753
    vertex -21988.1072413896 27374.23022142316 61.03589838486248
    vertex -21984.43736840852 27374.23022142316 62.000000000000256
  endloop
endfacet
facet normal -4.126940728573649e-15 1.0 4.234545786518668e-14
  outer loop
    vertex -21984.43736840852 27374.23022142316 62.000000000000256
    vertex -21988.1072413896 27374.23022142316 61.03589838486248
    vertex -21987.27881426485 27374.23022142316 61.671572875254036
  endloop
endfacet
facet normal -4.126940728573649e-15 1.0 4.234545786518668e-14
  outer loop
    vertex -21984.43736840852 27374.23022142316 62.000000000000256
    vertex -21987.27881426485 27374.23022142316 61.671572875254036
    vertex -21986.643139774464 27374.23022142316 62.50000000000023
  endloop
endfacet
facet normal -4.126940728573649e-15 1.0 4.234545786518668e-14
  outer loop
    vertex -21984.43736840852 27374.23022142316 62.000000000000256
    vertex -21986.643139774464 27374.23022142316 62.50000000000023
    vertex -21984.936870521044 27374.23022142316 63.20590477448764
  endloop
endfacet
facet normal -4.126940728573649e-15 1.0 4.234545786518668e-14
  outer loop
    vertex -21984.936870521044 27374.23022142316 63.20590477448764
    vertex -21986.643139774464 27374.23022142316 62.50000000000023
    vertex -21986.24353808444 27374.23022142316 63.464723819590155
  endloop
endfacet
facet normal -4.126940728573649e-15 1.0 4.234545786518668e-14
  outer loop
    vertex -21984.936870521044 27374.23022142316 63.20590477448764
    vertex -21986.24353808444 27374.23022142316 63.464723819590155
    vertex -21985.1072413896 27374.23022142316 64.50000000000023
  endloop
endfacet
facet normal -4.126940728573649e-15 1.0 4.234545786518668e-14
  outer loop
    vertex -21985.1072413896 27374.23022142316 64.50000000000023
    vertex -21986.24353808444 27374.23022142316 63.464723819590155
    vertex -21986.1072413896 27374.23022142316 64.50000000000023
  endloop
endfacet
facet normal -4.126940728573649e-15 1.0 4.234545786518668e-14
  outer loop
    vertex -21975.6072413896 27374.23022142316 52.49999999999999
    vertex -21978.813146164088 27374.23022142316 59.67037086855494
    vertex -21975.6072413896 27374.23022142316 60.49999999999999
  endloop
endfacet
facet normal -4.126940728573649e-15 1.0 4.234545786518668e-14
  outer loop
    vertex -21978.813146164088 27374.23022142316 59.67037086855494
    vertex -21975.6072413896 27374.23022142316 52.49999999999999
    vertex -21980.107241389596 27374.23022142316 59.500000000000284
  endloop
endfacet
facet normal -4.126940728573649e-15 1.0 4.234545786518668e-14
  outer loop
    vertex -21975.6072413896 27374.23022142316 60.49999999999999
    vertex -21978.813146164088 27374.23022142316 59.67037086855494
    vertex -21977.6072413896 27374.23022142316 60.169872981078086
  endloop
endfacet
facet normal -4.126940728573649e-15 1.0 4.234545786518668e-14
  outer loop
    vertex -21975.6072413896 27374.23022142316 60.49999999999999
    vertex -21977.6072413896 27374.23022142316 60.169872981078086
    vertex -21976.571707483665 27374.23022142316 60.96446609406753
  endloop
endfacet
facet normal -4.126940728573649e-15 1.0 4.234545786518668e-14
  outer loop
    vertex -21975.6072413896 27374.23022142316 60.49999999999999
    vertex -21976.571707483665 27374.23022142316 60.96446609406753
    vertex -21976.39250281924 27374.23022142316 61.19801015968044
  endloop
endfacet
facet normal -0.7933533402909887 -2.0730053840044337e-14 0.6087614290090418
  outer loop
    vertex -21976.39250281924 27374.23022142316 61.19801015968044
    vertex -21976.571707483665 27363.630221423165 60.96446609406717
    vertex -21976.39250281924 27363.630221423165 61.19801015968008
  endloop
endfacet
facet normal -0.7933533402909887 -2.0730053840044337e-14 0.6087614290090418
  outer loop
    vertex -21976.571707483665 27363.630221423165 60.96446609406717
    vertex -21976.39250281924 27374.23022142316 61.19801015968044
    vertex -21976.571707483665 27374.23022142316 60.96446609406753
  endloop
endfacet
facet normal -0.6087614290087517 -5.448787787682574e-14 0.7933533402912114
  outer loop
    vertex -21976.571707483665 27363.630221423165 60.96446609406717
    vertex -21977.6072413896 27374.23022142316 60.169872981078086
    vertex -21977.6072413896 27363.630221423165 60.169872981077724
  endloop
endfacet
facet normal -0.6087614290087517 -5.448787787682574e-14 0.7933533402912114
  outer loop
    vertex -21977.6072413896 27374.23022142316 60.169872981078086
    vertex -21976.571707483665 27363.630221423165 60.96446609406717
    vertex -21976.571707483665 27374.23022142316 60.96446609406753
  endloop
endfacet
facet normal -0.3826834323650169 -4.756743150588143e-14 0.9238795325113169
  outer loop
    vertex -21977.6072413896 27363.630221423165 60.169872981077724
    vertex -21978.813146164088 27374.23022142316 59.67037086855494
    vertex -21978.813146164088 27363.630221423165 59.67037086855458
  endloop
endfacet
facet normal -0.3826834323650169 -4.756743150588143e-14 0.9238795325113169
  outer loop
    vertex -21978.813146164088 27374.23022142316 59.67037086855494
    vertex -21977.6072413896 27363.630221423165 60.169872981077724
    vertex -21977.6072413896 27374.23022142316 60.169872981078086
  endloop
endfacet
facet normal -0.1305261922200588 -3.7405343286714734e-14 0.9914448613738095
  outer loop
    vertex -21978.813146164088 27363.630221423165 59.67037086855458
    vertex -21980.107241389596 27374.23022142316 59.500000000000284
    vertex -21980.107241389596 27363.630221423165 59.49999999999992
  endloop
endfacet
facet normal -0.1305261922200588 -3.7405343286714734e-14 0.9914448613738095
  outer loop
    vertex -21980.107241389596 27374.23022142316 59.500000000000284
    vertex -21978.813146164088 27363.630221423165 59.67037086855458
    vertex -21978.813146164088 27374.23022142316 59.67037086855494
  endloop
endfacet
facet normal 0.1305261922200588 -2.4694142737807338e-14 0.9914448613738095
  outer loop
    vertex -21980.107241389596 27363.630221423165 59.49999999999992
    vertex -21981.401336615112 27374.23022142316 59.67037086855494
    vertex -21981.401336615112 27363.630221423165 59.67037086855458
  endloop
endfacet
facet normal 0.1305261922200588 -2.4694142737807338e-14 0.9914448613738095
  outer loop
    vertex -21981.401336615112 27374.23022142316 59.67037086855494
    vertex -21980.107241389596 27363.630221423165 59.49999999999992
    vertex -21980.107241389596 27374.23022142316 59.500000000000284
  endloop
endfacet
facet normal 0.38268343236511476 -1.0300077170318288e-14 0.9238795325112766
  outer loop
    vertex -21981.401336615112 27363.630221423165 59.67037086855458
    vertex -21982.6072413896 27374.23022142316 60.169872981078086
    vertex -21982.6072413896 27363.630221423165 60.169872981077724
  endloop
endfacet
facet normal 0.38268343236511476 -1.0300077170318288e-14 0.9238795325112766
  outer loop
    vertex -21982.6072413896 27374.23022142316 60.169872981078086
    vertex -21981.401336615112 27363.630221423165 59.67037086855458
    vertex -21981.401336615112 27374.23022142316 59.67037086855494
  endloop
endfacet
facet normal 0.6087614290086182 4.795921634635591e-15 0.7933533402913138
  outer loop
    vertex -21982.6072413896 27363.630221423165 60.169872981077724
    vertex -21983.64277529553 27374.23022142316 60.96446609406753
    vertex -21983.64277529553 27363.630221423165 60.96446609406717
  endloop
endfacet
facet normal 0.6087614290086182 4.795921634635591e-15 0.7933533402913138
  outer loop
    vertex -21983.64277529553 27374.23022142316 60.96446609406753
    vertex -21982.6072413896 27363.630221423165 60.169872981077724
    vertex -21982.6072413896 27374.23022142316 60.169872981078086
  endloop
endfacet
facet normal 0.793353340291212 1.9565086305838136e-14 0.608761429008751
  outer loop
    vertex -21983.64277529553 27374.23022142316 60.96446609406753
    vertex -21984.43736840852 27363.630221423165 61.9999999999999
    vertex -21983.64277529553 27363.630221423165 60.96446609406717
  endloop
endfacet
facet normal 0.793353340291212 1.9565086305838136e-14 0.608761429008751
  outer loop
    vertex -21984.43736840852 27363.630221423165 61.9999999999999
    vertex -21983.64277529553 27374.23022142316 60.96446609406753
    vertex -21984.43736840852 27374.23022142316 62.000000000000256
  endloop
endfacet
facet normal 0.9238795325113311 3.3000922678133766e-14 0.38268343236498265
  outer loop
    vertex -21984.43736840852 27363.630221423165 61.9999999999999
    vertex -21984.936870521044 27374.23022142316 63.20590477448764
    vertex -21984.936870521044 27363.630221423165 63.20590477448728
  endloop
endfacet
facet normal 0.9238795325113311 3.3000922678133766e-14 0.38268343236498265
  outer loop
    vertex -21984.936870521044 27374.23022142316 63.20590477448764
    vertex -21984.43736840852 27363.630221423165 61.9999999999999
    vertex -21984.43736840852 27374.23022142316 62.000000000000256
  endloop
endfacet
facet normal 0.9914448613738098 -4.4451122050810316e-15 0.13052619222005724
  outer loop
    vertex -21984.936870521044 27374.23022142316 63.20590477448764
    vertex -21985.1072413896 27363.630221423165 64.49999999999987
    vertex -21984.936870521044 27363.630221423165 63.20590477448728
  endloop
endfacet
facet normal 0.9914448613738098 -4.4451122050810316e-15 0.13052619222005724
  outer loop
    vertex -21985.1072413896 27363.630221423165 64.49999999999987
    vertex -21984.936870521044 27374.23022142316 63.20590477448764
    vertex -21985.1072413896 27374.23022142316 64.50000000000023
  endloop
endfacet
facet normal 0.9914448613738098 2.3115215430339004e-14 -0.13052619222005735
  outer loop
    vertex -21985.1072413896 27363.630221423165 8.999999999995575
    vertex -21984.936870521044 27387.630221423165 10.294095225512399
    vertex -21984.936870521044 27363.630221423165 10.294095225508164
  endloop
endfacet
facet normal 0.9914448613738098 2.3115215430339004e-14 -0.13052619222005735
  outer loop
    vertex -21984.936870521044 27387.630221423165 10.294095225512399
    vertex -21985.1072413896 27363.630221423165 8.999999999995575
    vertex -21985.1072413896 27387.630221423165 8.999999999999808
  endloop
endfacet
facet normal 0.9238795325113314 6.062588389201944e-14 -0.38268343236498226
  outer loop
    vertex -21984.936870521044 27363.630221423165 10.294095225508164
    vertex -21984.43736840852 27387.630221423165 11.499999999999782
    vertex -21984.43736840852 27363.630221423165 11.499999999995547
  endloop
endfacet
facet normal 0.9238795325113314 6.062588389201944e-14 -0.38268343236498226
  outer loop
    vertex -21984.43736840852 27387.630221423165 11.499999999999782
    vertex -21984.936870521044 27363.630221423165 10.294095225508164
    vertex -21984.936870521044 27387.630221423165 10.294095225512399
  endloop
endfacet
facet normal 0.7933533402912115 1.0165114173004199e-13 -0.6087614290087514
  outer loop
    vertex -21984.43736840852 27363.630221423165 11.499999999995547
    vertex -21983.64277529553 27387.630221423165 12.535533905932509
    vertex -21983.64277529553 27363.630221423165 12.535533905928274
  endloop
endfacet
facet normal 0.7933533402912115 1.0165114173004199e-13 -0.6087614290087514
  outer loop
    vertex -21983.64277529553 27387.630221423165 12.535533905932509
    vertex -21984.43736840852 27363.630221423165 11.499999999995547
    vertex -21984.43736840852 27387.630221423165 11.499999999999782
  endloop
endfacet
facet normal 0.6087614290087531 1.357490422455816e-13 -0.7933533402912103
  outer loop
    vertex -21982.6072413896 27387.630221423165 13.330127018921957
    vertex -21983.64277529553 27363.630221423165 12.535533905928274
    vertex -21983.64277529553 27387.630221423165 12.535533905932509
  endloop
endfacet
facet normal 0.6087614290087531 1.357490422455816e-13 -0.7933533402912103
  outer loop
    vertex -21983.64277529553 27363.630221423165 12.535533905928274
    vertex -21982.6072413896 27387.630221423165 13.330127018921957
    vertex -21982.6072413896 27363.630221423165 13.330127018917718
  endloop
endfacet
facet normal 0.3826834323650132 1.6059586986800496e-13 -0.9238795325113185
  outer loop
    vertex -21981.401336615112 27387.630221423165 13.829629131445099
    vertex -21982.6072413896 27363.630221423165 13.330127018917718
    vertex -21982.6072413896 27387.630221423165 13.330127018921957
  endloop
endfacet
facet normal 0.3826834323650132 1.6059586986800496e-13 -0.9238795325113185
  outer loop
    vertex -21982.6072413896 27363.630221423165 13.330127018917718
    vertex -21981.401336615112 27387.630221423165 13.829629131445099
    vertex -21981.401336615112 27363.630221423165 13.82962913144086
  endloop
endfacet
facet normal 0.13052619222006304 1.7449835435613018e-13 -0.9914448613738089
  outer loop
    vertex -21980.107241389596 27387.630221423165 13.999999999999757
    vertex -21981.401336615112 27363.630221423165 13.82962913144086
    vertex -21981.401336615112 27387.630221423165 13.829629131445099
  endloop
endfacet
facet normal 0.13052619222006304 1.7449835435613018e-13 -0.9914448613738089
  outer loop
    vertex -21981.401336615112 27363.630221423165 13.82962913144086
    vertex -21980.107241389596 27387.630221423165 13.999999999999757
    vertex -21980.107241389596 27363.630221423165 13.999999999995518
  endloop
endfacet
facet normal -0.13052619222006093 1.7650906436705712e-13 -0.9914448613738093
  outer loop
    vertex -21978.813146164088 27387.630221423165 13.8296291314451
    vertex -21980.107241389596 27363.630221423165 13.999999999995518
    vertex -21980.107241389596 27387.630221423165 13.999999999999757
  endloop
endfacet
facet normal -0.13052619222006093 1.7650906436705712e-13 -0.9914448613738093
  outer loop
    vertex -21980.107241389596 27363.630221423165 13.999999999995518
    vertex -21978.813146164088 27387.630221423165 13.8296291314451
    vertex -21978.813146164088 27363.630221423165 13.829629131440862
  endloop
endfacet
facet normal -0.38268343236511104 1.6649097333638831e-13 -0.9238795325112781
  outer loop
    vertex -21977.6072413896 27387.630221423165 13.33012701892196
    vertex -21978.813146164088 27363.630221423165 13.829629131440862
    vertex -21978.813146164088 27387.630221423165 13.8296291314451
  endloop
endfacet
facet normal -0.38268343236511104 1.6649097333638831e-13 -0.9238795325112781
  outer loop
    vertex -21978.813146164088 27363.630221423165 13.829629131440862
    vertex -21977.6072413896 27387.630221423165 13.33012701892196
    vertex -21977.6072413896 27363.630221423165 13.330127018917722
  endloop
endfacet
facet normal -0.6087614290086203 1.4512679761220258e-13 -0.7933533402913124
  outer loop
    vertex -21976.571707483665 27387.630221423165 12.53553390593251
    vertex -21977.6072413896 27363.630221423165 13.330127018917722
    vertex -21977.6072413896 27387.630221423165 13.33012701892196
  endloop
endfacet
facet normal -0.6087614290086203 1.4512679761220258e-13 -0.7933533402913124
  outer loop
    vertex -21977.6072413896 27363.630221423165 13.330127018917722
    vertex -21976.571707483665 27387.630221423165 12.53553390593251
    vertex -21976.571707483665 27363.630221423165 12.535533905928276
  endloop
endfacet
facet normal -0.7933533402909284 1.0780811470470947e-13 -0.6087614290091207
  outer loop
    vertex -21976.571707483665 27387.630221423165 12.53553390593251
    vertex -21976.39250281924 27363.630221423165 12.301989840315409
    vertex -21976.571707483665 27363.630221423165 12.535533905928276
  endloop
endfacet
facet normal -0.7933533402909284 1.0780811470470947e-13 -0.6087614290091207
  outer loop
    vertex -21976.39250281924 27363.630221423165 12.301989840315409
    vertex -21976.571707483665 27387.630221423165 12.53553390593251
    vertex -21976.39250281924 27387.630221423165 12.301989840319644
  endloop
endfacet
facet normal 2.521096759974894e-14 0.7071067811864443 0.7071067811866508
  outer loop
    vertex -21975.6072413896 27374.23022142316 52.49999999999999
    vertex -21989.6072413896 27376.23022142316 50.50000000000117
    vertex -21989.6072413896 27374.23022142316 52.49999999999999
  endloop
endfacet
facet normal 2.521096759974894e-14 0.7071067811864443 0.7071067811866508
  outer loop
    vertex -21989.6072413896 27376.23022142316 50.50000000000117
    vertex -21975.6072413896 27374.23022142316 52.49999999999999
    vertex -21975.6072413896 27376.23022142316 50.5
  endloop
endfacet
facet normal -1.0 1.61398977365821e-14 -2.2225647649247426e-15
  outer loop
    vertex -21989.6072413896 27374.23022142316 60.56582624879379
    vertex -21989.6072413896 27374.23022142316 38.000000000004654
    vertex -21989.6072413896 27363.630221423165 60.56582624879379
  endloop
endfacet
facet normal -1.0 1.61398977365821e-14 -2.2225647649247426e-15
  outer loop
    vertex -21989.6072413896 27374.23022142316 38.000000000004654
    vertex -21989.6072413896 27374.23022142316 60.56582624879379
    vertex -21989.6072413896 27374.23022142316 52.49999999999999
  endloop
endfacet
facet normal -1.0 1.61398977365821e-14 -2.2225647649247426e-15
  outer loop
    vertex -21989.6072413896 27374.23022142316 38.000000000004654
    vertex -21989.6072413896 27374.23022142316 52.49999999999999
    vertex -21989.6072413896 27374.230221423168 45.000000000000774
  endloop
endfacet
facet normal -1.0 1.61398977365821e-14 -2.2225647649247426e-15
  outer loop
    vertex -21989.6072413896 27374.230221423168 45.000000000000774
    vertex -21989.6072413896 27374.23022142316 52.49999999999999
    vertex -21989.6072413896 27376.23022142316 50.50000000000117
  endloop
endfacet
facet normal -1.0 1.61398977365821e-14 -2.2225647649247426e-15
  outer loop
    vertex -21989.6072413896 27374.230221423168 45.000000000000774
    vertex -21989.6072413896 27376.23022142316 50.50000000000117
    vertex -21989.6072413896 27376.230221423168 45.00000000000039
  endloop
endfacet
facet normal -1.0 1.61398977365821e-14 -2.2225647649247426e-15
  outer loop
    vertex -21989.6072413896 27376.23022142316 38.00000000000426
    vertex -21989.6072413896 27374.230221423168 32.809035334723625
    vertex -21989.6072413896 27374.23022142316 38.000000000004654
  endloop
endfacet
facet normal -1.0 1.61398977365821e-14 -2.2225647649247426e-15
  outer loop
    vertex -21989.6072413896 27374.230221423168 32.809035334723625
    vertex -21989.6072413896 27376.23022142316 38.00000000000426
    vertex -21989.6072413896 27376.230221423168 32.809035334723475
  endloop
endfacet
facet normal -1.0 1.61398977365821e-14 -2.2225647649247426e-15
  outer loop
    vertex -21989.6072413896 27363.630221423165 60.56582624879379
    vertex -21989.6072413896 27376.23022142316 12.934173751206318
    vertex -21989.6072413896 27363.630221423165 12.934173751206318
  endloop
endfacet
facet normal -1.0 1.61398977365821e-14 -2.2225647649247426e-15
  outer loop
    vertex -21989.6072413896 27376.23022142316 12.934173751206318
    vertex -21989.6072413896 27363.630221423165 60.56582624879379
    vertex -21989.6072413896 27374.230221423168 20.56623533472354
  endloop
endfacet
facet normal -1.0 1.61398977365821e-14 -2.2225647649247426e-15
  outer loop
    vertex -21989.6072413896 27374.230221423168 20.56623533472354
    vertex -21989.6072413896 27363.630221423165 60.56582624879379
    vertex -21989.6072413896 27374.23022142316 38.000000000004654
  endloop
endfacet
facet normal -1.0 1.61398977365821e-14 -2.2225647649247426e-15
  outer loop
    vertex -21989.6072413896 27374.230221423168 20.56623533472354
    vertex -21989.6072413896 27374.23022142316 38.000000000004654
    vertex -21989.6072413896 27374.230221423168 32.809035334723625
  endloop
endfacet
facet normal -1.0 1.61398977365821e-14 -2.2225647649247426e-15
  outer loop
    vertex -21989.6072413896 27376.23022142316 12.934173751206318
    vertex -21989.6072413896 27374.230221423168 20.56623533472354
    vertex -21989.6072413896 27376.230221423168 20.566235334722876
  endloop
endfacet
facet normal -8.187137604634025e-14 -1.0 2.2918459745468555e-13
  outer loop
    vertex -21989.6072413896 27376.230221423168 20.566235334722876
    vertex -21990.1072413896 27376.23022142316 13.000000000000002
    vertex -21989.6072413896 27376.23022142316 12.934173751206318
  endloop
endfacet
facet normal -8.187137604634025e-14 -1.0 2.2918459745468555e-13
  outer loop
    vertex -21990.1072413896 27376.23022142316 13.000000000000002
    vertex -22002.1072413896 27376.230221423168 20.56623533472288
    vertex -22002.1072413896 27376.23022142316 12.99999999999934
  endloop
endfacet
facet normal -8.187137604634025e-14 -1.0 2.2918459745468555e-13
  outer loop
    vertex -22002.1072413896 27376.230221423168 20.56623533472288
    vertex -21990.1072413896 27376.23022142316 13.000000000000002
    vertex -21989.6072413896 27376.230221423168 20.566235334722876
  endloop
endfacet
facet normal 2.7612171808281533e-14 2.6721456588660158e-14 -1.0
  outer loop
    vertex -21990.1072413896 27387.630221423165 12.99999999999981
    vertex -22002.1072413896 27376.23022142316 12.99999999999934
    vertex -22002.1072413896 27387.630221423165 12.99999999999981
  endloop
endfacet
facet normal 2.7612171808281533e-14 2.6721456588660158e-14 -1.0
  outer loop
    vertex -22002.1072413896 27376.23022142316 12.99999999999934
    vertex -21990.1072413896 27387.630221423165 12.99999999999981
    vertex -21990.1072413896 27376.23022142316 13.000000000000002
  endloop
endfacet
facet normal 7.842202104124852e-14 1.0 1.6678639626576025e-13
  outer loop
    vertex -22002.1072413896 27387.630221423165 20.56623533472335
    vertex -21990.1072413896 27387.630221423165 12.99999999999981
    vertex -22002.1072413896 27387.630221423165 12.99999999999981
  endloop
endfacet
facet normal 7.842202104124852e-14 1.0 1.6678639626576025e-13
  outer loop
    vertex -21990.1072413896 27387.630221423165 12.99999999999981
    vertex -22002.1072413896 27387.630221423165 20.56623533472335
    vertex -21982.6072413896 27387.630221423165 13.330127018921957
  endloop
endfacet
facet normal 7.842202104124852e-14 1.0 1.6678639626576025e-13
  outer loop
    vertex -21982.6072413896 27387.630221423165 13.330127018921957
    vertex -22002.1072413896 27387.630221423165 20.56623533472335
    vertex -21981.401336615112 27387.630221423165 13.829629131445099
  endloop
endfacet
facet normal 7.842202104124852e-14 1.0 1.6678639626576025e-13
  outer loop
    vertex -21981.401336615112 27387.630221423165 13.829629131445099
    vertex -22002.1072413896 27387.630221423165 20.56623533472335
    vertex -21980.107241389596 27387.630221423165 13.999999999999757
  endloop
endfacet
facet normal 7.842202104124852e-14 1.0 1.6678639626576025e-13
  outer loop
    vertex -21976.571707483665 27387.630221423165 12.53553390593251
    vertex -21975.6072413896 27387.630221423165 12.99999999999981
    vertex -21976.39250281924 27387.630221423165 12.301989840319644
  endloop
endfacet
facet normal 7.842202104124852e-14 1.0 1.6678639626576025e-13
  outer loop
    vertex -21975.6072413896 27387.630221423165 12.99999999999981
    vertex -21976.571707483665 27387.630221423165 12.53553390593251
    vertex -21977.6072413896 27387.630221423165 13.33012701892196
  endloop
endfacet
facet normal 7.842202104124852e-14 1.0 1.6678639626576025e-13
  outer loop
    vertex -21975.6072413896 27387.630221423165 12.99999999999981
    vertex -21977.6072413896 27387.630221423165 13.33012701892196
    vertex -21975.6072413896 27387.63022142316 20.56623533472335
  endloop
endfacet
facet normal 7.842202104124852e-14 1.0 1.6678639626576025e-13
  outer loop
    vertex -21975.6072413896 27387.63022142316 20.56623533472335
    vertex -21977.6072413896 27387.630221423165 13.33012701892196
    vertex -21978.813146164088 27387.630221423165 13.8296291314451
  endloop
endfacet
facet normal 7.842202104124852e-14 1.0 1.6678639626576025e-13
  outer loop
    vertex -21975.6072413896 27387.63022142316 20.56623533472335
    vertex -21978.813146164088 27387.630221423165 13.8296291314451
    vertex -21980.107241389596 27387.630221423165 13.999999999999757
  endloop
endfacet
facet normal 7.842202104124852e-14 1.0 1.6678639626576025e-13
  outer loop
    vertex -21975.6072413896 27387.63022142316 20.56623533472335
    vertex -21980.107241389596 27387.630221423165 13.999999999999757
    vertex -22002.1072413896 27387.630221423165 20.56623533472335
  endloop
endfacet
facet normal 7.842202104124852e-14 1.0 1.6678639626576025e-13
  outer loop
    vertex -21986.24353808444 27387.630221423165 10.035276180409891
    vertex -21985.1072413896 27387.630221423165 8.999999999999808
    vertex -21986.1072413896 27387.630221423165 8.999999999999808
  endloop
endfacet
facet normal 7.842202104124852e-14 1.0 1.6678639626576025e-13
  outer loop
    vertex -21985.1072413896 27387.630221423165 8.999999999999808
    vertex -21986.24353808444 27387.630221423165 10.035276180409891
    vertex -21984.936870521044 27387.630221423165 10.294095225512399
  endloop
endfacet
facet normal 7.842202104124852e-14 1.0 1.6678639626576025e-13
  outer loop
    vertex -21984.936870521044 27387.630221423165 10.294095225512399
    vertex -21986.24353808444 27387.630221423165 10.035276180409891
    vertex -21986.64313977446 27387.630221423165 10.999999999999806
  endloop
endfacet
facet normal 7.842202104124852e-14 1.0 1.6678639626576025e-13
  outer loop
    vertex -21984.936870521044 27387.630221423165 10.294095225512399
    vertex -21986.64313977446 27387.630221423165 10.999999999999806
    vertex -21984.43736840852 27387.630221423165 11.499999999999782
  endloop
endfacet
facet normal 7.842202104124852e-14 1.0 1.6678639626576025e-13
  outer loop
    vertex -21984.43736840852 27387.630221423165 11.499999999999782
    vertex -21986.64313977446 27387.630221423165 10.999999999999806
    vertex -21987.27881426485 27387.630221423165 11.828427124745998
  endloop
endfacet
facet normal 7.842202104124852e-14 1.0 1.6678639626576025e-13
  outer loop
    vertex -21984.43736840852 27387.630221423165 11.499999999999782
    vertex -21987.27881426485 27387.630221423165 11.828427124745998
    vertex -21983.64277529553 27387.630221423165 12.535533905932509
  endloop
endfacet
facet normal 7.842202104124852e-14 1.0 1.6678639626576025e-13
  outer loop
    vertex -21983.64277529553 27387.630221423165 12.535533905932509
    vertex -21987.27881426485 27387.630221423165 11.828427124745998
    vertex -21988.1072413896 27387.630221423165 12.464101615137562
  endloop
endfacet
facet normal 7.842202104124852e-14 1.0 1.6678639626576025e-13
  outer loop
    vertex -21983.64277529553 27387.630221423165 12.535533905932509
    vertex -21988.1072413896 27387.630221423165 12.464101615137562
    vertex -21989.07196520919 27387.630221423165 12.863703305156083
  endloop
endfacet
facet normal 7.842202104124852e-14 1.0 1.6678639626576025e-13
  outer loop
    vertex -21983.64277529553 27387.630221423165 12.535533905932509
    vertex -21989.07196520919 27387.630221423165 12.863703305156083
    vertex -21982.6072413896 27387.630221423165 13.330127018921957
  endloop
endfacet
facet normal 7.842202104124852e-14 1.0 1.6678639626576025e-13
  outer loop
    vertex -21982.6072413896 27387.630221423165 13.330127018921957
    vertex -21989.07196520919 27387.630221423165 12.863703305156083
    vertex -21990.1072413896 27387.630221423165 12.99999999999981
  endloop
endfacet
facet normal -1.0 7.519910620127552e-14 -1.804778548830858e-13
  outer loop
    vertex -22002.1072413896 27376.230221423168 20.56623533472288
    vertex -22002.1072413896 27387.630221423165 12.99999999999981
    vertex -22002.1072413896 27376.23022142316 12.99999999999934
  endloop
endfacet
facet normal -1.0 7.519910620127552e-14 -1.804778548830858e-13
  outer loop
    vertex -22002.1072413896 27387.630221423165 12.99999999999981
    vertex -22002.1072413896 27376.230221423168 20.56623533472288
    vertex -22002.1072413896 27387.630221423165 20.56623533472335
  endloop
endfacet
facet normal -4.101769429160064e-15 1.0 -4.9221233149928306e-14
  outer loop
    vertex -21997.6072413896 27387.630221423165 50.49999999999973
    vertex -21975.6072413896 27387.630221423165 44.99999999999981
    vertex -21997.6072413896 27387.630221423165 44.99999999999981
  endloop
endfacet
facet normal -4.101769429160064e-15 1.0 -4.9221233149928306e-14
  outer loop
    vertex -21975.6072413896 27387.630221423165 44.99999999999981
    vertex -21997.6072413896 27387.630221423165 50.49999999999973
    vertex -21975.6072413896 27387.630221423165 50.5
  endloop
endfacet
facet normal -4.15986949927627e-28 -5.145202003246807e-14 -1.0
  outer loop
    vertex -21997.6072413896 27387.630221423165 44.99999999999981
    vertex -21989.6072413896 27376.230221423168 45.00000000000039
    vertex -21997.6072413896 27376.230221423168 45.00000000000039
  endloop
endfacet
facet normal -4.15986949927627e-28 -5.145202003246807e-14 -1.0
  outer loop
    vertex -21989.6072413896 27376.230221423168 45.00000000000039
    vertex -21997.6072413896 27387.630221423165 44.99999999999981
    vertex -21975.6072413896 27387.630221423165 44.99999999999981
  endloop
endfacet
facet normal -4.15986949927627e-28 -5.145202003246807e-14 -1.0
  outer loop
    vertex -21989.6072413896 27376.230221423168 45.00000000000039
    vertex -21975.6072413896 27387.630221423165 44.99999999999981
    vertex -21989.6072413896 27374.230221423168 45.000000000000774
  endloop
endfacet
facet normal -4.15986949927627e-28 -5.145202003246807e-14 -1.0
  outer loop
    vertex -21989.6072413896 27374.230221423168 45.000000000000774
    vertex -21975.6072413896 27387.630221423165 44.99999999999981
    vertex -21975.6072413896 27374.230221423168 45.000000000000774
  endloop
endfacet
facet normal 2.6855288967679283e-13 5.031662930259569e-13 1.0
  outer loop
    vertex -21989.6072413896 27376.23022142316 38.00000000000426
    vertex -21997.6072413896 27387.630221423165 37.99999999999981
    vertex -21997.607241389604 27376.230221423168 38.000000000012776
  endloop
endfacet
facet normal 2.6855288967679283e-13 5.031662930259569e-13 1.0
  outer loop
    vertex -21997.6072413896 27387.630221423165 37.99999999999981
    vertex -21989.6072413896 27376.23022142316 38.00000000000426
    vertex -21975.6072413896 27387.630221423165 37.99999999999981
  endloop
endfacet
facet normal 2.6855288967679283e-13 5.031662930259569e-13 1.0
  outer loop
    vertex -21975.6072413896 27387.630221423165 37.99999999999981
    vertex -21989.6072413896 27376.23022142316 38.00000000000426
    vertex -21989.6072413896 27374.23022142316 38.000000000004654
  endloop
endfacet
facet normal 2.6855288967679283e-13 5.031662930259569e-13 1.0
  outer loop
    vertex -21975.6072413896 27387.630221423165 37.99999999999981
    vertex -21989.6072413896 27374.23022142316 38.000000000004654
    vertex -21975.6072413896 27374.230221423168 38.00000000000078
  endloop
endfacet
facet normal -1.0 1.58313907792232e-14 9.844246629985877e-14
  outer loop
    vertex -21997.6072413896 27387.630221423165 50.49999999999973
    vertex -21997.6072413896 27376.230221423168 45.00000000000039
    vertex -21997.6072413896 27376.23022142316 50.5000000000009
  endloop
endfacet
facet normal -1.0 1.58313907792232e-14 9.844246629985877e-14
  outer loop
    vertex -21997.6072413896 27376.230221423168 45.00000000000039
    vertex -21997.6072413896 27387.630221423165 50.49999999999973
    vertex -21997.6072413896 27387.630221423165 44.99999999999981
  endloop
endfacet
facet normal 1.0 -2.11914262435845e-14 -1.589722628176285e-14
  outer loop
    vertex -21975.6072413896 27363.630221423165 13.000000000000002
    vertex -21975.6072413896 27374.23022142316 20.56623533472354
    vertex -21975.6072413896 27363.630221423165 60.49999999999999
  endloop
endfacet
facet normal 1.0 -2.11914262435845e-14 -1.589722628176285e-14
  outer loop
    vertex -21975.6072413896 27374.23022142316 20.56623533472354
    vertex -21975.6072413896 27363.630221423165 13.000000000000002
    vertex -21975.6072413896 27387.630221423165 12.99999999999981
  endloop
endfacet
facet normal 1.0 -2.11914262435845e-14 -1.589722628176285e-14
  outer loop
    vertex -21975.6072413896 27374.23022142316 20.56623533472354
    vertex -21975.6072413896 27387.630221423165 12.99999999999981
    vertex -21975.6072413896 27387.63022142316 20.56623533472335
  endloop
endfacet
facet normal 1.0 -2.11914262435845e-14 -1.589722628176285e-14
  outer loop
    vertex -21975.6072413896 27374.23022142316 32.80903533472364
    vertex -21975.6072413896 27374.230221423168 38.00000000000078
    vertex -21975.6072413896 27374.23022142316 52.49999999999999
  endloop
endfacet
facet normal 1.0 -2.11914262435845e-14 -1.589722628176285e-14
  outer loop
    vertex -21975.6072413896 27374.230221423168 38.00000000000078
    vertex -21975.6072413896 27374.23022142316 32.80903533472364
    vertex -21975.6072413896 27387.63022142316 32.80903533472306
  endloop
endfacet
facet normal 1.0 -2.11914262435845e-14 -1.589722628176285e-14
  outer loop
    vertex -21975.6072413896 27374.230221423168 38.00000000000078
    vertex -21975.6072413896 27387.63022142316 32.80903533472306
    vertex -21975.6072413896 27387.630221423165 37.99999999999981
  endloop
endfacet
facet normal 1.0 -2.11914262435845e-14 -1.589722628176285e-14
  outer loop
    vertex -21975.6072413896 27374.23022142316 52.49999999999999
    vertex -21975.6072413896 27374.230221423168 45.000000000000774
    vertex -21975.6072413896 27376.23022142316 50.5
  endloop
endfacet
facet normal 1.0 -2.11914262435845e-14 -1.589722628176285e-14
  outer loop
    vertex -21975.6072413896 27374.230221423168 45.000000000000774
    vertex -21975.6072413896 27374.23022142316 52.49999999999999
    vertex -21975.6072413896 27374.230221423168 38.00000000000078
  endloop
endfacet
facet normal 1.0 -2.11914262435845e-14 -1.589722628176285e-14
  outer loop
    vertex -21975.6072413896 27376.23022142316 50.5
    vertex -21975.6072413896 27374.230221423168 45.000000000000774
    vertex -21975.6072413896 27387.630221423165 44.99999999999981
  endloop
endfacet
facet normal 1.0 -2.11914262435845e-14 -1.589722628176285e-14
  outer loop
    vertex -21975.6072413896 27376.23022142316 50.5
    vertex -21975.6072413896 27387.630221423165 44.99999999999981
    vertex -21975.6072413896 27387.630221423165 50.5
  endloop
endfacet
facet normal 1.0 -2.11914262435845e-14 -1.589722628176285e-14
  outer loop
    vertex -21975.6072413896 27363.630221423165 60.49999999999999
    vertex -21975.6072413896 27374.23022142316 32.80903533472364
    vertex -21975.6072413896 27374.23022142316 60.49999999999999
  endloop
endfacet
facet normal 1.0 -2.11914262435845e-14 -1.589722628176285e-14
  outer loop
    vertex -21975.6072413896 27374.23022142316 32.80903533472364
    vertex -21975.6072413896 27363.630221423165 60.49999999999999
    vertex -21975.6072413896 27374.23022142316 20.56623533472354
  endloop
endfacet
facet normal 1.0 -2.11914262435845e-14 -1.589722628176285e-14
  outer loop
    vertex -21975.6072413896 27374.23022142316 60.49999999999999
    vertex -21975.6072413896 27374.23022142316 32.80903533472364
    vertex -21975.6072413896 27374.23022142316 52.49999999999999
  endloop
endfacet
facet normal -1.7403221720870393e-13 1.0 -1.9336913023188434e-13
  outer loop
    vertex -21989.6072413896 27374.23022142316 38.000000000004654
    vertex -21975.6072413896 27374.230221423168 45.000000000000774
    vertex -21975.6072413896 27374.230221423168 38.00000000000078
  endloop
endfacet
facet normal -1.7403221720870393e-13 1.0 -1.9336913023188434e-13
  outer loop
    vertex -21975.6072413896 27374.230221423168 45.000000000000774
    vertex -21989.6072413896 27374.23022142316 38.000000000004654
    vertex -21989.6072413896 27374.230221423168 45.000000000000774
  endloop
endfacet
endsolid Main
