solid Main
facet normal -3.021392659872811e-16 1.6395153968301604e-17 -1.0
  outer loop
    vertex -21921.652316131534 27405.547996129048 3.74999999999981
    vertex -21925.152316131534 27387.047996129048 3.74999999999981
    vertex -21925.152316131534 27405.547996129048 3.7499999999998113
  endloop
endfacet
facet normal -3.021392659872811e-16 1.6395153968301604e-17 -1.0
  outer loop
    vertex -21925.152316131534 27387.047996129048 3.74999999999981
    vertex -21921.652316131534 27405.547996129048 3.74999999999981
    vertex -21921.652316131534 27387.047996129048 3.74999999999981
  endloop
endfacet
facet normal 0.0 0.0 1.0
  outer loop
    vertex -21921.652316131534 27387.047996129048 69.75
    vertex -21925.152316131534 27405.547996129048 69.75
    vertex -21925.152316131534 27387.047996129048 69.75
  endloop
endfacet
facet normal 0.0 0.0 1.0
  outer loop
    vertex -21925.152316131534 27405.547996129048 69.75
    vertex -21921.652316131534 27387.047996129048 69.75
    vertex -21921.652316131534 27405.547996129048 69.75
  endloop
endfacet
facet normal 5.287437154777556e-16 1.6395153968301604e-17 -1.0
  outer loop
    vertex -21925.152316131534 27407.547996129048 1.7499999999998106
    vertex -21927.152316131534 27385.047996129048 1.7499999999998106
    vertex -21927.152316131534 27407.547996129048 1.7499999999998106
  endloop
endfacet
facet normal 5.287437154777556e-16 1.6395153968301604e-17 -1.0
  outer loop
    vertex -21927.152316131534 27385.047996129048 1.7499999999998106
    vertex -21925.152316131534 27407.547996129048 1.7499999999998106
    vertex -21925.152316131534 27385.047996129048 1.7499999999998106
  endloop
endfacet
facet normal 0.0 0.0 1.0
  outer loop
    vertex -21925.152316131534 27385.047996129048 71.74999999999999
    vertex -21927.152316131534 27407.547996129048 71.74999999999999
    vertex -21927.152316131534 27385.047996129048 71.74999999999999
  endloop
endfacet
facet normal 0.0 0.0 1.0
  outer loop
    vertex -21927.152316131534 27407.547996129048 71.74999999999999
    vertex -21925.152316131534 27385.047996129048 71.74999999999999
    vertex -21925.152316131534 27407.547996129048 71.74999999999999
  endloop
endfacet
facet normal 0.0 1.0 0.0
  outer loop
    vertex -21927.152316131534 27407.547996129048 71.74999999999999
    vertex -21925.152316131534 27407.547996129048 1.7499999999998106
    vertex -21927.152316131534 27407.547996129048 1.7499999999998106
  endloop
endfacet
facet normal 0.0 1.0 0.0
  outer loop
    vertex -21925.152316131534 27407.547996129048 1.7499999999998106
    vertex -21927.152316131534 27407.547996129048 71.74999999999999
    vertex -21925.152316131534 27407.547996129048 71.74999999999999
  endloop
endfacet
facet normal 1.0 0.0 6.953538177230635e-14
  outer loop
    vertex -21925.152316131534 27387.047996129048 32.80903533472306
    vertex -21925.152316131534 27385.047996129048 37.999999999993484
    vertex -21925.152316131534 27385.047996129048 32.80903533472306
  endloop
endfacet
facet normal 1.0 0.0 6.953538177230635e-14
  outer loop
    vertex -21925.152316131534 27385.047996129048 37.999999999993484
    vertex -21925.152316131534 27387.047996129048 32.80903533472306
    vertex -21925.152316131534 27387.047996129048 37.999999999993484
  endloop
endfacet
facet normal 0.0 -1.0 0.0
  outer loop
    vertex -21925.152316131534 27385.047996129048 71.74999999999999
    vertex -21927.152316131534 27385.047996129048 60.5
    vertex -21925.152316131534 27385.047996129048 60.5
  endloop
endfacet
facet normal 0.0 -1.0 0.0
  outer loop
    vertex -21927.152316131534 27385.047996129048 60.5
    vertex -21925.152316131534 27385.047996129048 71.74999999999999
    vertex -21927.152316131534 27385.047996129048 71.74999999999999
  endloop
endfacet
facet normal 0.0 -1.0 0.0
  outer loop
    vertex -21921.652316131534 27387.047996129048 69.75
    vertex -21925.152316131534 27387.047996129048 60.5
    vertex -21921.652316131534 27387.047996129048 60.5
  endloop
endfacet
facet normal 0.0 -1.0 0.0
  outer loop
    vertex -21925.152316131534 27387.047996129048 60.5
    vertex -21921.652316131534 27387.047996129048 69.75
    vertex -21925.152316131534 27387.047996129048 69.75
  endloop
endfacet
facet normal 0.0 -1.0 0.0
  outer loop
    vertex -21921.652316131534 27403.547996129048 60.5
    vertex -21927.15231613153 27403.547996129048 50.50000000000001
    vertex -21921.652316131534 27403.547996129048 50.50000000000001
  endloop
endfacet
facet normal 0.0 -1.0 0.0
  outer loop
    vertex -21927.15231613153 27403.547996129048 50.50000000000001
    vertex -21921.652316131534 27403.547996129048 60.5
    vertex -21927.15231613153 27403.547996129048 60.5
  endloop
endfacet
facet normal 0.0 0.0 -1.0
  outer loop
    vertex -21921.652316131534 27403.547996129048 60.5
    vertex -21925.152316131534 27387.047996129048 60.5
    vertex -21927.15231613153 27403.547996129048 60.5
  endloop
endfacet
facet normal 0.0 0.0 -1.0
  outer loop
    vertex -21925.152316131534 27387.047996129048 60.5
    vertex -21921.652316131534 27403.547996129048 60.5
    vertex -21921.652316131534 27387.047996129048 60.5
  endloop
endfacet
facet normal 0.0 0.0 -1.0
  outer loop
    vertex -21927.15231613153 27403.547996129048 60.5
    vertex -21925.152316131534 27385.047996129048 60.5
    vertex -21927.152316131534 27385.047996129048 60.5
  endloop
endfacet
facet normal 0.0 0.0 -1.0
  outer loop
    vertex -21925.152316131534 27385.047996129048 60.5
    vertex -21927.15231613153 27403.547996129048 60.5
    vertex -21925.152316131534 27387.047996129048 60.5
  endloop
endfacet
facet normal 0.0 -1.0 0.0
  outer loop
    vertex -21925.152316131534 27385.047996129048 37.999999999993484
    vertex -21927.152316131534 27385.047996129048 32.80903533472306
    vertex -21925.152316131534 27385.047996129048 32.80903533472306
  endloop
endfacet
facet normal 0.0 -1.0 0.0
  outer loop
    vertex -21927.152316131534 27385.047996129048 32.80903533472306
    vertex -21925.152316131534 27385.047996129048 37.999999999993484
    vertex -21927.152316131534 27385.047996129048 37.999999999993484
  endloop
endfacet
facet normal 2.9268882204153957e-15 -1.3735188927763245e-15 1.0
  outer loop
    vertex -21925.152316131534 27385.047996129048 20.566235334723356
    vertex -21927.152316131534 27403.547996129048 20.5662353347234
    vertex -21927.152316131534 27385.047996129048 20.566235334723356
  endloop
endfacet
facet normal 2.9268882204153957e-15 -1.3735188927763245e-15 1.0
  outer loop
    vertex -21927.152316131534 27403.547996129048 20.5662353347234
    vertex -21925.152316131534 27385.047996129048 20.566235334723356
    vertex -21925.152316131534 27387.047996129048 20.566235334723356
  endloop
endfacet
facet normal 2.9268882204153957e-15 -1.3735188927763245e-15 1.0
  outer loop
    vertex -21927.152316131534 27403.547996129048 20.5662353347234
    vertex -21925.152316131534 27387.047996129048 20.566235334723356
    vertex -21921.652316131534 27403.547996129048 20.566235334723356
  endloop
endfacet
facet normal 2.9268882204153957e-15 -1.3735188927763245e-15 1.0
  outer loop
    vertex -21921.652316131534 27403.547996129048 20.566235334723356
    vertex -21925.152316131534 27387.047996129048 20.566235334723356
    vertex -21921.652316131534 27387.047996129048 20.566235334723356
  endloop
endfacet
facet normal 0.0 0.0 1.0
  outer loop
    vertex -21925.152316131534 27385.047996129048 50.50000000000001
    vertex -21927.15231613153 27403.547996129048 50.50000000000001
    vertex -21927.152316131534 27385.047996129048 50.50000000000001
  endloop
endfacet
facet normal 0.0 0.0 1.0
  outer loop
    vertex -21927.15231613153 27403.547996129048 50.50000000000001
    vertex -21925.152316131534 27385.047996129048 50.50000000000001
    vertex -21925.152316131534 27387.047996129048 50.50000000000001
  endloop
endfacet
facet normal 0.0 0.0 1.0
  outer loop
    vertex -21927.15231613153 27403.547996129048 50.50000000000001
    vertex -21925.152316131534 27387.047996129048 50.50000000000001
    vertex -21921.652316131534 27403.547996129048 50.50000000000001
  endloop
endfacet
facet normal 0.0 0.0 1.0
  outer loop
    vertex -21921.652316131534 27403.547996129048 50.50000000000001
    vertex -21925.152316131534 27387.047996129048 50.50000000000001
    vertex -21921.652316131534 27387.047996129048 50.50000000000001
  endloop
endfacet
facet normal -1.0 1.9121969826575263e-14 2.697902029982364e-15
  outer loop
    vertex -21927.15231613153 27403.547996129048 50.50000000000001
    vertex -21927.152316131534 27385.047996129048 45.00000000000039
    vertex -21927.152316131534 27385.047996129048 50.50000000000001
  endloop
endfacet
facet normal -1.0 1.9121969826575263e-14 2.697902029982364e-15
  outer loop
    vertex -21927.152316131534 27385.047996129048 45.00000000000039
    vertex -21927.15231613153 27403.547996129048 50.50000000000001
    vertex -21927.152316131534 27394.39799612906 45.00000000000039
  endloop
endfacet
facet normal -1.0 1.9121969826575263e-14 2.697902029982364e-15
  outer loop
    vertex -21927.152316131534 27394.39799612906 45.00000000000039
    vertex -21927.15231613153 27403.547996129048 50.50000000000001
    vertex -21927.152316131534 27396.547996129048 45.00000000000039
  endloop
endfacet
facet normal -1.0 1.9121969826575263e-14 2.697902029982364e-15
  outer loop
    vertex -21927.152316131534 27396.547996129048 45.00000000000039
    vertex -21927.15231613153 27403.547996129048 50.50000000000001
    vertex -21927.152316131534 27396.547996129048 37.999999999993484
  endloop
endfacet
facet normal -1.0 1.9121969826575263e-14 2.697902029982364e-15
  outer loop
    vertex -21927.152316131534 27407.547996129048 71.74999999999999
    vertex -21927.152316131534 27385.047996129048 60.5
    vertex -21927.152316131534 27385.047996129048 71.74999999999999
  endloop
endfacet
facet normal -1.0 1.9121969826575263e-14 2.697902029982364e-15
  outer loop
    vertex -21927.152316131534 27385.047996129048 60.5
    vertex -21927.152316131534 27407.547996129048 71.74999999999999
    vertex -21927.15231613153 27403.547996129048 60.5
  endloop
endfacet
facet normal -1.0 1.9121969826575263e-14 2.697902029982364e-15
  outer loop
    vertex -21927.15231613153 27403.547996129048 60.5
    vertex -21927.152316131534 27407.547996129048 71.74999999999999
    vertex -21927.15231613153 27403.547996129048 50.50000000000001
  endloop
endfacet
facet normal -1.0 1.9121969826575263e-14 2.697902029982364e-15
  outer loop
    vertex -21927.15231613153 27403.547996129048 50.50000000000001
    vertex -21927.152316131534 27407.547996129048 71.74999999999999
    vertex -21927.152316131534 27403.547996129048 32.80903533472312
  endloop
endfacet
facet normal -1.0 1.9121969826575263e-14 2.697902029982364e-15
  outer loop
    vertex -21927.152316131534 27403.547996129048 20.5662353347234
    vertex -21927.152316131534 27385.047996129048 1.7499999999998106
    vertex -21927.152316131534 27385.047996129048 20.566235334723356
  endloop
endfacet
facet normal -1.0 1.9121969826575263e-14 2.697902029982364e-15
  outer loop
    vertex -21927.152316131534 27385.047996129048 1.7499999999998106
    vertex -21927.152316131534 27403.547996129048 20.5662353347234
    vertex -21927.152316131534 27407.547996129048 1.7499999999998106
  endloop
endfacet
facet normal -1.0 1.9121969826575263e-14 2.697902029982364e-15
  outer loop
    vertex -21927.152316131534 27407.547996129048 1.7499999999998106
    vertex -21927.152316131534 27403.547996129048 20.5662353347234
    vertex -21927.152316131534 27403.547996129048 32.80903533472312
  endloop
endfacet
facet normal -1.0 1.9121969826575263e-14 2.697902029982364e-15
  outer loop
    vertex -21927.152316131534 27407.547996129048 1.7499999999998106
    vertex -21927.152316131534 27403.547996129048 32.80903533472312
    vertex -21927.152316131534 27407.547996129048 71.74999999999999
  endloop
endfacet
facet normal -1.0 1.9121969826575263e-14 2.697902029982364e-15
  outer loop
    vertex -21927.152316131534 27396.547996129048 37.999999999993484
    vertex -21927.152316131534 27385.047996129048 32.80903533472306
    vertex -21927.152316131534 27385.047996129048 37.999999999993484
  endloop
endfacet
facet normal -1.0 1.9121969826575263e-14 2.697902029982364e-15
  outer loop
    vertex -21927.152316131534 27385.047996129048 32.80903533472306
    vertex -21927.152316131534 27396.547996129048 37.999999999993484
    vertex -21927.152316131534 27403.547996129048 32.80903533472312
  endloop
endfacet
facet normal -1.0 1.9121969826575263e-14 2.697902029982364e-15
  outer loop
    vertex -21927.152316131534 27403.547996129048 32.80903533472312
    vertex -21927.152316131534 27396.547996129048 37.999999999993484
    vertex -21927.15231613153 27403.547996129048 50.50000000000001
  endloop
endfacet
facet normal 0.0 1.0 0.0
  outer loop
    vertex -21925.152316131534 27405.547996129048 3.7499999999998113
    vertex -21921.652316131534 27405.547996129048 69.75
    vertex -21921.652316131534 27405.547996129048 3.74999999999981
  endloop
endfacet
facet normal 0.0 1.0 0.0
  outer loop
    vertex -21921.652316131534 27405.547996129048 69.75
    vertex -21925.152316131534 27405.547996129048 3.7499999999998113
    vertex -21925.152316131534 27405.547996129048 37.99999999998075
  endloop
endfacet
facet normal 0.0 1.0 0.0
  outer loop
    vertex -21921.652316131534 27405.547996129048 69.75
    vertex -21925.152316131534 27405.547996129048 37.99999999998075
    vertex -21925.152316131534 27405.547996129048 45.0
  endloop
endfacet
facet normal 0.0 1.0 0.0
  outer loop
    vertex -21921.652316131534 27405.547996129048 69.75
    vertex -21925.152316131534 27405.547996129048 45.0
    vertex -21925.152316131534 27405.547996129048 69.75
  endloop
endfacet
facet normal -3.704626865359215e-15 1.8227867148079313e-15 -1.0
  outer loop
    vertex -21921.652316131534 27403.547996129048 32.80903533472307
    vertex -21925.152316131534 27387.047996129048 32.80903533472306
    vertex -21927.152316131534 27403.547996129048 32.80903533472312
  endloop
endfacet
facet normal -3.704626865359215e-15 1.8227867148079313e-15 -1.0
  outer loop
    vertex -21925.152316131534 27387.047996129048 32.80903533472306
    vertex -21921.652316131534 27403.547996129048 32.80903533472307
    vertex -21921.652316131534 27387.047996129048 32.80903533472306
  endloop
endfacet
facet normal -3.704626865359215e-15 1.8227867148079313e-15 -1.0
  outer loop
    vertex -21927.152316131534 27403.547996129048 32.80903533472312
    vertex -21925.152316131534 27385.047996129048 32.80903533472306
    vertex -21927.152316131534 27385.047996129048 32.80903533472306
  endloop
endfacet
facet normal -3.704626865359215e-15 1.8227867148079313e-15 -1.0
  outer loop
    vertex -21925.152316131534 27385.047996129048 32.80903533472306
    vertex -21927.152316131534 27403.547996129048 32.80903533472312
    vertex -21925.152316131534 27387.047996129048 32.80903533472306
  endloop
endfacet
facet normal 1.2216969621372446e-28 -1.0 1.4741550534442255e-14
  outer loop
    vertex -21921.652316131534 27403.547996129048 32.80903533472307
    vertex -21927.152316131534 27403.547996129048 20.5662353347234
    vertex -21921.652316131534 27403.547996129048 20.566235334723356
  endloop
endfacet
facet normal 1.2216969621372446e-28 -1.0 1.4741550534442255e-14
  outer loop
    vertex -21927.152316131534 27403.547996129048 20.5662353347234
    vertex -21921.652316131534 27403.547996129048 32.80903533472307
    vertex -21927.152316131534 27403.547996129048 32.80903533472312
  endloop
endfacet
facet normal 1.0 5.22334196154894e-15 -1.487792792961683e-16
  outer loop
    vertex -21921.652316131534 27403.547996129048 32.80903533472307
    vertex -21921.652316131534 27387.047996129048 37.999999999993506
    vertex -21921.652316131534 27387.047996129048 32.80903533472306
  endloop
endfacet
facet normal 1.0 5.22334196154894e-15 -1.487792792961683e-16
  outer loop
    vertex -21921.652316131534 27387.047996129048 37.999999999993506
    vertex -21921.652316131534 27403.547996129048 32.80903533472307
    vertex -21921.652316131534 27396.547996129048 37.999999999993506
  endloop
endfacet
facet normal 1.0 5.22334196154894e-15 -1.487792792961683e-16
  outer loop
    vertex -21921.652316131534 27396.547996129048 37.999999999993506
    vertex -21921.652316131534 27403.547996129048 32.80903533472307
    vertex -21921.652316131534 27396.547996129048 45.00000000000041
  endloop
endfacet
facet normal 1.0 5.22334196154894e-15 -1.487792792961683e-16
  outer loop
    vertex -21921.652316131534 27405.547996129048 3.74999999999981
    vertex -21921.652316131534 27387.047996129048 20.566235334723356
    vertex -21921.652316131534 27387.047996129048 3.74999999999981
  endloop
endfacet
facet normal 1.0 5.22334196154894e-15 -1.487792792961683e-16
  outer loop
    vertex -21921.652316131534 27387.047996129048 20.566235334723356
    vertex -21921.652316131534 27405.547996129048 3.74999999999981
    vertex -21921.652316131534 27403.547996129048 20.566235334723356
  endloop
endfacet
facet normal 1.0 5.22334196154894e-15 -1.487792792961683e-16
  outer loop
    vertex -21921.652316131534 27403.547996129048 20.566235334723356
    vertex -21921.652316131534 27405.547996129048 3.74999999999981
    vertex -21921.652316131534 27403.547996129048 32.80903533472307
  endloop
endfacet
facet normal 1.0 5.22334196154894e-15 -1.487792792961683e-16
  outer loop
    vertex -21921.652316131534 27403.547996129048 32.80903533472307
    vertex -21921.652316131534 27405.547996129048 3.74999999999981
    vertex -21921.652316131534 27403.547996129048 50.50000000000001
  endloop
endfacet
facet normal 1.0 5.22334196154894e-15 -1.487792792961683e-16
  outer loop
    vertex -21921.652316131534 27403.547996129048 50.50000000000001
    vertex -21921.652316131534 27405.547996129048 3.74999999999981
    vertex -21921.652316131534 27403.547996129048 60.5
  endloop
endfacet
facet normal 1.0 5.22334196154894e-15 -1.487792792961683e-16
  outer loop
    vertex -21921.652316131534 27403.547996129048 60.5
    vertex -21921.652316131534 27387.047996129048 69.75
    vertex -21921.652316131534 27387.047996129048 60.5
  endloop
endfacet
facet normal 1.0 5.22334196154894e-15 -1.487792792961683e-16
  outer loop
    vertex -21921.652316131534 27387.047996129048 69.75
    vertex -21921.652316131534 27403.547996129048 60.5
    vertex -21921.652316131534 27405.547996129048 69.75
  endloop
endfacet
facet normal 1.0 5.22334196154894e-15 -1.487792792961683e-16
  outer loop
    vertex -21921.652316131534 27405.547996129048 69.75
    vertex -21921.652316131534 27403.547996129048 60.5
    vertex -21921.652316131534 27405.547996129048 3.74999999999981
  endloop
endfacet
facet normal 1.0 5.22334196154894e-15 -1.487792792961683e-16
  outer loop
    vertex -21921.652316131534 27394.39799612906 45.00000000000041
    vertex -21921.652316131534 27387.047996129048 50.50000000000001
    vertex -21921.652316131534 27387.047996129048 45.00000000000041
  endloop
endfacet
facet normal 1.0 5.22334196154894e-15 -1.487792792961683e-16
  outer loop
    vertex -21921.652316131534 27387.047996129048 50.50000000000001
    vertex -21921.652316131534 27394.39799612906 45.00000000000041
    vertex -21921.652316131534 27403.547996129048 50.50000000000001
  endloop
endfacet
facet normal 1.0 5.22334196154894e-15 -1.487792792961683e-16
  outer loop
    vertex -21921.652316131534 27403.547996129048 50.50000000000001
    vertex -21921.652316131534 27394.39799612906 45.00000000000041
    vertex -21921.652316131534 27396.547996129048 45.00000000000041
  endloop
endfacet
facet normal 1.0 5.22334196154894e-15 -1.487792792961683e-16
  outer loop
    vertex -21921.652316131534 27403.547996129048 50.50000000000001
    vertex -21921.652316131534 27396.547996129048 45.00000000000041
    vertex -21921.652316131534 27403.547996129048 32.80903533472307
  endloop
endfacet
facet normal 0.0 -1.0 0.0
  outer loop
    vertex -21921.652316131534 27387.047996129048 45.00000000000041
    vertex -21925.152316131534 27387.047996129048 50.50000000000001
    vertex -21925.152316131534 27387.047996129048 45.00000000000039
  endloop
endfacet
facet normal 0.0 -1.0 0.0
  outer loop
    vertex -21925.152316131534 27387.047996129048 50.50000000000001
    vertex -21921.652316131534 27387.047996129048 45.00000000000041
    vertex -21921.652316131534 27387.047996129048 50.50000000000001
  endloop
endfacet
facet normal 0.0 -1.0 0.0
  outer loop
    vertex -21921.652316131534 27387.047996129048 20.566235334723356
    vertex -21925.152316131534 27387.047996129048 3.74999999999981
    vertex -21921.652316131534 27387.047996129048 3.74999999999981
  endloop
endfacet
facet normal 0.0 -1.0 0.0
  outer loop
    vertex -21925.152316131534 27387.047996129048 3.74999999999981
    vertex -21921.652316131534 27387.047996129048 20.566235334723356
    vertex -21925.152316131534 27387.047996129048 20.566235334723356
  endloop
endfacet
facet normal 1.0 0.0 0.0
  outer loop
    vertex -21925.152316131534 27385.047996129048 1.7499999999998106
    vertex -21925.152316131534 27387.047996129048 3.74999999999981
    vertex -21925.152316131534 27385.047996129048 20.566235334723356
  endloop
endfacet
facet normal 1.0 0.0 0.0
  outer loop
    vertex -21925.152316131534 27387.047996129048 3.74999999999981
    vertex -21925.152316131534 27385.047996129048 1.7499999999998106
    vertex -21925.152316131534 27407.547996129048 1.7499999999998106
  endloop
endfacet
facet normal 1.0 0.0 0.0
  outer loop
    vertex -21925.152316131534 27387.047996129048 3.74999999999981
    vertex -21925.152316131534 27407.547996129048 1.7499999999998106
    vertex -21925.152316131534 27405.547996129048 3.7499999999998113
  endloop
endfacet
facet normal 1.0 0.0 0.0
  outer loop
    vertex -21925.152316131534 27405.547996129048 3.7499999999998113
    vertex -21925.152316131534 27407.547996129048 1.7499999999998106
    vertex -21925.152316131534 27405.547996129048 37.99999999998075
  endloop
endfacet
facet normal 1.0 0.0 0.0
  outer loop
    vertex -21925.152316131534 27405.547996129048 37.99999999998075
    vertex -21925.152316131534 27407.547996129048 1.7499999999998106
    vertex -21925.152316131534 27405.547996129048 45.0
  endloop
endfacet
facet normal 1.0 0.0 0.0
  outer loop
    vertex -21925.152316131534 27405.547996129048 45.0
    vertex -21925.152316131534 27407.547996129048 1.7499999999998106
    vertex -21925.152316131534 27405.547996129048 69.75
  endloop
endfacet
facet normal 1.0 0.0 0.0
  outer loop
    vertex -21925.152316131534 27387.047996129048 60.5
    vertex -21925.152316131534 27385.047996129048 71.74999999999999
    vertex -21925.152316131534 27385.047996129048 60.5
  endloop
endfacet
facet normal 1.0 0.0 0.0
  outer loop
    vertex -21925.152316131534 27385.047996129048 71.74999999999999
    vertex -21925.152316131534 27387.047996129048 60.5
    vertex -21925.152316131534 27387.047996129048 69.75
  endloop
endfacet
facet normal 1.0 0.0 0.0
  outer loop
    vertex -21925.152316131534 27385.047996129048 71.74999999999999
    vertex -21925.152316131534 27387.047996129048 69.75
    vertex -21925.152316131534 27407.547996129048 71.74999999999999
  endloop
endfacet
facet normal 1.0 0.0 0.0
  outer loop
    vertex -21925.152316131534 27407.547996129048 71.74999999999999
    vertex -21925.152316131534 27387.047996129048 69.75
    vertex -21925.152316131534 27405.547996129048 69.75
  endloop
endfacet
facet normal 1.0 0.0 0.0
  outer loop
    vertex -21925.152316131534 27407.547996129048 71.74999999999999
    vertex -21925.152316131534 27405.547996129048 69.75
    vertex -21925.152316131534 27407.547996129048 1.7499999999998106
  endloop
endfacet
facet normal 1.0 0.0 0.0
  outer loop
    vertex -21925.152316131534 27387.047996129048 20.566235334723356
    vertex -21925.152316131534 27385.047996129048 20.566235334723356
    vertex -21925.152316131534 27387.047996129048 3.74999999999981
  endloop
endfacet
facet normal 0.0 -1.0 0.0
  outer loop
    vertex -21925.152316131534 27385.047996129048 20.566235334723356
    vertex -21927.152316131534 27385.047996129048 1.7499999999998106
    vertex -21925.152316131534 27385.047996129048 1.7499999999998106
  endloop
endfacet
facet normal 0.0 -1.0 0.0
  outer loop
    vertex -21927.152316131534 27385.047996129048 1.7499999999998106
    vertex -21925.152316131534 27385.047996129048 20.566235334723356
    vertex -21927.152316131534 27385.047996129048 20.566235334723356
  endloop
endfacet
facet normal 4.223194252849591e-15 4.588495425288683e-16 -1.0
  outer loop
    vertex -21921.652316131534 27394.39799612906 45.00000000000041
    vertex -21927.152316131534 27385.047996129048 45.00000000000039
    vertex -21927.152316131534 27394.39799612906 45.00000000000039
  endloop
endfacet
facet normal 4.223194252849591e-15 4.588495425288683e-16 -1.0
  outer loop
    vertex -21927.152316131534 27385.047996129048 45.00000000000039
    vertex -21921.652316131534 27394.39799612906 45.00000000000041
    vertex -21925.152316131534 27387.047996129048 45.00000000000039
  endloop
endfacet
facet normal 4.223194252849591e-15 4.588495425288683e-16 -1.0
  outer loop
    vertex -21925.152316131534 27387.047996129048 45.00000000000039
    vertex -21921.652316131534 27394.39799612906 45.00000000000041
    vertex -21921.652316131534 27387.047996129048 45.00000000000041
  endloop
endfacet
facet normal 4.223194252849591e-15 4.588495425288683e-16 -1.0
  outer loop
    vertex -21925.152316131534 27385.047996129048 45.00000000000039
    vertex -21927.152316131534 27385.047996129048 45.00000000000039
    vertex -21925.152316131534 27387.047996129048 45.00000000000039
  endloop
endfacet
facet normal 4.2357047574599094e-15 -2.951944394207897e-16 -1.0
  outer loop
    vertex -21925.152316131534 27396.547996129048 45.00000000000039
    vertex -21927.152316131534 27394.39799612906 45.00000000000039
    vertex -21927.152316131534 27396.547996129048 45.00000000000039
  endloop
endfacet
facet normal 4.2357047574599094e-15 -2.951944394207897e-16 -1.0
  outer loop
    vertex -21927.152316131534 27394.39799612906 45.00000000000039
    vertex -21925.152316131534 27396.547996129048 45.00000000000039
    vertex -21921.652316131534 27394.39799612906 45.00000000000041
  endloop
endfacet
facet normal 4.2357047574599094e-15 -2.951944394207897e-16 -1.0
  outer loop
    vertex -21921.652316131534 27394.39799612906 45.00000000000041
    vertex -21925.152316131534 27396.547996129048 45.00000000000039
    vertex -21921.652316131534 27396.547996129048 45.00000000000041
  endloop
endfacet
facet normal 0.0 -1.0 0.0
  outer loop
    vertex -21921.652316131534 27396.547996129048 45.00000000000041
    vertex -21925.152316131534 27396.547996129048 45.00000000000039
    vertex -21921.652316131534 27396.547996129048 37.999999999993506
  endloop
endfacet
facet normal 0.0 -1.0 0.0
  outer loop
    vertex -21921.652316131534 27396.547996129048 37.999999999993506
    vertex -21927.152316131534 27396.547996129048 37.999999999993484
    vertex -21925.152316131534 27396.547996129048 37.999999999993484
  endloop
endfacet
facet normal 0.0 -1.0 0.0
  outer loop
    vertex -21927.152316131534 27396.547996129048 37.999999999993484
    vertex -21921.652316131534 27396.547996129048 37.999999999993506
    vertex -21927.152316131534 27396.547996129048 45.00000000000039
  endloop
endfacet
facet normal 0.0 -1.0 0.0
  outer loop
    vertex -21927.152316131534 27396.547996129048 45.00000000000039
    vertex -21921.652316131534 27396.547996129048 37.999999999993506
    vertex -21925.152316131534 27396.547996129048 45.00000000000039
  endloop
endfacet
facet normal -4.418335429932387e-15 -7.200275762656118e-17 1.0
  outer loop
    vertex -21925.152316131534 27385.047996129048 37.999999999993484
    vertex -21927.152316131534 27396.547996129048 37.999999999993484
    vertex -21927.152316131534 27385.047996129048 37.999999999993484
  endloop
endfacet
facet normal -4.418335429932387e-15 -7.200275762656118e-17 1.0
  outer loop
    vertex -21927.152316131534 27396.547996129048 37.999999999993484
    vertex -21925.152316131534 27385.047996129048 37.999999999993484
    vertex -21925.152316131534 27396.547996129048 37.999999999993484
  endloop
endfacet
facet normal -4.418335429932387e-15 -7.200275762656118e-17 1.0
  outer loop
    vertex -21925.152316131534 27396.547996129048 37.999999999993484
    vertex -21925.152316131534 27385.047996129048 37.999999999993484
    vertex -21925.152316131534 27387.047996129048 37.999999999993484
  endloop
endfacet
facet normal -4.418335429932387e-15 -7.200275762656118e-17 1.0
  outer loop
    vertex -21925.152316131534 27396.547996129048 37.999999999993484
    vertex -21925.152316131534 27387.047996129048 37.999999999993484
    vertex -21921.652316131534 27387.047996129048 37.999999999993506
  endloop
endfacet
facet normal -4.418335429932387e-15 -7.200275762656118e-17 1.0
  outer loop
    vertex -21925.152316131534 27396.547996129048 37.999999999993484
    vertex -21921.652316131534 27387.047996129048 37.999999999993506
    vertex -21921.652316131534 27396.547996129048 37.999999999993506
  endloop
endfacet
facet normal 0.0 -1.0 0.0
  outer loop
    vertex -21925.152316131534 27385.047996129048 50.50000000000001
    vertex -21927.152316131534 27385.047996129048 45.00000000000039
    vertex -21925.152316131534 27385.047996129048 45.00000000000039
  endloop
endfacet
facet normal 0.0 -1.0 0.0
  outer loop
    vertex -21927.152316131534 27385.047996129048 45.00000000000039
    vertex -21925.152316131534 27385.047996129048 50.50000000000001
    vertex -21927.152316131534 27385.047996129048 50.50000000000001
  endloop
endfacet
facet normal 1.0 3.3400971080715777e-41 -6.562831086657381e-14
  outer loop
    vertex -21925.152316131534 27387.047996129048 45.00000000000039
    vertex -21925.152316131534 27385.047996129048 50.50000000000001
    vertex -21925.152316131534 27385.047996129048 45.00000000000039
  endloop
endfacet
facet normal 1.0 3.3400971080715777e-41 -6.562831086657381e-14
  outer loop
    vertex -21925.152316131534 27385.047996129048 50.50000000000001
    vertex -21925.152316131534 27387.047996129048 45.00000000000039
    vertex -21925.152316131534 27387.047996129048 50.50000000000001
  endloop
endfacet
facet normal 0.0 -1.0 0.0
  outer loop
    vertex -21921.652316131534 27387.047996129048 37.999999999993506
    vertex -21925.152316131534 27387.047996129048 32.80903533472306
    vertex -21921.652316131534 27387.047996129048 32.80903533472306
  endloop
endfacet
facet normal 0.0 -1.0 0.0
  outer loop
    vertex -21925.152316131534 27387.047996129048 32.80903533472306
    vertex -21921.652316131534 27387.047996129048 37.999999999993506
    vertex -21925.152316131534 27387.047996129048 37.999999999993484
  endloop
endfacet
endsolid Main
