solid Main
facet normal 1.0237842319936328e-15 1.6395153968301604e-17 1.0
  outer loop
    vertex -22118.007241389594 27384.63022142316 70.74174682683852
    vertex -22114.507241389594 27366.130221423162 70.74174682683852
    vertex -22114.507241389594 27384.63022142316 70.74174682683852
  endloop
endfacet
facet normal 1.0237842319936328e-15 1.6395153968301604e-17 1.0
  outer loop
    vertex -22114.507241389594 27366.130221423162 70.74174682683852
    vertex -22118.007241389594 27384.63022142316 70.74174682683852
    vertex -22118.007241389594 27366.130221423162 70.74174682683852
  endloop
endfacet
facet normal -7.216449660063518e-16 0.0 -1.0
  outer loop
    vertex -22118.007241389594 27366.130221423162 4.741746826838334
    vertex -22114.507241389594 27384.63022142316 4.741746826838334
    vertex -22114.507241389594 27366.130221423162 4.741746826838334
  endloop
endfacet
facet normal -7.216449660063518e-16 0.0 -1.0
  outer loop
    vertex -22114.507241389594 27384.63022142316 4.741746826838334
    vertex -22118.007241389594 27366.130221423162 4.741746826838334
    vertex -22118.007241389594 27384.63022142316 4.741746826838334
  endloop
endfacet
facet normal 1.9290125052859618e-16 1.6395153968301604e-17 1.0
  outer loop
    vertex -22114.507241389594 27386.63022142316 72.74174682683852
    vertex -22112.507241389598 27364.130221423162 72.74174682683852
    vertex -22112.507241389598 27386.63022142316 72.74174682683852
  endloop
endfacet
facet normal 1.9290125052859618e-16 1.6395153968301604e-17 1.0
  outer loop
    vertex -22112.507241389598 27364.130221423162 72.74174682683852
    vertex -22114.507241389594 27386.63022142316 72.74174682683852
    vertex -22114.507241389594 27364.130221423162 72.74174682683852
  endloop
endfacet
facet normal -7.216449660063518e-16 0.0 -1.0
  outer loop
    vertex -22114.507241389594 27364.130221423162 2.7417468268383374
    vertex -22112.507241389598 27386.63022142316 2.7417468268383374
    vertex -22112.507241389598 27364.130221423162 2.7417468268383374
  endloop
endfacet
facet normal -7.216449660063518e-16 0.0 -1.0
  outer loop
    vertex -22112.507241389598 27386.63022142316 2.7417468268383374
    vertex -22114.507241389594 27364.130221423162 2.7417468268383374
    vertex -22114.507241389594 27386.63022142316 2.7417468268383374
  endloop
endfacet
facet normal 0.0 1.0 0.0
  outer loop
    vertex -22112.507241389598 27386.63022142316 2.7417468268383374
    vertex -22114.507241389594 27386.63022142316 72.74174682683852
    vertex -22112.507241389598 27386.63022142316 72.74174682683852
  endloop
endfacet
facet normal 0.0 1.0 0.0
  outer loop
    vertex -22114.507241389594 27386.63022142316 72.74174682683852
    vertex -22112.507241389598 27386.63022142316 2.7417468268383374
    vertex -22114.507241389594 27386.63022142316 2.7417468268383374
  endloop
endfacet
facet normal 0.0 -1.0 0.0
  outer loop
    vertex -22118.007241389594 27366.130221423162 4.741746826838334
    vertex -22114.507241389594 27366.130221423162 70.74174682683852
    vertex -22118.007241389594 27366.130221423162 70.74174682683852
  endloop
endfacet
facet normal 0.0 -1.0 0.0
  outer loop
    vertex -22114.507241389594 27366.130221423162 70.74174682683852
    vertex -22118.007241389594 27366.130221423162 4.741746826838334
    vertex -22114.507241389594 27366.130221423162 4.741746826838334
  endloop
endfacet
facet normal 1.0 0.0 0.0
  outer loop
    vertex -22112.507241389598 27364.130221423162 2.7417468268383374
    vertex -22112.507241389598 27366.630221423162 15.241746826838337
    vertex -22112.507241389598 27364.130221423162 72.74174682683852
  endloop
endfacet
facet normal 1.0 0.0 0.0
  outer loop
    vertex -22112.507241389598 27366.630221423162 15.241746826838337
    vertex -22112.507241389598 27364.130221423162 2.7417468268383374
    vertex -22112.507241389598 27386.63022142316 2.7417468268383374
  endloop
endfacet
facet normal 1.0 0.0 0.0
  outer loop
    vertex -22112.507241389598 27366.630221423162 15.241746826838337
    vertex -22112.507241389598 27386.63022142316 2.7417468268383374
    vertex -22112.507241389598 27384.130221423155 15.241746826838337
  endloop
endfacet
facet normal 1.0 0.0 0.0
  outer loop
    vertex -22112.507241389598 27384.130221423155 15.241746826838337
    vertex -22112.507241389598 27386.63022142316 2.7417468268383374
    vertex -22112.507241389598 27384.130221423155 60.24174682683852
  endloop
endfacet
facet normal 1.0 0.0 0.0
  outer loop
    vertex -22112.507241389598 27364.130221423162 72.74174682683852
    vertex -22112.507241389598 27366.630221423162 60.24174682683852
    vertex -22112.507241389598 27386.63022142316 72.74174682683852
  endloop
endfacet
facet normal 1.0 0.0 0.0
  outer loop
    vertex -22112.507241389598 27366.630221423162 60.24174682683852
    vertex -22112.507241389598 27364.130221423162 72.74174682683852
    vertex -22112.507241389598 27366.630221423162 15.241746826838337
  endloop
endfacet
facet normal 1.0 0.0 0.0
  outer loop
    vertex -22112.507241389598 27386.63022142316 72.74174682683852
    vertex -22112.507241389598 27366.630221423162 60.24174682683852
    vertex -22112.507241389598 27384.130221423155 60.24174682683852
  endloop
endfacet
facet normal 1.0 0.0 0.0
  outer loop
    vertex -22112.507241389598 27386.63022142316 72.74174682683852
    vertex -22112.507241389598 27384.130221423155 60.24174682683852
    vertex -22112.507241389598 27386.63022142316 2.7417468268383374
  endloop
endfacet
facet normal 0.0 1.0 0.0
  outer loop
    vertex -22114.507241389594 27384.63022142316 4.741746826838334
    vertex -22118.007241389594 27384.63022142316 70.74174682683852
    vertex -22114.507241389594 27384.63022142316 70.74174682683852
  endloop
endfacet
facet normal 0.0 1.0 0.0
  outer loop
    vertex -22118.007241389594 27384.63022142316 70.74174682683852
    vertex -22114.507241389594 27384.63022142316 4.741746826838334
    vertex -22118.007241389594 27384.63022142316 4.741746826838334
  endloop
endfacet
facet normal -1.0 0.0 0.0
  outer loop
    vertex -22118.007241389594 27366.130221423162 70.74174682683852
    vertex -22118.007241389594 27366.630221423162 60.24174682683852
    vertex -22118.007241389594 27366.130221423162 4.741746826838334
  endloop
endfacet
facet normal -1.0 0.0 0.0
  outer loop
    vertex -22118.007241389594 27366.630221423162 60.24174682683852
    vertex -22118.007241389594 27366.130221423162 70.74174682683852
    vertex -22118.007241389594 27384.63022142316 70.74174682683852
  endloop
endfacet
facet normal -1.0 0.0 0.0
  outer loop
    vertex -22118.007241389594 27366.630221423162 60.24174682683852
    vertex -22118.007241389594 27384.63022142316 70.74174682683852
    vertex -22118.007241389594 27384.130221423155 60.24174682683852
  endloop
endfacet
facet normal -1.0 0.0 0.0
  outer loop
    vertex -22118.007241389594 27384.130221423155 60.24174682683852
    vertex -22118.007241389594 27384.63022142316 70.74174682683852
    vertex -22118.007241389594 27384.130221423155 15.241746826838337
  endloop
endfacet
facet normal -1.0 0.0 0.0
  outer loop
    vertex -22118.007241389594 27366.130221423162 4.741746826838334
    vertex -22118.007241389594 27366.630221423162 15.241746826838337
    vertex -22118.007241389594 27384.63022142316 4.741746826838334
  endloop
endfacet
facet normal -1.0 0.0 0.0
  outer loop
    vertex -22118.007241389594 27366.630221423162 15.241746826838337
    vertex -22118.007241389594 27366.130221423162 4.741746826838334
    vertex -22118.007241389594 27366.630221423162 60.24174682683852
  endloop
endfacet
facet normal -1.0 0.0 0.0
  outer loop
    vertex -22118.007241389594 27384.63022142316 4.741746826838334
    vertex -22118.007241389594 27366.630221423162 15.241746826838337
    vertex -22118.007241389594 27384.130221423155 15.241746826838337
  endloop
endfacet
facet normal -1.0 0.0 0.0
  outer loop
    vertex -22118.007241389594 27384.63022142316 4.741746826838334
    vertex -22118.007241389594 27384.130221423155 15.241746826838337
    vertex -22118.007241389594 27384.63022142316 70.74174682683852
  endloop
endfacet
facet normal -1.0 0.0 0.0
  outer loop
    vertex -22114.507241389594 27364.130221423162 72.74174682683852
    vertex -22114.507241389594 27366.130221423162 70.74174682683852
    vertex -22114.507241389594 27364.130221423162 2.7417468268383374
  endloop
endfacet
facet normal -1.0 0.0 0.0
  outer loop
    vertex -22114.507241389594 27366.130221423162 70.74174682683852
    vertex -22114.507241389594 27364.130221423162 72.74174682683852
    vertex -22114.507241389594 27386.63022142316 72.74174682683852
  endloop
endfacet
facet normal -1.0 0.0 0.0
  outer loop
    vertex -22114.507241389594 27366.130221423162 70.74174682683852
    vertex -22114.507241389594 27386.63022142316 72.74174682683852
    vertex -22114.507241389594 27384.63022142316 70.74174682683852
  endloop
endfacet
facet normal -1.0 0.0 0.0
  outer loop
    vertex -22114.507241389594 27384.63022142316 70.74174682683852
    vertex -22114.507241389594 27386.63022142316 72.74174682683852
    vertex -22114.507241389594 27384.63022142316 4.741746826838334
  endloop
endfacet
facet normal -1.0 0.0 0.0
  outer loop
    vertex -22114.507241389594 27364.130221423162 2.7417468268383374
    vertex -22114.507241389594 27366.130221423162 4.741746826838334
    vertex -22114.507241389594 27386.63022142316 2.7417468268383374
  endloop
endfacet
facet normal -1.0 0.0 0.0
  outer loop
    vertex -22114.507241389594 27366.130221423162 4.741746826838334
    vertex -22114.507241389594 27364.130221423162 2.7417468268383374
    vertex -22114.507241389594 27366.130221423162 70.74174682683852
  endloop
endfacet
facet normal -1.0 0.0 0.0
  outer loop
    vertex -22114.507241389594 27386.63022142316 2.7417468268383374
    vertex -22114.507241389594 27366.130221423162 4.741746826838334
    vertex -22114.507241389594 27384.63022142316 4.741746826838334
  endloop
endfacet
facet normal -1.0 0.0 0.0
  outer loop
    vertex -22114.507241389594 27386.63022142316 2.7417468268383374
    vertex -22114.507241389594 27384.63022142316 4.741746826838334
    vertex -22114.507241389594 27386.63022142316 72.74174682683852
  endloop
endfacet
facet normal 0.0 -1.0 0.0
  outer loop
    vertex -22114.507241389594 27364.130221423162 2.7417468268383374
    vertex -22112.507241389598 27364.130221423162 72.74174682683852
    vertex -22114.507241389594 27364.130221423162 72.74174682683852
  endloop
endfacet
facet normal 0.0 -1.0 0.0
  outer loop
    vertex -22112.507241389598 27364.130221423162 72.74174682683852
    vertex -22114.507241389594 27364.130221423162 2.7417468268383374
    vertex -22112.507241389598 27364.130221423162 2.7417468268383374
  endloop
endfacet
facet normal 0.0 1.0 0.0
  outer loop
    vertex -22112.507241389598 27366.630221423162 15.241746826838337
    vertex -22118.007241389594 27366.630221423162 60.24174682683852
    vertex -22112.507241389598 27366.630221423162 60.24174682683852
  endloop
endfacet
facet normal 0.0 1.0 0.0
  outer loop
    vertex -22118.007241389594 27366.630221423162 60.24174682683852
    vertex -22112.507241389598 27366.630221423162 15.241746826838337
    vertex -22118.007241389594 27366.630221423162 15.241746826838337
  endloop
endfacet
facet normal 9.860761315262648e-32 0.0 -1.0
  outer loop
    vertex -22118.007241389594 27366.630221423162 60.24174682683852
    vertex -22112.507241389598 27384.130221423155 60.24174682683852
    vertex -22112.507241389598 27366.630221423162 60.24174682683852
  endloop
endfacet
facet normal 9.860761315262648e-32 0.0 -1.0
  outer loop
    vertex -22112.507241389598 27384.130221423155 60.24174682683852
    vertex -22118.007241389594 27366.630221423162 60.24174682683852
    vertex -22118.007241389594 27384.130221423155 60.24174682683852
  endloop
endfacet
facet normal -0.0 -1.0 0.0
  outer loop
    vertex -22118.007241389594 27384.130221423155 15.241746826838337
    vertex -22112.507241389598 27384.130221423155 60.24174682683852
    vertex -22118.007241389594 27384.130221423155 60.24174682683852
  endloop
endfacet
facet normal -0.0 -1.0 0.0
  outer loop
    vertex -22112.507241389598 27384.130221423155 60.24174682683852
    vertex -22118.007241389594 27384.130221423155 15.241746826838337
    vertex -22112.507241389598 27384.130221423155 15.241746826838337
  endloop
endfacet
facet normal -9.860761315262648e-32 -8.057047092997155e-17 1.0
  outer loop
    vertex -22118.007241389594 27384.130221423155 15.241746826838337
    vertex -22112.507241389598 27366.630221423162 15.241746826838337
    vertex -22112.507241389598 27384.130221423155 15.241746826838337
  endloop
endfacet
facet normal -9.860761315262648e-32 -8.057047092997155e-17 1.0
  outer loop
    vertex -22112.507241389598 27366.630221423162 15.241746826838337
    vertex -22118.007241389594 27384.130221423155 15.241746826838337
    vertex -22118.007241389594 27366.630221423162 15.241746826838337
  endloop
endfacet
endsolid Main
