solid [0011]
facet normal 4.846740767274287e-18 -2.457446086765768e-15 1.0
  outer loop
    vertex -21960.817304573946 27458.494063088405 6.0
    vertex -21976.30014728642 27448.294063088408 6.0
    vertex -21976.30014728642 27443.011220375927 6.0
  endloop
endfacet
facet normal 4.846740767274287e-18 -2.457446086765768e-15 1.0
  outer loop
    vertex -21976.30014728642 27448.294063088408 6.0
    vertex -21960.817304573946 27458.494063088405 6.0
    vertex -21976.30014728642 27468.694063088402 6.0
  endloop
endfacet
facet normal 4.846740767274287e-18 -2.457446086765768e-15 1.0
  outer loop
    vertex -21976.30014728642 27468.694063088402 6.0
    vertex -21960.817304573946 27458.494063088405 6.0
    vertex -21976.30014728642 27473.976905800882 6.0
  endloop
endfacet
facet normal 4.846740767274287e-18 -2.457446086765768e-15 1.0
  outer loop
    vertex -21976.30014728642 27448.294063088408 6.0
    vertex -22005.900147286422 27468.694063088402 6.0
    vertex -22005.900147286422 27448.294063088408 6.0
  endloop
endfacet
facet normal 4.846740767274287e-18 -2.457446086765768e-15 1.0
  outer loop
    vertex -22005.900147286422 27468.694063088402 6.0
    vertex -21976.30014728642 27448.294063088408 6.0
    vertex -21996.300147286423 27468.694063088402 6.000000000000226
  endloop
endfacet
facet normal 4.846740767274287e-18 -2.457446086765768e-15 1.0
  outer loop
    vertex -21996.300147286423 27468.694063088402 6.000000000000226
    vertex -21976.30014728642 27448.294063088408 6.0
    vertex -21985.900147286422 27468.694063088402 6.000000000000222
  endloop
endfacet
facet normal 4.846740767274287e-18 -2.457446086765768e-15 1.0
  outer loop
    vertex -21985.900147286422 27468.694063088402 6.000000000000222
    vertex -21976.30014728642 27448.294063088408 6.0
    vertex -21976.30014728642 27468.694063088402 6.0
  endloop
endfacet
facet normal 4.846740767274287e-18 -2.457446086765768e-15 1.0
  outer loop
    vertex -22005.900147286422 27443.011220375927 6.0
    vertex -22005.900147286422 27473.976905800882 6.0
    vertex -22021.3829899989 27458.494063088405 6.0
  endloop
endfacet
facet normal 4.846740767274287e-18 -2.457446086765768e-15 1.0
  outer loop
    vertex -22005.900147286422 27473.976905800882 6.0
    vertex -22005.900147286422 27443.011220375927 6.0
    vertex -22005.900147286422 27448.294063088408 6.0
  endloop
endfacet
facet normal 4.846740767274287e-18 -2.457446086765768e-15 1.0
  outer loop
    vertex -22005.900147286422 27473.976905800882 6.0
    vertex -22005.900147286422 27448.294063088408 6.0
    vertex -22005.900147286422 27468.694063088402 6.0
  endloop
endfacet
facet normal 1.8593515988542535e-17 -1.0542464806264804e-15 -1.0
  outer loop
    vertex -22002.900147286426 27481.219546488002 2.968014722881662e-13
    vertex -22021.3829899989 27458.494063088405 2.968014722881662e-13
    vertex -22025.625630686016 27458.494063088405 2.968014722881662e-13
  endloop
endfacet
facet normal 1.8593515988542535e-17 -1.0542464806264804e-15 -1.0
  outer loop
    vertex -22021.3829899989 27458.494063088405 2.968014722881662e-13
    vertex -22002.900147286426 27481.219546488002 2.968014722881662e-13
    vertex -22005.900147286422 27473.976905800882 2.968014722881662e-13
  endloop
endfacet
facet normal 1.8593515988542535e-17 -1.0542464806264804e-15 -1.0
  outer loop
    vertex -22005.900147286422 27473.976905800882 2.968014722881662e-13
    vertex -22002.900147286426 27481.219546488002 2.968014722881662e-13
    vertex -22005.900147286422 27468.694063088402 2.968014722881662e-13
  endloop
endfacet
facet normal 1.8593515988542535e-17 -1.0542464806264804e-15 -1.0
  outer loop
    vertex -22005.900147286422 27468.694063088402 2.968014722881662e-13
    vertex -22002.900147286426 27481.219546488002 2.968014722881662e-13
    vertex -22002.900147286426 27471.694063088402 2.968014722881662e-13
  endloop
endfacet
facet normal 1.8593515988542535e-17 -1.0542464806264804e-15 -1.0
  outer loop
    vertex -22005.900147286422 27468.694063088402 2.968014722881662e-13
    vertex -22002.900147286426 27471.694063088402 2.968014722881662e-13
    vertex -21996.300147286423 27468.694063088402 2.2630231022446877e-13
  endloop
endfacet
facet normal 1.8593515988542535e-17 -1.0542464806264804e-15 -1.0
  outer loop
    vertex -21996.300147286423 27468.694063088402 2.2630231022446877e-13
    vertex -22002.900147286426 27471.694063088402 2.968014722881662e-13
    vertex -21996.300147286423 27471.694063088402 1.1914358388764866e-13
  endloop
endfacet
facet normal 1.8593515988542535e-17 -1.0542464806264804e-15 -1.0
  outer loop
    vertex -21979.30014728642 27481.219546488002 2.968014722881662e-13
    vertex -21976.30014728642 27473.976905800882 2.968014722881662e-13
    vertex -21979.30014728642 27471.694063088402 2.968014722881662e-13
  endloop
endfacet
facet normal 1.8593515988542535e-17 -1.0542464806264804e-15 -1.0
  outer loop
    vertex -21976.30014728642 27473.976905800882 2.968014722881662e-13
    vertex -21979.30014728642 27481.219546488002 2.968014722881662e-13
    vertex -21956.57466388683 27458.494063088405 2.968014722881662e-13
  endloop
endfacet
facet normal 1.8593515988542535e-17 -1.0542464806264804e-15 -1.0
  outer loop
    vertex -21976.30014728642 27473.976905800882 2.968014722881662e-13
    vertex -21956.57466388683 27458.494063088405 2.968014722881662e-13
    vertex -21960.817304573946 27458.494063088405 2.968014722881662e-13
  endloop
endfacet
facet normal 1.8593515988542535e-17 -1.0542464806264804e-15 -1.0
  outer loop
    vertex -22005.900147286422 27448.294063088408 2.968014722881662e-13
    vertex -22002.900147286426 27445.294063088408 2.968014722881662e-13
    vertex -22005.900147286422 27443.011220375927 2.968014722881662e-13
  endloop
endfacet
facet normal 1.8593515988542535e-17 -1.0542464806264804e-15 -1.0
  outer loop
    vertex -22002.900147286426 27445.294063088408 2.968014722881662e-13
    vertex -22005.900147286422 27448.294063088408 2.968014722881662e-13
    vertex -21976.30014728642 27448.294063088408 2.968014722881662e-13
  endloop
endfacet
facet normal 1.8593515988542535e-17 -1.0542464806264804e-15 -1.0
  outer loop
    vertex -22002.900147286426 27445.294063088408 2.968014722881662e-13
    vertex -21976.30014728642 27448.294063088408 2.968014722881662e-13
    vertex -21979.30014728642 27445.294063088408 2.968014722881662e-13
  endloop
endfacet
facet normal 1.8593515988542535e-17 -1.0542464806264804e-15 -1.0
  outer loop
    vertex -21979.30014728642 27445.294063088408 2.968014722881662e-13
    vertex -21976.30014728642 27448.294063088408 2.968014722881662e-13
    vertex -21979.30014728642 27435.768579688804 2.968014722881662e-13
  endloop
endfacet
facet normal 1.8593515988542535e-17 -1.0542464806264804e-15 -1.0
  outer loop
    vertex -21979.30014728642 27435.768579688804 2.968014722881662e-13
    vertex -21976.30014728642 27448.294063088408 2.968014722881662e-13
    vertex -21976.30014728642 27443.011220375927 2.968014722881662e-13
  endloop
endfacet
facet normal 1.8593515988542535e-17 -1.0542464806264804e-15 -1.0
  outer loop
    vertex -21979.30014728642 27435.768579688804 2.968014722881662e-13
    vertex -21976.30014728642 27443.011220375927 2.968014722881662e-13
    vertex -21956.57466388683 27458.494063088405 2.968014722881662e-13
  endloop
endfacet
facet normal 1.8593515988542535e-17 -1.0542464806264804e-15 -1.0
  outer loop
    vertex -21956.57466388683 27458.494063088405 2.968014722881662e-13
    vertex -21976.30014728642 27443.011220375927 2.968014722881662e-13
    vertex -21960.817304573946 27458.494063088405 2.968014722881662e-13
  endloop
endfacet
facet normal 1.8593515988542535e-17 -1.0542464806264804e-15 -1.0
  outer loop
    vertex -21979.30014728642 27471.694063088402 2.968014722881662e-13
    vertex -21985.900147286422 27468.694063088402 2.227773521212839e-13
    vertex -21985.900147286422 27471.694063088402 1.4945822357503855e-13
  endloop
endfacet
facet normal 1.8593515988542535e-17 -1.0542464806264804e-15 -1.0
  outer loop
    vertex -21985.900147286422 27468.694063088402 2.227773521212839e-13
    vertex -21979.30014728642 27471.694063088402 2.968014722881662e-13
    vertex -21976.30014728642 27468.694063088402 2.968014722881662e-13
  endloop
endfacet
facet normal 1.8593515988542535e-17 -1.0542464806264804e-15 -1.0
  outer loop
    vertex -21976.30014728642 27468.694063088402 2.968014722881662e-13
    vertex -21979.30014728642 27471.694063088402 2.968014722881662e-13
    vertex -21976.30014728642 27473.976905800882 2.968014722881662e-13
  endloop
endfacet
facet normal 1.8593515988542535e-17 -1.0542464806264804e-15 -1.0
  outer loop
    vertex -22021.3829899989 27458.494063088405 2.968014722881662e-13
    vertex -22002.900147286426 27435.768579688804 2.968014722881662e-13
    vertex -22025.625630686016 27458.494063088405 2.968014722881662e-13
  endloop
endfacet
facet normal 1.8593515988542535e-17 -1.0542464806264804e-15 -1.0
  outer loop
    vertex -22002.900147286426 27435.768579688804 2.968014722881662e-13
    vertex -22021.3829899989 27458.494063088405 2.968014722881662e-13
    vertex -22005.900147286422 27443.011220375927 2.968014722881662e-13
  endloop
endfacet
facet normal 1.8593515988542535e-17 -1.0542464806264804e-15 -1.0
  outer loop
    vertex -22002.900147286426 27435.768579688804 2.968014722881662e-13
    vertex -22005.900147286422 27443.011220375927 2.968014722881662e-13
    vertex -22002.900147286426 27445.294063088408 2.968014722881662e-13
  endloop
endfacet
facet normal 1.0 0.0 0.0
  outer loop
    vertex -22002.900147286426 27481.219546488002 2.968014722881662e-13
    vertex -22002.900147286426 27471.694063088402 9.0
    vertex -22002.900147286426 27471.694063088402 2.968014722881662e-13
  endloop
endfacet
facet normal 1.0 0.0 0.0
  outer loop
    vertex -22002.900147286426 27471.694063088402 9.0
    vertex -22002.900147286426 27481.219546488002 2.968014722881662e-13
    vertex -22002.900147286426 27481.219546488002 9.0
  endloop
endfacet
facet normal -0.7071067811866824 0.7071067811864128 0.0
  outer loop
    vertex -22002.900147286426 27481.219546488002 9.0
    vertex -22025.625630686016 27458.494063088405 2.968014722881662e-13
    vertex -22025.625630686016 27458.494063088405 9.0
  endloop
endfacet
facet normal -0.7071067811866824 0.7071067811864128 0.0
  outer loop
    vertex -22025.625630686016 27458.494063088405 2.968014722881662e-13
    vertex -22002.900147286426 27481.219546488002 9.0
    vertex -22002.900147286426 27481.219546488002 2.968014722881662e-13
  endloop
endfacet
facet normal -0.7071067811866824 -0.7071067811864128 -0.0
  outer loop
    vertex -22025.625630686016 27458.494063088405 9.0
    vertex -22002.900147286426 27435.768579688804 2.968014722881662e-13
    vertex -22002.900147286426 27435.768579688804 9.0
  endloop
endfacet
facet normal -0.7071067811866824 -0.7071067811864128 -0.0
  outer loop
    vertex -22002.900147286426 27435.768579688804 2.968014722881662e-13
    vertex -22025.625630686016 27458.494063088405 9.0
    vertex -22025.625630686016 27458.494063088405 2.968014722881662e-13
  endloop
endfacet
facet normal 1.0 0.0 0.0
  outer loop
    vertex -22002.900147286426 27445.294063088408 2.968014722881662e-13
    vertex -22002.900147286426 27435.768579688804 9.0
    vertex -22002.900147286426 27435.768579688804 2.968014722881662e-13
  endloop
endfacet
facet normal 1.0 0.0 0.0
  outer loop
    vertex -22002.900147286426 27435.768579688804 9.0
    vertex -22002.900147286426 27445.294063088408 2.968014722881662e-13
    vertex -22002.900147286426 27445.294063088408 9.0
  endloop
endfacet
facet normal 0.0 -1.0 0.0
  outer loop
    vertex -21979.30014728642 27445.294063088408 9.0
    vertex -22002.900147286426 27445.294063088408 2.968014722881662e-13
    vertex -21979.30014728642 27445.294063088408 2.968014722881662e-13
  endloop
endfacet
facet normal 0.0 -1.0 0.0
  outer loop
    vertex -22002.900147286426 27445.294063088408 2.968014722881662e-13
    vertex -21979.30014728642 27445.294063088408 9.0
    vertex -22002.900147286426 27445.294063088408 9.0
  endloop
endfacet
facet normal -1.0 -0.0 -0.0
  outer loop
    vertex -21979.30014728642 27445.294063088408 9.0
    vertex -21979.30014728642 27435.768579688804 2.968014722881662e-13
    vertex -21979.30014728642 27435.768579688804 9.0
  endloop
endfacet
facet normal -1.0 -0.0 -0.0
  outer loop
    vertex -21979.30014728642 27435.768579688804 2.968014722881662e-13
    vertex -21979.30014728642 27445.294063088408 9.0
    vertex -21979.30014728642 27445.294063088408 2.968014722881662e-13
  endloop
endfacet
facet normal 0.7071067811866824 -0.7071067811864128 0.0
  outer loop
    vertex -21956.57466388683 27458.494063088405 2.968014722881662e-13
    vertex -21979.30014728642 27435.768579688804 9.0
    vertex -21979.30014728642 27435.768579688804 2.968014722881662e-13
  endloop
endfacet
facet normal 0.7071067811866824 -0.7071067811864128 0.0
  outer loop
    vertex -21979.30014728642 27435.768579688804 9.0
    vertex -21956.57466388683 27458.494063088405 2.968014722881662e-13
    vertex -21956.57466388683 27458.494063088405 9.0
  endloop
endfacet
facet normal 0.7071067811866824 0.7071067811864128 0.0
  outer loop
    vertex -21979.30014728642 27481.219546488002 2.968014722881662e-13
    vertex -21956.57466388683 27458.494063088405 9.0
    vertex -21956.57466388683 27458.494063088405 2.968014722881662e-13
  endloop
endfacet
facet normal 0.7071067811866824 0.7071067811864128 0.0
  outer loop
    vertex -21956.57466388683 27458.494063088405 9.0
    vertex -21979.30014728642 27481.219546488002 2.968014722881662e-13
    vertex -21979.30014728642 27481.219546488002 9.0
  endloop
endfacet
facet normal -1.0 -0.0 -0.0
  outer loop
    vertex -21979.30014728642 27481.219546488002 9.0
    vertex -21979.30014728642 27471.694063088402 2.968014722881662e-13
    vertex -21979.30014728642 27471.694063088402 9.0
  endloop
endfacet
facet normal -1.0 -0.0 -0.0
  outer loop
    vertex -21979.30014728642 27471.694063088402 2.968014722881662e-13
    vertex -21979.30014728642 27481.219546488002 9.0
    vertex -21979.30014728642 27481.219546488002 2.968014722881662e-13
  endloop
endfacet
facet normal 0.0 1.0 0.0
  outer loop
    vertex -22002.900147286426 27471.694063088402 2.968014722881662e-13
    vertex -21996.300147286423 27471.694063088402 6.000000000000118
    vertex -21996.300147286423 27471.694063088402 1.1914358388764866e-13
  endloop
endfacet
facet normal 0.0 1.0 0.0
  outer loop
    vertex -21996.300147286423 27471.694063088402 6.000000000000118
    vertex -22002.900147286426 27471.694063088402 2.968014722881662e-13
    vertex -22002.900147286426 27471.694063088402 9.0
  endloop
endfacet
facet normal 0.0 1.0 0.0
  outer loop
    vertex -21996.300147286423 27471.694063088402 6.000000000000118
    vertex -22002.900147286426 27471.694063088402 9.0
    vertex -21985.900147286422 27471.694063088402 6.000000000000149
  endloop
endfacet
facet normal 0.0 1.0 0.0
  outer loop
    vertex -21985.900147286422 27471.694063088402 6.000000000000149
    vertex -21979.30014728642 27471.694063088402 2.968014722881662e-13
    vertex -21985.900147286422 27471.694063088402 1.4945822357503855e-13
  endloop
endfacet
facet normal 0.0 1.0 0.0
  outer loop
    vertex -21979.30014728642 27471.694063088402 2.968014722881662e-13
    vertex -21985.900147286422 27471.694063088402 6.000000000000149
    vertex -21979.30014728642 27471.694063088402 9.0
  endloop
endfacet
facet normal 0.0 1.0 0.0
  outer loop
    vertex -21979.30014728642 27471.694063088402 9.0
    vertex -21985.900147286422 27471.694063088402 6.000000000000149
    vertex -22002.900147286426 27471.694063088402 9.0
  endloop
endfacet
facet normal -1.0 -0.0 -0.0
  outer loop
    vertex -22005.900147286422 27448.294063088408 6.0
    vertex -22005.900147286422 27443.011220375927 2.968014722881662e-13
    vertex -22005.900147286422 27443.011220375927 6.0
  endloop
endfacet
facet normal -1.0 -0.0 -0.0
  outer loop
    vertex -22005.900147286422 27443.011220375927 2.968014722881662e-13
    vertex -22005.900147286422 27448.294063088408 6.0
    vertex -22005.900147286422 27448.294063088408 2.968014722881662e-13
  endloop
endfacet
facet normal 0.7071067811866135 0.7071067811864816 0.0
  outer loop
    vertex -22021.3829899989 27458.494063088405 2.968014722881662e-13
    vertex -22005.900147286422 27443.011220375927 6.0
    vertex -22005.900147286422 27443.011220375927 2.968014722881662e-13
  endloop
endfacet
facet normal 0.7071067811866135 0.7071067811864816 0.0
  outer loop
    vertex -22005.900147286422 27443.011220375927 6.0
    vertex -22021.3829899989 27458.494063088405 2.968014722881662e-13
    vertex -22021.3829899989 27458.494063088405 6.0
  endloop
endfacet
facet normal 0.7071067811866135 -0.7071067811864816 0.0
  outer loop
    vertex -22005.900147286422 27473.976905800882 2.968014722881662e-13
    vertex -22021.3829899989 27458.494063088405 6.0
    vertex -22021.3829899989 27458.494063088405 2.968014722881662e-13
  endloop
endfacet
facet normal 0.7071067811866135 -0.7071067811864816 0.0
  outer loop
    vertex -22021.3829899989 27458.494063088405 6.0
    vertex -22005.900147286422 27473.976905800882 2.968014722881662e-13
    vertex -22005.900147286422 27473.976905800882 6.0
  endloop
endfacet
facet normal -1.0 -0.0 -0.0
  outer loop
    vertex -22005.900147286422 27473.976905800882 6.0
    vertex -22005.900147286422 27468.694063088402 2.968014722881662e-13
    vertex -22005.900147286422 27468.694063088402 6.0
  endloop
endfacet
facet normal -1.0 -0.0 -0.0
  outer loop
    vertex -22005.900147286422 27468.694063088402 2.968014722881662e-13
    vertex -22005.900147286422 27473.976905800882 6.0
    vertex -22005.900147286422 27473.976905800882 2.968014722881662e-13
  endloop
endfacet
facet normal 0.0 -1.0 0.0
  outer loop
    vertex -21976.30014728642 27468.694063088402 2.968014722881662e-13
    vertex -21985.900147286422 27468.694063088402 6.000000000000222
    vertex -21985.900147286422 27468.694063088402 2.227773521212839e-13
  endloop
endfacet
facet normal 0.0 -1.0 0.0
  outer loop
    vertex -21985.900147286422 27468.694063088402 6.000000000000222
    vertex -21976.30014728642 27468.694063088402 2.968014722881662e-13
    vertex -21976.30014728642 27468.694063088402 6.0
  endloop
endfacet
facet normal 1.0 0.0 0.0
  outer loop
    vertex -21976.30014728642 27473.976905800882 2.968014722881662e-13
    vertex -21976.30014728642 27468.694063088402 6.0
    vertex -21976.30014728642 27468.694063088402 2.968014722881662e-13
  endloop
endfacet
facet normal 1.0 0.0 0.0
  outer loop
    vertex -21976.30014728642 27468.694063088402 6.0
    vertex -21976.30014728642 27473.976905800882 2.968014722881662e-13
    vertex -21976.30014728642 27473.976905800882 6.0
  endloop
endfacet
facet normal -0.7071067811866135 -0.7071067811864816 -0.0
  outer loop
    vertex -21976.30014728642 27473.976905800882 6.0
    vertex -21960.817304573946 27458.494063088405 2.968014722881662e-13
    vertex -21960.817304573946 27458.494063088405 6.0
  endloop
endfacet
facet normal -0.7071067811866135 -0.7071067811864816 -0.0
  outer loop
    vertex -21960.817304573946 27458.494063088405 2.968014722881662e-13
    vertex -21976.30014728642 27473.976905800882 6.0
    vertex -21976.30014728642 27473.976905800882 2.968014722881662e-13
  endloop
endfacet
facet normal -0.7071067811866135 0.7071067811864816 0.0
  outer loop
    vertex -21960.817304573946 27458.494063088405 6.0
    vertex -21976.30014728642 27443.011220375927 2.968014722881662e-13
    vertex -21976.30014728642 27443.011220375927 6.0
  endloop
endfacet
facet normal -0.7071067811866135 0.7071067811864816 0.0
  outer loop
    vertex -21976.30014728642 27443.011220375927 2.968014722881662e-13
    vertex -21960.817304573946 27458.494063088405 6.0
    vertex -21960.817304573946 27458.494063088405 2.968014722881662e-13
  endloop
endfacet
facet normal 1.0 0.0 0.0
  outer loop
    vertex -21976.30014728642 27448.294063088408 2.968014722881662e-13
    vertex -21976.30014728642 27443.011220375927 6.0
    vertex -21976.30014728642 27443.011220375927 2.968014722881662e-13
  endloop
endfacet
facet normal 1.0 0.0 0.0
  outer loop
    vertex -21976.30014728642 27443.011220375927 6.0
    vertex -21976.30014728642 27448.294063088408 2.968014722881662e-13
    vertex -21976.30014728642 27448.294063088408 6.0
  endloop
endfacet
facet normal 0.0 1.0 0.0
  outer loop
    vertex -22005.900147286422 27448.294063088408 6.0
    vertex -21976.30014728642 27448.294063088408 2.968014722881662e-13
    vertex -22005.900147286422 27448.294063088408 2.968014722881662e-13
  endloop
endfacet
facet normal 0.0 1.0 0.0
  outer loop
    vertex -21976.30014728642 27448.294063088408 2.968014722881662e-13
    vertex -22005.900147286422 27448.294063088408 6.0
    vertex -21976.30014728642 27448.294063088408 6.0
  endloop
endfacet
facet normal 0.0 0.0 1.0
  outer loop
    vertex -21956.57466388683 27458.494063088405 9.0
    vertex -21979.30014728642 27445.294063088408 9.0
    vertex -21979.30014728642 27435.768579688804 9.0
  endloop
endfacet
facet normal 0.0 0.0 1.0
  outer loop
    vertex -21979.30014728642 27445.294063088408 9.0
    vertex -21956.57466388683 27458.494063088405 9.0
    vertex -21979.30014728642 27471.694063088402 9.0
  endloop
endfacet
facet normal 0.0 0.0 1.0
  outer loop
    vertex -21979.30014728642 27471.694063088402 9.0
    vertex -21956.57466388683 27458.494063088405 9.0
    vertex -21979.30014728642 27481.219546488002 9.0
  endloop
endfacet
facet normal 0.0 0.0 1.0
  outer loop
    vertex -21979.30014728642 27445.294063088408 9.0
    vertex -22002.900147286426 27471.694063088402 9.0
    vertex -22002.900147286426 27445.294063088408 9.0
  endloop
endfacet
facet normal 0.0 0.0 1.0
  outer loop
    vertex -22002.900147286426 27471.694063088402 9.0
    vertex -21979.30014728642 27445.294063088408 9.0
    vertex -21979.30014728642 27471.694063088402 9.0
  endloop
endfacet
facet normal 0.0 0.0 1.0
  outer loop
    vertex -22002.900147286426 27435.768579688804 9.0
    vertex -22002.900147286426 27481.219546488002 9.0
    vertex -22025.625630686016 27458.494063088405 9.0
  endloop
endfacet
facet normal 0.0 0.0 1.0
  outer loop
    vertex -22002.900147286426 27481.219546488002 9.0
    vertex -22002.900147286426 27435.768579688804 9.0
    vertex -22002.900147286426 27445.294063088408 9.0
  endloop
endfacet
facet normal 0.0 0.0 1.0
  outer loop
    vertex -22002.900147286426 27481.219546488002 9.0
    vertex -22002.900147286426 27445.294063088408 9.0
    vertex -22002.900147286426 27471.694063088402 9.0
  endloop
endfacet
facet normal 1.3747336602420155e-15 -3.019714108395727e-14 -1.0
  outer loop
    vertex -21985.900147286422 27471.694063088402 6.000000000000149
    vertex -21996.300147286423 27468.694063088402 6.000000000000226
    vertex -21996.300147286423 27471.694063088402 6.000000000000118
  endloop
endfacet
facet normal 1.3747336602420155e-15 -3.019714108395727e-14 -1.0
  outer loop
    vertex -21996.300147286423 27468.694063088402 6.000000000000226
    vertex -21985.900147286422 27471.694063088402 6.000000000000149
    vertex -21985.900147286422 27468.694063088402 6.000000000000222
  endloop
endfacet
facet normal 1.0 0.0 0.0
  outer loop
    vertex -21996.300147286423 27471.694063088402 1.1914358388764866e-13
    vertex -21996.300147286423 27468.694063088402 6.000000000000226
    vertex -21996.300147286423 27468.694063088402 2.2630231022446877e-13
  endloop
endfacet
facet normal 1.0 0.0 0.0
  outer loop
    vertex -21996.300147286423 27468.694063088402 6.000000000000226
    vertex -21996.300147286423 27471.694063088402 1.1914358388764866e-13
    vertex -21996.300147286423 27471.694063088402 6.000000000000118
  endloop
endfacet
facet normal -1.0 0.0 0.0
  outer loop
    vertex -21985.900147286422 27471.694063088402 6.000000000000149
    vertex -21985.900147286422 27468.694063088402 2.227773521212839e-13
    vertex -21985.900147286422 27468.694063088402 6.000000000000222
  endloop
endfacet
facet normal -1.0 0.0 0.0
  outer loop
    vertex -21985.900147286422 27468.694063088402 2.227773521212839e-13
    vertex -21985.900147286422 27471.694063088402 6.000000000000149
    vertex -21985.900147286422 27471.694063088402 1.4945822357503855e-13
  endloop
endfacet
facet normal 0.0 -1.0 0.0
  outer loop
    vertex -21996.300147286423 27468.694063088402 6.000000000000226
    vertex -22005.900147286422 27468.694063088402 2.968014722881662e-13
    vertex -21996.300147286423 27468.694063088402 2.2630231022446877e-13
  endloop
endfacet
facet normal 0.0 -1.0 0.0
  outer loop
    vertex -22005.900147286422 27468.694063088402 2.968014722881662e-13
    vertex -21996.300147286423 27468.694063088402 6.000000000000226
    vertex -22005.900147286422 27468.694063088402 6.0
  endloop
endfacet
endsolid [0011]
