solid Main
facet normal 1.0 4.245937549329915e-31 0.0
  outer loop
    vertex -22080.107241389596 27488.63022142315 71.0
    vertex -22080.107241389596 27463.630221423165 73.5
    vertex -22080.107241389596 27463.630221423165 71.0
  endloop
endfacet
facet normal 1.0 4.245937549329915e-31 0.0
  outer loop
    vertex -22080.107241389596 27463.630221423165 73.5
    vertex -22080.107241389596 27488.63022142315 71.0
    vertex -22080.107241389596 27488.63022142315 73.5
  endloop
endfacet
facet normal 0.0 -5.984021303880598e-30 1.0
  outer loop
    vertex -22076.507241389598 27463.630221423165 71.0
    vertex -22080.107241389596 27488.63022142315 71.0
    vertex -22080.107241389596 27463.630221423165 71.0
  endloop
endfacet
facet normal 0.0 -5.984021303880598e-30 1.0
  outer loop
    vertex -22080.107241389596 27488.63022142315 71.0
    vertex -22076.507241389598 27463.630221423165 71.0
    vertex -22076.507241389598 27488.63022142315 71.0
  endloop
endfacet
facet normal 1.0 0.0 0.0
  outer loop
    vertex -22076.507241389598 27463.630221423165 2.4999999999999956
    vertex -22076.507241389598 27466.630221423162 62.499999999999986
    vertex -22076.507241389598 27463.630221423165 71.0
  endloop
endfacet
facet normal 1.0 0.0 0.0
  outer loop
    vertex -22076.507241389598 27466.630221423162 62.499999999999986
    vertex -22076.507241389598 27463.630221423165 2.4999999999999956
    vertex -22076.507241389598 27488.63022142316 2.4999999999999956
  endloop
endfacet
facet normal 1.0 0.0 0.0
  outer loop
    vertex -22076.507241389598 27466.630221423162 62.499999999999986
    vertex -22076.507241389598 27488.63022142316 2.4999999999999956
    vertex -22076.507241389598 27488.63022142316 62.499999999999986
  endloop
endfacet
facet normal 1.0 0.0 0.0
  outer loop
    vertex -22076.507241389598 27463.630221423165 71.0
    vertex -22076.507241389598 27466.630221423162 68.0
    vertex -22076.507241389598 27488.63022142315 71.0
  endloop
endfacet
facet normal 1.0 0.0 0.0
  outer loop
    vertex -22076.507241389598 27466.630221423162 68.0
    vertex -22076.507241389598 27463.630221423165 71.0
    vertex -22076.507241389598 27466.630221423162 62.499999999999986
  endloop
endfacet
facet normal 1.0 0.0 0.0
  outer loop
    vertex -22076.507241389598 27488.63022142315 71.0
    vertex -22076.507241389598 27466.630221423162 68.0
    vertex -22076.507241389598 27488.63022142315 68.0
  endloop
endfacet
facet normal 0.0 5.984021303880598e-30 -1.0
  outer loop
    vertex -22076.507241389598 27488.63022142316 2.4999999999999956
    vertex -22080.107241389596 27463.630221423165 2.4999999999999956
    vertex -22080.107241389596 27488.63022142316 2.4999999999999956
  endloop
endfacet
facet normal 0.0 5.984021303880598e-30 -1.0
  outer loop
    vertex -22080.107241389596 27463.630221423165 2.4999999999999956
    vertex -22076.507241389598 27488.63022142316 2.4999999999999956
    vertex -22076.507241389598 27463.630221423165 2.4999999999999956
  endloop
endfacet
facet normal 1.0 4.245937549329915e-31 0.0
  outer loop
    vertex -22080.107241389596 27488.63022142316 1.7952063911646351e-29
    vertex -22080.107241389596 27463.630221423165 2.4999999999999956
    vertex -22080.107241389596 27463.630221423165 0.0
  endloop
endfacet
facet normal 1.0 4.245937549329915e-31 0.0
  outer loop
    vertex -22080.107241389596 27463.630221423165 2.4999999999999956
    vertex -22080.107241389596 27488.63022142316 1.7952063911646351e-29
    vertex -22080.107241389596 27488.63022142316 2.4999999999999956
  endloop
endfacet
facet normal 0.0 5.9840213038805986e-30 -1.0
  outer loop
    vertex -22080.107241389596 27488.63022142316 1.7952063911646351e-29
    vertex -22100.1072413896 27463.630221423165 0.0
    vertex -22100.1072413896 27488.63022142316 1.7952063911646351e-29
  endloop
endfacet
facet normal 0.0 5.9840213038805986e-30 -1.0
  outer loop
    vertex -22100.1072413896 27463.630221423165 0.0
    vertex -22080.107241389596 27488.63022142316 1.7952063911646351e-29
    vertex -22080.107241389596 27463.630221423165 0.0
  endloop
endfacet
facet normal 0.0 -5.9840213038805986e-30 1.0
  outer loop
    vertex -22080.107241389596 27463.630221423165 73.5
    vertex -22100.1072413896 27488.63022142315 73.5
    vertex -22100.1072413896 27463.630221423165 73.5
  endloop
endfacet
facet normal 0.0 -5.9840213038805986e-30 1.0
  outer loop
    vertex -22100.1072413896 27488.63022142315 73.5
    vertex -22080.107241389596 27463.630221423165 73.5
    vertex -22080.107241389596 27488.63022142315 73.5
  endloop
endfacet
facet normal 0.0 1.0 0.0
  outer loop
    vertex -22100.1072413896 27488.63022142316 3.0000000000000013
    vertex -22080.107241389596 27488.63022142316 1.7952063911646351e-29
    vertex -22100.1072413896 27488.63022142316 1.7952063911646351e-29
  endloop
endfacet
facet normal 0.0 1.0 0.0
  outer loop
    vertex -22080.107241389596 27488.63022142316 1.7952063911646351e-29
    vertex -22100.1072413896 27488.63022142316 3.0000000000000013
    vertex -22080.107241389596 27488.63022142316 2.4999999999999956
  endloop
endfacet
facet normal 0.0 1.0 0.0
  outer loop
    vertex -22080.107241389596 27488.63022142316 2.4999999999999956
    vertex -22100.1072413896 27488.63022142316 3.0000000000000013
    vertex -22076.507241389598 27488.63022142316 2.4999999999999956
  endloop
endfacet
facet normal 0.0 1.0 0.0
  outer loop
    vertex -22076.507241389598 27488.63022142316 2.4999999999999956
    vertex -22100.1072413896 27488.63022142316 3.0000000000000013
    vertex -22083.107241389596 27488.63022142316 3.0
  endloop
endfacet
facet normal 0.0 1.0 0.0
  outer loop
    vertex -22076.507241389598 27488.63022142316 2.4999999999999956
    vertex -22079.507241389598 27488.63022142316 5.499999999999996
    vertex -22076.507241389598 27488.63022142316 62.499999999999986
  endloop
endfacet
facet normal 0.0 1.0 0.0
  outer loop
    vertex -22079.507241389598 27488.63022142316 5.499999999999996
    vertex -22076.507241389598 27488.63022142316 2.4999999999999956
    vertex -22083.107241389596 27488.63022142316 3.0
  endloop
endfacet
facet normal 0.0 1.0 0.0
  outer loop
    vertex -22079.507241389598 27488.63022142316 5.499999999999996
    vertex -22083.107241389596 27488.63022142316 3.0
    vertex -22083.107241389596 27488.63022142316 5.499999999999996
  endloop
endfacet
facet normal 0.0 1.0 0.0
  outer loop
    vertex -22076.507241389598 27488.63022142316 62.499999999999986
    vertex -22079.507241389598 27488.63022142316 5.499999999999996
    vertex -22079.507241389598 27488.63022142316 62.499999999999986
  endloop
endfacet
facet normal -1.0 0.0 0.0
  outer loop
    vertex -22079.507241389598 27488.63022142316 62.499999999999986
    vertex -22079.507241389598 27466.630221423162 5.499999999999996
    vertex -22079.507241389598 27466.630221423162 62.499999999999986
  endloop
endfacet
facet normal -1.0 0.0 0.0
  outer loop
    vertex -22079.507241389598 27466.630221423162 5.499999999999996
    vertex -22079.507241389598 27488.63022142316 62.499999999999986
    vertex -22079.507241389598 27488.63022142316 5.499999999999996
  endloop
endfacet
facet normal 0.0 0.0 1.0
  outer loop
    vertex -22076.507241389598 27466.630221423162 62.499999999999986
    vertex -22079.507241389598 27488.63022142316 62.499999999999986
    vertex -22079.507241389598 27466.630221423162 62.499999999999986
  endloop
endfacet
facet normal 0.0 0.0 1.0
  outer loop
    vertex -22079.507241389598 27488.63022142316 62.499999999999986
    vertex -22076.507241389598 27466.630221423162 62.499999999999986
    vertex -22076.507241389598 27488.63022142316 62.499999999999986
  endloop
endfacet
facet normal -1.0 0.0 0.0
  outer loop
    vertex -22083.107241389596 27488.63022142316 5.499999999999996
    vertex -22083.107241389596 27466.630221423162 3.0
    vertex -22083.107241389596 27466.630221423162 5.499999999999996
  endloop
endfacet
facet normal -1.0 0.0 0.0
  outer loop
    vertex -22083.107241389596 27466.630221423162 3.0
    vertex -22083.107241389596 27488.63022142316 5.499999999999996
    vertex -22083.107241389596 27488.63022142316 3.0
  endloop
endfacet
facet normal 0.0 0.0 1.0
  outer loop
    vertex -22079.507241389598 27466.630221423162 5.499999999999996
    vertex -22083.107241389596 27488.63022142316 5.499999999999996
    vertex -22083.107241389596 27466.630221423162 5.499999999999996
  endloop
endfacet
facet normal 0.0 0.0 1.0
  outer loop
    vertex -22083.107241389596 27488.63022142316 5.499999999999996
    vertex -22079.507241389598 27466.630221423162 5.499999999999996
    vertex -22079.507241389598 27488.63022142316 5.499999999999996
  endloop
endfacet
facet normal 0.0 1.0 0.0
  outer loop
    vertex -22100.1072413896 27488.63022142315 73.5
    vertex -22083.107241389596 27488.63022142315 70.5
    vertex -22100.1072413896 27488.63022142315 70.5
  endloop
endfacet
facet normal 0.0 1.0 0.0
  outer loop
    vertex -22083.107241389596 27488.63022142315 70.5
    vertex -22100.1072413896 27488.63022142315 73.5
    vertex -22080.107241389596 27488.63022142315 71.0
  endloop
endfacet
facet normal 0.0 1.0 0.0
  outer loop
    vertex -22080.107241389596 27488.63022142315 71.0
    vertex -22100.1072413896 27488.63022142315 73.5
    vertex -22080.107241389596 27488.63022142315 73.5
  endloop
endfacet
facet normal 0.0 1.0 0.0
  outer loop
    vertex -22083.107241389596 27488.63022142315 70.5
    vertex -22076.507241389598 27488.63022142315 68.0
    vertex -22083.107241389596 27488.63022142315 68.0
  endloop
endfacet
facet normal 0.0 1.0 0.0
  outer loop
    vertex -22076.507241389598 27488.63022142315 68.0
    vertex -22083.107241389596 27488.63022142315 70.5
    vertex -22076.507241389598 27488.63022142315 71.0
  endloop
endfacet
facet normal 0.0 1.0 0.0
  outer loop
    vertex -22076.507241389598 27488.63022142315 71.0
    vertex -22083.107241389596 27488.63022142315 70.5
    vertex -22080.107241389596 27488.63022142315 71.0
  endloop
endfacet
facet normal -0.0 -0.0 -1.0
  outer loop
    vertex -22076.507241389598 27488.63022142315 68.0
    vertex -22083.107241389596 27466.630221423162 68.0
    vertex -22083.107241389596 27488.63022142315 68.0
  endloop
endfacet
facet normal -0.0 -0.0 -1.0
  outer loop
    vertex -22083.107241389596 27466.630221423162 68.0
    vertex -22076.507241389598 27488.63022142315 68.0
    vertex -22076.507241389598 27466.630221423162 68.0
  endloop
endfacet
facet normal -1.0 0.0 0.0
  outer loop
    vertex -22083.107241389596 27488.63022142315 70.5
    vertex -22083.107241389596 27466.630221423162 68.0
    vertex -22083.107241389596 27466.630221423162 70.5
  endloop
endfacet
facet normal -1.0 0.0 0.0
  outer loop
    vertex -22083.107241389596 27466.630221423162 68.0
    vertex -22083.107241389596 27488.63022142315 70.5
    vertex -22083.107241389596 27488.63022142315 68.0
  endloop
endfacet
facet normal -1.0 0.0 0.0
  outer loop
    vertex -22100.1072413896 27466.630221423162 7.000000000000001
    vertex -22100.1072413896 27463.630221423165 3.0000000000000013
    vertex -22100.1072413896 27463.630221423165 7.000000000000001
  endloop
endfacet
facet normal -1.0 0.0 0.0
  outer loop
    vertex -22100.1072413896 27463.630221423165 3.0000000000000013
    vertex -22100.1072413896 27466.630221423162 7.000000000000001
    vertex -22100.1072413896 27466.630221423162 3.0000000000000013
  endloop
endfacet
facet normal -0.7933533402910816 -4.73132149633816e-18 -0.6087614290089206
  outer loop
    vertex -22097.278814264853 27466.630221423162 13.828427124746192
    vertex -22096.64313977446 27463.630221423165 12.999999999999998
    vertex -22097.278814264853 27463.630221423165 13.828427124746192
  endloop
endfacet
facet normal -0.7933533402910816 -4.73132149633816e-18 -0.6087614290089206
  outer loop
    vertex -22096.64313977446 27463.630221423165 12.999999999999998
    vertex -22097.278814264853 27466.630221423162 13.828427124746192
    vertex -22096.64313977446 27466.630221423162 12.999999999999998
  endloop
endfacet
facet normal -0.9914448613735951 -1.8371467910752676e-24 0.13052619222168663
  outer loop
    vertex -22096.107241389596 27466.630221423162 11.000000000000002
    vertex -22096.243538084444 27463.630221423165 9.964723819589915
    vertex -22096.107241389596 27463.630221423165 11.000000000000002
  endloop
endfacet
facet normal -0.9914448613735951 -1.8371467910752676e-24 0.13052619222168663
  outer loop
    vertex -22096.243538084444 27463.630221423165 9.964723819589915
    vertex -22096.107241389596 27466.630221423162 11.000000000000002
    vertex -22096.243538084444 27466.630221423162 9.964723819589915
  endloop
endfacet
facet normal 0.0 0.0 -1.0
  outer loop
    vertex -22100.1072413896 27466.630221423162 14.999999999999998
    vertex -22112.507241389598 27463.630221423165 14.999999999999998
    vertex -22112.507241389598 27466.630221423162 14.999999999999998
  endloop
endfacet
facet normal 0.0 0.0 -1.0
  outer loop
    vertex -22112.507241389598 27463.630221423165 14.999999999999998
    vertex -22100.1072413896 27466.630221423162 14.999999999999998
    vertex -22100.1072413896 27463.630221423165 14.999999999999998
  endloop
endfacet
facet normal -0.3826834323650164 -5.948463504968546e-18 0.9238795325113173
  outer loop
    vertex -22098.107241389596 27463.630221423165 7.535898384862246
    vertex -22099.071965209187 27466.630221423162 7.136296694843728
    vertex -22099.071965209187 27463.630221423165 7.136296694843728
  endloop
endfacet
facet normal -0.3826834323650164 -5.948463504968546e-18 0.9238795325113173
  outer loop
    vertex -22099.071965209187 27466.630221423162 7.136296694843728
    vertex -22098.107241389596 27463.630221423165 7.535898384862246
    vertex -22098.107241389596 27466.630221423162 7.535898384862246
  endloop
endfacet
facet normal -0.9238795325116261 0.0 0.38268343236427077
  outer loop
    vertex -22096.243538084444 27466.630221423162 9.964723819589915
    vertex -22096.64313977446 27463.630221423165 8.999999999999998
    vertex -22096.243538084444 27463.630221423165 9.964723819589915
  endloop
endfacet
facet normal -0.9238795325116261 0.0 0.38268343236427077
  outer loop
    vertex -22096.64313977446 27463.630221423165 8.999999999999998
    vertex -22096.243538084444 27466.630221423162 9.964723819589915
    vertex -22096.64313977446 27466.630221423162 8.999999999999998
  endloop
endfacet
facet normal -0.38268343236501867 5.948463504968582e-18 -0.9238795325113163
  outer loop
    vertex -22098.107241389596 27466.630221423162 14.46410161513775
    vertex -22099.071965209187 27463.630221423165 14.863703305156271
    vertex -22099.071965209187 27466.630221423162 14.863703305156271
  endloop
endfacet
facet normal -0.38268343236501867 5.948463504968582e-18 -0.9238795325113163
  outer loop
    vertex -22099.071965209187 27463.630221423165 14.863703305156271
    vertex -22098.107241389596 27466.630221423162 14.46410161513775
    vertex -22098.107241389596 27463.630221423165 14.46410161513775
  endloop
endfacet
facet normal -0.9914448613735951 -1.8372648892019682e-24 -0.13052619222168718
  outer loop
    vertex -22096.243538084444 27466.630221423162 12.035276180410083
    vertex -22096.107241389596 27463.630221423165 11.000000000000002
    vertex -22096.243538084444 27463.630221423165 12.035276180410083
  endloop
endfacet
facet normal -0.9914448613735951 -1.8372648892019682e-24 -0.13052619222168718
  outer loop
    vertex -22096.107241389596 27463.630221423165 11.000000000000002
    vertex -22096.243538084444 27466.630221423162 12.035276180410083
    vertex -22096.107241389596 27466.630221423162 11.000000000000002
  endloop
endfacet
facet normal -0.13052619221977677 -4.83729926958544e-25 -0.9914448613738466
  outer loop
    vertex -22099.071965209187 27466.630221423162 14.863703305156271
    vertex -22100.1072413896 27463.630221423165 14.999999999999998
    vertex -22100.1072413896 27466.630221423162 14.999999999999998
  endloop
endfacet
facet normal -0.13052619221977677 -4.83729926958544e-25 -0.9914448613738466
  outer loop
    vertex -22100.1072413896 27463.630221423165 14.999999999999998
    vertex -22099.071965209187 27466.630221423162 14.863703305156271
    vertex -22099.071965209187 27463.630221423165 14.863703305156271
  endloop
endfacet
facet normal -0.13052619221977677 4.83729926958544e-25 0.9914448613738466
  outer loop
    vertex -22099.071965209187 27463.630221423165 7.136296694843728
    vertex -22100.1072413896 27466.630221423162 7.000000000000001
    vertex -22100.1072413896 27463.630221423165 7.000000000000001
  endloop
endfacet
facet normal -0.13052619221977677 4.83729926958544e-25 0.9914448613738466
  outer loop
    vertex -22100.1072413896 27466.630221423162 7.000000000000001
    vertex -22099.071965209187 27463.630221423165 7.136296694843728
    vertex -22099.071965209187 27466.630221423162 7.136296694843728
  endloop
endfacet
facet normal -0.9238795325116261 0.0 -0.38268343236427077
  outer loop
    vertex -22096.64313977446 27466.630221423162 12.999999999999998
    vertex -22096.243538084444 27463.630221423165 12.035276180410083
    vertex -22096.64313977446 27463.630221423165 12.999999999999998
  endloop
endfacet
facet normal -0.9238795325116261 0.0 -0.38268343236427077
  outer loop
    vertex -22096.243538084444 27463.630221423165 12.035276180410083
    vertex -22096.64313977446 27466.630221423162 12.999999999999998
    vertex -22096.243538084444 27466.630221423162 12.035276180410083
  endloop
endfacet
facet normal -0.6087614290094248 6.165976305958629e-18 0.7933533402906948
  outer loop
    vertex -22097.278814264853 27463.630221423165 8.17157287525381
    vertex -22098.107241389596 27466.630221423162 7.535898384862246
    vertex -22098.107241389596 27463.630221423165 7.535898384862246
  endloop
endfacet
facet normal -0.6087614290094248 6.165976305958629e-18 0.7933533402906948
  outer loop
    vertex -22098.107241389596 27466.630221423162 7.535898384862246
    vertex -22097.278814264853 27463.630221423165 8.17157287525381
    vertex -22097.278814264853 27466.630221423162 8.17157287525381
  endloop
endfacet
facet normal -0.6087614290094223 0.0 -0.7933533402906968
  outer loop
    vertex -22097.278814264853 27466.630221423162 13.828427124746192
    vertex -22098.107241389596 27463.630221423165 14.46410161513775
    vertex -22098.107241389596 27466.630221423162 14.46410161513775
  endloop
endfacet
facet normal -0.6087614290094223 0.0 -0.7933533402906968
  outer loop
    vertex -22098.107241389596 27463.630221423165 14.46410161513775
    vertex -22097.278814264853 27466.630221423162 13.828427124746192
    vertex -22097.278814264853 27463.630221423165 13.828427124746192
  endloop
endfacet
facet normal -0.7933533402910808 -1.4700833098124134e-24 0.6087614290089218
  outer loop
    vertex -22096.64313977446 27466.630221423162 8.999999999999998
    vertex -22097.278814264853 27463.630221423165 8.17157287525381
    vertex -22096.64313977446 27463.630221423165 8.999999999999998
  endloop
endfacet
facet normal -0.7933533402910808 -1.4700833098124134e-24 0.6087614290089218
  outer loop
    vertex -22097.278814264853 27463.630221423165 8.17157287525381
    vertex -22096.64313977446 27466.630221423162 8.999999999999998
    vertex -22097.278814264853 27466.630221423162 8.17157287525381
  endloop
endfacet
facet normal -1.0 0.0 0.0
  outer loop
    vertex -22100.1072413896 27466.630221423162 3.0000000000000013
    vertex -22100.1072413896 27463.630221423165 0.0
    vertex -22100.1072413896 27463.630221423165 3.0000000000000013
  endloop
endfacet
facet normal -1.0 0.0 0.0
  outer loop
    vertex -22100.1072413896 27463.630221423165 0.0
    vertex -22100.1072413896 27466.630221423162 3.0000000000000013
    vertex -22100.1072413896 27488.63022142316 1.7952063911646351e-29
  endloop
endfacet
facet normal -1.0 0.0 0.0
  outer loop
    vertex -22100.1072413896 27488.63022142316 1.7952063911646351e-29
    vertex -22100.1072413896 27466.630221423162 3.0000000000000013
    vertex -22100.1072413896 27488.63022142316 3.0000000000000013
  endloop
endfacet
facet normal 7.257266683026862e-17 8.011268416331077e-18 1.0
  outer loop
    vertex -22083.107241389596 27466.630221423162 3.0
    vertex -22100.1072413896 27488.63022142316 3.0000000000000013
    vertex -22100.1072413896 27466.630221423162 3.0000000000000013
  endloop
endfacet
facet normal 7.257266683026862e-17 8.011268416331077e-18 1.0
  outer loop
    vertex -22100.1072413896 27488.63022142316 3.0000000000000013
    vertex -22083.107241389596 27466.630221423162 3.0
    vertex -22083.107241389596 27488.63022142316 3.0
  endloop
endfacet
facet normal 0.0 1.0 0.0
  outer loop
    vertex -22112.507241389598 27466.630221423162 58.499999999999986
    vertex -22100.1072413896 27466.630221423162 14.999999999999998
    vertex -22112.507241389598 27466.630221423162 14.999999999999998
  endloop
endfacet
facet normal 0.0 1.0 0.0
  outer loop
    vertex -22100.1072413896 27466.630221423162 70.5
    vertex -22083.107241389596 27466.630221423162 68.0
    vertex -22100.1072413896 27466.630221423162 66.49999999999999
  endloop
endfacet
facet normal 0.0 1.0 0.0
  outer loop
    vertex -22083.107241389596 27466.630221423162 68.0
    vertex -22100.1072413896 27466.630221423162 70.5
    vertex -22083.107241389596 27466.630221423162 70.5
  endloop
endfacet
facet normal 0.0 1.0 0.0
  outer loop
    vertex -22100.1072413896 27466.630221423162 3.0000000000000013
    vertex -22083.107241389596 27466.630221423162 5.499999999999996
    vertex -22083.107241389596 27466.630221423162 3.0
  endloop
endfacet
facet normal 0.0 1.0 0.0
  outer loop
    vertex -22083.107241389596 27466.630221423162 5.499999999999996
    vertex -22100.1072413896 27466.630221423162 3.0000000000000013
    vertex -22100.1072413896 27466.630221423162 7.000000000000001
  endloop
endfacet
facet normal 0.0 1.0 0.0
  outer loop
    vertex -22083.107241389596 27466.630221423162 5.499999999999996
    vertex -22100.1072413896 27466.630221423162 7.000000000000001
    vertex -22079.507241389598 27466.630221423162 5.499999999999996
  endloop
endfacet
facet normal 0.0 1.0 0.0
  outer loop
    vertex -22079.507241389598 27466.630221423162 5.499999999999996
    vertex -22100.1072413896 27466.630221423162 7.000000000000001
    vertex -22099.071965209187 27466.630221423162 7.136296694843728
  endloop
endfacet
facet normal 0.0 1.0 0.0
  outer loop
    vertex -22079.507241389598 27466.630221423162 5.499999999999996
    vertex -22099.071965209187 27466.630221423162 7.136296694843728
    vertex -22098.107241389596 27466.630221423162 7.535898384862246
  endloop
endfacet
facet normal 0.0 1.0 0.0
  outer loop
    vertex -22079.507241389598 27466.630221423162 5.499999999999996
    vertex -22098.107241389596 27466.630221423162 7.535898384862246
    vertex -22097.278814264853 27466.630221423162 8.17157287525381
  endloop
endfacet
facet normal 0.0 1.0 0.0
  outer loop
    vertex -22079.507241389598 27466.630221423162 5.499999999999996
    vertex -22097.278814264853 27466.630221423162 8.17157287525381
    vertex -22096.64313977446 27466.630221423162 8.999999999999998
  endloop
endfacet
facet normal 0.0 1.0 0.0
  outer loop
    vertex -22079.507241389598 27466.630221423162 5.499999999999996
    vertex -22096.64313977446 27466.630221423162 8.999999999999998
    vertex -22096.243538084444 27466.630221423162 9.964723819589915
  endloop
endfacet
facet normal 0.0 1.0 0.0
  outer loop
    vertex -22079.507241389598 27466.630221423162 5.499999999999996
    vertex -22096.243538084444 27466.630221423162 9.964723819589915
    vertex -22079.507241389598 27466.630221423162 62.499999999999986
  endloop
endfacet
facet normal 0.0 1.0 0.0
  outer loop
    vertex -22079.507241389598 27466.630221423162 62.499999999999986
    vertex -22096.243538084444 27466.630221423162 9.964723819589915
    vertex -22096.107241389596 27466.630221423162 11.000000000000002
  endloop
endfacet
facet normal 0.0 1.0 0.0
  outer loop
    vertex -22079.507241389598 27466.630221423162 62.499999999999986
    vertex -22096.107241389596 27466.630221423162 11.000000000000002
    vertex -22096.243538084444 27466.630221423162 12.035276180410083
  endloop
endfacet
facet normal 0.0 1.0 0.0
  outer loop
    vertex -22079.507241389598 27466.630221423162 62.499999999999986
    vertex -22096.243538084444 27466.630221423162 12.035276180410083
    vertex -22096.64313977446 27466.630221423162 12.999999999999998
  endloop
endfacet
facet normal 0.0 1.0 0.0
  outer loop
    vertex -22079.507241389598 27466.630221423162 62.499999999999986
    vertex -22096.64313977446 27466.630221423162 12.999999999999998
    vertex -22097.278814264853 27466.630221423162 13.828427124746192
  endloop
endfacet
facet normal 0.0 1.0 0.0
  outer loop
    vertex -22079.507241389598 27466.630221423162 62.499999999999986
    vertex -22097.278814264853 27466.630221423162 13.828427124746192
    vertex -22098.107241389596 27466.630221423162 14.46410161513775
  endloop
endfacet
facet normal 0.0 1.0 0.0
  outer loop
    vertex -22079.507241389598 27466.630221423162 62.499999999999986
    vertex -22098.107241389596 27466.630221423162 14.46410161513775
    vertex -22099.071965209187 27466.630221423162 14.863703305156271
  endloop
endfacet
facet normal 0.0 1.0 0.0
  outer loop
    vertex -22079.507241389598 27466.630221423162 62.499999999999986
    vertex -22099.071965209187 27466.630221423162 14.863703305156271
    vertex -22100.1072413896 27466.630221423162 14.999999999999998
  endloop
endfacet
facet normal 0.0 1.0 0.0
  outer loop
    vertex -22079.507241389598 27466.630221423162 62.499999999999986
    vertex -22100.1072413896 27466.630221423162 14.999999999999998
    vertex -22099.071965209187 27466.630221423162 58.63629669484371
  endloop
endfacet
facet normal 0.0 1.0 0.0
  outer loop
    vertex -22099.071965209187 27466.630221423162 58.63629669484371
    vertex -22100.1072413896 27466.630221423162 14.999999999999998
    vertex -22100.1072413896 27466.630221423162 58.499999999999986
  endloop
endfacet
facet normal 0.0 1.0 0.0
  outer loop
    vertex -22100.1072413896 27466.630221423162 58.499999999999986
    vertex -22100.1072413896 27466.630221423162 14.999999999999998
    vertex -22112.507241389598 27466.630221423162 58.499999999999986
  endloop
endfacet
facet normal 0.0 1.0 0.0
  outer loop
    vertex -22079.507241389598 27466.630221423162 62.499999999999986
    vertex -22099.071965209187 27466.630221423162 58.63629669484371
    vertex -22098.107241389596 27466.630221423162 59.03589838486223
  endloop
endfacet
facet normal 0.0 1.0 0.0
  outer loop
    vertex -22079.507241389598 27466.630221423162 62.499999999999986
    vertex -22098.107241389596 27466.630221423162 59.03589838486223
    vertex -22097.278814264853 27466.630221423162 59.67157287525379
  endloop
endfacet
facet normal 0.0 1.0 0.0
  outer loop
    vertex -22079.507241389598 27466.630221423162 62.499999999999986
    vertex -22097.278814264853 27466.630221423162 59.67157287525379
    vertex -22096.64313977446 27466.630221423162 60.49999999999998
  endloop
endfacet
facet normal 0.0 1.0 0.0
  outer loop
    vertex -22079.507241389598 27466.630221423162 62.499999999999986
    vertex -22096.64313977446 27466.630221423162 60.49999999999998
    vertex -22096.243538084444 27466.630221423162 61.4647238195899
  endloop
endfacet
facet normal 0.0 1.0 0.0
  outer loop
    vertex -22079.507241389598 27466.630221423162 62.499999999999986
    vertex -22096.243538084444 27466.630221423162 61.4647238195899
    vertex -22096.107241389596 27466.630221423162 62.499999999999986
  endloop
endfacet
facet normal 0.0 1.0 0.0
  outer loop
    vertex -22079.507241389598 27466.630221423162 62.499999999999986
    vertex -22096.107241389596 27466.630221423162 62.499999999999986
    vertex -22096.243538084444 27466.630221423162 63.535276180410065
  endloop
endfacet
facet normal 0.0 1.0 0.0
  outer loop
    vertex -22079.507241389598 27466.630221423162 62.499999999999986
    vertex -22096.243538084444 27466.630221423162 63.535276180410065
    vertex -22076.507241389598 27466.630221423162 62.499999999999986
  endloop
endfacet
facet normal 0.0 1.0 0.0
  outer loop
    vertex -22076.507241389598 27466.630221423162 62.499999999999986
    vertex -22096.243538084444 27466.630221423162 63.535276180410065
    vertex -22076.507241389598 27466.630221423162 68.0
  endloop
endfacet
facet normal 0.0 1.0 0.0
  outer loop
    vertex -22076.507241389598 27466.630221423162 68.0
    vertex -22096.243538084444 27466.630221423162 63.535276180410065
    vertex -22096.64313977446 27466.630221423162 64.49999999999999
  endloop
endfacet
facet normal 0.0 1.0 0.0
  outer loop
    vertex -22076.507241389598 27466.630221423162 68.0
    vertex -22096.64313977446 27466.630221423162 64.49999999999999
    vertex -22097.278814264853 27466.630221423162 65.32842712474618
  endloop
endfacet
facet normal 0.0 1.0 0.0
  outer loop
    vertex -22076.507241389598 27466.630221423162 68.0
    vertex -22097.278814264853 27466.630221423162 65.32842712474618
    vertex -22098.107241389596 27466.630221423162 65.96410161513775
  endloop
endfacet
facet normal 0.0 1.0 0.0
  outer loop
    vertex -22076.507241389598 27466.630221423162 68.0
    vertex -22098.107241389596 27466.630221423162 65.96410161513775
    vertex -22099.071965209187 27466.630221423162 66.36370330515626
  endloop
endfacet
facet normal 0.0 1.0 0.0
  outer loop
    vertex -22076.507241389598 27466.630221423162 68.0
    vertex -22099.071965209187 27466.630221423162 66.36370330515626
    vertex -22100.1072413896 27466.630221423162 66.49999999999999
  endloop
endfacet
facet normal 0.0 1.0 0.0
  outer loop
    vertex -22076.507241389598 27466.630221423162 68.0
    vertex -22100.1072413896 27466.630221423162 66.49999999999999
    vertex -22083.107241389596 27466.630221423162 68.0
  endloop
endfacet
facet normal -0.38268343236501867 -5.9484634982812844e-18 0.9238795325113163
  outer loop
    vertex -22098.107241389596 27463.630221423165 59.03589838486223
    vertex -22099.071965209187 27466.630221423162 58.63629669484371
    vertex -22099.071965209187 27463.630221423165 58.63629669484371
  endloop
endfacet
facet normal -0.38268343236501867 -5.9484634982812844e-18 0.9238795325113163
  outer loop
    vertex -22099.071965209187 27466.630221423162 58.63629669484371
    vertex -22098.107241389596 27463.630221423165 59.03589838486223
    vertex -22098.107241389596 27466.630221423162 59.03589838486223
  endloop
endfacet
facet normal -0.7933533402910847 -1.4700833098124207e-24 -0.6087614290089167
  outer loop
    vertex -22097.278814264853 27466.630221423162 65.32842712474618
    vertex -22096.64313977446 27463.630221423165 64.49999999999999
    vertex -22097.278814264853 27463.630221423165 65.32842712474618
  endloop
endfacet
facet normal -0.7933533402910847 -1.4700833098124207e-24 -0.6087614290089167
  outer loop
    vertex -22096.64313977446 27463.630221423165 64.49999999999999
    vertex -22097.278814264853 27466.630221423162 65.32842712474618
    vertex -22096.64313977446 27466.630221423162 64.49999999999999
  endloop
endfacet
facet normal -0.13052619221977677 4.83729926958544e-25 0.9914448613738466
  outer loop
    vertex -22099.071965209187 27463.630221423165 58.63629669484371
    vertex -22100.1072413896 27466.630221423162 58.499999999999986
    vertex -22100.1072413896 27463.630221423165 58.499999999999986
  endloop
endfacet
facet normal -0.13052619221977677 4.83729926958544e-25 0.9914448613738466
  outer loop
    vertex -22100.1072413896 27466.630221423162 58.499999999999986
    vertex -22099.071965209187 27463.630221423165 58.63629669484371
    vertex -22099.071965209187 27466.630221423162 58.63629669484371
  endloop
endfacet
facet normal -0.9238795325116261 -2.7699695034274586e-27 0.38268343236427066
  outer loop
    vertex -22096.243538084444 27466.630221423162 61.4647238195899
    vertex -22096.64313977446 27463.630221423165 60.49999999999998
    vertex -22096.243538084444 27463.630221423165 61.4647238195899
  endloop
endfacet
facet normal -0.9238795325116261 -2.7699695034274586e-27 0.38268343236427066
  outer loop
    vertex -22096.64313977446 27463.630221423165 60.49999999999998
    vertex -22096.243538084444 27466.630221423162 61.4647238195899
    vertex -22096.64313977446 27466.630221423162 60.49999999999998
  endloop
endfacet
facet normal -0.6087614290094223 0.0 0.7933533402906968
  outer loop
    vertex -22097.278814264853 27463.630221423165 59.67157287525379
    vertex -22098.107241389596 27466.630221423162 59.03589838486223
    vertex -22098.107241389596 27463.630221423165 59.03589838486223
  endloop
endfacet
facet normal -0.6087614290094223 0.0 0.7933533402906968
  outer loop
    vertex -22098.107241389596 27466.630221423162 59.03589838486223
    vertex -22097.278814264853 27463.630221423165 59.67157287525379
    vertex -22097.278814264853 27466.630221423162 59.67157287525379
  endloop
endfacet
facet normal -0.7933533402910808 -4.731321493033382e-18 0.6087614290089218
  outer loop
    vertex -22096.64313977446 27466.630221423162 60.49999999999998
    vertex -22097.278814264853 27463.630221423165 59.67157287525379
    vertex -22096.64313977446 27463.630221423165 60.49999999999998
  endloop
endfacet
facet normal -0.7933533402910808 -4.731321493033382e-18 0.6087614290089218
  outer loop
    vertex -22097.278814264853 27463.630221423165 59.67157287525379
    vertex -22096.64313977446 27466.630221423162 60.49999999999998
    vertex -22097.278814264853 27466.630221423162 59.67157287525379
  endloop
endfacet
facet normal -0.9914448613735953 -1.837146791075268e-24 0.130526192221686
  outer loop
    vertex -22096.107241389596 27466.630221423162 62.499999999999986
    vertex -22096.243538084444 27463.630221423165 61.4647238195899
    vertex -22096.107241389596 27463.630221423165 62.499999999999986
  endloop
endfacet
facet normal -0.9914448613735953 -1.837146791075268e-24 0.130526192221686
  outer loop
    vertex -22096.243538084444 27463.630221423165 61.4647238195899
    vertex -22096.107241389596 27466.630221423162 62.499999999999986
    vertex -22096.243538084444 27466.630221423162 61.4647238195899
  endloop
endfacet
facet normal -0.9238795325116261 2.7699695034274586e-27 -0.38268343236427066
  outer loop
    vertex -22096.64313977446 27466.630221423162 64.49999999999999
    vertex -22096.243538084444 27463.630221423165 63.535276180410065
    vertex -22096.64313977446 27463.630221423165 64.49999999999999
  endloop
endfacet
facet normal -0.9238795325116261 2.7699695034274586e-27 -0.38268343236427066
  outer loop
    vertex -22096.243538084444 27463.630221423165 63.535276180410065
    vertex -22096.64313977446 27466.630221423162 64.49999999999999
    vertex -22096.243538084444 27466.630221423162 63.535276180410065
  endloop
endfacet
facet normal -0.6087614290094223 0.0 -0.7933533402906968
  outer loop
    vertex -22097.278814264853 27466.630221423162 65.32842712474618
    vertex -22098.107241389596 27463.630221423165 65.96410161513775
    vertex -22098.107241389596 27466.630221423162 65.96410161513775
  endloop
endfacet
facet normal -0.6087614290094223 0.0 -0.7933533402906968
  outer loop
    vertex -22098.107241389596 27463.630221423165 65.96410161513775
    vertex -22097.278814264853 27466.630221423162 65.32842712474618
    vertex -22097.278814264853 27463.630221423165 65.32842712474618
  endloop
endfacet
facet normal -0.38268343236501867 5.9484634982812844e-18 -0.9238795325113163
  outer loop
    vertex -22098.107241389596 27466.630221423162 65.96410161513775
    vertex -22099.071965209187 27463.630221423165 66.36370330515626
    vertex -22099.071965209187 27466.630221423162 66.36370330515626
  endloop
endfacet
facet normal -0.38268343236501867 5.9484634982812844e-18 -0.9238795325113163
  outer loop
    vertex -22099.071965209187 27463.630221423165 66.36370330515626
    vertex -22098.107241389596 27466.630221423162 65.96410161513775
    vertex -22098.107241389596 27463.630221423165 65.96410161513775
  endloop
endfacet
facet normal -0.13052619221977677 -4.83729926958544e-25 -0.9914448613738466
  outer loop
    vertex -22099.071965209187 27466.630221423162 66.36370330515626
    vertex -22100.1072413896 27463.630221423165 66.49999999999999
    vertex -22100.1072413896 27466.630221423162 66.49999999999999
  endloop
endfacet
facet normal -0.13052619221977677 -4.83729926958544e-25 -0.9914448613738466
  outer loop
    vertex -22100.1072413896 27463.630221423165 66.49999999999999
    vertex -22099.071965209187 27466.630221423162 66.36370330515626
    vertex -22099.071965209187 27463.630221423165 66.36370330515626
  endloop
endfacet
facet normal -0.9914448613735951 -2.0289122056832036e-18 -0.13052619222168735
  outer loop
    vertex -22096.243538084444 27466.630221423162 63.535276180410065
    vertex -22096.107241389596 27463.630221423165 62.499999999999986
    vertex -22096.243538084444 27463.630221423165 63.535276180410065
  endloop
endfacet
facet normal -0.9914448613735951 -2.0289122056832036e-18 -0.13052619222168735
  outer loop
    vertex -22096.107241389596 27463.630221423165 62.499999999999986
    vertex -22096.243538084444 27466.630221423162 63.535276180410065
    vertex -22096.107241389596 27466.630221423162 62.499999999999986
  endloop
endfacet
facet normal 0.0 0.0 1.0
  outer loop
    vertex -22100.1072413896 27463.630221423165 58.499999999999986
    vertex -22112.507241389598 27466.630221423162 58.499999999999986
    vertex -22112.507241389598 27463.630221423165 58.499999999999986
  endloop
endfacet
facet normal 0.0 0.0 1.0
  outer loop
    vertex -22112.507241389598 27466.630221423162 58.499999999999986
    vertex -22100.1072413896 27463.630221423165 58.499999999999986
    vertex -22100.1072413896 27466.630221423162 58.499999999999986
  endloop
endfacet
facet normal 0.0 -1.0 0.0
  outer loop
    vertex -22080.107241389596 27463.630221423165 2.4999999999999956
    vertex -22100.1072413896 27463.630221423165 0.0
    vertex -22080.107241389596 27463.630221423165 0.0
  endloop
endfacet
facet normal 0.0 -1.0 0.0
  outer loop
    vertex -22100.1072413896 27463.630221423165 0.0
    vertex -22080.107241389596 27463.630221423165 2.4999999999999956
    vertex -22100.1072413896 27463.630221423165 3.0000000000000013
  endloop
endfacet
facet normal 0.0 -1.0 0.0
  outer loop
    vertex -22076.507241389598 27463.630221423165 71.0
    vertex -22080.107241389596 27463.630221423165 2.4999999999999956
    vertex -22076.507241389598 27463.630221423165 2.4999999999999956
  endloop
endfacet
facet normal 0.0 -1.0 0.0
  outer loop
    vertex -22080.107241389596 27463.630221423165 2.4999999999999956
    vertex -22076.507241389598 27463.630221423165 71.0
    vertex -22096.243538084444 27463.630221423165 9.964723819589915
  endloop
endfacet
facet normal 0.0 -1.0 0.0
  outer loop
    vertex -22080.107241389596 27463.630221423165 2.4999999999999956
    vertex -22096.243538084444 27463.630221423165 9.964723819589915
    vertex -22096.64313977446 27463.630221423165 8.999999999999998
  endloop
endfacet
facet normal 0.0 -1.0 0.0
  outer loop
    vertex -22080.107241389596 27463.630221423165 2.4999999999999956
    vertex -22096.64313977446 27463.630221423165 8.999999999999998
    vertex -22100.1072413896 27463.630221423165 3.0000000000000013
  endloop
endfacet
facet normal 0.0 -1.0 0.0
  outer loop
    vertex -22100.1072413896 27463.630221423165 3.0000000000000013
    vertex -22096.64313977446 27463.630221423165 8.999999999999998
    vertex -22097.278814264853 27463.630221423165 8.17157287525381
  endloop
endfacet
facet normal 0.0 -1.0 0.0
  outer loop
    vertex -22100.1072413896 27463.630221423165 3.0000000000000013
    vertex -22097.278814264853 27463.630221423165 8.17157287525381
    vertex -22098.107241389596 27463.630221423165 7.535898384862246
  endloop
endfacet
facet normal 0.0 -1.0 0.0
  outer loop
    vertex -22100.1072413896 27463.630221423165 3.0000000000000013
    vertex -22098.107241389596 27463.630221423165 7.535898384862246
    vertex -22099.071965209187 27463.630221423165 7.136296694843728
  endloop
endfacet
facet normal 0.0 -1.0 0.0
  outer loop
    vertex -22100.1072413896 27463.630221423165 3.0000000000000013
    vertex -22099.071965209187 27463.630221423165 7.136296694843728
    vertex -22100.1072413896 27463.630221423165 7.000000000000001
  endloop
endfacet
facet normal 0.0 -1.0 0.0
  outer loop
    vertex -22096.243538084444 27463.630221423165 9.964723819589915
    vertex -22076.507241389598 27463.630221423165 71.0
    vertex -22096.107241389596 27463.630221423165 11.000000000000002
  endloop
endfacet
facet normal 0.0 -1.0 0.0
  outer loop
    vertex -22096.107241389596 27463.630221423165 11.000000000000002
    vertex -22076.507241389598 27463.630221423165 71.0
    vertex -22096.243538084444 27463.630221423165 12.035276180410083
  endloop
endfacet
facet normal 0.0 -1.0 0.0
  outer loop
    vertex -22096.243538084444 27463.630221423165 12.035276180410083
    vertex -22076.507241389598 27463.630221423165 71.0
    vertex -22096.64313977446 27463.630221423165 12.999999999999998
  endloop
endfacet
facet normal 0.0 -1.0 0.0
  outer loop
    vertex -22096.64313977446 27463.630221423165 12.999999999999998
    vertex -22076.507241389598 27463.630221423165 71.0
    vertex -22097.278814264853 27463.630221423165 13.828427124746192
  endloop
endfacet
facet normal 0.0 -1.0 0.0
  outer loop
    vertex -22097.278814264853 27463.630221423165 13.828427124746192
    vertex -22076.507241389598 27463.630221423165 71.0
    vertex -22098.107241389596 27463.630221423165 14.46410161513775
  endloop
endfacet
facet normal 0.0 -1.0 0.0
  outer loop
    vertex -22098.107241389596 27463.630221423165 14.46410161513775
    vertex -22076.507241389598 27463.630221423165 71.0
    vertex -22099.071965209187 27463.630221423165 14.863703305156271
  endloop
endfacet
facet normal 0.0 -1.0 0.0
  outer loop
    vertex -22099.071965209187 27463.630221423165 14.863703305156271
    vertex -22076.507241389598 27463.630221423165 71.0
    vertex -22100.1072413896 27463.630221423165 14.999999999999998
  endloop
endfacet
facet normal 0.0 -1.0 0.0
  outer loop
    vertex -22100.1072413896 27463.630221423165 14.999999999999998
    vertex -22076.507241389598 27463.630221423165 71.0
    vertex -22112.507241389598 27463.630221423165 14.999999999999998
  endloop
endfacet
facet normal 0.0 -1.0 0.0
  outer loop
    vertex -22112.507241389598 27463.630221423165 14.999999999999998
    vertex -22076.507241389598 27463.630221423165 71.0
    vertex -22098.107241389596 27463.630221423165 59.03589838486223
  endloop
endfacet
facet normal 0.0 -1.0 0.0
  outer loop
    vertex -22112.507241389598 27463.630221423165 14.999999999999998
    vertex -22098.107241389596 27463.630221423165 59.03589838486223
    vertex -22099.071965209187 27463.630221423165 58.63629669484371
  endloop
endfacet
facet normal 0.0 -1.0 0.0
  outer loop
    vertex -22112.507241389598 27463.630221423165 14.999999999999998
    vertex -22099.071965209187 27463.630221423165 58.63629669484371
    vertex -22100.1072413896 27463.630221423165 58.499999999999986
  endloop
endfacet
facet normal 0.0 -1.0 0.0
  outer loop
    vertex -22098.107241389596 27463.630221423165 59.03589838486223
    vertex -22076.507241389598 27463.630221423165 71.0
    vertex -22097.278814264853 27463.630221423165 59.67157287525379
  endloop
endfacet
facet normal 0.0 -1.0 0.0
  outer loop
    vertex -22097.278814264853 27463.630221423165 59.67157287525379
    vertex -22076.507241389598 27463.630221423165 71.0
    vertex -22096.64313977446 27463.630221423165 60.49999999999998
  endloop
endfacet
facet normal 0.0 -1.0 0.0
  outer loop
    vertex -22096.64313977446 27463.630221423165 60.49999999999998
    vertex -22076.507241389598 27463.630221423165 71.0
    vertex -22096.243538084444 27463.630221423165 61.4647238195899
  endloop
endfacet
facet normal 0.0 -1.0 0.0
  outer loop
    vertex -22096.243538084444 27463.630221423165 61.4647238195899
    vertex -22076.507241389598 27463.630221423165 71.0
    vertex -22096.107241389596 27463.630221423165 62.499999999999986
  endloop
endfacet
facet normal 0.0 -1.0 0.0
  outer loop
    vertex -22096.107241389596 27463.630221423165 62.499999999999986
    vertex -22076.507241389598 27463.630221423165 71.0
    vertex -22096.243538084444 27463.630221423165 63.535276180410065
  endloop
endfacet
facet normal 0.0 -1.0 0.0
  outer loop
    vertex -22096.243538084444 27463.630221423165 63.535276180410065
    vertex -22076.507241389598 27463.630221423165 71.0
    vertex -22096.64313977446 27463.630221423165 64.49999999999999
  endloop
endfacet
facet normal 0.0 -1.0 0.0
  outer loop
    vertex -22096.64313977446 27463.630221423165 64.49999999999999
    vertex -22076.507241389598 27463.630221423165 71.0
    vertex -22097.278814264853 27463.630221423165 65.32842712474618
  endloop
endfacet
facet normal 0.0 -1.0 0.0
  outer loop
    vertex -22097.278814264853 27463.630221423165 65.32842712474618
    vertex -22076.507241389598 27463.630221423165 71.0
    vertex -22098.107241389596 27463.630221423165 65.96410161513775
  endloop
endfacet
facet normal 0.0 -1.0 0.0
  outer loop
    vertex -22098.107241389596 27463.630221423165 65.96410161513775
    vertex -22076.507241389598 27463.630221423165 71.0
    vertex -22099.071965209187 27463.630221423165 66.36370330515626
  endloop
endfacet
facet normal 0.0 -1.0 0.0
  outer loop
    vertex -22099.071965209187 27463.630221423165 66.36370330515626
    vertex -22076.507241389598 27463.630221423165 71.0
    vertex -22100.1072413896 27463.630221423165 66.49999999999999
  endloop
endfacet
facet normal 0.0 -1.0 0.0
  outer loop
    vertex -22100.1072413896 27463.630221423165 66.49999999999999
    vertex -22076.507241389598 27463.630221423165 71.0
    vertex -22080.107241389596 27463.630221423165 71.0
  endloop
endfacet
facet normal 0.0 -1.0 0.0
  outer loop
    vertex -22100.1072413896 27463.630221423165 66.49999999999999
    vertex -22080.107241389596 27463.630221423165 71.0
    vertex -22100.1072413896 27463.630221423165 73.5
  endloop
endfacet
facet normal 0.0 -1.0 0.0
  outer loop
    vertex -22100.1072413896 27463.630221423165 73.5
    vertex -22080.107241389596 27463.630221423165 71.0
    vertex -22080.107241389596 27463.630221423165 73.5
  endloop
endfacet
facet normal 0.0 -1.0 0.0
  outer loop
    vertex -22112.507241389598 27463.630221423165 58.499999999999986
    vertex -22112.507241389598 27463.630221423165 14.999999999999998
    vertex -22100.1072413896 27463.630221423165 58.499999999999986
  endloop
endfacet
facet normal -1.0 0.0 0.0
  outer loop
    vertex -22112.507241389598 27466.630221423162 58.499999999999986
    vertex -22112.507241389598 27463.630221423165 14.999999999999998
    vertex -22112.507241389598 27463.630221423165 58.499999999999986
  endloop
endfacet
facet normal -1.0 0.0 0.0
  outer loop
    vertex -22112.507241389598 27463.630221423165 14.999999999999998
    vertex -22112.507241389598 27466.630221423162 58.499999999999986
    vertex -22112.507241389598 27466.630221423162 14.999999999999998
  endloop
endfacet
facet normal -1.0 0.0 0.0
  outer loop
    vertex -22100.1072413896 27463.630221423165 73.5
    vertex -22100.1072413896 27466.630221423162 70.5
    vertex -22100.1072413896 27463.630221423165 66.49999999999999
  endloop
endfacet
facet normal -1.0 0.0 0.0
  outer loop
    vertex -22100.1072413896 27466.630221423162 70.5
    vertex -22100.1072413896 27463.630221423165 73.5
    vertex -22100.1072413896 27488.63022142315 73.5
  endloop
endfacet
facet normal -1.0 0.0 0.0
  outer loop
    vertex -22100.1072413896 27466.630221423162 70.5
    vertex -22100.1072413896 27488.63022142315 73.5
    vertex -22100.1072413896 27488.63022142315 70.5
  endloop
endfacet
facet normal -1.0 0.0 0.0
  outer loop
    vertex -22100.1072413896 27466.630221423162 66.49999999999999
    vertex -22100.1072413896 27463.630221423165 66.49999999999999
    vertex -22100.1072413896 27466.630221423162 70.5
  endloop
endfacet
facet normal 6.635215253053131e-16 0.0 -1.0
  outer loop
    vertex -22083.107241389596 27488.63022142315 70.5
    vertex -22100.1072413896 27466.630221423162 70.5
    vertex -22100.1072413896 27488.63022142315 70.5
  endloop
endfacet
facet normal 6.635215253053131e-16 0.0 -1.0
  outer loop
    vertex -22100.1072413896 27466.630221423162 70.5
    vertex -22083.107241389596 27488.63022142315 70.5
    vertex -22083.107241389596 27466.630221423162 70.5
  endloop
endfacet
endsolid Main
