solid [0008]
facet normal 1.0 4.245937549329915e-31 0.0
  outer loop
    vertex 1794.4563326833397 1415.1545917120043 175.5
    vertex 1794.4563326833397 1390.1545917120156 178.0
    vertex 1794.4563326833397 1390.1545917120156 175.5
  endloop
endfacet
facet normal 1.0 4.245937549329915e-31 0.0
  outer loop
    vertex 1794.4563326833397 1390.1545917120156 178.0
    vertex 1794.4563326833397 1415.1545917120043 175.5
    vertex 1794.4563326833397 1415.1545917120043 178.0
  endloop
endfacet
facet normal 0.0 -5.984021303880598e-30 1.0
  outer loop
    vertex 1798.056332683339 1390.1545917120156 175.5
    vertex 1794.4563326833397 1415.1545917120043 175.5
    vertex 1794.4563326833397 1390.1545917120156 175.5
  endloop
endfacet
facet normal 0.0 -5.984021303880598e-30 1.0
  outer loop
    vertex 1794.4563326833397 1415.1545917120043 175.5
    vertex 1798.056332683339 1390.1545917120156 175.5
    vertex 1798.056332683339 1415.1545917120043 175.5
  endloop
endfacet
facet normal 1.0 0.0 0.0
  outer loop
    vertex 1798.056332683339 1390.1545917120156 106.99999999999999
    vertex 1798.056332683339 1393.154591712015 166.99999999999997
    vertex 1798.056332683339 1390.1545917120156 175.5
  endloop
endfacet
facet normal 1.0 0.0 0.0
  outer loop
    vertex 1798.056332683339 1393.154591712015 166.99999999999997
    vertex 1798.056332683339 1390.1545917120156 106.99999999999999
    vertex 1798.056332683339 1415.15459171201 106.99999999999999
  endloop
endfacet
facet normal 1.0 0.0 0.0
  outer loop
    vertex 1798.056332683339 1393.154591712015 166.99999999999997
    vertex 1798.056332683339 1415.15459171201 106.99999999999999
    vertex 1798.056332683339 1415.15459171201 166.99999999999997
  endloop
endfacet
facet normal 1.0 0.0 0.0
  outer loop
    vertex 1798.056332683339 1390.1545917120156 175.5
    vertex 1798.056332683339 1393.154591712015 172.49999999999997
    vertex 1798.056332683339 1415.1545917120043 175.5
  endloop
endfacet
facet normal 1.0 0.0 0.0
  outer loop
    vertex 1798.056332683339 1393.154591712015 172.49999999999997
    vertex 1798.056332683339 1390.1545917120156 175.5
    vertex 1798.056332683339 1393.154591712015 166.99999999999997
  endloop
endfacet
facet normal 1.0 0.0 0.0
  outer loop
    vertex 1798.056332683339 1415.1545917120043 175.5
    vertex 1798.056332683339 1393.154591712015 172.49999999999997
    vertex 1798.056332683339 1415.1545917120043 172.49999999999997
  endloop
endfacet
facet normal 0.0 5.984021303880598e-30 -1.0
  outer loop
    vertex 1798.056332683339 1415.15459171201 106.99999999999999
    vertex 1794.4563326833397 1390.1545917120156 106.99999999999999
    vertex 1794.4563326833397 1415.15459171201 106.99999999999999
  endloop
endfacet
facet normal 0.0 5.984021303880598e-30 -1.0
  outer loop
    vertex 1794.4563326833397 1390.1545917120156 106.99999999999999
    vertex 1798.056332683339 1415.15459171201 106.99999999999999
    vertex 1798.056332683339 1390.1545917120156 106.99999999999999
  endloop
endfacet
facet normal 1.0 4.245937549329915e-31 0.0
  outer loop
    vertex 1794.4563326833397 1415.15459171201 104.49999999999999
    vertex 1794.4563326833397 1390.1545917120156 106.99999999999999
    vertex 1794.4563326833397 1390.1545917120156 104.49999999999999
  endloop
endfacet
facet normal 1.0 4.245937549329915e-31 0.0
  outer loop
    vertex 1794.4563326833397 1390.1545917120156 106.99999999999999
    vertex 1794.4563326833397 1415.15459171201 104.49999999999999
    vertex 1794.4563326833397 1415.15459171201 106.99999999999999
  endloop
endfacet
facet normal 0.0 5.9840213038805986e-30 -1.0
  outer loop
    vertex 1794.4563326833397 1415.15459171201 104.49999999999999
    vertex 1774.4563326833384 1390.1545917120156 104.49999999999999
    vertex 1774.4563326833384 1415.15459171201 104.49999999999999
  endloop
endfacet
facet normal 0.0 5.9840213038805986e-30 -1.0
  outer loop
    vertex 1774.4563326833384 1390.1545917120156 104.49999999999999
    vertex 1794.4563326833397 1415.15459171201 104.49999999999999
    vertex 1794.4563326833397 1390.1545917120156 104.49999999999999
  endloop
endfacet
facet normal 0.0 -5.9840213038805986e-30 1.0
  outer loop
    vertex 1794.4563326833397 1390.1545917120156 178.0
    vertex 1774.4563326833384 1415.1545917120043 178.0
    vertex 1774.4563326833384 1390.1545917120156 178.0
  endloop
endfacet
facet normal 0.0 -5.9840213038805986e-30 1.0
  outer loop
    vertex 1774.4563326833384 1415.1545917120043 178.0
    vertex 1794.4563326833397 1390.1545917120156 178.0
    vertex 1794.4563326833397 1415.1545917120043 178.0
  endloop
endfacet
facet normal 0.0 1.0 0.0
  outer loop
    vertex 1774.4563326833384 1415.15459171201 107.49999999999999
    vertex 1794.4563326833397 1415.15459171201 104.49999999999999
    vertex 1774.4563326833384 1415.15459171201 104.49999999999999
  endloop
endfacet
facet normal 0.0 1.0 0.0
  outer loop
    vertex 1794.4563326833397 1415.15459171201 104.49999999999999
    vertex 1774.4563326833384 1415.15459171201 107.49999999999999
    vertex 1794.4563326833397 1415.15459171201 106.99999999999999
  endloop
endfacet
facet normal 0.0 1.0 0.0
  outer loop
    vertex 1794.4563326833397 1415.15459171201 106.99999999999999
    vertex 1774.4563326833384 1415.15459171201 107.49999999999999
    vertex 1798.056332683339 1415.15459171201 106.99999999999999
  endloop
endfacet
facet normal 0.0 1.0 0.0
  outer loop
    vertex 1798.056332683339 1415.15459171201 106.99999999999999
    vertex 1774.4563326833384 1415.15459171201 107.49999999999999
    vertex 1791.4563326833404 1415.15459171201 107.49999999999999
  endloop
endfacet
facet normal 0.0 1.0 0.0
  outer loop
    vertex 1798.056332683339 1415.15459171201 106.99999999999999
    vertex 1795.0563326833396 1415.15459171201 109.99999999999999
    vertex 1798.056332683339 1415.15459171201 166.99999999999997
  endloop
endfacet
facet normal 0.0 1.0 0.0
  outer loop
    vertex 1795.0563326833396 1415.15459171201 109.99999999999999
    vertex 1798.056332683339 1415.15459171201 106.99999999999999
    vertex 1791.4563326833404 1415.15459171201 107.49999999999999
  endloop
endfacet
facet normal 0.0 1.0 0.0
  outer loop
    vertex 1795.0563326833396 1415.15459171201 109.99999999999999
    vertex 1791.4563326833404 1415.15459171201 107.49999999999999
    vertex 1791.4563326833404 1415.15459171201 109.99999999999999
  endloop
endfacet
facet normal 0.0 1.0 0.0
  outer loop
    vertex 1798.056332683339 1415.15459171201 166.99999999999997
    vertex 1795.0563326833396 1415.15459171201 109.99999999999999
    vertex 1795.0563326833396 1415.15459171201 166.99999999999997
  endloop
endfacet
facet normal -1.0 0.0 0.0
  outer loop
    vertex 1795.0563326833396 1415.15459171201 166.99999999999997
    vertex 1795.0563326833396 1393.154591712015 109.99999999999999
    vertex 1795.0563326833396 1393.154591712015 166.99999999999997
  endloop
endfacet
facet normal -1.0 0.0 0.0
  outer loop
    vertex 1795.0563326833396 1393.154591712015 109.99999999999999
    vertex 1795.0563326833396 1415.15459171201 166.99999999999997
    vertex 1795.0563326833396 1415.15459171201 109.99999999999999
  endloop
endfacet
facet normal 0.0 0.0 1.0
  outer loop
    vertex 1798.056332683339 1393.154591712015 166.99999999999997
    vertex 1795.0563326833396 1415.15459171201 166.99999999999997
    vertex 1795.0563326833396 1393.154591712015 166.99999999999997
  endloop
endfacet
facet normal 0.0 0.0 1.0
  outer loop
    vertex 1795.0563326833396 1415.15459171201 166.99999999999997
    vertex 1798.056332683339 1393.154591712015 166.99999999999997
    vertex 1798.056332683339 1415.15459171201 166.99999999999997
  endloop
endfacet
facet normal -1.0 0.0 0.0
  outer loop
    vertex 1791.4563326833404 1415.15459171201 109.99999999999999
    vertex 1791.4563326833404 1393.154591712015 107.49999999999999
    vertex 1791.4563326833404 1393.154591712015 109.99999999999999
  endloop
endfacet
facet normal -1.0 0.0 0.0
  outer loop
    vertex 1791.4563326833404 1393.154591712015 107.49999999999999
    vertex 1791.4563326833404 1415.15459171201 109.99999999999999
    vertex 1791.4563326833404 1415.15459171201 107.49999999999999
  endloop
endfacet
facet normal 0.0 0.0 1.0
  outer loop
    vertex 1795.0563326833396 1393.154591712015 109.99999999999999
    vertex 1791.4563326833404 1415.15459171201 109.99999999999999
    vertex 1791.4563326833404 1393.154591712015 109.99999999999999
  endloop
endfacet
facet normal 0.0 0.0 1.0
  outer loop
    vertex 1791.4563326833404 1415.15459171201 109.99999999999999
    vertex 1795.0563326833396 1393.154591712015 109.99999999999999
    vertex 1795.0563326833396 1415.15459171201 109.99999999999999
  endloop
endfacet
facet normal 0.0 1.0 0.0
  outer loop
    vertex 1774.4563326833384 1415.1545917120043 178.0
    vertex 1791.4563326833404 1415.1545917120043 175.0
    vertex 1774.4563326833384 1415.1545917120043 175.0
  endloop
endfacet
facet normal 0.0 1.0 0.0
  outer loop
    vertex 1791.4563326833404 1415.1545917120043 175.0
    vertex 1774.4563326833384 1415.1545917120043 178.0
    vertex 1794.4563326833397 1415.1545917120043 175.5
  endloop
endfacet
facet normal 0.0 1.0 0.0
  outer loop
    vertex 1794.4563326833397 1415.1545917120043 175.5
    vertex 1774.4563326833384 1415.1545917120043 178.0
    vertex 1794.4563326833397 1415.1545917120043 178.0
  endloop
endfacet
facet normal 0.0 1.0 0.0
  outer loop
    vertex 1791.4563326833404 1415.1545917120043 175.0
    vertex 1798.056332683339 1415.1545917120043 172.49999999999997
    vertex 1791.4563326833404 1415.1545917120043 172.49999999999997
  endloop
endfacet
facet normal 0.0 1.0 0.0
  outer loop
    vertex 1798.056332683339 1415.1545917120043 172.49999999999997
    vertex 1791.4563326833404 1415.1545917120043 175.0
    vertex 1798.056332683339 1415.1545917120043 175.5
  endloop
endfacet
facet normal 0.0 1.0 0.0
  outer loop
    vertex 1798.056332683339 1415.1545917120043 175.5
    vertex 1791.4563326833404 1415.1545917120043 175.0
    vertex 1794.4563326833397 1415.1545917120043 175.5
  endloop
endfacet
facet normal -0.0 -0.0 -1.0
  outer loop
    vertex 1798.056332683339 1415.1545917120043 172.49999999999997
    vertex 1791.4563326833404 1393.154591712015 172.49999999999997
    vertex 1791.4563326833404 1415.1545917120043 172.49999999999997
  endloop
endfacet
facet normal -0.0 -0.0 -1.0
  outer loop
    vertex 1791.4563326833404 1393.154591712015 172.49999999999997
    vertex 1798.056332683339 1415.1545917120043 172.49999999999997
    vertex 1798.056332683339 1393.154591712015 172.49999999999997
  endloop
endfacet
facet normal -1.0 0.0 0.0
  outer loop
    vertex 1791.4563326833404 1415.1545917120043 175.0
    vertex 1791.4563326833404 1393.154591712015 172.49999999999997
    vertex 1791.4563326833404 1393.154591712015 175.0
  endloop
endfacet
facet normal -1.0 0.0 0.0
  outer loop
    vertex 1791.4563326833404 1393.154591712015 172.49999999999997
    vertex 1791.4563326833404 1415.1545917120043 175.0
    vertex 1791.4563326833404 1415.1545917120043 172.49999999999997
  endloop
endfacet
facet normal -1.0 0.0 0.0
  outer loop
    vertex 1774.4563326833384 1393.154591712015 111.5
    vertex 1774.4563326833384 1390.1545917120156 107.49999999999999
    vertex 1774.4563326833384 1390.1545917120156 111.5
  endloop
endfacet
facet normal -1.0 0.0 0.0
  outer loop
    vertex 1774.4563326833384 1390.1545917120156 107.49999999999999
    vertex 1774.4563326833384 1393.154591712015 111.5
    vertex 1774.4563326833384 1393.154591712015 107.49999999999999
  endloop
endfacet
facet normal -0.7933533402910818 -4.731321496338161e-18 -0.6087614290089207
  outer loop
    vertex 1777.2847598080855 1393.154591712015 118.32842712474618
    vertex 1777.9204342984774 1390.1545917120156 117.49999999999999
    vertex 1777.2847598080855 1390.1545917120156 118.32842712474618
  endloop
endfacet
facet normal -0.7933533402910818 -4.731321496338161e-18 -0.6087614290089207
  outer loop
    vertex 1777.9204342984774 1390.1545917120156 117.49999999999999
    vertex 1777.2847598080855 1393.154591712015 118.32842712474618
    vertex 1777.9204342984774 1393.154591712015 117.49999999999999
  endloop
endfacet
facet normal -0.9914448613735953 -1.837146791075268e-24 0.13052619222168665
  outer loop
    vertex 1778.4563326833404 1393.154591712015 115.49999999999999
    vertex 1778.320035988495 1390.1545917120156 114.4647238195899
    vertex 1778.4563326833404 1390.1545917120156 115.49999999999999
  endloop
endfacet
facet normal -0.9914448613735953 -1.837146791075268e-24 0.13052619222168665
  outer loop
    vertex 1778.320035988495 1390.1545917120156 114.4647238195899
    vertex 1778.4563326833404 1393.154591712015 115.49999999999999
    vertex 1778.320035988495 1393.154591712015 114.4647238195899
  endloop
endfacet
facet normal 0.0 0.0 -1.0
  outer loop
    vertex 1774.4563326833384 1393.154591712015 119.49999999999999
    vertex 1762.0563326833412 1390.1545917120156 119.49999999999999
    vertex 1762.0563326833412 1393.154591712015 119.49999999999999
  endloop
endfacet
facet normal 0.0 0.0 -1.0
  outer loop
    vertex 1762.0563326833412 1390.1545917120156 119.49999999999999
    vertex 1774.4563326833384 1393.154591712015 119.49999999999999
    vertex 1774.4563326833384 1390.1545917120156 119.49999999999999
  endloop
endfacet
facet normal -0.3826834323650164 -5.948463504968546e-18 0.9238795325113173
  outer loop
    vertex 1776.4563326833409 1390.1545917120156 112.03589838486224
    vertex 1775.4916088637508 1393.154591712015 111.63629669484372
    vertex 1775.4916088637508 1390.1545917120156 111.63629669484372
  endloop
endfacet
facet normal -0.3826834323650164 -5.948463504968546e-18 0.9238795325113173
  outer loop
    vertex 1775.4916088637508 1393.154591712015 111.63629669484372
    vertex 1776.4563326833409 1390.1545917120156 112.03589838486224
    vertex 1776.4563326833409 1393.154591712015 112.03589838486224
  endloop
endfacet
facet normal -0.9238795325116261 0.0 0.38268343236427077
  outer loop
    vertex 1778.320035988495 1393.154591712015 114.4647238195899
    vertex 1777.9204342984774 1390.1545917120156 113.5
    vertex 1778.320035988495 1390.1545917120156 114.4647238195899
  endloop
endfacet
facet normal -0.9238795325116261 0.0 0.38268343236427077
  outer loop
    vertex 1777.9204342984774 1390.1545917120156 113.5
    vertex 1778.320035988495 1393.154591712015 114.4647238195899
    vertex 1777.9204342984774 1393.154591712015 113.5
  endloop
endfacet
facet normal -0.38268343236501867 5.948463504968582e-18 -0.9238795325113163
  outer loop
    vertex 1776.4563326833409 1393.154591712015 118.96410161513775
    vertex 1775.4916088637508 1390.1545917120156 119.36370330515626
    vertex 1775.4916088637508 1393.154591712015 119.36370330515626
  endloop
endfacet
facet normal -0.38268343236501867 5.948463504968582e-18 -0.9238795325113163
  outer loop
    vertex 1775.4916088637508 1390.1545917120156 119.36370330515626
    vertex 1776.4563326833409 1393.154591712015 118.96410161513775
    vertex 1776.4563326833409 1390.1545917120156 118.96410161513775
  endloop
endfacet
facet normal -0.9914448613735951 -1.8372648892019682e-24 -0.13052619222168718
  outer loop
    vertex 1778.320035988495 1393.154591712015 116.53527618041008
    vertex 1778.4563326833404 1390.1545917120156 115.49999999999999
    vertex 1778.320035988495 1390.1545917120156 116.53527618041008
  endloop
endfacet
facet normal -0.9914448613735951 -1.8372648892019682e-24 -0.13052619222168718
  outer loop
    vertex 1778.4563326833404 1390.1545917120156 115.49999999999999
    vertex 1778.320035988495 1393.154591712015 116.53527618041008
    vertex 1778.4563326833404 1393.154591712015 115.49999999999999
  endloop
endfacet
facet normal -0.1305261922197768 -4.837299269585441e-25 -0.9914448613738468
  outer loop
    vertex 1775.4916088637508 1393.154591712015 119.36370330515626
    vertex 1774.4563326833384 1390.1545917120156 119.49999999999999
    vertex 1774.4563326833384 1393.154591712015 119.49999999999999
  endloop
endfacet
facet normal -0.1305261922197768 -4.837299269585441e-25 -0.9914448613738468
  outer loop
    vertex 1774.4563326833384 1390.1545917120156 119.49999999999999
    vertex 1775.4916088637508 1393.154591712015 119.36370330515626
    vertex 1775.4916088637508 1390.1545917120156 119.36370330515626
  endloop
endfacet
facet normal -0.1305261922197768 4.837299269585441e-25 0.9914448613738468
  outer loop
    vertex 1775.4916088637508 1390.1545917120156 111.63629669484372
    vertex 1774.4563326833384 1393.154591712015 111.5
    vertex 1774.4563326833384 1390.1545917120156 111.5
  endloop
endfacet
facet normal -0.1305261922197768 4.837299269585441e-25 0.9914448613738468
  outer loop
    vertex 1774.4563326833384 1393.154591712015 111.5
    vertex 1775.4916088637508 1390.1545917120156 111.63629669484372
    vertex 1775.4916088637508 1393.154591712015 111.63629669484372
  endloop
endfacet
facet normal -0.9238795325116261 0.0 -0.38268343236427077
  outer loop
    vertex 1777.9204342984774 1393.154591712015 117.49999999999999
    vertex 1778.320035988495 1390.1545917120156 116.53527618041008
    vertex 1777.9204342984774 1390.1545917120156 117.49999999999999
  endloop
endfacet
facet normal -0.9238795325116261 0.0 -0.38268343236427077
  outer loop
    vertex 1778.320035988495 1390.1545917120156 116.53527618041008
    vertex 1777.9204342984774 1393.154591712015 117.49999999999999
    vertex 1778.320035988495 1393.154591712015 116.53527618041008
  endloop
endfacet
facet normal -0.6087614290094248 6.165976305958629e-18 0.7933533402906948
  outer loop
    vertex 1777.2847598080855 1390.1545917120156 112.6715728752538
    vertex 1776.4563326833409 1393.154591712015 112.03589838486224
    vertex 1776.4563326833409 1390.1545917120156 112.03589838486224
  endloop
endfacet
facet normal -0.6087614290094248 6.165976305958629e-18 0.7933533402906948
  outer loop
    vertex 1776.4563326833409 1393.154591712015 112.03589838486224
    vertex 1777.2847598080855 1390.1545917120156 112.6715728752538
    vertex 1777.2847598080855 1393.154591712015 112.6715728752538
  endloop
endfacet
facet normal -0.6087614290094223 0.0 -0.7933533402906968
  outer loop
    vertex 1777.2847598080855 1393.154591712015 118.32842712474618
    vertex 1776.4563326833409 1390.1545917120156 118.96410161513775
    vertex 1776.4563326833409 1393.154591712015 118.96410161513775
  endloop
endfacet
facet normal -0.6087614290094223 0.0 -0.7933533402906968
  outer loop
    vertex 1776.4563326833409 1390.1545917120156 118.96410161513775
    vertex 1777.2847598080855 1393.154591712015 118.32842712474618
    vertex 1777.2847598080855 1390.1545917120156 118.32842712474618
  endloop
endfacet
facet normal -0.7933533402910808 -1.4700833098124134e-24 0.6087614290089218
  outer loop
    vertex 1777.9204342984774 1393.154591712015 113.5
    vertex 1777.2847598080855 1390.1545917120156 112.6715728752538
    vertex 1777.9204342984774 1390.1545917120156 113.5
  endloop
endfacet
facet normal -0.7933533402910808 -1.4700833098124134e-24 0.6087614290089218
  outer loop
    vertex 1777.2847598080855 1390.1545917120156 112.6715728752538
    vertex 1777.9204342984774 1393.154591712015 113.5
    vertex 1777.2847598080855 1393.154591712015 112.6715728752538
  endloop
endfacet
facet normal -1.0 0.0 0.0
  outer loop
    vertex 1774.4563326833384 1393.154591712015 107.49999999999999
    vertex 1774.4563326833384 1390.1545917120156 104.49999999999999
    vertex 1774.4563326833384 1390.1545917120156 107.49999999999999
  endloop
endfacet
facet normal -1.0 0.0 0.0
  outer loop
    vertex 1774.4563326833384 1390.1545917120156 104.49999999999999
    vertex 1774.4563326833384 1393.154591712015 107.49999999999999
    vertex 1774.4563326833384 1415.15459171201 104.49999999999999
  endloop
endfacet
facet normal -1.0 0.0 0.0
  outer loop
    vertex 1774.4563326833384 1415.15459171201 104.49999999999999
    vertex 1774.4563326833384 1393.154591712015 107.49999999999999
    vertex 1774.4563326833384 1415.15459171201 107.49999999999999
  endloop
endfacet
facet normal 7.257266683026862e-17 8.011268416331077e-18 1.0
  outer loop
    vertex 1791.4563326833404 1393.154591712015 107.49999999999999
    vertex 1774.4563326833384 1415.15459171201 107.49999999999999
    vertex 1774.4563326833384 1393.154591712015 107.49999999999999
  endloop
endfacet
facet normal 7.257266683026862e-17 8.011268416331077e-18 1.0
  outer loop
    vertex 1774.4563326833384 1415.15459171201 107.49999999999999
    vertex 1791.4563326833404 1393.154591712015 107.49999999999999
    vertex 1791.4563326833404 1415.15459171201 107.49999999999999
  endloop
endfacet
facet normal 0.0 1.0 0.0
  outer loop
    vertex 1762.0563326833412 1393.154591712015 162.99999999999997
    vertex 1774.4563326833384 1393.154591712015 119.49999999999999
    vertex 1762.0563326833412 1393.154591712015 119.49999999999999
  endloop
endfacet
facet normal 0.0 1.0 0.0
  outer loop
    vertex 1774.4563326833384 1393.154591712015 175.0
    vertex 1791.4563326833404 1393.154591712015 172.49999999999997
    vertex 1774.4563326833384 1393.154591712015 170.99999999999997
  endloop
endfacet
facet normal 0.0 1.0 0.0
  outer loop
    vertex 1791.4563326833404 1393.154591712015 172.49999999999997
    vertex 1774.4563326833384 1393.154591712015 175.0
    vertex 1791.4563326833404 1393.154591712015 175.0
  endloop
endfacet
facet normal 0.0 1.0 0.0
  outer loop
    vertex 1774.4563326833384 1393.154591712015 107.49999999999999
    vertex 1791.4563326833404 1393.154591712015 109.99999999999999
    vertex 1791.4563326833404 1393.154591712015 107.49999999999999
  endloop
endfacet
facet normal 0.0 1.0 0.0
  outer loop
    vertex 1791.4563326833404 1393.154591712015 109.99999999999999
    vertex 1774.4563326833384 1393.154591712015 107.49999999999999
    vertex 1774.4563326833384 1393.154591712015 111.5
  endloop
endfacet
facet normal 0.0 1.0 0.0
  outer loop
    vertex 1791.4563326833404 1393.154591712015 109.99999999999999
    vertex 1774.4563326833384 1393.154591712015 111.5
    vertex 1795.0563326833396 1393.154591712015 109.99999999999999
  endloop
endfacet
facet normal 0.0 1.0 0.0
  outer loop
    vertex 1795.0563326833396 1393.154591712015 109.99999999999999
    vertex 1774.4563326833384 1393.154591712015 111.5
    vertex 1775.4916088637508 1393.154591712015 111.63629669484372
  endloop
endfacet
facet normal 0.0 1.0 0.0
  outer loop
    vertex 1795.0563326833396 1393.154591712015 109.99999999999999
    vertex 1775.4916088637508 1393.154591712015 111.63629669484372
    vertex 1776.4563326833409 1393.154591712015 112.03589838486224
  endloop
endfacet
facet normal 0.0 1.0 0.0
  outer loop
    vertex 1795.0563326833396 1393.154591712015 109.99999999999999
    vertex 1776.4563326833409 1393.154591712015 112.03589838486224
    vertex 1777.2847598080855 1393.154591712015 112.6715728752538
  endloop
endfacet
facet normal 0.0 1.0 0.0
  outer loop
    vertex 1795.0563326833396 1393.154591712015 109.99999999999999
    vertex 1777.2847598080855 1393.154591712015 112.6715728752538
    vertex 1777.9204342984774 1393.154591712015 113.5
  endloop
endfacet
facet normal 0.0 1.0 0.0
  outer loop
    vertex 1795.0563326833396 1393.154591712015 109.99999999999999
    vertex 1777.9204342984774 1393.154591712015 113.5
    vertex 1778.320035988495 1393.154591712015 114.4647238195899
  endloop
endfacet
facet normal 0.0 1.0 0.0
  outer loop
    vertex 1795.0563326833396 1393.154591712015 109.99999999999999
    vertex 1778.320035988495 1393.154591712015 114.4647238195899
    vertex 1795.0563326833396 1393.154591712015 166.99999999999997
  endloop
endfacet
facet normal 0.0 1.0 0.0
  outer loop
    vertex 1795.0563326833396 1393.154591712015 166.99999999999997
    vertex 1778.320035988495 1393.154591712015 114.4647238195899
    vertex 1778.4563326833404 1393.154591712015 115.49999999999999
  endloop
endfacet
facet normal 0.0 1.0 0.0
  outer loop
    vertex 1795.0563326833396 1393.154591712015 166.99999999999997
    vertex 1778.4563326833404 1393.154591712015 115.49999999999999
    vertex 1778.320035988495 1393.154591712015 116.53527618041008
  endloop
endfacet
facet normal 0.0 1.0 0.0
  outer loop
    vertex 1795.0563326833396 1393.154591712015 166.99999999999997
    vertex 1778.320035988495 1393.154591712015 116.53527618041008
    vertex 1777.9204342984774 1393.154591712015 117.49999999999999
  endloop
endfacet
facet normal 0.0 1.0 0.0
  outer loop
    vertex 1795.0563326833396 1393.154591712015 166.99999999999997
    vertex 1777.9204342984774 1393.154591712015 117.49999999999999
    vertex 1777.2847598080855 1393.154591712015 118.32842712474618
  endloop
endfacet
facet normal 0.0 1.0 0.0
  outer loop
    vertex 1795.0563326833396 1393.154591712015 166.99999999999997
    vertex 1777.2847598080855 1393.154591712015 118.32842712474618
    vertex 1776.4563326833409 1393.154591712015 118.96410161513775
  endloop
endfacet
facet normal 0.0 1.0 0.0
  outer loop
    vertex 1795.0563326833396 1393.154591712015 166.99999999999997
    vertex 1776.4563326833409 1393.154591712015 118.96410161513775
    vertex 1775.4916088637508 1393.154591712015 119.36370330515626
  endloop
endfacet
facet normal 0.0 1.0 0.0
  outer loop
    vertex 1795.0563326833396 1393.154591712015 166.99999999999997
    vertex 1775.4916088637508 1393.154591712015 119.36370330515626
    vertex 1774.4563326833384 1393.154591712015 119.49999999999999
  endloop
endfacet
facet normal 0.0 1.0 0.0
  outer loop
    vertex 1795.0563326833396 1393.154591712015 166.99999999999997
    vertex 1774.4563326833384 1393.154591712015 119.49999999999999
    vertex 1775.4916088637508 1393.154591712015 163.1362966948437
  endloop
endfacet
facet normal 0.0 1.0 0.0
  outer loop
    vertex 1775.4916088637508 1393.154591712015 163.1362966948437
    vertex 1774.4563326833384 1393.154591712015 119.49999999999999
    vertex 1774.4563326833384 1393.154591712015 162.99999999999997
  endloop
endfacet
facet normal 0.0 1.0 0.0
  outer loop
    vertex 1774.4563326833384 1393.154591712015 162.99999999999997
    vertex 1774.4563326833384 1393.154591712015 119.49999999999999
    vertex 1762.0563326833412 1393.154591712015 162.99999999999997
  endloop
endfacet
facet normal 0.0 1.0 0.0
  outer loop
    vertex 1795.0563326833396 1393.154591712015 166.99999999999997
    vertex 1775.4916088637508 1393.154591712015 163.1362966948437
    vertex 1776.4563326833409 1393.154591712015 163.53589838486224
  endloop
endfacet
facet normal 0.0 1.0 0.0
  outer loop
    vertex 1795.0563326833396 1393.154591712015 166.99999999999997
    vertex 1776.4563326833409 1393.154591712015 163.53589838486224
    vertex 1777.2847598080855 1393.154591712015 164.17157287525376
  endloop
endfacet
facet normal 0.0 1.0 0.0
  outer loop
    vertex 1795.0563326833396 1393.154591712015 166.99999999999997
    vertex 1777.2847598080855 1393.154591712015 164.17157287525376
    vertex 1777.9204342984774 1393.154591712015 164.99999999999997
  endloop
endfacet
facet normal 0.0 1.0 0.0
  outer loop
    vertex 1795.0563326833396 1393.154591712015 166.99999999999997
    vertex 1777.9204342984774 1393.154591712015 164.99999999999997
    vertex 1778.320035988495 1393.154591712015 165.96472381958986
  endloop
endfacet
facet normal 0.0 1.0 0.0
  outer loop
    vertex 1795.0563326833396 1393.154591712015 166.99999999999997
    vertex 1778.320035988495 1393.154591712015 165.96472381958986
    vertex 1778.4563326833404 1393.154591712015 166.99999999999997
  endloop
endfacet
facet normal 0.0 1.0 0.0
  outer loop
    vertex 1795.0563326833396 1393.154591712015 166.99999999999997
    vertex 1778.4563326833404 1393.154591712015 166.99999999999997
    vertex 1778.320035988495 1393.154591712015 168.03527618041005
  endloop
endfacet
facet normal 0.0 1.0 0.0
  outer loop
    vertex 1795.0563326833396 1393.154591712015 166.99999999999997
    vertex 1778.320035988495 1393.154591712015 168.03527618041005
    vertex 1798.056332683339 1393.154591712015 166.99999999999997
  endloop
endfacet
facet normal 0.0 1.0 0.0
  outer loop
    vertex 1798.056332683339 1393.154591712015 166.99999999999997
    vertex 1778.320035988495 1393.154591712015 168.03527618041005
    vertex 1798.056332683339 1393.154591712015 172.49999999999997
  endloop
endfacet
facet normal 0.0 1.0 0.0
  outer loop
    vertex 1798.056332683339 1393.154591712015 172.49999999999997
    vertex 1778.320035988495 1393.154591712015 168.03527618041005
    vertex 1777.9204342984774 1393.154591712015 168.99999999999997
  endloop
endfacet
facet normal 0.0 1.0 0.0
  outer loop
    vertex 1798.056332683339 1393.154591712015 172.49999999999997
    vertex 1777.9204342984774 1393.154591712015 168.99999999999997
    vertex 1777.2847598080855 1393.154591712015 169.82842712474616
  endloop
endfacet
facet normal 0.0 1.0 0.0
  outer loop
    vertex 1798.056332683339 1393.154591712015 172.49999999999997
    vertex 1777.2847598080855 1393.154591712015 169.82842712474616
    vertex 1776.4563326833409 1393.154591712015 170.46410161513774
  endloop
endfacet
facet normal 0.0 1.0 0.0
  outer loop
    vertex 1798.056332683339 1393.154591712015 172.49999999999997
    vertex 1776.4563326833409 1393.154591712015 170.46410161513774
    vertex 1775.4916088637508 1393.154591712015 170.86370330515626
  endloop
endfacet
facet normal 0.0 1.0 0.0
  outer loop
    vertex 1798.056332683339 1393.154591712015 172.49999999999997
    vertex 1775.4916088637508 1393.154591712015 170.86370330515626
    vertex 1774.4563326833384 1393.154591712015 170.99999999999997
  endloop
endfacet
facet normal 0.0 1.0 0.0
  outer loop
    vertex 1798.056332683339 1393.154591712015 172.49999999999997
    vertex 1774.4563326833384 1393.154591712015 170.99999999999997
    vertex 1791.4563326833404 1393.154591712015 172.49999999999997
  endloop
endfacet
facet normal -0.38268343236501867 -5.9484634982812844e-18 0.9238795325113163
  outer loop
    vertex 1776.4563326833409 1390.1545917120156 163.53589838486224
    vertex 1775.4916088637508 1393.154591712015 163.1362966948437
    vertex 1775.4916088637508 1390.1545917120156 163.1362966948437
  endloop
endfacet
facet normal -0.38268343236501867 -5.9484634982812844e-18 0.9238795325113163
  outer loop
    vertex 1775.4916088637508 1393.154591712015 163.1362966948437
    vertex 1776.4563326833409 1390.1545917120156 163.53589838486224
    vertex 1776.4563326833409 1393.154591712015 163.53589838486224
  endloop
endfacet
facet normal -0.7933533402910847 -1.4700833098124207e-24 -0.6087614290089167
  outer loop
    vertex 1777.2847598080855 1393.154591712015 169.82842712474616
    vertex 1777.9204342984774 1390.1545917120156 168.99999999999997
    vertex 1777.2847598080855 1390.1545917120156 169.82842712474616
  endloop
endfacet
facet normal -0.7933533402910847 -1.4700833098124207e-24 -0.6087614290089167
  outer loop
    vertex 1777.9204342984774 1390.1545917120156 168.99999999999997
    vertex 1777.2847598080855 1393.154591712015 169.82842712474616
    vertex 1777.9204342984774 1393.154591712015 168.99999999999997
  endloop
endfacet
facet normal -0.1305261922197768 4.837299269585441e-25 0.9914448613738468
  outer loop
    vertex 1775.4916088637508 1390.1545917120156 163.1362966948437
    vertex 1774.4563326833384 1393.154591712015 162.99999999999997
    vertex 1774.4563326833384 1390.1545917120156 162.99999999999997
  endloop
endfacet
facet normal -0.1305261922197768 4.837299269585441e-25 0.9914448613738468
  outer loop
    vertex 1774.4563326833384 1393.154591712015 162.99999999999997
    vertex 1775.4916088637508 1390.1545917120156 163.1362966948437
    vertex 1775.4916088637508 1393.154591712015 163.1362966948437
  endloop
endfacet
facet normal -0.9238795325116261 -2.7699695034274586e-27 0.38268343236427066
  outer loop
    vertex 1778.320035988495 1393.154591712015 165.96472381958986
    vertex 1777.9204342984774 1390.1545917120156 164.99999999999997
    vertex 1778.320035988495 1390.1545917120156 165.96472381958986
  endloop
endfacet
facet normal -0.9238795325116261 -2.7699695034274586e-27 0.38268343236427066
  outer loop
    vertex 1777.9204342984774 1390.1545917120156 164.99999999999997
    vertex 1778.320035988495 1393.154591712015 165.96472381958986
    vertex 1777.9204342984774 1393.154591712015 164.99999999999997
  endloop
endfacet
facet normal -0.6087614290094223 0.0 0.7933533402906968
  outer loop
    vertex 1777.2847598080855 1390.1545917120156 164.17157287525376
    vertex 1776.4563326833409 1393.154591712015 163.53589838486224
    vertex 1776.4563326833409 1390.1545917120156 163.53589838486224
  endloop
endfacet
facet normal -0.6087614290094223 0.0 0.7933533402906968
  outer loop
    vertex 1776.4563326833409 1393.154591712015 163.53589838486224
    vertex 1777.2847598080855 1390.1545917120156 164.17157287525376
    vertex 1777.2847598080855 1393.154591712015 164.17157287525376
  endloop
endfacet
facet normal -0.7933533402910808 -4.731321493033382e-18 0.6087614290089218
  outer loop
    vertex 1777.9204342984774 1393.154591712015 164.99999999999997
    vertex 1777.2847598080855 1390.1545917120156 164.17157287525376
    vertex 1777.9204342984774 1390.1545917120156 164.99999999999997
  endloop
endfacet
facet normal -0.7933533402910808 -4.731321493033382e-18 0.6087614290089218
  outer loop
    vertex 1777.2847598080855 1390.1545917120156 164.17157287525376
    vertex 1777.9204342984774 1393.154591712015 164.99999999999997
    vertex 1777.2847598080855 1393.154591712015 164.17157287525376
  endloop
endfacet
facet normal -0.9914448613735953 -1.837146791075268e-24 0.130526192221686
  outer loop
    vertex 1778.4563326833404 1393.154591712015 166.99999999999997
    vertex 1778.320035988495 1390.1545917120156 165.96472381958986
    vertex 1778.4563326833404 1390.1545917120156 166.99999999999997
  endloop
endfacet
facet normal -0.9914448613735953 -1.837146791075268e-24 0.130526192221686
  outer loop
    vertex 1778.320035988495 1390.1545917120156 165.96472381958986
    vertex 1778.4563326833404 1393.154591712015 166.99999999999997
    vertex 1778.320035988495 1393.154591712015 165.96472381958986
  endloop
endfacet
facet normal -0.9238795325116261 2.7699695034274586e-27 -0.38268343236427066
  outer loop
    vertex 1777.9204342984774 1393.154591712015 168.99999999999997
    vertex 1778.320035988495 1390.1545917120156 168.03527618041005
    vertex 1777.9204342984774 1390.1545917120156 168.99999999999997
  endloop
endfacet
facet normal -0.9238795325116261 2.7699695034274586e-27 -0.38268343236427066
  outer loop
    vertex 1778.320035988495 1390.1545917120156 168.03527618041005
    vertex 1777.9204342984774 1393.154591712015 168.99999999999997
    vertex 1778.320035988495 1393.154591712015 168.03527618041005
  endloop
endfacet
facet normal -0.6087614290094223 0.0 -0.7933533402906968
  outer loop
    vertex 1777.2847598080855 1393.154591712015 169.82842712474616
    vertex 1776.4563326833409 1390.1545917120156 170.46410161513774
    vertex 1776.4563326833409 1393.154591712015 170.46410161513774
  endloop
endfacet
facet normal -0.6087614290094223 0.0 -0.7933533402906968
  outer loop
    vertex 1776.4563326833409 1390.1545917120156 170.46410161513774
    vertex 1777.2847598080855 1393.154591712015 169.82842712474616
    vertex 1777.2847598080855 1390.1545917120156 169.82842712474616
  endloop
endfacet
facet normal -0.38268343236501867 5.9484634982812844e-18 -0.9238795325113163
  outer loop
    vertex 1776.4563326833409 1393.154591712015 170.46410161513774
    vertex 1775.4916088637508 1390.1545917120156 170.86370330515626
    vertex 1775.4916088637508 1393.154591712015 170.86370330515626
  endloop
endfacet
facet normal -0.38268343236501867 5.9484634982812844e-18 -0.9238795325113163
  outer loop
    vertex 1775.4916088637508 1390.1545917120156 170.86370330515626
    vertex 1776.4563326833409 1393.154591712015 170.46410161513774
    vertex 1776.4563326833409 1390.1545917120156 170.46410161513774
  endloop
endfacet
facet normal -0.1305261922197768 -4.837299269585441e-25 -0.9914448613738468
  outer loop
    vertex 1775.4916088637508 1393.154591712015 170.86370330515626
    vertex 1774.4563326833384 1390.1545917120156 170.99999999999997
    vertex 1774.4563326833384 1393.154591712015 170.99999999999997
  endloop
endfacet
facet normal -0.1305261922197768 -4.837299269585441e-25 -0.9914448613738468
  outer loop
    vertex 1774.4563326833384 1390.1545917120156 170.99999999999997
    vertex 1775.4916088637508 1393.154591712015 170.86370330515626
    vertex 1775.4916088637508 1390.1545917120156 170.86370330515626
  endloop
endfacet
facet normal -0.9914448613735951 -2.0289122056832036e-18 -0.13052619222168735
  outer loop
    vertex 1778.320035988495 1393.154591712015 168.03527618041005
    vertex 1778.4563326833404 1390.1545917120156 166.99999999999997
    vertex 1778.320035988495 1390.1545917120156 168.03527618041005
  endloop
endfacet
facet normal -0.9914448613735951 -2.0289122056832036e-18 -0.13052619222168735
  outer loop
    vertex 1778.4563326833404 1390.1545917120156 166.99999999999997
    vertex 1778.320035988495 1393.154591712015 168.03527618041005
    vertex 1778.4563326833404 1393.154591712015 166.99999999999997
  endloop
endfacet
facet normal 0.0 0.0 1.0
  outer loop
    vertex 1774.4563326833384 1390.1545917120156 162.99999999999997
    vertex 1762.0563326833412 1393.154591712015 162.99999999999997
    vertex 1762.0563326833412 1390.1545917120156 162.99999999999997
  endloop
endfacet
facet normal 0.0 0.0 1.0
  outer loop
    vertex 1762.0563326833412 1393.154591712015 162.99999999999997
    vertex 1774.4563326833384 1390.1545917120156 162.99999999999997
    vertex 1774.4563326833384 1393.154591712015 162.99999999999997
  endloop
endfacet
facet normal 0.0 -1.0 0.0
  outer loop
    vertex 1794.4563326833397 1390.1545917120156 106.99999999999999
    vertex 1774.4563326833384 1390.1545917120156 104.49999999999999
    vertex 1794.4563326833397 1390.1545917120156 104.49999999999999
  endloop
endfacet
facet normal 0.0 -1.0 0.0
  outer loop
    vertex 1774.4563326833384 1390.1545917120156 104.49999999999999
    vertex 1794.4563326833397 1390.1545917120156 106.99999999999999
    vertex 1774.4563326833384 1390.1545917120156 107.49999999999999
  endloop
endfacet
facet normal 0.0 -1.0 0.0
  outer loop
    vertex 1798.056332683339 1390.1545917120156 175.5
    vertex 1794.4563326833397 1390.1545917120156 106.99999999999999
    vertex 1798.056332683339 1390.1545917120156 106.99999999999999
  endloop
endfacet
facet normal 0.0 -1.0 0.0
  outer loop
    vertex 1794.4563326833397 1390.1545917120156 106.99999999999999
    vertex 1798.056332683339 1390.1545917120156 175.5
    vertex 1778.320035988495 1390.1545917120156 114.4647238195899
  endloop
endfacet
facet normal 0.0 -1.0 0.0
  outer loop
    vertex 1794.4563326833397 1390.1545917120156 106.99999999999999
    vertex 1778.320035988495 1390.1545917120156 114.4647238195899
    vertex 1777.9204342984774 1390.1545917120156 113.5
  endloop
endfacet
facet normal 0.0 -1.0 0.0
  outer loop
    vertex 1794.4563326833397 1390.1545917120156 106.99999999999999
    vertex 1777.9204342984774 1390.1545917120156 113.5
    vertex 1774.4563326833384 1390.1545917120156 107.49999999999999
  endloop
endfacet
facet normal 0.0 -1.0 0.0
  outer loop
    vertex 1774.4563326833384 1390.1545917120156 107.49999999999999
    vertex 1777.9204342984774 1390.1545917120156 113.5
    vertex 1777.2847598080855 1390.1545917120156 112.6715728752538
  endloop
endfacet
facet normal 0.0 -1.0 0.0
  outer loop
    vertex 1774.4563326833384 1390.1545917120156 107.49999999999999
    vertex 1777.2847598080855 1390.1545917120156 112.6715728752538
    vertex 1776.4563326833409 1390.1545917120156 112.03589838486224
  endloop
endfacet
facet normal 0.0 -1.0 0.0
  outer loop
    vertex 1774.4563326833384 1390.1545917120156 107.49999999999999
    vertex 1776.4563326833409 1390.1545917120156 112.03589838486224
    vertex 1775.4916088637508 1390.1545917120156 111.63629669484372
  endloop
endfacet
facet normal 0.0 -1.0 0.0
  outer loop
    vertex 1774.4563326833384 1390.1545917120156 107.49999999999999
    vertex 1775.4916088637508 1390.1545917120156 111.63629669484372
    vertex 1774.4563326833384 1390.1545917120156 111.5
  endloop
endfacet
facet normal 0.0 -1.0 0.0
  outer loop
    vertex 1778.320035988495 1390.1545917120156 114.4647238195899
    vertex 1798.056332683339 1390.1545917120156 175.5
    vertex 1778.4563326833404 1390.1545917120156 115.49999999999999
  endloop
endfacet
facet normal 0.0 -1.0 0.0
  outer loop
    vertex 1778.4563326833404 1390.1545917120156 115.49999999999999
    vertex 1798.056332683339 1390.1545917120156 175.5
    vertex 1778.320035988495 1390.1545917120156 116.53527618041008
  endloop
endfacet
facet normal 0.0 -1.0 0.0
  outer loop
    vertex 1778.320035988495 1390.1545917120156 116.53527618041008
    vertex 1798.056332683339 1390.1545917120156 175.5
    vertex 1777.9204342984774 1390.1545917120156 117.49999999999999
  endloop
endfacet
facet normal 0.0 -1.0 0.0
  outer loop
    vertex 1777.9204342984774 1390.1545917120156 117.49999999999999
    vertex 1798.056332683339 1390.1545917120156 175.5
    vertex 1777.2847598080855 1390.1545917120156 118.32842712474618
  endloop
endfacet
facet normal 0.0 -1.0 0.0
  outer loop
    vertex 1777.2847598080855 1390.1545917120156 118.32842712474618
    vertex 1798.056332683339 1390.1545917120156 175.5
    vertex 1776.4563326833409 1390.1545917120156 118.96410161513775
  endloop
endfacet
facet normal 0.0 -1.0 0.0
  outer loop
    vertex 1776.4563326833409 1390.1545917120156 118.96410161513775
    vertex 1798.056332683339 1390.1545917120156 175.5
    vertex 1775.4916088637508 1390.1545917120156 119.36370330515626
  endloop
endfacet
facet normal 0.0 -1.0 0.0
  outer loop
    vertex 1775.4916088637508 1390.1545917120156 119.36370330515626
    vertex 1798.056332683339 1390.1545917120156 175.5
    vertex 1774.4563326833384 1390.1545917120156 119.49999999999999
  endloop
endfacet
facet normal 0.0 -1.0 0.0
  outer loop
    vertex 1774.4563326833384 1390.1545917120156 119.49999999999999
    vertex 1798.056332683339 1390.1545917120156 175.5
    vertex 1762.0563326833412 1390.1545917120156 119.49999999999999
  endloop
endfacet
facet normal 0.0 -1.0 0.0
  outer loop
    vertex 1762.0563326833412 1390.1545917120156 119.49999999999999
    vertex 1798.056332683339 1390.1545917120156 175.5
    vertex 1776.4563326833409 1390.1545917120156 163.53589838486224
  endloop
endfacet
facet normal 0.0 -1.0 0.0
  outer loop
    vertex 1762.0563326833412 1390.1545917120156 119.49999999999999
    vertex 1776.4563326833409 1390.1545917120156 163.53589838486224
    vertex 1775.4916088637508 1390.1545917120156 163.1362966948437
  endloop
endfacet
facet normal 0.0 -1.0 0.0
  outer loop
    vertex 1762.0563326833412 1390.1545917120156 119.49999999999999
    vertex 1775.4916088637508 1390.1545917120156 163.1362966948437
    vertex 1774.4563326833384 1390.1545917120156 162.99999999999997
  endloop
endfacet
facet normal 0.0 -1.0 0.0
  outer loop
    vertex 1776.4563326833409 1390.1545917120156 163.53589838486224
    vertex 1798.056332683339 1390.1545917120156 175.5
    vertex 1777.2847598080855 1390.1545917120156 164.17157287525376
  endloop
endfacet
facet normal 0.0 -1.0 0.0
  outer loop
    vertex 1777.2847598080855 1390.1545917120156 164.17157287525376
    vertex 1798.056332683339 1390.1545917120156 175.5
    vertex 1777.9204342984774 1390.1545917120156 164.99999999999997
  endloop
endfacet
facet normal 0.0 -1.0 0.0
  outer loop
    vertex 1777.9204342984774 1390.1545917120156 164.99999999999997
    vertex 1798.056332683339 1390.1545917120156 175.5
    vertex 1778.320035988495 1390.1545917120156 165.96472381958986
  endloop
endfacet
facet normal 0.0 -1.0 0.0
  outer loop
    vertex 1778.320035988495 1390.1545917120156 165.96472381958986
    vertex 1798.056332683339 1390.1545917120156 175.5
    vertex 1778.4563326833404 1390.1545917120156 166.99999999999997
  endloop
endfacet
facet normal 0.0 -1.0 0.0
  outer loop
    vertex 1778.4563326833404 1390.1545917120156 166.99999999999997
    vertex 1798.056332683339 1390.1545917120156 175.5
    vertex 1778.320035988495 1390.1545917120156 168.03527618041005
  endloop
endfacet
facet normal 0.0 -1.0 0.0
  outer loop
    vertex 1778.320035988495 1390.1545917120156 168.03527618041005
    vertex 1798.056332683339 1390.1545917120156 175.5
    vertex 1777.9204342984774 1390.1545917120156 168.99999999999997
  endloop
endfacet
facet normal 0.0 -1.0 0.0
  outer loop
    vertex 1777.9204342984774 1390.1545917120156 168.99999999999997
    vertex 1798.056332683339 1390.1545917120156 175.5
    vertex 1777.2847598080855 1390.1545917120156 169.82842712474616
  endloop
endfacet
facet normal 0.0 -1.0 0.0
  outer loop
    vertex 1777.2847598080855 1390.1545917120156 169.82842712474616
    vertex 1798.056332683339 1390.1545917120156 175.5
    vertex 1776.4563326833409 1390.1545917120156 170.46410161513774
  endloop
endfacet
facet normal 0.0 -1.0 0.0
  outer loop
    vertex 1776.4563326833409 1390.1545917120156 170.46410161513774
    vertex 1798.056332683339 1390.1545917120156 175.5
    vertex 1775.4916088637508 1390.1545917120156 170.86370330515626
  endloop
endfacet
facet normal 0.0 -1.0 0.0
  outer loop
    vertex 1775.4916088637508 1390.1545917120156 170.86370330515626
    vertex 1798.056332683339 1390.1545917120156 175.5
    vertex 1774.4563326833384 1390.1545917120156 170.99999999999997
  endloop
endfacet
facet normal 0.0 -1.0 0.0
  outer loop
    vertex 1774.4563326833384 1390.1545917120156 170.99999999999997
    vertex 1798.056332683339 1390.1545917120156 175.5
    vertex 1794.4563326833397 1390.1545917120156 175.5
  endloop
endfacet
facet normal 0.0 -1.0 0.0
  outer loop
    vertex 1774.4563326833384 1390.1545917120156 170.99999999999997
    vertex 1794.4563326833397 1390.1545917120156 175.5
    vertex 1774.4563326833384 1390.1545917120156 178.0
  endloop
endfacet
facet normal 0.0 -1.0 0.0
  outer loop
    vertex 1774.4563326833384 1390.1545917120156 178.0
    vertex 1794.4563326833397 1390.1545917120156 175.5
    vertex 1794.4563326833397 1390.1545917120156 178.0
  endloop
endfacet
facet normal 0.0 -1.0 0.0
  outer loop
    vertex 1762.0563326833412 1390.1545917120156 162.99999999999997
    vertex 1762.0563326833412 1390.1545917120156 119.49999999999999
    vertex 1774.4563326833384 1390.1545917120156 162.99999999999997
  endloop
endfacet
facet normal -1.0 0.0 0.0
  outer loop
    vertex 1762.0563326833412 1393.154591712015 162.99999999999997
    vertex 1762.0563326833412 1390.1545917120156 119.49999999999999
    vertex 1762.0563326833412 1390.1545917120156 162.99999999999997
  endloop
endfacet
facet normal -1.0 0.0 0.0
  outer loop
    vertex 1762.0563326833412 1390.1545917120156 119.49999999999999
    vertex 1762.0563326833412 1393.154591712015 162.99999999999997
    vertex 1762.0563326833412 1393.154591712015 119.49999999999999
  endloop
endfacet
facet normal -1.0 0.0 0.0
  outer loop
    vertex 1774.4563326833384 1390.1545917120156 178.0
    vertex 1774.4563326833384 1393.154591712015 175.0
    vertex 1774.4563326833384 1390.1545917120156 170.99999999999997
  endloop
endfacet
facet normal -1.0 0.0 0.0
  outer loop
    vertex 1774.4563326833384 1393.154591712015 175.0
    vertex 1774.4563326833384 1390.1545917120156 178.0
    vertex 1774.4563326833384 1415.1545917120043 178.0
  endloop
endfacet
facet normal -1.0 0.0 0.0
  outer loop
    vertex 1774.4563326833384 1393.154591712015 175.0
    vertex 1774.4563326833384 1415.1545917120043 178.0
    vertex 1774.4563326833384 1415.1545917120043 175.0
  endloop
endfacet
facet normal -1.0 0.0 0.0
  outer loop
    vertex 1774.4563326833384 1393.154591712015 170.99999999999997
    vertex 1774.4563326833384 1390.1545917120156 170.99999999999997
    vertex 1774.4563326833384 1393.154591712015 175.0
  endloop
endfacet
facet normal 6.635215253053131e-16 0.0 -1.0
  outer loop
    vertex 1791.4563326833404 1415.1545917120043 175.0
    vertex 1774.4563326833384 1393.154591712015 175.0
    vertex 1774.4563326833384 1415.1545917120043 175.0
  endloop
endfacet
facet normal 6.635215253053131e-16 0.0 -1.0
  outer loop
    vertex 1774.4563326833384 1393.154591712015 175.0
    vertex 1791.4563326833404 1415.1545917120043 175.0
    vertex 1791.4563326833404 1393.154591712015 175.0
  endloop
endfacet
endsolid [0008]
