solid [0008]
facet normal 1.0237842319936328e-15 1.6395153968301604e-17 1.0
  outer loop
    vertex 1750.9563326833397 1413.1545917120104 174.00000000000014
    vertex 1754.456332683339 1394.6545917120118 174.00000000000014
    vertex 1754.456332683339 1413.1545917120104 174.00000000000014
  endloop
endfacet
facet normal 1.0237842319936328e-15 1.6395153968301604e-17 1.0
  outer loop
    vertex 1754.456332683339 1394.6545917120118 174.00000000000014
    vertex 1750.9563326833397 1413.1545917120104 174.00000000000014
    vertex 1750.9563326833397 1394.6545917120118 174.00000000000014
  endloop
endfacet
facet normal -7.216449660063518e-16 0.0 -1.0
  outer loop
    vertex 1750.9563326833397 1394.6545917120118 107.99999999999994
    vertex 1754.456332683339 1413.1545917120104 107.99999999999994
    vertex 1754.456332683339 1394.6545917120118 107.99999999999994
  endloop
endfacet
facet normal -7.216449660063518e-16 0.0 -1.0
  outer loop
    vertex 1754.456332683339 1413.1545917120104 107.99999999999994
    vertex 1750.9563326833397 1394.6545917120118 107.99999999999994
    vertex 1750.9563326833397 1413.1545917120104 107.99999999999994
  endloop
endfacet
facet normal 1.9290125052859618e-16 1.6395153968301604e-17 1.0
  outer loop
    vertex 1754.456332683339 1415.15459171201 176.00000000000014
    vertex 1756.4563326833386 1392.6545917120122 176.00000000000014
    vertex 1756.4563326833386 1415.15459171201 176.00000000000014
  endloop
endfacet
facet normal 1.9290125052859618e-16 1.6395153968301604e-17 1.0
  outer loop
    vertex 1756.4563326833386 1392.6545917120122 176.00000000000014
    vertex 1754.456332683339 1415.15459171201 176.00000000000014
    vertex 1754.456332683339 1392.6545917120122 176.00000000000014
  endloop
endfacet
facet normal -7.216449660063518e-16 0.0 -1.0
  outer loop
    vertex 1754.456332683339 1392.6545917120122 105.99999999999994
    vertex 1756.4563326833386 1415.15459171201 105.99999999999994
    vertex 1756.4563326833386 1392.6545917120122 105.99999999999994
  endloop
endfacet
facet normal -7.216449660063518e-16 0.0 -1.0
  outer loop
    vertex 1756.4563326833386 1415.15459171201 105.99999999999994
    vertex 1754.456332683339 1392.6545917120122 105.99999999999994
    vertex 1754.456332683339 1415.15459171201 105.99999999999994
  endloop
endfacet
facet normal 0.0 1.0 0.0
  outer loop
    vertex 1756.4563326833386 1415.15459171201 105.99999999999994
    vertex 1754.456332683339 1415.15459171201 176.00000000000014
    vertex 1756.4563326833386 1415.15459171201 176.00000000000014
  endloop
endfacet
facet normal 0.0 1.0 0.0
  outer loop
    vertex 1754.456332683339 1415.15459171201 176.00000000000014
    vertex 1756.4563326833386 1415.15459171201 105.99999999999994
    vertex 1754.456332683339 1415.15459171201 105.99999999999994
  endloop
endfacet
facet normal 0.0 -1.0 0.0
  outer loop
    vertex 1750.9563326833397 1394.6545917120118 107.99999999999994
    vertex 1754.456332683339 1394.6545917120118 174.00000000000014
    vertex 1750.9563326833397 1394.6545917120118 174.00000000000014
  endloop
endfacet
facet normal 0.0 -1.0 0.0
  outer loop
    vertex 1754.456332683339 1394.6545917120118 174.00000000000014
    vertex 1750.9563326833397 1394.6545917120118 107.99999999999994
    vertex 1754.456332683339 1394.6545917120118 107.99999999999994
  endloop
endfacet
facet normal 1.0 0.0 0.0
  outer loop
    vertex 1756.4563326833386 1392.6545917120122 105.99999999999994
    vertex 1756.4563326833356 1395.1545917120145 118.49999999999994
    vertex 1756.4563326833386 1392.6545917120122 176.00000000000014
  endloop
endfacet
facet normal 1.0 0.0 0.0
  outer loop
    vertex 1756.4563326833356 1395.1545917120145 118.49999999999994
    vertex 1756.4563326833386 1392.6545917120122 105.99999999999994
    vertex 1756.4563326833386 1415.15459171201 105.99999999999994
  endloop
endfacet
facet normal 1.0 0.0 0.0
  outer loop
    vertex 1756.4563326833356 1395.1545917120145 118.49999999999994
    vertex 1756.4563326833386 1415.15459171201 105.99999999999994
    vertex 1756.4563326833356 1412.6545917120077 118.49999999999994
  endloop
endfacet
facet normal 1.0 0.0 0.0
  outer loop
    vertex 1756.4563326833356 1412.6545917120077 118.49999999999994
    vertex 1756.4563326833386 1415.15459171201 105.99999999999994
    vertex 1756.4563326833356 1412.6545917120077 163.50000000000014
  endloop
endfacet
facet normal 1.0 0.0 0.0
  outer loop
    vertex 1756.4563326833386 1392.6545917120122 176.00000000000014
    vertex 1756.4563326833356 1395.1545917120145 163.50000000000014
    vertex 1756.4563326833386 1415.15459171201 176.00000000000014
  endloop
endfacet
facet normal 1.0 0.0 0.0
  outer loop
    vertex 1756.4563326833356 1395.1545917120145 163.50000000000014
    vertex 1756.4563326833386 1392.6545917120122 176.00000000000014
    vertex 1756.4563326833356 1395.1545917120145 118.49999999999994
  endloop
endfacet
facet normal 1.0 0.0 0.0
  outer loop
    vertex 1756.4563326833386 1415.15459171201 176.00000000000014
    vertex 1756.4563326833356 1395.1545917120145 163.50000000000014
    vertex 1756.4563326833356 1412.6545917120077 163.50000000000014
  endloop
endfacet
facet normal 1.0 0.0 0.0
  outer loop
    vertex 1756.4563326833386 1415.15459171201 176.00000000000014
    vertex 1756.4563326833356 1412.6545917120077 163.50000000000014
    vertex 1756.4563326833386 1415.15459171201 105.99999999999994
  endloop
endfacet
facet normal 0.0 1.0 0.0
  outer loop
    vertex 1754.456332683339 1413.1545917120104 107.99999999999994
    vertex 1750.9563326833397 1413.1545917120104 174.00000000000014
    vertex 1754.456332683339 1413.1545917120104 174.00000000000014
  endloop
endfacet
facet normal 0.0 1.0 0.0
  outer loop
    vertex 1750.9563326833397 1413.1545917120104 174.00000000000014
    vertex 1754.456332683339 1413.1545917120104 107.99999999999994
    vertex 1750.9563326833397 1413.1545917120104 107.99999999999994
  endloop
endfacet
facet normal -1.0 0.0 0.0
  outer loop
    vertex 1750.9563326833397 1394.6545917120118 174.00000000000014
    vertex 1750.9563326833397 1395.1545917120145 163.50000000000014
    vertex 1750.9563326833397 1394.6545917120118 107.99999999999994
  endloop
endfacet
facet normal -1.0 0.0 0.0
  outer loop
    vertex 1750.9563326833397 1395.1545917120145 163.50000000000014
    vertex 1750.9563326833397 1394.6545917120118 174.00000000000014
    vertex 1750.9563326833397 1413.1545917120104 174.00000000000014
  endloop
endfacet
facet normal -1.0 0.0 0.0
  outer loop
    vertex 1750.9563326833397 1395.1545917120145 163.50000000000014
    vertex 1750.9563326833397 1413.1545917120104 174.00000000000014
    vertex 1750.9563326833397 1412.6545917120077 163.50000000000014
  endloop
endfacet
facet normal -1.0 0.0 0.0
  outer loop
    vertex 1750.9563326833397 1412.6545917120077 163.50000000000014
    vertex 1750.9563326833397 1413.1545917120104 174.00000000000014
    vertex 1750.9563326833397 1412.6545917120077 118.49999999999994
  endloop
endfacet
facet normal -1.0 0.0 0.0
  outer loop
    vertex 1750.9563326833397 1394.6545917120118 107.99999999999994
    vertex 1750.9563326833397 1395.1545917120145 118.49999999999994
    vertex 1750.9563326833397 1413.1545917120104 107.99999999999994
  endloop
endfacet
facet normal -1.0 0.0 0.0
  outer loop
    vertex 1750.9563326833397 1395.1545917120145 118.49999999999994
    vertex 1750.9563326833397 1394.6545917120118 107.99999999999994
    vertex 1750.9563326833397 1395.1545917120145 163.50000000000014
  endloop
endfacet
facet normal -1.0 0.0 0.0
  outer loop
    vertex 1750.9563326833397 1413.1545917120104 107.99999999999994
    vertex 1750.9563326833397 1395.1545917120145 118.49999999999994
    vertex 1750.9563326833397 1412.6545917120077 118.49999999999994
  endloop
endfacet
facet normal -1.0 0.0 0.0
  outer loop
    vertex 1750.9563326833397 1413.1545917120104 107.99999999999994
    vertex 1750.9563326833397 1412.6545917120077 118.49999999999994
    vertex 1750.9563326833397 1413.1545917120104 174.00000000000014
  endloop
endfacet
facet normal -1.0 0.0 0.0
  outer loop
    vertex 1754.456332683339 1392.6545917120122 176.00000000000014
    vertex 1754.456332683339 1394.6545917120118 174.00000000000014
    vertex 1754.456332683339 1392.6545917120122 105.99999999999994
  endloop
endfacet
facet normal -1.0 0.0 0.0
  outer loop
    vertex 1754.456332683339 1394.6545917120118 174.00000000000014
    vertex 1754.456332683339 1392.6545917120122 176.00000000000014
    vertex 1754.456332683339 1415.15459171201 176.00000000000014
  endloop
endfacet
facet normal -1.0 0.0 0.0
  outer loop
    vertex 1754.456332683339 1394.6545917120118 174.00000000000014
    vertex 1754.456332683339 1415.15459171201 176.00000000000014
    vertex 1754.456332683339 1413.1545917120104 174.00000000000014
  endloop
endfacet
facet normal -1.0 0.0 0.0
  outer loop
    vertex 1754.456332683339 1413.1545917120104 174.00000000000014
    vertex 1754.456332683339 1415.15459171201 176.00000000000014
    vertex 1754.456332683339 1413.1545917120104 107.99999999999994
  endloop
endfacet
facet normal -1.0 0.0 0.0
  outer loop
    vertex 1754.456332683339 1392.6545917120122 105.99999999999994
    vertex 1754.456332683339 1394.6545917120118 107.99999999999994
    vertex 1754.456332683339 1415.15459171201 105.99999999999994
  endloop
endfacet
facet normal -1.0 0.0 0.0
  outer loop
    vertex 1754.456332683339 1394.6545917120118 107.99999999999994
    vertex 1754.456332683339 1392.6545917120122 105.99999999999994
    vertex 1754.456332683339 1394.6545917120118 174.00000000000014
  endloop
endfacet
facet normal -1.0 0.0 0.0
  outer loop
    vertex 1754.456332683339 1415.15459171201 105.99999999999994
    vertex 1754.456332683339 1394.6545917120118 107.99999999999994
    vertex 1754.456332683339 1413.1545917120104 107.99999999999994
  endloop
endfacet
facet normal -1.0 0.0 0.0
  outer loop
    vertex 1754.456332683339 1415.15459171201 105.99999999999994
    vertex 1754.456332683339 1413.1545917120104 107.99999999999994
    vertex 1754.456332683339 1415.15459171201 176.00000000000014
  endloop
endfacet
facet normal 0.0 -1.0 0.0
  outer loop
    vertex 1754.456332683339 1392.6545917120122 105.99999999999994
    vertex 1756.4563326833386 1392.6545917120122 176.00000000000014
    vertex 1754.456332683339 1392.6545917120122 176.00000000000014
  endloop
endfacet
facet normal 0.0 -1.0 0.0
  outer loop
    vertex 1756.4563326833386 1392.6545917120122 176.00000000000014
    vertex 1754.456332683339 1392.6545917120122 105.99999999999994
    vertex 1756.4563326833386 1392.6545917120122 105.99999999999994
  endloop
endfacet
facet normal 0.0 1.0 0.0
  outer loop
    vertex 1756.4563326833356 1395.1545917120145 118.49999999999994
    vertex 1750.9563326833397 1395.1545917120145 163.50000000000014
    vertex 1756.4563326833356 1395.1545917120145 163.50000000000014
  endloop
endfacet
facet normal 0.0 1.0 0.0
  outer loop
    vertex 1750.9563326833397 1395.1545917120145 163.50000000000014
    vertex 1756.4563326833356 1395.1545917120145 118.49999999999994
    vertex 1750.9563326833397 1395.1545917120145 118.49999999999994
  endloop
endfacet
facet normal 9.860761315262648e-32 0.0 -1.0
  outer loop
    vertex 1750.9563326833397 1395.1545917120145 163.50000000000014
    vertex 1756.4563326833356 1412.6545917120077 163.50000000000014
    vertex 1756.4563326833356 1395.1545917120145 163.50000000000014
  endloop
endfacet
facet normal 9.860761315262648e-32 0.0 -1.0
  outer loop
    vertex 1756.4563326833356 1412.6545917120077 163.50000000000014
    vertex 1750.9563326833397 1395.1545917120145 163.50000000000014
    vertex 1750.9563326833397 1412.6545917120077 163.50000000000014
  endloop
endfacet
facet normal -0.0 -1.0 0.0
  outer loop
    vertex 1750.9563326833397 1412.6545917120077 118.49999999999994
    vertex 1756.4563326833356 1412.6545917120077 163.50000000000014
    vertex 1750.9563326833397 1412.6545917120077 163.50000000000014
  endloop
endfacet
facet normal -0.0 -1.0 0.0
  outer loop
    vertex 1756.4563326833356 1412.6545917120077 163.50000000000014
    vertex 1750.9563326833397 1412.6545917120077 118.49999999999994
    vertex 1756.4563326833356 1412.6545917120077 118.49999999999994
  endloop
endfacet
facet normal -9.860761315262648e-32 -8.057047092997155e-17 1.0
  outer loop
    vertex 1750.9563326833397 1412.6545917120077 118.49999999999994
    vertex 1756.4563326833356 1395.1545917120145 118.49999999999994
    vertex 1756.4563326833356 1412.6545917120077 118.49999999999994
  endloop
endfacet
facet normal -9.860761315262648e-32 -8.057047092997155e-17 1.0
  outer loop
    vertex 1756.4563326833356 1395.1545917120145 118.49999999999994
    vertex 1750.9563326833397 1412.6545917120077 118.49999999999994
    vertex 1750.9563326833397 1395.1545917120145 118.49999999999994
  endloop
endfacet
endsolid [0008]
