solid [0010]
facet normal -1.0 -0.0 -0.0
  outer loop
    vertex -21960.19071730493 27378.951208205952 9.999999999999996
    vertex -21960.19071730493 27346.951208205952 1.4099832412739487e-15
    vertex -21960.19071730493 27346.951208205952 9.999999999999996
  endloop
endfacet
facet normal -1.0 -0.0 -0.0
  outer loop
    vertex -21960.19071730493 27346.951208205952 1.4099832412739487e-15
    vertex -21960.19071730493 27378.951208205952 9.999999999999996
    vertex -21960.19071730493 27378.951208205952 1.4099832412739487e-15
  endloop
endfacet
facet normal 0.0 -1.0 0.0
  outer loop
    vertex -21931.79071730493 27346.951208205952 9.999999999999996
    vertex -21936.79071730493 27346.951208205952 1.4099832412739487e-15
    vertex -21931.79071730493 27346.951208205952 1.4099832412739487e-15
  endloop
endfacet
facet normal 0.0 -1.0 0.0
  outer loop
    vertex -21936.79071730493 27346.951208205952 1.4099832412739487e-15
    vertex -21931.79071730493 27346.951208205952 9.999999999999996
    vertex -21936.79071730493 27346.951208205952 6.000000000000002
  endloop
endfacet
facet normal 0.0 -1.0 0.0
  outer loop
    vertex -21936.79071730493 27346.951208205952 6.000000000000002
    vertex -21931.79071730493 27346.951208205952 9.999999999999996
    vertex -21955.19071730493 27346.951208205952 6.000000000000002
  endloop
endfacet
facet normal 0.0 -1.0 0.0
  outer loop
    vertex -21955.19071730493 27346.951208205952 6.000000000000002
    vertex -21960.19071730493 27346.951208205952 1.4099832412739487e-15
    vertex -21955.19071730493 27346.951208205952 1.4099832412739487e-15
  endloop
endfacet
facet normal 0.0 -1.0 0.0
  outer loop
    vertex -21960.19071730493 27346.951208205952 1.4099832412739487e-15
    vertex -21955.19071730493 27346.951208205952 6.000000000000002
    vertex -21960.19071730493 27346.951208205952 9.999999999999996
  endloop
endfacet
facet normal 0.0 -1.0 0.0
  outer loop
    vertex -21960.19071730493 27346.951208205952 9.999999999999996
    vertex -21955.19071730493 27346.951208205952 6.000000000000002
    vertex -21931.79071730493 27346.951208205952 9.999999999999996
  endloop
endfacet
facet normal 1.0 0.0 0.0
  outer loop
    vertex -21931.79071730493 27378.951208205952 1.4099832412739487e-15
    vertex -21931.79071730493 27346.951208205952 9.999999999999996
    vertex -21931.79071730493 27346.951208205952 1.4099832412739487e-15
  endloop
endfacet
facet normal 1.0 0.0 0.0
  outer loop
    vertex -21931.79071730493 27346.951208205952 9.999999999999996
    vertex -21931.79071730493 27378.951208205952 1.4099832412739487e-15
    vertex -21931.79071730493 27378.951208205952 9.999999999999996
  endloop
endfacet
facet normal 0.0 1.0 0.0
  outer loop
    vertex -21936.79071730493 27378.951208205952 6.000000000000002
    vertex -21931.79071730493 27378.951208205952 1.4099832412739487e-15
    vertex -21936.79071730493 27378.951208205952 1.4099832412739487e-15
  endloop
endfacet
facet normal 0.0 1.0 0.0
  outer loop
    vertex -21931.79071730493 27378.951208205952 1.4099832412739487e-15
    vertex -21936.79071730493 27378.951208205952 6.000000000000002
    vertex -21931.79071730493 27378.951208205952 9.999999999999996
  endloop
endfacet
facet normal 0.0 1.0 0.0
  outer loop
    vertex -21931.79071730493 27378.951208205952 9.999999999999996
    vertex -21936.79071730493 27378.951208205952 6.000000000000002
    vertex -21939.990717304936 27378.951208205952 6.000000000000003
  endloop
endfacet
facet normal 0.0 1.0 0.0
  outer loop
    vertex -21931.79071730493 27378.951208205952 9.999999999999996
    vertex -21939.990717304936 27378.951208205952 6.000000000000003
    vertex -21939.990717304936 27378.951208205952 9.999999999999996
  endloop
endfacet
facet normal 0.0 -1.0 0.0
  outer loop
    vertex -21934.79071730493 27375.951208205952 6.999999999999997
    vertex -21936.79071730493 27375.951208205952 6.000000000000002
    vertex -21934.79071730493 27375.951208205952 6.000000000000002
  endloop
endfacet
facet normal 0.0 -1.0 0.0
  outer loop
    vertex -21936.79071730493 27375.951208205952 6.000000000000002
    vertex -21934.79071730493 27375.951208205952 6.999999999999997
    vertex -21939.990717304936 27375.951208205952 6.000000000000003
  endloop
endfacet
facet normal 0.0 -1.0 0.0
  outer loop
    vertex -21939.990717304936 27375.951208205952 6.000000000000003
    vertex -21934.79071730493 27375.951208205952 6.999999999999997
    vertex -21939.990717304936 27375.951208205952 6.999999999999998
  endloop
endfacet
facet normal -1.0 0.0 0.0
  outer loop
    vertex -21934.79071730493 27375.951208205952 6.999999999999997
    vertex -21934.79071730493 27349.951208205952 6.000000000000002
    vertex -21934.79071730493 27349.951208205952 6.999999999999997
  endloop
endfacet
facet normal -1.0 0.0 0.0
  outer loop
    vertex -21934.79071730493 27349.951208205952 6.000000000000002
    vertex -21934.79071730493 27375.951208205952 6.999999999999997
    vertex -21934.79071730493 27349.951208205952 1.4099832412739487e-15
  endloop
endfacet
facet normal -1.0 0.0 0.0
  outer loop
    vertex -21934.79071730493 27349.951208205952 1.4099832412739487e-15
    vertex -21934.79071730493 27375.951208205952 6.999999999999997
    vertex -21934.79071730493 27375.951208205952 1.4099832412739487e-15
  endloop
endfacet
facet normal -1.0 0.0 0.0
  outer loop
    vertex -21934.79071730493 27375.951208205952 1.4099832412739487e-15
    vertex -21934.79071730493 27375.951208205952 6.999999999999997
    vertex -21934.79071730493 27375.951208205952 6.000000000000002
  endloop
endfacet
facet normal 0.0 1.0 0.0
  outer loop
    vertex -21957.19071730493 27349.951208205952 6.999999999999997
    vertex -21955.19071730493 27349.951208205952 6.000000000000002
    vertex -21957.19071730493 27349.951208205952 6.000000000000002
  endloop
endfacet
facet normal 0.0 1.0 0.0
  outer loop
    vertex -21955.19071730493 27349.951208205952 6.000000000000002
    vertex -21957.19071730493 27349.951208205952 6.999999999999997
    vertex -21936.79071730493 27349.951208205952 6.000000000000002
  endloop
endfacet
facet normal 0.0 1.0 0.0
  outer loop
    vertex -21936.79071730493 27349.951208205952 6.000000000000002
    vertex -21957.19071730493 27349.951208205952 6.999999999999997
    vertex -21934.79071730493 27349.951208205952 6.000000000000002
  endloop
endfacet
facet normal 0.0 1.0 0.0
  outer loop
    vertex -21934.79071730493 27349.951208205952 6.000000000000002
    vertex -21957.19071730493 27349.951208205952 6.999999999999997
    vertex -21934.79071730493 27349.951208205952 6.999999999999997
  endloop
endfacet
facet normal 1.0 0.0 0.0
  outer loop
    vertex -21957.19071730493 27375.951208205952 1.4099832412739487e-15
    vertex -21957.19071730493 27349.951208205952 6.000000000000002
    vertex -21957.19071730493 27349.951208205952 1.4099832412739487e-15
  endloop
endfacet
facet normal 1.0 0.0 0.0
  outer loop
    vertex -21957.19071730493 27349.951208205952 6.000000000000002
    vertex -21957.19071730493 27375.951208205952 1.4099832412739487e-15
    vertex -21957.19071730493 27349.951208205952 6.999999999999997
  endloop
endfacet
facet normal 1.0 0.0 0.0
  outer loop
    vertex -21957.19071730493 27349.951208205952 6.999999999999997
    vertex -21957.19071730493 27375.951208205952 1.4099832412739487e-15
    vertex -21957.19071730493 27375.951208205952 6.999999999999997
  endloop
endfacet
facet normal 1.0 0.0 0.0
  outer loop
    vertex -21957.19071730493 27375.951208205952 6.999999999999997
    vertex -21957.19071730493 27375.951208205952 1.4099832412739487e-15
    vertex -21957.19071730493 27375.951208205952 6.000000000000002
  endloop
endfacet
facet normal 0.0 0.0 1.0
  outer loop
    vertex -21960.19071730493 27346.951208205952 9.999999999999996
    vertex -21951.990717304932 27367.951208205952 9.999999999999996
    vertex -21960.19071730493 27378.951208205952 9.999999999999996
  endloop
endfacet
facet normal 0.0 0.0 1.0
  outer loop
    vertex -21951.990717304932 27367.951208205952 9.999999999999996
    vertex -21960.19071730493 27346.951208205952 9.999999999999996
    vertex -21931.79071730493 27346.951208205952 9.999999999999996
  endloop
endfacet
facet normal 0.0 0.0 1.0
  outer loop
    vertex -21951.990717304932 27367.951208205952 9.999999999999996
    vertex -21931.79071730493 27346.951208205952 9.999999999999996
    vertex -21939.990717304936 27367.951208205952 9.999999999999996
  endloop
endfacet
facet normal 0.0 0.0 1.0
  outer loop
    vertex -21939.990717304936 27367.951208205952 9.999999999999996
    vertex -21931.79071730493 27346.951208205952 9.999999999999996
    vertex -21939.990717304936 27378.951208205952 9.999999999999996
  endloop
endfacet
facet normal 0.0 0.0 1.0
  outer loop
    vertex -21939.990717304936 27378.951208205952 9.999999999999996
    vertex -21931.79071730493 27346.951208205952 9.999999999999996
    vertex -21931.79071730493 27378.951208205952 9.999999999999996
  endloop
endfacet
facet normal 0.0 0.0 1.0
  outer loop
    vertex -21951.990717304932 27378.951208205952 9.999999999999996
    vertex -21960.19071730493 27378.951208205952 9.999999999999996
    vertex -21951.990717304932 27367.951208205952 9.999999999999996
  endloop
endfacet
facet normal 1.0 0.0 0.0
  outer loop
    vertex -21951.990717304932 27378.951208205952 6.000000000000003
    vertex -21951.990717304932 27375.951208205952 6.999999999999998
    vertex -21951.990717304932 27375.951208205952 6.000000000000003
  endloop
endfacet
facet normal 1.0 0.0 0.0
  outer loop
    vertex -21951.990717304932 27375.951208205952 6.999999999999998
    vertex -21951.990717304932 27367.951208205952 9.999999999999996
    vertex -21951.990717304932 27367.951208205952 6.999999999999998
  endloop
endfacet
facet normal 1.0 0.0 0.0
  outer loop
    vertex -21951.990717304932 27367.951208205952 9.999999999999996
    vertex -21951.990717304932 27375.951208205952 6.999999999999998
    vertex -21951.990717304932 27378.951208205952 9.999999999999996
  endloop
endfacet
facet normal 1.0 0.0 0.0
  outer loop
    vertex -21951.990717304932 27378.951208205952 9.999999999999996
    vertex -21951.990717304932 27375.951208205952 6.999999999999998
    vertex -21951.990717304932 27378.951208205952 6.000000000000003
  endloop
endfacet
facet normal 0.0 1.0 0.0
  outer loop
    vertex -21951.990717304932 27367.951208205952 9.999999999999996
    vertex -21939.990717304936 27367.951208205952 6.999999999999998
    vertex -21951.990717304932 27367.951208205952 6.999999999999998
  endloop
endfacet
facet normal 0.0 1.0 0.0
  outer loop
    vertex -21939.990717304936 27367.951208205952 6.999999999999998
    vertex -21951.990717304932 27367.951208205952 9.999999999999996
    vertex -21939.990717304936 27367.951208205952 9.999999999999996
  endloop
endfacet
facet normal -1.0 0.0 0.0
  outer loop
    vertex -21939.990717304936 27378.951208205952 9.999999999999996
    vertex -21939.990717304936 27367.951208205952 6.999999999999998
    vertex -21939.990717304936 27367.951208205952 9.999999999999996
  endloop
endfacet
facet normal -1.0 0.0 0.0
  outer loop
    vertex -21939.990717304936 27367.951208205952 6.999999999999998
    vertex -21939.990717304936 27378.951208205952 9.999999999999996
    vertex -21939.990717304936 27375.951208205952 6.999999999999998
  endloop
endfacet
facet normal -1.0 0.0 0.0
  outer loop
    vertex -21939.990717304936 27375.951208205952 6.999999999999998
    vertex -21939.990717304936 27378.951208205952 9.999999999999996
    vertex -21939.990717304936 27375.951208205952 6.000000000000003
  endloop
endfacet
facet normal -1.0 0.0 0.0
  outer loop
    vertex -21939.990717304936 27375.951208205952 6.000000000000003
    vertex -21939.990717304936 27378.951208205952 9.999999999999996
    vertex -21939.990717304936 27378.951208205952 6.000000000000003
  endloop
endfacet
facet normal 4.7541661833710854e-30 -3.495826218034635e-17 1.0
  outer loop
    vertex -21957.19071730493 27349.951208205952 6.999999999999997
    vertex -21951.990717304932 27367.951208205952 6.999999999999998
    vertex -21957.19071730493 27375.951208205952 6.999999999999997
  endloop
endfacet
facet normal 4.7541661833710854e-30 -3.495826218034635e-17 1.0
  outer loop
    vertex -21951.990717304932 27367.951208205952 6.999999999999998
    vertex -21957.19071730493 27349.951208205952 6.999999999999997
    vertex -21934.79071730493 27349.951208205952 6.999999999999997
  endloop
endfacet
facet normal 4.7541661833710854e-30 -3.495826218034635e-17 1.0
  outer loop
    vertex -21951.990717304932 27367.951208205952 6.999999999999998
    vertex -21934.79071730493 27349.951208205952 6.999999999999997
    vertex -21939.990717304936 27367.951208205952 6.999999999999998
  endloop
endfacet
facet normal 4.7541661833710854e-30 -3.495826218034635e-17 1.0
  outer loop
    vertex -21939.990717304936 27367.951208205952 6.999999999999998
    vertex -21934.79071730493 27349.951208205952 6.999999999999997
    vertex -21939.990717304936 27375.951208205952 6.999999999999998
  endloop
endfacet
facet normal 4.7541661833710854e-30 -3.495826218034635e-17 1.0
  outer loop
    vertex -21939.990717304936 27375.951208205952 6.999999999999998
    vertex -21934.79071730493 27349.951208205952 6.999999999999997
    vertex -21934.79071730493 27375.951208205952 6.999999999999997
  endloop
endfacet
facet normal 4.7541661833710854e-30 -3.495826218034635e-17 1.0
  outer loop
    vertex -21951.990717304932 27375.951208205952 6.999999999999998
    vertex -21957.19071730493 27375.951208205952 6.999999999999997
    vertex -21951.990717304932 27367.951208205952 6.999999999999998
  endloop
endfacet
facet normal 0.0 1.0 0.0
  outer loop
    vertex -21960.19071730493 27378.951208205952 9.999999999999996
    vertex -21955.19071730493 27378.951208205952 1.4099832412739487e-15
    vertex -21960.19071730493 27378.951208205952 1.4099832412739487e-15
  endloop
endfacet
facet normal 0.0 1.0 0.0
  outer loop
    vertex -21955.19071730493 27378.951208205952 1.4099832412739487e-15
    vertex -21960.19071730493 27378.951208205952 9.999999999999996
    vertex -21955.19071730493 27378.951208205952 6.000000000000003
  endloop
endfacet
facet normal 0.0 1.0 0.0
  outer loop
    vertex -21955.19071730493 27378.951208205952 6.000000000000003
    vertex -21960.19071730493 27378.951208205952 9.999999999999996
    vertex -21951.990717304932 27378.951208205952 6.000000000000003
  endloop
endfacet
facet normal 0.0 1.0 0.0
  outer loop
    vertex -21951.990717304932 27378.951208205952 6.000000000000003
    vertex -21960.19071730493 27378.951208205952 9.999999999999996
    vertex -21951.990717304932 27378.951208205952 9.999999999999996
  endloop
endfacet
facet normal 0.0 -1.0 0.0
  outer loop
    vertex -21955.19071730493 27375.951208205952 6.000000000000003
    vertex -21957.19071730493 27375.951208205952 6.999999999999997
    vertex -21957.19071730493 27375.951208205952 6.000000000000002
  endloop
endfacet
facet normal 0.0 -1.0 0.0
  outer loop
    vertex -21957.19071730493 27375.951208205952 6.999999999999997
    vertex -21955.19071730493 27375.951208205952 6.000000000000003
    vertex -21951.990717304932 27375.951208205952 6.000000000000003
  endloop
endfacet
facet normal 0.0 -1.0 0.0
  outer loop
    vertex -21957.19071730493 27375.951208205952 6.999999999999997
    vertex -21951.990717304932 27375.951208205952 6.000000000000003
    vertex -21951.990717304932 27375.951208205952 6.999999999999998
  endloop
endfacet
facet normal -2.1493646970636777e-17 3.0299414231728562e-18 -1.0
  outer loop
    vertex -21931.79071730493 27378.951208205952 1.4099832412739487e-15
    vertex -21936.79071730493 27375.951208205952 1.4099832412739487e-15
    vertex -21936.79071730493 27378.951208205952 1.4099832412739487e-15
  endloop
endfacet
facet normal -2.1493646970636777e-17 3.0299414231728562e-18 -1.0
  outer loop
    vertex -21936.79071730493 27375.951208205952 1.4099832412739487e-15
    vertex -21931.79071730493 27378.951208205952 1.4099832412739487e-15
    vertex -21934.79071730493 27375.951208205952 1.4099832412739487e-15
  endloop
endfacet
facet normal -2.1493646970636777e-17 3.0299414231728562e-18 -1.0
  outer loop
    vertex -21934.79071730493 27375.951208205952 1.4099832412739487e-15
    vertex -21931.79071730493 27378.951208205952 1.4099832412739487e-15
    vertex -21934.79071730493 27349.951208205952 1.4099832412739487e-15
  endloop
endfacet
facet normal -2.1493646970636777e-17 3.0299414231728562e-18 -1.0
  outer loop
    vertex -21934.79071730493 27349.951208205952 1.4099832412739487e-15
    vertex -21936.79071730493 27346.951208205952 1.4099832412739487e-15
    vertex -21936.79071730493 27349.951208205952 1.4099832412739487e-15
  endloop
endfacet
facet normal -2.1493646970636777e-17 3.0299414231728562e-18 -1.0
  outer loop
    vertex -21936.79071730493 27346.951208205952 1.4099832412739487e-15
    vertex -21934.79071730493 27349.951208205952 1.4099832412739487e-15
    vertex -21931.79071730493 27346.951208205952 1.4099832412739487e-15
  endloop
endfacet
facet normal -2.1493646970636777e-17 3.0299414231728562e-18 -1.0
  outer loop
    vertex -21931.79071730493 27346.951208205952 1.4099832412739487e-15
    vertex -21934.79071730493 27349.951208205952 1.4099832412739487e-15
    vertex -21931.79071730493 27378.951208205952 1.4099832412739487e-15
  endloop
endfacet
facet normal 2.1493646970644348e-17 3.029941423173924e-18 -1.0
  outer loop
    vertex -21960.19071730493 27378.951208205952 1.4099832412739487e-15
    vertex -21957.19071730493 27375.951208205952 1.4099832412739487e-15
    vertex -21960.19071730493 27346.951208205952 1.4099832412739487e-15
  endloop
endfacet
facet normal 2.1493646970644348e-17 3.029941423173924e-18 -1.0
  outer loop
    vertex -21957.19071730493 27375.951208205952 1.4099832412739487e-15
    vertex -21960.19071730493 27378.951208205952 1.4099832412739487e-15
    vertex -21955.19071730493 27378.951208205952 1.4099832412739487e-15
  endloop
endfacet
facet normal 2.1493646970644348e-17 3.029941423173924e-18 -1.0
  outer loop
    vertex -21957.19071730493 27375.951208205952 1.4099832412739487e-15
    vertex -21955.19071730493 27378.951208205952 1.4099832412739487e-15
    vertex -21955.19071730493 27375.951208205952 1.4099832412739487e-15
  endloop
endfacet
facet normal 2.1493646970644348e-17 3.029941423173924e-18 -1.0
  outer loop
    vertex -21960.19071730493 27346.951208205952 1.4099832412739487e-15
    vertex -21957.19071730493 27349.951208205952 1.4099832412739487e-15
    vertex -21955.19071730493 27346.951208205952 1.4099832412739487e-15
  endloop
endfacet
facet normal 2.1493646970644348e-17 3.029941423173924e-18 -1.0
  outer loop
    vertex -21957.19071730493 27349.951208205952 1.4099832412739487e-15
    vertex -21960.19071730493 27346.951208205952 1.4099832412739487e-15
    vertex -21957.19071730493 27375.951208205952 1.4099832412739487e-15
  endloop
endfacet
facet normal 2.1493646970644348e-17 3.029941423173924e-18 -1.0
  outer loop
    vertex -21955.19071730493 27346.951208205952 1.4099832412739487e-15
    vertex -21957.19071730493 27349.951208205952 1.4099832412739487e-15
    vertex -21955.19071730493 27349.951208205952 1.4099832412739487e-15
  endloop
endfacet
facet normal 0.0 0.0 -1.0
  outer loop
    vertex -21936.79071730493 27349.951208205952 6.000000000000002
    vertex -21955.19071730493 27346.951208205952 6.000000000000002
    vertex -21955.19071730493 27349.951208205952 6.000000000000002
  endloop
endfacet
facet normal 0.0 0.0 -1.0
  outer loop
    vertex -21955.19071730493 27346.951208205952 6.000000000000002
    vertex -21936.79071730493 27349.951208205952 6.000000000000002
    vertex -21936.79071730493 27346.951208205952 6.000000000000002
  endloop
endfacet
facet normal -2.463502614326418e-16 4.298729394127356e-17 -1.0
  outer loop
    vertex -21936.79071730493 27378.951208205952 6.000000000000002
    vertex -21939.990717304936 27375.951208205952 6.000000000000003
    vertex -21939.990717304936 27378.951208205952 6.000000000000003
  endloop
endfacet
facet normal -2.463502614326418e-16 4.298729394127356e-17 -1.0
  outer loop
    vertex -21939.990717304936 27375.951208205952 6.000000000000003
    vertex -21936.79071730493 27378.951208205952 6.000000000000002
    vertex -21936.79071730493 27375.951208205952 6.000000000000002
  endloop
endfacet
facet normal 2.463502614327699e-16 4.298729394128868e-17 -1.0
  outer loop
    vertex -21951.990717304932 27378.951208205952 6.000000000000003
    vertex -21955.19071730493 27375.951208205952 6.000000000000003
    vertex -21955.19071730493 27378.951208205952 6.000000000000003
  endloop
endfacet
facet normal 2.463502614327699e-16 4.298729394128868e-17 -1.0
  outer loop
    vertex -21955.19071730493 27375.951208205952 6.000000000000003
    vertex -21951.990717304932 27378.951208205952 6.000000000000003
    vertex -21951.990717304932 27375.951208205952 6.000000000000003
  endloop
endfacet
facet normal -1.0 -2.117986220142912e-32 2.463502614326418e-16
  outer loop
    vertex -21936.79071730493 27378.951208205952 6.000000000000002
    vertex -21936.79071730493 27375.951208205952 1.4099832412739487e-15
    vertex -21936.79071730493 27375.951208205952 6.000000000000002
  endloop
endfacet
facet normal -1.0 -2.117986220142912e-32 2.463502614326418e-16
  outer loop
    vertex -21936.79071730493 27375.951208205952 1.4099832412739487e-15
    vertex -21936.79071730493 27378.951208205952 6.000000000000002
    vertex -21936.79071730493 27378.951208205952 1.4099832412739487e-15
  endloop
endfacet
facet normal 2.1179862201429122e-32 -1.0 0.0
  outer loop
    vertex -21934.79071730493 27375.951208205952 6.000000000000002
    vertex -21936.79071730493 27375.951208205952 1.4099832412739487e-15
    vertex -21934.79071730493 27375.951208205952 1.4099832412739487e-15
  endloop
endfacet
facet normal 2.1179862201429122e-32 -1.0 0.0
  outer loop
    vertex -21936.79071730493 27375.951208205952 1.4099832412739487e-15
    vertex -21934.79071730493 27375.951208205952 6.000000000000002
    vertex -21936.79071730493 27375.951208205952 6.000000000000002
  endloop
endfacet
facet normal 1.0 -2.1179862201447588e-32 2.4635026143276995e-16
  outer loop
    vertex -21955.19071730493 27378.951208205952 1.4099832412739487e-15
    vertex -21955.19071730493 27375.951208205952 6.000000000000003
    vertex -21955.19071730493 27375.951208205952 1.4099832412739487e-15
  endloop
endfacet
facet normal 1.0 -2.1179862201447588e-32 2.4635026143276995e-16
  outer loop
    vertex -21955.19071730493 27375.951208205952 6.000000000000003
    vertex -21955.19071730493 27378.951208205952 1.4099832412739487e-15
    vertex -21955.19071730493 27378.951208205952 6.000000000000003
  endloop
endfacet
facet normal -2.1179862201447594e-32 -1.0 -0.0
  outer loop
    vertex -21955.19071730493 27375.951208205952 6.000000000000003
    vertex -21957.19071730493 27375.951208205952 1.4099832412739487e-15
    vertex -21955.19071730493 27375.951208205952 1.4099832412739487e-15
  endloop
endfacet
facet normal -2.1179862201447594e-32 -1.0 -0.0
  outer loop
    vertex -21957.19071730493 27375.951208205952 1.4099832412739487e-15
    vertex -21955.19071730493 27375.951208205952 6.000000000000003
    vertex -21957.19071730493 27375.951208205952 6.000000000000002
  endloop
endfacet
facet normal 1.0 0.0 0.0
  outer loop
    vertex -21955.19071730493 27349.951208205952 1.4099832412739487e-15
    vertex -21955.19071730493 27346.951208205952 6.000000000000002
    vertex -21955.19071730493 27346.951208205952 1.4099832412739487e-15
  endloop
endfacet
facet normal 1.0 0.0 0.0
  outer loop
    vertex -21955.19071730493 27346.951208205952 6.000000000000002
    vertex -21955.19071730493 27349.951208205952 1.4099832412739487e-15
    vertex -21955.19071730493 27349.951208205952 6.000000000000002
  endloop
endfacet
facet normal 0.0 1.0 0.0
  outer loop
    vertex -21957.19071730493 27349.951208205952 6.000000000000002
    vertex -21955.19071730493 27349.951208205952 1.4099832412739487e-15
    vertex -21957.19071730493 27349.951208205952 1.4099832412739487e-15
  endloop
endfacet
facet normal 0.0 1.0 0.0
  outer loop
    vertex -21955.19071730493 27349.951208205952 1.4099832412739487e-15
    vertex -21957.19071730493 27349.951208205952 6.000000000000002
    vertex -21955.19071730493 27349.951208205952 6.000000000000002
  endloop
endfacet
facet normal -1.0 -0.0 -0.0
  outer loop
    vertex -21936.79071730493 27349.951208205952 6.000000000000002
    vertex -21936.79071730493 27346.951208205952 1.4099832412739487e-15
    vertex -21936.79071730493 27346.951208205952 6.000000000000002
  endloop
endfacet
facet normal -1.0 -0.0 -0.0
  outer loop
    vertex -21936.79071730493 27346.951208205952 1.4099832412739487e-15
    vertex -21936.79071730493 27349.951208205952 6.000000000000002
    vertex -21936.79071730493 27349.951208205952 1.4099832412739487e-15
  endloop
endfacet
facet normal 0.0 1.0 0.0
  outer loop
    vertex -21936.79071730493 27349.951208205952 6.000000000000002
    vertex -21934.79071730493 27349.951208205952 1.4099832412739487e-15
    vertex -21936.79071730493 27349.951208205952 1.4099832412739487e-15
  endloop
endfacet
facet normal 0.0 1.0 0.0
  outer loop
    vertex -21934.79071730493 27349.951208205952 1.4099832412739487e-15
    vertex -21936.79071730493 27349.951208205952 6.000000000000002
    vertex -21934.79071730493 27349.951208205952 6.000000000000002
  endloop
endfacet
endsolid [0010]
