solid Main
facet normal 1.0 2.780238702451214e-58 -7.145379874400676e-30
  outer loop
    vertex -22168.007241389594 27371.7936740472 5.339634527581913
    vertex -22168.007241389598 27372.965406857435 9.094699214082032
    vertex -22168.007241389598 27372.880221423155 9.741746826838334
  endloop
endfacet
facet normal 1.0 2.780238702451214e-58 -7.145379874400676e-30
  outer loop
    vertex -22168.007241389598 27372.965406857435 9.094699214082032
    vertex -22168.007241389594 27371.7936740472 5.339634527581913
    vertex -22168.007241389594 27373.56220108618 4.892243019016071
  endloop
endfacet
facet normal 1.0 2.780238702451214e-58 -7.145379874400676e-30
  outer loop
    vertex -22168.007241389598 27372.965406857435 9.094699214082032
    vertex -22168.007241389594 27373.56220108618 4.892243019016071
    vertex -22168.007241389598 27373.215157913695 8.491746826838334
  endloop
endfacet
facet normal 1.0 2.780238702451214e-58 -7.145379874400676e-30
  outer loop
    vertex -22168.007241389598 27373.215157913695 8.491746826838334
    vertex -22168.007241389594 27373.56220108618 4.892243019016071
    vertex -22168.007241389598 27373.61245447019 7.973979873871966
  endloop
endfacet
facet normal 1.0 2.780238702451214e-58 -7.145379874400676e-30
  outer loop
    vertex -22168.007241389598 27373.61245447019 7.973979873871966
    vertex -22168.007241389594 27373.56220108618 4.892243019016071
    vertex -22168.007241389594 27375.38022142316 4.741746826838331
  endloop
endfacet
facet normal 1.0 2.780238702451214e-58 -7.145379874400676e-30
  outer loop
    vertex -22168.007241389598 27373.61245447019 7.973979873871966
    vertex -22168.007241389594 27375.38022142316 4.741746826838331
    vertex -22168.007241389598 27374.13022142316 7.576683317377238
  endloop
endfacet
facet normal 1.0 2.780238702451214e-58 -7.145379874400676e-30
  outer loop
    vertex -22168.007241389598 27374.13022142316 7.576683317377238
    vertex -22168.007241389594 27375.38022142316 4.741746826838331
    vertex -22168.007241389598 27374.7331738104 7.326932261115663
  endloop
endfacet
facet normal 1.0 2.780238702451214e-58 -7.145379874400676e-30
  outer loop
    vertex -22168.007241389598 27374.7331738104 7.326932261115663
    vertex -22168.007241389594 27375.38022142316 4.741746826838331
    vertex -22168.007241389598 27375.38022142316 7.241746826838334
  endloop
endfacet
facet normal 1.0 2.780238702451214e-58 -7.145379874400676e-30
  outer loop
    vertex -22168.007241389598 27375.38022142316 7.241746826838334
    vertex -22168.007241389594 27375.38022142316 4.741746826838331
    vertex -22168.007241389594 27377.19824176014 4.892243019016592
  endloop
endfacet
facet normal 1.0 2.780238702451214e-58 -7.145379874400676e-30
  outer loop
    vertex -22168.007241389598 27375.38022142316 7.241746826838334
    vertex -22168.007241389594 27377.19824176014 4.892243019016592
    vertex -22168.007241389598 27376.027269035912 7.326932261115663
  endloop
endfacet
facet normal 1.0 2.780238702451214e-58 -7.145379874400676e-30
  outer loop
    vertex -22168.007241389598 27376.027269035912 7.326932261115663
    vertex -22168.007241389594 27377.19824176014 4.892243019016592
    vertex -22168.007241389598 27376.630221423155 7.5766833173772365
  endloop
endfacet
facet normal 1.0 2.780238702451214e-58 -7.145379874400676e-30
  outer loop
    vertex -22168.007241389598 27376.630221423155 7.5766833173772365
    vertex -22168.007241389594 27377.19824176014 4.892243019016592
    vertex -22168.007241389598 27377.147988376124 7.973979873871964
  endloop
endfacet
facet normal 1.0 2.780238702451214e-58 -7.145379874400676e-30
  outer loop
    vertex -22168.007241389598 27377.147988376124 7.973979873871964
    vertex -22168.007241389594 27377.19824176014 4.892243019016592
    vertex -22168.007241389598 27377.545284932618 8.491746826838332
  endloop
endfacet
facet normal 1.0 2.780238702451214e-58 -7.145379874400676e-30
  outer loop
    vertex -22168.007241389598 27377.545284932618 8.491746826838332
    vertex -22168.007241389594 27377.19824176014 4.892243019016592
    vertex -22168.007241389594 27378.966768799117 5.33963452758294
  endloop
endfacet
facet normal 1.0 2.780238702451214e-58 -7.145379874400676e-30
  outer loop
    vertex -22168.007241389598 27377.545284932618 8.491746826838332
    vertex -22168.007241389594 27378.966768799117 5.33963452758294
    vertex -22168.007241389598 27377.79503598888 9.094699214082029
  endloop
endfacet
facet normal 1.0 2.780238702451214e-58 -7.145379874400676e-30
  outer loop
    vertex -22168.007241389598 27377.79503598888 9.094699214082029
    vertex -22168.007241389594 27378.966768799117 5.33963452758294
    vertex -22168.007241389598 27377.88022142316 9.741746826838334
  endloop
endfacet
facet normal 1.0 2.780238702451214e-58 -7.145379874400676e-30
  outer loop
    vertex -22168.007241389594 27367.251982910417 8.303171762670331
    vertex -22168.007241389594 27366.130221423162 65.74174682683986
    vertex -22168.007241389594 27366.130221423162 9.74174682683701
  endloop
endfacet
facet normal 1.0 2.780238702451214e-58 -7.145379874400676e-30
  outer loop
    vertex -22168.007241389594 27366.130221423162 65.74174682683986
    vertex -22168.007241389594 27367.251982910417 8.303171762670331
    vertex -22168.007241389594 27367.130221423165 15.741746826838336
  endloop
endfacet
facet normal 1.0 2.780238702451214e-58 -7.145379874400676e-30
  outer loop
    vertex -22168.007241389594 27367.130221423165 15.741746826838336
    vertex -22168.007241389594 27367.251982910417 8.303171762670331
    vertex -22168.007241389598 27374.13022142316 11.90681033629943
  endloop
endfacet
facet normal 1.0 2.780238702451214e-58 -7.145379874400676e-30
  outer loop
    vertex -22168.007241389594 27367.130221423165 15.741746826838336
    vertex -22168.007241389598 27374.13022142316 11.90681033629943
    vertex -22168.007241389598 27374.7331738104 12.156561392561004
  endloop
endfacet
facet normal 1.0 2.780238702451214e-58 -7.145379874400676e-30
  outer loop
    vertex -22168.007241389594 27367.130221423165 15.741746826838336
    vertex -22168.007241389598 27374.7331738104 12.156561392561004
    vertex -22168.007241389594 27383.630221423155 15.741746826838336
  endloop
endfacet
facet normal 1.0 2.780238702451214e-58 -7.145379874400676e-30
  outer loop
    vertex -22168.007241389598 27374.13022142316 11.90681033629943
    vertex -22168.007241389594 27367.251982910417 8.303171762670331
    vertex -22168.007241389598 27373.61245447019 11.509513779804701
  endloop
endfacet
facet normal 1.0 2.780238702451214e-58 -7.145379874400676e-30
  outer loop
    vertex -22168.007241389598 27373.61245447019 11.509513779804701
    vertex -22168.007241389594 27367.251982910417 8.303171762670331
    vertex -22168.007241389594 27368.595025382685 7.068633805695956
  endloop
endfacet
facet normal 1.0 2.780238702451214e-58 -7.145379874400676e-30
  outer loop
    vertex -22168.007241389598 27373.61245447019 11.509513779804701
    vertex -22168.007241389594 27368.595025382685 7.068633805695956
    vertex -22168.007241389598 27373.215157913695 10.991746826838334
  endloop
endfacet
facet normal 1.0 2.780238702451214e-58 -7.145379874400676e-30
  outer loop
    vertex -22168.007241389598 27373.215157913695 10.991746826838334
    vertex -22168.007241389594 27368.595025382685 7.068633805695956
    vertex -22168.007241389594 27370.122786211952 6.071741686111537
  endloop
endfacet
facet normal 1.0 2.780238702451214e-58 -7.145379874400676e-30
  outer loop
    vertex -22168.007241389598 27373.215157913695 10.991746826838334
    vertex -22168.007241389594 27370.122786211952 6.071741686111537
    vertex -22168.007241389598 27372.965406857435 10.388794439594635
  endloop
endfacet
facet normal 1.0 2.780238702451214e-58 -7.145379874400676e-30
  outer loop
    vertex -22168.007241389598 27372.965406857435 10.388794439594635
    vertex -22168.007241389594 27370.122786211952 6.071741686111537
    vertex -22168.007241389594 27371.7936740472 5.339634527581913
  endloop
endfacet
facet normal 1.0 2.780238702451214e-58 -7.145379874400676e-30
  outer loop
    vertex -22168.007241389598 27372.965406857435 10.388794439594635
    vertex -22168.007241389594 27371.7936740472 5.339634527581913
    vertex -22168.007241389598 27372.880221423155 9.741746826838334
  endloop
endfacet
facet normal 1.0 2.780238702451214e-58 -7.145379874400676e-30
  outer loop
    vertex -22168.007241389594 27383.630221423155 15.741746826838336
    vertex -22168.007241389598 27374.7331738104 12.156561392561004
    vertex -22168.007241389598 27375.38022142316 12.241746826838332
  endloop
endfacet
facet normal 1.0 2.780238702451214e-58 -7.145379874400676e-30
  outer loop
    vertex -22168.007241389594 27383.630221423155 15.741746826838336
    vertex -22168.007241389598 27375.38022142316 12.241746826838332
    vertex -22168.007241389598 27376.027269035912 12.156561392561002
  endloop
endfacet
facet normal 1.0 2.780238702451214e-58 -7.145379874400676e-30
  outer loop
    vertex -22168.007241389594 27383.630221423155 15.741746826838336
    vertex -22168.007241389598 27376.027269035912 12.156561392561002
    vertex -22168.007241389598 27376.630221423155 11.906810336299428
  endloop
endfacet
facet normal 1.0 2.780238702451214e-58 -7.145379874400676e-30
  outer loop
    vertex -22168.007241389594 27383.630221423155 15.741746826838336
    vertex -22168.007241389598 27376.630221423155 11.906810336299428
    vertex -22168.007241389598 27377.147988376124 11.509513779804701
  endloop
endfacet
facet normal 1.0 2.780238702451214e-58 -7.145379874400676e-30
  outer loop
    vertex -22168.007241389594 27383.630221423155 15.741746826838336
    vertex -22168.007241389598 27377.147988376124 11.509513779804701
    vertex -22168.007241389598 27377.545284932618 10.99174682683833
  endloop
endfacet
facet normal 1.0 2.780238702451214e-58 -7.145379874400676e-30
  outer loop
    vertex -22168.007241389594 27383.630221423155 15.741746826838336
    vertex -22168.007241389598 27377.545284932618 10.99174682683833
    vertex -22168.007241389598 27377.79503598888 10.388794439594633
  endloop
endfacet
facet normal 1.0 2.780238702451214e-58 -7.145379874400676e-30
  outer loop
    vertex -22168.007241389594 27383.630221423155 15.741746826838336
    vertex -22168.007241389598 27377.79503598888 10.388794439594633
    vertex -22168.007241389598 27377.88022142316 9.741746826838334
  endloop
endfacet
facet normal 1.0 2.780238702451214e-58 -7.145379874400676e-30
  outer loop
    vertex -22168.007241389594 27383.630221423155 15.741746826838336
    vertex -22168.007241389598 27377.88022142316 9.741746826838334
    vertex -22168.007241389594 27378.966768799117 5.33963452758294
  endloop
endfacet
facet normal 1.0 2.780238702451214e-58 -7.145379874400676e-30
  outer loop
    vertex -22168.007241389594 27383.630221423155 15.741746826838336
    vertex -22168.007241389594 27378.966768799117 5.33963452758294
    vertex -22168.007241389594 27380.63765663436 6.071741686113041
  endloop
endfacet
facet normal 1.0 2.780238702451214e-58 -7.145379874400676e-30
  outer loop
    vertex -22168.007241389594 27383.630221423155 15.741746826838336
    vertex -22168.007241389594 27380.63765663436 6.071741686113041
    vertex -22168.007241389594 27382.165417463628 7.068633805697901
  endloop
endfacet
facet normal 1.0 2.780238702451214e-58 -7.145379874400676e-30
  outer loop
    vertex -22168.007241389594 27383.630221423155 15.741746826838336
    vertex -22168.007241389594 27382.165417463628 7.068633805697901
    vertex -22168.007241389594 27383.508459935903 8.303171762672658
  endloop
endfacet
facet normal 1.0 2.780238702451214e-58 -7.145379874400676e-30
  outer loop
    vertex -22168.007241389594 27383.630221423155 15.741746826838336
    vertex -22168.007241389594 27383.508459935903 8.303171762672658
    vertex -22168.007241389594 27384.63022142316 9.741746826839657
  endloop
endfacet
facet normal 1.0 2.780238702451214e-58 -7.145379874400676e-30
  outer loop
    vertex -22168.007241389594 27383.630221423155 15.741746826838336
    vertex -22168.007241389594 27384.63022142316 9.741746826839657
    vertex -22168.007241389594 27383.630221423155 59.74174682683853
  endloop
endfacet
facet normal 1.0 2.780238702451214e-58 -7.145379874400676e-30
  outer loop
    vertex -22168.007241389594 27366.130221423162 65.74174682683986
    vertex -22168.007241389594 27367.130221423165 59.74174682683853
    vertex -22168.007241389594 27367.251982910417 67.18032189100654
  endloop
endfacet
facet normal 1.0 2.780238702451214e-58 -7.145379874400676e-30
  outer loop
    vertex -22168.007241389594 27367.130221423165 59.74174682683853
    vertex -22168.007241389594 27366.130221423162 65.74174682683986
    vertex -22168.007241389594 27367.130221423165 15.741746826838336
  endloop
endfacet
facet normal 1.0 2.780238702451214e-58 -7.145379874400676e-30
  outer loop
    vertex -22168.007241389594 27367.251982910417 67.18032189100654
    vertex -22168.007241389594 27367.130221423165 59.74174682683853
    vertex -22168.007241389598 27374.13022142316 63.57668331737743
  endloop
endfacet
facet normal 1.0 2.780238702451214e-58 -7.145379874400676e-30
  outer loop
    vertex -22168.007241389598 27374.13022142316 63.57668331737743
    vertex -22168.007241389594 27367.130221423165 59.74174682683853
    vertex -22168.007241389598 27374.7331738104 63.326932261115864
  endloop
endfacet
facet normal 1.0 2.780238702451214e-58 -7.145379874400676e-30
  outer loop
    vertex -22168.007241389598 27374.7331738104 63.326932261115864
    vertex -22168.007241389594 27367.130221423165 59.74174682683853
    vertex -22168.007241389594 27383.630221423155 59.74174682683853
  endloop
endfacet
facet normal 1.0 2.780238702451214e-58 -7.145379874400676e-30
  outer loop
    vertex -22168.007241389594 27367.251982910417 67.18032189100654
    vertex -22168.007241389598 27374.13022142316 63.57668331737743
    vertex -22168.007241389598 27373.61245447019 63.97397987387217
  endloop
endfacet
facet normal 1.0 2.780238702451214e-58 -7.145379874400676e-30
  outer loop
    vertex -22168.007241389594 27367.251982910417 67.18032189100654
    vertex -22168.007241389598 27373.61245447019 63.97397987387217
    vertex -22168.007241389594 27368.595025382685 68.4148598479809
  endloop
endfacet
facet normal 1.0 2.780238702451214e-58 -7.145379874400676e-30
  outer loop
    vertex -22168.007241389594 27368.595025382685 68.4148598479809
    vertex -22168.007241389598 27373.61245447019 63.97397987387217
    vertex -22168.007241389598 27373.215157913695 64.49174682683852
  endloop
endfacet
facet normal 1.0 2.780238702451214e-58 -7.145379874400676e-30
  outer loop
    vertex -22168.007241389594 27368.595025382685 68.4148598479809
    vertex -22168.007241389598 27373.215157913695 64.49174682683852
    vertex -22168.007241389594 27370.122786211952 69.41175196756532
  endloop
endfacet
facet normal 1.0 2.780238702451214e-58 -7.145379874400676e-30
  outer loop
    vertex -22168.007241389594 27370.122786211952 69.41175196756532
    vertex -22168.007241389598 27373.215157913695 64.49174682683852
    vertex -22168.007241389598 27372.965406857435 65.09469921408223
  endloop
endfacet
facet normal 1.0 2.780238702451214e-58 -7.145379874400676e-30
  outer loop
    vertex -22168.007241389594 27370.122786211952 69.41175196756532
    vertex -22168.007241389598 27372.965406857435 65.09469921408223
    vertex -22168.007241389594 27371.7936740472 70.14385912609495
  endloop
endfacet
facet normal 1.0 2.780238702451214e-58 -7.145379874400676e-30
  outer loop
    vertex -22168.007241389594 27371.7936740472 70.14385912609495
    vertex -22168.007241389598 27372.965406857435 65.09469921408223
    vertex -22168.007241389598 27372.880221423155 65.74174682683852
  endloop
endfacet
facet normal 1.0 2.780238702451214e-58 -7.145379874400676e-30
  outer loop
    vertex -22168.007241389598 27374.7331738104 63.326932261115864
    vertex -22168.007241389594 27383.630221423155 59.74174682683853
    vertex -22168.007241389598 27375.38022142316 63.24174682683853
  endloop
endfacet
facet normal 1.0 2.780238702451214e-58 -7.145379874400676e-30
  outer loop
    vertex -22168.007241389598 27375.38022142316 63.24174682683853
    vertex -22168.007241389594 27383.630221423155 59.74174682683853
    vertex -22168.007241389598 27376.027269035912 63.326932261115864
  endloop
endfacet
facet normal 1.0 2.780238702451214e-58 -7.145379874400676e-30
  outer loop
    vertex -22168.007241389598 27376.027269035912 63.326932261115864
    vertex -22168.007241389594 27383.630221423155 59.74174682683853
    vertex -22168.007241389598 27376.630221423155 63.57668331737743
  endloop
endfacet
facet normal 1.0 2.780238702451214e-58 -7.145379874400676e-30
  outer loop
    vertex -22168.007241389598 27376.630221423155 63.57668331737743
    vertex -22168.007241389594 27383.630221423155 59.74174682683853
    vertex -22168.007241389598 27377.147988376124 63.97397987387217
  endloop
endfacet
facet normal 1.0 2.780238702451214e-58 -7.145379874400676e-30
  outer loop
    vertex -22168.007241389598 27377.147988376124 63.97397987387217
    vertex -22168.007241389594 27383.630221423155 59.74174682683853
    vertex -22168.007241389598 27377.545284932618 64.49174682683852
  endloop
endfacet
facet normal 1.0 2.780238702451214e-58 -7.145379874400676e-30
  outer loop
    vertex -22168.007241389598 27377.545284932618 64.49174682683852
    vertex -22168.007241389594 27383.630221423155 59.74174682683853
    vertex -22168.007241389598 27377.79503598888 65.09469921408223
  endloop
endfacet
facet normal 1.0 2.780238702451214e-58 -7.145379874400676e-30
  outer loop
    vertex -22168.007241389598 27377.79503598888 65.09469921408223
    vertex -22168.007241389594 27383.630221423155 59.74174682683853
    vertex -22168.007241389598 27377.88022142316 65.74174682683852
  endloop
endfacet
facet normal 1.0 2.780238702451214e-58 -7.145379874400676e-30
  outer loop
    vertex -22168.007241389598 27377.88022142316 65.74174682683852
    vertex -22168.007241389594 27383.630221423155 59.74174682683853
    vertex -22168.007241389594 27378.966768799117 70.14385912609391
  endloop
endfacet
facet normal 1.0 2.780238702451214e-58 -7.145379874400676e-30
  outer loop
    vertex -22168.007241389594 27378.966768799117 70.14385912609391
    vertex -22168.007241389594 27383.630221423155 59.74174682683853
    vertex -22168.007241389594 27380.63765663436 69.41175196756382
  endloop
endfacet
facet normal 1.0 2.780238702451214e-58 -7.145379874400676e-30
  outer loop
    vertex -22168.007241389594 27380.63765663436 69.41175196756382
    vertex -22168.007241389594 27383.630221423155 59.74174682683853
    vertex -22168.007241389594 27382.165417463628 68.41485984797896
  endloop
endfacet
facet normal 1.0 2.780238702451214e-58 -7.145379874400676e-30
  outer loop
    vertex -22168.007241389594 27382.165417463628 68.41485984797896
    vertex -22168.007241389594 27383.630221423155 59.74174682683853
    vertex -22168.007241389594 27383.508459935903 67.1803218910042
  endloop
endfacet
facet normal 1.0 2.780238702451214e-58 -7.145379874400676e-30
  outer loop
    vertex -22168.007241389594 27383.508459935903 67.1803218910042
    vertex -22168.007241389594 27383.630221423155 59.74174682683853
    vertex -22168.007241389594 27384.63022142316 65.7417468268372
  endloop
endfacet
facet normal 1.0 2.780238702451214e-58 -7.145379874400676e-30
  outer loop
    vertex -22168.007241389594 27384.63022142316 65.7417468268372
    vertex -22168.007241389594 27383.630221423155 59.74174682683853
    vertex -22168.007241389594 27384.63022142316 9.741746826839657
  endloop
endfacet
facet normal 1.0 2.780238702451214e-58 -7.145379874400676e-30
  outer loop
    vertex -22168.007241389594 27371.7936740472 70.14385912609495
    vertex -22168.007241389598 27372.965406857435 66.38879443959483
    vertex -22168.007241389594 27373.56220108618 70.59125063466078
  endloop
endfacet
facet normal 1.0 2.780238702451214e-58 -7.145379874400676e-30
  outer loop
    vertex -22168.007241389598 27372.965406857435 66.38879443959483
    vertex -22168.007241389594 27371.7936740472 70.14385912609495
    vertex -22168.007241389598 27372.880221423155 65.74174682683852
  endloop
endfacet
facet normal 1.0 2.780238702451214e-58 -7.145379874400676e-30
  outer loop
    vertex -22168.007241389594 27373.56220108618 70.59125063466078
    vertex -22168.007241389598 27372.965406857435 66.38879443959483
    vertex -22168.007241389598 27373.215157913695 66.99174682683852
  endloop
endfacet
facet normal 1.0 2.780238702451214e-58 -7.145379874400676e-30
  outer loop
    vertex -22168.007241389594 27373.56220108618 70.59125063466078
    vertex -22168.007241389598 27373.215157913695 66.99174682683852
    vertex -22168.007241389598 27373.61245447019 67.50951377980489
  endloop
endfacet
facet normal 1.0 2.780238702451214e-58 -7.145379874400676e-30
  outer loop
    vertex -22168.007241389594 27373.56220108618 70.59125063466078
    vertex -22168.007241389598 27373.61245447019 67.50951377980489
    vertex -22168.007241389594 27375.38022142316 70.74174682683852
  endloop
endfacet
facet normal 1.0 2.780238702451214e-58 -7.145379874400676e-30
  outer loop
    vertex -22168.007241389594 27375.38022142316 70.74174682683852
    vertex -22168.007241389598 27373.61245447019 67.50951377980489
    vertex -22168.007241389598 27374.13022142316 67.90681033629963
  endloop
endfacet
facet normal 1.0 2.780238702451214e-58 -7.145379874400676e-30
  outer loop
    vertex -22168.007241389594 27375.38022142316 70.74174682683852
    vertex -22168.007241389598 27374.13022142316 67.90681033629963
    vertex -22168.007241389598 27374.7331738104 68.15656139256119
  endloop
endfacet
facet normal 1.0 2.780238702451214e-58 -7.145379874400676e-30
  outer loop
    vertex -22168.007241389594 27375.38022142316 70.74174682683852
    vertex -22168.007241389598 27374.7331738104 68.15656139256119
    vertex -22168.007241389598 27375.38022142316 68.24174682683852
  endloop
endfacet
facet normal 1.0 2.780238702451214e-58 -7.145379874400676e-30
  outer loop
    vertex -22168.007241389594 27375.38022142316 70.74174682683852
    vertex -22168.007241389598 27375.38022142316 68.24174682683852
    vertex -22168.007241389598 27376.027269035912 68.15656139256119
  endloop
endfacet
facet normal 1.0 2.780238702451214e-58 -7.145379874400676e-30
  outer loop
    vertex -22168.007241389594 27375.38022142316 70.74174682683852
    vertex -22168.007241389598 27376.027269035912 68.15656139256119
    vertex -22168.007241389594 27377.19824176014 70.59125063466026
  endloop
endfacet
facet normal 1.0 2.780238702451214e-58 -7.145379874400676e-30
  outer loop
    vertex -22168.007241389594 27377.19824176014 70.59125063466026
    vertex -22168.007241389598 27376.027269035912 68.15656139256119
    vertex -22168.007241389598 27376.630221423155 67.90681033629963
  endloop
endfacet
facet normal 1.0 2.780238702451214e-58 -7.145379874400676e-30
  outer loop
    vertex -22168.007241389594 27377.19824176014 70.59125063466026
    vertex -22168.007241389598 27376.630221423155 67.90681033629963
    vertex -22168.007241389598 27377.147988376124 67.50951377980489
  endloop
endfacet
facet normal 1.0 2.780238702451214e-58 -7.145379874400676e-30
  outer loop
    vertex -22168.007241389594 27377.19824176014 70.59125063466026
    vertex -22168.007241389598 27377.147988376124 67.50951377980489
    vertex -22168.007241389598 27377.545284932618 66.99174682683852
  endloop
endfacet
facet normal 1.0 2.780238702451214e-58 -7.145379874400676e-30
  outer loop
    vertex -22168.007241389594 27377.19824176014 70.59125063466026
    vertex -22168.007241389598 27377.545284932618 66.99174682683852
    vertex -22168.007241389594 27378.966768799117 70.14385912609391
  endloop
endfacet
facet normal 1.0 2.780238702451214e-58 -7.145379874400676e-30
  outer loop
    vertex -22168.007241389594 27378.966768799117 70.14385912609391
    vertex -22168.007241389598 27377.545284932618 66.99174682683852
    vertex -22168.007241389598 27377.79503598888 66.38879443959483
  endloop
endfacet
facet normal 1.0 2.780238702451214e-58 -7.145379874400676e-30
  outer loop
    vertex -22168.007241389594 27378.966768799117 70.14385912609391
    vertex -22168.007241389598 27377.79503598888 66.38879443959483
    vertex -22168.007241389598 27377.88022142316 65.74174682683852
  endloop
endfacet
facet normal 0.0 1.0 0.0
  outer loop
    vertex -22171.007241389594 27384.63022142316 65.7417468268372
    vertex -22168.007241389594 27384.63022142316 9.741746826839657
    vertex -22171.007241389594 27384.63022142316 9.741746826839657
  endloop
endfacet
facet normal 0.0 1.0 0.0
  outer loop
    vertex -22168.007241389594 27384.63022142316 9.741746826839657
    vertex -22171.007241389594 27384.63022142316 65.7417468268372
    vertex -22168.007241389594 27384.63022142316 65.7417468268372
  endloop
endfacet
facet normal 0.0 -1.0 0.0
  outer loop
    vertex -22168.007241389594 27366.130221423162 65.74174682683986
    vertex -22171.007241389594 27366.130221423162 9.74174682683701
    vertex -22168.007241389594 27366.130221423162 9.74174682683701
  endloop
endfacet
facet normal 0.0 -1.0 0.0
  outer loop
    vertex -22171.007241389594 27366.130221423162 9.74174682683701
    vertex -22168.007241389594 27366.130221423162 65.74174682683986
    vertex -22171.007241389594 27366.130221423162 65.74174682683986
  endloop
endfacet
facet normal 0.0 -0.1305261922202062 0.9914448613737901
  outer loop
    vertex -22168.007241389598 27375.38022142316 7.241746826838334
    vertex -22171.007241389594 27376.027269035912 7.326932261115663
    vertex -22171.007241389594 27375.38022142316 7.241746826838334
  endloop
endfacet
facet normal 0.0 -0.1305261922202062 0.9914448613737901
  outer loop
    vertex -22171.007241389594 27376.027269035912 7.326932261115663
    vertex -22168.007241389598 27375.38022142316 7.241746826838334
    vertex -22168.007241389598 27376.027269035912 7.326932261115663
  endloop
endfacet
facet normal 0.0 0.1305261922202062 0.9914448613737901
  outer loop
    vertex -22168.007241389598 27374.7331738104 7.326932261115663
    vertex -22171.007241389594 27375.38022142316 7.241746826838334
    vertex -22171.007241389594 27374.7331738104 7.326932261115663
  endloop
endfacet
facet normal 0.0 0.1305261922202062 0.9914448613737901
  outer loop
    vertex -22171.007241389594 27375.38022142316 7.241746826838334
    vertex -22168.007241389598 27374.7331738104 7.326932261115663
    vertex -22168.007241389598 27375.38022142316 7.241746826838334
  endloop
endfacet
facet normal 0.0 0.38268343236560537 0.9238795325110732
  outer loop
    vertex -22168.007241389598 27374.13022142316 7.576683317377238
    vertex -22171.007241389594 27374.7331738104 7.326932261115663
    vertex -22171.007241389594 27374.13022142316 7.576683317377238
  endloop
endfacet
facet normal 0.0 0.38268343236560537 0.9238795325110732
  outer loop
    vertex -22171.007241389594 27374.7331738104 7.326932261115663
    vertex -22168.007241389598 27374.13022142316 7.576683317377238
    vertex -22168.007241389598 27374.7331738104 7.326932261115663
  endloop
endfacet
facet normal 0.0 0.608761429007288 0.7933533402923344
  outer loop
    vertex -22168.007241389598 27373.61245447019 7.973979873871966
    vertex -22171.007241389594 27374.13022142316 7.576683317377238
    vertex -22171.007241389594 27373.61245447019 7.973979873871966
  endloop
endfacet
facet normal 0.0 0.608761429007288 0.7933533402923344
  outer loop
    vertex -22171.007241389594 27374.13022142316 7.576683317377238
    vertex -22168.007241389598 27373.61245447019 7.973979873871966
    vertex -22168.007241389598 27374.13022142316 7.576683317377238
  endloop
endfacet
facet normal 0.0 0.7933533402913479 0.6087614290085738
  outer loop
    vertex -22171.007241389594 27373.215157913695 8.491746826838334
    vertex -22168.007241389598 27373.61245447019 7.973979873871966
    vertex -22171.007241389594 27373.61245447019 7.973979873871966
  endloop
endfacet
facet normal 0.0 0.7933533402913479 0.6087614290085738
  outer loop
    vertex -22168.007241389598 27373.61245447019 7.973979873871966
    vertex -22171.007241389594 27373.215157913695 8.491746826838334
    vertex -22168.007241389598 27373.215157913695 8.491746826838334
  endloop
endfacet
facet normal 0.0 0.923879532511626 0.38268343236427066
  outer loop
    vertex -22171.007241389594 27372.965406857435 9.094699214082032
    vertex -22168.007241389598 27373.215157913695 8.491746826838334
    vertex -22171.007241389594 27373.215157913695 8.491746826838334
  endloop
endfacet
facet normal 0.0 0.923879532511626 0.38268343236427066
  outer loop
    vertex -22168.007241389598 27373.215157913695 8.491746826838334
    vertex -22171.007241389594 27372.965406857435 9.094699214082032
    vertex -22168.007241389598 27372.965406857435 9.094699214082032
  endloop
endfacet
facet normal 0.0 0.9914448613732374 0.13052619222440537
  outer loop
    vertex -22171.007241389594 27372.880221423155 9.741746826838334
    vertex -22168.007241389598 27372.965406857435 9.094699214082032
    vertex -22171.007241389594 27372.965406857435 9.094699214082032
  endloop
endfacet
facet normal 0.0 0.9914448613732374 0.13052619222440537
  outer loop
    vertex -22168.007241389598 27372.965406857435 9.094699214082032
    vertex -22171.007241389594 27372.880221423155 9.741746826838334
    vertex -22168.007241389598 27372.880221423155 9.741746826838334
  endloop
endfacet
facet normal 0.0 0.9914448613732374 -0.1305261922244051
  outer loop
    vertex -22171.007241389594 27372.965406857435 10.388794439594635
    vertex -22168.007241389598 27372.880221423155 9.741746826838334
    vertex -22171.007241389594 27372.880221423155 9.741746826838334
  endloop
endfacet
facet normal 0.0 0.9914448613732374 -0.1305261922244051
  outer loop
    vertex -22168.007241389598 27372.880221423155 9.741746826838334
    vertex -22171.007241389594 27372.965406857435 10.388794439594635
    vertex -22168.007241389598 27372.965406857435 10.388794439594635
  endloop
endfacet
facet normal 0.0 0.923879532511626 -0.38268343236427066
  outer loop
    vertex -22171.007241389594 27373.215157913695 10.991746826838334
    vertex -22168.007241389598 27372.965406857435 10.388794439594635
    vertex -22171.007241389594 27372.965406857435 10.388794439594635
  endloop
endfacet
facet normal 0.0 0.923879532511626 -0.38268343236427066
  outer loop
    vertex -22168.007241389598 27372.965406857435 10.388794439594635
    vertex -22171.007241389594 27373.215157913695 10.991746826838334
    vertex -22168.007241389598 27373.215157913695 10.991746826838334
  endloop
endfacet
facet normal 0.0 0.7933533402913471 -0.6087614290085749
  outer loop
    vertex -22171.007241389594 27373.61245447019 11.509513779804701
    vertex -22168.007241389598 27373.215157913695 10.991746826838334
    vertex -22171.007241389594 27373.215157913695 10.991746826838334
  endloop
endfacet
facet normal 0.0 0.7933533402913471 -0.6087614290085749
  outer loop
    vertex -22168.007241389598 27373.215157913695 10.991746826838334
    vertex -22171.007241389594 27373.61245447019 11.509513779804701
    vertex -22168.007241389598 27373.61245447019 11.509513779804701
  endloop
endfacet
facet normal 0.0 0.6087614290072894 -0.7933533402923334
  outer loop
    vertex -22168.007241389598 27374.13022142316 11.90681033629943
    vertex -22171.007241389594 27373.61245447019 11.509513779804701
    vertex -22171.007241389594 27374.13022142316 11.90681033629943
  endloop
endfacet
facet normal 0.0 0.6087614290072894 -0.7933533402923334
  outer loop
    vertex -22171.007241389594 27373.61245447019 11.509513779804701
    vertex -22168.007241389598 27374.13022142316 11.90681033629943
    vertex -22168.007241389598 27373.61245447019 11.509513779804701
  endloop
endfacet
facet normal 0.0 0.38268343236560354 -0.923879532511074
  outer loop
    vertex -22168.007241389598 27374.7331738104 12.156561392561004
    vertex -22171.007241389594 27374.13022142316 11.90681033629943
    vertex -22171.007241389594 27374.7331738104 12.156561392561004
  endloop
endfacet
facet normal 0.0 0.38268343236560354 -0.923879532511074
  outer loop
    vertex -22171.007241389594 27374.13022142316 11.90681033629943
    vertex -22168.007241389598 27374.7331738104 12.156561392561004
    vertex -22168.007241389598 27374.13022142316 11.90681033629943
  endloop
endfacet
facet normal 0.0 0.1305261922202062 -0.9914448613737901
  outer loop
    vertex -22168.007241389598 27375.38022142316 12.241746826838332
    vertex -22171.007241389594 27374.7331738104 12.156561392561004
    vertex -22171.007241389594 27375.38022142316 12.241746826838332
  endloop
endfacet
facet normal 0.0 0.1305261922202062 -0.9914448613737901
  outer loop
    vertex -22171.007241389594 27374.7331738104 12.156561392561004
    vertex -22168.007241389598 27375.38022142316 12.241746826838332
    vertex -22168.007241389598 27374.7331738104 12.156561392561004
  endloop
endfacet
facet normal -0.0 -0.1305261922202083 -0.9914448613737897
  outer loop
    vertex -22168.007241389598 27376.027269035912 12.156561392561002
    vertex -22171.007241389594 27375.38022142316 12.241746826838332
    vertex -22171.007241389594 27376.027269035912 12.156561392561002
  endloop
endfacet
facet normal -0.0 -0.1305261922202083 -0.9914448613737897
  outer loop
    vertex -22171.007241389594 27375.38022142316 12.241746826838332
    vertex -22168.007241389598 27376.027269035912 12.156561392561002
    vertex -22168.007241389598 27375.38022142316 12.241746826838332
  endloop
endfacet
facet normal -0.0 -0.38268343236560354 -0.923879532511074
  outer loop
    vertex -22168.007241389598 27376.630221423155 11.906810336299428
    vertex -22171.007241389594 27376.027269035912 12.156561392561002
    vertex -22171.007241389594 27376.630221423155 11.906810336299428
  endloop
endfacet
facet normal -0.0 -0.38268343236560354 -0.923879532511074
  outer loop
    vertex -22171.007241389594 27376.027269035912 12.156561392561002
    vertex -22168.007241389598 27376.630221423155 11.906810336299428
    vertex -22168.007241389598 27376.027269035912 12.156561392561002
  endloop
endfacet
facet normal -0.0 -0.608761429007288 -0.7933533402923344
  outer loop
    vertex -22168.007241389598 27377.147988376124 11.509513779804701
    vertex -22171.007241389594 27376.630221423155 11.906810336299428
    vertex -22171.007241389594 27377.147988376124 11.509513779804701
  endloop
endfacet
facet normal -0.0 -0.608761429007288 -0.7933533402923344
  outer loop
    vertex -22171.007241389594 27376.630221423155 11.906810336299428
    vertex -22168.007241389598 27377.147988376124 11.509513779804701
    vertex -22168.007241389598 27376.630221423155 11.906810336299428
  endloop
endfacet
facet normal -0.0 -0.7933533402913486 -0.6087614290085728
  outer loop
    vertex -22168.007241389598 27377.147988376124 11.509513779804701
    vertex -22171.007241389594 27377.545284932618 10.99174682683833
    vertex -22168.007241389598 27377.545284932618 10.99174682683833
  endloop
endfacet
facet normal -0.0 -0.7933533402913486 -0.6087614290085728
  outer loop
    vertex -22171.007241389594 27377.545284932618 10.99174682683833
    vertex -22168.007241389598 27377.147988376124 11.509513779804701
    vertex -22171.007241389594 27377.147988376124 11.509513779804701
  endloop
endfacet
facet normal -0.0 -0.9238795325116258 -0.3826834323642715
  outer loop
    vertex -22168.007241389598 27377.545284932618 10.99174682683833
    vertex -22171.007241389594 27377.79503598888 10.388794439594633
    vertex -22168.007241389598 27377.79503598888 10.388794439594633
  endloop
endfacet
facet normal -0.0 -0.9238795325116258 -0.3826834323642715
  outer loop
    vertex -22171.007241389594 27377.79503598888 10.388794439594633
    vertex -22168.007241389598 27377.545284932618 10.99174682683833
    vertex -22171.007241389594 27377.545284932618 10.99174682683833
  endloop
endfacet
facet normal -0.0 -0.9914448613732374 -0.13052619222440537
  outer loop
    vertex -22168.007241389598 27377.79503598888 10.388794439594633
    vertex -22171.007241389594 27377.88022142316 9.741746826838334
    vertex -22168.007241389598 27377.88022142316 9.741746826838334
  endloop
endfacet
facet normal -0.0 -0.9914448613732374 -0.13052619222440537
  outer loop
    vertex -22171.007241389594 27377.88022142316 9.741746826838334
    vertex -22168.007241389598 27377.79503598888 10.388794439594633
    vertex -22171.007241389594 27377.79503598888 10.388794439594633
  endloop
endfacet
facet normal 0.0 -0.9914448613732374 0.13052619222440479
  outer loop
    vertex -22168.007241389598 27377.88022142316 9.741746826838334
    vertex -22171.007241389594 27377.79503598888 9.094699214082029
    vertex -22168.007241389598 27377.79503598888 9.094699214082029
  endloop
endfacet
facet normal 0.0 -0.9914448613732374 0.13052619222440479
  outer loop
    vertex -22171.007241389594 27377.79503598888 9.094699214082029
    vertex -22168.007241389598 27377.88022142316 9.741746826838334
    vertex -22171.007241389594 27377.88022142316 9.741746826838334
  endloop
endfacet
facet normal 0.0 -0.9238795325116258 0.3826834323642715
  outer loop
    vertex -22168.007241389598 27377.79503598888 9.094699214082029
    vertex -22171.007241389594 27377.545284932618 8.491746826838332
    vertex -22168.007241389598 27377.545284932618 8.491746826838332
  endloop
endfacet
facet normal 0.0 -0.9238795325116258 0.3826834323642715
  outer loop
    vertex -22171.007241389594 27377.545284932618 8.491746826838332
    vertex -22168.007241389598 27377.79503598888 9.094699214082029
    vertex -22171.007241389594 27377.79503598888 9.094699214082029
  endloop
endfacet
facet normal 0.0 -0.7933533402913479 0.6087614290085738
  outer loop
    vertex -22168.007241389598 27377.545284932618 8.491746826838332
    vertex -22171.007241389594 27377.147988376124 7.973979873871964
    vertex -22168.007241389598 27377.147988376124 7.973979873871964
  endloop
endfacet
facet normal 0.0 -0.7933533402913479 0.6087614290085738
  outer loop
    vertex -22171.007241389594 27377.147988376124 7.973979873871964
    vertex -22168.007241389598 27377.545284932618 8.491746826838332
    vertex -22171.007241389594 27377.545284932618 8.491746826838332
  endloop
endfacet
facet normal 0.0 -0.608761429007288 0.7933533402923344
  outer loop
    vertex -22168.007241389598 27376.630221423155 7.5766833173772365
    vertex -22171.007241389594 27377.147988376124 7.973979873871964
    vertex -22171.007241389594 27376.630221423155 7.5766833173772365
  endloop
endfacet
facet normal 0.0 -0.608761429007288 0.7933533402923344
  outer loop
    vertex -22171.007241389594 27377.147988376124 7.973979873871964
    vertex -22168.007241389598 27376.630221423155 7.5766833173772365
    vertex -22168.007241389598 27377.147988376124 7.973979873871964
  endloop
endfacet
facet normal 0.0 -0.38268343236560354 0.923879532511074
  outer loop
    vertex -22168.007241389598 27376.027269035912 7.326932261115663
    vertex -22171.007241389594 27376.630221423155 7.5766833173772365
    vertex -22171.007241389594 27376.027269035912 7.326932261115663
  endloop
endfacet
facet normal 0.0 -0.38268343236560354 0.923879532511074
  outer loop
    vertex -22171.007241389594 27376.630221423155 7.5766833173772365
    vertex -22168.007241389598 27376.027269035912 7.326932261115663
    vertex -22168.007241389598 27376.630221423155 7.5766833173772365
  endloop
endfacet
facet normal 0.0 0.13052619222021045 -0.9914448613737895
  outer loop
    vertex -22168.007241389598 27375.38022142316 68.24174682683852
    vertex -22171.007241389594 27374.7331738104 68.15656139256119
    vertex -22171.007241389594 27375.38022142316 68.24174682683852
  endloop
endfacet
facet normal 0.0 0.13052619222021045 -0.9914448613737895
  outer loop
    vertex -22171.007241389594 27374.7331738104 68.15656139256119
    vertex -22168.007241389598 27375.38022142316 68.24174682683852
    vertex -22168.007241389598 27374.7331738104 68.15656139256119
  endloop
endfacet
facet normal -0.0 -0.13052619222021045 -0.9914448613737895
  outer loop
    vertex -22168.007241389598 27376.027269035912 68.15656139256119
    vertex -22171.007241389594 27375.38022142316 68.24174682683852
    vertex -22171.007241389594 27376.027269035912 68.15656139256119
  endloop
endfacet
facet normal -0.0 -0.13052619222021045 -0.9914448613737895
  outer loop
    vertex -22171.007241389594 27375.38022142316 68.24174682683852
    vertex -22168.007241389598 27376.027269035912 68.15656139256119
    vertex -22168.007241389598 27375.38022142316 68.24174682683852
  endloop
endfacet
facet normal -0.0 -0.38268343236559615 -0.923879532511077
  outer loop
    vertex -22168.007241389598 27376.630221423155 67.90681033629963
    vertex -22171.007241389594 27376.027269035912 68.15656139256119
    vertex -22171.007241389594 27376.630221423155 67.90681033629963
  endloop
endfacet
facet normal -0.0 -0.38268343236559615 -0.923879532511077
  outer loop
    vertex -22171.007241389594 27376.027269035912 68.15656139256119
    vertex -22168.007241389598 27376.630221423155 67.90681033629963
    vertex -22168.007241389598 27376.027269035912 68.15656139256119
  endloop
endfacet
facet normal -0.0 -0.6087614290072935 -0.7933533402923303
  outer loop
    vertex -22168.007241389598 27377.147988376124 67.50951377980489
    vertex -22171.007241389594 27376.630221423155 67.90681033629963
    vertex -22171.007241389594 27377.147988376124 67.50951377980489
  endloop
endfacet
facet normal -0.0 -0.6087614290072935 -0.7933533402923303
  outer loop
    vertex -22171.007241389594 27376.630221423155 67.90681033629963
    vertex -22168.007241389598 27377.147988376124 67.50951377980489
    vertex -22168.007241389598 27376.630221423155 67.90681033629963
  endloop
endfacet
facet normal -0.0 -0.7933533402913454 -0.6087614290085769
  outer loop
    vertex -22168.007241389598 27377.147988376124 67.50951377980489
    vertex -22171.007241389594 27377.545284932618 66.99174682683852
    vertex -22168.007241389598 27377.545284932618 66.99174682683852
  endloop
endfacet
facet normal -0.0 -0.7933533402913454 -0.6087614290085769
  outer loop
    vertex -22171.007241389594 27377.545284932618 66.99174682683852
    vertex -22168.007241389598 27377.147988376124 67.50951377980489
    vertex -22171.007241389594 27377.147988376124 67.50951377980489
  endloop
endfacet
facet normal -0.0 -0.9238795325116258 -0.3826834323642715
  outer loop
    vertex -22168.007241389598 27377.545284932618 66.99174682683852
    vertex -22171.007241389594 27377.79503598888 66.38879443959483
    vertex -22168.007241389598 27377.79503598888 66.38879443959483
  endloop
endfacet
facet normal -0.0 -0.9238795325116258 -0.3826834323642715
  outer loop
    vertex -22171.007241389594 27377.79503598888 66.38879443959483
    vertex -22168.007241389598 27377.545284932618 66.99174682683852
    vertex -22171.007241389594 27377.545284932618 66.99174682683852
  endloop
endfacet
facet normal -0.0 -0.9914448613732374 -0.13052619222440537
  outer loop
    vertex -22168.007241389598 27377.79503598888 66.38879443959483
    vertex -22171.007241389594 27377.88022142316 65.74174682683852
    vertex -22168.007241389598 27377.88022142316 65.74174682683852
  endloop
endfacet
facet normal -0.0 -0.9914448613732374 -0.13052619222440537
  outer loop
    vertex -22171.007241389594 27377.88022142316 65.74174682683852
    vertex -22168.007241389598 27377.79503598888 66.38879443959483
    vertex -22171.007241389594 27377.79503598888 66.38879443959483
  endloop
endfacet
facet normal 0.0 -0.9914448613732374 0.13052619222440537
  outer loop
    vertex -22168.007241389598 27377.88022142316 65.74174682683852
    vertex -22171.007241389594 27377.79503598888 65.09469921408223
    vertex -22168.007241389598 27377.79503598888 65.09469921408223
  endloop
endfacet
facet normal 0.0 -0.9914448613732374 0.13052619222440537
  outer loop
    vertex -22171.007241389594 27377.79503598888 65.09469921408223
    vertex -22168.007241389598 27377.88022142316 65.74174682683852
    vertex -22171.007241389594 27377.88022142316 65.74174682683852
  endloop
endfacet
facet normal 0.0 -0.9238795325116258 0.3826834323642715
  outer loop
    vertex -22168.007241389598 27377.79503598888 65.09469921408223
    vertex -22171.007241389594 27377.545284932618 64.49174682683852
    vertex -22168.007241389598 27377.545284932618 64.49174682683852
  endloop
endfacet
facet normal 0.0 -0.9238795325116258 0.3826834323642715
  outer loop
    vertex -22171.007241389594 27377.545284932618 64.49174682683852
    vertex -22168.007241389598 27377.79503598888 65.09469921408223
    vertex -22171.007241389594 27377.79503598888 65.09469921408223
  endloop
endfacet
facet normal 0.0 -0.7933533402913454 0.6087614290085769
  outer loop
    vertex -22168.007241389598 27377.545284932618 64.49174682683852
    vertex -22171.007241389594 27377.147988376124 63.97397987387217
    vertex -22168.007241389598 27377.147988376124 63.97397987387217
  endloop
endfacet
facet normal 0.0 -0.7933533402913454 0.6087614290085769
  outer loop
    vertex -22171.007241389594 27377.147988376124 63.97397987387217
    vertex -22168.007241389598 27377.545284932618 64.49174682683852
    vertex -22171.007241389594 27377.545284932618 64.49174682683852
  endloop
endfacet
facet normal 0.0 -0.6087614290072935 0.7933533402923303
  outer loop
    vertex -22168.007241389598 27376.630221423155 63.57668331737743
    vertex -22171.007241389594 27377.147988376124 63.97397987387217
    vertex -22171.007241389594 27376.630221423155 63.57668331737743
  endloop
endfacet
facet normal 0.0 -0.6087614290072935 0.7933533402923303
  outer loop
    vertex -22171.007241389594 27377.147988376124 63.97397987387217
    vertex -22168.007241389598 27376.630221423155 63.57668331737743
    vertex -22168.007241389598 27377.147988376124 63.97397987387217
  endloop
endfacet
facet normal 0.0 -0.38268343236559615 0.923879532511077
  outer loop
    vertex -22168.007241389598 27376.027269035912 63.326932261115864
    vertex -22171.007241389594 27376.630221423155 63.57668331737743
    vertex -22171.007241389594 27376.027269035912 63.326932261115864
  endloop
endfacet
facet normal 0.0 -0.38268343236559615 0.923879532511077
  outer loop
    vertex -22171.007241389594 27376.630221423155 63.57668331737743
    vertex -22168.007241389598 27376.027269035912 63.326932261115864
    vertex -22168.007241389598 27376.630221423155 63.57668331737743
  endloop
endfacet
facet normal 0.0 -0.13052619222021045 0.9914448613737895
  outer loop
    vertex -22168.007241389598 27375.38022142316 63.24174682683853
    vertex -22171.007241389594 27376.027269035912 63.326932261115864
    vertex -22171.007241389594 27375.38022142316 63.24174682683853
  endloop
endfacet
facet normal 0.0 -0.13052619222021045 0.9914448613737895
  outer loop
    vertex -22171.007241389594 27376.027269035912 63.326932261115864
    vertex -22168.007241389598 27375.38022142316 63.24174682683853
    vertex -22168.007241389598 27376.027269035912 63.326932261115864
  endloop
endfacet
facet normal 0.0 0.13052619222021045 0.9914448613737895
  outer loop
    vertex -22168.007241389598 27374.7331738104 63.326932261115864
    vertex -22171.007241389594 27375.38022142316 63.24174682683853
    vertex -22171.007241389594 27374.7331738104 63.326932261115864
  endloop
endfacet
facet normal 0.0 0.13052619222021045 0.9914448613737895
  outer loop
    vertex -22171.007241389594 27375.38022142316 63.24174682683853
    vertex -22168.007241389598 27374.7331738104 63.326932261115864
    vertex -22168.007241389598 27375.38022142316 63.24174682683853
  endloop
endfacet
facet normal 0.0 0.38268343236559615 0.923879532511077
  outer loop
    vertex -22168.007241389598 27374.13022142316 63.57668331737743
    vertex -22171.007241389594 27374.7331738104 63.326932261115864
    vertex -22171.007241389594 27374.13022142316 63.57668331737743
  endloop
endfacet
facet normal 0.0 0.38268343236559615 0.923879532511077
  outer loop
    vertex -22171.007241389594 27374.7331738104 63.326932261115864
    vertex -22168.007241389598 27374.13022142316 63.57668331737743
    vertex -22168.007241389598 27374.7331738104 63.326932261115864
  endloop
endfacet
facet normal 0.0 0.6087614290072935 0.7933533402923303
  outer loop
    vertex -22168.007241389598 27373.61245447019 63.97397987387217
    vertex -22171.007241389594 27374.13022142316 63.57668331737743
    vertex -22171.007241389594 27373.61245447019 63.97397987387217
  endloop
endfacet
facet normal 0.0 0.6087614290072935 0.7933533402923303
  outer loop
    vertex -22171.007241389594 27374.13022142316 63.57668331737743
    vertex -22168.007241389598 27373.61245447019 63.97397987387217
    vertex -22168.007241389598 27374.13022142316 63.57668331737743
  endloop
endfacet
facet normal 0.0 0.7933533402913454 0.6087614290085769
  outer loop
    vertex -22171.007241389594 27373.215157913695 64.49174682683852
    vertex -22168.007241389598 27373.61245447019 63.97397987387217
    vertex -22171.007241389594 27373.61245447019 63.97397987387217
  endloop
endfacet
facet normal 0.0 0.7933533402913454 0.6087614290085769
  outer loop
    vertex -22168.007241389598 27373.61245447019 63.97397987387217
    vertex -22171.007241389594 27373.215157913695 64.49174682683852
    vertex -22168.007241389598 27373.215157913695 64.49174682683852
  endloop
endfacet
facet normal 0.0 0.9238795325116258 0.3826834323642715
  outer loop
    vertex -22171.007241389594 27372.965406857435 65.09469921408223
    vertex -22168.007241389598 27373.215157913695 64.49174682683852
    vertex -22171.007241389594 27373.215157913695 64.49174682683852
  endloop
endfacet
facet normal 0.0 0.9238795325116258 0.3826834323642715
  outer loop
    vertex -22168.007241389598 27373.215157913695 64.49174682683852
    vertex -22171.007241389594 27372.965406857435 65.09469921408223
    vertex -22168.007241389598 27372.965406857435 65.09469921408223
  endloop
endfacet
facet normal 0.0 0.9914448613732374 0.13052619222440537
  outer loop
    vertex -22171.007241389594 27372.880221423155 65.74174682683852
    vertex -22168.007241389598 27372.965406857435 65.09469921408223
    vertex -22171.007241389594 27372.965406857435 65.09469921408223
  endloop
endfacet
facet normal 0.0 0.9914448613732374 0.13052619222440537
  outer loop
    vertex -22168.007241389598 27372.965406857435 65.09469921408223
    vertex -22171.007241389594 27372.880221423155 65.74174682683852
    vertex -22168.007241389598 27372.880221423155 65.74174682683852
  endloop
endfacet
facet normal 0.0 0.9914448613732374 -0.13052619222440537
  outer loop
    vertex -22171.007241389594 27372.965406857435 66.38879443959483
    vertex -22168.007241389598 27372.880221423155 65.74174682683852
    vertex -22171.007241389594 27372.880221423155 65.74174682683852
  endloop
endfacet
facet normal 0.0 0.9914448613732374 -0.13052619222440537
  outer loop
    vertex -22168.007241389598 27372.880221423155 65.74174682683852
    vertex -22171.007241389594 27372.965406857435 66.38879443959483
    vertex -22168.007241389598 27372.965406857435 66.38879443959483
  endloop
endfacet
facet normal 0.0 0.9238795325116258 -0.3826834323642715
  outer loop
    vertex -22171.007241389594 27373.215157913695 66.99174682683852
    vertex -22168.007241389598 27372.965406857435 66.38879443959483
    vertex -22171.007241389594 27372.965406857435 66.38879443959483
  endloop
endfacet
facet normal 0.0 0.9238795325116258 -0.3826834323642715
  outer loop
    vertex -22168.007241389598 27372.965406857435 66.38879443959483
    vertex -22171.007241389594 27373.215157913695 66.99174682683852
    vertex -22168.007241389598 27373.215157913695 66.99174682683852
  endloop
endfacet
facet normal 0.0 0.7933533402913454 -0.6087614290085769
  outer loop
    vertex -22171.007241389594 27373.61245447019 67.50951377980489
    vertex -22168.007241389598 27373.215157913695 66.99174682683852
    vertex -22171.007241389594 27373.215157913695 66.99174682683852
  endloop
endfacet
facet normal 0.0 0.7933533402913454 -0.6087614290085769
  outer loop
    vertex -22168.007241389598 27373.215157913695 66.99174682683852
    vertex -22171.007241389594 27373.61245447019 67.50951377980489
    vertex -22168.007241389598 27373.61245447019 67.50951377980489
  endloop
endfacet
facet normal 0.0 0.6087614290072935 -0.7933533402923303
  outer loop
    vertex -22168.007241389598 27374.13022142316 67.90681033629963
    vertex -22171.007241389594 27373.61245447019 67.50951377980489
    vertex -22171.007241389594 27374.13022142316 67.90681033629963
  endloop
endfacet
facet normal 0.0 0.6087614290072935 -0.7933533402923303
  outer loop
    vertex -22171.007241389594 27373.61245447019 67.50951377980489
    vertex -22168.007241389598 27374.13022142316 67.90681033629963
    vertex -22168.007241389598 27373.61245447019 67.50951377980489
  endloop
endfacet
facet normal 0.0 0.38268343236559615 -0.923879532511077
  outer loop
    vertex -22168.007241389598 27374.7331738104 68.15656139256119
    vertex -22171.007241389594 27374.13022142316 67.90681033629963
    vertex -22171.007241389594 27374.7331738104 68.15656139256119
  endloop
endfacet
facet normal 0.0 0.38268343236559615 -0.923879532511077
  outer loop
    vertex -22171.007241389594 27374.13022142316 67.90681033629963
    vertex -22168.007241389598 27374.7331738104 68.15656139256119
    vertex -22168.007241389598 27374.13022142316 67.90681033629963
  endloop
endfacet
facet normal -1.0 1.7340987123210653e-45 5.196639908655035e-30
  outer loop
    vertex -22171.007241389594 27367.251982910417 67.18032189100654
    vertex -22171.007241389594 27366.130221423162 9.74174682683701
    vertex -22171.007241389594 27366.130221423162 65.74174682683986
  endloop
endfacet
facet normal -1.0 1.7340987123210653e-45 5.196639908655035e-30
  outer loop
    vertex -22171.007241389594 27366.130221423162 9.74174682683701
    vertex -22171.007241389594 27367.251982910417 67.18032189100654
    vertex -22171.007241389594 27367.251982910417 8.303171762670331
  endloop
endfacet
facet normal -1.0 1.7340987123210653e-45 5.196639908655035e-30
  outer loop
    vertex -22171.007241389594 27367.251982910417 8.303171762670331
    vertex -22171.007241389594 27367.251982910417 67.18032189100654
    vertex -22171.007241389594 27368.595025382685 68.4148598479809
  endloop
endfacet
facet normal -1.0 1.7340987123210653e-45 5.196639908655035e-30
  outer loop
    vertex -22171.007241389594 27367.251982910417 8.303171762670331
    vertex -22171.007241389594 27368.595025382685 68.4148598479809
    vertex -22171.007241389594 27368.595025382685 7.068633805695956
  endloop
endfacet
facet normal -1.0 1.7340987123210653e-45 5.196639908655035e-30
  outer loop
    vertex -22171.007241389594 27368.595025382685 7.068633805695956
    vertex -22171.007241389594 27368.595025382685 68.4148598479809
    vertex -22171.007241389594 27370.122786211952 69.41175196756532
  endloop
endfacet
facet normal -1.0 1.7340987123210653e-45 5.196639908655035e-30
  outer loop
    vertex -22171.007241389594 27368.595025382685 7.068633805695956
    vertex -22171.007241389594 27370.122786211952 69.41175196756532
    vertex -22171.007241389594 27370.122786211952 6.071741686111537
  endloop
endfacet
facet normal -1.0 1.7340987123210653e-45 5.196639908655035e-30
  outer loop
    vertex -22171.007241389594 27370.122786211952 6.071741686111537
    vertex -22171.007241389594 27370.122786211952 69.41175196756532
    vertex -22171.007241389594 27371.7936740472 70.14385912609495
  endloop
endfacet
facet normal -1.0 1.7340987123210653e-45 5.196639908655035e-30
  outer loop
    vertex -22171.007241389594 27370.122786211952 6.071741686111537
    vertex -22171.007241389594 27371.7936740472 70.14385912609495
    vertex -22171.007241389594 27371.7936740472 5.339634527581913
  endloop
endfacet
facet normal -1.0 1.7340987123210653e-45 5.196639908655035e-30
  outer loop
    vertex -22171.007241389594 27371.7936740472 5.339634527581913
    vertex -22171.007241389594 27371.7936740472 70.14385912609495
    vertex -22171.007241389594 27372.880221423155 65.74174682683852
  endloop
endfacet
facet normal -1.0 1.7340987123210653e-45 5.196639908655035e-30
  outer loop
    vertex -22171.007241389594 27372.880221423155 65.74174682683852
    vertex -22171.007241389594 27371.7936740472 70.14385912609495
    vertex -22171.007241389594 27372.965406857435 66.38879443959483
  endloop
endfacet
facet normal -1.0 1.7340987123210653e-45 5.196639908655035e-30
  outer loop
    vertex -22171.007241389594 27372.965406857435 66.38879443959483
    vertex -22171.007241389594 27371.7936740472 70.14385912609495
    vertex -22171.007241389594 27373.56220108618 70.59125063466078
  endloop
endfacet
facet normal -1.0 1.7340987123210653e-45 5.196639908655035e-30
  outer loop
    vertex -22171.007241389594 27372.965406857435 66.38879443959483
    vertex -22171.007241389594 27373.56220108618 70.59125063466078
    vertex -22171.007241389594 27373.215157913695 66.99174682683852
  endloop
endfacet
facet normal -1.0 1.7340987123210653e-45 5.196639908655035e-30
  outer loop
    vertex -22171.007241389594 27373.215157913695 66.99174682683852
    vertex -22171.007241389594 27373.56220108618 70.59125063466078
    vertex -22171.007241389594 27373.61245447019 67.50951377980489
  endloop
endfacet
facet normal -1.0 1.7340987123210653e-45 5.196639908655035e-30
  outer loop
    vertex -22171.007241389594 27373.61245447019 67.50951377980489
    vertex -22171.007241389594 27373.56220108618 70.59125063466078
    vertex -22171.007241389594 27375.38022142316 70.74174682683852
  endloop
endfacet
facet normal -1.0 1.7340987123210653e-45 5.196639908655035e-30
  outer loop
    vertex -22171.007241389594 27373.61245447019 67.50951377980489
    vertex -22171.007241389594 27375.38022142316 70.74174682683852
    vertex -22171.007241389594 27374.13022142316 67.90681033629963
  endloop
endfacet
facet normal -1.0 1.7340987123210653e-45 5.196639908655035e-30
  outer loop
    vertex -22171.007241389594 27374.13022142316 67.90681033629963
    vertex -22171.007241389594 27375.38022142316 70.74174682683852
    vertex -22171.007241389594 27374.7331738104 68.15656139256119
  endloop
endfacet
facet normal -1.0 1.7340987123210653e-45 5.196639908655035e-30
  outer loop
    vertex -22171.007241389594 27374.7331738104 68.15656139256119
    vertex -22171.007241389594 27375.38022142316 70.74174682683852
    vertex -22171.007241389594 27375.38022142316 68.24174682683852
  endloop
endfacet
facet normal -1.0 1.7340987123210653e-45 5.196639908655035e-30
  outer loop
    vertex -22171.007241389594 27375.38022142316 68.24174682683852
    vertex -22171.007241389594 27375.38022142316 70.74174682683852
    vertex -22171.007241389594 27377.19824176014 70.59125063466026
  endloop
endfacet
facet normal -1.0 1.7340987123210653e-45 5.196639908655035e-30
  outer loop
    vertex -22171.007241389594 27375.38022142316 68.24174682683852
    vertex -22171.007241389594 27377.19824176014 70.59125063466026
    vertex -22171.007241389594 27376.027269035912 68.15656139256119
  endloop
endfacet
facet normal -1.0 1.7340987123210653e-45 5.196639908655035e-30
  outer loop
    vertex -22171.007241389594 27376.027269035912 68.15656139256119
    vertex -22171.007241389594 27377.19824176014 70.59125063466026
    vertex -22171.007241389594 27376.630221423155 67.90681033629963
  endloop
endfacet
facet normal -1.0 1.7340987123210653e-45 5.196639908655035e-30
  outer loop
    vertex -22171.007241389594 27376.630221423155 67.90681033629963
    vertex -22171.007241389594 27377.19824176014 70.59125063466026
    vertex -22171.007241389594 27377.147988376124 67.50951377980489
  endloop
endfacet
facet normal -1.0 1.7340987123210653e-45 5.196639908655035e-30
  outer loop
    vertex -22171.007241389594 27377.147988376124 67.50951377980489
    vertex -22171.007241389594 27377.19824176014 70.59125063466026
    vertex -22171.007241389594 27377.545284932618 66.99174682683852
  endloop
endfacet
facet normal -1.0 1.7340987123210653e-45 5.196639908655035e-30
  outer loop
    vertex -22171.007241389594 27377.545284932618 66.99174682683852
    vertex -22171.007241389594 27377.19824176014 70.59125063466026
    vertex -22171.007241389594 27378.966768799117 70.14385912609391
  endloop
endfacet
facet normal -1.0 1.7340987123210653e-45 5.196639908655035e-30
  outer loop
    vertex -22171.007241389594 27377.545284932618 66.99174682683852
    vertex -22171.007241389594 27378.966768799117 70.14385912609391
    vertex -22171.007241389594 27377.79503598888 66.38879443959483
  endloop
endfacet
facet normal -1.0 1.7340987123210653e-45 5.196639908655035e-30
  outer loop
    vertex -22171.007241389594 27377.79503598888 66.38879443959483
    vertex -22171.007241389594 27378.966768799117 70.14385912609391
    vertex -22171.007241389594 27377.88022142316 65.74174682683852
  endloop
endfacet
facet normal -1.0 1.7340987123210653e-45 5.196639908655035e-30
  outer loop
    vertex -22171.007241389594 27377.88022142316 65.74174682683852
    vertex -22171.007241389594 27378.966768799117 70.14385912609391
    vertex -22171.007241389594 27377.88022142316 9.741746826838334
  endloop
endfacet
facet normal -1.0 1.7340987123210653e-45 5.196639908655035e-30
  outer loop
    vertex -22171.007241389594 27371.7936740472 5.339634527581913
    vertex -22171.007241389594 27372.965406857435 9.094699214082032
    vertex -22171.007241389594 27373.56220108618 4.892243019016071
  endloop
endfacet
facet normal -1.0 1.7340987123210653e-45 5.196639908655035e-30
  outer loop
    vertex -22171.007241389594 27372.965406857435 9.094699214082032
    vertex -22171.007241389594 27371.7936740472 5.339634527581913
    vertex -22171.007241389594 27372.880221423155 9.741746826838334
  endloop
endfacet
facet normal -1.0 1.7340987123210653e-45 5.196639908655035e-30
  outer loop
    vertex -22171.007241389594 27372.880221423155 9.741746826838334
    vertex -22171.007241389594 27371.7936740472 5.339634527581913
    vertex -22171.007241389594 27372.880221423155 65.74174682683852
  endloop
endfacet
facet normal -1.0 1.7340987123210653e-45 5.196639908655035e-30
  outer loop
    vertex -22171.007241389594 27373.56220108618 4.892243019016071
    vertex -22171.007241389594 27372.965406857435 9.094699214082032
    vertex -22171.007241389594 27373.215157913695 8.491746826838334
  endloop
endfacet
facet normal -1.0 1.7340987123210653e-45 5.196639908655035e-30
  outer loop
    vertex -22171.007241389594 27373.56220108618 4.892243019016071
    vertex -22171.007241389594 27373.215157913695 8.491746826838334
    vertex -22171.007241389594 27373.61245447019 7.973979873871966
  endloop
endfacet
facet normal -1.0 1.7340987123210653e-45 5.196639908655035e-30
  outer loop
    vertex -22171.007241389594 27373.56220108618 4.892243019016071
    vertex -22171.007241389594 27373.61245447019 7.973979873871966
    vertex -22171.007241389594 27375.38022142316 4.741746826838331
  endloop
endfacet
facet normal -1.0 1.7340987123210653e-45 5.196639908655035e-30
  outer loop
    vertex -22171.007241389594 27375.38022142316 4.741746826838331
    vertex -22171.007241389594 27373.61245447019 7.973979873871966
    vertex -22171.007241389594 27374.13022142316 7.576683317377238
  endloop
endfacet
facet normal -1.0 1.7340987123210653e-45 5.196639908655035e-30
  outer loop
    vertex -22171.007241389594 27375.38022142316 4.741746826838331
    vertex -22171.007241389594 27374.13022142316 7.576683317377238
    vertex -22171.007241389594 27374.7331738104 7.326932261115663
  endloop
endfacet
facet normal -1.0 1.7340987123210653e-45 5.196639908655035e-30
  outer loop
    vertex -22171.007241389594 27375.38022142316 4.741746826838331
    vertex -22171.007241389594 27374.7331738104 7.326932261115663
    vertex -22171.007241389594 27375.38022142316 7.241746826838334
  endloop
endfacet
facet normal -1.0 1.7340987123210653e-45 5.196639908655035e-30
  outer loop
    vertex -22171.007241389594 27375.38022142316 4.741746826838331
    vertex -22171.007241389594 27375.38022142316 7.241746826838334
    vertex -22171.007241389594 27376.027269035912 7.326932261115663
  endloop
endfacet
facet normal -1.0 1.7340987123210653e-45 5.196639908655035e-30
  outer loop
    vertex -22171.007241389594 27375.38022142316 4.741746826838331
    vertex -22171.007241389594 27376.027269035912 7.326932261115663
    vertex -22171.007241389594 27377.19824176014 4.892243019016592
  endloop
endfacet
facet normal -1.0 1.7340987123210653e-45 5.196639908655035e-30
  outer loop
    vertex -22171.007241389594 27377.19824176014 4.892243019016592
    vertex -22171.007241389594 27376.027269035912 7.326932261115663
    vertex -22171.007241389594 27376.630221423155 7.5766833173772365
  endloop
endfacet
facet normal -1.0 1.7340987123210653e-45 5.196639908655035e-30
  outer loop
    vertex -22171.007241389594 27377.19824176014 4.892243019016592
    vertex -22171.007241389594 27376.630221423155 7.5766833173772365
    vertex -22171.007241389594 27377.147988376124 7.973979873871964
  endloop
endfacet
facet normal -1.0 1.7340987123210653e-45 5.196639908655035e-30
  outer loop
    vertex -22171.007241389594 27377.19824176014 4.892243019016592
    vertex -22171.007241389594 27377.147988376124 7.973979873871964
    vertex -22171.007241389594 27377.545284932618 8.491746826838332
  endloop
endfacet
facet normal -1.0 1.7340987123210653e-45 5.196639908655035e-30
  outer loop
    vertex -22171.007241389594 27377.19824176014 4.892243019016592
    vertex -22171.007241389594 27377.545284932618 8.491746826838332
    vertex -22171.007241389594 27378.966768799117 5.33963452758294
  endloop
endfacet
facet normal -1.0 1.7340987123210653e-45 5.196639908655035e-30
  outer loop
    vertex -22171.007241389594 27378.966768799117 5.33963452758294
    vertex -22171.007241389594 27377.545284932618 8.491746826838332
    vertex -22171.007241389594 27377.79503598888 9.094699214082029
  endloop
endfacet
facet normal -1.0 1.7340987123210653e-45 5.196639908655035e-30
  outer loop
    vertex -22171.007241389594 27378.966768799117 5.33963452758294
    vertex -22171.007241389594 27377.79503598888 9.094699214082029
    vertex -22171.007241389594 27377.88022142316 9.741746826838334
  endloop
endfacet
facet normal -1.0 1.7340987123210653e-45 5.196639908655035e-30
  outer loop
    vertex -22171.007241389594 27378.966768799117 5.33963452758294
    vertex -22171.007241389594 27377.88022142316 9.741746826838334
    vertex -22171.007241389594 27378.966768799117 70.14385912609391
  endloop
endfacet
facet normal -1.0 1.7340987123210653e-45 5.196639908655035e-30
  outer loop
    vertex -22171.007241389594 27378.966768799117 5.33963452758294
    vertex -22171.007241389594 27378.966768799117 70.14385912609391
    vertex -22171.007241389594 27380.63765663436 69.41175196756382
  endloop
endfacet
facet normal -1.0 1.7340987123210653e-45 5.196639908655035e-30
  outer loop
    vertex -22171.007241389594 27378.966768799117 5.33963452758294
    vertex -22171.007241389594 27380.63765663436 69.41175196756382
    vertex -22171.007241389594 27380.63765663436 6.071741686113041
  endloop
endfacet
facet normal -1.0 1.7340987123210653e-45 5.196639908655035e-30
  outer loop
    vertex -22171.007241389594 27380.63765663436 6.071741686113041
    vertex -22171.007241389594 27380.63765663436 69.41175196756382
    vertex -22171.007241389594 27382.165417463628 68.41485984797896
  endloop
endfacet
facet normal -1.0 1.7340987123210653e-45 5.196639908655035e-30
  outer loop
    vertex -22171.007241389594 27380.63765663436 6.071741686113041
    vertex -22171.007241389594 27382.165417463628 68.41485984797896
    vertex -22171.007241389594 27382.165417463628 7.068633805697901
  endloop
endfacet
facet normal -1.0 1.7340987123210653e-45 5.196639908655035e-30
  outer loop
    vertex -22171.007241389594 27382.165417463628 7.068633805697901
    vertex -22171.007241389594 27382.165417463628 68.41485984797896
    vertex -22171.007241389594 27383.508459935903 67.1803218910042
  endloop
endfacet
facet normal -1.0 1.7340987123210653e-45 5.196639908655035e-30
  outer loop
    vertex -22171.007241389594 27382.165417463628 7.068633805697901
    vertex -22171.007241389594 27383.508459935903 67.1803218910042
    vertex -22171.007241389594 27383.508459935903 8.303171762672658
  endloop
endfacet
facet normal -1.0 1.7340987123210653e-45 5.196639908655035e-30
  outer loop
    vertex -22171.007241389594 27383.508459935903 8.303171762672658
    vertex -22171.007241389594 27383.508459935903 67.1803218910042
    vertex -22171.007241389594 27384.63022142316 65.7417468268372
  endloop
endfacet
facet normal -1.0 1.7340987123210653e-45 5.196639908655035e-30
  outer loop
    vertex -22171.007241389594 27383.508459935903 8.303171762672658
    vertex -22171.007241389594 27384.63022142316 65.7417468268372
    vertex -22171.007241389594 27384.63022142316 9.741746826839657
  endloop
endfacet
facet normal -1.0 1.7340987123210653e-45 5.196639908655035e-30
  outer loop
    vertex -22171.007241389594 27372.965406857435 65.09469921408223
    vertex -22171.007241389594 27372.880221423155 9.741746826838334
    vertex -22171.007241389594 27372.880221423155 65.74174682683852
  endloop
endfacet
facet normal -1.0 1.7340987123210653e-45 5.196639908655035e-30
  outer loop
    vertex -22171.007241389594 27372.880221423155 9.741746826838334
    vertex -22171.007241389594 27372.965406857435 65.09469921408223
    vertex -22171.007241389594 27372.965406857435 10.388794439594635
  endloop
endfacet
facet normal -1.0 1.7340987123210653e-45 5.196639908655035e-30
  outer loop
    vertex -22171.007241389594 27372.965406857435 10.388794439594635
    vertex -22171.007241389594 27372.965406857435 65.09469921408223
    vertex -22171.007241389594 27373.215157913695 64.49174682683852
  endloop
endfacet
facet normal -1.0 1.7340987123210653e-45 5.196639908655035e-30
  outer loop
    vertex -22171.007241389594 27372.965406857435 10.388794439594635
    vertex -22171.007241389594 27373.215157913695 64.49174682683852
    vertex -22171.007241389594 27373.215157913695 10.991746826838334
  endloop
endfacet
facet normal -1.0 1.7340987123210653e-45 5.196639908655035e-30
  outer loop
    vertex -22171.007241389594 27373.215157913695 10.991746826838334
    vertex -22171.007241389594 27373.215157913695 64.49174682683852
    vertex -22171.007241389594 27373.61245447019 63.97397987387217
  endloop
endfacet
facet normal -1.0 1.7340987123210653e-45 5.196639908655035e-30
  outer loop
    vertex -22171.007241389594 27373.215157913695 10.991746826838334
    vertex -22171.007241389594 27373.61245447019 63.97397987387217
    vertex -22171.007241389594 27373.61245447019 11.509513779804701
  endloop
endfacet
facet normal -1.0 1.7340987123210653e-45 5.196639908655035e-30
  outer loop
    vertex -22171.007241389594 27373.61245447019 11.509513779804701
    vertex -22171.007241389594 27373.61245447019 63.97397987387217
    vertex -22171.007241389594 27374.13022142316 63.57668331737743
  endloop
endfacet
facet normal -1.0 1.7340987123210653e-45 5.196639908655035e-30
  outer loop
    vertex -22171.007241389594 27373.61245447019 11.509513779804701
    vertex -22171.007241389594 27374.13022142316 63.57668331737743
    vertex -22171.007241389594 27374.13022142316 11.90681033629943
  endloop
endfacet
facet normal -1.0 1.7340987123210653e-45 5.196639908655035e-30
  outer loop
    vertex -22171.007241389594 27374.13022142316 11.90681033629943
    vertex -22171.007241389594 27374.13022142316 63.57668331737743
    vertex -22171.007241389594 27374.7331738104 63.326932261115864
  endloop
endfacet
facet normal -1.0 1.7340987123210653e-45 5.196639908655035e-30
  outer loop
    vertex -22171.007241389594 27374.13022142316 11.90681033629943
    vertex -22171.007241389594 27374.7331738104 63.326932261115864
    vertex -22171.007241389594 27374.7331738104 12.156561392561004
  endloop
endfacet
facet normal -1.0 1.7340987123210653e-45 5.196639908655035e-30
  outer loop
    vertex -22171.007241389594 27374.7331738104 12.156561392561004
    vertex -22171.007241389594 27374.7331738104 63.326932261115864
    vertex -22171.007241389594 27375.38022142316 63.24174682683853
  endloop
endfacet
facet normal -1.0 1.7340987123210653e-45 5.196639908655035e-30
  outer loop
    vertex -22171.007241389594 27374.7331738104 12.156561392561004
    vertex -22171.007241389594 27375.38022142316 63.24174682683853
    vertex -22171.007241389594 27375.38022142316 12.241746826838332
  endloop
endfacet
facet normal -1.0 1.7340987123210653e-45 5.196639908655035e-30
  outer loop
    vertex -22171.007241389594 27375.38022142316 12.241746826838332
    vertex -22171.007241389594 27375.38022142316 63.24174682683853
    vertex -22171.007241389594 27376.027269035912 63.326932261115864
  endloop
endfacet
facet normal -1.0 1.7340987123210653e-45 5.196639908655035e-30
  outer loop
    vertex -22171.007241389594 27375.38022142316 12.241746826838332
    vertex -22171.007241389594 27376.027269035912 63.326932261115864
    vertex -22171.007241389594 27376.027269035912 12.156561392561002
  endloop
endfacet
facet normal -1.0 1.7340987123210653e-45 5.196639908655035e-30
  outer loop
    vertex -22171.007241389594 27376.027269035912 12.156561392561002
    vertex -22171.007241389594 27376.027269035912 63.326932261115864
    vertex -22171.007241389594 27376.630221423155 63.57668331737743
  endloop
endfacet
facet normal -1.0 1.7340987123210653e-45 5.196639908655035e-30
  outer loop
    vertex -22171.007241389594 27376.027269035912 12.156561392561002
    vertex -22171.007241389594 27376.630221423155 63.57668331737743
    vertex -22171.007241389594 27376.630221423155 11.906810336299428
  endloop
endfacet
facet normal -1.0 1.7340987123210653e-45 5.196639908655035e-30
  outer loop
    vertex -22171.007241389594 27376.630221423155 11.906810336299428
    vertex -22171.007241389594 27376.630221423155 63.57668331737743
    vertex -22171.007241389594 27377.147988376124 63.97397987387217
  endloop
endfacet
facet normal -1.0 1.7340987123210653e-45 5.196639908655035e-30
  outer loop
    vertex -22171.007241389594 27376.630221423155 11.906810336299428
    vertex -22171.007241389594 27377.147988376124 63.97397987387217
    vertex -22171.007241389594 27377.147988376124 11.509513779804701
  endloop
endfacet
facet normal -1.0 1.7340987123210653e-45 5.196639908655035e-30
  outer loop
    vertex -22171.007241389594 27377.147988376124 11.509513779804701
    vertex -22171.007241389594 27377.147988376124 63.97397987387217
    vertex -22171.007241389594 27377.545284932618 64.49174682683852
  endloop
endfacet
facet normal -1.0 1.7340987123210653e-45 5.196639908655035e-30
  outer loop
    vertex -22171.007241389594 27377.147988376124 11.509513779804701
    vertex -22171.007241389594 27377.545284932618 64.49174682683852
    vertex -22171.007241389594 27377.545284932618 10.99174682683833
  endloop
endfacet
facet normal -1.0 1.7340987123210653e-45 5.196639908655035e-30
  outer loop
    vertex -22171.007241389594 27377.545284932618 10.99174682683833
    vertex -22171.007241389594 27377.545284932618 64.49174682683852
    vertex -22171.007241389594 27377.79503598888 65.09469921408223
  endloop
endfacet
facet normal -1.0 1.7340987123210653e-45 5.196639908655035e-30
  outer loop
    vertex -22171.007241389594 27377.545284932618 10.99174682683833
    vertex -22171.007241389594 27377.79503598888 65.09469921408223
    vertex -22171.007241389594 27377.79503598888 10.388794439594633
  endloop
endfacet
facet normal -1.0 1.7340987123210653e-45 5.196639908655035e-30
  outer loop
    vertex -22171.007241389594 27377.79503598888 10.388794439594633
    vertex -22171.007241389594 27377.79503598888 65.09469921408223
    vertex -22171.007241389594 27377.88022142316 65.74174682683852
  endloop
endfacet
facet normal -1.0 1.7340987123210653e-45 5.196639908655035e-30
  outer loop
    vertex -22171.007241389594 27377.79503598888 10.388794439594633
    vertex -22171.007241389594 27377.88022142316 65.74174682683852
    vertex -22171.007241389594 27377.88022142316 9.741746826838334
  endloop
endfacet
facet normal 0.0 0.7885892442176283 0.6149203232161624
  outer loop
    vertex -22171.007241389594 27383.508459935903 67.1803218910042
    vertex -22168.007241389594 27384.63022142316 65.7417468268372
    vertex -22171.007241389594 27384.63022142316 65.7417468268372
  endloop
endfacet
facet normal 0.0 0.7885892442176283 0.6149203232161624
  outer loop
    vertex -22168.007241389594 27384.63022142316 65.7417468268372
    vertex -22171.007241389594 27383.508459935903 67.1803218910042
    vertex -22168.007241389594 27383.508459935903 67.1803218910042
  endloop
endfacet
facet normal 0.0 0.6767414358118831 0.736220774669712
  outer loop
    vertex -22168.007241389594 27382.165417463628 68.41485984797896
    vertex -22171.007241389594 27383.508459935903 67.1803218910042
    vertex -22171.007241389594 27382.165417463628 68.41485984797896
  endloop
endfacet
facet normal 0.0 0.6767414358118831 0.736220774669712
  outer loop
    vertex -22171.007241389594 27383.508459935903 67.1803218910042
    vertex -22168.007241389594 27382.165417463628 68.41485984797896
    vertex -22168.007241389594 27383.508459935903 67.1803218910042
  endloop
endfacet
facet normal 0.0 0.5464702000830638 0.837478549230472
  outer loop
    vertex -22168.007241389594 27380.63765663436 69.41175196756382
    vertex -22171.007241389594 27382.165417463628 68.41485984797896
    vertex -22171.007241389594 27380.63765663436 69.41175196756382
  endloop
endfacet
facet normal 0.0 0.5464702000830638 0.837478549230472
  outer loop
    vertex -22171.007241389594 27382.165417463628 68.41485984797896
    vertex -22168.007241389594 27380.63765663436 69.41175196756382
    vertex -22168.007241389594 27382.165417463628 68.41485984797896
  endloop
endfacet
facet normal 0.0 0.4013220062073043 0.9159370324065649
  outer loop
    vertex -22168.007241389594 27378.966768799117 70.14385912609391
    vertex -22171.007241389594 27380.63765663436 69.41175196756382
    vertex -22171.007241389594 27378.966768799117 70.14385912609391
  endloop
endfacet
facet normal 0.0 0.4013220062073043 0.9159370324065649
  outer loop
    vertex -22171.007241389594 27380.63765663436 69.41175196756382
    vertex -22168.007241389594 27378.966768799117 70.14385912609391
    vertex -22168.007241389594 27380.63765663436 69.41175196756382
  endloop
endfacet
facet normal 0.0 0.24524832968282995 0.9694602914961408
  outer loop
    vertex -22168.007241389594 27377.19824176014 70.59125063466026
    vertex -22171.007241389594 27378.966768799117 70.14385912609391
    vertex -22171.007241389594 27377.19824176014 70.59125063466026
  endloop
endfacet
facet normal 0.0 0.24524832968282995 0.9694602914961408
  outer loop
    vertex -22171.007241389594 27378.966768799117 70.14385912609391
    vertex -22168.007241389594 27377.19824176014 70.59125063466026
    vertex -22168.007241389594 27378.966768799117 70.14385912609391
  endloop
endfacet
facet normal 0.0 0.08249807841347154 0.9965912236509435
  outer loop
    vertex -22168.007241389594 27375.38022142316 70.74174682683852
    vertex -22171.007241389594 27377.19824176014 70.59125063466026
    vertex -22171.007241389594 27375.38022142316 70.74174682683852
  endloop
endfacet
facet normal 0.0 0.08249807841347154 0.9965912236509435
  outer loop
    vertex -22171.007241389594 27377.19824176014 70.59125063466026
    vertex -22168.007241389594 27375.38022142316 70.74174682683852
    vertex -22168.007241389594 27377.19824176014 70.59125063466026
  endloop
endfacet
facet normal 0.0 -0.0824980784134493 0.9965912236509452
  outer loop
    vertex -22168.007241389594 27373.56220108618 70.59125063466078
    vertex -22171.007241389594 27375.38022142316 70.74174682683852
    vertex -22171.007241389594 27373.56220108618 70.59125063466078
  endloop
endfacet
facet normal 0.0 -0.0824980784134493 0.9965912236509452
  outer loop
    vertex -22171.007241389594 27375.38022142316 70.74174682683852
    vertex -22168.007241389594 27373.56220108618 70.59125063466078
    vertex -22168.007241389594 27375.38022142316 70.74174682683852
  endloop
endfacet
facet normal 0.0 -0.2452483296818157 0.9694602914963972
  outer loop
    vertex -22168.007241389594 27371.7936740472 70.14385912609495
    vertex -22171.007241389594 27373.56220108618 70.59125063466078
    vertex -22171.007241389594 27371.7936740472 70.14385912609495
  endloop
endfacet
facet normal 0.0 -0.2452483296818157 0.9694602914963972
  outer loop
    vertex -22171.007241389594 27373.56220108618 70.59125063466078
    vertex -22168.007241389594 27371.7936740472 70.14385912609495
    vertex -22168.007241389594 27373.56220108618 70.59125063466078
  endloop
endfacet
facet normal 0.0 -0.4013220062070812 0.9159370324066626
  outer loop
    vertex -22168.007241389594 27370.122786211952 69.41175196756532
    vertex -22171.007241389594 27371.7936740472 70.14385912609495
    vertex -22171.007241389594 27370.122786211952 69.41175196756532
  endloop
endfacet
facet normal 0.0 -0.4013220062070812 0.9159370324066626
  outer loop
    vertex -22171.007241389594 27371.7936740472 70.14385912609495
    vertex -22168.007241389594 27370.122786211952 69.41175196756532
    vertex -22168.007241389594 27371.7936740472 70.14385912609495
  endloop
endfacet
facet normal 0.0 -0.5464702000828947 0.8374785492305824
  outer loop
    vertex -22168.007241389594 27368.595025382685 68.4148598479809
    vertex -22171.007241389594 27370.122786211952 69.41175196756532
    vertex -22171.007241389594 27368.595025382685 68.4148598479809
  endloop
endfacet
facet normal 0.0 -0.5464702000828947 0.8374785492305824
  outer loop
    vertex -22171.007241389594 27370.122786211952 69.41175196756532
    vertex -22168.007241389594 27368.595025382685 68.4148598479809
    vertex -22168.007241389594 27370.122786211952 69.41175196756532
  endloop
endfacet
facet normal 0.0 -0.6767414358133466 0.736220774668367
  outer loop
    vertex -22168.007241389594 27367.251982910417 67.18032189100654
    vertex -22171.007241389594 27368.595025382685 68.4148598479809
    vertex -22171.007241389594 27367.251982910417 67.18032189100654
  endloop
endfacet
facet normal 0.0 -0.6767414358133466 0.736220774668367
  outer loop
    vertex -22171.007241389594 27368.595025382685 68.4148598479809
    vertex -22168.007241389594 27367.251982910417 67.18032189100654
    vertex -22168.007241389594 27368.595025382685 68.4148598479809
  endloop
endfacet
facet normal 0.0 -0.7885892442175628 0.6149203232162465
  outer loop
    vertex -22168.007241389594 27367.251982910417 67.18032189100654
    vertex -22171.007241389594 27366.130221423162 65.74174682683986
    vertex -22168.007241389594 27366.130221423162 65.74174682683986
  endloop
endfacet
facet normal 0.0 -0.7885892442175628 0.6149203232162465
  outer loop
    vertex -22171.007241389594 27366.130221423162 65.74174682683986
    vertex -22168.007241389594 27367.251982910417 67.18032189100654
    vertex -22171.007241389594 27367.251982910417 67.18032189100654
  endloop
endfacet
facet normal 0.0 -0.7885892442175623 -0.6149203232162472
  outer loop
    vertex -22168.007241389594 27366.130221423162 9.74174682683701
    vertex -22171.007241389594 27367.251982910417 8.303171762670331
    vertex -22168.007241389594 27367.251982910417 8.303171762670331
  endloop
endfacet
facet normal 0.0 -0.7885892442175623 -0.6149203232162472
  outer loop
    vertex -22171.007241389594 27367.251982910417 8.303171762670331
    vertex -22168.007241389594 27366.130221423162 9.74174682683701
    vertex -22171.007241389594 27366.130221423162 9.74174682683701
  endloop
endfacet
facet normal -0.0 -0.6767414358133481 -0.7362207746683653
  outer loop
    vertex -22168.007241389594 27368.595025382685 7.068633805695956
    vertex -22171.007241389594 27367.251982910417 8.303171762670331
    vertex -22171.007241389594 27368.595025382685 7.068633805695956
  endloop
endfacet
facet normal -0.0 -0.6767414358133481 -0.7362207746683653
  outer loop
    vertex -22171.007241389594 27367.251982910417 8.303171762670331
    vertex -22168.007241389594 27368.595025382685 7.068633805695956
    vertex -22168.007241389594 27367.251982910417 8.303171762670331
  endloop
endfacet
facet normal -0.0 -0.5464702000828958 -0.8374785492305817
  outer loop
    vertex -22168.007241389594 27370.122786211952 6.071741686111537
    vertex -22171.007241389594 27368.595025382685 7.068633805695956
    vertex -22171.007241389594 27370.122786211952 6.071741686111537
  endloop
endfacet
facet normal -0.0 -0.5464702000828958 -0.8374785492305817
  outer loop
    vertex -22171.007241389594 27368.595025382685 7.068633805695956
    vertex -22168.007241389594 27370.122786211952 6.071741686111537
    vertex -22168.007241389594 27368.595025382685 7.068633805695956
  endloop
endfacet
facet normal -0.0 -0.40132200620708314 -0.9159370324066617
  outer loop
    vertex -22168.007241389594 27371.7936740472 5.339634527581913
    vertex -22171.007241389594 27370.122786211952 6.071741686111537
    vertex -22171.007241389594 27371.7936740472 5.339634527581913
  endloop
endfacet
facet normal -0.0 -0.40132200620708314 -0.9159370324066617
  outer loop
    vertex -22171.007241389594 27370.122786211952 6.071741686111537
    vertex -22168.007241389594 27371.7936740472 5.339634527581913
    vertex -22168.007241389594 27370.122786211952 6.071741686111537
  endloop
endfacet
facet normal -0.0 -0.24524832968181934 -0.9694602914963962
  outer loop
    vertex -22168.007241389594 27373.56220108618 4.892243019016071
    vertex -22171.007241389594 27371.7936740472 5.339634527581913
    vertex -22171.007241389594 27373.56220108618 4.892243019016071
  endloop
endfacet
facet normal -0.0 -0.24524832968181934 -0.9694602914963962
  outer loop
    vertex -22171.007241389594 27371.7936740472 5.339634527581913
    vertex -22168.007241389594 27373.56220108618 4.892243019016071
    vertex -22168.007241389594 27371.7936740472 5.339634527581913
  endloop
endfacet
facet normal 0.0 -0.08249807841344473 -0.9965912236509457
  outer loop
    vertex -22168.007241389594 27375.38022142316 4.741746826838331
    vertex -22171.007241389594 27373.56220108618 4.892243019016071
    vertex -22171.007241389594 27375.38022142316 4.741746826838331
  endloop
endfacet
facet normal 0.0 -0.08249807841344473 -0.9965912236509457
  outer loop
    vertex -22171.007241389594 27373.56220108618 4.892243019016071
    vertex -22168.007241389594 27375.38022142316 4.741746826838331
    vertex -22168.007241389594 27373.56220108618 4.892243019016071
  endloop
endfacet
facet normal 0.0 0.08249807841346847 -0.9965912236509438
  outer loop
    vertex -22168.007241389594 27377.19824176014 4.892243019016592
    vertex -22171.007241389594 27375.38022142316 4.741746826838331
    vertex -22171.007241389594 27377.19824176014 4.892243019016592
  endloop
endfacet
facet normal 0.0 0.08249807841346847 -0.9965912236509438
  outer loop
    vertex -22171.007241389594 27375.38022142316 4.741746826838331
    vertex -22168.007241389594 27377.19824176014 4.892243019016592
    vertex -22168.007241389594 27375.38022142316 4.741746826838331
  endloop
endfacet
facet normal 0.0 0.24524832968283286 -0.96946029149614
  outer loop
    vertex -22168.007241389594 27378.966768799117 5.33963452758294
    vertex -22171.007241389594 27377.19824176014 4.892243019016592
    vertex -22171.007241389594 27378.966768799117 5.33963452758294
  endloop
endfacet
facet normal 0.0 0.24524832968283286 -0.96946029149614
  outer loop
    vertex -22171.007241389594 27377.19824176014 4.892243019016592
    vertex -22168.007241389594 27378.966768799117 5.33963452758294
    vertex -22168.007241389594 27377.19824176014 4.892243019016592
  endloop
endfacet
facet normal 0.0 0.40132200620730235 -0.9159370324065658
  outer loop
    vertex -22168.007241389594 27380.63765663436 6.071741686113041
    vertex -22171.007241389594 27378.966768799117 5.33963452758294
    vertex -22171.007241389594 27380.63765663436 6.071741686113041
  endloop
endfacet
facet normal 0.0 0.40132200620730235 -0.9159370324065658
  outer loop
    vertex -22171.007241389594 27378.966768799117 5.33963452758294
    vertex -22168.007241389594 27380.63765663436 6.071741686113041
    vertex -22168.007241389594 27378.966768799117 5.33963452758294
  endloop
endfacet
facet normal 0.0 0.5464702000830649 -0.8374785492304714
  outer loop
    vertex -22168.007241389594 27382.165417463628 7.068633805697901
    vertex -22171.007241389594 27380.63765663436 6.071741686113041
    vertex -22171.007241389594 27382.165417463628 7.068633805697901
  endloop
endfacet
facet normal 0.0 0.5464702000830649 -0.8374785492304714
  outer loop
    vertex -22171.007241389594 27380.63765663436 6.071741686113041
    vertex -22168.007241389594 27382.165417463628 7.068633805697901
    vertex -22168.007241389594 27380.63765663436 6.071741686113041
  endloop
endfacet
facet normal 0.0 0.6767414358118848 -0.7362207746697106
  outer loop
    vertex -22168.007241389594 27383.508459935903 8.303171762672658
    vertex -22171.007241389594 27382.165417463628 7.068633805697901
    vertex -22171.007241389594 27383.508459935903 8.303171762672658
  endloop
endfacet
facet normal 0.0 0.6767414358118848 -0.7362207746697106
  outer loop
    vertex -22171.007241389594 27382.165417463628 7.068633805697901
    vertex -22168.007241389594 27383.508459935903 8.303171762672658
    vertex -22168.007241389594 27382.165417463628 7.068633805697901
  endloop
endfacet
facet normal 0.0 0.7885892442176283 -0.6149203232161624
  outer loop
    vertex -22171.007241389594 27384.63022142316 9.741746826839657
    vertex -22168.007241389594 27383.508459935903 8.303171762672658
    vertex -22171.007241389594 27383.508459935903 8.303171762672658
  endloop
endfacet
facet normal 0.0 0.7885892442176283 -0.6149203232161624
  outer loop
    vertex -22168.007241389594 27383.508459935903 8.303171762672658
    vertex -22171.007241389594 27384.63022142316 9.741746826839657
    vertex -22168.007241389594 27384.63022142316 9.741746826839657
  endloop
endfacet
facet normal 1.0 0.0 0.0
  outer loop
    vertex -22168.007241389594 27380.630221423155 18.741746826838337
    vertex -22168.007241389594 27370.130221423165 56.74174682683853
    vertex -22168.007241389594 27370.130221423165 18.741746826838337
  endloop
endfacet
facet normal 1.0 0.0 0.0
  outer loop
    vertex -22168.007241389594 27370.130221423165 56.74174682683853
    vertex -22168.007241389594 27380.630221423155 18.741746826838337
    vertex -22168.007241389594 27380.630221423155 56.74174682683853
  endloop
endfacet
facet normal 1.0 0.0 0.0
  outer loop
    vertex -22155.007241389594 27367.130221423165 15.741746826838336
    vertex -22155.007241389594 27370.130221423165 18.741746826838337
    vertex -22155.007241389594 27367.130221423165 59.74174682683853
  endloop
endfacet
facet normal 1.0 0.0 0.0
  outer loop
    vertex -22155.007241389594 27370.130221423165 18.741746826838337
    vertex -22155.007241389594 27367.130221423165 15.741746826838336
    vertex -22155.007241389594 27383.630221423155 15.741746826838336
  endloop
endfacet
facet normal 1.0 0.0 0.0
  outer loop
    vertex -22155.007241389594 27370.130221423165 18.741746826838337
    vertex -22155.007241389594 27383.630221423155 15.741746826838336
    vertex -22155.007241389594 27380.630221423155 18.741746826838337
  endloop
endfacet
facet normal 1.0 0.0 0.0
  outer loop
    vertex -22155.007241389594 27380.630221423155 18.741746826838337
    vertex -22155.007241389594 27383.630221423155 15.741746826838336
    vertex -22155.007241389594 27380.630221423155 56.74174682683853
  endloop
endfacet
facet normal 1.0 0.0 0.0
  outer loop
    vertex -22155.007241389594 27367.130221423165 59.74174682683853
    vertex -22155.007241389594 27370.130221423165 56.74174682683853
    vertex -22155.007241389594 27383.630221423155 59.74174682683853
  endloop
endfacet
facet normal 1.0 0.0 0.0
  outer loop
    vertex -22155.007241389594 27370.130221423165 56.74174682683853
    vertex -22155.007241389594 27367.130221423165 59.74174682683853
    vertex -22155.007241389594 27370.130221423165 18.741746826838337
  endloop
endfacet
facet normal 1.0 0.0 0.0
  outer loop
    vertex -22155.007241389594 27383.630221423155 59.74174682683853
    vertex -22155.007241389594 27370.130221423165 56.74174682683853
    vertex -22155.007241389594 27380.630221423155 56.74174682683853
  endloop
endfacet
facet normal 1.0 0.0 0.0
  outer loop
    vertex -22155.007241389594 27383.630221423155 59.74174682683853
    vertex -22155.007241389594 27380.630221423155 56.74174682683853
    vertex -22155.007241389594 27383.630221423155 15.741746826838336
  endloop
endfacet
facet normal 0.0 0.0 1.0
  outer loop
    vertex -22155.007241389594 27367.130221423165 59.74174682683853
    vertex -22168.007241389594 27383.630221423155 59.74174682683853
    vertex -22168.007241389594 27367.130221423165 59.74174682683853
  endloop
endfacet
facet normal 0.0 0.0 1.0
  outer loop
    vertex -22168.007241389594 27383.630221423155 59.74174682683853
    vertex -22155.007241389594 27367.130221423165 59.74174682683853
    vertex -22155.007241389594 27383.630221423155 59.74174682683853
  endloop
endfacet
facet normal -0.0 -1.0 -0.0
  outer loop
    vertex -22155.007241389594 27367.130221423165 59.74174682683853
    vertex -22168.007241389594 27367.130221423165 15.741746826838336
    vertex -22155.007241389594 27367.130221423165 15.741746826838336
  endloop
endfacet
facet normal -0.0 -1.0 -0.0
  outer loop
    vertex -22168.007241389594 27367.130221423165 15.741746826838336
    vertex -22155.007241389594 27367.130221423165 59.74174682683853
    vertex -22168.007241389594 27367.130221423165 59.74174682683853
  endloop
endfacet
facet normal 0.0 0.0 -1.0
  outer loop
    vertex -22155.007241389594 27383.630221423155 15.741746826838336
    vertex -22168.007241389594 27367.130221423165 15.741746826838336
    vertex -22168.007241389594 27383.630221423155 15.741746826838336
  endloop
endfacet
facet normal 0.0 0.0 -1.0
  outer loop
    vertex -22168.007241389594 27367.130221423165 15.741746826838336
    vertex -22155.007241389594 27383.630221423155 15.741746826838336
    vertex -22155.007241389594 27367.130221423165 15.741746826838336
  endloop
endfacet
facet normal 0.0 1.0 0.0
  outer loop
    vertex -22168.007241389594 27383.630221423155 59.74174682683853
    vertex -22155.007241389594 27383.630221423155 15.741746826838336
    vertex -22168.007241389594 27383.630221423155 15.741746826838336
  endloop
endfacet
facet normal 0.0 1.0 0.0
  outer loop
    vertex -22155.007241389594 27383.630221423155 15.741746826838336
    vertex -22168.007241389594 27383.630221423155 59.74174682683853
    vertex -22155.007241389594 27383.630221423155 59.74174682683853
  endloop
endfacet
facet normal 0.0 0.0 1.0
  outer loop
    vertex -22155.007241389594 27370.130221423165 18.741746826838337
    vertex -22168.007241389594 27380.630221423155 18.741746826838337
    vertex -22168.007241389594 27370.130221423165 18.741746826838337
  endloop
endfacet
facet normal 0.0 0.0 1.0
  outer loop
    vertex -22168.007241389594 27380.630221423155 18.741746826838337
    vertex -22155.007241389594 27370.130221423165 18.741746826838337
    vertex -22155.007241389594 27380.630221423155 18.741746826838337
  endloop
endfacet
facet normal 0.0 1.0 0.0
  outer loop
    vertex -22168.007241389594 27370.130221423165 56.74174682683853
    vertex -22155.007241389594 27370.130221423165 18.741746826838337
    vertex -22168.007241389594 27370.130221423165 18.741746826838337
  endloop
endfacet
facet normal 0.0 1.0 0.0
  outer loop
    vertex -22155.007241389594 27370.130221423165 18.741746826838337
    vertex -22168.007241389594 27370.130221423165 56.74174682683853
    vertex -22155.007241389594 27370.130221423165 56.74174682683853
  endloop
endfacet
facet normal 0.0 0.0 -1.0
  outer loop
    vertex -22155.007241389594 27380.630221423155 56.74174682683853
    vertex -22168.007241389594 27370.130221423165 56.74174682683853
    vertex -22168.007241389594 27380.630221423155 56.74174682683853
  endloop
endfacet
facet normal 0.0 0.0 -1.0
  outer loop
    vertex -22168.007241389594 27370.130221423165 56.74174682683853
    vertex -22155.007241389594 27380.630221423155 56.74174682683853
    vertex -22155.007241389594 27370.130221423165 56.74174682683853
  endloop
endfacet
facet normal -0.0 -1.0 -0.0
  outer loop
    vertex -22155.007241389594 27380.630221423155 56.74174682683853
    vertex -22168.007241389594 27380.630221423155 18.741746826838337
    vertex -22155.007241389594 27380.630221423155 18.741746826838337
  endloop
endfacet
facet normal -0.0 -1.0 -0.0
  outer loop
    vertex -22168.007241389594 27380.630221423155 18.741746826838337
    vertex -22155.007241389594 27380.630221423155 56.74174682683853
    vertex -22168.007241389594 27380.630221423155 56.74174682683853
  endloop
endfacet
endsolid Main
