solid [0011]
facet normal 0.0 -1.0 0.0
  outer loop
    vertex -22296.52589066821 27512.057819452275 0.0
    vertex -22301.900890668214 27512.057819452275 7.185417437700577
    vertex -22313.52589066821 27512.057819452275 0.0
  endloop
endfacet
facet normal 0.0 -1.0 0.0
  outer loop
    vertex -22301.900890668214 27512.057819452275 7.185417437700577
    vertex -22296.52589066821 27512.057819452275 0.0
    vertex -22301.227793629358 27512.057819452275 7.7019029611437215
  endloop
endfacet
facet normal 0.0 -1.0 0.0
  outer loop
    vertex -22301.227793629358 27512.057819452275 7.7019029611437215
    vertex -22296.52589066821 27512.057819452275 0.0
    vertex -22300.71130810591 27512.057819452275 8.375000000000002
  endloop
endfacet
facet normal 0.0 -1.0 0.0
  outer loop
    vertex -22300.71130810591 27512.057819452275 8.375000000000002
    vertex -22296.52589066821 27512.057819452275 0.0
    vertex -22300.38663173277 27512.057819452275 9.158838103416809
  endloop
endfacet
facet normal 0.0 -1.0 0.0
  outer loop
    vertex -22300.38663173277 27512.057819452275 9.158838103416809
    vertex -22296.52589066821 27512.057819452275 0.0
    vertex -22296.52589066821 27512.057819452275 20.0
  endloop
endfacet
facet normal 0.0 -1.0 0.0
  outer loop
    vertex -22313.52589066821 27512.057819452275 0.0
    vertex -22301.900890668214 27512.057819452275 7.185417437700577
    vertex -22302.684728771626 27512.057819452275 6.86074106456053
  endloop
endfacet
facet normal 0.0 -1.0 0.0
  outer loop
    vertex -22313.52589066821 27512.057819452275 0.0
    vertex -22302.684728771626 27512.057819452275 6.86074106456053
    vertex -22303.52589066821 27512.057819452275 6.750000000000002
  endloop
endfacet
facet normal 0.0 -1.0 0.0
  outer loop
    vertex -22300.38663173277 27512.057819452275 9.158838103416809
    vertex -22296.52589066821 27512.057819452275 20.0
    vertex -22300.27589066821 27512.057819452275 10.0
  endloop
endfacet
facet normal 0.0 -1.0 0.0
  outer loop
    vertex -22300.27589066821 27512.057819452275 10.0
    vertex -22296.52589066821 27512.057819452275 20.0
    vertex -22300.38663173277 27512.057819452275 10.841161896583191
  endloop
endfacet
facet normal 0.0 -1.0 0.0
  outer loop
    vertex -22300.38663173277 27512.057819452275 10.841161896583191
    vertex -22296.52589066821 27512.057819452275 20.0
    vertex -22300.71130810591 27512.057819452275 11.625
  endloop
endfacet
facet normal 0.0 -1.0 0.0
  outer loop
    vertex -22300.71130810591 27512.057819452275 11.625
    vertex -22296.52589066821 27512.057819452275 20.0
    vertex -22301.227793629358 27512.057819452275 12.298097038856278
  endloop
endfacet
facet normal 0.0 -1.0 0.0
  outer loop
    vertex -22301.227793629358 27512.057819452275 12.298097038856278
    vertex -22296.52589066821 27512.057819452275 20.0
    vertex -22301.900890668214 27512.057819452275 12.814582562299424
  endloop
endfacet
facet normal 0.0 -1.0 0.0
  outer loop
    vertex -22301.900890668214 27512.057819452275 12.814582562299424
    vertex -22296.52589066821 27512.057819452275 20.0
    vertex -22302.684728771626 27512.057819452275 13.139258935439472
  endloop
endfacet
facet normal 0.0 -1.0 0.0
  outer loop
    vertex -22302.684728771626 27512.057819452275 13.139258935439472
    vertex -22296.52589066821 27512.057819452275 20.0
    vertex -22303.52589066821 27512.057819452275 13.249999999999998
  endloop
endfacet
facet normal 0.0 -1.0 0.0
  outer loop
    vertex -22313.52589066821 27512.057819452275 0.0
    vertex -22306.34047323051 27512.057819452275 8.374999999999998
    vertex -22313.52589066821 27512.057819452275 20.0
  endloop
endfacet
facet normal 0.0 -1.0 0.0
  outer loop
    vertex -22306.34047323051 27512.057819452275 8.374999999999998
    vertex -22313.52589066821 27512.057819452275 0.0
    vertex -22305.823987707066 27512.057819452275 7.701902961143721
  endloop
endfacet
facet normal 0.0 -1.0 0.0
  outer loop
    vertex -22305.823987707066 27512.057819452275 7.701902961143721
    vertex -22313.52589066821 27512.057819452275 0.0
    vertex -22305.15089066821 27512.057819452275 7.1854174377005755
  endloop
endfacet
facet normal 0.0 -1.0 0.0
  outer loop
    vertex -22305.15089066821 27512.057819452275 7.1854174377005755
    vertex -22313.52589066821 27512.057819452275 0.0
    vertex -22304.367052564794 27512.057819452275 6.8607410645605285
  endloop
endfacet
facet normal 0.0 -1.0 0.0
  outer loop
    vertex -22304.367052564794 27512.057819452275 6.8607410645605285
    vertex -22313.52589066821 27512.057819452275 0.0
    vertex -22303.52589066821 27512.057819452275 6.750000000000002
  endloop
endfacet
facet normal 0.0 -1.0 0.0
  outer loop
    vertex -22313.52589066821 27512.057819452275 20.0
    vertex -22306.34047323051 27512.057819452275 8.374999999999998
    vertex -22306.66514960365 27512.057819452275 9.158838103416805
  endloop
endfacet
facet normal 0.0 -1.0 0.0
  outer loop
    vertex -22313.52589066821 27512.057819452275 20.0
    vertex -22306.66514960365 27512.057819452275 9.158838103416805
    vertex -22306.77589066821 27512.057819452275 10.0
  endloop
endfacet
facet normal 0.0 -1.0 0.0
  outer loop
    vertex -22313.52589066821 27512.057819452275 20.0
    vertex -22306.77589066821 27512.057819452275 10.0
    vertex -22306.66514960365 27512.057819452275 10.841161896583191
  endloop
endfacet
facet normal 0.0 -1.0 0.0
  outer loop
    vertex -22313.52589066821 27512.057819452275 20.0
    vertex -22306.66514960365 27512.057819452275 10.841161896583191
    vertex -22306.34047323051 27512.057819452275 11.624999999999996
  endloop
endfacet
facet normal 0.0 -1.0 0.0
  outer loop
    vertex -22313.52589066821 27512.057819452275 20.0
    vertex -22306.34047323051 27512.057819452275 11.624999999999996
    vertex -22305.823987707066 27512.057819452275 12.298097038856278
  endloop
endfacet
facet normal 0.0 -1.0 0.0
  outer loop
    vertex -22313.52589066821 27512.057819452275 20.0
    vertex -22305.823987707066 27512.057819452275 12.298097038856278
    vertex -22305.15089066821 27512.057819452275 12.814582562299424
  endloop
endfacet
facet normal 0.0 -1.0 0.0
  outer loop
    vertex -22313.52589066821 27512.057819452275 20.0
    vertex -22305.15089066821 27512.057819452275 12.814582562299424
    vertex -22304.367052564794 27512.057819452275 13.139258935439468
  endloop
endfacet
facet normal 0.0 -1.0 0.0
  outer loop
    vertex -22313.52589066821 27512.057819452275 20.0
    vertex -22304.367052564794 27512.057819452275 13.139258935439468
    vertex -22303.52589066821 27512.057819452275 13.249999999999998
  endloop
endfacet
facet normal 0.0 -1.0 0.0
  outer loop
    vertex -22313.52589066821 27512.057819452275 20.0
    vertex -22303.52589066821 27512.057819452275 13.249999999999998
    vertex -22296.52589066821 27512.057819452275 20.0
  endloop
endfacet
facet normal -1.0 0.0 0.0
  outer loop
    vertex -22293.52589066821 27509.057819452275 20.0
    vertex -22293.52589066821 27481.057819452275 1.4099832412739487e-15
    vertex -22293.52589066821 27481.057819452275 20.0
  endloop
endfacet
facet normal -1.0 0.0 0.0
  outer loop
    vertex -22293.52589066821 27481.057819452275 1.4099832412739487e-15
    vertex -22293.52589066821 27509.057819452275 20.0
    vertex -22293.52589066821 27509.057819452275 0.0
  endloop
endfacet
facet normal 0.0 -1.0 0.0
  outer loop
    vertex -22208.52589066821 27478.057819452275 20.0
    vertex -22290.52589066821 27478.057819452275 1.4099832412739487e-15
    vertex -22208.52589066821 27478.057819452275 -1.4099832412739487e-15
  endloop
endfacet
facet normal 0.0 -1.0 0.0
  outer loop
    vertex -22290.52589066821 27478.057819452275 1.4099832412739487e-15
    vertex -22208.52589066821 27478.057819452275 20.0
    vertex -22290.52589066821 27478.057819452275 20.0
  endloop
endfacet
facet normal -1.0 0.0 0.0
  outer loop
    vertex -22313.52589066821 27515.057819452275 20.0
    vertex -22313.52589066821 27512.057819452275 0.0
    vertex -22313.52589066821 27512.057819452275 20.0
  endloop
endfacet
facet normal -1.0 0.0 0.0
  outer loop
    vertex -22313.52589066821 27512.057819452275 0.0
    vertex -22313.52589066821 27515.057819452275 20.0
    vertex -22313.52589066821 27515.057819452275 0.0
  endloop
endfacet
facet normal 1.0 0.0 0.0
  outer loop
    vertex -22185.52589066821 27515.057819452275 0.0
    vertex -22185.52589066821 27512.057819452275 20.0
    vertex -22185.52589066821 27512.057819452275 0.0
  endloop
endfacet
facet normal 1.0 0.0 0.0
  outer loop
    vertex -22185.52589066821 27512.057819452275 20.0
    vertex -22185.52589066821 27515.057819452275 0.0
    vertex -22185.52589066821 27515.057819452275 20.0
  endloop
endfacet
facet normal 0.0 1.0 0.0
  outer loop
    vertex -22208.52589066821 27515.057819452275 0.0
    vertex -22197.15089066821 27515.057819452268 7.1854174377005755
    vertex -22185.52589066821 27515.057819452275 0.0
  endloop
endfacet
facet normal 0.0 1.0 0.0
  outer loop
    vertex -22197.15089066821 27515.057819452268 7.1854174377005755
    vertex -22208.52589066821 27515.057819452275 0.0
    vertex -22197.823987707066 27515.057819452268 7.701902961143721
  endloop
endfacet
facet normal 0.0 1.0 0.0
  outer loop
    vertex -22197.823987707066 27515.057819452268 7.701902961143721
    vertex -22208.52589066821 27515.057819452275 0.0
    vertex -22208.52589066821 27515.057819452275 20.0
  endloop
endfacet
facet normal 0.0 1.0 0.0
  outer loop
    vertex -22185.52589066821 27515.057819452275 0.0
    vertex -22197.15089066821 27515.057819452268 7.1854174377005755
    vertex -22196.367052564794 27515.057819452268 6.8607410645605285
  endloop
endfacet
facet normal 0.0 1.0 0.0
  outer loop
    vertex -22185.52589066821 27515.057819452275 0.0
    vertex -22196.367052564794 27515.057819452268 6.8607410645605285
    vertex -22195.52589066821 27515.057819452268 6.750000000000002
  endloop
endfacet
facet normal 0.0 1.0 0.0
  outer loop
    vertex -22197.823987707066 27515.057819452268 7.701902961143721
    vertex -22208.52589066821 27515.057819452275 20.0
    vertex -22198.34047323051 27515.057819452268 8.374999999999998
  endloop
endfacet
facet normal 0.0 1.0 0.0
  outer loop
    vertex -22198.34047323051 27515.057819452268 8.374999999999998
    vertex -22208.52589066821 27515.057819452275 20.0
    vertex -22198.66514960365 27515.057819452268 9.158838103416805
  endloop
endfacet
facet normal 0.0 1.0 0.0
  outer loop
    vertex -22198.66514960365 27515.057819452268 9.158838103416805
    vertex -22208.52589066821 27515.057819452275 20.0
    vertex -22198.77589066821 27515.057819452268 10.0
  endloop
endfacet
facet normal 0.0 1.0 0.0
  outer loop
    vertex -22198.77589066821 27515.057819452268 10.0
    vertex -22208.52589066821 27515.057819452275 20.0
    vertex -22198.66514960365 27515.057819452268 10.841161896583191
  endloop
endfacet
facet normal 0.0 1.0 0.0
  outer loop
    vertex -22198.66514960365 27515.057819452268 10.841161896583191
    vertex -22208.52589066821 27515.057819452275 20.0
    vertex -22198.34047323051 27515.057819452268 11.624999999999996
  endloop
endfacet
facet normal 0.0 1.0 0.0
  outer loop
    vertex -22198.34047323051 27515.057819452268 11.624999999999996
    vertex -22208.52589066821 27515.057819452275 20.0
    vertex -22197.823987707066 27515.057819452268 12.298097038856278
  endloop
endfacet
facet normal 0.0 1.0 0.0
  outer loop
    vertex -22197.823987707066 27515.057819452268 12.298097038856278
    vertex -22208.52589066821 27515.057819452275 20.0
    vertex -22197.15089066821 27515.057819452268 12.814582562299424
  endloop
endfacet
facet normal 0.0 1.0 0.0
  outer loop
    vertex -22197.15089066821 27515.057819452268 12.814582562299424
    vertex -22208.52589066821 27515.057819452275 20.0
    vertex -22196.367052564794 27515.057819452268 13.139258935439468
  endloop
endfacet
facet normal 0.0 1.0 0.0
  outer loop
    vertex -22196.367052564794 27515.057819452268 13.139258935439468
    vertex -22208.52589066821 27515.057819452275 20.0
    vertex -22195.52589066821 27515.057819452268 13.249999999999998
  endloop
endfacet
facet normal 0.0 1.0 0.0
  outer loop
    vertex -22185.52589066821 27515.057819452275 0.0
    vertex -22192.71130810591 27515.057819452268 8.375000000000002
    vertex -22185.52589066821 27515.057819452275 20.0
  endloop
endfacet
facet normal 0.0 1.0 0.0
  outer loop
    vertex -22192.71130810591 27515.057819452268 8.375000000000002
    vertex -22185.52589066821 27515.057819452275 0.0
    vertex -22193.227793629354 27515.057819452268 7.7019029611437215
  endloop
endfacet
facet normal 0.0 1.0 0.0
  outer loop
    vertex -22193.227793629354 27515.057819452268 7.7019029611437215
    vertex -22185.52589066821 27515.057819452275 0.0
    vertex -22193.90089066821 27515.057819452268 7.185417437700577
  endloop
endfacet
facet normal 0.0 1.0 0.0
  outer loop
    vertex -22193.90089066821 27515.057819452268 7.185417437700577
    vertex -22185.52589066821 27515.057819452275 0.0
    vertex -22194.684728771626 27515.057819452268 6.86074106456053
  endloop
endfacet
facet normal 0.0 1.0 0.0
  outer loop
    vertex -22194.684728771626 27515.057819452268 6.86074106456053
    vertex -22185.52589066821 27515.057819452275 0.0
    vertex -22195.52589066821 27515.057819452268 6.750000000000002
  endloop
endfacet
facet normal 0.0 1.0 0.0
  outer loop
    vertex -22185.52589066821 27515.057819452275 20.0
    vertex -22192.71130810591 27515.057819452268 8.375000000000002
    vertex -22192.38663173277 27515.057819452268 9.158838103416809
  endloop
endfacet
facet normal 0.0 1.0 0.0
  outer loop
    vertex -22185.52589066821 27515.057819452275 20.0
    vertex -22192.38663173277 27515.057819452268 9.158838103416809
    vertex -22192.27589066821 27515.057819452268 10.0
  endloop
endfacet
facet normal 0.0 1.0 0.0
  outer loop
    vertex -22185.52589066821 27515.057819452275 20.0
    vertex -22192.27589066821 27515.057819452268 10.0
    vertex -22192.38663173277 27515.057819452268 10.841161896583191
  endloop
endfacet
facet normal 0.0 1.0 0.0
  outer loop
    vertex -22185.52589066821 27515.057819452275 20.0
    vertex -22192.38663173277 27515.057819452268 10.841161896583191
    vertex -22192.71130810591 27515.057819452268 11.625
  endloop
endfacet
facet normal 0.0 1.0 0.0
  outer loop
    vertex -22185.52589066821 27515.057819452275 20.0
    vertex -22192.71130810591 27515.057819452268 11.625
    vertex -22193.227793629354 27515.057819452268 12.298097038856278
  endloop
endfacet
facet normal 0.0 1.0 0.0
  outer loop
    vertex -22185.52589066821 27515.057819452275 20.0
    vertex -22193.227793629354 27515.057819452268 12.298097038856278
    vertex -22193.90089066821 27515.057819452268 12.814582562299424
  endloop
endfacet
facet normal 0.0 1.0 0.0
  outer loop
    vertex -22185.52589066821 27515.057819452275 20.0
    vertex -22193.90089066821 27515.057819452268 12.814582562299424
    vertex -22194.684728771626 27515.057819452268 13.139258935439472
  endloop
endfacet
facet normal 0.0 1.0 0.0
  outer loop
    vertex -22185.52589066821 27515.057819452275 20.0
    vertex -22194.684728771626 27515.057819452268 13.139258935439472
    vertex -22195.52589066821 27515.057819452268 13.249999999999998
  endloop
endfacet
facet normal 0.0 1.0 0.0
  outer loop
    vertex -22185.52589066821 27515.057819452275 20.0
    vertex -22195.52589066821 27515.057819452268 13.249999999999998
    vertex -22208.52589066821 27515.057819452275 20.0
  endloop
endfacet
facet normal 0.0 -1.0 0.0
  outer loop
    vertex -22185.52589066821 27512.057819452275 0.0
    vertex -22193.227793629354 27512.057819452275 7.7019029611437215
    vertex -22202.52589066821 27512.057819452275 0.0
  endloop
endfacet
facet normal 0.0 -1.0 0.0
  outer loop
    vertex -22193.227793629354 27512.057819452275 7.7019029611437215
    vertex -22185.52589066821 27512.057819452275 0.0
    vertex -22192.71130810591 27512.057819452275 8.375000000000002
  endloop
endfacet
facet normal 0.0 -1.0 0.0
  outer loop
    vertex -22192.71130810591 27512.057819452275 8.375000000000002
    vertex -22185.52589066821 27512.057819452275 0.0
    vertex -22185.52589066821 27512.057819452275 20.0
  endloop
endfacet
facet normal 0.0 -1.0 0.0
  outer loop
    vertex -22202.52589066821 27512.057819452275 0.0
    vertex -22193.227793629354 27512.057819452275 7.7019029611437215
    vertex -22193.90089066821 27512.057819452275 7.185417437700577
  endloop
endfacet
facet normal 0.0 -1.0 0.0
  outer loop
    vertex -22202.52589066821 27512.057819452275 0.0
    vertex -22193.90089066821 27512.057819452275 7.185417437700577
    vertex -22194.684728771626 27512.057819452275 6.86074106456053
  endloop
endfacet
facet normal 0.0 -1.0 0.0
  outer loop
    vertex -22202.52589066821 27512.057819452275 0.0
    vertex -22194.684728771626 27512.057819452275 6.86074106456053
    vertex -22195.52589066821 27512.057819452275 6.750000000000002
  endloop
endfacet
facet normal 0.0 -1.0 0.0
  outer loop
    vertex -22192.71130810591 27512.057819452275 8.375000000000002
    vertex -22185.52589066821 27512.057819452275 20.0
    vertex -22192.38663173277 27512.057819452275 9.158838103416809
  endloop
endfacet
facet normal 0.0 -1.0 0.0
  outer loop
    vertex -22192.38663173277 27512.057819452275 9.158838103416809
    vertex -22185.52589066821 27512.057819452275 20.0
    vertex -22192.27589066821 27512.057819452275 10.0
  endloop
endfacet
facet normal 0.0 -1.0 0.0
  outer loop
    vertex -22192.27589066821 27512.057819452275 10.0
    vertex -22185.52589066821 27512.057819452275 20.0
    vertex -22192.38663173277 27512.057819452275 10.841161896583191
  endloop
endfacet
facet normal 0.0 -1.0 0.0
  outer loop
    vertex -22192.38663173277 27512.057819452275 10.841161896583191
    vertex -22185.52589066821 27512.057819452275 20.0
    vertex -22192.71130810591 27512.057819452275 11.625
  endloop
endfacet
facet normal 0.0 -1.0 0.0
  outer loop
    vertex -22192.71130810591 27512.057819452275 11.625
    vertex -22185.52589066821 27512.057819452275 20.0
    vertex -22193.227793629354 27512.057819452275 12.298097038856278
  endloop
endfacet
facet normal 0.0 -1.0 0.0
  outer loop
    vertex -22193.227793629354 27512.057819452275 12.298097038856278
    vertex -22185.52589066821 27512.057819452275 20.0
    vertex -22193.90089066821 27512.057819452275 12.814582562299424
  endloop
endfacet
facet normal 0.0 -1.0 0.0
  outer loop
    vertex -22193.90089066821 27512.057819452275 12.814582562299424
    vertex -22185.52589066821 27512.057819452275 20.0
    vertex -22194.684728771626 27512.057819452275 13.139258935439472
  endloop
endfacet
facet normal 0.0 -1.0 0.0
  outer loop
    vertex -22194.684728771626 27512.057819452275 13.139258935439472
    vertex -22185.52589066821 27512.057819452275 20.0
    vertex -22195.52589066821 27512.057819452275 13.249999999999998
  endloop
endfacet
facet normal 0.0 -1.0 0.0
  outer loop
    vertex -22202.52589066821 27512.057819452275 0.0
    vertex -22198.66514960365 27512.057819452275 9.158838103416805
    vertex -22202.52589066821 27512.057819452275 20.0
  endloop
endfacet
facet normal 0.0 -1.0 0.0
  outer loop
    vertex -22198.66514960365 27512.057819452275 9.158838103416805
    vertex -22202.52589066821 27512.057819452275 0.0
    vertex -22198.34047323051 27512.057819452275 8.374999999999998
  endloop
endfacet
facet normal 0.0 -1.0 0.0
  outer loop
    vertex -22198.34047323051 27512.057819452275 8.374999999999998
    vertex -22202.52589066821 27512.057819452275 0.0
    vertex -22197.823987707066 27512.057819452275 7.701902961143721
  endloop
endfacet
facet normal 0.0 -1.0 0.0
  outer loop
    vertex -22197.823987707066 27512.057819452275 7.701902961143721
    vertex -22202.52589066821 27512.057819452275 0.0
    vertex -22197.15089066821 27512.057819452275 7.1854174377005755
  endloop
endfacet
facet normal 0.0 -1.0 0.0
  outer loop
    vertex -22197.15089066821 27512.057819452275 7.1854174377005755
    vertex -22202.52589066821 27512.057819452275 0.0
    vertex -22196.367052564794 27512.057819452275 6.8607410645605285
  endloop
endfacet
facet normal 0.0 -1.0 0.0
  outer loop
    vertex -22196.367052564794 27512.057819452275 6.8607410645605285
    vertex -22202.52589066821 27512.057819452275 0.0
    vertex -22195.52589066821 27512.057819452275 6.750000000000002
  endloop
endfacet
facet normal 0.0 -1.0 0.0
  outer loop
    vertex -22202.52589066821 27512.057819452275 20.0
    vertex -22198.66514960365 27512.057819452275 9.158838103416805
    vertex -22198.77589066821 27512.057819452275 10.0
  endloop
endfacet
facet normal 0.0 -1.0 0.0
  outer loop
    vertex -22202.52589066821 27512.057819452275 20.0
    vertex -22198.77589066821 27512.057819452275 10.0
    vertex -22198.66514960365 27512.057819452275 10.841161896583191
  endloop
endfacet
facet normal 0.0 -1.0 0.0
  outer loop
    vertex -22202.52589066821 27512.057819452275 20.0
    vertex -22198.66514960365 27512.057819452275 10.841161896583191
    vertex -22198.34047323051 27512.057819452275 11.624999999999996
  endloop
endfacet
facet normal 0.0 -1.0 0.0
  outer loop
    vertex -22202.52589066821 27512.057819452275 20.0
    vertex -22198.34047323051 27512.057819452275 11.624999999999996
    vertex -22197.823987707066 27512.057819452275 12.298097038856278
  endloop
endfacet
facet normal 0.0 -1.0 0.0
  outer loop
    vertex -22202.52589066821 27512.057819452275 20.0
    vertex -22197.823987707066 27512.057819452275 12.298097038856278
    vertex -22197.15089066821 27512.057819452275 12.814582562299424
  endloop
endfacet
facet normal 0.0 -1.0 0.0
  outer loop
    vertex -22202.52589066821 27512.057819452275 20.0
    vertex -22197.15089066821 27512.057819452275 12.814582562299424
    vertex -22196.367052564794 27512.057819452275 13.139258935439468
  endloop
endfacet
facet normal 0.0 -1.0 0.0
  outer loop
    vertex -22202.52589066821 27512.057819452275 20.0
    vertex -22196.367052564794 27512.057819452275 13.139258935439468
    vertex -22195.52589066821 27512.057819452275 13.249999999999998
  endloop
endfacet
facet normal 0.0 -1.0 0.0
  outer loop
    vertex -22202.52589066821 27512.057819452275 20.0
    vertex -22195.52589066821 27512.057819452275 13.249999999999998
    vertex -22185.52589066821 27512.057819452275 20.0
  endloop
endfacet
facet normal 1.0 0.0 0.0
  outer loop
    vertex -22290.52589066821 27515.057819452275 0.0
    vertex -22290.52589066821 27484.057819452275 20.0
    vertex -22290.52589066821 27484.057819452275 0.0
  endloop
endfacet
facet normal 1.0 0.0 0.0
  outer loop
    vertex -22290.52589066821 27484.057819452275 20.0
    vertex -22290.52589066821 27515.057819452275 0.0
    vertex -22290.52589066821 27515.057819452275 20.0
  endloop
endfacet
facet normal 1.0 0.0 0.0
  outer loop
    vertex -22205.52589066821 27509.057819452275 0.0
    vertex -22205.52589066821 27481.057819452275 20.0
    vertex -22205.52589066821 27481.057819452275 -1.4099832412739487e-15
  endloop
endfacet
facet normal 1.0 0.0 0.0
  outer loop
    vertex -22205.52589066821 27481.057819452275 20.0
    vertex -22205.52589066821 27509.057819452275 0.0
    vertex -22205.52589066821 27509.057819452275 20.0
  endloop
endfacet
facet normal 0.0 1.0 0.0
  outer loop
    vertex -22287.52589066821 27481.057819452275 20.0
    vertex -22211.52589066821 27481.057819452275 0.0
    vertex -22287.52589066821 27481.057819452275 0.0
  endloop
endfacet
facet normal 0.0 1.0 0.0
  outer loop
    vertex -22211.52589066821 27481.057819452275 0.0
    vertex -22287.52589066821 27481.057819452275 20.0
    vertex -22211.52589066821 27481.057819452275 20.0
  endloop
endfacet
facet normal 0.0 1.0 0.0
  outer loop
    vertex -22313.52589066821 27515.057819452275 0.0
    vertex -22305.15089066821 27515.057819452268 7.1854174377005755
    vertex -22290.52589066821 27515.057819452275 0.0
  endloop
endfacet
facet normal 0.0 1.0 0.0
  outer loop
    vertex -22305.15089066821 27515.057819452268 7.1854174377005755
    vertex -22313.52589066821 27515.057819452275 0.0
    vertex -22305.823987707066 27515.057819452268 7.701902961143721
  endloop
endfacet
facet normal 0.0 1.0 0.0
  outer loop
    vertex -22305.823987707066 27515.057819452268 7.701902961143721
    vertex -22313.52589066821 27515.057819452275 0.0
    vertex -22306.34047323051 27515.057819452268 8.374999999999998
  endloop
endfacet
facet normal 0.0 1.0 0.0
  outer loop
    vertex -22306.34047323051 27515.057819452268 8.374999999999998
    vertex -22313.52589066821 27515.057819452275 0.0
    vertex -22313.52589066821 27515.057819452275 20.0
  endloop
endfacet
facet normal 0.0 1.0 0.0
  outer loop
    vertex -22290.52589066821 27515.057819452275 0.0
    vertex -22305.15089066821 27515.057819452268 7.1854174377005755
    vertex -22304.367052564794 27515.057819452268 6.8607410645605285
  endloop
endfacet
facet normal 0.0 1.0 0.0
  outer loop
    vertex -22290.52589066821 27515.057819452275 0.0
    vertex -22304.367052564794 27515.057819452268 6.8607410645605285
    vertex -22303.52589066821 27515.057819452268 6.750000000000002
  endloop
endfacet
facet normal 0.0 1.0 0.0
  outer loop
    vertex -22306.34047323051 27515.057819452268 8.374999999999998
    vertex -22313.52589066821 27515.057819452275 20.0
    vertex -22306.66514960365 27515.057819452268 9.158838103416805
  endloop
endfacet
facet normal 0.0 1.0 0.0
  outer loop
    vertex -22306.66514960365 27515.057819452268 9.158838103416805
    vertex -22313.52589066821 27515.057819452275 20.0
    vertex -22306.77589066821 27515.057819452268 10.0
  endloop
endfacet
facet normal 0.0 1.0 0.0
  outer loop
    vertex -22306.77589066821 27515.057819452268 10.0
    vertex -22313.52589066821 27515.057819452275 20.0
    vertex -22306.66514960365 27515.057819452268 10.841161896583191
  endloop
endfacet
facet normal 0.0 1.0 0.0
  outer loop
    vertex -22306.66514960365 27515.057819452268 10.841161896583191
    vertex -22313.52589066821 27515.057819452275 20.0
    vertex -22306.34047323051 27515.057819452268 11.624999999999996
  endloop
endfacet
facet normal 0.0 1.0 0.0
  outer loop
    vertex -22306.34047323051 27515.057819452268 11.624999999999996
    vertex -22313.52589066821 27515.057819452275 20.0
    vertex -22305.823987707066 27515.057819452268 12.298097038856278
  endloop
endfacet
facet normal 0.0 1.0 0.0
  outer loop
    vertex -22305.823987707066 27515.057819452268 12.298097038856278
    vertex -22313.52589066821 27515.057819452275 20.0
    vertex -22305.15089066821 27515.057819452268 12.814582562299424
  endloop
endfacet
facet normal 0.0 1.0 0.0
  outer loop
    vertex -22305.15089066821 27515.057819452268 12.814582562299424
    vertex -22313.52589066821 27515.057819452275 20.0
    vertex -22304.367052564794 27515.057819452268 13.139258935439468
  endloop
endfacet
facet normal 0.0 1.0 0.0
  outer loop
    vertex -22304.367052564794 27515.057819452268 13.139258935439468
    vertex -22313.52589066821 27515.057819452275 20.0
    vertex -22303.52589066821 27515.057819452268 13.249999999999998
  endloop
endfacet
facet normal 0.0 1.0 0.0
  outer loop
    vertex -22290.52589066821 27515.057819452275 0.0
    vertex -22301.227793629358 27515.057819452268 7.7019029611437215
    vertex -22290.52589066821 27515.057819452275 20.0
  endloop
endfacet
facet normal 0.0 1.0 0.0
  outer loop
    vertex -22301.227793629358 27515.057819452268 7.7019029611437215
    vertex -22290.52589066821 27515.057819452275 0.0
    vertex -22301.900890668214 27515.057819452268 7.185417437700577
  endloop
endfacet
facet normal 0.0 1.0 0.0
  outer loop
    vertex -22301.900890668214 27515.057819452268 7.185417437700577
    vertex -22290.52589066821 27515.057819452275 0.0
    vertex -22302.684728771626 27515.057819452268 6.86074106456053
  endloop
endfacet
facet normal 0.0 1.0 0.0
  outer loop
    vertex -22302.684728771626 27515.057819452268 6.86074106456053
    vertex -22290.52589066821 27515.057819452275 0.0
    vertex -22303.52589066821 27515.057819452268 6.750000000000002
  endloop
endfacet
facet normal 0.0 1.0 0.0
  outer loop
    vertex -22290.52589066821 27515.057819452275 20.0
    vertex -22301.227793629358 27515.057819452268 7.7019029611437215
    vertex -22300.71130810591 27515.057819452268 8.375000000000002
  endloop
endfacet
facet normal 0.0 1.0 0.0
  outer loop
    vertex -22290.52589066821 27515.057819452275 20.0
    vertex -22300.71130810591 27515.057819452268 8.375000000000002
    vertex -22300.38663173277 27515.057819452268 9.158838103416809
  endloop
endfacet
facet normal 0.0 1.0 0.0
  outer loop
    vertex -22290.52589066821 27515.057819452275 20.0
    vertex -22300.38663173277 27515.057819452268 9.158838103416809
    vertex -22300.27589066821 27515.057819452268 10.0
  endloop
endfacet
facet normal 0.0 1.0 0.0
  outer loop
    vertex -22290.52589066821 27515.057819452275 20.0
    vertex -22300.27589066821 27515.057819452268 10.0
    vertex -22300.38663173277 27515.057819452268 10.841161896583191
  endloop
endfacet
facet normal 0.0 1.0 0.0
  outer loop
    vertex -22290.52589066821 27515.057819452275 20.0
    vertex -22300.38663173277 27515.057819452268 10.841161896583191
    vertex -22300.71130810591 27515.057819452268 11.625
  endloop
endfacet
facet normal 0.0 1.0 0.0
  outer loop
    vertex -22290.52589066821 27515.057819452275 20.0
    vertex -22300.71130810591 27515.057819452268 11.625
    vertex -22301.227793629358 27515.057819452268 12.298097038856278
  endloop
endfacet
facet normal 0.0 1.0 0.0
  outer loop
    vertex -22290.52589066821 27515.057819452275 20.0
    vertex -22301.227793629358 27515.057819452268 12.298097038856278
    vertex -22301.900890668214 27515.057819452268 12.814582562299424
  endloop
endfacet
facet normal 0.0 1.0 0.0
  outer loop
    vertex -22290.52589066821 27515.057819452275 20.0
    vertex -22301.900890668214 27515.057819452268 12.814582562299424
    vertex -22302.684728771626 27515.057819452268 13.139258935439472
  endloop
endfacet
facet normal 0.0 1.0 0.0
  outer loop
    vertex -22290.52589066821 27515.057819452275 20.0
    vertex -22302.684728771626 27515.057819452268 13.139258935439472
    vertex -22303.52589066821 27515.057819452268 13.249999999999998
  endloop
endfacet
facet normal 0.0 1.0 0.0
  outer loop
    vertex -22290.52589066821 27515.057819452275 20.0
    vertex -22303.52589066821 27515.057819452268 13.249999999999998
    vertex -22313.52589066821 27515.057819452275 20.0
  endloop
endfacet
facet normal -1.0 0.0 0.0
  outer loop
    vertex -22208.52589066821 27515.057819452275 20.0
    vertex -22208.52589066821 27484.057819452275 0.0
    vertex -22208.52589066821 27484.057819452275 20.0
  endloop
endfacet
facet normal -1.0 0.0 0.0
  outer loop
    vertex -22208.52589066821 27484.057819452275 0.0
    vertex -22208.52589066821 27515.057819452275 20.0
    vertex -22208.52589066821 27515.057819452275 0.0
  endloop
endfacet
facet normal -4.748047193894336e-18 6.848428131176976e-19 -1.0
  outer loop
    vertex -22290.52589066821 27515.057819452275 0.0
    vertex -22313.52589066821 27512.057819452275 0.0
    vertex -22313.52589066821 27515.057819452275 0.0
  endloop
endfacet
facet normal -4.748047193894336e-18 6.848428131176976e-19 -1.0
  outer loop
    vertex -22313.52589066821 27512.057819452275 0.0
    vertex -22290.52589066821 27515.057819452275 0.0
    vertex -22296.52589066821 27512.057819452275 0.0
  endloop
endfacet
facet normal -4.748047193894336e-18 6.848428131176976e-19 -1.0
  outer loop
    vertex -22296.52589066821 27512.057819452275 0.0
    vertex -22290.52589066821 27515.057819452275 0.0
    vertex -22293.52589066821 27512.057819452275 0.0
  endloop
endfacet
facet normal -4.748047193894336e-18 6.848428131176976e-19 -1.0
  outer loop
    vertex -22293.52589066821 27512.057819452275 0.0
    vertex -22290.52589066821 27515.057819452275 0.0
    vertex -22293.52589066821 27509.057819452275 0.0
  endloop
endfacet
facet normal -4.748047193894336e-18 6.848428131176976e-19 -1.0
  outer loop
    vertex -22293.52589066821 27509.057819452275 0.0
    vertex -22290.52589066821 27515.057819452275 0.0
    vertex -22293.52589066821 27481.057819452275 1.4099832412739487e-15
  endloop
endfacet
facet normal -4.748047193894336e-18 6.848428131176976e-19 -1.0
  outer loop
    vertex -22293.52589066821 27481.057819452275 1.4099832412739487e-15
    vertex -22290.52589066821 27515.057819452275 0.0
    vertex -22290.52589066821 27478.057819452275 1.4099832412739487e-15
  endloop
endfacet
facet normal -4.748047193894336e-18 6.848428131176976e-19 -1.0
  outer loop
    vertex -22290.52589066821 27478.057819452275 1.4099832412739487e-15
    vertex -22290.52589066821 27515.057819452275 0.0
    vertex -22290.52589066821 27481.057819452275 0.0
  endloop
endfacet
facet normal -4.748047193894336e-18 6.848428131176976e-19 -1.0
  outer loop
    vertex -22290.52589066821 27478.057819452275 1.4099832412739487e-15
    vertex -22290.52589066821 27481.057819452275 0.0
    vertex -22208.52589066821 27478.057819452275 -1.4099832412739487e-15
  endloop
endfacet
facet normal -4.748047193894336e-18 6.848428131176976e-19 -1.0
  outer loop
    vertex -22290.52589066821 27481.057819452275 0.0
    vertex -22290.52589066821 27515.057819452275 0.0
    vertex -22290.52589066821 27484.057819452275 0.0
  endloop
endfacet
facet normal -4.748047193894336e-18 6.848428131176976e-19 -1.0
  outer loop
    vertex -22208.52589066821 27478.057819452275 -1.4099832412739487e-15
    vertex -22290.52589066821 27481.057819452275 0.0
    vertex -22287.52589066821 27481.057819452275 0.0
  endloop
endfacet
facet normal -4.748047193894336e-18 6.848428131176976e-19 -1.0
  outer loop
    vertex -22208.52589066821 27478.057819452275 -1.4099832412739487e-15
    vertex -22287.52589066821 27481.057819452275 0.0
    vertex -22211.52589066821 27481.057819452275 0.0
  endloop
endfacet
facet normal -4.748047193894336e-18 6.848428131176976e-19 -1.0
  outer loop
    vertex -22208.52589066821 27478.057819452275 -1.4099832412739487e-15
    vertex -22211.52589066821 27481.057819452275 0.0
    vertex -22208.52589066821 27481.057819452275 0.0
  endloop
endfacet
facet normal -4.748047193894336e-18 6.848428131176976e-19 -1.0
  outer loop
    vertex -22208.52589066821 27515.057819452275 0.0
    vertex -22205.52589066821 27512.057819452275 0.0
    vertex -22208.52589066821 27484.057819452275 0.0
  endloop
endfacet
facet normal -4.748047193894336e-18 6.848428131176976e-19 -1.0
  outer loop
    vertex -22205.52589066821 27512.057819452275 0.0
    vertex -22208.52589066821 27515.057819452275 0.0
    vertex -22185.52589066821 27515.057819452275 0.0
  endloop
endfacet
facet normal -4.748047193894336e-18 6.848428131176976e-19 -1.0
  outer loop
    vertex -22208.52589066821 27484.057819452275 0.0
    vertex -22205.52589066821 27512.057819452275 0.0
    vertex -22208.52589066821 27481.057819452275 0.0
  endloop
endfacet
facet normal -4.748047193894336e-18 6.848428131176976e-19 -1.0
  outer loop
    vertex -22208.52589066821 27481.057819452275 0.0
    vertex -22205.52589066821 27512.057819452275 0.0
    vertex -22208.52589066821 27478.057819452275 -1.4099832412739487e-15
  endloop
endfacet
facet normal -4.748047193894336e-18 6.848428131176976e-19 -1.0
  outer loop
    vertex -22205.52589066821 27512.057819452275 0.0
    vertex -22185.52589066821 27515.057819452275 0.0
    vertex -22202.52589066821 27512.057819452275 0.0
  endloop
endfacet
facet normal -4.748047193894336e-18 6.848428131176976e-19 -1.0
  outer loop
    vertex -22202.52589066821 27512.057819452275 0.0
    vertex -22185.52589066821 27515.057819452275 0.0
    vertex -22185.52589066821 27512.057819452275 0.0
  endloop
endfacet
facet normal -4.748047193894336e-18 6.848428131176976e-19 -1.0
  outer loop
    vertex -22205.52589066821 27512.057819452275 0.0
    vertex -22205.52589066821 27481.057819452275 -1.4099832412739487e-15
    vertex -22208.52589066821 27478.057819452275 -1.4099832412739487e-15
  endloop
endfacet
facet normal -4.748047193894336e-18 6.848428131176976e-19 -1.0
  outer loop
    vertex -22205.52589066821 27481.057819452275 -1.4099832412739487e-15
    vertex -22205.52589066821 27512.057819452275 0.0
    vertex -22205.52589066821 27509.057819452275 0.0
  endloop
endfacet
facet normal 0.9238795325116259 0.0 -0.382683432364271
  outer loop
    vertex -22198.66514960365 27515.057819452268 10.841161896583191
    vertex -22198.34047323051 27512.057819452275 11.624999999999996
    vertex -22198.66514960365 27512.057819452275 10.841161896583191
  endloop
endfacet
facet normal 0.9238795325116259 0.0 -0.382683432364271
  outer loop
    vertex -22198.34047323051 27512.057819452275 11.624999999999996
    vertex -22198.66514960365 27515.057819452268 10.841161896583191
    vertex -22198.34047323051 27515.057819452268 11.624999999999996
  endloop
endfacet
facet normal 0.9914448613736778 0.0 -0.13052619222106
  outer loop
    vertex -22198.77589066821 27515.057819452268 10.0
    vertex -22198.66514960365 27512.057819452275 10.841161896583191
    vertex -22198.77589066821 27512.057819452275 10.0
  endloop
endfacet
facet normal 0.9914448613736778 0.0 -0.13052619222106
  outer loop
    vertex -22198.66514960365 27512.057819452275 10.841161896583191
    vertex -22198.77589066821 27515.057819452268 10.0
    vertex -22198.66514960365 27515.057819452268 10.841161896583191
  endloop
endfacet
facet normal 0.9914448613736777 0.0 0.1305261922210593
  outer loop
    vertex -22198.66514960365 27515.057819452268 9.158838103416805
    vertex -22198.77589066821 27512.057819452275 10.0
    vertex -22198.66514960365 27512.057819452275 9.158838103416805
  endloop
endfacet
facet normal 0.9914448613736777 0.0 0.1305261922210593
  outer loop
    vertex -22198.77589066821 27512.057819452275 10.0
    vertex -22198.66514960365 27515.057819452268 9.158838103416805
    vertex -22198.77589066821 27515.057819452268 10.0
  endloop
endfacet
facet normal 0.9238795325116259 0.0 0.382683432364271
  outer loop
    vertex -22198.34047323051 27515.057819452268 8.374999999999998
    vertex -22198.66514960365 27512.057819452275 9.158838103416805
    vertex -22198.34047323051 27512.057819452275 8.374999999999998
  endloop
endfacet
facet normal 0.9238795325116259 0.0 0.382683432364271
  outer loop
    vertex -22198.66514960365 27512.057819452275 9.158838103416805
    vertex -22198.34047323051 27515.057819452268 8.374999999999998
    vertex -22198.66514960365 27515.057819452268 9.158838103416805
  endloop
endfacet
facet normal 0.7933533402903612 0.0 0.6087614290098595
  outer loop
    vertex -22197.823987707066 27515.057819452268 7.701902961143721
    vertex -22198.34047323051 27512.057819452275 8.374999999999998
    vertex -22197.823987707066 27512.057819452275 7.701902961143721
  endloop
endfacet
facet normal 0.7933533402903612 0.0 0.6087614290098595
  outer loop
    vertex -22198.34047323051 27512.057819452275 8.374999999999998
    vertex -22197.823987707066 27515.057819452268 7.701902961143721
    vertex -22198.34047323051 27515.057819452268 8.374999999999998
  endloop
endfacet
facet normal 0.6087614290086024 0.0 0.793353340291326
  outer loop
    vertex -22197.15089066821 27512.057819452275 7.1854174377005755
    vertex -22197.823987707066 27515.057819452268 7.701902961143721
    vertex -22197.823987707066 27512.057819452275 7.701902961143721
  endloop
endfacet
facet normal 0.6087614290086024 0.0 0.793353340291326
  outer loop
    vertex -22197.823987707066 27515.057819452268 7.701902961143721
    vertex -22197.15089066821 27512.057819452275 7.1854174377005755
    vertex -22197.15089066821 27515.057819452268 7.1854174377005755
  endloop
endfacet
facet normal 0.38268343236584534 0.0 0.9238795325109739
  outer loop
    vertex -22196.367052564794 27512.057819452275 6.8607410645605285
    vertex -22197.15089066821 27515.057819452268 7.1854174377005755
    vertex -22197.15089066821 27512.057819452275 7.1854174377005755
  endloop
endfacet
facet normal 0.38268343236584534 0.0 0.9238795325109739
  outer loop
    vertex -22197.15089066821 27515.057819452268 7.1854174377005755
    vertex -22196.367052564794 27512.057819452275 6.8607410645605285
    vertex -22196.367052564794 27515.057819452268 6.8607410645605285
  endloop
endfacet
facet normal 0.1305261922199403 0.0 0.9914448613738251
  outer loop
    vertex -22195.52589066821 27512.057819452275 6.750000000000002
    vertex -22196.367052564794 27515.057819452268 6.8607410645605285
    vertex -22196.367052564794 27512.057819452275 6.8607410645605285
  endloop
endfacet
facet normal 0.1305261922199403 0.0 0.9914448613738251
  outer loop
    vertex -22196.367052564794 27515.057819452268 6.8607410645605285
    vertex -22195.52589066821 27512.057819452275 6.750000000000002
    vertex -22195.52589066821 27515.057819452268 6.750000000000002
  endloop
endfacet
facet normal -0.1305261922199419 0.0 0.9914448613738248
  outer loop
    vertex -22194.684728771626 27512.057819452275 6.86074106456053
    vertex -22195.52589066821 27515.057819452268 6.750000000000002
    vertex -22195.52589066821 27512.057819452275 6.750000000000002
  endloop
endfacet
facet normal -0.1305261922199419 0.0 0.9914448613738248
  outer loop
    vertex -22195.52589066821 27515.057819452268 6.750000000000002
    vertex -22194.684728771626 27512.057819452275 6.86074106456053
    vertex -22194.684728771626 27515.057819452268 6.86074106456053
  endloop
endfacet
facet normal -0.38268343236584534 0.0 0.9238795325109739
  outer loop
    vertex -22193.90089066821 27512.057819452275 7.185417437700577
    vertex -22194.684728771626 27515.057819452268 6.86074106456053
    vertex -22194.684728771626 27512.057819452275 6.86074106456053
  endloop
endfacet
facet normal -0.38268343236584534 0.0 0.9238795325109739
  outer loop
    vertex -22194.684728771626 27515.057819452268 6.86074106456053
    vertex -22193.90089066821 27512.057819452275 7.185417437700577
    vertex -22193.90089066821 27515.057819452268 7.185417437700577
  endloop
endfacet
facet normal -0.6087614290086024 0.0 0.793353340291326
  outer loop
    vertex -22193.227793629354 27512.057819452275 7.7019029611437215
    vertex -22193.90089066821 27515.057819452268 7.185417437700577
    vertex -22193.90089066821 27512.057819452275 7.185417437700577
  endloop
endfacet
facet normal -0.6087614290086024 0.0 0.793353340291326
  outer loop
    vertex -22193.90089066821 27515.057819452268 7.185417437700577
    vertex -22193.227793629354 27512.057819452275 7.7019029611437215
    vertex -22193.227793629354 27515.057819452268 7.7019029611437215
  endloop
endfacet
facet normal -0.7933533402903619 0.0 0.6087614290098586
  outer loop
    vertex -22192.71130810591 27515.057819452268 8.375000000000002
    vertex -22193.227793629354 27512.057819452275 7.7019029611437215
    vertex -22192.71130810591 27512.057819452275 8.375000000000002
  endloop
endfacet
facet normal -0.7933533402903619 0.0 0.6087614290098586
  outer loop
    vertex -22193.227793629354 27512.057819452275 7.7019029611437215
    vertex -22192.71130810591 27515.057819452268 8.375000000000002
    vertex -22193.227793629354 27515.057819452268 7.7019029611437215
  endloop
endfacet
facet normal -0.9238795325116259 0.0 0.382683432364271
  outer loop
    vertex -22192.38663173277 27515.057819452268 9.158838103416809
    vertex -22192.71130810591 27512.057819452275 8.375000000000002
    vertex -22192.38663173277 27512.057819452275 9.158838103416809
  endloop
endfacet
facet normal -0.9238795325116259 0.0 0.382683432364271
  outer loop
    vertex -22192.71130810591 27512.057819452275 8.375000000000002
    vertex -22192.38663173277 27515.057819452268 9.158838103416809
    vertex -22192.71130810591 27515.057819452268 8.375000000000002
  endloop
endfacet
facet normal -0.9914448613736778 0.0 0.13052619222105977
  outer loop
    vertex -22192.27589066821 27515.057819452268 10.0
    vertex -22192.38663173277 27512.057819452275 9.158838103416809
    vertex -22192.27589066821 27512.057819452275 10.0
  endloop
endfacet
facet normal -0.9914448613736778 0.0 0.13052619222105977
  outer loop
    vertex -22192.38663173277 27512.057819452275 9.158838103416809
    vertex -22192.27589066821 27515.057819452268 10.0
    vertex -22192.38663173277 27515.057819452268 9.158838103416809
  endloop
endfacet
facet normal -0.9914448613736778 -0.0 -0.13052619222105977
  outer loop
    vertex -22192.38663173277 27515.057819452268 10.841161896583191
    vertex -22192.27589066821 27512.057819452275 10.0
    vertex -22192.38663173277 27512.057819452275 10.841161896583191
  endloop
endfacet
facet normal -0.9914448613736778 -0.0 -0.13052619222105977
  outer loop
    vertex -22192.27589066821 27512.057819452275 10.0
    vertex -22192.38663173277 27515.057819452268 10.841161896583191
    vertex -22192.27589066821 27515.057819452268 10.0
  endloop
endfacet
facet normal -0.9238795325116262 -0.0 -0.3826834323642705
  outer loop
    vertex -22192.71130810591 27515.057819452268 11.625
    vertex -22192.38663173277 27512.057819452275 10.841161896583191
    vertex -22192.71130810591 27512.057819452275 11.625
  endloop
endfacet
facet normal -0.9238795325116262 -0.0 -0.3826834323642705
  outer loop
    vertex -22192.38663173277 27512.057819452275 10.841161896583191
    vertex -22192.71130810591 27515.057819452268 11.625
    vertex -22192.38663173277 27515.057819452268 10.841161896583191
  endloop
endfacet
facet normal -0.7933533402903612 -0.0 -0.6087614290098595
  outer loop
    vertex -22193.227793629354 27515.057819452268 12.298097038856278
    vertex -22192.71130810591 27512.057819452275 11.625
    vertex -22193.227793629354 27512.057819452275 12.298097038856278
  endloop
endfacet
facet normal -0.7933533402903612 -0.0 -0.6087614290098595
  outer loop
    vertex -22192.71130810591 27512.057819452275 11.625
    vertex -22193.227793629354 27515.057819452268 12.298097038856278
    vertex -22192.71130810591 27515.057819452268 11.625
  endloop
endfacet
facet normal -0.6087614290086035 -0.0 -0.7933533402913251
  outer loop
    vertex -22193.227793629354 27515.057819452268 12.298097038856278
    vertex -22193.90089066821 27512.057819452275 12.814582562299424
    vertex -22193.90089066821 27515.057819452268 12.814582562299424
  endloop
endfacet
facet normal -0.6087614290086035 -0.0 -0.7933533402913251
  outer loop
    vertex -22193.90089066821 27512.057819452275 12.814582562299424
    vertex -22193.227793629354 27515.057819452268 12.298097038856278
    vertex -22193.227793629354 27512.057819452275 12.298097038856278
  endloop
endfacet
facet normal -0.38268343236584534 -0.0 -0.9238795325109739
  outer loop
    vertex -22193.90089066821 27515.057819452268 12.814582562299424
    vertex -22194.684728771626 27512.057819452275 13.139258935439472
    vertex -22194.684728771626 27515.057819452268 13.139258935439472
  endloop
endfacet
facet normal -0.38268343236584534 -0.0 -0.9238795325109739
  outer loop
    vertex -22194.684728771626 27512.057819452275 13.139258935439472
    vertex -22193.90089066821 27515.057819452268 12.814582562299424
    vertex -22193.90089066821 27512.057819452275 12.814582562299424
  endloop
endfacet
facet normal -0.1305261922199403 -0.0 -0.9914448613738251
  outer loop
    vertex -22194.684728771626 27515.057819452268 13.139258935439472
    vertex -22195.52589066821 27512.057819452275 13.249999999999998
    vertex -22195.52589066821 27515.057819452268 13.249999999999998
  endloop
endfacet
facet normal -0.1305261922199403 -0.0 -0.9914448613738251
  outer loop
    vertex -22195.52589066821 27512.057819452275 13.249999999999998
    vertex -22194.684728771626 27515.057819452268 13.139258935439472
    vertex -22194.684728771626 27512.057819452275 13.139258935439472
  endloop
endfacet
facet normal 0.13052619221994355 0.0 -0.9914448613738246
  outer loop
    vertex -22195.52589066821 27515.057819452268 13.249999999999998
    vertex -22196.367052564794 27512.057819452275 13.139258935439468
    vertex -22196.367052564794 27515.057819452268 13.139258935439468
  endloop
endfacet
facet normal 0.13052619221994355 0.0 -0.9914448613738246
  outer loop
    vertex -22196.367052564794 27512.057819452275 13.139258935439468
    vertex -22195.52589066821 27515.057819452268 13.249999999999998
    vertex -22195.52589066821 27512.057819452275 13.249999999999998
  endloop
endfacet
facet normal 0.3826834323658425 0.0 -0.923879532510975
  outer loop
    vertex -22196.367052564794 27515.057819452268 13.139258935439468
    vertex -22197.15089066821 27512.057819452275 12.814582562299424
    vertex -22197.15089066821 27515.057819452268 12.814582562299424
  endloop
endfacet
facet normal 0.3826834323658425 0.0 -0.923879532510975
  outer loop
    vertex -22197.15089066821 27512.057819452275 12.814582562299424
    vertex -22196.367052564794 27515.057819452268 13.139258935439468
    vertex -22196.367052564794 27512.057819452275 13.139258935439468
  endloop
endfacet
facet normal 0.6087614290086035 0.0 -0.7933533402913251
  outer loop
    vertex -22197.15089066821 27515.057819452268 12.814582562299424
    vertex -22197.823987707066 27512.057819452275 12.298097038856278
    vertex -22197.823987707066 27515.057819452268 12.298097038856278
  endloop
endfacet
facet normal 0.6087614290086035 0.0 -0.7933533402913251
  outer loop
    vertex -22197.823987707066 27512.057819452275 12.298097038856278
    vertex -22197.15089066821 27515.057819452268 12.814582562299424
    vertex -22197.15089066821 27512.057819452275 12.814582562299424
  endloop
endfacet
facet normal 0.7933533402903625 0.0 -0.608761429009858
  outer loop
    vertex -22198.34047323051 27515.057819452268 11.624999999999996
    vertex -22197.823987707066 27512.057819452275 12.298097038856278
    vertex -22198.34047323051 27512.057819452275 11.624999999999996
  endloop
endfacet
facet normal 0.7933533402903625 0.0 -0.608761429009858
  outer loop
    vertex -22197.823987707066 27512.057819452275 12.298097038856278
    vertex -22198.34047323051 27515.057819452268 11.624999999999996
    vertex -22197.823987707066 27515.057819452268 12.298097038856278
  endloop
endfacet
facet normal -0.1305261922199419 0.0 0.9914448613738248
  outer loop
    vertex -22302.684728771626 27512.057819452275 6.86074106456053
    vertex -22303.52589066821 27515.057819452268 6.750000000000002
    vertex -22303.52589066821 27512.057819452275 6.750000000000002
  endloop
endfacet
facet normal -0.1305261922199419 0.0 0.9914448613738248
  outer loop
    vertex -22303.52589066821 27515.057819452268 6.750000000000002
    vertex -22302.684728771626 27512.057819452275 6.86074106456053
    vertex -22302.684728771626 27515.057819452268 6.86074106456053
  endloop
endfacet
facet normal -0.38268343236584534 0.0 0.9238795325109739
  outer loop
    vertex -22301.900890668214 27512.057819452275 7.185417437700577
    vertex -22302.684728771626 27515.057819452268 6.86074106456053
    vertex -22302.684728771626 27512.057819452275 6.86074106456053
  endloop
endfacet
facet normal -0.38268343236584534 0.0 0.9238795325109739
  outer loop
    vertex -22302.684728771626 27515.057819452268 6.86074106456053
    vertex -22301.900890668214 27512.057819452275 7.185417437700577
    vertex -22301.900890668214 27515.057819452268 7.185417437700577
  endloop
endfacet
facet normal -0.6087614290086024 0.0 0.793353340291326
  outer loop
    vertex -22301.227793629358 27512.057819452275 7.7019029611437215
    vertex -22301.900890668214 27515.057819452268 7.185417437700577
    vertex -22301.900890668214 27512.057819452275 7.185417437700577
  endloop
endfacet
facet normal -0.6087614290086024 0.0 0.793353340291326
  outer loop
    vertex -22301.900890668214 27515.057819452268 7.185417437700577
    vertex -22301.227793629358 27512.057819452275 7.7019029611437215
    vertex -22301.227793629358 27515.057819452268 7.7019029611437215
  endloop
endfacet
facet normal -0.7933533402903619 0.0 0.6087614290098586
  outer loop
    vertex -22300.71130810591 27515.057819452268 8.375000000000002
    vertex -22301.227793629358 27512.057819452275 7.7019029611437215
    vertex -22300.71130810591 27512.057819452275 8.375000000000002
  endloop
endfacet
facet normal -0.7933533402903619 0.0 0.6087614290098586
  outer loop
    vertex -22301.227793629358 27512.057819452275 7.7019029611437215
    vertex -22300.71130810591 27515.057819452268 8.375000000000002
    vertex -22301.227793629358 27515.057819452268 7.7019029611437215
  endloop
endfacet
facet normal -0.9238795325116259 0.0 0.382683432364271
  outer loop
    vertex -22300.38663173277 27515.057819452268 9.158838103416809
    vertex -22300.71130810591 27512.057819452275 8.375000000000002
    vertex -22300.38663173277 27512.057819452275 9.158838103416809
  endloop
endfacet
facet normal -0.9238795325116259 0.0 0.382683432364271
  outer loop
    vertex -22300.71130810591 27512.057819452275 8.375000000000002
    vertex -22300.38663173277 27515.057819452268 9.158838103416809
    vertex -22300.71130810591 27515.057819452268 8.375000000000002
  endloop
endfacet
facet normal -0.9914448613736778 0.0 0.13052619222105977
  outer loop
    vertex -22300.27589066821 27515.057819452268 10.0
    vertex -22300.38663173277 27512.057819452275 9.158838103416809
    vertex -22300.27589066821 27512.057819452275 10.0
  endloop
endfacet
facet normal -0.9914448613736778 0.0 0.13052619222105977
  outer loop
    vertex -22300.38663173277 27512.057819452275 9.158838103416809
    vertex -22300.27589066821 27515.057819452268 10.0
    vertex -22300.38663173277 27515.057819452268 9.158838103416809
  endloop
endfacet
facet normal -0.9914448613736778 -0.0 -0.13052619222105977
  outer loop
    vertex -22300.38663173277 27515.057819452268 10.841161896583191
    vertex -22300.27589066821 27512.057819452275 10.0
    vertex -22300.38663173277 27512.057819452275 10.841161896583191
  endloop
endfacet
facet normal -0.9914448613736778 -0.0 -0.13052619222105977
  outer loop
    vertex -22300.27589066821 27512.057819452275 10.0
    vertex -22300.38663173277 27515.057819452268 10.841161896583191
    vertex -22300.27589066821 27515.057819452268 10.0
  endloop
endfacet
facet normal -0.9238795325116262 -0.0 -0.3826834323642705
  outer loop
    vertex -22300.71130810591 27515.057819452268 11.625
    vertex -22300.38663173277 27512.057819452275 10.841161896583191
    vertex -22300.71130810591 27512.057819452275 11.625
  endloop
endfacet
facet normal -0.9238795325116262 -0.0 -0.3826834323642705
  outer loop
    vertex -22300.38663173277 27512.057819452275 10.841161896583191
    vertex -22300.71130810591 27515.057819452268 11.625
    vertex -22300.38663173277 27515.057819452268 10.841161896583191
  endloop
endfacet
facet normal -0.7933533402903612 -0.0 -0.6087614290098595
  outer loop
    vertex -22301.227793629358 27515.057819452268 12.298097038856278
    vertex -22300.71130810591 27512.057819452275 11.625
    vertex -22301.227793629358 27512.057819452275 12.298097038856278
  endloop
endfacet
facet normal -0.7933533402903612 -0.0 -0.6087614290098595
  outer loop
    vertex -22300.71130810591 27512.057819452275 11.625
    vertex -22301.227793629358 27515.057819452268 12.298097038856278
    vertex -22300.71130810591 27515.057819452268 11.625
  endloop
endfacet
facet normal -0.6087614290086035 -0.0 -0.7933533402913251
  outer loop
    vertex -22301.227793629358 27515.057819452268 12.298097038856278
    vertex -22301.900890668214 27512.057819452275 12.814582562299424
    vertex -22301.900890668214 27515.057819452268 12.814582562299424
  endloop
endfacet
facet normal -0.6087614290086035 -0.0 -0.7933533402913251
  outer loop
    vertex -22301.900890668214 27512.057819452275 12.814582562299424
    vertex -22301.227793629358 27515.057819452268 12.298097038856278
    vertex -22301.227793629358 27512.057819452275 12.298097038856278
  endloop
endfacet
facet normal -0.38268343236584534 -0.0 -0.9238795325109739
  outer loop
    vertex -22301.900890668214 27515.057819452268 12.814582562299424
    vertex -22302.684728771626 27512.057819452275 13.139258935439472
    vertex -22302.684728771626 27515.057819452268 13.139258935439472
  endloop
endfacet
facet normal -0.38268343236584534 -0.0 -0.9238795325109739
  outer loop
    vertex -22302.684728771626 27512.057819452275 13.139258935439472
    vertex -22301.900890668214 27515.057819452268 12.814582562299424
    vertex -22301.900890668214 27512.057819452275 12.814582562299424
  endloop
endfacet
facet normal -0.1305261922199403 -0.0 -0.9914448613738251
  outer loop
    vertex -22302.684728771626 27515.057819452268 13.139258935439472
    vertex -22303.52589066821 27512.057819452275 13.249999999999998
    vertex -22303.52589066821 27515.057819452268 13.249999999999998
  endloop
endfacet
facet normal -0.1305261922199403 -0.0 -0.9914448613738251
  outer loop
    vertex -22303.52589066821 27512.057819452275 13.249999999999998
    vertex -22302.684728771626 27515.057819452268 13.139258935439472
    vertex -22302.684728771626 27512.057819452275 13.139258935439472
  endloop
endfacet
facet normal 0.13052619221994355 0.0 -0.9914448613738246
  outer loop
    vertex -22303.52589066821 27515.057819452268 13.249999999999998
    vertex -22304.367052564794 27512.057819452275 13.139258935439468
    vertex -22304.367052564794 27515.057819452268 13.139258935439468
  endloop
endfacet
facet normal 0.13052619221994355 0.0 -0.9914448613738246
  outer loop
    vertex -22304.367052564794 27512.057819452275 13.139258935439468
    vertex -22303.52589066821 27515.057819452268 13.249999999999998
    vertex -22303.52589066821 27512.057819452275 13.249999999999998
  endloop
endfacet
facet normal 0.3826834323658425 0.0 -0.923879532510975
  outer loop
    vertex -22304.367052564794 27515.057819452268 13.139258935439468
    vertex -22305.15089066821 27512.057819452275 12.814582562299424
    vertex -22305.15089066821 27515.057819452268 12.814582562299424
  endloop
endfacet
facet normal 0.3826834323658425 0.0 -0.923879532510975
  outer loop
    vertex -22305.15089066821 27512.057819452275 12.814582562299424
    vertex -22304.367052564794 27515.057819452268 13.139258935439468
    vertex -22304.367052564794 27512.057819452275 13.139258935439468
  endloop
endfacet
facet normal 0.6087614290086035 0.0 -0.7933533402913251
  outer loop
    vertex -22305.15089066821 27515.057819452268 12.814582562299424
    vertex -22305.823987707066 27512.057819452275 12.298097038856278
    vertex -22305.823987707066 27515.057819452268 12.298097038856278
  endloop
endfacet
facet normal 0.6087614290086035 0.0 -0.7933533402913251
  outer loop
    vertex -22305.823987707066 27512.057819452275 12.298097038856278
    vertex -22305.15089066821 27515.057819452268 12.814582562299424
    vertex -22305.15089066821 27512.057819452275 12.814582562299424
  endloop
endfacet
facet normal 0.7933533402903625 0.0 -0.608761429009858
  outer loop
    vertex -22306.34047323051 27515.057819452268 11.624999999999996
    vertex -22305.823987707066 27512.057819452275 12.298097038856278
    vertex -22306.34047323051 27512.057819452275 11.624999999999996
  endloop
endfacet
facet normal 0.7933533402903625 0.0 -0.608761429009858
  outer loop
    vertex -22305.823987707066 27512.057819452275 12.298097038856278
    vertex -22306.34047323051 27515.057819452268 11.624999999999996
    vertex -22305.823987707066 27515.057819452268 12.298097038856278
  endloop
endfacet
facet normal 0.9238795325116259 0.0 -0.382683432364271
  outer loop
    vertex -22306.66514960365 27515.057819452268 10.841161896583191
    vertex -22306.34047323051 27512.057819452275 11.624999999999996
    vertex -22306.66514960365 27512.057819452275 10.841161896583191
  endloop
endfacet
facet normal 0.9238795325116259 0.0 -0.382683432364271
  outer loop
    vertex -22306.34047323051 27512.057819452275 11.624999999999996
    vertex -22306.66514960365 27515.057819452268 10.841161896583191
    vertex -22306.34047323051 27515.057819452268 11.624999999999996
  endloop
endfacet
facet normal 0.9914448613736778 0.0 -0.13052619222106
  outer loop
    vertex -22306.77589066821 27515.057819452268 10.0
    vertex -22306.66514960365 27512.057819452275 10.841161896583191
    vertex -22306.77589066821 27512.057819452275 10.0
  endloop
endfacet
facet normal 0.9914448613736778 0.0 -0.13052619222106
  outer loop
    vertex -22306.66514960365 27512.057819452275 10.841161896583191
    vertex -22306.77589066821 27515.057819452268 10.0
    vertex -22306.66514960365 27515.057819452268 10.841161896583191
  endloop
endfacet
facet normal 0.9914448613736777 0.0 0.1305261922210593
  outer loop
    vertex -22306.66514960365 27515.057819452268 9.158838103416805
    vertex -22306.77589066821 27512.057819452275 10.0
    vertex -22306.66514960365 27512.057819452275 9.158838103416805
  endloop
endfacet
facet normal 0.9914448613736777 0.0 0.1305261922210593
  outer loop
    vertex -22306.77589066821 27512.057819452275 10.0
    vertex -22306.66514960365 27515.057819452268 9.158838103416805
    vertex -22306.77589066821 27515.057819452268 10.0
  endloop
endfacet
facet normal 0.9238795325116259 0.0 0.382683432364271
  outer loop
    vertex -22306.34047323051 27515.057819452268 8.374999999999998
    vertex -22306.66514960365 27512.057819452275 9.158838103416805
    vertex -22306.34047323051 27512.057819452275 8.374999999999998
  endloop
endfacet
facet normal 0.9238795325116259 0.0 0.382683432364271
  outer loop
    vertex -22306.66514960365 27512.057819452275 9.158838103416805
    vertex -22306.34047323051 27515.057819452268 8.374999999999998
    vertex -22306.66514960365 27515.057819452268 9.158838103416805
  endloop
endfacet
facet normal 0.7933533402903612 0.0 0.6087614290098595
  outer loop
    vertex -22305.823987707066 27515.057819452268 7.701902961143721
    vertex -22306.34047323051 27512.057819452275 8.374999999999998
    vertex -22305.823987707066 27512.057819452275 7.701902961143721
  endloop
endfacet
facet normal 0.7933533402903612 0.0 0.6087614290098595
  outer loop
    vertex -22306.34047323051 27512.057819452275 8.374999999999998
    vertex -22305.823987707066 27515.057819452268 7.701902961143721
    vertex -22306.34047323051 27515.057819452268 8.374999999999998
  endloop
endfacet
facet normal 0.6087614290086024 0.0 0.793353340291326
  outer loop
    vertex -22305.15089066821 27512.057819452275 7.1854174377005755
    vertex -22305.823987707066 27515.057819452268 7.701902961143721
    vertex -22305.823987707066 27512.057819452275 7.701902961143721
  endloop
endfacet
facet normal 0.6087614290086024 0.0 0.793353340291326
  outer loop
    vertex -22305.823987707066 27515.057819452268 7.701902961143721
    vertex -22305.15089066821 27512.057819452275 7.1854174377005755
    vertex -22305.15089066821 27515.057819452268 7.1854174377005755
  endloop
endfacet
facet normal 0.38268343236584534 0.0 0.9238795325109739
  outer loop
    vertex -22304.367052564794 27512.057819452275 6.8607410645605285
    vertex -22305.15089066821 27515.057819452268 7.1854174377005755
    vertex -22305.15089066821 27512.057819452275 7.1854174377005755
  endloop
endfacet
facet normal 0.38268343236584534 0.0 0.9238795325109739
  outer loop
    vertex -22305.15089066821 27515.057819452268 7.1854174377005755
    vertex -22304.367052564794 27512.057819452275 6.8607410645605285
    vertex -22304.367052564794 27515.057819452268 6.8607410645605285
  endloop
endfacet
facet normal 0.1305261922199403 0.0 0.9914448613738251
  outer loop
    vertex -22303.52589066821 27512.057819452275 6.750000000000002
    vertex -22304.367052564794 27515.057819452268 6.8607410645605285
    vertex -22304.367052564794 27512.057819452275 6.8607410645605285
  endloop
endfacet
facet normal 0.1305261922199403 0.0 0.9914448613738251
  outer loop
    vertex -22304.367052564794 27515.057819452268 6.8607410645605285
    vertex -22303.52589066821 27512.057819452275 6.750000000000002
    vertex -22303.52589066821 27515.057819452268 6.750000000000002
  endloop
endfacet
facet normal 0.0 0.0 -1.0
  outer loop
    vertex -22293.52589066821 27509.057819452275 0.0
    vertex -22296.52589066821 27512.057819452275 0.0
    vertex -22293.52589066821 27512.057819452275 0.0
  endloop
endfacet
facet normal 0.0 0.0 -1.0
  outer loop
    vertex -22287.52589066821 27481.057819452275 0.0
    vertex -22290.52589066821 27481.057819452275 0.0
    vertex -22290.52589066821 27484.057819452275 0.0
  endloop
endfacet
facet normal 0.0 0.0 -1.0
  outer loop
    vertex -22208.52589066821 27481.057819452275 0.0
    vertex -22211.52589066821 27481.057819452275 0.0
    vertex -22208.52589066821 27484.057819452275 0.0
  endloop
endfacet
facet normal 0.0 0.0 -1.0
  outer loop
    vertex -22202.52589066821 27512.057819452275 0.0
    vertex -22205.52589066821 27509.057819452275 0.0
    vertex -22205.52589066821 27512.057819452275 0.0
  endloop
endfacet
facet normal 0.7071067811865476 -0.7071067811865476 0.0
  outer loop
    vertex -22202.52589066821 27512.057819452275 0.0
    vertex -22205.52589066821 27509.057819452275 20.0
    vertex -22205.52589066821 27509.057819452275 0.0
  endloop
endfacet
facet normal 0.7071067811865476 -0.7071067811865476 0.0
  outer loop
    vertex -22205.52589066821 27509.057819452275 20.0
    vertex -22202.52589066821 27512.057819452275 0.0
    vertex -22202.52589066821 27512.057819452275 20.0
  endloop
endfacet
facet normal -0.7071067811865476 0.7071067811865476 0.0
  outer loop
    vertex -22208.52589066821 27484.057819452275 20.0
    vertex -22211.52589066821 27481.057819452275 0.0
    vertex -22211.52589066821 27481.057819452275 20.0
  endloop
endfacet
facet normal -0.7071067811865476 0.7071067811865476 0.0
  outer loop
    vertex -22211.52589066821 27481.057819452275 0.0
    vertex -22208.52589066821 27484.057819452275 20.0
    vertex -22208.52589066821 27484.057819452275 0.0
  endloop
endfacet
facet normal 0.7071067811865476 0.7071067811865476 0.0
  outer loop
    vertex -22290.52589066821 27484.057819452275 0.0
    vertex -22287.52589066821 27481.057819452275 20.0
    vertex -22287.52589066821 27481.057819452275 0.0
  endloop
endfacet
facet normal 0.7071067811865476 0.7071067811865476 0.0
  outer loop
    vertex -22287.52589066821 27481.057819452275 20.0
    vertex -22290.52589066821 27484.057819452275 0.0
    vertex -22290.52589066821 27484.057819452275 20.0
  endloop
endfacet
facet normal -0.7071067811865476 -0.7071067811865476 0.0
  outer loop
    vertex -22296.52589066821 27512.057819452275 20.0
    vertex -22293.52589066821 27509.057819452275 0.0
    vertex -22293.52589066821 27509.057819452275 20.0
  endloop
endfacet
facet normal -0.7071067811865476 -0.7071067811865476 0.0
  outer loop
    vertex -22293.52589066821 27509.057819452275 0.0
    vertex -22296.52589066821 27512.057819452275 20.0
    vertex -22296.52589066821 27512.057819452275 0.0
  endloop
endfacet
facet normal 0.0 0.0 1.0
  outer loop
    vertex -22290.52589066821 27478.057819452275 20.0
    vertex -22293.52589066821 27509.057819452275 20.0
    vertex -22293.52589066821 27481.057819452275 20.0
  endloop
endfacet
facet normal 0.0 0.0 1.0
  outer loop
    vertex -22290.52589066821 27478.057819452275 20.0
    vertex -22287.52589066821 27481.057819452275 20.0
    vertex -22290.52589066821 27484.057819452275 20.0
  endloop
endfacet
facet normal 0.0 0.0 1.0
  outer loop
    vertex -22287.52589066821 27481.057819452275 20.0
    vertex -22290.52589066821 27478.057819452275 20.0
    vertex -22208.52589066821 27478.057819452275 20.0
  endloop
endfacet
facet normal 0.0 0.0 1.0
  outer loop
    vertex -22287.52589066821 27481.057819452275 20.0
    vertex -22208.52589066821 27478.057819452275 20.0
    vertex -22211.52589066821 27481.057819452275 20.0
  endloop
endfacet
facet normal 0.0 0.0 1.0
  outer loop
    vertex -22211.52589066821 27481.057819452275 20.0
    vertex -22208.52589066821 27478.057819452275 20.0
    vertex -22208.52589066821 27484.057819452275 20.0
  endloop
endfacet
facet normal 0.0 0.0 1.0
  outer loop
    vertex -22208.52589066821 27484.057819452275 20.0
    vertex -22208.52589066821 27478.057819452275 20.0
    vertex -22205.52589066821 27481.057819452275 20.0
  endloop
endfacet
facet normal 0.0 0.0 1.0
  outer loop
    vertex -22208.52589066821 27484.057819452275 20.0
    vertex -22205.52589066821 27481.057819452275 20.0
    vertex -22208.52589066821 27515.057819452275 20.0
  endloop
endfacet
facet normal 0.0 0.0 1.0
  outer loop
    vertex -22208.52589066821 27515.057819452275 20.0
    vertex -22205.52589066821 27481.057819452275 20.0
    vertex -22205.52589066821 27509.057819452275 20.0
  endloop
endfacet
facet normal 0.0 0.0 1.0
  outer loop
    vertex -22208.52589066821 27515.057819452275 20.0
    vertex -22205.52589066821 27509.057819452275 20.0
    vertex -22202.52589066821 27512.057819452275 20.0
  endloop
endfacet
facet normal 0.0 0.0 1.0
  outer loop
    vertex -22208.52589066821 27515.057819452275 20.0
    vertex -22202.52589066821 27512.057819452275 20.0
    vertex -22185.52589066821 27515.057819452275 20.0
  endloop
endfacet
facet normal 0.0 0.0 1.0
  outer loop
    vertex -22185.52589066821 27515.057819452275 20.0
    vertex -22202.52589066821 27512.057819452275 20.0
    vertex -22185.52589066821 27512.057819452275 20.0
  endloop
endfacet
facet normal 0.0 0.0 1.0
  outer loop
    vertex -22296.52589066821 27512.057819452275 20.0
    vertex -22313.52589066821 27515.057819452275 20.0
    vertex -22313.52589066821 27512.057819452275 20.0
  endloop
endfacet
facet normal 0.0 0.0 1.0
  outer loop
    vertex -22313.52589066821 27515.057819452275 20.0
    vertex -22296.52589066821 27512.057819452275 20.0
    vertex -22290.52589066821 27515.057819452275 20.0
  endloop
endfacet
facet normal 0.0 0.0 1.0
  outer loop
    vertex -22290.52589066821 27515.057819452275 20.0
    vertex -22296.52589066821 27512.057819452275 20.0
    vertex -22293.52589066821 27509.057819452275 20.0
  endloop
endfacet
facet normal 0.0 0.0 1.0
  outer loop
    vertex -22290.52589066821 27515.057819452275 20.0
    vertex -22293.52589066821 27509.057819452275 20.0
    vertex -22290.52589066821 27478.057819452275 20.0
  endloop
endfacet
facet normal 0.0 0.0 1.0
  outer loop
    vertex -22290.52589066821 27515.057819452275 20.0
    vertex -22290.52589066821 27478.057819452275 20.0
    vertex -22290.52589066821 27484.057819452275 20.0
  endloop
endfacet
facet normal 0.7071067811865476 -0.7071067811865476 -2.87900789613907e-29
  outer loop
    vertex -22205.52589066821 27481.057819452275 -1.4099832412739487e-15
    vertex -22208.52589066821 27478.057819452275 20.0
    vertex -22208.52589066821 27478.057819452275 -1.4099832412739487e-15
  endloop
endfacet
facet normal 0.7071067811865476 -0.7071067811865476 -2.87900789613907e-29
  outer loop
    vertex -22208.52589066821 27478.057819452275 20.0
    vertex -22205.52589066821 27481.057819452275 -1.4099832412739487e-15
    vertex -22205.52589066821 27481.057819452275 20.0
  endloop
endfacet
facet normal -0.7071067811865475 -0.7071067811865476 -3.956878322815388e-18
  outer loop
    vertex -22290.52589066821 27478.057819452275 20.0
    vertex -22293.52589066821 27481.057819452275 1.4099832412739487e-15
    vertex -22290.52589066821 27478.057819452275 1.4099832412739487e-15
  endloop
endfacet
facet normal -0.7071067811865475 -0.7071067811865476 -3.956878322815388e-18
  outer loop
    vertex -22293.52589066821 27481.057819452275 1.4099832412739487e-15
    vertex -22290.52589066821 27478.057819452275 20.0
    vertex -22293.52589066821 27481.057819452275 20.0
  endloop
endfacet
endsolid [0011]
