solid [0008]
facet normal -3.021392659872811e-16 1.6395153968301604e-17 -1.0
  outer loop
    vertex 1904.4563326833384 1413.9045917120163 108.74999999999997
    vertex 1900.9563326833393 1395.4045917120177 108.74999999999997
    vertex 1900.9563326833393 1413.9045917120163 108.74999999999997
  endloop
endfacet
facet normal -3.021392659872811e-16 1.6395153968301604e-17 -1.0
  outer loop
    vertex 1900.9563326833393 1395.4045917120177 108.74999999999997
    vertex 1904.4563326833384 1413.9045917120163 108.74999999999997
    vertex 1904.4563326833384 1395.4045917120177 108.74999999999997
  endloop
endfacet
facet normal 0.0 0.0 1.0
  outer loop
    vertex 1904.4563326833384 1395.4045917120177 174.75000000000017
    vertex 1900.9563326833393 1413.9045917120163 174.75000000000017
    vertex 1900.9563326833393 1395.4045917120177 174.75000000000017
  endloop
endfacet
facet normal 0.0 0.0 1.0
  outer loop
    vertex 1900.9563326833393 1413.9045917120163 174.75000000000017
    vertex 1904.4563326833384 1395.4045917120177 174.75000000000017
    vertex 1904.4563326833384 1413.9045917120163 174.75000000000017
  endloop
endfacet
facet normal 5.287437154777556e-16 1.6395153968301604e-17 -1.0
  outer loop
    vertex 1900.9563326833393 1415.9045917120159 106.74999999999997
    vertex 1898.9563326833397 1393.4045917120181 106.74999999999997
    vertex 1898.9563326833397 1415.9045917120159 106.74999999999997
  endloop
endfacet
facet normal 5.287437154777556e-16 1.6395153968301604e-17 -1.0
  outer loop
    vertex 1898.9563326833397 1393.4045917120181 106.74999999999997
    vertex 1900.9563326833393 1415.9045917120159 106.74999999999997
    vertex 1900.9563326833393 1393.4045917120181 106.74999999999997
  endloop
endfacet
facet normal 0.0 0.0 1.0
  outer loop
    vertex 1900.9563326833393 1393.4045917120181 176.75000000000017
    vertex 1898.9563326833397 1415.9045917120159 176.75000000000017
    vertex 1898.9563326833397 1393.4045917120181 176.75000000000017
  endloop
endfacet
facet normal 0.0 0.0 1.0
  outer loop
    vertex 1898.9563326833397 1415.9045917120159 176.75000000000017
    vertex 1900.9563326833393 1393.4045917120181 176.75000000000017
    vertex 1900.9563326833393 1415.9045917120159 176.75000000000017
  endloop
endfacet
facet normal 0.0 1.0 0.0
  outer loop
    vertex 1898.9563326833397 1415.9045917120159 176.75000000000017
    vertex 1900.9563326833393 1415.9045917120159 106.74999999999997
    vertex 1898.9563326833397 1415.9045917120159 106.74999999999997
  endloop
endfacet
facet normal 0.0 1.0 0.0
  outer loop
    vertex 1900.9563326833393 1415.9045917120159 106.74999999999997
    vertex 1898.9563326833397 1415.9045917120159 176.75000000000017
    vertex 1900.9563326833393 1415.9045917120159 176.75000000000017
  endloop
endfacet
facet normal 0.0 -1.0 0.0
  outer loop
    vertex 1900.9563326833393 1393.4045917120181 176.75000000000017
    vertex 1898.9563326833397 1393.4045917120181 165.50000000000017
    vertex 1900.9563326833393 1393.4045917120181 165.50000000000017
  endloop
endfacet
facet normal 0.0 -1.0 0.0
  outer loop
    vertex 1898.9563326833397 1393.4045917120181 165.50000000000017
    vertex 1900.9563326833393 1393.4045917120181 176.75000000000017
    vertex 1898.9563326833397 1393.4045917120181 176.75000000000017
  endloop
endfacet
facet normal 0.0 -1.0 0.0
  outer loop
    vertex 1904.4563326833384 1395.4045917120177 174.75000000000017
    vertex 1900.9563326833393 1395.4045917120177 165.50000000000017
    vertex 1904.4563326833384 1395.4045917120177 165.50000000000017
  endloop
endfacet
facet normal 0.0 -1.0 0.0
  outer loop
    vertex 1900.9563326833393 1395.4045917120177 165.50000000000017
    vertex 1904.4563326833384 1395.4045917120177 174.75000000000017
    vertex 1900.9563326833393 1395.4045917120177 174.75000000000017
  endloop
endfacet
facet normal 0.0 -1.0 0.0
  outer loop
    vertex 1904.4563326833384 1411.9045917120168 165.50000000000017
    vertex 1898.9563326833397 1411.9045917120168 155.50000000000017
    vertex 1904.4563326833384 1411.9045917120168 155.50000000000017
  endloop
endfacet
facet normal 0.0 -1.0 0.0
  outer loop
    vertex 1898.9563326833397 1411.9045917120168 155.50000000000017
    vertex 1904.4563326833384 1411.9045917120168 165.50000000000017
    vertex 1898.9563326833397 1411.9045917120168 165.50000000000017
  endloop
endfacet
facet normal 0.0 0.0 -1.0
  outer loop
    vertex 1904.4563326833384 1411.9045917120168 165.50000000000017
    vertex 1898.9563326833397 1393.4045917120181 165.50000000000017
    vertex 1898.9563326833397 1411.9045917120168 165.50000000000017
  endloop
endfacet
facet normal 0.0 0.0 -1.0
  outer loop
    vertex 1898.9563326833397 1393.4045917120181 165.50000000000017
    vertex 1904.4563326833384 1411.9045917120168 165.50000000000017
    vertex 1900.9563326833393 1395.4045917120177 165.50000000000017
  endloop
endfacet
facet normal 0.0 0.0 -1.0
  outer loop
    vertex 1900.9563326833393 1395.4045917120177 165.50000000000017
    vertex 1904.4563326833384 1411.9045917120168 165.50000000000017
    vertex 1904.4563326833384 1395.4045917120177 165.50000000000017
  endloop
endfacet
facet normal 0.0 0.0 -1.0
  outer loop
    vertex 1900.9563326833393 1393.4045917120181 165.50000000000017
    vertex 1898.9563326833397 1393.4045917120181 165.50000000000017
    vertex 1900.9563326833393 1395.4045917120177 165.50000000000017
  endloop
endfacet
facet normal 0.0 0.0 1.0
  outer loop
    vertex 1900.9563326833393 1393.4045917120181 155.50000000000017
    vertex 1898.9563326833397 1411.9045917120168 155.50000000000017
    vertex 1898.9563326833397 1393.4045917120181 155.50000000000017
  endloop
endfacet
facet normal 0.0 0.0 1.0
  outer loop
    vertex 1898.9563326833397 1411.9045917120168 155.50000000000017
    vertex 1900.9563326833393 1393.4045917120181 155.50000000000017
    vertex 1900.9563326833393 1395.4045917120177 155.50000000000017
  endloop
endfacet
facet normal 0.0 0.0 1.0
  outer loop
    vertex 1898.9563326833397 1411.9045917120168 155.50000000000017
    vertex 1900.9563326833393 1395.4045917120177 155.50000000000017
    vertex 1904.4563326833384 1411.9045917120168 155.50000000000017
  endloop
endfacet
facet normal 0.0 0.0 1.0
  outer loop
    vertex 1904.4563326833384 1411.9045917120168 155.50000000000017
    vertex 1900.9563326833393 1395.4045917120177 155.50000000000017
    vertex 1904.4563326833384 1395.4045917120177 155.50000000000017
  endloop
endfacet
facet normal -1.0 0.0 0.0
  outer loop
    vertex 1898.9563326833397 1415.9045917120159 176.75000000000017
    vertex 1898.9563326833397 1393.4045917120181 165.50000000000017
    vertex 1898.9563326833397 1393.4045917120181 176.75000000000017
  endloop
endfacet
facet normal -1.0 0.0 0.0
  outer loop
    vertex 1898.9563326833397 1393.4045917120181 165.50000000000017
    vertex 1898.9563326833397 1415.9045917120159 176.75000000000017
    vertex 1898.9563326833397 1411.9045917120168 165.50000000000017
  endloop
endfacet
facet normal -1.0 0.0 0.0
  outer loop
    vertex 1898.9563326833397 1411.9045917120168 165.50000000000017
    vertex 1898.9563326833397 1415.9045917120159 176.75000000000017
    vertex 1898.9563326833397 1411.9045917120168 155.50000000000017
  endloop
endfacet
facet normal -1.0 0.0 0.0
  outer loop
    vertex 1898.9563326833397 1411.9045917120168 155.50000000000017
    vertex 1898.9563326833397 1393.4045917120181 106.74999999999997
    vertex 1898.9563326833397 1393.4045917120181 155.50000000000017
  endloop
endfacet
facet normal -1.0 0.0 0.0
  outer loop
    vertex 1898.9563326833397 1393.4045917120181 106.74999999999997
    vertex 1898.9563326833397 1411.9045917120168 155.50000000000017
    vertex 1898.9563326833397 1415.9045917120159 106.74999999999997
  endloop
endfacet
facet normal -1.0 0.0 0.0
  outer loop
    vertex 1898.9563326833397 1415.9045917120159 106.74999999999997
    vertex 1898.9563326833397 1411.9045917120168 155.50000000000017
    vertex 1898.9563326833397 1415.9045917120159 176.75000000000017
  endloop
endfacet
facet normal 0.0 1.0 0.0
  outer loop
    vertex 1900.9563326833393 1413.9045917120163 142.99999999998093
    vertex 1904.4563326833384 1413.9045917120163 108.74999999999997
    vertex 1900.9563326833393 1413.9045917120163 108.74999999999997
  endloop
endfacet
facet normal 0.0 1.0 0.0
  outer loop
    vertex 1904.4563326833384 1413.9045917120163 108.74999999999997
    vertex 1900.9563326833393 1413.9045917120163 142.99999999998093
    vertex 1904.4563326833384 1413.9045917120163 174.75000000000017
  endloop
endfacet
facet normal 0.0 1.0 0.0
  outer loop
    vertex 1904.4563326833384 1413.9045917120163 174.75000000000017
    vertex 1900.9563326833393 1413.9045917120163 142.99999999998093
    vertex 1900.9563326833393 1413.9045917120163 150.00000000000014
  endloop
endfacet
facet normal 0.0 1.0 0.0
  outer loop
    vertex 1904.4563326833384 1413.9045917120163 174.75000000000017
    vertex 1900.9563326833393 1413.9045917120163 150.00000000000014
    vertex 1900.9563326833393 1413.9045917120163 174.75000000000017
  endloop
endfacet
facet normal 1.0 0.0 0.0
  outer loop
    vertex 1904.4563326833384 1413.9045917120163 108.74999999999997
    vertex 1904.4563326833384 1395.4045917120177 155.50000000000017
    vertex 1904.4563326833384 1395.4045917120177 108.74999999999997
  endloop
endfacet
facet normal 1.0 0.0 0.0
  outer loop
    vertex 1904.4563326833384 1395.4045917120177 155.50000000000017
    vertex 1904.4563326833384 1413.9045917120163 108.74999999999997
    vertex 1904.4563326833384 1411.9045917120168 155.50000000000017
  endloop
endfacet
facet normal 1.0 0.0 0.0
  outer loop
    vertex 1904.4563326833384 1411.9045917120168 155.50000000000017
    vertex 1904.4563326833384 1413.9045917120163 108.74999999999997
    vertex 1904.4563326833384 1411.9045917120168 165.50000000000017
  endloop
endfacet
facet normal 1.0 0.0 0.0
  outer loop
    vertex 1904.4563326833384 1411.9045917120168 165.50000000000017
    vertex 1904.4563326833384 1395.4045917120177 174.75000000000017
    vertex 1904.4563326833384 1395.4045917120177 165.50000000000017
  endloop
endfacet
facet normal 1.0 0.0 0.0
  outer loop
    vertex 1904.4563326833384 1395.4045917120177 174.75000000000017
    vertex 1904.4563326833384 1411.9045917120168 165.50000000000017
    vertex 1904.4563326833384 1413.9045917120163 174.75000000000017
  endloop
endfacet
facet normal 1.0 0.0 0.0
  outer loop
    vertex 1904.4563326833384 1413.9045917120163 174.75000000000017
    vertex 1904.4563326833384 1411.9045917120168 165.50000000000017
    vertex 1904.4563326833384 1413.9045917120163 108.74999999999997
  endloop
endfacet
facet normal 1.0 0.0 0.0
  outer loop
    vertex 1900.9563326833393 1395.4045917120177 108.74999999999997
    vertex 1900.9563326833393 1395.4045917120177 155.50000000000017
    vertex 1900.9563326833393 1393.4045917120181 155.50000000000017
  endloop
endfacet
facet normal 1.0 0.0 0.0
  outer loop
    vertex 1900.9563326833393 1395.4045917120177 155.50000000000017
    vertex 1900.9563326833393 1395.4045917120177 108.74999999999997
    vertex 1900.9563326833393 1395.4045917120177 142.99999999999363
  endloop
endfacet
facet normal 1.0 0.0 0.0
  outer loop
    vertex 1900.9563326833393 1395.4045917120177 155.50000000000017
    vertex 1900.9563326833393 1395.4045917120177 142.99999999999363
    vertex 1900.9563326833393 1395.4045917120177 150.00000000000057
  endloop
endfacet
facet normal 1.0 0.0 0.0
  outer loop
    vertex 1900.9563326833393 1393.4045917120181 106.74999999999997
    vertex 1900.9563326833393 1395.4045917120177 108.74999999999997
    vertex 1900.9563326833393 1393.4045917120181 155.50000000000017
  endloop
endfacet
facet normal 1.0 0.0 0.0
  outer loop
    vertex 1900.9563326833393 1395.4045917120177 108.74999999999997
    vertex 1900.9563326833393 1393.4045917120181 106.74999999999997
    vertex 1900.9563326833393 1415.9045917120159 106.74999999999997
  endloop
endfacet
facet normal 1.0 0.0 0.0
  outer loop
    vertex 1900.9563326833393 1395.4045917120177 108.74999999999997
    vertex 1900.9563326833393 1415.9045917120159 106.74999999999997
    vertex 1900.9563326833393 1413.9045917120163 108.74999999999997
  endloop
endfacet
facet normal 1.0 0.0 0.0
  outer loop
    vertex 1900.9563326833393 1413.9045917120163 108.74999999999997
    vertex 1900.9563326833393 1415.9045917120159 106.74999999999997
    vertex 1900.9563326833393 1413.9045917120163 142.99999999998093
  endloop
endfacet
facet normal 1.0 0.0 0.0
  outer loop
    vertex 1900.9563326833393 1413.9045917120163 142.99999999998093
    vertex 1900.9563326833393 1415.9045917120159 106.74999999999997
    vertex 1900.9563326833393 1413.9045917120163 150.00000000000014
  endloop
endfacet
facet normal 1.0 0.0 0.0
  outer loop
    vertex 1900.9563326833393 1413.9045917120163 150.00000000000014
    vertex 1900.9563326833393 1415.9045917120159 106.74999999999997
    vertex 1900.9563326833393 1413.9045917120163 174.75000000000017
  endloop
endfacet
facet normal 1.0 0.0 0.0
  outer loop
    vertex 1900.9563326833393 1395.4045917120177 165.50000000000017
    vertex 1900.9563326833393 1393.4045917120181 176.75000000000017
    vertex 1900.9563326833393 1393.4045917120181 165.50000000000017
  endloop
endfacet
facet normal 1.0 0.0 0.0
  outer loop
    vertex 1900.9563326833393 1393.4045917120181 176.75000000000017
    vertex 1900.9563326833393 1395.4045917120177 165.50000000000017
    vertex 1900.9563326833393 1395.4045917120177 174.75000000000017
  endloop
endfacet
facet normal 1.0 0.0 0.0
  outer loop
    vertex 1900.9563326833393 1393.4045917120181 176.75000000000017
    vertex 1900.9563326833393 1395.4045917120177 174.75000000000017
    vertex 1900.9563326833393 1415.9045917120159 176.75000000000017
  endloop
endfacet
facet normal 1.0 0.0 0.0
  outer loop
    vertex 1900.9563326833393 1415.9045917120159 176.75000000000017
    vertex 1900.9563326833393 1395.4045917120177 174.75000000000017
    vertex 1900.9563326833393 1413.9045917120163 174.75000000000017
  endloop
endfacet
facet normal 1.0 0.0 0.0
  outer loop
    vertex 1900.9563326833393 1415.9045917120159 176.75000000000017
    vertex 1900.9563326833393 1413.9045917120163 174.75000000000017
    vertex 1900.9563326833393 1415.9045917120159 106.74999999999997
  endloop
endfacet
facet normal 1.0 0.0 0.0
  outer loop
    vertex 1900.9563326833393 1413.9045917120163 142.99999999998093
    vertex 1900.9563326833393 1395.4045917120177 150.00000000000057
    vertex 1900.9563326833393 1395.4045917120177 142.99999999999363
  endloop
endfacet
facet normal 1.0 0.0 0.0
  outer loop
    vertex 1900.9563326833393 1395.4045917120177 150.00000000000057
    vertex 1900.9563326833393 1413.9045917120163 142.99999999998093
    vertex 1900.9563326833393 1413.9045917120163 150.00000000000014
  endloop
endfacet
facet normal 0.0 -1.0 0.0
  outer loop
    vertex 1904.4563326833384 1395.4045917120177 155.50000000000017
    vertex 1900.9563326833393 1395.4045917120177 108.74999999999997
    vertex 1904.4563326833384 1395.4045917120177 108.74999999999997
  endloop
endfacet
facet normal 0.0 -1.0 0.0
  outer loop
    vertex 1900.9563326833393 1395.4045917120177 108.74999999999997
    vertex 1904.4563326833384 1395.4045917120177 155.50000000000017
    vertex 1900.9563326833393 1395.4045917120177 142.99999999999363
  endloop
endfacet
facet normal 0.0 -1.0 0.0
  outer loop
    vertex 1900.9563326833393 1395.4045917120177 142.99999999999363
    vertex 1904.4563326833384 1395.4045917120177 155.50000000000017
    vertex 1900.9563326833393 1395.4045917120177 150.00000000000057
  endloop
endfacet
facet normal 0.0 -1.0 0.0
  outer loop
    vertex 1900.9563326833393 1395.4045917120177 150.00000000000057
    vertex 1904.4563326833384 1395.4045917120177 155.50000000000017
    vertex 1900.9563326833393 1395.4045917120177 155.50000000000017
  endloop
endfacet
facet normal 1.0 0.0 0.0
  outer loop
    vertex 1900.9563326833393 1413.9045917120163 108.74999999999997
    vertex 1900.9563326833393 1395.4045917120177 142.99999999999363
    vertex 1900.9563326833393 1395.4045917120177 108.74999999999997
  endloop
endfacet
facet normal 1.0 0.0 0.0
  outer loop
    vertex 1900.9563326833393 1395.4045917120177 142.99999999999363
    vertex 1900.9563326833393 1413.9045917120163 108.74999999999997
    vertex 1900.9563326833393 1413.9045917120163 142.99999999998093
  endloop
endfacet
facet normal 0.0 -1.0 0.0
  outer loop
    vertex 1900.9563326833393 1393.4045917120181 155.50000000000017
    vertex 1898.9563326833397 1393.4045917120181 106.74999999999997
    vertex 1900.9563326833393 1393.4045917120181 106.74999999999997
  endloop
endfacet
facet normal 0.0 -1.0 0.0
  outer loop
    vertex 1898.9563326833397 1393.4045917120181 106.74999999999997
    vertex 1900.9563326833393 1393.4045917120181 155.50000000000017
    vertex 1898.9563326833397 1393.4045917120181 155.50000000000017
  endloop
endfacet
endsolid [0008]
