solid [0008]
facet normal -1.1795883795840058e-14 -1.0 3.592732292071751e-15
  outer loop
    vertex 1898.9563326833402 1390.1545917120156 117.50000000000001
    vertex 1897.9918665892728 1390.1545917120152 117.03553390592828
    vertex 1898.1710712537001 1390.1545917120156 116.80198984031541
  endloop
endfacet
facet normal -1.1795883795840058e-14 -1.0 3.592732292071751e-15
  outer loop
    vertex 1897.9918665892728 1390.1545917120152 117.03553390592828
    vertex 1898.9563326833402 1390.1545917120156 117.50000000000001
    vertex 1896.9563326833397 1390.154591712015 117.83012701891774
  endloop
endfacet
facet normal -1.1795883795840058e-14 -1.0 3.592732292071751e-15
  outer loop
    vertex 1896.9563326833397 1390.154591712015 117.83012701891774
    vertex 1898.9563326833402 1390.1545917120156 117.50000000000001
    vertex 1898.9563326833402 1390.1545917120156 165.0
  endloop
endfacet
facet normal -1.1795883795840058e-14 -1.0 3.592732292071751e-15
  outer loop
    vertex 1896.9563326833397 1390.154591712015 117.83012701891774
    vertex 1898.9563326833402 1390.1545917120156 165.0
    vertex 1895.7504279088525 1390.154591712015 118.32962913144088
  endloop
endfacet
facet normal -1.1795883795840058e-14 -1.0 3.592732292071751e-15
  outer loop
    vertex 1895.7504279088525 1390.154591712015 118.32962913144088
    vertex 1898.9563326833402 1390.1545917120156 165.0
    vertex 1894.45633268334 1390.1545917120152 118.49999999999552
  endloop
endfacet
facet normal -1.1795883795840058e-14 -1.0 3.592732292071751e-15
  outer loop
    vertex 1894.45633268334 1390.1545917120152 118.49999999999552
    vertex 1898.9563326833402 1390.1545917120156 165.0
    vertex 1895.750427908852 1390.1545917120159 164.17037086855458
  endloop
endfacet
facet normal -1.1795883795840058e-14 -1.0 3.592732292071751e-15
  outer loop
    vertex 1894.45633268334 1390.1545917120152 118.49999999999552
    vertex 1895.750427908852 1390.1545917120159 164.17037086855458
    vertex 1894.4563326833397 1390.1545917120159 163.99999999999991
  endloop
endfacet
facet normal -1.1795883795840058e-14 -1.0 3.592732292071751e-15
  outer loop
    vertex 1895.750427908852 1390.1545917120159 164.17037086855458
    vertex 1898.9563326833402 1390.1545917120156 165.0
    vertex 1896.9563326833397 1390.154591712016 164.66987298107776
  endloop
endfacet
facet normal -1.1795883795840058e-14 -1.0 3.592732292071751e-15
  outer loop
    vertex 1896.9563326833397 1390.154591712016 164.66987298107776
    vertex 1898.9563326833402 1390.1545917120156 165.0
    vertex 1897.9918665892724 1390.154591712016 165.46446609406718
  endloop
endfacet
facet normal -1.1795883795840058e-14 -1.0 3.592732292071751e-15
  outer loop
    vertex 1897.9918665892724 1390.154591712016 165.46446609406718
    vertex 1898.9563326833402 1390.1545917120156 165.0
    vertex 1898.1710712536997 1390.154591712016 165.6980101596801
  endloop
endfacet
facet normal -1.1795883795840058e-14 -1.0 3.592732292071751e-15
  outer loop
    vertex 1889.6267035518947 1390.1545917120163 114.79409522550817
    vertex 1888.4563326833404 1390.1545917120156 113.50000000000001
    vertex 1889.4563326833402 1390.1545917120163 113.49999999999558
  endloop
endfacet
facet normal -1.1795883795840058e-14 -1.0 3.592732292071751e-15
  outer loop
    vertex 1888.4563326833404 1390.1545917120156 113.50000000000001
    vertex 1889.6267035518947 1390.1545917120163 114.79409522550817
    vertex 1888.3200359884963 1390.1545917120156 114.53527618041008
  endloop
endfacet
facet normal -1.1795883795840058e-14 -1.0 3.592732292071751e-15
  outer loop
    vertex 1888.3200359884963 1390.1545917120156 114.53527618041008
    vertex 1889.6267035518947 1390.1545917120163 114.79409522550817
    vertex 1887.920434298478 1390.1545917120156 115.50000000000001
  endloop
endfacet
facet normal -1.1795883795840058e-14 -1.0 3.592732292071751e-15
  outer loop
    vertex 1887.920434298478 1390.1545917120156 115.50000000000001
    vertex 1889.6267035518947 1390.1545917120163 114.79409522550817
    vertex 1890.1262056644177 1390.1545917120159 115.99999999999555
  endloop
endfacet
facet normal -1.1795883795840058e-14 -1.0 3.592732292071751e-15
  outer loop
    vertex 1887.920434298478 1390.1545917120156 115.50000000000001
    vertex 1890.1262056644177 1390.1545917120159 115.99999999999555
    vertex 1887.2847598080862 1390.1545917120156 116.3284271247462
  endloop
endfacet
facet normal -1.1795883795840058e-14 -1.0 3.592732292071751e-15
  outer loop
    vertex 1887.2847598080862 1390.1545917120156 116.3284271247462
    vertex 1890.1262056644177 1390.1545917120159 115.99999999999555
    vertex 1890.9207987774073 1390.1545917120156 117.03553390592828
  endloop
endfacet
facet normal -1.1795883795840058e-14 -1.0 3.592732292071751e-15
  outer loop
    vertex 1887.2847598080862 1390.1545917120156 116.3284271247462
    vertex 1890.9207987774073 1390.1545917120156 117.03553390592828
    vertex 1886.45633268334 1390.1545917120156 116.96410161513778
  endloop
endfacet
facet normal -1.1795883795840058e-14 -1.0 3.592732292071751e-15
  outer loop
    vertex 1886.45633268334 1390.1545917120156 116.96410161513778
    vertex 1890.9207987774073 1390.1545917120156 117.03553390592828
    vertex 1885.4916088637503 1390.1545917120156 117.36370330515628
  endloop
endfacet
facet normal -1.1795883795840058e-14 -1.0 3.592732292071751e-15
  outer loop
    vertex 1885.4916088637503 1390.1545917120156 117.36370330515628
    vertex 1890.9207987774073 1390.1545917120156 117.03553390592828
    vertex 1891.95633268334 1390.1545917120154 117.83012701891772
  endloop
endfacet
facet normal -1.1795883795840058e-14 -1.0 3.592732292071751e-15
  outer loop
    vertex 1885.4916088637503 1390.1545917120156 117.36370330515628
    vertex 1891.95633268334 1390.1545917120154 117.83012701891772
    vertex 1884.95633268334 1390.1545917120156 117.43417375120632
  endloop
endfacet
facet normal -1.1795883795840058e-14 -1.0 3.592732292071751e-15
  outer loop
    vertex 1884.95633268334 1390.1545917120156 117.43417375120632
    vertex 1891.95633268334 1390.1545917120154 117.83012701891772
    vertex 1884.95633268334 1390.1545917120159 165.0658262487938
  endloop
endfacet
facet normal -1.1795883795840058e-14 -1.0 3.592732292071751e-15
  outer loop
    vertex 1884.95633268334 1390.1545917120159 165.0658262487938
    vertex 1891.95633268334 1390.1545917120154 117.83012701891772
    vertex 1893.1622374578276 1390.1545917120152 118.32962913144088
  endloop
endfacet
facet normal -1.1795883795840058e-14 -1.0 3.592732292071751e-15
  outer loop
    vertex 1884.95633268334 1390.1545917120159 165.0658262487938
    vertex 1893.1622374578276 1390.1545917120152 118.32962913144088
    vertex 1894.45633268334 1390.1545917120152 118.49999999999552
  endloop
endfacet
facet normal -1.1795883795840058e-14 -1.0 3.592732292071751e-15
  outer loop
    vertex 1884.95633268334 1390.1545917120159 165.0658262487938
    vertex 1894.45633268334 1390.1545917120152 118.49999999999552
    vertex 1894.4563326833397 1390.1545917120159 163.99999999999991
  endloop
endfacet
facet normal -1.1795883795840058e-14 -1.0 3.592732292071751e-15
  outer loop
    vertex 1884.95633268334 1390.1545917120159 165.0658262487938
    vertex 1894.4563326833397 1390.1545917120159 163.99999999999991
    vertex 1893.1622374578271 1390.1545917120159 164.17037086855458
  endloop
endfacet
facet normal -1.1795883795840058e-14 -1.0 3.592732292071751e-15
  outer loop
    vertex 1884.95633268334 1390.1545917120159 165.0658262487938
    vertex 1893.1622374578271 1390.1545917120159 164.17037086855458
    vertex 1891.95633268334 1390.1545917120159 164.66987298107776
  endloop
endfacet
facet normal -1.1795883795840058e-14 -1.0 3.592732292071751e-15
  outer loop
    vertex 1884.95633268334 1390.1545917120159 165.0658262487938
    vertex 1891.95633268334 1390.1545917120159 164.66987298107776
    vertex 1890.9207987774068 1390.1545917120156 165.46446609406718
  endloop
endfacet
facet normal -1.1795883795840058e-14 -1.0 3.592732292071751e-15
  outer loop
    vertex 1884.95633268334 1390.1545917120159 165.0658262487938
    vertex 1890.9207987774068 1390.1545917120156 165.46446609406718
    vertex 1885.4916088637503 1390.1545917120159 165.1362966948437
  endloop
endfacet
facet normal -1.1795883795840058e-14 -1.0 3.592732292071751e-15
  outer loop
    vertex 1885.4916088637503 1390.1545917120159 165.1362966948437
    vertex 1890.9207987774068 1390.1545917120156 165.46446609406718
    vertex 1886.45633268334 1390.1545917120159 165.53589838486224
  endloop
endfacet
facet normal -1.1795883795840058e-14 -1.0 3.592732292071751e-15
  outer loop
    vertex 1886.45633268334 1390.1545917120159 165.53589838486224
    vertex 1890.9207987774068 1390.1545917120156 165.46446609406718
    vertex 1890.1262056644173 1390.1545917120156 166.4999999999999
  endloop
endfacet
facet normal -1.1795883795840058e-14 -1.0 3.592732292071751e-15
  outer loop
    vertex 1886.45633268334 1390.1545917120159 165.53589838486224
    vertex 1890.1262056644173 1390.1545917120156 166.4999999999999
    vertex 1887.2847598080862 1390.1545917120159 166.17157287525382
  endloop
endfacet
facet normal -1.1795883795840058e-14 -1.0 3.592732292071751e-15
  outer loop
    vertex 1887.2847598080862 1390.1545917120159 166.17157287525382
    vertex 1890.1262056644173 1390.1545917120156 166.4999999999999
    vertex 1887.920434298478 1390.1545917120156 167.0
  endloop
endfacet
facet normal -1.1795883795840058e-14 -1.0 3.592732292071751e-15
  outer loop
    vertex 1887.920434298478 1390.1545917120156 167.0
    vertex 1890.1262056644173 1390.1545917120156 166.4999999999999
    vertex 1889.6267035518945 1390.1545917120154 167.7059047744873
  endloop
endfacet
facet normal -1.1795883795840058e-14 -1.0 3.592732292071751e-15
  outer loop
    vertex 1887.920434298478 1390.1545917120156 167.0
    vertex 1889.6267035518945 1390.1545917120154 167.7059047744873
    vertex 1888.3200359884963 1390.1545917120156 167.96472381958992
  endloop
endfacet
facet normal -1.1795883795840058e-14 -1.0 3.592732292071751e-15
  outer loop
    vertex 1888.3200359884963 1390.1545917120156 167.96472381958992
    vertex 1889.6267035518945 1390.1545917120154 167.7059047744873
    vertex 1889.4563326833397 1390.1545917120154 168.99999999999986
  endloop
endfacet
facet normal -1.1795883795840058e-14 -1.0 3.592732292071751e-15
  outer loop
    vertex 1888.3200359884963 1390.1545917120156 167.96472381958992
    vertex 1889.4563326833397 1390.1545917120154 168.99999999999986
    vertex 1888.4563326833404 1390.1545917120156 169.0
  endloop
endfacet
facet normal 1.1416064372656238e-13 1.0 -2.201953756120232e-13
  outer loop
    vertex 1876.9563326833397 1414.1545917120154 142.4999999999998
    vertex 1898.9563326833397 1414.1545917120118 137.30903533472306
    vertex 1876.9563326833397 1414.1545917120152 137.3090353347228
  endloop
endfacet
facet normal 1.1416064372656238e-13 1.0 -2.201953756120232e-13
  outer loop
    vertex 1898.9563326833397 1414.1545917120118 137.30903533472306
    vertex 1876.9563326833397 1414.1545917120154 142.4999999999998
    vertex 1898.9563326833397 1414.1545917120143 142.4999999999998
  endloop
endfacet
facet normal 2.6277094386920407e-14 3.3716486851966126e-14 1.0
  outer loop
    vertex 1884.95633268334 1402.7545917120153 155.0000000000012
    vertex 1876.95633268334 1414.1545917120152 154.99999999999974
    vertex 1876.95633268334 1402.7545917120149 155.0000000000009
  endloop
endfacet
facet normal 2.6277094386920407e-14 3.3716486851966126e-14 1.0
  outer loop
    vertex 1876.95633268334 1414.1545917120152 154.99999999999974
    vertex 1884.95633268334 1402.7545917120153 155.0000000000012
    vertex 1898.9563326833402 1414.1545917120159 155.0
  endloop
endfacet
facet normal 2.6277094386920407e-14 3.3716486851966126e-14 1.0
  outer loop
    vertex 1898.9563326833402 1414.1545917120159 155.0
    vertex 1884.95633268334 1402.7545917120153 155.0000000000012
    vertex 1898.9563326833402 1402.7545917120156 155.0
  endloop
endfacet
facet normal -1.245247613513424e-14 -8.584106505949854e-15 1.0
  outer loop
    vertex 1898.956332683338 1400.7545917120146 125.06623533472354
    vertex 1884.9563326833404 1402.7545917120162 125.06623533472289
    vertex 1884.95633268334 1400.7545917120162 125.06623533472354
  endloop
endfacet
facet normal -1.245247613513424e-14 -8.584106505949854e-15 1.0
  outer loop
    vertex 1884.9563326833404 1402.7545917120162 125.06623533472289
    vertex 1872.45633268334 1414.1545917120159 125.06623533472336
    vertex 1872.4563326833381 1402.7545917120187 125.06623533472289
  endloop
endfacet
facet normal -1.245247613513424e-14 -8.584106505949854e-15 1.0
  outer loop
    vertex 1872.45633268334 1414.1545917120159 125.06623533472336
    vertex 1884.9563326833404 1402.7545917120162 125.06623533472289
    vertex 1898.9563326833402 1414.1545917120118 125.06623533472336
  endloop
endfacet
facet normal -1.245247613513424e-14 -8.584106505949854e-15 1.0
  outer loop
    vertex 1898.9563326833402 1414.1545917120118 125.06623533472336
    vertex 1884.9563326833404 1402.7545917120162 125.06623533472289
    vertex 1898.956332683338 1400.7545917120146 125.06623533472354
  endloop
endfacet
facet normal 1.2690221087781842e-14 -4.717995546056722e-14 -1.0
  outer loop
    vertex 1876.9563326833397 1414.1545917120152 137.3090353347228
    vertex 1884.9563326833406 1402.7545917120162 137.3090353347235
    vertex 1876.9563326833386 1402.7545917120183 137.3090353347232
  endloop
endfacet
facet normal 1.2690221087781842e-14 -4.717995546056722e-14 -1.0
  outer loop
    vertex 1884.9563326833406 1402.7545917120162 137.3090353347235
    vertex 1876.9563326833397 1414.1545917120152 137.3090353347228
    vertex 1898.9563326833397 1414.1545917120118 137.30903533472306
  endloop
endfacet
facet normal 1.2690221087781842e-14 -4.717995546056722e-14 -1.0
  outer loop
    vertex 1884.9563326833406 1402.7545917120162 137.3090353347235
    vertex 1898.9563326833397 1414.1545917120118 137.30903533472306
    vertex 1898.956332683338 1400.7545917120146 137.30903533472363
  endloop
endfacet
facet normal 1.2690221087781842e-14 -4.717995546056722e-14 -1.0
  outer loop
    vertex 1898.956332683338 1400.7545917120146 137.30903533472363
    vertex 1884.95633268334 1400.7545917120162 137.30903533472363
    vertex 1884.9563326833406 1402.7545917120162 137.3090353347235
  endloop
endfacet
facet normal 1.1202073751364394e-13 1.0 1.9692263767921316e-30
  outer loop
    vertex 1884.95633268334 1400.7545917120162 137.30903533472363
    vertex 1898.956332683338 1400.7545917120146 125.06623533472354
    vertex 1884.95633268334 1400.7545917120162 125.06623533472354
  endloop
endfacet
facet normal 1.1202073751364394e-13 1.0 1.9692263767921316e-30
  outer loop
    vertex 1898.956332683338 1400.7545917120146 125.06623533472354
    vertex 1884.95633268334 1400.7545917120162 137.30903533472363
    vertex 1898.956332683338 1400.7545917120146 137.30903533472363
  endloop
endfacet
facet normal -1.0 1.4248251701292582e-13 -1.0430307265834427e-13
  outer loop
    vertex 1876.9563326833375 1402.7545917120194 142.5000000000128
    vertex 1876.9563326833397 1414.1545917120152 137.3090353347228
    vertex 1876.9563326833386 1402.7545917120183 137.3090353347232
  endloop
endfacet
facet normal -1.0 1.4248251701292582e-13 -1.0430307265834427e-13
  outer loop
    vertex 1876.9563326833397 1414.1545917120152 137.3090353347228
    vertex 1876.9563326833375 1402.7545917120194 142.5000000000128
    vertex 1876.9563326833397 1414.1545917120154 142.4999999999998
  endloop
endfacet
facet normal 0.664363838831185 6.61812048309963e-14 -0.747409318682535
  outer loop
    vertex 1898.9563326833402 1414.1545917120159 117.4999999999998
    vertex 1898.1710712537001 1390.1545917120156 116.80198984031541
    vertex 1898.1710712537001 1414.1545917120152 116.80198984031966
  endloop
endfacet
facet normal 0.664363838831185 6.61812048309963e-14 -0.747409318682535
  outer loop
    vertex 1898.1710712537001 1390.1545917120156 116.80198984031541
    vertex 1898.9563326833402 1414.1545917120159 117.4999999999998
    vertex 1898.9563326833402 1390.1545917120156 117.50000000000001
  endloop
endfacet
facet normal -2.213673688800651e-12 8.854694755200495e-14 -1.0
  outer loop
    vertex 1889.4563326833402 1414.1545917120159 113.49999999999982
    vertex 1888.4563326833404 1390.1545917120156 113.50000000000001
    vertex 1888.4563326833404 1414.1545917120154 113.49999999999982
  endloop
endfacet
facet normal -2.213673688800651e-12 8.854694755200495e-14 -1.0
  outer loop
    vertex 1888.4563326833404 1390.1545917120156 113.50000000000001
    vertex 1889.4563326833402 1414.1545917120159 113.49999999999982
    vertex 1889.4563326833402 1390.1545917120163 113.49999999999558
  endloop
endfacet
facet normal -0.9914448613737741 0.0 -0.13052619222032788
  outer loop
    vertex 1888.3200359884963 1414.1545917120154 114.53527618040991
    vertex 1888.4563326833404 1390.1545917120156 113.50000000000001
    vertex 1888.3200359884963 1390.1545917120156 114.53527618041008
  endloop
endfacet
facet normal -0.9914448613737741 0.0 -0.13052619222032788
  outer loop
    vertex 1888.4563326833404 1390.1545917120156 113.50000000000001
    vertex 1888.3200359884963 1414.1545917120154 114.53527618040991
    vertex 1888.4563326833404 1414.1545917120154 113.49999999999982
  endloop
endfacet
facet normal -0.9238795325113814 -0.0 -0.3826834323648613
  outer loop
    vertex 1887.920434298478 1414.1545917120154 115.49999999999982
    vertex 1888.3200359884963 1390.1545917120156 114.53527618041008
    vertex 1887.920434298478 1390.1545917120156 115.50000000000001
  endloop
endfacet
facet normal -0.9238795325113814 -0.0 -0.3826834323648613
  outer loop
    vertex 1888.3200359884963 1390.1545917120156 114.53527618041008
    vertex 1887.920434298478 1414.1545917120154 115.49999999999982
    vertex 1888.3200359884963 1414.1545917120154 114.53527618040991
  endloop
endfacet
facet normal -0.7933533402910817 -0.0 -0.6087614290089206
  outer loop
    vertex 1887.2847598080862 1414.1545917120154 116.32842712474601
    vertex 1887.920434298478 1390.1545917120156 115.50000000000001
    vertex 1887.2847598080862 1390.1545917120156 116.3284271247462
  endloop
endfacet
facet normal -0.7933533402910817 -0.0 -0.6087614290089206
  outer loop
    vertex 1887.920434298478 1390.1545917120156 115.50000000000001
    vertex 1887.2847598080862 1414.1545917120154 116.32842712474601
    vertex 1887.920434298478 1414.1545917120154 115.49999999999982
  endloop
endfacet
facet normal -0.6087614290087562 -0.0 -0.793353340291208
  outer loop
    vertex 1887.2847598080862 1414.1545917120154 116.32842712474601
    vertex 1886.45633268334 1390.1545917120156 116.96410161513778
    vertex 1886.45633268334 1414.1545917120154 116.96410161513757
  endloop
endfacet
facet normal -0.6087614290087562 -0.0 -0.793353340291208
  outer loop
    vertex 1886.45633268334 1390.1545917120156 116.96410161513778
    vertex 1887.2847598080862 1414.1545917120154 116.32842712474601
    vertex 1887.2847598080862 1390.1545917120156 116.3284271247462
  endloop
endfacet
facet normal -0.38268343236514096 -0.0 -0.9238795325112655
  outer loop
    vertex 1886.45633268334 1414.1545917120154 116.96410161513757
    vertex 1885.4916088637503 1390.1545917120156 117.36370330515628
    vertex 1885.4916088637503 1414.1545917120154 117.36370330515611
  endloop
endfacet
facet normal -0.38268343236514096 -0.0 -0.9238795325112655
  outer loop
    vertex 1885.4916088637503 1390.1545917120156 117.36370330515628
    vertex 1886.45633268334 1414.1545917120154 116.96410161513757
    vertex 1886.45633268334 1390.1545917120156 116.96410161513778
  endloop
endfacet
facet normal -0.1305261922200445 9.703022862396439e-17 -0.9914448613738114
  outer loop
    vertex 1885.4916088637503 1414.1545917120154 117.36370330515611
    vertex 1884.4563326833402 1402.7545917120156 117.50000000000001
    vertex 1884.4563326833402 1414.1545917120154 117.4999999999998
  endloop
endfacet
facet normal -0.1305261922200445 9.703022862396439e-17 -0.9914448613738114
  outer loop
    vertex 1884.4563326833402 1402.7545917120156 117.50000000000001
    vertex 1885.4916088637503 1414.1545917120154 117.36370330515611
    vertex 1884.95633268334 1402.7545917120156 117.43417375120632
  endloop
endfacet
facet normal -0.1305261922200445 9.703022862396439e-17 -0.9914448613738114
  outer loop
    vertex 1884.95633268334 1402.7545917120156 117.43417375120632
    vertex 1885.4916088637503 1414.1545917120154 117.36370330515611
    vertex 1884.95633268334 1390.1545917120156 117.43417375120632
  endloop
endfacet
facet normal -0.1305261922200445 9.703022862396439e-17 -0.9914448613738114
  outer loop
    vertex 1884.95633268334 1390.1545917120156 117.43417375120632
    vertex 1885.4916088637503 1414.1545917120154 117.36370330515611
    vertex 1885.4916088637503 1390.1545917120156 117.36370330515628
  endloop
endfacet
facet normal -0.6643638388298951 1.2723325775044615e-14 -0.7474093186836817
  outer loop
    vertex 1898.9563326833402 1400.7545917120156 165.0
    vertex 1898.1710712536997 1390.154591712016 165.6980101596801
    vertex 1898.1710712536997 1400.7545917120153 165.69801015968045
  endloop
endfacet
facet normal -0.6643638388298951 1.2723325775044615e-14 -0.7474093186836817
  outer loop
    vertex 1898.1710712536997 1390.154591712016 165.6980101596801
    vertex 1898.9563326833402 1400.7545917120156 165.0
    vertex 1898.9563326833402 1390.1545917120156 165.0
  endloop
endfacet
facet normal -6.203926261606275e-14 2.8199664825480008e-14 -1.0
  outer loop
    vertex 1889.4563326833397 1400.7545917120146 169.00000000000023
    vertex 1888.4563326833404 1390.1545917120156 169.0
    vertex 1888.45633268334 1400.7545917120149 169.00000000000023
  endloop
endfacet
facet normal -6.203926261606275e-14 2.8199664825480008e-14 -1.0
  outer loop
    vertex 1888.4563326833404 1390.1545917120156 169.0
    vertex 1889.4563326833397 1400.7545917120146 169.00000000000023
    vertex 1889.4563326833397 1390.1545917120154 168.99999999999986
  endloop
endfacet
facet normal 0.9914448613737741 3.667898100773729e-14 -0.1305261922203282
  outer loop
    vertex 1888.3200359884959 1400.7545917120149 167.96472381959018
    vertex 1888.4563326833404 1390.1545917120156 169.0
    vertex 1888.3200359884963 1390.1545917120156 167.96472381958992
  endloop
endfacet
facet normal 0.9914448613737741 3.667898100773729e-14 -0.1305261922203282
  outer loop
    vertex 1888.4563326833404 1390.1545917120156 169.0
    vertex 1888.3200359884959 1400.7545917120149 167.96472381959018
    vertex 1888.45633268334 1400.7545917120149 169.00000000000023
  endloop
endfacet
facet normal 0.9238795325113832 -7.387993061347907e-15 -0.38268343236485697
  outer loop
    vertex 1887.9204342984776 1400.7545917120149 167.00000000000023
    vertex 1888.3200359884963 1390.1545917120156 167.96472381958992
    vertex 1887.920434298478 1390.1545917120156 167.0
  endloop
endfacet
facet normal 0.9238795325113832 -7.387993061347907e-15 -0.38268343236485697
  outer loop
    vertex 1888.3200359884963 1390.1545917120156 167.96472381958992
    vertex 1887.9204342984776 1400.7545917120149 167.00000000000023
    vertex 1888.3200359884959 1400.7545917120149 167.96472381959018
  endloop
endfacet
facet normal 0.7933533402910808 -1.512333040719857e-15 -0.6087614290089219
  outer loop
    vertex 1887.2847598080862 1390.1545917120159 166.17157287525382
    vertex 1887.9204342984776 1400.7545917120149 167.00000000000023
    vertex 1887.920434298478 1390.1545917120156 167.0
  endloop
endfacet
facet normal 0.7933533402910808 -1.512333040719857e-15 -0.6087614290089219
  outer loop
    vertex 1887.9204342984776 1400.7545917120149 167.00000000000023
    vertex 1887.2847598080862 1390.1545917120159 166.17157287525382
    vertex 1887.2847598080857 1400.754591712015 166.17157287525404
  endloop
endfacet
facet normal 0.6087614290087544 4.4663899773670785e-15 -0.7933533402912093
  outer loop
    vertex 1887.2847598080857 1400.754591712015 166.17157287525404
    vertex 1886.45633268334 1390.1545917120159 165.53589838486224
    vertex 1886.4563326833397 1400.754591712015 165.5358983848625
  endloop
endfacet
facet normal 0.6087614290087544 4.4663899773670785e-15 -0.7933533402912093
  outer loop
    vertex 1886.45633268334 1390.1545917120159 165.53589838486224
    vertex 1887.2847598080857 1400.754591712015 166.17157287525404
    vertex 1887.2847598080862 1390.1545917120159 166.17157287525382
  endloop
endfacet
facet normal 0.38268343236514096 1.0140735899561393e-14 -0.9238795325112655
  outer loop
    vertex 1886.4563326833397 1400.754591712015 165.5358983848625
    vertex 1885.4916088637503 1390.1545917120159 165.1362966948437
    vertex 1885.49160886375 1400.754591712015 165.13629669484396
  endloop
endfacet
facet normal 0.38268343236514096 1.0140735899561393e-14 -0.9238795325112655
  outer loop
    vertex 1885.4916088637503 1390.1545917120159 165.1362966948437
    vertex 1886.4563326833397 1400.754591712015 165.5358983848625
    vertex 1886.45633268334 1390.1545917120159 165.53589838486224
  endloop
endfacet
facet normal 0.13052619222008013 1.3300084461024703e-14 -0.9914448613738068
  outer loop
    vertex 1885.49160886375 1400.754591712015 165.13629669484396
    vertex 1884.95633268334 1390.1545917120159 165.0658262487938
    vertex 1884.95633268334 1400.7545917120156 165.0658262487938
  endloop
endfacet
facet normal 0.13052619222008013 1.3300084461024703e-14 -0.9914448613738068
  outer loop
    vertex 1884.95633268334 1390.1545917120159 165.0658262487938
    vertex 1885.49160886375 1400.754591712015 165.13629669484396
    vertex 1885.4916088637503 1390.1545917120159 165.1362966948437
  endloop
endfacet
facet normal -1.0151879337171728e-13 -1.0 -6.070618755156817e-13
  outer loop
    vertex 1884.95633268334 1402.7545917120153 155.0000000000012
    vertex 1876.9563326833393 1402.7545917120194 149.5000000000004
    vertex 1884.95633268334 1402.7545917120174 149.5000000000004
  endloop
endfacet
facet normal -1.0151879337171728e-13 -1.0 -6.070618755156817e-13
  outer loop
    vertex 1876.9563326833393 1402.7545917120194 149.5000000000004
    vertex 1884.95633268334 1402.7545917120153 155.0000000000012
    vertex 1876.95633268334 1402.7545917120149 155.0000000000009
  endloop
endfacet
facet normal -3.722355756962022e-13 -1.0 1.738384544313721e-14
  outer loop
    vertex 1884.9563326833406 1402.7545917120162 137.3090353347235
    vertex 1876.9563326833375 1402.7545917120194 142.5000000000128
    vertex 1876.9563326833386 1402.7545917120183 137.3090353347232
  endloop
endfacet
facet normal -3.722355756962022e-13 -1.0 1.738384544313721e-14
  outer loop
    vertex 1876.9563326833375 1402.7545917120194 142.5000000000128
    vertex 1884.9563326833406 1402.7545917120162 137.3090353347235
    vertex 1884.9563326833404 1402.7545917120153 142.50000000000426
  endloop
endfacet
facet normal -4.126940728573649e-15 1.0 4.234545786518668e-14
  outer loop
    vertex 1884.95633268334 1400.7545917120156 165.0658262487938
    vertex 1898.9563326833402 1400.7545917120156 157.0
    vertex 1884.95633268334 1400.7545917120156 157.0
  endloop
endfacet
facet normal -4.126940728573649e-15 1.0 4.234545786518668e-14
  outer loop
    vertex 1898.9563326833402 1400.7545917120156 157.0
    vertex 1884.95633268334 1400.7545917120156 165.0658262487938
    vertex 1894.4563326833397 1400.754591712015 164.00000000000028
  endloop
endfacet
facet normal -4.126940728573649e-15 1.0 4.234545786518668e-14
  outer loop
    vertex 1894.4563326833397 1400.754591712015 164.00000000000028
    vertex 1884.95633268334 1400.7545917120156 165.0658262487938
    vertex 1893.1622374578271 1400.754591712015 164.17037086855495
  endloop
endfacet
facet normal -4.126940728573649e-15 1.0 4.234545786518668e-14
  outer loop
    vertex 1893.1622374578271 1400.754591712015 164.17037086855495
    vertex 1884.95633268334 1400.7545917120156 165.0658262487938
    vertex 1891.95633268334 1400.754591712015 164.6698729810781
  endloop
endfacet
facet normal -4.126940728573649e-15 1.0 4.234545786518668e-14
  outer loop
    vertex 1891.95633268334 1400.754591712015 164.6698729810781
    vertex 1884.95633268334 1400.7545917120156 165.0658262487938
    vertex 1890.9207987774068 1400.7545917120149 165.46446609406752
  endloop
endfacet
facet normal -4.126940728573649e-15 1.0 4.234545786518668e-14
  outer loop
    vertex 1890.9207987774068 1400.7545917120149 165.46446609406752
    vertex 1884.95633268334 1400.7545917120156 165.0658262487938
    vertex 1885.49160886375 1400.754591712015 165.13629669484396
  endloop
endfacet
facet normal -4.126940728573649e-15 1.0 4.234545786518668e-14
  outer loop
    vertex 1890.9207987774068 1400.7545917120149 165.46446609406752
    vertex 1885.49160886375 1400.754591712015 165.13629669484396
    vertex 1886.4563326833397 1400.754591712015 165.5358983848625
  endloop
endfacet
facet normal -4.126940728573649e-15 1.0 4.234545786518668e-14
  outer loop
    vertex 1890.9207987774068 1400.7545917120149 165.46446609406752
    vertex 1886.4563326833397 1400.754591712015 165.5358983848625
    vertex 1890.1262056644173 1400.7545917120149 166.50000000000026
  endloop
endfacet
facet normal -4.126940728573649e-15 1.0 4.234545786518668e-14
  outer loop
    vertex 1890.1262056644173 1400.7545917120149 166.50000000000026
    vertex 1886.4563326833397 1400.754591712015 165.5358983848625
    vertex 1887.2847598080857 1400.754591712015 166.17157287525404
  endloop
endfacet
facet normal -4.126940728573649e-15 1.0 4.234545786518668e-14
  outer loop
    vertex 1890.1262056644173 1400.7545917120149 166.50000000000026
    vertex 1887.2847598080857 1400.754591712015 166.17157287525404
    vertex 1887.9204342984776 1400.7545917120149 167.00000000000023
  endloop
endfacet
facet normal -4.126940728573649e-15 1.0 4.234545786518668e-14
  outer loop
    vertex 1890.1262056644173 1400.7545917120149 166.50000000000026
    vertex 1887.9204342984776 1400.7545917120149 167.00000000000023
    vertex 1889.6267035518945 1400.7545917120146 167.70590477448766
  endloop
endfacet
facet normal -4.126940728573649e-15 1.0 4.234545786518668e-14
  outer loop
    vertex 1889.6267035518945 1400.7545917120146 167.70590477448766
    vertex 1887.9204342984776 1400.7545917120149 167.00000000000023
    vertex 1888.3200359884959 1400.7545917120149 167.96472381959018
  endloop
endfacet
facet normal -4.126940728573649e-15 1.0 4.234545786518668e-14
  outer loop
    vertex 1889.6267035518945 1400.7545917120146 167.70590477448766
    vertex 1888.3200359884959 1400.7545917120149 167.96472381959018
    vertex 1889.4563326833397 1400.7545917120146 169.00000000000023
  endloop
endfacet
facet normal -4.126940728573649e-15 1.0 4.234545786518668e-14
  outer loop
    vertex 1889.4563326833397 1400.7545917120146 169.00000000000023
    vertex 1888.3200359884959 1400.7545917120149 167.96472381959018
    vertex 1888.45633268334 1400.7545917120149 169.00000000000023
  endloop
endfacet
facet normal -4.126940728573649e-15 1.0 4.234545786518668e-14
  outer loop
    vertex 1898.9563326833402 1400.7545917120156 157.0
    vertex 1895.750427908852 1400.754591712015 164.17037086855495
    vertex 1898.9563326833402 1400.7545917120156 165.0
  endloop
endfacet
facet normal -4.126940728573649e-15 1.0 4.234545786518668e-14
  outer loop
    vertex 1895.750427908852 1400.754591712015 164.17037086855495
    vertex 1898.9563326833402 1400.7545917120156 157.0
    vertex 1894.4563326833397 1400.754591712015 164.00000000000028
  endloop
endfacet
facet normal -4.126940728573649e-15 1.0 4.234545786518668e-14
  outer loop
    vertex 1898.9563326833402 1400.7545917120156 165.0
    vertex 1895.750427908852 1400.754591712015 164.17037086855495
    vertex 1896.9563326833397 1400.7545917120153 164.6698729810781
  endloop
endfacet
facet normal -4.126940728573649e-15 1.0 4.234545786518668e-14
  outer loop
    vertex 1898.9563326833402 1400.7545917120156 165.0
    vertex 1896.9563326833397 1400.7545917120153 164.6698729810781
    vertex 1897.9918665892724 1400.7545917120153 165.46446609406752
  endloop
endfacet
facet normal -4.126940728573649e-15 1.0 4.234545786518668e-14
  outer loop
    vertex 1898.9563326833402 1400.7545917120156 165.0
    vertex 1897.9918665892724 1400.7545917120153 165.46446609406752
    vertex 1898.1710712536997 1400.7545917120153 165.69801015968045
  endloop
endfacet
facet normal -0.7933533402909887 -2.0730053840044337e-14 0.6087614290090418
  outer loop
    vertex 1898.1710712536997 1400.7545917120153 165.69801015968045
    vertex 1897.9918665892724 1390.154591712016 165.46446609406718
    vertex 1898.1710712536997 1390.154591712016 165.6980101596801
  endloop
endfacet
facet normal -0.7933533402909887 -2.0730053840044337e-14 0.6087614290090418
  outer loop
    vertex 1897.9918665892724 1390.154591712016 165.46446609406718
    vertex 1898.1710712536997 1400.7545917120153 165.69801015968045
    vertex 1897.9918665892724 1400.7545917120153 165.46446609406752
  endloop
endfacet
facet normal -0.6087614290087517 -5.448787787682574e-14 0.7933533402912114
  outer loop
    vertex 1897.9918665892724 1390.154591712016 165.46446609406718
    vertex 1896.9563326833397 1400.7545917120153 164.6698729810781
    vertex 1896.9563326833397 1390.154591712016 164.66987298107776
  endloop
endfacet
facet normal -0.6087614290087517 -5.448787787682574e-14 0.7933533402912114
  outer loop
    vertex 1896.9563326833397 1400.7545917120153 164.6698729810781
    vertex 1897.9918665892724 1390.154591712016 165.46446609406718
    vertex 1897.9918665892724 1400.7545917120153 165.46446609406752
  endloop
endfacet
facet normal -0.3826834323650169 -4.756743150588143e-14 0.9238795325113169
  outer loop
    vertex 1896.9563326833397 1390.154591712016 164.66987298107776
    vertex 1895.750427908852 1400.754591712015 164.17037086855495
    vertex 1895.750427908852 1390.1545917120159 164.17037086855458
  endloop
endfacet
facet normal -0.3826834323650169 -4.756743150588143e-14 0.9238795325113169
  outer loop
    vertex 1895.750427908852 1400.754591712015 164.17037086855495
    vertex 1896.9563326833397 1390.154591712016 164.66987298107776
    vertex 1896.9563326833397 1400.7545917120153 164.6698729810781
  endloop
endfacet
facet normal -0.1305261922200588 -3.7405343286714734e-14 0.9914448613738095
  outer loop
    vertex 1895.750427908852 1390.1545917120159 164.17037086855458
    vertex 1894.4563326833397 1400.754591712015 164.00000000000028
    vertex 1894.4563326833397 1390.1545917120159 163.99999999999991
  endloop
endfacet
facet normal -0.1305261922200588 -3.7405343286714734e-14 0.9914448613738095
  outer loop
    vertex 1894.4563326833397 1400.754591712015 164.00000000000028
    vertex 1895.750427908852 1390.1545917120159 164.17037086855458
    vertex 1895.750427908852 1400.754591712015 164.17037086855495
  endloop
endfacet
facet normal 0.1305261922200588 -2.4694142737807338e-14 0.9914448613738095
  outer loop
    vertex 1894.4563326833397 1390.1545917120159 163.99999999999991
    vertex 1893.1622374578271 1400.754591712015 164.17037086855495
    vertex 1893.1622374578271 1390.1545917120159 164.17037086855458
  endloop
endfacet
facet normal 0.1305261922200588 -2.4694142737807338e-14 0.9914448613738095
  outer loop
    vertex 1893.1622374578271 1400.754591712015 164.17037086855495
    vertex 1894.4563326833397 1390.1545917120159 163.99999999999991
    vertex 1894.4563326833397 1400.754591712015 164.00000000000028
  endloop
endfacet
facet normal 0.38268343236511465 -1.0300077170318286e-14 0.9238795325112764
  outer loop
    vertex 1893.1622374578271 1390.1545917120159 164.17037086855458
    vertex 1891.95633268334 1400.754591712015 164.6698729810781
    vertex 1891.95633268334 1390.1545917120159 164.66987298107776
  endloop
endfacet
facet normal 0.38268343236511465 -1.0300077170318286e-14 0.9238795325112764
  outer loop
    vertex 1891.95633268334 1400.754591712015 164.6698729810781
    vertex 1893.1622374578271 1390.1545917120159 164.17037086855458
    vertex 1893.1622374578271 1400.754591712015 164.17037086855495
  endloop
endfacet
facet normal 0.6087614290086182 4.795921634635591e-15 0.7933533402913138
  outer loop
    vertex 1891.95633268334 1390.1545917120159 164.66987298107776
    vertex 1890.9207987774068 1400.7545917120149 165.46446609406752
    vertex 1890.9207987774068 1390.1545917120156 165.46446609406718
  endloop
endfacet
facet normal 0.6087614290086182 4.795921634635591e-15 0.7933533402913138
  outer loop
    vertex 1890.9207987774068 1400.7545917120149 165.46446609406752
    vertex 1891.95633268334 1390.1545917120159 164.66987298107776
    vertex 1891.95633268334 1400.754591712015 164.6698729810781
  endloop
endfacet
facet normal 0.793353340291212 1.9565086305838136e-14 0.608761429008751
  outer loop
    vertex 1890.9207987774068 1400.7545917120149 165.46446609406752
    vertex 1890.1262056644173 1390.1545917120156 166.4999999999999
    vertex 1890.9207987774068 1390.1545917120156 165.46446609406718
  endloop
endfacet
facet normal 0.793353340291212 1.9565086305838136e-14 0.608761429008751
  outer loop
    vertex 1890.1262056644173 1390.1545917120156 166.4999999999999
    vertex 1890.9207987774068 1400.7545917120149 165.46446609406752
    vertex 1890.1262056644173 1400.7545917120149 166.50000000000026
  endloop
endfacet
facet normal 0.9238795325113311 3.3000922678133766e-14 0.38268343236498265
  outer loop
    vertex 1890.1262056644173 1390.1545917120156 166.4999999999999
    vertex 1889.6267035518945 1400.7545917120146 167.70590477448766
    vertex 1889.6267035518945 1390.1545917120154 167.7059047744873
  endloop
endfacet
facet normal 0.9238795325113311 3.3000922678133766e-14 0.38268343236498265
  outer loop
    vertex 1889.6267035518945 1400.7545917120146 167.70590477448766
    vertex 1890.1262056644173 1390.1545917120156 166.4999999999999
    vertex 1890.1262056644173 1400.7545917120149 166.50000000000026
  endloop
endfacet
facet normal 0.9914448613738098 -4.4451122050810316e-15 0.13052619222005724
  outer loop
    vertex 1889.6267035518945 1400.7545917120146 167.70590477448766
    vertex 1889.4563326833397 1390.1545917120154 168.99999999999986
    vertex 1889.6267035518945 1390.1545917120154 167.7059047744873
  endloop
endfacet
facet normal 0.9914448613738098 -4.4451122050810316e-15 0.13052619222005724
  outer loop
    vertex 1889.4563326833397 1390.1545917120154 168.99999999999986
    vertex 1889.6267035518945 1400.7545917120146 167.70590477448766
    vertex 1889.4563326833397 1400.7545917120146 169.00000000000023
  endloop
endfacet
facet normal 0.9914448613738096 2.3115215430338997e-14 -0.13052619222005732
  outer loop
    vertex 1889.4563326833402 1390.1545917120163 113.49999999999558
    vertex 1889.6267035518947 1414.1545917120156 114.79409522551242
    vertex 1889.6267035518947 1390.1545917120163 114.79409522550817
  endloop
endfacet
facet normal 0.9914448613738096 2.3115215430338997e-14 -0.13052619222005732
  outer loop
    vertex 1889.6267035518947 1414.1545917120156 114.79409522551242
    vertex 1889.4563326833402 1390.1545917120163 113.49999999999558
    vertex 1889.4563326833402 1414.1545917120159 113.49999999999982
  endloop
endfacet
facet normal 0.9238795325113314 6.062588389201944e-14 -0.38268343236498226
  outer loop
    vertex 1889.6267035518947 1390.1545917120163 114.79409522550817
    vertex 1890.1262056644177 1414.1545917120152 115.99999999999979
    vertex 1890.1262056644177 1390.1545917120159 115.99999999999555
  endloop
endfacet
facet normal 0.9238795325113314 6.062588389201944e-14 -0.38268343236498226
  outer loop
    vertex 1890.1262056644177 1414.1545917120152 115.99999999999979
    vertex 1889.6267035518947 1390.1545917120163 114.79409522550817
    vertex 1889.6267035518947 1414.1545917120156 114.79409522551242
  endloop
endfacet
facet normal 0.7933533402912115 1.0165114173004199e-13 -0.6087614290087514
  outer loop
    vertex 1890.1262056644177 1390.1545917120159 115.99999999999555
    vertex 1890.9207987774073 1414.1545917120152 117.03553390593251
    vertex 1890.9207987774073 1390.1545917120156 117.03553390592828
  endloop
endfacet
facet normal 0.7933533402912115 1.0165114173004199e-13 -0.6087614290087514
  outer loop
    vertex 1890.9207987774073 1414.1545917120152 117.03553390593251
    vertex 1890.1262056644177 1390.1545917120159 115.99999999999555
    vertex 1890.1262056644177 1414.1545917120152 115.99999999999979
  endloop
endfacet
facet normal 0.6087614290087531 1.357490422455816e-13 -0.7933533402912103
  outer loop
    vertex 1891.95633268334 1414.1545917120147 117.83012701892196
    vertex 1890.9207987774073 1390.1545917120156 117.03553390592828
    vertex 1890.9207987774073 1414.1545917120152 117.03553390593251
  endloop
endfacet
facet normal 0.6087614290087531 1.357490422455816e-13 -0.7933533402912103
  outer loop
    vertex 1890.9207987774073 1390.1545917120156 117.03553390592828
    vertex 1891.95633268334 1414.1545917120147 117.83012701892196
    vertex 1891.95633268334 1390.1545917120154 117.83012701891772
  endloop
endfacet
facet normal 0.3826834323650132 1.6059586986800496e-13 -0.9238795325113185
  outer loop
    vertex 1893.1622374578276 1414.1545917120145 118.3296291314451
    vertex 1891.95633268334 1390.1545917120154 117.83012701891772
    vertex 1891.95633268334 1414.1545917120147 117.83012701892196
  endloop
endfacet
facet normal 0.3826834323650132 1.6059586986800496e-13 -0.9238795325113185
  outer loop
    vertex 1891.95633268334 1390.1545917120154 117.83012701891772
    vertex 1893.1622374578276 1414.1545917120145 118.3296291314451
    vertex 1893.1622374578276 1390.1545917120152 118.32962913144088
  endloop
endfacet
facet normal 0.13052619222006304 1.7449835435613018e-13 -0.9914448613738089
  outer loop
    vertex 1894.45633268334 1414.1545917120145 118.49999999999976
    vertex 1893.1622374578276 1390.1545917120152 118.32962913144088
    vertex 1893.1622374578276 1414.1545917120145 118.3296291314451
  endloop
endfacet
facet normal 0.13052619222006304 1.7449835435613018e-13 -0.9914448613738089
  outer loop
    vertex 1893.1622374578276 1390.1545917120152 118.32962913144088
    vertex 1894.45633268334 1414.1545917120145 118.49999999999976
    vertex 1894.45633268334 1390.1545917120152 118.49999999999552
  endloop
endfacet
facet normal -0.13052619222006093 1.7650906436705712e-13 -0.9914448613738093
  outer loop
    vertex 1895.7504279088525 1414.1545917120143 118.32962913144512
    vertex 1894.45633268334 1390.1545917120152 118.49999999999552
    vertex 1894.45633268334 1414.1545917120145 118.49999999999976
  endloop
endfacet
facet normal -0.13052619222006093 1.7650906436705712e-13 -0.9914448613738093
  outer loop
    vertex 1894.45633268334 1390.1545917120152 118.49999999999552
    vertex 1895.7504279088525 1414.1545917120143 118.32962913144512
    vertex 1895.7504279088525 1390.154591712015 118.32962913144088
  endloop
endfacet
facet normal -0.38268343236511104 1.6649097333638831e-13 -0.9238795325112781
  outer loop
    vertex 1896.9563326833397 1414.1545917120143 117.83012701892196
    vertex 1895.7504279088525 1390.154591712015 118.32962913144088
    vertex 1895.7504279088525 1414.1545917120143 118.32962913144512
  endloop
endfacet
facet normal -0.38268343236511104 1.6649097333638831e-13 -0.9238795325112781
  outer loop
    vertex 1895.7504279088525 1390.154591712015 118.32962913144088
    vertex 1896.9563326833397 1414.1545917120143 117.83012701892196
    vertex 1896.9563326833397 1390.154591712015 117.83012701891774
  endloop
endfacet
facet normal -0.6087614290086202 1.4512679761220256e-13 -0.7933533402913122
  outer loop
    vertex 1897.9918665892728 1414.1545917120145 117.03553390593251
    vertex 1896.9563326833397 1390.154591712015 117.83012701891774
    vertex 1896.9563326833397 1414.1545917120143 117.83012701892196
  endloop
endfacet
facet normal -0.6087614290086202 1.4512679761220256e-13 -0.7933533402913122
  outer loop
    vertex 1896.9563326833397 1390.154591712015 117.83012701891774
    vertex 1897.9918665892728 1414.1545917120145 117.03553390593251
    vertex 1897.9918665892728 1390.1545917120152 117.03553390592828
  endloop
endfacet
facet normal -0.7933533402909282 1.0780811470470945e-13 -0.6087614290091206
  outer loop
    vertex 1897.9918665892728 1414.1545917120145 117.03553390593251
    vertex 1898.1710712537001 1390.1545917120156 116.80198984031541
    vertex 1897.9918665892728 1390.1545917120152 117.03553390592828
  endloop
endfacet
facet normal -0.7933533402909282 1.0780811470470945e-13 -0.6087614290091206
  outer loop
    vertex 1898.1710712537001 1390.1545917120156 116.80198984031541
    vertex 1897.9918665892728 1414.1545917120145 117.03553390593251
    vertex 1898.1710712537001 1414.1545917120152 116.80198984031966
  endloop
endfacet
facet normal 2.521096759974894e-14 0.7071067811864443 0.7071067811866508
  outer loop
    vertex 1898.9563326833402 1400.7545917120156 157.0
    vertex 1884.95633268334 1402.7545917120153 155.0000000000012
    vertex 1884.95633268334 1400.7545917120156 157.0
  endloop
endfacet
facet normal 2.521096759974894e-14 0.7071067811864443 0.7071067811866508
  outer loop
    vertex 1884.95633268334 1402.7545917120153 155.0000000000012
    vertex 1898.9563326833402 1400.7545917120156 157.0
    vertex 1898.9563326833402 1402.7545917120156 155.0
  endloop
endfacet
facet normal -1.0 1.61398977365821e-14 -2.2225647649247426e-15
  outer loop
    vertex 1884.95633268334 1400.7545917120156 165.0658262487938
    vertex 1884.9563326833406 1400.7545917120153 142.50000000000466
    vertex 1884.95633268334 1390.1545917120159 165.0658262487938
  endloop
endfacet
facet normal -1.0 1.61398977365821e-14 -2.2225647649247426e-15
  outer loop
    vertex 1884.9563326833406 1400.7545917120153 142.50000000000466
    vertex 1884.95633268334 1400.7545917120156 165.0658262487938
    vertex 1884.95633268334 1400.7545917120156 157.0
  endloop
endfacet
facet normal -1.0 1.61398977365821e-14 -2.2225647649247426e-15
  outer loop
    vertex 1884.9563326833406 1400.7545917120153 142.50000000000466
    vertex 1884.95633268334 1400.7545917120156 157.0
    vertex 1884.9563326833404 1400.7545917120171 149.5000000000008
  endloop
endfacet
facet normal -1.0 1.61398977365821e-14 -2.2225647649247426e-15
  outer loop
    vertex 1884.9563326833404 1400.7545917120171 149.5000000000008
    vertex 1884.95633268334 1400.7545917120156 157.0
    vertex 1884.95633268334 1402.7545917120153 155.0000000000012
  endloop
endfacet
facet normal -1.0 1.61398977365821e-14 -2.2225647649247426e-15
  outer loop
    vertex 1884.9563326833404 1400.7545917120171 149.5000000000008
    vertex 1884.95633268334 1402.7545917120153 155.0000000000012
    vertex 1884.95633268334 1402.7545917120174 149.5000000000004
  endloop
endfacet
facet normal -1.0 1.61398977365821e-14 -2.2225647649247426e-15
  outer loop
    vertex 1884.9563326833404 1402.7545917120153 142.50000000000426
    vertex 1884.95633268334 1400.7545917120162 137.30903533472363
    vertex 1884.9563326833406 1400.7545917120153 142.50000000000466
  endloop
endfacet
facet normal -1.0 1.61398977365821e-14 -2.2225647649247426e-15
  outer loop
    vertex 1884.95633268334 1400.7545917120162 137.30903533472363
    vertex 1884.9563326833404 1402.7545917120153 142.50000000000426
    vertex 1884.9563326833406 1402.7545917120162 137.3090353347235
  endloop
endfacet
facet normal -1.0 1.61398977365821e-14 -2.2225647649247426e-15
  outer loop
    vertex 1884.95633268334 1390.1545917120159 165.0658262487938
    vertex 1884.95633268334 1402.7545917120156 117.43417375120632
    vertex 1884.95633268334 1390.1545917120156 117.43417375120632
  endloop
endfacet
facet normal -1.0 1.61398977365821e-14 -2.2225647649247426e-15
  outer loop
    vertex 1884.95633268334 1402.7545917120156 117.43417375120632
    vertex 1884.95633268334 1390.1545917120159 165.0658262487938
    vertex 1884.95633268334 1400.7545917120162 125.06623533472354
  endloop
endfacet
facet normal -1.0 1.61398977365821e-14 -2.2225647649247426e-15
  outer loop
    vertex 1884.95633268334 1400.7545917120162 125.06623533472354
    vertex 1884.95633268334 1390.1545917120159 165.0658262487938
    vertex 1884.9563326833406 1400.7545917120153 142.50000000000466
  endloop
endfacet
facet normal -1.0 1.61398977365821e-14 -2.2225647649247426e-15
  outer loop
    vertex 1884.95633268334 1400.7545917120162 125.06623533472354
    vertex 1884.9563326833406 1400.7545917120153 142.50000000000466
    vertex 1884.95633268334 1400.7545917120162 137.30903533472363
  endloop
endfacet
facet normal -1.0 1.61398977365821e-14 -2.2225647649247426e-15
  outer loop
    vertex 1884.95633268334 1402.7545917120156 117.43417375120632
    vertex 1884.95633268334 1400.7545917120162 125.06623533472354
    vertex 1884.9563326833404 1402.7545917120162 125.06623533472289
  endloop
endfacet
facet normal -8.187137604634025e-14 -1.0 2.2918459745468555e-13
  outer loop
    vertex 1884.9563326833404 1402.7545917120162 125.06623533472289
    vertex 1884.4563326833402 1402.7545917120156 117.50000000000001
    vertex 1884.95633268334 1402.7545917120156 117.43417375120632
  endloop
endfacet
facet normal -8.187137604634025e-14 -1.0 2.2918459745468555e-13
  outer loop
    vertex 1884.4563326833402 1402.7545917120156 117.50000000000001
    vertex 1872.4563326833381 1402.7545917120187 125.06623533472289
    vertex 1872.4563326833404 1402.7545917120156 117.49999999999936
  endloop
endfacet
facet normal -8.187137604634025e-14 -1.0 2.2918459745468555e-13
  outer loop
    vertex 1872.4563326833381 1402.7545917120187 125.06623533472289
    vertex 1884.4563326833402 1402.7545917120156 117.50000000000001
    vertex 1884.9563326833404 1402.7545917120162 125.06623533472289
  endloop
endfacet
facet normal 2.7612171808281533e-14 2.6721456588660158e-14 -1.0
  outer loop
    vertex 1884.4563326833402 1414.1545917120154 117.4999999999998
    vertex 1872.4563326833404 1402.7545917120156 117.49999999999936
    vertex 1872.45633268334 1414.1545917120159 117.4999999999998
  endloop
endfacet
facet normal 2.7612171808281533e-14 2.6721456588660158e-14 -1.0
  outer loop
    vertex 1872.4563326833404 1402.7545917120156 117.49999999999936
    vertex 1884.4563326833402 1414.1545917120154 117.4999999999998
    vertex 1884.4563326833402 1402.7545917120156 117.50000000000001
  endloop
endfacet
facet normal 7.842202104124852e-14 1.0 1.6678639626576025e-13
  outer loop
    vertex 1872.45633268334 1414.1545917120159 125.06623533472336
    vertex 1884.4563326833402 1414.1545917120154 117.4999999999998
    vertex 1872.45633268334 1414.1545917120159 117.4999999999998
  endloop
endfacet
facet normal 7.842202104124852e-14 1.0 1.6678639626576025e-13
  outer loop
    vertex 1884.4563326833402 1414.1545917120154 117.4999999999998
    vertex 1872.45633268334 1414.1545917120159 125.06623533472336
    vertex 1891.95633268334 1414.1545917120147 117.83012701892196
  endloop
endfacet
facet normal 7.842202104124852e-14 1.0 1.6678639626576025e-13
  outer loop
    vertex 1891.95633268334 1414.1545917120147 117.83012701892196
    vertex 1872.45633268334 1414.1545917120159 125.06623533472336
    vertex 1893.1622374578276 1414.1545917120145 118.3296291314451
  endloop
endfacet
facet normal 7.842202104124852e-14 1.0 1.6678639626576025e-13
  outer loop
    vertex 1893.1622374578276 1414.1545917120145 118.3296291314451
    vertex 1872.45633268334 1414.1545917120159 125.06623533472336
    vertex 1894.45633268334 1414.1545917120145 118.49999999999976
  endloop
endfacet
facet normal 7.842202104124852e-14 1.0 1.6678639626576025e-13
  outer loop
    vertex 1897.9918665892728 1414.1545917120145 117.03553390593251
    vertex 1898.9563326833402 1414.1545917120159 117.4999999999998
    vertex 1898.1710712537001 1414.1545917120152 116.80198984031966
  endloop
endfacet
facet normal 7.842202104124852e-14 1.0 1.6678639626576025e-13
  outer loop
    vertex 1898.9563326833402 1414.1545917120159 117.4999999999998
    vertex 1897.9918665892728 1414.1545917120145 117.03553390593251
    vertex 1896.9563326833397 1414.1545917120143 117.83012701892196
  endloop
endfacet
facet normal 7.842202104124852e-14 1.0 1.6678639626576025e-13
  outer loop
    vertex 1898.9563326833402 1414.1545917120159 117.4999999999998
    vertex 1896.9563326833397 1414.1545917120143 117.83012701892196
    vertex 1898.9563326833402 1414.1545917120118 125.06623533472336
  endloop
endfacet
facet normal 7.842202104124852e-14 1.0 1.6678639626576025e-13
  outer loop
    vertex 1898.9563326833402 1414.1545917120118 125.06623533472336
    vertex 1896.9563326833397 1414.1545917120143 117.83012701892196
    vertex 1895.7504279088525 1414.1545917120143 118.32962913144512
  endloop
endfacet
facet normal 7.842202104124852e-14 1.0 1.6678639626576025e-13
  outer loop
    vertex 1898.9563326833402 1414.1545917120118 125.06623533472336
    vertex 1895.7504279088525 1414.1545917120143 118.32962913144512
    vertex 1894.45633268334 1414.1545917120145 118.49999999999976
  endloop
endfacet
facet normal 7.842202104124852e-14 1.0 1.6678639626576025e-13
  outer loop
    vertex 1898.9563326833402 1414.1545917120118 125.06623533472336
    vertex 1894.45633268334 1414.1545917120145 118.49999999999976
    vertex 1872.45633268334 1414.1545917120159 125.06623533472336
  endloop
endfacet
facet normal 7.842202104124852e-14 1.0 1.6678639626576025e-13
  outer loop
    vertex 1888.3200359884963 1414.1545917120154 114.53527618040991
    vertex 1889.4563326833402 1414.1545917120159 113.49999999999982
    vertex 1888.4563326833404 1414.1545917120154 113.49999999999982
  endloop
endfacet
facet normal 7.842202104124852e-14 1.0 1.6678639626576025e-13
  outer loop
    vertex 1889.4563326833402 1414.1545917120159 113.49999999999982
    vertex 1888.3200359884963 1414.1545917120154 114.53527618040991
    vertex 1889.6267035518947 1414.1545917120156 114.79409522551242
  endloop
endfacet
facet normal 7.842202104124852e-14 1.0 1.6678639626576025e-13
  outer loop
    vertex 1889.6267035518947 1414.1545917120156 114.79409522551242
    vertex 1888.3200359884963 1414.1545917120154 114.53527618040991
    vertex 1887.920434298478 1414.1545917120154 115.49999999999982
  endloop
endfacet
facet normal 7.842202104124852e-14 1.0 1.6678639626576025e-13
  outer loop
    vertex 1889.6267035518947 1414.1545917120156 114.79409522551242
    vertex 1887.920434298478 1414.1545917120154 115.49999999999982
    vertex 1890.1262056644177 1414.1545917120152 115.99999999999979
  endloop
endfacet
facet normal 7.842202104124852e-14 1.0 1.6678639626576025e-13
  outer loop
    vertex 1890.1262056644177 1414.1545917120152 115.99999999999979
    vertex 1887.920434298478 1414.1545917120154 115.49999999999982
    vertex 1887.2847598080862 1414.1545917120154 116.32842712474601
  endloop
endfacet
facet normal 7.842202104124852e-14 1.0 1.6678639626576025e-13
  outer loop
    vertex 1890.1262056644177 1414.1545917120152 115.99999999999979
    vertex 1887.2847598080862 1414.1545917120154 116.32842712474601
    vertex 1890.9207987774073 1414.1545917120152 117.03553390593251
  endloop
endfacet
facet normal 7.842202104124852e-14 1.0 1.6678639626576025e-13
  outer loop
    vertex 1890.9207987774073 1414.1545917120152 117.03553390593251
    vertex 1887.2847598080862 1414.1545917120154 116.32842712474601
    vertex 1886.45633268334 1414.1545917120154 116.96410161513757
  endloop
endfacet
facet normal 7.842202104124852e-14 1.0 1.6678639626576025e-13
  outer loop
    vertex 1890.9207987774073 1414.1545917120152 117.03553390593251
    vertex 1886.45633268334 1414.1545917120154 116.96410161513757
    vertex 1885.4916088637503 1414.1545917120154 117.36370330515611
  endloop
endfacet
facet normal 7.842202104124852e-14 1.0 1.6678639626576025e-13
  outer loop
    vertex 1890.9207987774073 1414.1545917120152 117.03553390593251
    vertex 1885.4916088637503 1414.1545917120154 117.36370330515611
    vertex 1891.95633268334 1414.1545917120147 117.83012701892196
  endloop
endfacet
facet normal 7.842202104124852e-14 1.0 1.6678639626576025e-13
  outer loop
    vertex 1891.95633268334 1414.1545917120147 117.83012701892196
    vertex 1885.4916088637503 1414.1545917120154 117.36370330515611
    vertex 1884.4563326833402 1414.1545917120154 117.4999999999998
  endloop
endfacet
facet normal -1.0 7.519910620127552e-14 -1.804778548830858e-13
  outer loop
    vertex 1872.4563326833381 1402.7545917120187 125.06623533472289
    vertex 1872.45633268334 1414.1545917120159 117.4999999999998
    vertex 1872.4563326833404 1402.7545917120156 117.49999999999936
  endloop
endfacet
facet normal -1.0 7.519910620127552e-14 -1.804778548830858e-13
  outer loop
    vertex 1872.45633268334 1414.1545917120159 117.4999999999998
    vertex 1872.4563326833381 1402.7545917120187 125.06623533472289
    vertex 1872.45633268334 1414.1545917120159 125.06623533472336
  endloop
endfacet
facet normal -4.101769429160064e-15 1.0 -4.9221233149928306e-14
  outer loop
    vertex 1876.95633268334 1414.1545917120152 154.99999999999974
    vertex 1898.9563326833402 1414.1545917120152 149.49999999999983
    vertex 1876.9563326833397 1414.1545917120154 149.49999999999983
  endloop
endfacet
facet normal -4.101769429160064e-15 1.0 -4.9221233149928306e-14
  outer loop
    vertex 1898.9563326833402 1414.1545917120152 149.49999999999983
    vertex 1876.95633268334 1414.1545917120152 154.99999999999974
    vertex 1898.9563326833402 1414.1545917120159 155.0
  endloop
endfacet
facet normal -4.15986949927627e-28 -5.145202003246807e-14 -1.0
  outer loop
    vertex 1876.9563326833397 1414.1545917120154 149.49999999999983
    vertex 1884.95633268334 1402.7545917120174 149.5000000000004
    vertex 1876.9563326833393 1402.7545917120194 149.5000000000004
  endloop
endfacet
facet normal -4.15986949927627e-28 -5.145202003246807e-14 -1.0
  outer loop
    vertex 1884.95633268334 1402.7545917120174 149.5000000000004
    vertex 1876.9563326833397 1414.1545917120154 149.49999999999983
    vertex 1898.9563326833402 1414.1545917120152 149.49999999999983
  endloop
endfacet
facet normal -4.15986949927627e-28 -5.145202003246807e-14 -1.0
  outer loop
    vertex 1884.95633268334 1402.7545917120174 149.5000000000004
    vertex 1898.9563326833402 1414.1545917120152 149.49999999999983
    vertex 1884.9563326833404 1400.7545917120171 149.5000000000008
  endloop
endfacet
facet normal -4.15986949927627e-28 -5.145202003246807e-14 -1.0
  outer loop
    vertex 1884.9563326833404 1400.7545917120171 149.5000000000008
    vertex 1898.9563326833402 1414.1545917120152 149.49999999999983
    vertex 1898.9563326833402 1400.754591712019 149.5000000000008
  endloop
endfacet
facet normal 2.6855288967679283e-13 5.031662930259569e-13 1.0
  outer loop
    vertex 1884.9563326833404 1402.7545917120153 142.50000000000426
    vertex 1876.9563326833397 1414.1545917120154 142.4999999999998
    vertex 1876.9563326833375 1402.7545917120194 142.5000000000128
  endloop
endfacet
facet normal 2.6855288967679283e-13 5.031662930259569e-13 1.0
  outer loop
    vertex 1876.9563326833397 1414.1545917120154 142.4999999999998
    vertex 1884.9563326833404 1402.7545917120153 142.50000000000426
    vertex 1898.9563326833397 1414.1545917120143 142.4999999999998
  endloop
endfacet
facet normal 2.6855288967679283e-13 5.031662930259569e-13 1.0
  outer loop
    vertex 1898.9563326833397 1414.1545917120143 142.4999999999998
    vertex 1884.9563326833404 1402.7545917120153 142.50000000000426
    vertex 1884.9563326833406 1400.7545917120153 142.50000000000466
  endloop
endfacet
facet normal 2.6855288967679283e-13 5.031662930259569e-13 1.0
  outer loop
    vertex 1898.9563326833397 1414.1545917120143 142.4999999999998
    vertex 1884.9563326833406 1400.7545917120153 142.50000000000466
    vertex 1898.9563326833397 1400.7545917120183 142.5000000000008
  endloop
endfacet
facet normal -1.0 1.58313907792232e-14 9.844246629985877e-14
  outer loop
    vertex 1876.95633268334 1414.1545917120152 154.99999999999974
    vertex 1876.9563326833393 1402.7545917120194 149.5000000000004
    vertex 1876.95633268334 1402.7545917120149 155.0000000000009
  endloop
endfacet
facet normal -1.0 1.58313907792232e-14 9.844246629985877e-14
  outer loop
    vertex 1876.9563326833393 1402.7545917120194 149.5000000000004
    vertex 1876.95633268334 1414.1545917120152 154.99999999999974
    vertex 1876.9563326833397 1414.1545917120154 149.49999999999983
  endloop
endfacet
facet normal 1.0 -2.11914262435845e-14 -1.589722628176285e-14
  outer loop
    vertex 1898.9563326833402 1390.1545917120156 117.50000000000001
    vertex 1898.956332683338 1400.7545917120146 125.06623533472354
    vertex 1898.9563326833402 1390.1545917120156 165.0
  endloop
endfacet
facet normal 1.0 -2.11914262435845e-14 -1.589722628176285e-14
  outer loop
    vertex 1898.956332683338 1400.7545917120146 125.06623533472354
    vertex 1898.9563326833402 1390.1545917120156 117.50000000000001
    vertex 1898.9563326833402 1414.1545917120159 117.4999999999998
  endloop
endfacet
facet normal 1.0 -2.11914262435845e-14 -1.589722628176285e-14
  outer loop
    vertex 1898.956332683338 1400.7545917120146 125.06623533472354
    vertex 1898.9563326833402 1414.1545917120159 117.4999999999998
    vertex 1898.9563326833402 1414.1545917120118 125.06623533472336
  endloop
endfacet
facet normal 1.0 -2.11914262435845e-14 -1.589722628176285e-14
  outer loop
    vertex 1898.956332683338 1400.7545917120146 137.30903533472363
    vertex 1898.9563326833397 1400.7545917120183 142.5000000000008
    vertex 1898.9563326833402 1400.7545917120156 157.0
  endloop
endfacet
facet normal 1.0 -2.11914262435845e-14 -1.589722628176285e-14
  outer loop
    vertex 1898.9563326833397 1400.7545917120183 142.5000000000008
    vertex 1898.956332683338 1400.7545917120146 137.30903533472363
    vertex 1898.9563326833397 1414.1545917120118 137.30903533472306
  endloop
endfacet
facet normal 1.0 -2.11914262435845e-14 -1.589722628176285e-14
  outer loop
    vertex 1898.9563326833397 1400.7545917120183 142.5000000000008
    vertex 1898.9563326833397 1414.1545917120118 137.30903533472306
    vertex 1898.9563326833397 1414.1545917120143 142.4999999999998
  endloop
endfacet
facet normal 1.0 -2.11914262435845e-14 -1.589722628176285e-14
  outer loop
    vertex 1898.9563326833402 1400.7545917120156 157.0
    vertex 1898.9563326833402 1400.754591712019 149.5000000000008
    vertex 1898.9563326833402 1402.7545917120156 155.0
  endloop
endfacet
facet normal 1.0 -2.11914262435845e-14 -1.589722628176285e-14
  outer loop
    vertex 1898.9563326833402 1400.754591712019 149.5000000000008
    vertex 1898.9563326833402 1400.7545917120156 157.0
    vertex 1898.9563326833397 1400.7545917120183 142.5000000000008
  endloop
endfacet
facet normal 1.0 -2.11914262435845e-14 -1.589722628176285e-14
  outer loop
    vertex 1898.9563326833402 1402.7545917120156 155.0
    vertex 1898.9563326833402 1400.754591712019 149.5000000000008
    vertex 1898.9563326833402 1414.1545917120152 149.49999999999983
  endloop
endfacet
facet normal 1.0 -2.11914262435845e-14 -1.589722628176285e-14
  outer loop
    vertex 1898.9563326833402 1402.7545917120156 155.0
    vertex 1898.9563326833402 1414.1545917120152 149.49999999999983
    vertex 1898.9563326833402 1414.1545917120159 155.0
  endloop
endfacet
facet normal 1.0 -2.11914262435845e-14 -1.589722628176285e-14
  outer loop
    vertex 1898.9563326833402 1390.1545917120156 165.0
    vertex 1898.956332683338 1400.7545917120146 137.30903533472363
    vertex 1898.9563326833402 1400.7545917120156 165.0
  endloop
endfacet
facet normal 1.0 -2.11914262435845e-14 -1.589722628176285e-14
  outer loop
    vertex 1898.956332683338 1400.7545917120146 137.30903533472363
    vertex 1898.9563326833402 1390.1545917120156 165.0
    vertex 1898.956332683338 1400.7545917120146 125.06623533472354
  endloop
endfacet
facet normal 1.0 -2.11914262435845e-14 -1.589722628176285e-14
  outer loop
    vertex 1898.9563326833402 1400.7545917120156 165.0
    vertex 1898.956332683338 1400.7545917120146 137.30903533472363
    vertex 1898.9563326833402 1400.7545917120156 157.0
  endloop
endfacet
facet normal -1.7403221720870393e-13 1.0 -1.9336913023188434e-13
  outer loop
    vertex 1884.9563326833406 1400.7545917120153 142.50000000000466
    vertex 1898.9563326833402 1400.754591712019 149.5000000000008
    vertex 1898.9563326833397 1400.7545917120183 142.5000000000008
  endloop
endfacet
facet normal -1.7403221720870393e-13 1.0 -1.9336913023188434e-13
  outer loop
    vertex 1898.9563326833402 1400.754591712019 149.5000000000008
    vertex 1884.9563326833406 1400.7545917120153 142.50000000000466
    vertex 1884.9563326833404 1400.7545917120171 149.5000000000008
  endloop
endfacet
endsolid [0008]
