solid [0008]
facet normal 1.0 2.780238702451214e-58 -7.145379874400676e-30
  outer loop
    vertex 1747.9563326833397 1400.318044336052 108.59788770074353
    vertex 1747.956332683337 1401.4897771462888 112.35295238724363
    vertex 1747.956332683337 1401.4045917120086 112.99999999999993
  endloop
endfacet
facet normal 1.0 2.780238702451214e-58 -7.145379874400676e-30
  outer loop
    vertex 1747.956332683337 1401.4897771462888 112.35295238724363
    vertex 1747.9563326833397 1400.318044336052 108.59788770074353
    vertex 1747.9563326833397 1402.0865713750331 108.15049619217767
  endloop
endfacet
facet normal 1.0 2.780238702451214e-58 -7.145379874400676e-30
  outer loop
    vertex 1747.956332683337 1401.4897771462888 112.35295238724363
    vertex 1747.9563326833397 1402.0865713750331 108.15049619217767
    vertex 1747.956332683337 1401.7395282025498 111.74999999999994
  endloop
endfacet
facet normal 1.0 2.780238702451214e-58 -7.145379874400676e-30
  outer loop
    vertex 1747.956332683337 1401.7395282025498 111.74999999999994
    vertex 1747.9563326833397 1402.0865713750331 108.15049619217767
    vertex 1747.956332683337 1402.1368247590444 111.23223304703357
  endloop
endfacet
facet normal 1.0 2.780238702451214e-58 -7.145379874400676e-30
  outer loop
    vertex 1747.956332683337 1402.1368247590444 111.23223304703357
    vertex 1747.9563326833397 1402.0865713750331 108.15049619217767
    vertex 1747.9563326833397 1403.9045917120109 107.99999999999994
  endloop
endfacet
facet normal 1.0 2.780238702451214e-58 -7.145379874400676e-30
  outer loop
    vertex 1747.956332683337 1402.1368247590444 111.23223304703357
    vertex 1747.9563326833397 1403.9045917120109 107.99999999999994
    vertex 1747.956332683337 1402.6545917120127 110.83493649053885
  endloop
endfacet
facet normal 1.0 2.780238702451214e-58 -7.145379874400676e-30
  outer loop
    vertex 1747.956332683337 1402.6545917120127 110.83493649053885
    vertex 1747.9563326833397 1403.9045917120109 107.99999999999994
    vertex 1747.956332683337 1403.2575440992555 110.58518543427726
  endloop
endfacet
facet normal 1.0 2.780238702451214e-58 -7.145379874400676e-30
  outer loop
    vertex 1747.956332683337 1403.2575440992555 110.58518543427726
    vertex 1747.9563326833397 1403.9045917120109 107.99999999999994
    vertex 1747.956332683337 1403.9045917120109 110.49999999999993
  endloop
endfacet
facet normal 1.0 2.780238702451214e-58 -7.145379874400676e-30
  outer loop
    vertex 1747.956332683337 1403.9045917120109 110.49999999999993
    vertex 1747.9563326833397 1403.9045917120109 107.99999999999994
    vertex 1747.9563326833397 1405.7226120489943 108.15049619217821
  endloop
endfacet
facet normal 1.0 2.780238702451214e-58 -7.145379874400676e-30
  outer loop
    vertex 1747.956332683337 1403.9045917120109 110.49999999999993
    vertex 1747.9563326833397 1405.7226120489943 108.15049619217821
    vertex 1747.956332683337 1404.5516393247665 110.58518543427726
  endloop
endfacet
facet normal 1.0 2.780238702451214e-58 -7.145379874400676e-30
  outer loop
    vertex 1747.956332683337 1404.5516393247665 110.58518543427726
    vertex 1747.9563326833397 1405.7226120489943 108.15049619217821
    vertex 1747.956332683337 1405.1545917120093 110.83493649053885
  endloop
endfacet
facet normal 1.0 2.780238702451214e-58 -7.145379874400676e-30
  outer loop
    vertex 1747.956332683337 1405.1545917120093 110.83493649053885
    vertex 1747.9563326833397 1405.7226120489943 108.15049619217821
    vertex 1747.956332683337 1405.6723586649775 111.23223304703357
  endloop
endfacet
facet normal 1.0 2.780238702451214e-58 -7.145379874400676e-30
  outer loop
    vertex 1747.956332683337 1405.6723586649775 111.23223304703357
    vertex 1747.9563326833397 1405.7226120489943 108.15049619217821
    vertex 1747.956332683337 1406.069655221472 111.74999999999994
  endloop
endfacet
facet normal 1.0 2.780238702451214e-58 -7.145379874400676e-30
  outer loop
    vertex 1747.956332683337 1406.069655221472 111.74999999999994
    vertex 1747.9563326833397 1405.7226120489943 108.15049619217821
    vertex 1747.9563326833397 1407.4911390879697 108.59788770074454
  endloop
endfacet
facet normal 1.0 2.780238702451214e-58 -7.145379874400676e-30
  outer loop
    vertex 1747.956332683337 1406.069655221472 111.74999999999994
    vertex 1747.9563326833397 1407.4911390879697 108.59788770074454
    vertex 1747.956332683337 1406.319406277733 112.35295238724363
  endloop
endfacet
facet normal 1.0 2.780238702451214e-58 -7.145379874400676e-30
  outer loop
    vertex 1747.956332683337 1406.319406277733 112.35295238724363
    vertex 1747.9563326833397 1407.4911390879697 108.59788770074454
    vertex 1747.956332683337 1406.4045917120131 112.99999999999993
  endloop
endfacet
facet normal 1.0 2.780238702451214e-58 -7.145379874400676e-30
  outer loop
    vertex 1747.9563326833397 1395.7763531992712 111.56142493583194
    vertex 1747.9563326833397 1394.6545917120145 169.00000000000145
    vertex 1747.9563326833397 1394.6545917120145 112.99999999999862
  endloop
endfacet
facet normal 1.0 2.780238702451214e-58 -7.145379874400676e-30
  outer loop
    vertex 1747.9563326833397 1394.6545917120145 169.00000000000145
    vertex 1747.9563326833397 1395.7763531992712 111.56142493583194
    vertex 1747.9563326833397 1395.65459171202 118.99999999999994
  endloop
endfacet
facet normal 1.0 2.780238702451214e-58 -7.145379874400676e-30
  outer loop
    vertex 1747.9563326833397 1395.65459171202 118.99999999999994
    vertex 1747.9563326833397 1395.7763531992712 111.56142493583194
    vertex 1747.956332683337 1402.6545917120127 115.16506350946104
  endloop
endfacet
facet normal 1.0 2.780238702451214e-58 -7.145379874400676e-30
  outer loop
    vertex 1747.9563326833397 1395.65459171202 118.99999999999994
    vertex 1747.956332683337 1402.6545917120127 115.16506350946104
    vertex 1747.956332683337 1403.2575440992555 115.41481456572261
  endloop
endfacet
facet normal 1.0 2.780238702451214e-58 -7.145379874400676e-30
  outer loop
    vertex 1747.9563326833397 1395.65459171202 118.99999999999994
    vertex 1747.956332683337 1403.2575440992555 115.41481456572261
    vertex 1747.9563326833397 1412.1545917120077 118.99999999999994
  endloop
endfacet
facet normal 1.0 2.780238702451214e-58 -7.145379874400676e-30
  outer loop
    vertex 1747.956332683337 1402.6545917120127 115.16506350946104
    vertex 1747.9563326833397 1395.7763531992712 111.56142493583194
    vertex 1747.956332683337 1402.1368247590444 114.7677669529663
  endloop
endfacet
facet normal 1.0 2.780238702451214e-58 -7.145379874400676e-30
  outer loop
    vertex 1747.956332683337 1402.1368247590444 114.7677669529663
    vertex 1747.9563326833397 1395.7763531992712 111.56142493583194
    vertex 1747.9563326833397 1397.1193956715397 110.32688697885757
  endloop
endfacet
facet normal 1.0 2.780238702451214e-58 -7.145379874400676e-30
  outer loop
    vertex 1747.956332683337 1402.1368247590444 114.7677669529663
    vertex 1747.9563326833397 1397.1193956715397 110.32688697885757
    vertex 1747.956332683337 1401.7395282025498 114.24999999999994
  endloop
endfacet
facet normal 1.0 2.780238702451214e-58 -7.145379874400676e-30
  outer loop
    vertex 1747.956332683337 1401.7395282025498 114.24999999999994
    vertex 1747.9563326833397 1397.1193956715397 110.32688697885757
    vertex 1747.9563326833397 1398.6471565008078 109.32999485927314
  endloop
endfacet
facet normal 1.0 2.780238702451214e-58 -7.145379874400676e-30
  outer loop
    vertex 1747.956332683337 1401.7395282025498 114.24999999999994
    vertex 1747.9563326833397 1398.6471565008078 109.32999485927314
    vertex 1747.956332683337 1401.4897771462888 113.64704761275624
  endloop
endfacet
facet normal 1.0 2.780238702451214e-58 -7.145379874400676e-30
  outer loop
    vertex 1747.956332683337 1401.4897771462888 113.64704761275624
    vertex 1747.9563326833397 1398.6471565008078 109.32999485927314
    vertex 1747.9563326833397 1400.318044336052 108.59788770074353
  endloop
endfacet
facet normal 1.0 2.780238702451214e-58 -7.145379874400676e-30
  outer loop
    vertex 1747.956332683337 1401.4897771462888 113.64704761275624
    vertex 1747.9563326833397 1400.318044336052 108.59788770074353
    vertex 1747.956332683337 1401.4045917120086 112.99999999999993
  endloop
endfacet
facet normal 1.0 2.780238702451214e-58 -7.145379874400676e-30
  outer loop
    vertex 1747.9563326833397 1412.1545917120077 118.99999999999994
    vertex 1747.956332683337 1403.2575440992555 115.41481456572261
    vertex 1747.956332683337 1403.9045917120109 115.49999999999994
  endloop
endfacet
facet normal 1.0 2.780238702451214e-58 -7.145379874400676e-30
  outer loop
    vertex 1747.9563326833397 1412.1545917120077 118.99999999999994
    vertex 1747.956332683337 1403.9045917120109 115.49999999999994
    vertex 1747.956332683337 1404.5516393247665 115.41481456572261
  endloop
endfacet
facet normal 1.0 2.780238702451214e-58 -7.145379874400676e-30
  outer loop
    vertex 1747.9563326833397 1412.1545917120077 118.99999999999994
    vertex 1747.956332683337 1404.5516393247665 115.41481456572261
    vertex 1747.956332683337 1405.1545917120093 115.16506350946104
  endloop
endfacet
facet normal 1.0 2.780238702451214e-58 -7.145379874400676e-30
  outer loop
    vertex 1747.9563326833397 1412.1545917120077 118.99999999999994
    vertex 1747.956332683337 1405.1545917120093 115.16506350946104
    vertex 1747.956332683337 1405.6723586649775 114.7677669529663
  endloop
endfacet
facet normal 1.0 2.780238702451214e-58 -7.145379874400676e-30
  outer loop
    vertex 1747.9563326833397 1412.1545917120077 118.99999999999994
    vertex 1747.956332683337 1405.6723586649775 114.7677669529663
    vertex 1747.956332683337 1406.069655221472 114.24999999999994
  endloop
endfacet
facet normal 1.0 2.780238702451214e-58 -7.145379874400676e-30
  outer loop
    vertex 1747.9563326833397 1412.1545917120077 118.99999999999994
    vertex 1747.956332683337 1406.069655221472 114.24999999999994
    vertex 1747.956332683337 1406.319406277733 113.64704761275624
  endloop
endfacet
facet normal 1.0 2.780238702451214e-58 -7.145379874400676e-30
  outer loop
    vertex 1747.9563326833397 1412.1545917120077 118.99999999999994
    vertex 1747.956332683337 1406.319406277733 113.64704761275624
    vertex 1747.956332683337 1406.4045917120131 112.99999999999993
  endloop
endfacet
facet normal 1.0 2.780238702451214e-58 -7.145379874400676e-30
  outer loop
    vertex 1747.9563326833397 1412.1545917120077 118.99999999999994
    vertex 1747.956332683337 1406.4045917120131 112.99999999999993
    vertex 1747.9563326833397 1407.4911390879697 108.59788770074454
  endloop
endfacet
facet normal 1.0 2.780238702451214e-58 -7.145379874400676e-30
  outer loop
    vertex 1747.9563326833397 1412.1545917120077 118.99999999999994
    vertex 1747.9563326833397 1407.4911390879697 108.59788770074454
    vertex 1747.9563326833397 1409.1620269232142 109.32999485927465
  endloop
endfacet
facet normal 1.0 2.780238702451214e-58 -7.145379874400676e-30
  outer loop
    vertex 1747.9563326833397 1412.1545917120077 118.99999999999994
    vertex 1747.9563326833397 1409.1620269232142 109.32999485927465
    vertex 1747.9563326833397 1410.6897877524823 110.3268869788595
  endloop
endfacet
facet normal 1.0 2.780238702451214e-58 -7.145379874400676e-30
  outer loop
    vertex 1747.9563326833397 1412.1545917120077 118.99999999999994
    vertex 1747.9563326833397 1410.6897877524823 110.3268869788595
    vertex 1747.9563326833397 1412.0328302247563 111.56142493583427
  endloop
endfacet
facet normal 1.0 2.780238702451214e-58 -7.145379874400676e-30
  outer loop
    vertex 1747.9563326833397 1412.1545917120077 118.99999999999994
    vertex 1747.9563326833397 1412.0328302247563 111.56142493583427
    vertex 1747.9563326833397 1413.1545917120131 113.00000000000126
  endloop
endfacet
facet normal 1.0 2.780238702451214e-58 -7.145379874400676e-30
  outer loop
    vertex 1747.9563326833397 1412.1545917120077 118.99999999999994
    vertex 1747.9563326833397 1413.1545917120131 113.00000000000126
    vertex 1747.9563326833397 1412.1545917120077 163.00000000000014
  endloop
endfacet
facet normal 1.0 2.780238702451214e-58 -7.145379874400676e-30
  outer loop
    vertex 1747.9563326833397 1394.6545917120145 169.00000000000145
    vertex 1747.9563326833397 1395.65459171202 163.00000000000014
    vertex 1747.9563326833397 1395.7763531992712 170.43857506416816
  endloop
endfacet
facet normal 1.0 2.780238702451214e-58 -7.145379874400676e-30
  outer loop
    vertex 1747.9563326833397 1395.65459171202 163.00000000000014
    vertex 1747.9563326833397 1394.6545917120145 169.00000000000145
    vertex 1747.9563326833397 1395.65459171202 118.99999999999994
  endloop
endfacet
facet normal 1.0 2.780238702451214e-58 -7.145379874400676e-30
  outer loop
    vertex 1747.9563326833397 1395.7763531992712 170.43857506416816
    vertex 1747.9563326833397 1395.65459171202 163.00000000000014
    vertex 1747.956332683337 1402.6545917120127 166.83493649053904
  endloop
endfacet
facet normal 1.0 2.780238702451214e-58 -7.145379874400676e-30
  outer loop
    vertex 1747.956332683337 1402.6545917120127 166.83493649053904
    vertex 1747.9563326833397 1395.65459171202 163.00000000000014
    vertex 1747.956332683337 1403.2575440992555 166.58518543427746
  endloop
endfacet
facet normal 1.0 2.780238702451214e-58 -7.145379874400676e-30
  outer loop
    vertex 1747.956332683337 1403.2575440992555 166.58518543427746
    vertex 1747.9563326833397 1395.65459171202 163.00000000000014
    vertex 1747.9563326833397 1412.1545917120077 163.00000000000014
  endloop
endfacet
facet normal 1.0 2.780238702451214e-58 -7.145379874400676e-30
  outer loop
    vertex 1747.9563326833397 1395.7763531992712 170.43857506416816
    vertex 1747.956332683337 1402.6545917120127 166.83493649053904
    vertex 1747.956332683337 1402.1368247590444 167.23223304703376
  endloop
endfacet
facet normal 1.0 2.780238702451214e-58 -7.145379874400676e-30
  outer loop
    vertex 1747.9563326833397 1395.7763531992712 170.43857506416816
    vertex 1747.956332683337 1402.1368247590444 167.23223304703376
    vertex 1747.9563326833397 1397.1193956715397 171.6731130211425
  endloop
endfacet
facet normal 1.0 2.780238702451214e-58 -7.145379874400676e-30
  outer loop
    vertex 1747.9563326833397 1397.1193956715397 171.6731130211425
    vertex 1747.956332683337 1402.1368247590444 167.23223304703376
    vertex 1747.956332683337 1401.7395282025498 167.75000000000014
  endloop
endfacet
facet normal 1.0 2.780238702451214e-58 -7.145379874400676e-30
  outer loop
    vertex 1747.9563326833397 1397.1193956715397 171.6731130211425
    vertex 1747.956332683337 1401.7395282025498 167.75000000000014
    vertex 1747.9563326833397 1398.6471565008078 172.67000514072694
  endloop
endfacet
facet normal 1.0 2.780238702451214e-58 -7.145379874400676e-30
  outer loop
    vertex 1747.9563326833397 1398.6471565008078 172.67000514072694
    vertex 1747.956332683337 1401.7395282025498 167.75000000000014
    vertex 1747.956332683337 1401.4897771462888 168.35295238724382
  endloop
endfacet
facet normal 1.0 2.780238702451214e-58 -7.145379874400676e-30
  outer loop
    vertex 1747.9563326833397 1398.6471565008078 172.67000514072694
    vertex 1747.956332683337 1401.4897771462888 168.35295238724382
    vertex 1747.9563326833397 1400.318044336052 173.40211229925654
  endloop
endfacet
facet normal 1.0 2.780238702451214e-58 -7.145379874400676e-30
  outer loop
    vertex 1747.9563326833397 1400.318044336052 173.40211229925654
    vertex 1747.956332683337 1401.4897771462888 168.35295238724382
    vertex 1747.956332683337 1401.4045917120086 169.00000000000014
  endloop
endfacet
facet normal 1.0 2.780238702451214e-58 -7.145379874400676e-30
  outer loop
    vertex 1747.956332683337 1403.2575440992555 166.58518543427746
    vertex 1747.9563326833397 1412.1545917120077 163.00000000000014
    vertex 1747.956332683337 1403.9045917120109 166.5000000000001
  endloop
endfacet
facet normal 1.0 2.780238702451214e-58 -7.145379874400676e-30
  outer loop
    vertex 1747.956332683337 1403.9045917120109 166.5000000000001
    vertex 1747.9563326833397 1412.1545917120077 163.00000000000014
    vertex 1747.956332683337 1404.5516393247665 166.58518543427746
  endloop
endfacet
facet normal 1.0 2.780238702451214e-58 -7.145379874400676e-30
  outer loop
    vertex 1747.956332683337 1404.5516393247665 166.58518543427746
    vertex 1747.9563326833397 1412.1545917120077 163.00000000000014
    vertex 1747.956332683337 1405.1545917120093 166.83493649053904
  endloop
endfacet
facet normal 1.0 2.780238702451214e-58 -7.145379874400676e-30
  outer loop
    vertex 1747.956332683337 1405.1545917120093 166.83493649053904
    vertex 1747.9563326833397 1412.1545917120077 163.00000000000014
    vertex 1747.956332683337 1405.6723586649775 167.23223304703376
  endloop
endfacet
facet normal 1.0 2.780238702451214e-58 -7.145379874400676e-30
  outer loop
    vertex 1747.956332683337 1405.6723586649775 167.23223304703376
    vertex 1747.9563326833397 1412.1545917120077 163.00000000000014
    vertex 1747.956332683337 1406.069655221472 167.75000000000014
  endloop
endfacet
facet normal 1.0 2.780238702451214e-58 -7.145379874400676e-30
  outer loop
    vertex 1747.956332683337 1406.069655221472 167.75000000000014
    vertex 1747.9563326833397 1412.1545917120077 163.00000000000014
    vertex 1747.956332683337 1406.319406277733 168.35295238724382
  endloop
endfacet
facet normal 1.0 2.780238702451214e-58 -7.145379874400676e-30
  outer loop
    vertex 1747.956332683337 1406.319406277733 168.35295238724382
    vertex 1747.9563326833397 1412.1545917120077 163.00000000000014
    vertex 1747.956332683337 1406.4045917120131 169.00000000000014
  endloop
endfacet
facet normal 1.0 2.780238702451214e-58 -7.145379874400676e-30
  outer loop
    vertex 1747.956332683337 1406.4045917120131 169.00000000000014
    vertex 1747.9563326833397 1412.1545917120077 163.00000000000014
    vertex 1747.9563326833397 1407.4911390879697 173.40211229925552
  endloop
endfacet
facet normal 1.0 2.780238702451214e-58 -7.145379874400676e-30
  outer loop
    vertex 1747.9563326833397 1407.4911390879697 173.40211229925552
    vertex 1747.9563326833397 1412.1545917120077 163.00000000000014
    vertex 1747.9563326833397 1409.1620269232142 172.6700051407254
  endloop
endfacet
facet normal 1.0 2.780238702451214e-58 -7.145379874400676e-30
  outer loop
    vertex 1747.9563326833397 1409.1620269232142 172.6700051407254
    vertex 1747.9563326833397 1412.1545917120077 163.00000000000014
    vertex 1747.9563326833397 1410.6897877524823 171.67311302114055
  endloop
endfacet
facet normal 1.0 2.780238702451214e-58 -7.145379874400676e-30
  outer loop
    vertex 1747.9563326833397 1410.6897877524823 171.67311302114055
    vertex 1747.9563326833397 1412.1545917120077 163.00000000000014
    vertex 1747.9563326833397 1412.0328302247563 170.4385750641658
  endloop
endfacet
facet normal 1.0 2.780238702451214e-58 -7.145379874400676e-30
  outer loop
    vertex 1747.9563326833397 1412.0328302247563 170.4385750641658
    vertex 1747.9563326833397 1412.1545917120077 163.00000000000014
    vertex 1747.9563326833397 1413.1545917120131 168.9999999999988
  endloop
endfacet
facet normal 1.0 2.780238702451214e-58 -7.145379874400676e-30
  outer loop
    vertex 1747.9563326833397 1413.1545917120131 168.9999999999988
    vertex 1747.9563326833397 1412.1545917120077 163.00000000000014
    vertex 1747.9563326833397 1413.1545917120131 113.00000000000126
  endloop
endfacet
facet normal 1.0 2.780238702451214e-58 -7.145379874400676e-30
  outer loop
    vertex 1747.9563326833397 1400.318044336052 173.40211229925654
    vertex 1747.956332683337 1401.4897771462888 169.64704761275644
    vertex 1747.9563326833397 1402.0865713750331 173.84950380782237
  endloop
endfacet
facet normal 1.0 2.780238702451214e-58 -7.145379874400676e-30
  outer loop
    vertex 1747.956332683337 1401.4897771462888 169.64704761275644
    vertex 1747.9563326833397 1400.318044336052 173.40211229925654
    vertex 1747.956332683337 1401.4045917120086 169.00000000000014
  endloop
endfacet
facet normal 1.0 2.780238702451214e-58 -7.145379874400676e-30
  outer loop
    vertex 1747.9563326833397 1402.0865713750331 173.84950380782237
    vertex 1747.956332683337 1401.4897771462888 169.64704761275644
    vertex 1747.956332683337 1401.7395282025498 170.25000000000014
  endloop
endfacet
facet normal 1.0 2.780238702451214e-58 -7.145379874400676e-30
  outer loop
    vertex 1747.9563326833397 1402.0865713750331 173.84950380782237
    vertex 1747.956332683337 1401.7395282025498 170.25000000000014
    vertex 1747.956332683337 1402.1368247590444 170.7677669529665
  endloop
endfacet
facet normal 1.0 2.780238702451214e-58 -7.145379874400676e-30
  outer loop
    vertex 1747.9563326833397 1402.0865713750331 173.84950380782237
    vertex 1747.956332683337 1402.1368247590444 170.7677669529665
    vertex 1747.9563326833397 1403.9045917120109 174.00000000000014
  endloop
endfacet
facet normal 1.0 2.780238702451214e-58 -7.145379874400676e-30
  outer loop
    vertex 1747.9563326833397 1403.9045917120109 174.00000000000014
    vertex 1747.956332683337 1402.1368247590444 170.7677669529665
    vertex 1747.956332683337 1402.6545917120127 171.16506350946122
  endloop
endfacet
facet normal 1.0 2.780238702451214e-58 -7.145379874400676e-30
  outer loop
    vertex 1747.9563326833397 1403.9045917120109 174.00000000000014
    vertex 1747.956332683337 1402.6545917120127 171.16506350946122
    vertex 1747.956332683337 1403.2575440992555 171.4148145657228
  endloop
endfacet
facet normal 1.0 2.780238702451214e-58 -7.145379874400676e-30
  outer loop
    vertex 1747.9563326833397 1403.9045917120109 174.00000000000014
    vertex 1747.956332683337 1403.2575440992555 171.4148145657228
    vertex 1747.956332683337 1403.9045917120109 171.5000000000001
  endloop
endfacet
facet normal 1.0 2.780238702451214e-58 -7.145379874400676e-30
  outer loop
    vertex 1747.9563326833397 1403.9045917120109 174.00000000000014
    vertex 1747.956332683337 1403.9045917120109 171.5000000000001
    vertex 1747.956332683337 1404.5516393247665 171.4148145657228
  endloop
endfacet
facet normal 1.0 2.780238702451214e-58 -7.145379874400676e-30
  outer loop
    vertex 1747.9563326833397 1403.9045917120109 174.00000000000014
    vertex 1747.956332683337 1404.5516393247665 171.4148145657228
    vertex 1747.9563326833397 1405.7226120489943 173.84950380782186
  endloop
endfacet
facet normal 1.0 2.780238702451214e-58 -7.145379874400676e-30
  outer loop
    vertex 1747.9563326833397 1405.7226120489943 173.84950380782186
    vertex 1747.956332683337 1404.5516393247665 171.4148145657228
    vertex 1747.956332683337 1405.1545917120093 171.16506350946122
  endloop
endfacet
facet normal 1.0 2.780238702451214e-58 -7.145379874400676e-30
  outer loop
    vertex 1747.9563326833397 1405.7226120489943 173.84950380782186
    vertex 1747.956332683337 1405.1545917120093 171.16506350946122
    vertex 1747.956332683337 1405.6723586649775 170.7677669529665
  endloop
endfacet
facet normal 1.0 2.780238702451214e-58 -7.145379874400676e-30
  outer loop
    vertex 1747.9563326833397 1405.7226120489943 173.84950380782186
    vertex 1747.956332683337 1405.6723586649775 170.7677669529665
    vertex 1747.956332683337 1406.069655221472 170.25000000000014
  endloop
endfacet
facet normal 1.0 2.780238702451214e-58 -7.145379874400676e-30
  outer loop
    vertex 1747.9563326833397 1405.7226120489943 173.84950380782186
    vertex 1747.956332683337 1406.069655221472 170.25000000000014
    vertex 1747.9563326833397 1407.4911390879697 173.40211229925552
  endloop
endfacet
facet normal 1.0 2.780238702451214e-58 -7.145379874400676e-30
  outer loop
    vertex 1747.9563326833397 1407.4911390879697 173.40211229925552
    vertex 1747.956332683337 1406.069655221472 170.25000000000014
    vertex 1747.956332683337 1406.319406277733 169.64704761275644
  endloop
endfacet
facet normal 1.0 2.780238702451214e-58 -7.145379874400676e-30
  outer loop
    vertex 1747.9563326833397 1407.4911390879697 173.40211229925552
    vertex 1747.956332683337 1406.319406277733 169.64704761275644
    vertex 1747.956332683337 1406.4045917120131 169.00000000000014
  endloop
endfacet
facet normal 0.0 1.0 0.0
  outer loop
    vertex 1744.9563326833404 1413.1545917120131 168.9999999999988
    vertex 1747.9563326833397 1413.1545917120131 113.00000000000126
    vertex 1744.9563326833404 1413.1545917120131 113.00000000000126
  endloop
endfacet
facet normal 0.0 1.0 0.0
  outer loop
    vertex 1747.9563326833397 1413.1545917120131 113.00000000000126
    vertex 1744.9563326833404 1413.1545917120131 168.9999999999988
    vertex 1747.9563326833397 1413.1545917120131 168.9999999999988
  endloop
endfacet
facet normal 0.0 -1.0 0.0
  outer loop
    vertex 1747.9563326833397 1394.6545917120145 169.00000000000145
    vertex 1744.9563326833404 1394.6545917120145 112.99999999999862
    vertex 1747.9563326833397 1394.6545917120145 112.99999999999862
  endloop
endfacet
facet normal 0.0 -1.0 0.0
  outer loop
    vertex 1744.9563326833404 1394.6545917120145 112.99999999999862
    vertex 1747.9563326833397 1394.6545917120145 169.00000000000145
    vertex 1744.9563326833404 1394.6545917120145 169.00000000000145
  endloop
endfacet
facet normal 0.0 -0.1305261922202062 0.9914448613737901
  outer loop
    vertex 1747.956332683337 1403.9045917120109 110.49999999999993
    vertex 1744.9563326833404 1404.5516393247665 110.58518543427726
    vertex 1744.9563326833404 1403.9045917120109 110.49999999999993
  endloop
endfacet
facet normal 0.0 -0.1305261922202062 0.9914448613737901
  outer loop
    vertex 1744.9563326833404 1404.5516393247665 110.58518543427726
    vertex 1747.956332683337 1403.9045917120109 110.49999999999993
    vertex 1747.956332683337 1404.5516393247665 110.58518543427726
  endloop
endfacet
facet normal 0.0 0.1305261922202062 0.9914448613737901
  outer loop
    vertex 1747.956332683337 1403.2575440992555 110.58518543427726
    vertex 1744.9563326833404 1403.9045917120109 110.49999999999993
    vertex 1744.9563326833404 1403.2575440992555 110.58518543427726
  endloop
endfacet
facet normal 0.0 0.1305261922202062 0.9914448613737901
  outer loop
    vertex 1744.9563326833404 1403.9045917120109 110.49999999999993
    vertex 1747.956332683337 1403.2575440992555 110.58518543427726
    vertex 1747.956332683337 1403.9045917120109 110.49999999999993
  endloop
endfacet
facet normal 0.0 0.38268343236560537 0.9238795325110732
  outer loop
    vertex 1747.956332683337 1402.6545917120127 110.83493649053885
    vertex 1744.9563326833404 1403.2575440992555 110.58518543427726
    vertex 1744.9563326833404 1402.6545917120127 110.83493649053885
  endloop
endfacet
facet normal 0.0 0.38268343236560537 0.9238795325110732
  outer loop
    vertex 1744.9563326833404 1403.2575440992555 110.58518543427726
    vertex 1747.956332683337 1402.6545917120127 110.83493649053885
    vertex 1747.956332683337 1403.2575440992555 110.58518543427726
  endloop
endfacet
facet normal 0.0 0.6087614290072881 0.7933533402923346
  outer loop
    vertex 1747.956332683337 1402.1368247590444 111.23223304703357
    vertex 1744.9563326833404 1402.6545917120127 110.83493649053885
    vertex 1744.9563326833404 1402.1368247590444 111.23223304703357
  endloop
endfacet
facet normal 0.0 0.6087614290072881 0.7933533402923346
  outer loop
    vertex 1744.9563326833404 1402.6545917120127 110.83493649053885
    vertex 1747.956332683337 1402.1368247590444 111.23223304703357
    vertex 1747.956332683337 1402.6545917120127 110.83493649053885
  endloop
endfacet
facet normal 0.0 0.7933533402913479 0.6087614290085738
  outer loop
    vertex 1744.9563326833404 1401.7395282025498 111.74999999999994
    vertex 1747.956332683337 1402.1368247590444 111.23223304703357
    vertex 1744.9563326833404 1402.1368247590444 111.23223304703357
  endloop
endfacet
facet normal 0.0 0.7933533402913479 0.6087614290085738
  outer loop
    vertex 1747.956332683337 1402.1368247590444 111.23223304703357
    vertex 1744.9563326833404 1401.7395282025498 111.74999999999994
    vertex 1747.956332683337 1401.7395282025498 111.74999999999994
  endloop
endfacet
facet normal 0.0 0.923879532511626 0.38268343236427066
  outer loop
    vertex 1744.9563326833404 1401.4897771462888 112.35295238724363
    vertex 1747.956332683337 1401.7395282025498 111.74999999999994
    vertex 1744.9563326833404 1401.7395282025498 111.74999999999994
  endloop
endfacet
facet normal 0.0 0.923879532511626 0.38268343236427066
  outer loop
    vertex 1747.956332683337 1401.7395282025498 111.74999999999994
    vertex 1744.9563326833404 1401.4897771462888 112.35295238724363
    vertex 1747.956332683337 1401.4897771462888 112.35295238724363
  endloop
endfacet
facet normal 0.0 0.9914448613732374 0.13052619222440537
  outer loop
    vertex 1744.9563326833404 1401.4045917120086 112.99999999999993
    vertex 1747.956332683337 1401.4897771462888 112.35295238724363
    vertex 1744.9563326833404 1401.4897771462888 112.35295238724363
  endloop
endfacet
facet normal 0.0 0.9914448613732374 0.13052619222440537
  outer loop
    vertex 1747.956332683337 1401.4897771462888 112.35295238724363
    vertex 1744.9563326833404 1401.4045917120086 112.99999999999993
    vertex 1747.956332683337 1401.4045917120086 112.99999999999993
  endloop
endfacet
facet normal 0.0 0.9914448613732374 -0.1305261922244051
  outer loop
    vertex 1744.9563326833404 1401.4897771462888 113.64704761275624
    vertex 1747.956332683337 1401.4045917120086 112.99999999999993
    vertex 1744.9563326833404 1401.4045917120086 112.99999999999993
  endloop
endfacet
facet normal 0.0 0.9914448613732374 -0.1305261922244051
  outer loop
    vertex 1747.956332683337 1401.4045917120086 112.99999999999993
    vertex 1744.9563326833404 1401.4897771462888 113.64704761275624
    vertex 1747.956332683337 1401.4897771462888 113.64704761275624
  endloop
endfacet
facet normal 0.0 0.923879532511626 -0.38268343236427066
  outer loop
    vertex 1744.9563326833404 1401.7395282025498 114.24999999999994
    vertex 1747.956332683337 1401.4897771462888 113.64704761275624
    vertex 1744.9563326833404 1401.4897771462888 113.64704761275624
  endloop
endfacet
facet normal 0.0 0.923879532511626 -0.38268343236427066
  outer loop
    vertex 1747.956332683337 1401.4897771462888 113.64704761275624
    vertex 1744.9563326833404 1401.7395282025498 114.24999999999994
    vertex 1747.956332683337 1401.7395282025498 114.24999999999994
  endloop
endfacet
facet normal 0.0 0.7933533402913471 -0.6087614290085749
  outer loop
    vertex 1744.9563326833404 1402.1368247590444 114.7677669529663
    vertex 1747.956332683337 1401.7395282025498 114.24999999999994
    vertex 1744.9563326833404 1401.7395282025498 114.24999999999994
  endloop
endfacet
facet normal 0.0 0.7933533402913471 -0.6087614290085749
  outer loop
    vertex 1747.956332683337 1401.7395282025498 114.24999999999994
    vertex 1744.9563326833404 1402.1368247590444 114.7677669529663
    vertex 1747.956332683337 1402.1368247590444 114.7677669529663
  endloop
endfacet
facet normal 0.0 0.6087614290072894 -0.7933533402923334
  outer loop
    vertex 1747.956332683337 1402.6545917120127 115.16506350946104
    vertex 1744.9563326833404 1402.1368247590444 114.7677669529663
    vertex 1744.9563326833404 1402.6545917120127 115.16506350946104
  endloop
endfacet
facet normal 0.0 0.6087614290072894 -0.7933533402923334
  outer loop
    vertex 1744.9563326833404 1402.1368247590444 114.7677669529663
    vertex 1747.956332683337 1402.6545917120127 115.16506350946104
    vertex 1747.956332683337 1402.1368247590444 114.7677669529663
  endloop
endfacet
facet normal 0.0 0.38268343236560354 -0.923879532511074
  outer loop
    vertex 1747.956332683337 1403.2575440992555 115.41481456572261
    vertex 1744.9563326833404 1402.6545917120127 115.16506350946104
    vertex 1744.9563326833404 1403.2575440992555 115.41481456572261
  endloop
endfacet
facet normal 0.0 0.38268343236560354 -0.923879532511074
  outer loop
    vertex 1744.9563326833404 1402.6545917120127 115.16506350946104
    vertex 1747.956332683337 1403.2575440992555 115.41481456572261
    vertex 1747.956332683337 1402.6545917120127 115.16506350946104
  endloop
endfacet
facet normal 0.0 0.1305261922202062 -0.9914448613737901
  outer loop
    vertex 1747.956332683337 1403.9045917120109 115.49999999999994
    vertex 1744.9563326833404 1403.2575440992555 115.41481456572261
    vertex 1744.9563326833404 1403.9045917120109 115.49999999999994
  endloop
endfacet
facet normal 0.0 0.1305261922202062 -0.9914448613737901
  outer loop
    vertex 1744.9563326833404 1403.2575440992555 115.41481456572261
    vertex 1747.956332683337 1403.9045917120109 115.49999999999994
    vertex 1747.956332683337 1403.2575440992555 115.41481456572261
  endloop
endfacet
facet normal -0.0 -0.13052619222020834 -0.99144486137379
  outer loop
    vertex 1747.956332683337 1404.5516393247665 115.41481456572261
    vertex 1744.9563326833404 1403.9045917120109 115.49999999999994
    vertex 1744.9563326833404 1404.5516393247665 115.41481456572261
  endloop
endfacet
facet normal -0.0 -0.13052619222020834 -0.99144486137379
  outer loop
    vertex 1744.9563326833404 1403.9045917120109 115.49999999999994
    vertex 1747.956332683337 1404.5516393247665 115.41481456572261
    vertex 1747.956332683337 1403.9045917120109 115.49999999999994
  endloop
endfacet
facet normal -0.0 -0.38268343236560354 -0.923879532511074
  outer loop
    vertex 1747.956332683337 1405.1545917120093 115.16506350946104
    vertex 1744.9563326833404 1404.5516393247665 115.41481456572261
    vertex 1744.9563326833404 1405.1545917120093 115.16506350946104
  endloop
endfacet
facet normal -0.0 -0.38268343236560354 -0.923879532511074
  outer loop
    vertex 1744.9563326833404 1404.5516393247665 115.41481456572261
    vertex 1747.956332683337 1405.1545917120093 115.16506350946104
    vertex 1747.956332683337 1404.5516393247665 115.41481456572261
  endloop
endfacet
facet normal -0.0 -0.6087614290072881 -0.7933533402923346
  outer loop
    vertex 1747.956332683337 1405.6723586649775 114.7677669529663
    vertex 1744.9563326833404 1405.1545917120093 115.16506350946104
    vertex 1744.9563326833404 1405.6723586649775 114.7677669529663
  endloop
endfacet
facet normal -0.0 -0.6087614290072881 -0.7933533402923346
  outer loop
    vertex 1744.9563326833404 1405.1545917120093 115.16506350946104
    vertex 1747.956332683337 1405.6723586649775 114.7677669529663
    vertex 1747.956332683337 1405.1545917120093 115.16506350946104
  endloop
endfacet
facet normal -0.0 -0.7933533402913486 -0.6087614290085728
  outer loop
    vertex 1747.956332683337 1405.6723586649775 114.7677669529663
    vertex 1744.9563326833404 1406.069655221472 114.24999999999994
    vertex 1747.956332683337 1406.069655221472 114.24999999999994
  endloop
endfacet
facet normal -0.0 -0.7933533402913486 -0.6087614290085728
  outer loop
    vertex 1744.9563326833404 1406.069655221472 114.24999999999994
    vertex 1747.956332683337 1405.6723586649775 114.7677669529663
    vertex 1744.9563326833404 1405.6723586649775 114.7677669529663
  endloop
endfacet
facet normal -0.0 -0.9238795325116258 -0.3826834323642715
  outer loop
    vertex 1747.956332683337 1406.069655221472 114.24999999999994
    vertex 1744.9563326833404 1406.319406277733 113.64704761275624
    vertex 1747.956332683337 1406.319406277733 113.64704761275624
  endloop
endfacet
facet normal -0.0 -0.9238795325116258 -0.3826834323642715
  outer loop
    vertex 1744.9563326833404 1406.319406277733 113.64704761275624
    vertex 1747.956332683337 1406.069655221472 114.24999999999994
    vertex 1744.9563326833404 1406.069655221472 114.24999999999994
  endloop
endfacet
facet normal -0.0 -0.9914448613732374 -0.13052619222440537
  outer loop
    vertex 1747.956332683337 1406.319406277733 113.64704761275624
    vertex 1744.9563326833404 1406.4045917120131 112.99999999999993
    vertex 1747.956332683337 1406.4045917120131 112.99999999999993
  endloop
endfacet
facet normal -0.0 -0.9914448613732374 -0.13052619222440537
  outer loop
    vertex 1744.9563326833404 1406.4045917120131 112.99999999999993
    vertex 1747.956332683337 1406.319406277733 113.64704761275624
    vertex 1744.9563326833404 1406.319406277733 113.64704761275624
  endloop
endfacet
facet normal 0.0 -0.9914448613732374 0.13052619222440479
  outer loop
    vertex 1747.956332683337 1406.4045917120131 112.99999999999993
    vertex 1744.9563326833404 1406.319406277733 112.35295238724363
    vertex 1747.956332683337 1406.319406277733 112.35295238724363
  endloop
endfacet
facet normal 0.0 -0.9914448613732374 0.13052619222440479
  outer loop
    vertex 1744.9563326833404 1406.319406277733 112.35295238724363
    vertex 1747.956332683337 1406.4045917120131 112.99999999999993
    vertex 1744.9563326833404 1406.4045917120131 112.99999999999993
  endloop
endfacet
facet normal 0.0 -0.9238795325116258 0.3826834323642715
  outer loop
    vertex 1747.956332683337 1406.319406277733 112.35295238724363
    vertex 1744.9563326833404 1406.069655221472 111.74999999999994
    vertex 1747.956332683337 1406.069655221472 111.74999999999994
  endloop
endfacet
facet normal 0.0 -0.9238795325116258 0.3826834323642715
  outer loop
    vertex 1744.9563326833404 1406.069655221472 111.74999999999994
    vertex 1747.956332683337 1406.319406277733 112.35295238724363
    vertex 1744.9563326833404 1406.319406277733 112.35295238724363
  endloop
endfacet
facet normal 0.0 -0.7933533402913479 0.6087614290085738
  outer loop
    vertex 1747.956332683337 1406.069655221472 111.74999999999994
    vertex 1744.9563326833404 1405.6723586649775 111.23223304703357
    vertex 1747.956332683337 1405.6723586649775 111.23223304703357
  endloop
endfacet
facet normal 0.0 -0.7933533402913479 0.6087614290085738
  outer loop
    vertex 1744.9563326833404 1405.6723586649775 111.23223304703357
    vertex 1747.956332683337 1406.069655221472 111.74999999999994
    vertex 1744.9563326833404 1406.069655221472 111.74999999999994
  endloop
endfacet
facet normal 0.0 -0.6087614290072881 0.7933533402923346
  outer loop
    vertex 1747.956332683337 1405.1545917120093 110.83493649053885
    vertex 1744.9563326833404 1405.6723586649775 111.23223304703357
    vertex 1744.9563326833404 1405.1545917120093 110.83493649053885
  endloop
endfacet
facet normal 0.0 -0.6087614290072881 0.7933533402923346
  outer loop
    vertex 1744.9563326833404 1405.6723586649775 111.23223304703357
    vertex 1747.956332683337 1405.1545917120093 110.83493649053885
    vertex 1747.956332683337 1405.6723586649775 111.23223304703357
  endloop
endfacet
facet normal 0.0 -0.38268343236560354 0.923879532511074
  outer loop
    vertex 1747.956332683337 1404.5516393247665 110.58518543427726
    vertex 1744.9563326833404 1405.1545917120093 110.83493649053885
    vertex 1744.9563326833404 1404.5516393247665 110.58518543427726
  endloop
endfacet
facet normal 0.0 -0.38268343236560354 0.923879532511074
  outer loop
    vertex 1744.9563326833404 1405.1545917120093 110.83493649053885
    vertex 1747.956332683337 1404.5516393247665 110.58518543427726
    vertex 1747.956332683337 1405.1545917120093 110.83493649053885
  endloop
endfacet
facet normal 0.0 0.13052619222021045 -0.9914448613737895
  outer loop
    vertex 1747.956332683337 1403.9045917120109 171.5000000000001
    vertex 1744.9563326833404 1403.2575440992555 171.4148145657228
    vertex 1744.9563326833404 1403.9045917120109 171.5000000000001
  endloop
endfacet
facet normal 0.0 0.13052619222021045 -0.9914448613737895
  outer loop
    vertex 1744.9563326833404 1403.2575440992555 171.4148145657228
    vertex 1747.956332683337 1403.9045917120109 171.5000000000001
    vertex 1747.956332683337 1403.2575440992555 171.4148145657228
  endloop
endfacet
facet normal -0.0 -0.13052619222021045 -0.9914448613737895
  outer loop
    vertex 1747.956332683337 1404.5516393247665 171.4148145657228
    vertex 1744.9563326833404 1403.9045917120109 171.5000000000001
    vertex 1744.9563326833404 1404.5516393247665 171.4148145657228
  endloop
endfacet
facet normal -0.0 -0.13052619222021045 -0.9914448613737895
  outer loop
    vertex 1744.9563326833404 1403.9045917120109 171.5000000000001
    vertex 1747.956332683337 1404.5516393247665 171.4148145657228
    vertex 1747.956332683337 1403.9045917120109 171.5000000000001
  endloop
endfacet
facet normal -0.0 -0.38268343236559615 -0.923879532511077
  outer loop
    vertex 1747.956332683337 1405.1545917120093 171.16506350946122
    vertex 1744.9563326833404 1404.5516393247665 171.4148145657228
    vertex 1744.9563326833404 1405.1545917120093 171.16506350946122
  endloop
endfacet
facet normal -0.0 -0.38268343236559615 -0.923879532511077
  outer loop
    vertex 1744.9563326833404 1404.5516393247665 171.4148145657228
    vertex 1747.956332683337 1405.1545917120093 171.16506350946122
    vertex 1747.956332683337 1404.5516393247665 171.4148145657228
  endloop
endfacet
facet normal -0.0 -0.6087614290072935 -0.7933533402923303
  outer loop
    vertex 1747.956332683337 1405.6723586649775 170.7677669529665
    vertex 1744.9563326833404 1405.1545917120093 171.16506350946122
    vertex 1744.9563326833404 1405.6723586649775 170.7677669529665
  endloop
endfacet
facet normal -0.0 -0.6087614290072935 -0.7933533402923303
  outer loop
    vertex 1744.9563326833404 1405.1545917120093 171.16506350946122
    vertex 1747.956332683337 1405.6723586649775 170.7677669529665
    vertex 1747.956332683337 1405.1545917120093 171.16506350946122
  endloop
endfacet
facet normal -0.0 -0.7933533402913454 -0.6087614290085769
  outer loop
    vertex 1747.956332683337 1405.6723586649775 170.7677669529665
    vertex 1744.9563326833404 1406.069655221472 170.25000000000014
    vertex 1747.956332683337 1406.069655221472 170.25000000000014
  endloop
endfacet
facet normal -0.0 -0.7933533402913454 -0.6087614290085769
  outer loop
    vertex 1744.9563326833404 1406.069655221472 170.25000000000014
    vertex 1747.956332683337 1405.6723586649775 170.7677669529665
    vertex 1744.9563326833404 1405.6723586649775 170.7677669529665
  endloop
endfacet
facet normal -0.0 -0.9238795325116258 -0.3826834323642715
  outer loop
    vertex 1747.956332683337 1406.069655221472 170.25000000000014
    vertex 1744.9563326833404 1406.319406277733 169.64704761275644
    vertex 1747.956332683337 1406.319406277733 169.64704761275644
  endloop
endfacet
facet normal -0.0 -0.9238795325116258 -0.3826834323642715
  outer loop
    vertex 1744.9563326833404 1406.319406277733 169.64704761275644
    vertex 1747.956332683337 1406.069655221472 170.25000000000014
    vertex 1744.9563326833404 1406.069655221472 170.25000000000014
  endloop
endfacet
facet normal -0.0 -0.9914448613732374 -0.13052619222440537
  outer loop
    vertex 1747.956332683337 1406.319406277733 169.64704761275644
    vertex 1744.9563326833404 1406.4045917120131 169.00000000000014
    vertex 1747.956332683337 1406.4045917120131 169.00000000000014
  endloop
endfacet
facet normal -0.0 -0.9914448613732374 -0.13052619222440537
  outer loop
    vertex 1744.9563326833404 1406.4045917120131 169.00000000000014
    vertex 1747.956332683337 1406.319406277733 169.64704761275644
    vertex 1744.9563326833404 1406.319406277733 169.64704761275644
  endloop
endfacet
facet normal 0.0 -0.9914448613732374 0.13052619222440537
  outer loop
    vertex 1747.956332683337 1406.4045917120131 169.00000000000014
    vertex 1744.9563326833404 1406.319406277733 168.35295238724382
    vertex 1747.956332683337 1406.319406277733 168.35295238724382
  endloop
endfacet
facet normal 0.0 -0.9914448613732374 0.13052619222440537
  outer loop
    vertex 1744.9563326833404 1406.319406277733 168.35295238724382
    vertex 1747.956332683337 1406.4045917120131 169.00000000000014
    vertex 1744.9563326833404 1406.4045917120131 169.00000000000014
  endloop
endfacet
facet normal 0.0 -0.9238795325116258 0.3826834323642715
  outer loop
    vertex 1747.956332683337 1406.319406277733 168.35295238724382
    vertex 1744.9563326833404 1406.069655221472 167.75000000000014
    vertex 1747.956332683337 1406.069655221472 167.75000000000014
  endloop
endfacet
facet normal 0.0 -0.9238795325116258 0.3826834323642715
  outer loop
    vertex 1744.9563326833404 1406.069655221472 167.75000000000014
    vertex 1747.956332683337 1406.319406277733 168.35295238724382
    vertex 1744.9563326833404 1406.319406277733 168.35295238724382
  endloop
endfacet
facet normal 0.0 -0.7933533402913454 0.6087614290085769
  outer loop
    vertex 1747.956332683337 1406.069655221472 167.75000000000014
    vertex 1744.9563326833404 1405.6723586649775 167.23223304703376
    vertex 1747.956332683337 1405.6723586649775 167.23223304703376
  endloop
endfacet
facet normal 0.0 -0.7933533402913454 0.6087614290085769
  outer loop
    vertex 1744.9563326833404 1405.6723586649775 167.23223304703376
    vertex 1747.956332683337 1406.069655221472 167.75000000000014
    vertex 1744.9563326833404 1406.069655221472 167.75000000000014
  endloop
endfacet
facet normal 0.0 -0.6087614290072935 0.7933533402923303
  outer loop
    vertex 1747.956332683337 1405.1545917120093 166.83493649053904
    vertex 1744.9563326833404 1405.6723586649775 167.23223304703376
    vertex 1744.9563326833404 1405.1545917120093 166.83493649053904
  endloop
endfacet
facet normal 0.0 -0.6087614290072935 0.7933533402923303
  outer loop
    vertex 1744.9563326833404 1405.6723586649775 167.23223304703376
    vertex 1747.956332683337 1405.1545917120093 166.83493649053904
    vertex 1747.956332683337 1405.6723586649775 167.23223304703376
  endloop
endfacet
facet normal 0.0 -0.38268343236559615 0.923879532511077
  outer loop
    vertex 1747.956332683337 1404.5516393247665 166.58518543427746
    vertex 1744.9563326833404 1405.1545917120093 166.83493649053904
    vertex 1744.9563326833404 1404.5516393247665 166.58518543427746
  endloop
endfacet
facet normal 0.0 -0.38268343236559615 0.923879532511077
  outer loop
    vertex 1744.9563326833404 1405.1545917120093 166.83493649053904
    vertex 1747.956332683337 1404.5516393247665 166.58518543427746
    vertex 1747.956332683337 1405.1545917120093 166.83493649053904
  endloop
endfacet
facet normal 0.0 -0.13052619222021045 0.9914448613737895
  outer loop
    vertex 1747.956332683337 1403.9045917120109 166.5000000000001
    vertex 1744.9563326833404 1404.5516393247665 166.58518543427746
    vertex 1744.9563326833404 1403.9045917120109 166.5000000000001
  endloop
endfacet
facet normal 0.0 -0.13052619222021045 0.9914448613737895
  outer loop
    vertex 1744.9563326833404 1404.5516393247665 166.58518543427746
    vertex 1747.956332683337 1403.9045917120109 166.5000000000001
    vertex 1747.956332683337 1404.5516393247665 166.58518543427746
  endloop
endfacet
facet normal 0.0 0.13052619222021045 0.9914448613737895
  outer loop
    vertex 1747.956332683337 1403.2575440992555 166.58518543427746
    vertex 1744.9563326833404 1403.9045917120109 166.5000000000001
    vertex 1744.9563326833404 1403.2575440992555 166.58518543427746
  endloop
endfacet
facet normal 0.0 0.13052619222021045 0.9914448613737895
  outer loop
    vertex 1744.9563326833404 1403.9045917120109 166.5000000000001
    vertex 1747.956332683337 1403.2575440992555 166.58518543427746
    vertex 1747.956332683337 1403.9045917120109 166.5000000000001
  endloop
endfacet
facet normal 0.0 0.38268343236559615 0.923879532511077
  outer loop
    vertex 1747.956332683337 1402.6545917120127 166.83493649053904
    vertex 1744.9563326833404 1403.2575440992555 166.58518543427746
    vertex 1744.9563326833404 1402.6545917120127 166.83493649053904
  endloop
endfacet
facet normal 0.0 0.38268343236559615 0.923879532511077
  outer loop
    vertex 1744.9563326833404 1403.2575440992555 166.58518543427746
    vertex 1747.956332683337 1402.6545917120127 166.83493649053904
    vertex 1747.956332683337 1403.2575440992555 166.58518543427746
  endloop
endfacet
facet normal 0.0 0.6087614290072935 0.7933533402923303
  outer loop
    vertex 1747.956332683337 1402.1368247590444 167.23223304703376
    vertex 1744.9563326833404 1402.6545917120127 166.83493649053904
    vertex 1744.9563326833404 1402.1368247590444 167.23223304703376
  endloop
endfacet
facet normal 0.0 0.6087614290072935 0.7933533402923303
  outer loop
    vertex 1744.9563326833404 1402.6545917120127 166.83493649053904
    vertex 1747.956332683337 1402.1368247590444 167.23223304703376
    vertex 1747.956332683337 1402.6545917120127 166.83493649053904
  endloop
endfacet
facet normal 0.0 0.7933533402913454 0.6087614290085769
  outer loop
    vertex 1744.9563326833404 1401.7395282025498 167.75000000000014
    vertex 1747.956332683337 1402.1368247590444 167.23223304703376
    vertex 1744.9563326833404 1402.1368247590444 167.23223304703376
  endloop
endfacet
facet normal 0.0 0.7933533402913454 0.6087614290085769
  outer loop
    vertex 1747.956332683337 1402.1368247590444 167.23223304703376
    vertex 1744.9563326833404 1401.7395282025498 167.75000000000014
    vertex 1747.956332683337 1401.7395282025498 167.75000000000014
  endloop
endfacet
facet normal 0.0 0.9238795325116258 0.3826834323642715
  outer loop
    vertex 1744.9563326833404 1401.4897771462888 168.35295238724382
    vertex 1747.956332683337 1401.7395282025498 167.75000000000014
    vertex 1744.9563326833404 1401.7395282025498 167.75000000000014
  endloop
endfacet
facet normal 0.0 0.9238795325116258 0.3826834323642715
  outer loop
    vertex 1747.956332683337 1401.7395282025498 167.75000000000014
    vertex 1744.9563326833404 1401.4897771462888 168.35295238724382
    vertex 1747.956332683337 1401.4897771462888 168.35295238724382
  endloop
endfacet
facet normal 0.0 0.9914448613732374 0.13052619222440537
  outer loop
    vertex 1744.9563326833404 1401.4045917120086 169.00000000000014
    vertex 1747.956332683337 1401.4897771462888 168.35295238724382
    vertex 1744.9563326833404 1401.4897771462888 168.35295238724382
  endloop
endfacet
facet normal 0.0 0.9914448613732374 0.13052619222440537
  outer loop
    vertex 1747.956332683337 1401.4897771462888 168.35295238724382
    vertex 1744.9563326833404 1401.4045917120086 169.00000000000014
    vertex 1747.956332683337 1401.4045917120086 169.00000000000014
  endloop
endfacet
facet normal 0.0 0.9914448613732374 -0.13052619222440537
  outer loop
    vertex 1744.9563326833404 1401.4897771462888 169.64704761275644
    vertex 1747.956332683337 1401.4045917120086 169.00000000000014
    vertex 1744.9563326833404 1401.4045917120086 169.00000000000014
  endloop
endfacet
facet normal 0.0 0.9914448613732374 -0.13052619222440537
  outer loop
    vertex 1747.956332683337 1401.4045917120086 169.00000000000014
    vertex 1744.9563326833404 1401.4897771462888 169.64704761275644
    vertex 1747.956332683337 1401.4897771462888 169.64704761275644
  endloop
endfacet
facet normal 0.0 0.9238795325116258 -0.3826834323642715
  outer loop
    vertex 1744.9563326833404 1401.7395282025498 170.25000000000014
    vertex 1747.956332683337 1401.4897771462888 169.64704761275644
    vertex 1744.9563326833404 1401.4897771462888 169.64704761275644
  endloop
endfacet
facet normal 0.0 0.9238795325116258 -0.3826834323642715
  outer loop
    vertex 1747.956332683337 1401.4897771462888 169.64704761275644
    vertex 1744.9563326833404 1401.7395282025498 170.25000000000014
    vertex 1747.956332683337 1401.7395282025498 170.25000000000014
  endloop
endfacet
facet normal 0.0 0.7933533402913454 -0.6087614290085769
  outer loop
    vertex 1744.9563326833404 1402.1368247590444 170.7677669529665
    vertex 1747.956332683337 1401.7395282025498 170.25000000000014
    vertex 1744.9563326833404 1401.7395282025498 170.25000000000014
  endloop
endfacet
facet normal 0.0 0.7933533402913454 -0.6087614290085769
  outer loop
    vertex 1747.956332683337 1401.7395282025498 170.25000000000014
    vertex 1744.9563326833404 1402.1368247590444 170.7677669529665
    vertex 1747.956332683337 1402.1368247590444 170.7677669529665
  endloop
endfacet
facet normal 0.0 0.6087614290072935 -0.7933533402923303
  outer loop
    vertex 1747.956332683337 1402.6545917120127 171.16506350946122
    vertex 1744.9563326833404 1402.1368247590444 170.7677669529665
    vertex 1744.9563326833404 1402.6545917120127 171.16506350946122
  endloop
endfacet
facet normal 0.0 0.6087614290072935 -0.7933533402923303
  outer loop
    vertex 1744.9563326833404 1402.1368247590444 170.7677669529665
    vertex 1747.956332683337 1402.6545917120127 171.16506350946122
    vertex 1747.956332683337 1402.1368247590444 170.7677669529665
  endloop
endfacet
facet normal 0.0 0.38268343236559615 -0.923879532511077
  outer loop
    vertex 1747.956332683337 1403.2575440992555 171.4148145657228
    vertex 1744.9563326833404 1402.6545917120127 171.16506350946122
    vertex 1744.9563326833404 1403.2575440992555 171.4148145657228
  endloop
endfacet
facet normal 0.0 0.38268343236559615 -0.923879532511077
  outer loop
    vertex 1744.9563326833404 1402.6545917120127 171.16506350946122
    vertex 1747.956332683337 1403.2575440992555 171.4148145657228
    vertex 1747.956332683337 1402.6545917120127 171.16506350946122
  endloop
endfacet
facet normal -1.0 1.7340987123210653e-45 5.196639908655035e-30
  outer loop
    vertex 1744.9563326833404 1395.7763531992712 170.43857506416816
    vertex 1744.9563326833404 1394.6545917120145 112.99999999999862
    vertex 1744.9563326833404 1394.6545917120145 169.00000000000145
  endloop
endfacet
facet normal -1.0 1.7340987123210653e-45 5.196639908655035e-30
  outer loop
    vertex 1744.9563326833404 1394.6545917120145 112.99999999999862
    vertex 1744.9563326833404 1395.7763531992712 170.43857506416816
    vertex 1744.9563326833404 1395.7763531992712 111.56142493583194
  endloop
endfacet
facet normal -1.0 1.7340987123210653e-45 5.196639908655035e-30
  outer loop
    vertex 1744.9563326833404 1395.7763531992712 111.56142493583194
    vertex 1744.9563326833404 1395.7763531992712 170.43857506416816
    vertex 1744.9563326833404 1397.1193956715397 171.6731130211425
  endloop
endfacet
facet normal -1.0 1.7340987123210653e-45 5.196639908655035e-30
  outer loop
    vertex 1744.9563326833404 1395.7763531992712 111.56142493583194
    vertex 1744.9563326833404 1397.1193956715397 171.6731130211425
    vertex 1744.9563326833404 1397.1193956715397 110.32688697885757
  endloop
endfacet
facet normal -1.0 1.7340987123210653e-45 5.196639908655035e-30
  outer loop
    vertex 1744.9563326833404 1397.1193956715397 110.32688697885757
    vertex 1744.9563326833404 1397.1193956715397 171.6731130211425
    vertex 1744.9563326833404 1398.6471565008078 172.67000514072694
  endloop
endfacet
facet normal -1.0 1.7340987123210653e-45 5.196639908655035e-30
  outer loop
    vertex 1744.9563326833404 1397.1193956715397 110.32688697885757
    vertex 1744.9563326833404 1398.6471565008078 172.67000514072694
    vertex 1744.9563326833404 1398.6471565008078 109.32999485927314
  endloop
endfacet
facet normal -1.0 1.7340987123210653e-45 5.196639908655035e-30
  outer loop
    vertex 1744.9563326833404 1398.6471565008078 109.32999485927314
    vertex 1744.9563326833404 1398.6471565008078 172.67000514072694
    vertex 1744.9563326833404 1400.318044336052 173.40211229925654
  endloop
endfacet
facet normal -1.0 1.7340987123210653e-45 5.196639908655035e-30
  outer loop
    vertex 1744.9563326833404 1398.6471565008078 109.32999485927314
    vertex 1744.9563326833404 1400.318044336052 173.40211229925654
    vertex 1744.9563326833404 1400.318044336052 108.59788770074353
  endloop
endfacet
facet normal -1.0 1.7340987123210653e-45 5.196639908655035e-30
  outer loop
    vertex 1744.9563326833404 1400.318044336052 108.59788770074353
    vertex 1744.9563326833404 1400.318044336052 173.40211229925654
    vertex 1744.9563326833404 1401.4045917120086 169.00000000000014
  endloop
endfacet
facet normal -1.0 1.7340987123210653e-45 5.196639908655035e-30
  outer loop
    vertex 1744.9563326833404 1401.4045917120086 169.00000000000014
    vertex 1744.9563326833404 1400.318044336052 173.40211229925654
    vertex 1744.9563326833404 1401.4897771462888 169.64704761275644
  endloop
endfacet
facet normal -1.0 1.7340987123210653e-45 5.196639908655035e-30
  outer loop
    vertex 1744.9563326833404 1401.4897771462888 169.64704761275644
    vertex 1744.9563326833404 1400.318044336052 173.40211229925654
    vertex 1744.9563326833404 1402.0865713750331 173.84950380782237
  endloop
endfacet
facet normal -1.0 1.7340987123210653e-45 5.196639908655035e-30
  outer loop
    vertex 1744.9563326833404 1401.4897771462888 169.64704761275644
    vertex 1744.9563326833404 1402.0865713750331 173.84950380782237
    vertex 1744.9563326833404 1401.7395282025498 170.25000000000014
  endloop
endfacet
facet normal -1.0 1.7340987123210653e-45 5.196639908655035e-30
  outer loop
    vertex 1744.9563326833404 1401.7395282025498 170.25000000000014
    vertex 1744.9563326833404 1402.0865713750331 173.84950380782237
    vertex 1744.9563326833404 1402.1368247590444 170.7677669529665
  endloop
endfacet
facet normal -1.0 1.7340987123210653e-45 5.196639908655035e-30
  outer loop
    vertex 1744.9563326833404 1402.1368247590444 170.7677669529665
    vertex 1744.9563326833404 1402.0865713750331 173.84950380782237
    vertex 1744.9563326833404 1403.9045917120109 174.00000000000014
  endloop
endfacet
facet normal -1.0 1.7340987123210653e-45 5.196639908655035e-30
  outer loop
    vertex 1744.9563326833404 1402.1368247590444 170.7677669529665
    vertex 1744.9563326833404 1403.9045917120109 174.00000000000014
    vertex 1744.9563326833404 1402.6545917120127 171.16506350946122
  endloop
endfacet
facet normal -1.0 1.7340987123210653e-45 5.196639908655035e-30
  outer loop
    vertex 1744.9563326833404 1402.6545917120127 171.16506350946122
    vertex 1744.9563326833404 1403.9045917120109 174.00000000000014
    vertex 1744.9563326833404 1403.2575440992555 171.4148145657228
  endloop
endfacet
facet normal -1.0 1.7340987123210653e-45 5.196639908655035e-30
  outer loop
    vertex 1744.9563326833404 1403.2575440992555 171.4148145657228
    vertex 1744.9563326833404 1403.9045917120109 174.00000000000014
    vertex 1744.9563326833404 1403.9045917120109 171.5000000000001
  endloop
endfacet
facet normal -1.0 1.7340987123210653e-45 5.196639908655035e-30
  outer loop
    vertex 1744.9563326833404 1403.9045917120109 171.5000000000001
    vertex 1744.9563326833404 1403.9045917120109 174.00000000000014
    vertex 1744.9563326833404 1405.7226120489943 173.84950380782186
  endloop
endfacet
facet normal -1.0 1.7340987123210653e-45 5.196639908655035e-30
  outer loop
    vertex 1744.9563326833404 1403.9045917120109 171.5000000000001
    vertex 1744.9563326833404 1405.7226120489943 173.84950380782186
    vertex 1744.9563326833404 1404.5516393247665 171.4148145657228
  endloop
endfacet
facet normal -1.0 1.7340987123210653e-45 5.196639908655035e-30
  outer loop
    vertex 1744.9563326833404 1404.5516393247665 171.4148145657228
    vertex 1744.9563326833404 1405.7226120489943 173.84950380782186
    vertex 1744.9563326833404 1405.1545917120093 171.16506350946122
  endloop
endfacet
facet normal -1.0 1.7340987123210653e-45 5.196639908655035e-30
  outer loop
    vertex 1744.9563326833404 1405.1545917120093 171.16506350946122
    vertex 1744.9563326833404 1405.7226120489943 173.84950380782186
    vertex 1744.9563326833404 1405.6723586649775 170.7677669529665
  endloop
endfacet
facet normal -1.0 1.7340987123210653e-45 5.196639908655035e-30
  outer loop
    vertex 1744.9563326833404 1405.6723586649775 170.7677669529665
    vertex 1744.9563326833404 1405.7226120489943 173.84950380782186
    vertex 1744.9563326833404 1406.069655221472 170.25000000000014
  endloop
endfacet
facet normal -1.0 1.7340987123210653e-45 5.196639908655035e-30
  outer loop
    vertex 1744.9563326833404 1406.069655221472 170.25000000000014
    vertex 1744.9563326833404 1405.7226120489943 173.84950380782186
    vertex 1744.9563326833404 1407.4911390879697 173.40211229925552
  endloop
endfacet
facet normal -1.0 1.7340987123210653e-45 5.196639908655035e-30
  outer loop
    vertex 1744.9563326833404 1406.069655221472 170.25000000000014
    vertex 1744.9563326833404 1407.4911390879697 173.40211229925552
    vertex 1744.9563326833404 1406.319406277733 169.64704761275644
  endloop
endfacet
facet normal -1.0 1.7340987123210653e-45 5.196639908655035e-30
  outer loop
    vertex 1744.9563326833404 1406.319406277733 169.64704761275644
    vertex 1744.9563326833404 1407.4911390879697 173.40211229925552
    vertex 1744.9563326833404 1406.4045917120131 169.00000000000014
  endloop
endfacet
facet normal -1.0 1.7340987123210653e-45 5.196639908655035e-30
  outer loop
    vertex 1744.9563326833404 1406.4045917120131 169.00000000000014
    vertex 1744.9563326833404 1407.4911390879697 173.40211229925552
    vertex 1744.9563326833404 1406.4045917120131 112.99999999999993
  endloop
endfacet
facet normal -1.0 1.7340987123210653e-45 5.196639908655035e-30
  outer loop
    vertex 1744.9563326833404 1400.318044336052 108.59788770074353
    vertex 1744.9563326833404 1401.4897771462888 112.35295238724363
    vertex 1744.9563326833404 1402.0865713750331 108.15049619217767
  endloop
endfacet
facet normal -1.0 1.7340987123210653e-45 5.196639908655035e-30
  outer loop
    vertex 1744.9563326833404 1401.4897771462888 112.35295238724363
    vertex 1744.9563326833404 1400.318044336052 108.59788770074353
    vertex 1744.9563326833404 1401.4045917120086 112.99999999999993
  endloop
endfacet
facet normal -1.0 1.7340987123210653e-45 5.196639908655035e-30
  outer loop
    vertex 1744.9563326833404 1401.4045917120086 112.99999999999993
    vertex 1744.9563326833404 1400.318044336052 108.59788770074353
    vertex 1744.9563326833404 1401.4045917120086 169.00000000000014
  endloop
endfacet
facet normal -1.0 1.7340987123210653e-45 5.196639908655035e-30
  outer loop
    vertex 1744.9563326833404 1402.0865713750331 108.15049619217767
    vertex 1744.9563326833404 1401.4897771462888 112.35295238724363
    vertex 1744.9563326833404 1401.7395282025498 111.74999999999994
  endloop
endfacet
facet normal -1.0 1.7340987123210653e-45 5.196639908655035e-30
  outer loop
    vertex 1744.9563326833404 1402.0865713750331 108.15049619217767
    vertex 1744.9563326833404 1401.7395282025498 111.74999999999994
    vertex 1744.9563326833404 1402.1368247590444 111.23223304703357
  endloop
endfacet
facet normal -1.0 1.7340987123210653e-45 5.196639908655035e-30
  outer loop
    vertex 1744.9563326833404 1402.0865713750331 108.15049619217767
    vertex 1744.9563326833404 1402.1368247590444 111.23223304703357
    vertex 1744.9563326833404 1403.9045917120109 107.99999999999994
  endloop
endfacet
facet normal -1.0 1.7340987123210653e-45 5.196639908655035e-30
  outer loop
    vertex 1744.9563326833404 1403.9045917120109 107.99999999999994
    vertex 1744.9563326833404 1402.1368247590444 111.23223304703357
    vertex 1744.9563326833404 1402.6545917120127 110.83493649053885
  endloop
endfacet
facet normal -1.0 1.7340987123210653e-45 5.196639908655035e-30
  outer loop
    vertex 1744.9563326833404 1403.9045917120109 107.99999999999994
    vertex 1744.9563326833404 1402.6545917120127 110.83493649053885
    vertex 1744.9563326833404 1403.2575440992555 110.58518543427726
  endloop
endfacet
facet normal -1.0 1.7340987123210653e-45 5.196639908655035e-30
  outer loop
    vertex 1744.9563326833404 1403.9045917120109 107.99999999999994
    vertex 1744.9563326833404 1403.2575440992555 110.58518543427726
    vertex 1744.9563326833404 1403.9045917120109 110.49999999999993
  endloop
endfacet
facet normal -1.0 1.7340987123210653e-45 5.196639908655035e-30
  outer loop
    vertex 1744.9563326833404 1403.9045917120109 107.99999999999994
    vertex 1744.9563326833404 1403.9045917120109 110.49999999999993
    vertex 1744.9563326833404 1404.5516393247665 110.58518543427726
  endloop
endfacet
facet normal -1.0 1.7340987123210653e-45 5.196639908655035e-30
  outer loop
    vertex 1744.9563326833404 1403.9045917120109 107.99999999999994
    vertex 1744.9563326833404 1404.5516393247665 110.58518543427726
    vertex 1744.9563326833404 1405.7226120489943 108.15049619217821
  endloop
endfacet
facet normal -1.0 1.7340987123210653e-45 5.196639908655035e-30
  outer loop
    vertex 1744.9563326833404 1405.7226120489943 108.15049619217821
    vertex 1744.9563326833404 1404.5516393247665 110.58518543427726
    vertex 1744.9563326833404 1405.1545917120093 110.83493649053885
  endloop
endfacet
facet normal -1.0 1.7340987123210653e-45 5.196639908655035e-30
  outer loop
    vertex 1744.9563326833404 1405.7226120489943 108.15049619217821
    vertex 1744.9563326833404 1405.1545917120093 110.83493649053885
    vertex 1744.9563326833404 1405.6723586649775 111.23223304703357
  endloop
endfacet
facet normal -1.0 1.7340987123210653e-45 5.196639908655035e-30
  outer loop
    vertex 1744.9563326833404 1405.7226120489943 108.15049619217821
    vertex 1744.9563326833404 1405.6723586649775 111.23223304703357
    vertex 1744.9563326833404 1406.069655221472 111.74999999999994
  endloop
endfacet
facet normal -1.0 1.7340987123210653e-45 5.196639908655035e-30
  outer loop
    vertex 1744.9563326833404 1405.7226120489943 108.15049619217821
    vertex 1744.9563326833404 1406.069655221472 111.74999999999994
    vertex 1744.9563326833404 1407.4911390879697 108.59788770074454
  endloop
endfacet
facet normal -1.0 1.7340987123210653e-45 5.196639908655035e-30
  outer loop
    vertex 1744.9563326833404 1407.4911390879697 108.59788770074454
    vertex 1744.9563326833404 1406.069655221472 111.74999999999994
    vertex 1744.9563326833404 1406.319406277733 112.35295238724363
  endloop
endfacet
facet normal -1.0 1.7340987123210653e-45 5.196639908655035e-30
  outer loop
    vertex 1744.9563326833404 1407.4911390879697 108.59788770074454
    vertex 1744.9563326833404 1406.319406277733 112.35295238724363
    vertex 1744.9563326833404 1406.4045917120131 112.99999999999993
  endloop
endfacet
facet normal -1.0 1.7340987123210653e-45 5.196639908655035e-30
  outer loop
    vertex 1744.9563326833404 1407.4911390879697 108.59788770074454
    vertex 1744.9563326833404 1406.4045917120131 112.99999999999993
    vertex 1744.9563326833404 1407.4911390879697 173.40211229925552
  endloop
endfacet
facet normal -1.0 1.7340987123210653e-45 5.196639908655035e-30
  outer loop
    vertex 1744.9563326833404 1407.4911390879697 108.59788770074454
    vertex 1744.9563326833404 1407.4911390879697 173.40211229925552
    vertex 1744.9563326833404 1409.1620269232142 172.6700051407254
  endloop
endfacet
facet normal -1.0 1.7340987123210653e-45 5.196639908655035e-30
  outer loop
    vertex 1744.9563326833404 1407.4911390879697 108.59788770074454
    vertex 1744.9563326833404 1409.1620269232142 172.6700051407254
    vertex 1744.9563326833404 1409.1620269232142 109.32999485927465
  endloop
endfacet
facet normal -1.0 1.7340987123210653e-45 5.196639908655035e-30
  outer loop
    vertex 1744.9563326833404 1409.1620269232142 109.32999485927465
    vertex 1744.9563326833404 1409.1620269232142 172.6700051407254
    vertex 1744.9563326833404 1410.6897877524823 171.67311302114055
  endloop
endfacet
facet normal -1.0 1.7340987123210653e-45 5.196639908655035e-30
  outer loop
    vertex 1744.9563326833404 1409.1620269232142 109.32999485927465
    vertex 1744.9563326833404 1410.6897877524823 171.67311302114055
    vertex 1744.9563326833404 1410.6897877524823 110.3268869788595
  endloop
endfacet
facet normal -1.0 1.7340987123210653e-45 5.196639908655035e-30
  outer loop
    vertex 1744.9563326833404 1410.6897877524823 110.3268869788595
    vertex 1744.9563326833404 1410.6897877524823 171.67311302114055
    vertex 1744.9563326833404 1412.0328302247563 170.4385750641658
  endloop
endfacet
facet normal -1.0 1.7340987123210653e-45 5.196639908655035e-30
  outer loop
    vertex 1744.9563326833404 1410.6897877524823 110.3268869788595
    vertex 1744.9563326833404 1412.0328302247563 170.4385750641658
    vertex 1744.9563326833404 1412.0328302247563 111.56142493583427
  endloop
endfacet
facet normal -1.0 1.7340987123210653e-45 5.196639908655035e-30
  outer loop
    vertex 1744.9563326833404 1412.0328302247563 111.56142493583427
    vertex 1744.9563326833404 1412.0328302247563 170.4385750641658
    vertex 1744.9563326833404 1413.1545917120131 168.9999999999988
  endloop
endfacet
facet normal -1.0 1.7340987123210653e-45 5.196639908655035e-30
  outer loop
    vertex 1744.9563326833404 1412.0328302247563 111.56142493583427
    vertex 1744.9563326833404 1413.1545917120131 168.9999999999988
    vertex 1744.9563326833404 1413.1545917120131 113.00000000000126
  endloop
endfacet
facet normal -1.0 1.7340987123210653e-45 5.196639908655035e-30
  outer loop
    vertex 1744.9563326833404 1401.4897771462888 168.35295238724382
    vertex 1744.9563326833404 1401.4045917120086 112.99999999999993
    vertex 1744.9563326833404 1401.4045917120086 169.00000000000014
  endloop
endfacet
facet normal -1.0 1.7340987123210653e-45 5.196639908655035e-30
  outer loop
    vertex 1744.9563326833404 1401.4045917120086 112.99999999999993
    vertex 1744.9563326833404 1401.4897771462888 168.35295238724382
    vertex 1744.9563326833404 1401.4897771462888 113.64704761275624
  endloop
endfacet
facet normal -1.0 1.7340987123210653e-45 5.196639908655035e-30
  outer loop
    vertex 1744.9563326833404 1401.4897771462888 113.64704761275624
    vertex 1744.9563326833404 1401.4897771462888 168.35295238724382
    vertex 1744.9563326833404 1401.7395282025498 167.75000000000014
  endloop
endfacet
facet normal -1.0 1.7340987123210653e-45 5.196639908655035e-30
  outer loop
    vertex 1744.9563326833404 1401.4897771462888 113.64704761275624
    vertex 1744.9563326833404 1401.7395282025498 167.75000000000014
    vertex 1744.9563326833404 1401.7395282025498 114.24999999999994
  endloop
endfacet
facet normal -1.0 1.7340987123210653e-45 5.196639908655035e-30
  outer loop
    vertex 1744.9563326833404 1401.7395282025498 114.24999999999994
    vertex 1744.9563326833404 1401.7395282025498 167.75000000000014
    vertex 1744.9563326833404 1402.1368247590444 167.23223304703376
  endloop
endfacet
facet normal -1.0 1.7340987123210653e-45 5.196639908655035e-30
  outer loop
    vertex 1744.9563326833404 1401.7395282025498 114.24999999999994
    vertex 1744.9563326833404 1402.1368247590444 167.23223304703376
    vertex 1744.9563326833404 1402.1368247590444 114.7677669529663
  endloop
endfacet
facet normal -1.0 1.7340987123210653e-45 5.196639908655035e-30
  outer loop
    vertex 1744.9563326833404 1402.1368247590444 114.7677669529663
    vertex 1744.9563326833404 1402.1368247590444 167.23223304703376
    vertex 1744.9563326833404 1402.6545917120127 166.83493649053904
  endloop
endfacet
facet normal -1.0 1.7340987123210653e-45 5.196639908655035e-30
  outer loop
    vertex 1744.9563326833404 1402.1368247590444 114.7677669529663
    vertex 1744.9563326833404 1402.6545917120127 166.83493649053904
    vertex 1744.9563326833404 1402.6545917120127 115.16506350946104
  endloop
endfacet
facet normal -1.0 1.7340987123210653e-45 5.196639908655035e-30
  outer loop
    vertex 1744.9563326833404 1402.6545917120127 115.16506350946104
    vertex 1744.9563326833404 1402.6545917120127 166.83493649053904
    vertex 1744.9563326833404 1403.2575440992555 166.58518543427746
  endloop
endfacet
facet normal -1.0 1.7340987123210653e-45 5.196639908655035e-30
  outer loop
    vertex 1744.9563326833404 1402.6545917120127 115.16506350946104
    vertex 1744.9563326833404 1403.2575440992555 166.58518543427746
    vertex 1744.9563326833404 1403.2575440992555 115.41481456572261
  endloop
endfacet
facet normal -1.0 1.7340987123210653e-45 5.196639908655035e-30
  outer loop
    vertex 1744.9563326833404 1403.2575440992555 115.41481456572261
    vertex 1744.9563326833404 1403.2575440992555 166.58518543427746
    vertex 1744.9563326833404 1403.9045917120109 166.5000000000001
  endloop
endfacet
facet normal -1.0 1.7340987123210653e-45 5.196639908655035e-30
  outer loop
    vertex 1744.9563326833404 1403.2575440992555 115.41481456572261
    vertex 1744.9563326833404 1403.9045917120109 166.5000000000001
    vertex 1744.9563326833404 1403.9045917120109 115.49999999999994
  endloop
endfacet
facet normal -1.0 1.7340987123210653e-45 5.196639908655035e-30
  outer loop
    vertex 1744.9563326833404 1403.9045917120109 115.49999999999994
    vertex 1744.9563326833404 1403.9045917120109 166.5000000000001
    vertex 1744.9563326833404 1404.5516393247665 166.58518543427746
  endloop
endfacet
facet normal -1.0 1.7340987123210653e-45 5.196639908655035e-30
  outer loop
    vertex 1744.9563326833404 1403.9045917120109 115.49999999999994
    vertex 1744.9563326833404 1404.5516393247665 166.58518543427746
    vertex 1744.9563326833404 1404.5516393247665 115.41481456572261
  endloop
endfacet
facet normal -1.0 1.7340987123210653e-45 5.196639908655035e-30
  outer loop
    vertex 1744.9563326833404 1404.5516393247665 115.41481456572261
    vertex 1744.9563326833404 1404.5516393247665 166.58518543427746
    vertex 1744.9563326833404 1405.1545917120093 166.83493649053904
  endloop
endfacet
facet normal -1.0 1.7340987123210653e-45 5.196639908655035e-30
  outer loop
    vertex 1744.9563326833404 1404.5516393247665 115.41481456572261
    vertex 1744.9563326833404 1405.1545917120093 166.83493649053904
    vertex 1744.9563326833404 1405.1545917120093 115.16506350946104
  endloop
endfacet
facet normal -1.0 1.7340987123210653e-45 5.196639908655035e-30
  outer loop
    vertex 1744.9563326833404 1405.1545917120093 115.16506350946104
    vertex 1744.9563326833404 1405.1545917120093 166.83493649053904
    vertex 1744.9563326833404 1405.6723586649775 167.23223304703376
  endloop
endfacet
facet normal -1.0 1.7340987123210653e-45 5.196639908655035e-30
  outer loop
    vertex 1744.9563326833404 1405.1545917120093 115.16506350946104
    vertex 1744.9563326833404 1405.6723586649775 167.23223304703376
    vertex 1744.9563326833404 1405.6723586649775 114.7677669529663
  endloop
endfacet
facet normal -1.0 1.7340987123210653e-45 5.196639908655035e-30
  outer loop
    vertex 1744.9563326833404 1405.6723586649775 114.7677669529663
    vertex 1744.9563326833404 1405.6723586649775 167.23223304703376
    vertex 1744.9563326833404 1406.069655221472 167.75000000000014
  endloop
endfacet
facet normal -1.0 1.7340987123210653e-45 5.196639908655035e-30
  outer loop
    vertex 1744.9563326833404 1405.6723586649775 114.7677669529663
    vertex 1744.9563326833404 1406.069655221472 167.75000000000014
    vertex 1744.9563326833404 1406.069655221472 114.24999999999994
  endloop
endfacet
facet normal -1.0 1.7340987123210653e-45 5.196639908655035e-30
  outer loop
    vertex 1744.9563326833404 1406.069655221472 114.24999999999994
    vertex 1744.9563326833404 1406.069655221472 167.75000000000014
    vertex 1744.9563326833404 1406.319406277733 168.35295238724382
  endloop
endfacet
facet normal -1.0 1.7340987123210653e-45 5.196639908655035e-30
  outer loop
    vertex 1744.9563326833404 1406.069655221472 114.24999999999994
    vertex 1744.9563326833404 1406.319406277733 168.35295238724382
    vertex 1744.9563326833404 1406.319406277733 113.64704761275624
  endloop
endfacet
facet normal -1.0 1.7340987123210653e-45 5.196639908655035e-30
  outer loop
    vertex 1744.9563326833404 1406.319406277733 113.64704761275624
    vertex 1744.9563326833404 1406.319406277733 168.35295238724382
    vertex 1744.9563326833404 1406.4045917120131 169.00000000000014
  endloop
endfacet
facet normal -1.0 1.7340987123210653e-45 5.196639908655035e-30
  outer loop
    vertex 1744.9563326833404 1406.319406277733 113.64704761275624
    vertex 1744.9563326833404 1406.4045917120131 169.00000000000014
    vertex 1744.9563326833404 1406.4045917120131 112.99999999999993
  endloop
endfacet
facet normal 0.0 0.7885892442176285 0.6149203232161625
  outer loop
    vertex 1744.9563326833404 1412.0328302247563 170.4385750641658
    vertex 1747.9563326833397 1413.1545917120131 168.9999999999988
    vertex 1744.9563326833404 1413.1545917120131 168.9999999999988
  endloop
endfacet
facet normal 0.0 0.7885892442176285 0.6149203232161625
  outer loop
    vertex 1747.9563326833397 1413.1545917120131 168.9999999999988
    vertex 1744.9563326833404 1412.0328302247563 170.4385750641658
    vertex 1747.9563326833397 1412.0328302247563 170.4385750641658
  endloop
endfacet
facet normal 0.0 0.6767414358118831 0.736220774669712
  outer loop
    vertex 1747.9563326833397 1410.6897877524823 171.67311302114055
    vertex 1744.9563326833404 1412.0328302247563 170.4385750641658
    vertex 1744.9563326833404 1410.6897877524823 171.67311302114055
  endloop
endfacet
facet normal 0.0 0.6767414358118831 0.736220774669712
  outer loop
    vertex 1744.9563326833404 1412.0328302247563 170.4385750641658
    vertex 1747.9563326833397 1410.6897877524823 171.67311302114055
    vertex 1747.9563326833397 1412.0328302247563 170.4385750641658
  endloop
endfacet
facet normal 0.0 0.5464702000830638 0.837478549230472
  outer loop
    vertex 1747.9563326833397 1409.1620269232142 172.6700051407254
    vertex 1744.9563326833404 1410.6897877524823 171.67311302114055
    vertex 1744.9563326833404 1409.1620269232142 172.6700051407254
  endloop
endfacet
facet normal 0.0 0.5464702000830638 0.837478549230472
  outer loop
    vertex 1744.9563326833404 1410.6897877524823 171.67311302114055
    vertex 1747.9563326833397 1409.1620269232142 172.6700051407254
    vertex 1747.9563326833397 1410.6897877524823 171.67311302114055
  endloop
endfacet
facet normal 0.0 0.4013220062073043 0.9159370324065649
  outer loop
    vertex 1747.9563326833397 1407.4911390879697 173.40211229925552
    vertex 1744.9563326833404 1409.1620269232142 172.6700051407254
    vertex 1744.9563326833404 1407.4911390879697 173.40211229925552
  endloop
endfacet
facet normal 0.0 0.4013220062073043 0.9159370324065649
  outer loop
    vertex 1744.9563326833404 1409.1620269232142 172.6700051407254
    vertex 1747.9563326833397 1407.4911390879697 173.40211229925552
    vertex 1747.9563326833397 1409.1620269232142 172.6700051407254
  endloop
endfacet
facet normal 0.0 0.24524832968282995 0.9694602914961408
  outer loop
    vertex 1747.9563326833397 1405.7226120489943 173.84950380782186
    vertex 1744.9563326833404 1407.4911390879697 173.40211229925552
    vertex 1744.9563326833404 1405.7226120489943 173.84950380782186
  endloop
endfacet
facet normal 0.0 0.24524832968282995 0.9694602914961408
  outer loop
    vertex 1744.9563326833404 1407.4911390879697 173.40211229925552
    vertex 1747.9563326833397 1405.7226120489943 173.84950380782186
    vertex 1747.9563326833397 1407.4911390879697 173.40211229925552
  endloop
endfacet
facet normal 0.0 0.08249807841347154 0.9965912236509435
  outer loop
    vertex 1747.9563326833397 1403.9045917120109 174.00000000000014
    vertex 1744.9563326833404 1405.7226120489943 173.84950380782186
    vertex 1744.9563326833404 1403.9045917120109 174.00000000000014
  endloop
endfacet
facet normal 0.0 0.08249807841347154 0.9965912236509435
  outer loop
    vertex 1744.9563326833404 1405.7226120489943 173.84950380782186
    vertex 1747.9563326833397 1403.9045917120109 174.00000000000014
    vertex 1747.9563326833397 1405.7226120489943 173.84950380782186
  endloop
endfacet
facet normal 0.0 -0.0824980784134493 0.9965912236509452
  outer loop
    vertex 1747.9563326833397 1402.0865713750331 173.84950380782237
    vertex 1744.9563326833404 1403.9045917120109 174.00000000000014
    vertex 1744.9563326833404 1402.0865713750331 173.84950380782237
  endloop
endfacet
facet normal 0.0 -0.0824980784134493 0.9965912236509452
  outer loop
    vertex 1744.9563326833404 1403.9045917120109 174.00000000000014
    vertex 1747.9563326833397 1402.0865713750331 173.84950380782237
    vertex 1747.9563326833397 1403.9045917120109 174.00000000000014
  endloop
endfacet
facet normal 0.0 -0.2452483296818157 0.9694602914963972
  outer loop
    vertex 1747.9563326833397 1400.318044336052 173.40211229925654
    vertex 1744.9563326833404 1402.0865713750331 173.84950380782237
    vertex 1744.9563326833404 1400.318044336052 173.40211229925654
  endloop
endfacet
facet normal 0.0 -0.2452483296818157 0.9694602914963972
  outer loop
    vertex 1744.9563326833404 1402.0865713750331 173.84950380782237
    vertex 1747.9563326833397 1400.318044336052 173.40211229925654
    vertex 1747.9563326833397 1402.0865713750331 173.84950380782237
  endloop
endfacet
facet normal 0.0 -0.4013220062070812 0.9159370324066626
  outer loop
    vertex 1747.9563326833397 1398.6471565008078 172.67000514072694
    vertex 1744.9563326833404 1400.318044336052 173.40211229925654
    vertex 1744.9563326833404 1398.6471565008078 172.67000514072694
  endloop
endfacet
facet normal 0.0 -0.4013220062070812 0.9159370324066626
  outer loop
    vertex 1744.9563326833404 1400.318044336052 173.40211229925654
    vertex 1747.9563326833397 1398.6471565008078 172.67000514072694
    vertex 1747.9563326833397 1400.318044336052 173.40211229925654
  endloop
endfacet
facet normal 0.0 -0.5464702000828947 0.8374785492305824
  outer loop
    vertex 1747.9563326833397 1397.1193956715397 171.6731130211425
    vertex 1744.9563326833404 1398.6471565008078 172.67000514072694
    vertex 1744.9563326833404 1397.1193956715397 171.6731130211425
  endloop
endfacet
facet normal 0.0 -0.5464702000828947 0.8374785492305824
  outer loop
    vertex 1744.9563326833404 1398.6471565008078 172.67000514072694
    vertex 1747.9563326833397 1397.1193956715397 171.6731130211425
    vertex 1747.9563326833397 1398.6471565008078 172.67000514072694
  endloop
endfacet
facet normal 0.0 -0.6767414358133466 0.736220774668367
  outer loop
    vertex 1747.9563326833397 1395.7763531992712 170.43857506416816
    vertex 1744.9563326833404 1397.1193956715397 171.6731130211425
    vertex 1744.9563326833404 1395.7763531992712 170.43857506416816
  endloop
endfacet
facet normal 0.0 -0.6767414358133466 0.736220774668367
  outer loop
    vertex 1744.9563326833404 1397.1193956715397 171.6731130211425
    vertex 1747.9563326833397 1395.7763531992712 170.43857506416816
    vertex 1747.9563326833397 1397.1193956715397 171.6731130211425
  endloop
endfacet
facet normal 0.0 -0.7885892442175628 0.6149203232162465
  outer loop
    vertex 1747.9563326833397 1395.7763531992712 170.43857506416816
    vertex 1744.9563326833404 1394.6545917120145 169.00000000000145
    vertex 1747.9563326833397 1394.6545917120145 169.00000000000145
  endloop
endfacet
facet normal 0.0 -0.7885892442175628 0.6149203232162465
  outer loop
    vertex 1744.9563326833404 1394.6545917120145 169.00000000000145
    vertex 1747.9563326833397 1395.7763531992712 170.43857506416816
    vertex 1744.9563326833404 1395.7763531992712 170.43857506416816
  endloop
endfacet
facet normal 0.0 -0.7885892442175623 -0.6149203232162472
  outer loop
    vertex 1747.9563326833397 1394.6545917120145 112.99999999999862
    vertex 1744.9563326833404 1395.7763531992712 111.56142493583194
    vertex 1747.9563326833397 1395.7763531992712 111.56142493583194
  endloop
endfacet
facet normal 0.0 -0.7885892442175623 -0.6149203232162472
  outer loop
    vertex 1744.9563326833404 1395.7763531992712 111.56142493583194
    vertex 1747.9563326833397 1394.6545917120145 112.99999999999862
    vertex 1744.9563326833404 1394.6545917120145 112.99999999999862
  endloop
endfacet
facet normal -0.0 -0.6767414358133481 -0.7362207746683653
  outer loop
    vertex 1747.9563326833397 1397.1193956715397 110.32688697885757
    vertex 1744.9563326833404 1395.7763531992712 111.56142493583194
    vertex 1744.9563326833404 1397.1193956715397 110.32688697885757
  endloop
endfacet
facet normal -0.0 -0.6767414358133481 -0.7362207746683653
  outer loop
    vertex 1744.9563326833404 1395.7763531992712 111.56142493583194
    vertex 1747.9563326833397 1397.1193956715397 110.32688697885757
    vertex 1747.9563326833397 1395.7763531992712 111.56142493583194
  endloop
endfacet
facet normal -0.0 -0.5464702000828958 -0.8374785492305817
  outer loop
    vertex 1747.9563326833397 1398.6471565008078 109.32999485927314
    vertex 1744.9563326833404 1397.1193956715397 110.32688697885757
    vertex 1744.9563326833404 1398.6471565008078 109.32999485927314
  endloop
endfacet
facet normal -0.0 -0.5464702000828958 -0.8374785492305817
  outer loop
    vertex 1744.9563326833404 1397.1193956715397 110.32688697885757
    vertex 1747.9563326833397 1398.6471565008078 109.32999485927314
    vertex 1747.9563326833397 1397.1193956715397 110.32688697885757
  endloop
endfacet
facet normal -0.0 -0.40132200620708314 -0.9159370324066617
  outer loop
    vertex 1747.9563326833397 1400.318044336052 108.59788770074353
    vertex 1744.9563326833404 1398.6471565008078 109.32999485927314
    vertex 1744.9563326833404 1400.318044336052 108.59788770074353
  endloop
endfacet
facet normal -0.0 -0.40132200620708314 -0.9159370324066617
  outer loop
    vertex 1744.9563326833404 1398.6471565008078 109.32999485927314
    vertex 1747.9563326833397 1400.318044336052 108.59788770074353
    vertex 1747.9563326833397 1398.6471565008078 109.32999485927314
  endloop
endfacet
facet normal -0.0 -0.2452483296818194 -0.9694602914963965
  outer loop
    vertex 1747.9563326833397 1402.0865713750331 108.15049619217767
    vertex 1744.9563326833404 1400.318044336052 108.59788770074353
    vertex 1744.9563326833404 1402.0865713750331 108.15049619217767
  endloop
endfacet
facet normal -0.0 -0.2452483296818194 -0.9694602914963965
  outer loop
    vertex 1744.9563326833404 1400.318044336052 108.59788770074353
    vertex 1747.9563326833397 1402.0865713750331 108.15049619217767
    vertex 1747.9563326833397 1400.318044336052 108.59788770074353
  endloop
endfacet
facet normal 0.0 -0.08249807841344473 -0.9965912236509457
  outer loop
    vertex 1747.9563326833397 1403.9045917120109 107.99999999999994
    vertex 1744.9563326833404 1402.0865713750331 108.15049619217767
    vertex 1744.9563326833404 1403.9045917120109 107.99999999999994
  endloop
endfacet
facet normal 0.0 -0.08249807841344473 -0.9965912236509457
  outer loop
    vertex 1744.9563326833404 1402.0865713750331 108.15049619217767
    vertex 1747.9563326833397 1403.9045917120109 107.99999999999994
    vertex 1747.9563326833397 1402.0865713750331 108.15049619217767
  endloop
endfacet
facet normal 0.0 0.08249807841346847 -0.9965912236509438
  outer loop
    vertex 1747.9563326833397 1405.7226120489943 108.15049619217821
    vertex 1744.9563326833404 1403.9045917120109 107.99999999999994
    vertex 1744.9563326833404 1405.7226120489943 108.15049619217821
  endloop
endfacet
facet normal 0.0 0.08249807841346847 -0.9965912236509438
  outer loop
    vertex 1744.9563326833404 1403.9045917120109 107.99999999999994
    vertex 1747.9563326833397 1405.7226120489943 108.15049619217821
    vertex 1747.9563326833397 1403.9045917120109 107.99999999999994
  endloop
endfacet
facet normal 0.0 0.24524832968283286 -0.96946029149614
  outer loop
    vertex 1747.9563326833397 1407.4911390879697 108.59788770074454
    vertex 1744.9563326833404 1405.7226120489943 108.15049619217821
    vertex 1744.9563326833404 1407.4911390879697 108.59788770074454
  endloop
endfacet
facet normal 0.0 0.24524832968283286 -0.96946029149614
  outer loop
    vertex 1744.9563326833404 1405.7226120489943 108.15049619217821
    vertex 1747.9563326833397 1407.4911390879697 108.59788770074454
    vertex 1747.9563326833397 1405.7226120489943 108.15049619217821
  endloop
endfacet
facet normal 0.0 0.40132200620730235 -0.9159370324065658
  outer loop
    vertex 1747.9563326833397 1409.1620269232142 109.32999485927465
    vertex 1744.9563326833404 1407.4911390879697 108.59788770074454
    vertex 1744.9563326833404 1409.1620269232142 109.32999485927465
  endloop
endfacet
facet normal 0.0 0.40132200620730235 -0.9159370324065658
  outer loop
    vertex 1744.9563326833404 1407.4911390879697 108.59788770074454
    vertex 1747.9563326833397 1409.1620269232142 109.32999485927465
    vertex 1747.9563326833397 1407.4911390879697 108.59788770074454
  endloop
endfacet
facet normal 0.0 0.5464702000830649 -0.8374785492304714
  outer loop
    vertex 1747.9563326833397 1410.6897877524823 110.3268869788595
    vertex 1744.9563326833404 1409.1620269232142 109.32999485927465
    vertex 1744.9563326833404 1410.6897877524823 110.3268869788595
  endloop
endfacet
facet normal 0.0 0.5464702000830649 -0.8374785492304714
  outer loop
    vertex 1744.9563326833404 1409.1620269232142 109.32999485927465
    vertex 1747.9563326833397 1410.6897877524823 110.3268869788595
    vertex 1747.9563326833397 1409.1620269232142 109.32999485927465
  endloop
endfacet
facet normal 0.0 0.6767414358118848 -0.7362207746697106
  outer loop
    vertex 1747.9563326833397 1412.0328302247563 111.56142493583427
    vertex 1744.9563326833404 1410.6897877524823 110.3268869788595
    vertex 1744.9563326833404 1412.0328302247563 111.56142493583427
  endloop
endfacet
facet normal 0.0 0.6767414358118848 -0.7362207746697106
  outer loop
    vertex 1744.9563326833404 1410.6897877524823 110.3268869788595
    vertex 1747.9563326833397 1412.0328302247563 111.56142493583427
    vertex 1747.9563326833397 1410.6897877524823 110.3268869788595
  endloop
endfacet
facet normal 0.0 0.7885892442176285 -0.6149203232161625
  outer loop
    vertex 1744.9563326833404 1413.1545917120131 113.00000000000126
    vertex 1747.9563326833397 1412.0328302247563 111.56142493583427
    vertex 1744.9563326833404 1412.0328302247563 111.56142493583427
  endloop
endfacet
facet normal 0.0 0.7885892442176285 -0.6149203232161625
  outer loop
    vertex 1747.9563326833397 1412.0328302247563 111.56142493583427
    vertex 1744.9563326833404 1413.1545917120131 113.00000000000126
    vertex 1747.9563326833397 1413.1545917120131 113.00000000000126
  endloop
endfacet
facet normal 1.0 0.0 0.0
  outer loop
    vertex 1747.9563326833397 1409.1545917120084 121.99999999999993
    vertex 1747.9563326833397 1398.6545917120193 160.00000000000014
    vertex 1747.9563326833397 1398.6545917120193 121.99999999999993
  endloop
endfacet
facet normal 1.0 0.0 0.0
  outer loop
    vertex 1747.9563326833397 1398.6545917120193 160.00000000000014
    vertex 1747.9563326833397 1409.1545917120084 121.99999999999993
    vertex 1747.9563326833397 1409.1545917120084 160.00000000000014
  endloop
endfacet
facet normal 1.0 0.0 0.0
  outer loop
    vertex 1760.9563326833397 1395.65459171202 118.99999999999994
    vertex 1760.9563326833397 1398.6545917120193 121.99999999999993
    vertex 1760.9563326833397 1395.65459171202 163.00000000000014
  endloop
endfacet
facet normal 1.0 0.0 0.0
  outer loop
    vertex 1760.9563326833397 1398.6545917120193 121.99999999999993
    vertex 1760.9563326833397 1395.65459171202 118.99999999999994
    vertex 1760.9563326833397 1412.1545917120077 118.99999999999994
  endloop
endfacet
facet normal 1.0 0.0 0.0
  outer loop
    vertex 1760.9563326833397 1398.6545917120193 121.99999999999993
    vertex 1760.9563326833397 1412.1545917120077 118.99999999999994
    vertex 1760.9563326833397 1409.1545917120084 121.99999999999993
  endloop
endfacet
facet normal 1.0 0.0 0.0
  outer loop
    vertex 1760.9563326833397 1409.1545917120084 121.99999999999993
    vertex 1760.9563326833397 1412.1545917120077 118.99999999999994
    vertex 1760.9563326833397 1409.1545917120084 160.00000000000014
  endloop
endfacet
facet normal 1.0 0.0 0.0
  outer loop
    vertex 1760.9563326833397 1395.65459171202 163.00000000000014
    vertex 1760.9563326833397 1398.6545917120193 160.00000000000014
    vertex 1760.9563326833397 1412.1545917120077 163.00000000000014
  endloop
endfacet
facet normal 1.0 0.0 0.0
  outer loop
    vertex 1760.9563326833397 1398.6545917120193 160.00000000000014
    vertex 1760.9563326833397 1395.65459171202 163.00000000000014
    vertex 1760.9563326833397 1398.6545917120193 121.99999999999993
  endloop
endfacet
facet normal 1.0 0.0 0.0
  outer loop
    vertex 1760.9563326833397 1412.1545917120077 163.00000000000014
    vertex 1760.9563326833397 1398.6545917120193 160.00000000000014
    vertex 1760.9563326833397 1409.1545917120084 160.00000000000014
  endloop
endfacet
facet normal 1.0 0.0 0.0
  outer loop
    vertex 1760.9563326833397 1412.1545917120077 163.00000000000014
    vertex 1760.9563326833397 1409.1545917120084 160.00000000000014
    vertex 1760.9563326833397 1412.1545917120077 118.99999999999994
  endloop
endfacet
facet normal 0.0 0.0 1.0
  outer loop
    vertex 1760.9563326833397 1395.65459171202 163.00000000000014
    vertex 1747.9563326833397 1412.1545917120077 163.00000000000014
    vertex 1747.9563326833397 1395.65459171202 163.00000000000014
  endloop
endfacet
facet normal 0.0 0.0 1.0
  outer loop
    vertex 1747.9563326833397 1412.1545917120077 163.00000000000014
    vertex 1760.9563326833397 1395.65459171202 163.00000000000014
    vertex 1760.9563326833397 1412.1545917120077 163.00000000000014
  endloop
endfacet
facet normal -0.0 -1.0 -0.0
  outer loop
    vertex 1760.9563326833397 1395.65459171202 163.00000000000014
    vertex 1747.9563326833397 1395.65459171202 118.99999999999994
    vertex 1760.9563326833397 1395.65459171202 118.99999999999994
  endloop
endfacet
facet normal -0.0 -1.0 -0.0
  outer loop
    vertex 1747.9563326833397 1395.65459171202 118.99999999999994
    vertex 1760.9563326833397 1395.65459171202 163.00000000000014
    vertex 1747.9563326833397 1395.65459171202 163.00000000000014
  endloop
endfacet
facet normal 0.0 0.0 -1.0
  outer loop
    vertex 1760.9563326833397 1412.1545917120077 118.99999999999994
    vertex 1747.9563326833397 1395.65459171202 118.99999999999994
    vertex 1747.9563326833397 1412.1545917120077 118.99999999999994
  endloop
endfacet
facet normal 0.0 0.0 -1.0
  outer loop
    vertex 1747.9563326833397 1395.65459171202 118.99999999999994
    vertex 1760.9563326833397 1412.1545917120077 118.99999999999994
    vertex 1760.9563326833397 1395.65459171202 118.99999999999994
  endloop
endfacet
facet normal 0.0 1.0 0.0
  outer loop
    vertex 1747.9563326833397 1412.1545917120077 163.00000000000014
    vertex 1760.9563326833397 1412.1545917120077 118.99999999999994
    vertex 1747.9563326833397 1412.1545917120077 118.99999999999994
  endloop
endfacet
facet normal 0.0 1.0 0.0
  outer loop
    vertex 1760.9563326833397 1412.1545917120077 118.99999999999994
    vertex 1747.9563326833397 1412.1545917120077 163.00000000000014
    vertex 1760.9563326833397 1412.1545917120077 163.00000000000014
  endloop
endfacet
facet normal 0.0 0.0 1.0
  outer loop
    vertex 1760.9563326833397 1398.6545917120193 121.99999999999993
    vertex 1747.9563326833397 1409.1545917120084 121.99999999999993
    vertex 1747.9563326833397 1398.6545917120193 121.99999999999993
  endloop
endfacet
facet normal 0.0 0.0 1.0
  outer loop
    vertex 1747.9563326833397 1409.1545917120084 121.99999999999993
    vertex 1760.9563326833397 1398.6545917120193 121.99999999999993
    vertex 1760.9563326833397 1409.1545917120084 121.99999999999993
  endloop
endfacet
facet normal 0.0 1.0 0.0
  outer loop
    vertex 1747.9563326833397 1398.6545917120193 160.00000000000014
    vertex 1760.9563326833397 1398.6545917120193 121.99999999999993
    vertex 1747.9563326833397 1398.6545917120193 121.99999999999993
  endloop
endfacet
facet normal 0.0 1.0 0.0
  outer loop
    vertex 1760.9563326833397 1398.6545917120193 121.99999999999993
    vertex 1747.9563326833397 1398.6545917120193 160.00000000000014
    vertex 1760.9563326833397 1398.6545917120193 160.00000000000014
  endloop
endfacet
facet normal 0.0 0.0 -1.0
  outer loop
    vertex 1760.9563326833397 1409.1545917120084 160.00000000000014
    vertex 1747.9563326833397 1398.6545917120193 160.00000000000014
    vertex 1747.9563326833397 1409.1545917120084 160.00000000000014
  endloop
endfacet
facet normal 0.0 0.0 -1.0
  outer loop
    vertex 1747.9563326833397 1398.6545917120193 160.00000000000014
    vertex 1760.9563326833397 1409.1545917120084 160.00000000000014
    vertex 1760.9563326833397 1398.6545917120193 160.00000000000014
  endloop
endfacet
facet normal -0.0 -1.0 -0.0
  outer loop
    vertex 1760.9563326833397 1409.1545917120084 160.00000000000014
    vertex 1747.9563326833397 1409.1545917120084 121.99999999999993
    vertex 1760.9563326833397 1409.1545917120084 121.99999999999993
  endloop
endfacet
facet normal -0.0 -1.0 -0.0
  outer loop
    vertex 1747.9563326833397 1409.1545917120084 121.99999999999993
    vertex 1760.9563326833397 1409.1545917120084 160.00000000000014
    vertex 1747.9563326833397 1409.1545917120084 160.00000000000014
  endloop
endfacet
endsolid [0008]
