solid Data logger Main v1
facet normal -1.1795883795840058e-14 -1.0 3.592732292071751e-15
  outer loop
    vertex 1923.9563326833384 1390.1545917120156 13.000000000000002
    vertex 1922.991866589271 1390.1545917120152 12.535533905928276
    vertex 1923.1710712536983 1390.1545917120156 12.301989840315409
  endloop
endfacet
facet normal -1.1795883795840058e-14 -1.0 3.592732292071751e-15
  outer loop
    vertex 1922.991866589271 1390.1545917120152 12.535533905928276
    vertex 1923.9563326833384 1390.1545917120156 13.000000000000002
    vertex 1921.9563326833381 1390.154591712015 13.330127018917722
  endloop
endfacet
facet normal -1.1795883795840058e-14 -1.0 3.592732292071751e-15
  outer loop
    vertex 1921.9563326833381 1390.154591712015 13.330127018917722
    vertex 1923.9563326833384 1390.1545917120156 13.000000000000002
    vertex 1923.9563326833384 1390.1545917120156 60.49999999999999
  endloop
endfacet
facet normal -1.1795883795840058e-14 -1.0 3.592732292071751e-15
  outer loop
    vertex 1921.9563326833381 1390.154591712015 13.330127018917722
    vertex 1923.9563326833384 1390.1545917120156 60.49999999999999
    vertex 1920.7504279088507 1390.154591712015 13.829629131440862
  endloop
endfacet
facet normal -1.1795883795840058e-14 -1.0 3.592732292071751e-15
  outer loop
    vertex 1920.7504279088507 1390.154591712015 13.829629131440862
    vertex 1923.9563326833384 1390.1545917120156 60.49999999999999
    vertex 1919.4563326833384 1390.1545917120152 13.999999999995518
  endloop
endfacet
facet normal -1.1795883795840058e-14 -1.0 3.592732292071751e-15
  outer loop
    vertex 1919.4563326833384 1390.1545917120152 13.999999999995518
    vertex 1923.9563326833384 1390.1545917120156 60.49999999999999
    vertex 1920.7504279088505 1390.1545917120159 59.67037086855458
  endloop
endfacet
facet normal -1.1795883795840058e-14 -1.0 3.592732292071751e-15
  outer loop
    vertex 1919.4563326833384 1390.1545917120152 13.999999999995518
    vertex 1920.7504279088505 1390.1545917120159 59.67037086855458
    vertex 1919.456332683338 1390.1545917120159 59.49999999999992
  endloop
endfacet
facet normal -1.1795883795840058e-14 -1.0 3.592732292071751e-15
  outer loop
    vertex 1920.7504279088505 1390.1545917120159 59.67037086855458
    vertex 1923.9563326833384 1390.1545917120156 60.49999999999999
    vertex 1921.9563326833381 1390.154591712016 60.169872981077724
  endloop
endfacet
facet normal -1.1795883795840058e-14 -1.0 3.592732292071751e-15
  outer loop
    vertex 1921.9563326833381 1390.154591712016 60.169872981077724
    vertex 1923.9563326833384 1390.1545917120156 60.49999999999999
    vertex 1922.9918665892708 1390.154591712016 60.96446609406717
  endloop
endfacet
facet normal -1.1795883795840058e-14 -1.0 3.592732292071751e-15
  outer loop
    vertex 1922.9918665892708 1390.154591712016 60.96446609406717
    vertex 1923.9563326833384 1390.1545917120156 60.49999999999999
    vertex 1923.171071253698 1390.154591712016 61.19801015968008
  endloop
endfacet
facet normal -1.1795883795840058e-14 -1.0 3.592732292071751e-15
  outer loop
    vertex 1914.6267035518931 1390.1545917120163 10.294095225508164
    vertex 1913.4563326833386 1390.1545917120156 9.000000000000002
    vertex 1914.4563326833384 1390.1545917120163 8.999999999995575
  endloop
endfacet
facet normal -1.1795883795840058e-14 -1.0 3.592732292071751e-15
  outer loop
    vertex 1913.4563326833386 1390.1545917120156 9.000000000000002
    vertex 1914.6267035518931 1390.1545917120163 10.294095225508164
    vertex 1913.3200359884945 1390.1545917120156 10.035276180410085
  endloop
endfacet
facet normal -1.1795883795840058e-14 -1.0 3.592732292071751e-15
  outer loop
    vertex 1913.3200359884945 1390.1545917120156 10.035276180410085
    vertex 1914.6267035518931 1390.1545917120163 10.294095225508164
    vertex 1912.9204342984763 1390.1545917120156 11.0
  endloop
endfacet
facet normal -1.1795883795840058e-14 -1.0 3.592732292071751e-15
  outer loop
    vertex 1912.9204342984763 1390.1545917120156 11.0
    vertex 1914.6267035518931 1390.1545917120163 10.294095225508164
    vertex 1915.126205664416 1390.1545917120159 11.499999999995547
  endloop
endfacet
facet normal -1.1795883795840058e-14 -1.0 3.592732292071751e-15
  outer loop
    vertex 1912.9204342984763 1390.1545917120156 11.0
    vertex 1915.126205664416 1390.1545917120159 11.499999999995547
    vertex 1912.2847598080843 1390.1545917120156 11.828427124746192
  endloop
endfacet
facet normal -1.1795883795840058e-14 -1.0 3.592732292071751e-15
  outer loop
    vertex 1912.2847598080843 1390.1545917120156 11.828427124746192
    vertex 1915.126205664416 1390.1545917120159 11.499999999995547
    vertex 1915.9207987774055 1390.1545917120156 12.535533905928274
  endloop
endfacet
facet normal -1.1795883795840058e-14 -1.0 3.592732292071751e-15
  outer loop
    vertex 1912.2847598080843 1390.1545917120156 11.828427124746192
    vertex 1915.9207987774055 1390.1545917120156 12.535533905928274
    vertex 1911.4563326833384 1390.1545917120156 12.464101615137753
  endloop
endfacet
facet normal -1.1795883795840058e-14 -1.0 3.592732292071751e-15
  outer loop
    vertex 1911.4563326833384 1390.1545917120156 12.464101615137753
    vertex 1915.9207987774055 1390.1545917120156 12.535533905928274
    vertex 1910.4916088637485 1390.1545917120156 12.863703305156275
  endloop
endfacet
facet normal -1.1795883795840058e-14 -1.0 3.592732292071751e-15
  outer loop
    vertex 1910.4916088637485 1390.1545917120156 12.863703305156275
    vertex 1915.9207987774055 1390.1545917120156 12.535533905928274
    vertex 1916.9563326833381 1390.1545917120154 13.330127018917718
  endloop
endfacet
facet normal -1.1795883795840058e-14 -1.0 3.592732292071751e-15
  outer loop
    vertex 1910.4916088637485 1390.1545917120156 12.863703305156275
    vertex 1916.9563326833381 1390.1545917120154 13.330127018917718
    vertex 1909.9563326833384 1390.1545917120156 12.934173751206318
  endloop
endfacet
facet normal -1.1795883795840058e-14 -1.0 3.592732292071751e-15
  outer loop
    vertex 1909.9563326833384 1390.1545917120156 12.934173751206318
    vertex 1916.9563326833381 1390.1545917120154 13.330127018917718
    vertex 1909.9563326833384 1390.1545917120159 60.56582624879379
  endloop
endfacet
facet normal -1.1795883795840058e-14 -1.0 3.592732292071751e-15
  outer loop
    vertex 1909.9563326833384 1390.1545917120159 60.56582624879379
    vertex 1916.9563326833381 1390.1545917120154 13.330127018917718
    vertex 1918.1622374578258 1390.1545917120152 13.82962913144086
  endloop
endfacet
facet normal -1.1795883795840058e-14 -1.0 3.592732292071751e-15
  outer loop
    vertex 1909.9563326833384 1390.1545917120159 60.56582624879379
    vertex 1918.1622374578258 1390.1545917120152 13.82962913144086
    vertex 1919.4563326833384 1390.1545917120152 13.999999999995518
  endloop
endfacet
facet normal -1.1795883795840058e-14 -1.0 3.592732292071751e-15
  outer loop
    vertex 1909.9563326833384 1390.1545917120159 60.56582624879379
    vertex 1919.4563326833384 1390.1545917120152 13.999999999995518
    vertex 1919.456332683338 1390.1545917120159 59.49999999999992
  endloop
endfacet
facet normal -1.1795883795840058e-14 -1.0 3.592732292071751e-15
  outer loop
    vertex 1909.9563326833384 1390.1545917120159 60.56582624879379
    vertex 1919.456332683338 1390.1545917120159 59.49999999999992
    vertex 1918.1622374578255 1390.1545917120159 59.67037086855458
  endloop
endfacet
facet normal -1.1795883795840058e-14 -1.0 3.592732292071751e-15
  outer loop
    vertex 1909.9563326833384 1390.1545917120159 60.56582624879379
    vertex 1918.1622374578255 1390.1545917120159 59.67037086855458
    vertex 1916.9563326833381 1390.1545917120159 60.169872981077724
  endloop
endfacet
facet normal -1.1795883795840058e-14 -1.0 3.592732292071751e-15
  outer loop
    vertex 1909.9563326833384 1390.1545917120159 60.56582624879379
    vertex 1916.9563326833381 1390.1545917120159 60.169872981077724
    vertex 1915.9207987774053 1390.1545917120156 60.96446609406717
  endloop
endfacet
facet normal -1.1795883795840058e-14 -1.0 3.592732292071751e-15
  outer loop
    vertex 1909.9563326833384 1390.1545917120159 60.56582624879379
    vertex 1915.9207987774053 1390.1545917120156 60.96446609406717
    vertex 1910.4916088637485 1390.1545917120159 60.636296694843715
  endloop
endfacet
facet normal -1.1795883795840058e-14 -1.0 3.592732292071751e-15
  outer loop
    vertex 1910.4916088637485 1390.1545917120159 60.636296694843715
    vertex 1915.9207987774053 1390.1545917120156 60.96446609406717
    vertex 1911.4563326833384 1390.1545917120159 61.035898384862236
  endloop
endfacet
facet normal -1.1795883795840058e-14 -1.0 3.592732292071751e-15
  outer loop
    vertex 1911.4563326833384 1390.1545917120159 61.035898384862236
    vertex 1915.9207987774053 1390.1545917120156 60.96446609406717
    vertex 1915.1262056644157 1390.1545917120156 61.9999999999999
  endloop
endfacet
facet normal -1.1795883795840058e-14 -1.0 3.592732292071751e-15
  outer loop
    vertex 1911.4563326833384 1390.1545917120159 61.035898384862236
    vertex 1915.1262056644157 1390.1545917120156 61.9999999999999
    vertex 1912.2847598080843 1390.1545917120159 61.671572875253794
  endloop
endfacet
facet normal -1.1795883795840058e-14 -1.0 3.592732292071751e-15
  outer loop
    vertex 1912.2847598080843 1390.1545917120159 61.671572875253794
    vertex 1915.1262056644157 1390.1545917120156 61.9999999999999
    vertex 1912.9204342984763 1390.1545917120156 62.499999999999986
  endloop
endfacet
facet normal -1.1795883795840058e-14 -1.0 3.592732292071751e-15
  outer loop
    vertex 1912.9204342984763 1390.1545917120156 62.499999999999986
    vertex 1915.1262056644157 1390.1545917120156 61.9999999999999
    vertex 1914.6267035518927 1390.1545917120154 63.20590477448728
  endloop
endfacet
facet normal -1.1795883795840058e-14 -1.0 3.592732292071751e-15
  outer loop
    vertex 1912.9204342984763 1390.1545917120156 62.499999999999986
    vertex 1914.6267035518927 1390.1545917120154 63.20590477448728
    vertex 1913.3200359884945 1390.1545917120156 63.46472381958991
  endloop
endfacet
facet normal -1.1795883795840058e-14 -1.0 3.592732292071751e-15
  outer loop
    vertex 1913.3200359884945 1390.1545917120156 63.46472381958991
    vertex 1914.6267035518927 1390.1545917120154 63.20590477448728
    vertex 1914.456332683338 1390.1545917120154 64.49999999999987
  endloop
endfacet
facet normal -1.1795883795840058e-14 -1.0 3.592732292071751e-15
  outer loop
    vertex 1913.3200359884945 1390.1545917120156 63.46472381958991
    vertex 1914.456332683338 1390.1545917120154 64.49999999999987
    vertex 1913.4563326833386 1390.1545917120156 64.5
  endloop
endfacet
facet normal -1.0 7.519910620127552e-14 -1.804778548830858e-13
  outer loop
    vertex 1897.4563326833365 1402.7545917120187 20.56623533472288
    vertex 1897.4563326833384 1414.1545917120159 12.99999999999981
    vertex 1897.4563326833386 1402.7545917120156 12.99999999999934
  endloop
endfacet
facet normal -1.0 7.519910620127552e-14 -1.804778548830858e-13
  outer loop
    vertex 1897.4563326833384 1414.1545917120159 12.99999999999981
    vertex 1897.4563326833365 1402.7545917120187 20.56623533472288
    vertex 1897.4563326833384 1414.1545917120159 20.56623533472335
  endloop
endfacet
facet normal 5.221371902277512e-14 1.0 -1.9940284185346839e-13
  outer loop
    vertex 1901.9563326833384 1414.1545917120152 50.49999999999973
    vertex 1923.956332683338 1414.1545917120118 32.80903533472306
    vertex 1901.956332683338 1414.1545917120152 32.80903533472279
  endloop
endfacet
facet normal 5.221371902277512e-14 1.0 -1.9940284185346839e-13
  outer loop
    vertex 1923.956332683338 1414.1545917120118 32.80903533472306
    vertex 1901.9563326833384 1414.1545917120152 50.49999999999973
    vertex 1923.9563326833384 1414.1545917120159 50.5
  endloop
endfacet
facet normal 2.6277094386920407e-14 3.3716486851966126e-14 1.0
  outer loop
    vertex 1909.9563326833384 1402.7545917120153 50.50000000000117
    vertex 1901.9563326833384 1414.1545917120152 50.49999999999973
    vertex 1901.9563326833384 1402.7545917120149 50.5000000000009
  endloop
endfacet
facet normal 2.6277094386920407e-14 3.3716486851966126e-14 1.0
  outer loop
    vertex 1901.9563326833384 1414.1545917120152 50.49999999999973
    vertex 1909.9563326833384 1402.7545917120153 50.50000000000117
    vertex 1923.9563326833384 1414.1545917120159 50.5
  endloop
endfacet
facet normal 2.6277094386920407e-14 3.3716486851966126e-14 1.0
  outer loop
    vertex 1923.9563326833384 1414.1545917120159 50.5
    vertex 1909.9563326833384 1402.7545917120153 50.50000000000117
    vertex 1923.9563326833384 1402.7545917120156 50.5
  endloop
endfacet
facet normal -3.341390464543283e-18 -6.518031815898045e-17 1.0
  outer loop
    vertex 1923.9563326833363 1400.7545917120146 20.56623533472354
    vertex 1909.9563326833386 1402.7545917120162 20.566235334722876
    vertex 1909.9563326833384 1400.7545917120162 20.56623533472354
  endloop
endfacet
facet normal -3.341390464543283e-18 -6.518031815898045e-17 1.0
  outer loop
    vertex 1909.9563326833386 1402.7545917120162 20.566235334722876
    vertex 1897.4563326833384 1414.1545917120159 20.56623533472335
    vertex 1897.4563326833365 1402.7545917120187 20.56623533472288
  endloop
endfacet
facet normal -3.341390464543283e-18 -6.518031815898045e-17 1.0
  outer loop
    vertex 1897.4563326833384 1414.1545917120159 20.56623533472335
    vertex 1909.9563326833386 1402.7545917120162 20.566235334722876
    vertex 1923.9563326833384 1414.1545917120118 20.56623533472335
  endloop
endfacet
facet normal -3.341390464543283e-18 -6.518031815898045e-17 1.0
  outer loop
    vertex 1923.9563326833384 1414.1545917120118 20.56623533472335
    vertex 1909.9563326833386 1402.7545917120162 20.566235334722876
    vertex 1923.9563326833363 1400.7545917120146 20.56623533472354
  endloop
endfacet
facet normal 6.6827809290865634e-18 1.303606363179609e-16 -1.0
  outer loop
    vertex 1901.956332683338 1414.1545917120152 32.80903533472279
    vertex 1909.956332683339 1402.7545917120162 32.809035334723475
    vertex 1901.9563326833368 1402.7545917120183 32.809035334723205
  endloop
endfacet
facet normal 6.6827809290865634e-18 1.303606363179609e-16 -1.0
  outer loop
    vertex 1909.956332683339 1402.7545917120162 32.809035334723475
    vertex 1901.956332683338 1414.1545917120152 32.80903533472279
    vertex 1923.956332683338 1414.1545917120118 32.80903533472306
  endloop
endfacet
facet normal 6.6827809290865634e-18 1.303606363179609e-16 -1.0
  outer loop
    vertex 1909.956332683339 1402.7545917120162 32.809035334723475
    vertex 1923.956332683338 1414.1545917120118 32.80903533472306
    vertex 1923.9563326833363 1400.7545917120146 32.80903533472364
  endloop
endfacet
facet normal 6.6827809290865634e-18 1.303606363179609e-16 -1.0
  outer loop
    vertex 1923.9563326833363 1400.7545917120146 32.80903533472364
    vertex 1909.9563326833384 1400.7545917120162 32.809035334723625
    vertex 1909.956332683339 1402.7545917120162 32.809035334723475
  endloop
endfacet
facet normal 1.1202073751364394e-13 1.0 1.9692263767921316e-30
  outer loop
    vertex 1909.9563326833384 1400.7545917120162 32.809035334723625
    vertex 1923.9563326833363 1400.7545917120146 20.56623533472354
    vertex 1909.9563326833384 1400.7545917120162 20.56623533472354
  endloop
endfacet
facet normal 1.1202073751364394e-13 1.0 1.9692263767921316e-30
  outer loop
    vertex 1923.9563326833363 1400.7545917120146 20.56623533472354
    vertex 1909.9563326833384 1400.7545917120162 32.809035334723625
    vertex 1923.9563326833363 1400.7545917120146 32.80903533472364
  endloop
endfacet
facet normal -1.0 1.0554260519481458e-13 6.022625484300748e-14
  outer loop
    vertex 1901.9563326833384 1414.1545917120152 50.49999999999973
    vertex 1901.9563326833359 1402.7545917120194 38.000000000012776
    vertex 1901.9563326833384 1402.7545917120149 50.5000000000009
  endloop
endfacet
facet normal -1.0 1.0554260519481458e-13 6.022625484300748e-14
  outer loop
    vertex 1901.9563326833359 1402.7545917120194 38.000000000012776
    vertex 1901.956332683338 1414.1545917120152 32.80903533472279
    vertex 1901.9563326833368 1402.7545917120183 32.809035334723205
  endloop
endfacet
facet normal -1.0 1.0554260519481458e-13 6.022625484300748e-14
  outer loop
    vertex 1901.956332683338 1414.1545917120152 32.80903533472279
    vertex 1901.9563326833359 1402.7545917120194 38.000000000012776
    vertex 1901.9563326833384 1414.1545917120152 50.49999999999973
  endloop
endfacet
facet normal 2.7612171808281533e-14 2.6721456588660158e-14 -1.0
  outer loop
    vertex 1909.4563326833384 1414.1545917120154 12.99999999999981
    vertex 1897.4563326833386 1402.7545917120156 12.99999999999934
    vertex 1897.4563326833384 1414.1545917120159 12.99999999999981
  endloop
endfacet
facet normal 2.7612171808281533e-14 2.6721456588660158e-14 -1.0
  outer loop
    vertex 1897.4563326833386 1402.7545917120156 12.99999999999934
    vertex 1909.4563326833384 1414.1545917120154 12.99999999999981
    vertex 1909.4563326833384 1402.7545917120156 13.000000000000002
  endloop
endfacet
facet normal 0.664363838831185 6.61812048309963e-14 -0.747409318682535
  outer loop
    vertex 1923.9563326833384 1414.1545917120159 12.99999999999981
    vertex 1923.1710712536983 1390.1545917120156 12.301989840315409
    vertex 1923.1710712536983 1414.1545917120152 12.301989840319644
  endloop
endfacet
facet normal 0.664363838831185 6.61812048309963e-14 -0.747409318682535
  outer loop
    vertex 1923.1710712536983 1390.1545917120156 12.301989840315409
    vertex 1923.9563326833384 1414.1545917120159 12.99999999999981
    vertex 1923.9563326833384 1390.1545917120156 13.000000000000002
  endloop
endfacet
facet normal -2.213673688800651e-12 8.854694755200495e-14 -1.0
  outer loop
    vertex 1914.4563326833384 1414.1545917120159 8.999999999999808
    vertex 1913.4563326833386 1390.1545917120156 9.000000000000002
    vertex 1913.4563326833386 1414.1545917120154 8.999999999999808
  endloop
endfacet
facet normal -2.213673688800651e-12 8.854694755200495e-14 -1.0
  outer loop
    vertex 1913.4563326833386 1390.1545917120156 9.000000000000002
    vertex 1914.4563326833384 1414.1545917120159 8.999999999999808
    vertex 1914.4563326833384 1390.1545917120163 8.999999999995575
  endloop
endfacet
facet normal -0.9914448613737741 0.0 -0.13052619222032788
  outer loop
    vertex 1913.3200359884945 1414.1545917120154 10.035276180409891
    vertex 1913.4563326833386 1390.1545917120156 9.000000000000002
    vertex 1913.3200359884945 1390.1545917120156 10.035276180410085
  endloop
endfacet
facet normal -0.9914448613737741 0.0 -0.13052619222032788
  outer loop
    vertex 1913.4563326833386 1390.1545917120156 9.000000000000002
    vertex 1913.3200359884945 1414.1545917120154 10.035276180409891
    vertex 1913.4563326833386 1414.1545917120154 8.999999999999808
  endloop
endfacet
facet normal -0.9238795325113814 -0.0 -0.3826834323648613
  outer loop
    vertex 1912.9204342984763 1414.1545917120154 10.999999999999806
    vertex 1913.3200359884945 1390.1545917120156 10.035276180410085
    vertex 1912.9204342984763 1390.1545917120156 11.0
  endloop
endfacet
facet normal -0.9238795325113814 -0.0 -0.3826834323648613
  outer loop
    vertex 1913.3200359884945 1390.1545917120156 10.035276180410085
    vertex 1912.9204342984763 1414.1545917120154 10.999999999999806
    vertex 1913.3200359884945 1414.1545917120154 10.035276180409891
  endloop
endfacet
facet normal -0.7933533402910817 -0.0 -0.6087614290089206
  outer loop
    vertex 1912.2847598080843 1414.1545917120154 11.828427124745998
    vertex 1912.9204342984763 1390.1545917120156 11.0
    vertex 1912.2847598080843 1390.1545917120156 11.828427124746192
  endloop
endfacet
facet normal -0.7933533402910817 -0.0 -0.6087614290089206
  outer loop
    vertex 1912.9204342984763 1390.1545917120156 11.0
    vertex 1912.2847598080843 1414.1545917120154 11.828427124745998
    vertex 1912.9204342984763 1414.1545917120154 10.999999999999806
  endloop
endfacet
facet normal -0.6087614290087562 -0.0 -0.793353340291208
  outer loop
    vertex 1912.2847598080843 1414.1545917120154 11.828427124745998
    vertex 1911.4563326833384 1390.1545917120156 12.464101615137753
    vertex 1911.4563326833384 1414.1545917120154 12.464101615137562
  endloop
endfacet
facet normal -0.6087614290087562 -0.0 -0.793353340291208
  outer loop
    vertex 1911.4563326833384 1390.1545917120156 12.464101615137753
    vertex 1912.2847598080843 1414.1545917120154 11.828427124745998
    vertex 1912.2847598080843 1390.1545917120156 11.828427124746192
  endloop
endfacet
facet normal -0.38268343236514096 -0.0 -0.9238795325112655
  outer loop
    vertex 1911.4563326833384 1414.1545917120154 12.464101615137562
    vertex 1910.4916088637485 1390.1545917120156 12.863703305156275
    vertex 1910.4916088637485 1414.1545917120154 12.863703305156083
  endloop
endfacet
facet normal -0.38268343236514096 -0.0 -0.9238795325112655
  outer loop
    vertex 1910.4916088637485 1390.1545917120156 12.863703305156275
    vertex 1911.4563326833384 1414.1545917120154 12.464101615137562
    vertex 1911.4563326833384 1390.1545917120156 12.464101615137753
  endloop
endfacet
facet normal -0.1305261922200445 9.703022862396439e-17 -0.9914448613738114
  outer loop
    vertex 1910.4916088637485 1414.1545917120154 12.863703305156083
    vertex 1909.4563326833384 1402.7545917120156 13.000000000000002
    vertex 1909.4563326833384 1414.1545917120154 12.99999999999981
  endloop
endfacet
facet normal -0.1305261922200445 9.703022862396439e-17 -0.9914448613738114
  outer loop
    vertex 1909.4563326833384 1402.7545917120156 13.000000000000002
    vertex 1910.4916088637485 1414.1545917120154 12.863703305156083
    vertex 1909.9563326833384 1402.7545917120156 12.934173751206318
  endloop
endfacet
facet normal -0.1305261922200445 9.703022862396439e-17 -0.9914448613738114
  outer loop
    vertex 1909.9563326833384 1402.7545917120156 12.934173751206318
    vertex 1910.4916088637485 1414.1545917120154 12.863703305156083
    vertex 1909.9563326833384 1390.1545917120156 12.934173751206318
  endloop
endfacet
facet normal -0.1305261922200445 9.703022862396439e-17 -0.9914448613738114
  outer loop
    vertex 1909.9563326833384 1390.1545917120156 12.934173751206318
    vertex 1910.4916088637485 1414.1545917120154 12.863703305156083
    vertex 1910.4916088637485 1390.1545917120156 12.863703305156275
  endloop
endfacet
facet normal -0.6643638388298951 1.2723325775044615e-14 -0.7474093186836817
  outer loop
    vertex 1923.9563326833384 1400.7545917120156 60.49999999999999
    vertex 1923.171071253698 1390.154591712016 61.19801015968008
    vertex 1923.171071253698 1400.7545917120153 61.19801015968044
  endloop
endfacet
facet normal -0.6643638388298951 1.2723325775044615e-14 -0.7474093186836817
  outer loop
    vertex 1923.171071253698 1390.154591712016 61.19801015968008
    vertex 1923.9563326833384 1400.7545917120156 60.49999999999999
    vertex 1923.9563326833384 1390.1545917120156 60.49999999999999
  endloop
endfacet
facet normal -6.203926261606275e-14 2.8199664825480008e-14 -1.0
  outer loop
    vertex 1914.456332683338 1400.7545917120146 64.50000000000023
    vertex 1913.4563326833386 1390.1545917120156 64.5
    vertex 1913.4563326833381 1400.7545917120149 64.50000000000023
  endloop
endfacet
facet normal -6.203926261606275e-14 2.8199664825480008e-14 -1.0
  outer loop
    vertex 1913.4563326833386 1390.1545917120156 64.5
    vertex 1914.456332683338 1400.7545917120146 64.50000000000023
    vertex 1914.456332683338 1390.1545917120154 64.49999999999987
  endloop
endfacet
facet normal 0.9914448613737741 3.667898100773729e-14 -0.1305261922203282
  outer loop
    vertex 1913.3200359884943 1400.7545917120149 63.464723819590155
    vertex 1913.4563326833386 1390.1545917120156 64.5
    vertex 1913.3200359884945 1390.1545917120156 63.46472381958991
  endloop
endfacet
facet normal 0.9914448613737741 3.667898100773729e-14 -0.1305261922203282
  outer loop
    vertex 1913.4563326833386 1390.1545917120156 64.5
    vertex 1913.3200359884943 1400.7545917120149 63.464723819590155
    vertex 1913.4563326833381 1400.7545917120149 64.50000000000023
  endloop
endfacet
facet normal 0.9238795325113832 -7.387993061347907e-15 -0.38268343236485697
  outer loop
    vertex 1912.920434298476 1400.7545917120149 62.50000000000023
    vertex 1913.3200359884945 1390.1545917120156 63.46472381958991
    vertex 1912.9204342984763 1390.1545917120156 62.499999999999986
  endloop
endfacet
facet normal 0.9238795325113832 -7.387993061347907e-15 -0.38268343236485697
  outer loop
    vertex 1913.3200359884945 1390.1545917120156 63.46472381958991
    vertex 1912.920434298476 1400.7545917120149 62.50000000000023
    vertex 1913.3200359884943 1400.7545917120149 63.464723819590155
  endloop
endfacet
facet normal 0.7933533402910808 -1.512333040719857e-15 -0.6087614290089219
  outer loop
    vertex 1912.2847598080843 1390.1545917120159 61.671572875253794
    vertex 1912.920434298476 1400.7545917120149 62.50000000000023
    vertex 1912.9204342984763 1390.1545917120156 62.499999999999986
  endloop
endfacet
facet normal 0.7933533402910808 -1.512333040719857e-15 -0.6087614290089219
  outer loop
    vertex 1912.920434298476 1400.7545917120149 62.50000000000023
    vertex 1912.2847598080843 1390.1545917120159 61.671572875253794
    vertex 1912.2847598080841 1400.754591712015 61.671572875254036
  endloop
endfacet
facet normal 0.6087614290087544 4.4663899773670785e-15 -0.7933533402912093
  outer loop
    vertex 1912.2847598080841 1400.754591712015 61.671572875254036
    vertex 1911.4563326833384 1390.1545917120159 61.035898384862236
    vertex 1911.456332683338 1400.754591712015 61.03589838486248
  endloop
endfacet
facet normal 0.6087614290087544 4.4663899773670785e-15 -0.7933533402912093
  outer loop
    vertex 1911.4563326833384 1390.1545917120159 61.035898384862236
    vertex 1912.2847598080841 1400.754591712015 61.671572875254036
    vertex 1912.2847598080843 1390.1545917120159 61.671572875253794
  endloop
endfacet
facet normal 0.38268343236514096 1.0140735899561393e-14 -0.9238795325112655
  outer loop
    vertex 1911.456332683338 1400.754591712015 61.03589838486248
    vertex 1910.4916088637485 1390.1545917120159 60.636296694843715
    vertex 1910.4916088637483 1400.754591712015 60.636296694843956
  endloop
endfacet
facet normal 0.38268343236514096 1.0140735899561393e-14 -0.9238795325112655
  outer loop
    vertex 1910.4916088637485 1390.1545917120159 60.636296694843715
    vertex 1911.456332683338 1400.754591712015 61.03589838486248
    vertex 1911.4563326833384 1390.1545917120159 61.035898384862236
  endloop
endfacet
facet normal 0.13052619222008013 1.3300084461024703e-14 -0.9914448613738068
  outer loop
    vertex 1910.4916088637483 1400.754591712015 60.636296694843956
    vertex 1909.9563326833384 1390.1545917120159 60.56582624879379
    vertex 1909.9563326833384 1400.7545917120156 60.56582624879379
  endloop
endfacet
facet normal 0.13052619222008013 1.3300084461024703e-14 -0.9914448613738068
  outer loop
    vertex 1909.9563326833384 1390.1545917120159 60.56582624879379
    vertex 1910.4916088637483 1400.754591712015 60.636296694843956
    vertex 1910.4916088637485 1390.1545917120159 60.636296694843715
  endloop
endfacet
facet normal -1.8047785488312822e-13 -1.0 -1.8047785488309444e-13
  outer loop
    vertex 1909.9563326833384 1402.7545917120153 50.50000000000117
    vertex 1901.9563326833359 1402.7545917120194 38.000000000012776
    vertex 1909.9563326833386 1402.7545917120153 38.00000000000426
  endloop
endfacet
facet normal -1.8047785488312822e-13 -1.0 -1.8047785488309444e-13
  outer loop
    vertex 1901.9563326833359 1402.7545917120194 38.000000000012776
    vertex 1909.9563326833384 1402.7545917120153 50.50000000000117
    vertex 1901.9563326833384 1402.7545917120149 50.5000000000009
  endloop
endfacet
facet normal -2.8154545361752037e-13 -1.0 1.738384544314984e-14
  outer loop
    vertex 1909.956332683339 1402.7545917120162 32.809035334723475
    vertex 1901.9563326833359 1402.7545917120194 38.000000000012776
    vertex 1901.9563326833368 1402.7545917120183 32.809035334723205
  endloop
endfacet
facet normal -2.8154545361752037e-13 -1.0 1.738384544314984e-14
  outer loop
    vertex 1901.9563326833359 1402.7545917120194 38.000000000012776
    vertex 1909.956332683339 1402.7545917120162 32.809035334723475
    vertex 1909.9563326833386 1402.7545917120153 38.00000000000426
  endloop
endfacet
facet normal 7.541994050533605e-14 1.0 1.9267834725072443e-13
  outer loop
    vertex 1897.4563326833384 1414.1545917120159 20.56623533472335
    vertex 1909.4563326833384 1414.1545917120154 12.99999999999981
    vertex 1897.4563326833384 1414.1545917120159 12.99999999999981
  endloop
endfacet
facet normal 7.541994050533605e-14 1.0 1.9267834725072443e-13
  outer loop
    vertex 1909.4563326833384 1414.1545917120154 12.99999999999981
    vertex 1897.4563326833384 1414.1545917120159 20.56623533472335
    vertex 1916.9563326833381 1414.1545917120147 13.330127018921957
  endloop
endfacet
facet normal 7.541994050533605e-14 1.0 1.9267834725072443e-13
  outer loop
    vertex 1916.9563326833381 1414.1545917120147 13.330127018921957
    vertex 1897.4563326833384 1414.1545917120159 20.56623533472335
    vertex 1918.1622374578258 1414.1545917120145 13.829629131445099
  endloop
endfacet
facet normal 7.541994050533605e-14 1.0 1.9267834725072443e-13
  outer loop
    vertex 1918.1622374578258 1414.1545917120145 13.829629131445099
    vertex 1897.4563326833384 1414.1545917120159 20.56623533472335
    vertex 1919.4563326833384 1414.1545917120145 13.999999999999757
  endloop
endfacet
facet normal 7.541994050533605e-14 1.0 1.9267834725072443e-13
  outer loop
    vertex 1922.991866589271 1414.1545917120145 12.53553390593251
    vertex 1923.9563326833384 1414.1545917120159 12.99999999999981
    vertex 1923.1710712536983 1414.1545917120152 12.301989840319644
  endloop
endfacet
facet normal 7.541994050533605e-14 1.0 1.9267834725072443e-13
  outer loop
    vertex 1923.9563326833384 1414.1545917120159 12.99999999999981
    vertex 1922.991866589271 1414.1545917120145 12.53553390593251
    vertex 1921.9563326833381 1414.1545917120143 13.33012701892196
  endloop
endfacet
facet normal 7.541994050533605e-14 1.0 1.9267834725072443e-13
  outer loop
    vertex 1923.9563326833384 1414.1545917120159 12.99999999999981
    vertex 1921.9563326833381 1414.1545917120143 13.33012701892196
    vertex 1923.9563326833384 1414.1545917120118 20.56623533472335
  endloop
endfacet
facet normal 7.541994050533605e-14 1.0 1.9267834725072443e-13
  outer loop
    vertex 1923.9563326833384 1414.1545917120118 20.56623533472335
    vertex 1921.9563326833381 1414.1545917120143 13.33012701892196
    vertex 1920.7504279088507 1414.1545917120143 13.8296291314451
  endloop
endfacet
facet normal 7.541994050533605e-14 1.0 1.9267834725072443e-13
  outer loop
    vertex 1923.9563326833384 1414.1545917120118 20.56623533472335
    vertex 1920.7504279088507 1414.1545917120143 13.8296291314451
    vertex 1919.4563326833384 1414.1545917120145 13.999999999999757
  endloop
endfacet
facet normal 7.541994050533605e-14 1.0 1.9267834725072443e-13
  outer loop
    vertex 1923.9563326833384 1414.1545917120118 20.56623533472335
    vertex 1919.4563326833384 1414.1545917120145 13.999999999999757
    vertex 1897.4563326833384 1414.1545917120159 20.56623533472335
  endloop
endfacet
facet normal 7.541994050533605e-14 1.0 1.9267834725072443e-13
  outer loop
    vertex 1913.3200359884945 1414.1545917120154 10.035276180409891
    vertex 1914.4563326833384 1414.1545917120159 8.999999999999808
    vertex 1913.4563326833386 1414.1545917120154 8.999999999999808
  endloop
endfacet
facet normal 7.541994050533605e-14 1.0 1.9267834725072443e-13
  outer loop
    vertex 1914.4563326833384 1414.1545917120159 8.999999999999808
    vertex 1913.3200359884945 1414.1545917120154 10.035276180409891
    vertex 1914.6267035518931 1414.1545917120156 10.294095225512399
  endloop
endfacet
facet normal 7.541994050533605e-14 1.0 1.9267834725072443e-13
  outer loop
    vertex 1914.6267035518931 1414.1545917120156 10.294095225512399
    vertex 1913.3200359884945 1414.1545917120154 10.035276180409891
    vertex 1912.9204342984763 1414.1545917120154 10.999999999999806
  endloop
endfacet
facet normal 7.541994050533605e-14 1.0 1.9267834725072443e-13
  outer loop
    vertex 1914.6267035518931 1414.1545917120156 10.294095225512399
    vertex 1912.9204342984763 1414.1545917120154 10.999999999999806
    vertex 1915.126205664416 1414.1545917120152 11.499999999999782
  endloop
endfacet
facet normal 7.541994050533605e-14 1.0 1.9267834725072443e-13
  outer loop
    vertex 1915.126205664416 1414.1545917120152 11.499999999999782
    vertex 1912.9204342984763 1414.1545917120154 10.999999999999806
    vertex 1912.2847598080843 1414.1545917120154 11.828427124745998
  endloop
endfacet
facet normal 7.541994050533605e-14 1.0 1.9267834725072443e-13
  outer loop
    vertex 1915.126205664416 1414.1545917120152 11.499999999999782
    vertex 1912.2847598080843 1414.1545917120154 11.828427124745998
    vertex 1915.9207987774055 1414.1545917120152 12.535533905932509
  endloop
endfacet
facet normal 7.541994050533605e-14 1.0 1.9267834725072443e-13
  outer loop
    vertex 1915.9207987774055 1414.1545917120152 12.535533905932509
    vertex 1912.2847598080843 1414.1545917120154 11.828427124745998
    vertex 1911.4563326833384 1414.1545917120154 12.464101615137562
  endloop
endfacet
facet normal 7.541994050533605e-14 1.0 1.9267834725072443e-13
  outer loop
    vertex 1915.9207987774055 1414.1545917120152 12.535533905932509
    vertex 1911.4563326833384 1414.1545917120154 12.464101615137562
    vertex 1910.4916088637485 1414.1545917120154 12.863703305156083
  endloop
endfacet
facet normal 7.541994050533605e-14 1.0 1.9267834725072443e-13
  outer loop
    vertex 1915.9207987774055 1414.1545917120152 12.535533905932509
    vertex 1910.4916088637485 1414.1545917120154 12.863703305156083
    vertex 1916.9563326833381 1414.1545917120147 13.330127018921957
  endloop
endfacet
facet normal 7.541994050533605e-14 1.0 1.9267834725072443e-13
  outer loop
    vertex 1916.9563326833381 1414.1545917120147 13.330127018921957
    vertex 1910.4916088637485 1414.1545917120154 12.863703305156083
    vertex 1909.4563326833384 1414.1545917120154 12.99999999999981
  endloop
endfacet
facet normal -4.126940728573649e-15 1.0 4.234545786518668e-14
  outer loop
    vertex 1909.9563326833384 1400.7545917120156 60.56582624879379
    vertex 1923.9563326833384 1400.7545917120156 52.49999999999999
    vertex 1909.9563326833384 1400.7545917120156 52.49999999999999
  endloop
endfacet
facet normal -4.126940728573649e-15 1.0 4.234545786518668e-14
  outer loop
    vertex 1923.9563326833384 1400.7545917120156 52.49999999999999
    vertex 1909.9563326833384 1400.7545917120156 60.56582624879379
    vertex 1919.456332683338 1400.754591712015 59.500000000000284
  endloop
endfacet
facet normal -4.126940728573649e-15 1.0 4.234545786518668e-14
  outer loop
    vertex 1919.456332683338 1400.754591712015 59.500000000000284
    vertex 1909.9563326833384 1400.7545917120156 60.56582624879379
    vertex 1918.1622374578255 1400.754591712015 59.67037086855494
  endloop
endfacet
facet normal -4.126940728573649e-15 1.0 4.234545786518668e-14
  outer loop
    vertex 1918.1622374578255 1400.754591712015 59.67037086855494
    vertex 1909.9563326833384 1400.7545917120156 60.56582624879379
    vertex 1916.9563326833381 1400.754591712015 60.169872981078086
  endloop
endfacet
facet normal -4.126940728573649e-15 1.0 4.234545786518668e-14
  outer loop
    vertex 1916.9563326833381 1400.754591712015 60.169872981078086
    vertex 1909.9563326833384 1400.7545917120156 60.56582624879379
    vertex 1915.9207987774053 1400.7545917120149 60.96446609406753
  endloop
endfacet
facet normal -4.126940728573649e-15 1.0 4.234545786518668e-14
  outer loop
    vertex 1915.9207987774053 1400.7545917120149 60.96446609406753
    vertex 1909.9563326833384 1400.7545917120156 60.56582624879379
    vertex 1910.4916088637483 1400.754591712015 60.636296694843956
  endloop
endfacet
facet normal -4.126940728573649e-15 1.0 4.234545786518668e-14
  outer loop
    vertex 1915.9207987774053 1400.7545917120149 60.96446609406753
    vertex 1910.4916088637483 1400.754591712015 60.636296694843956
    vertex 1911.456332683338 1400.754591712015 61.03589838486248
  endloop
endfacet
facet normal -4.126940728573649e-15 1.0 4.234545786518668e-14
  outer loop
    vertex 1915.9207987774053 1400.7545917120149 60.96446609406753
    vertex 1911.456332683338 1400.754591712015 61.03589838486248
    vertex 1915.1262056644157 1400.7545917120149 62.000000000000256
  endloop
endfacet
facet normal -4.126940728573649e-15 1.0 4.234545786518668e-14
  outer loop
    vertex 1915.1262056644157 1400.7545917120149 62.000000000000256
    vertex 1911.456332683338 1400.754591712015 61.03589838486248
    vertex 1912.2847598080841 1400.754591712015 61.671572875254036
  endloop
endfacet
facet normal -4.126940728573649e-15 1.0 4.234545786518668e-14
  outer loop
    vertex 1915.1262056644157 1400.7545917120149 62.000000000000256
    vertex 1912.2847598080841 1400.754591712015 61.671572875254036
    vertex 1912.920434298476 1400.7545917120149 62.50000000000023
  endloop
endfacet
facet normal -4.126940728573649e-15 1.0 4.234545786518668e-14
  outer loop
    vertex 1915.1262056644157 1400.7545917120149 62.000000000000256
    vertex 1912.920434298476 1400.7545917120149 62.50000000000023
    vertex 1914.6267035518927 1400.7545917120146 63.20590477448764
  endloop
endfacet
facet normal -4.126940728573649e-15 1.0 4.234545786518668e-14
  outer loop
    vertex 1914.6267035518927 1400.7545917120146 63.20590477448764
    vertex 1912.920434298476 1400.7545917120149 62.50000000000023
    vertex 1913.3200359884943 1400.7545917120149 63.464723819590155
  endloop
endfacet
facet normal -4.126940728573649e-15 1.0 4.234545786518668e-14
  outer loop
    vertex 1914.6267035518927 1400.7545917120146 63.20590477448764
    vertex 1913.3200359884943 1400.7545917120149 63.464723819590155
    vertex 1914.456332683338 1400.7545917120146 64.50000000000023
  endloop
endfacet
facet normal -4.126940728573649e-15 1.0 4.234545786518668e-14
  outer loop
    vertex 1914.456332683338 1400.7545917120146 64.50000000000023
    vertex 1913.3200359884943 1400.7545917120149 63.464723819590155
    vertex 1913.4563326833381 1400.7545917120149 64.50000000000023
  endloop
endfacet
facet normal -4.126940728573649e-15 1.0 4.234545786518668e-14
  outer loop
    vertex 1923.9563326833384 1400.7545917120156 52.49999999999999
    vertex 1920.7504279088505 1400.754591712015 59.67037086855494
    vertex 1923.9563326833384 1400.7545917120156 60.49999999999999
  endloop
endfacet
facet normal -4.126940728573649e-15 1.0 4.234545786518668e-14
  outer loop
    vertex 1920.7504279088505 1400.754591712015 59.67037086855494
    vertex 1923.9563326833384 1400.7545917120156 52.49999999999999
    vertex 1919.456332683338 1400.754591712015 59.500000000000284
  endloop
endfacet
facet normal -4.126940728573649e-15 1.0 4.234545786518668e-14
  outer loop
    vertex 1923.9563326833384 1400.7545917120156 60.49999999999999
    vertex 1920.7504279088505 1400.754591712015 59.67037086855494
    vertex 1921.9563326833381 1400.7545917120153 60.169872981078086
  endloop
endfacet
facet normal -4.126940728573649e-15 1.0 4.234545786518668e-14
  outer loop
    vertex 1923.9563326833384 1400.7545917120156 60.49999999999999
    vertex 1921.9563326833381 1400.7545917120153 60.169872981078086
    vertex 1922.9918665892708 1400.7545917120153 60.96446609406753
  endloop
endfacet
facet normal -4.126940728573649e-15 1.0 4.234545786518668e-14
  outer loop
    vertex 1923.9563326833384 1400.7545917120156 60.49999999999999
    vertex 1922.9918665892708 1400.7545917120153 60.96446609406753
    vertex 1923.171071253698 1400.7545917120153 61.19801015968044
  endloop
endfacet
facet normal -0.7933533402909887 -2.0730053840044337e-14 0.6087614290090418
  outer loop
    vertex 1923.171071253698 1400.7545917120153 61.19801015968044
    vertex 1922.9918665892708 1390.154591712016 60.96446609406717
    vertex 1923.171071253698 1390.154591712016 61.19801015968008
  endloop
endfacet
facet normal -0.7933533402909887 -2.0730053840044337e-14 0.6087614290090418
  outer loop
    vertex 1922.9918665892708 1390.154591712016 60.96446609406717
    vertex 1923.171071253698 1400.7545917120153 61.19801015968044
    vertex 1922.9918665892708 1400.7545917120153 60.96446609406753
  endloop
endfacet
facet normal -0.6087614290087517 -5.448787787682574e-14 0.7933533402912114
  outer loop
    vertex 1922.9918665892708 1390.154591712016 60.96446609406717
    vertex 1921.9563326833381 1400.7545917120153 60.169872981078086
    vertex 1921.9563326833381 1390.154591712016 60.169872981077724
  endloop
endfacet
facet normal -0.6087614290087517 -5.448787787682574e-14 0.7933533402912114
  outer loop
    vertex 1921.9563326833381 1400.7545917120153 60.169872981078086
    vertex 1922.9918665892708 1390.154591712016 60.96446609406717
    vertex 1922.9918665892708 1400.7545917120153 60.96446609406753
  endloop
endfacet
facet normal -0.3826834323650169 -4.756743150588143e-14 0.9238795325113169
  outer loop
    vertex 1921.9563326833381 1390.154591712016 60.169872981077724
    vertex 1920.7504279088505 1400.754591712015 59.67037086855494
    vertex 1920.7504279088505 1390.1545917120159 59.67037086855458
  endloop
endfacet
facet normal -0.3826834323650169 -4.756743150588143e-14 0.9238795325113169
  outer loop
    vertex 1920.7504279088505 1400.754591712015 59.67037086855494
    vertex 1921.9563326833381 1390.154591712016 60.169872981077724
    vertex 1921.9563326833381 1400.7545917120153 60.169872981078086
  endloop
endfacet
facet normal -0.1305261922200588 -3.7405343286714734e-14 0.9914448613738095
  outer loop
    vertex 1920.7504279088505 1390.1545917120159 59.67037086855458
    vertex 1919.456332683338 1400.754591712015 59.500000000000284
    vertex 1919.456332683338 1390.1545917120159 59.49999999999992
  endloop
endfacet
facet normal -0.1305261922200588 -3.7405343286714734e-14 0.9914448613738095
  outer loop
    vertex 1919.456332683338 1400.754591712015 59.500000000000284
    vertex 1920.7504279088505 1390.1545917120159 59.67037086855458
    vertex 1920.7504279088505 1400.754591712015 59.67037086855494
  endloop
endfacet
facet normal 0.1305261922200588 -2.4694142737807338e-14 0.9914448613738095
  outer loop
    vertex 1919.456332683338 1390.1545917120159 59.49999999999992
    vertex 1918.1622374578255 1400.754591712015 59.67037086855494
    vertex 1918.1622374578255 1390.1545917120159 59.67037086855458
  endloop
endfacet
facet normal 0.1305261922200588 -2.4694142737807338e-14 0.9914448613738095
  outer loop
    vertex 1918.1622374578255 1400.754591712015 59.67037086855494
    vertex 1919.456332683338 1390.1545917120159 59.49999999999992
    vertex 1919.456332683338 1400.754591712015 59.500000000000284
  endloop
endfacet
facet normal 0.38268343236511465 -1.0300077170318286e-14 0.9238795325112764
  outer loop
    vertex 1918.1622374578255 1390.1545917120159 59.67037086855458
    vertex 1916.9563326833381 1400.754591712015 60.169872981078086
    vertex 1916.9563326833381 1390.1545917120159 60.169872981077724
  endloop
endfacet
facet normal 0.38268343236511465 -1.0300077170318286e-14 0.9238795325112764
  outer loop
    vertex 1916.9563326833381 1400.754591712015 60.169872981078086
    vertex 1918.1622374578255 1390.1545917120159 59.67037086855458
    vertex 1918.1622374578255 1400.754591712015 59.67037086855494
  endloop
endfacet
facet normal 0.6087614290086182 4.795921634635591e-15 0.7933533402913138
  outer loop
    vertex 1916.9563326833381 1390.1545917120159 60.169872981077724
    vertex 1915.9207987774053 1400.7545917120149 60.96446609406753
    vertex 1915.9207987774053 1390.1545917120156 60.96446609406717
  endloop
endfacet
facet normal 0.6087614290086182 4.795921634635591e-15 0.7933533402913138
  outer loop
    vertex 1915.9207987774053 1400.7545917120149 60.96446609406753
    vertex 1916.9563326833381 1390.1545917120159 60.169872981077724
    vertex 1916.9563326833381 1400.754591712015 60.169872981078086
  endloop
endfacet
facet normal 0.793353340291212 1.9565086305838136e-14 0.608761429008751
  outer loop
    vertex 1915.9207987774053 1400.7545917120149 60.96446609406753
    vertex 1915.1262056644157 1390.1545917120156 61.9999999999999
    vertex 1915.9207987774053 1390.1545917120156 60.96446609406717
  endloop
endfacet
facet normal 0.793353340291212 1.9565086305838136e-14 0.608761429008751
  outer loop
    vertex 1915.1262056644157 1390.1545917120156 61.9999999999999
    vertex 1915.9207987774053 1400.7545917120149 60.96446609406753
    vertex 1915.1262056644157 1400.7545917120149 62.000000000000256
  endloop
endfacet
facet normal 0.9238795325113311 3.3000922678133766e-14 0.38268343236498265
  outer loop
    vertex 1915.1262056644157 1390.1545917120156 61.9999999999999
    vertex 1914.6267035518927 1400.7545917120146 63.20590477448764
    vertex 1914.6267035518927 1390.1545917120154 63.20590477448728
  endloop
endfacet
facet normal 0.9238795325113311 3.3000922678133766e-14 0.38268343236498265
  outer loop
    vertex 1914.6267035518927 1400.7545917120146 63.20590477448764
    vertex 1915.1262056644157 1390.1545917120156 61.9999999999999
    vertex 1915.1262056644157 1400.7545917120149 62.000000000000256
  endloop
endfacet
facet normal 0.9914448613738098 -4.4451122050810316e-15 0.13052619222005724
  outer loop
    vertex 1914.6267035518927 1400.7545917120146 63.20590477448764
    vertex 1914.456332683338 1390.1545917120154 64.49999999999987
    vertex 1914.6267035518927 1390.1545917120154 63.20590477448728
  endloop
endfacet
facet normal 0.9914448613738098 -4.4451122050810316e-15 0.13052619222005724
  outer loop
    vertex 1914.456332683338 1390.1545917120154 64.49999999999987
    vertex 1914.6267035518927 1400.7545917120146 63.20590477448764
    vertex 1914.456332683338 1400.7545917120146 64.50000000000023
  endloop
endfacet
facet normal 0.9914448613738096 2.3115215430338997e-14 -0.13052619222005732
  outer loop
    vertex 1914.4563326833384 1390.1545917120163 8.999999999995575
    vertex 1914.6267035518931 1414.1545917120156 10.294095225512399
    vertex 1914.6267035518931 1390.1545917120163 10.294095225508164
  endloop
endfacet
facet normal 0.9914448613738096 2.3115215430338997e-14 -0.13052619222005732
  outer loop
    vertex 1914.6267035518931 1414.1545917120156 10.294095225512399
    vertex 1914.4563326833384 1390.1545917120163 8.999999999995575
    vertex 1914.4563326833384 1414.1545917120159 8.999999999999808
  endloop
endfacet
facet normal 0.9238795325113314 6.062588389201944e-14 -0.38268343236498226
  outer loop
    vertex 1914.6267035518931 1390.1545917120163 10.294095225508164
    vertex 1915.126205664416 1414.1545917120152 11.499999999999782
    vertex 1915.126205664416 1390.1545917120159 11.499999999995547
  endloop
endfacet
facet normal 0.9238795325113314 6.062588389201944e-14 -0.38268343236498226
  outer loop
    vertex 1915.126205664416 1414.1545917120152 11.499999999999782
    vertex 1914.6267035518931 1390.1545917120163 10.294095225508164
    vertex 1914.6267035518931 1414.1545917120156 10.294095225512399
  endloop
endfacet
facet normal 0.7933533402912115 1.0165114173004199e-13 -0.6087614290087514
  outer loop
    vertex 1915.126205664416 1390.1545917120159 11.499999999995547
    vertex 1915.9207987774055 1414.1545917120152 12.535533905932509
    vertex 1915.9207987774055 1390.1545917120156 12.535533905928274
  endloop
endfacet
facet normal 0.7933533402912115 1.0165114173004199e-13 -0.6087614290087514
  outer loop
    vertex 1915.9207987774055 1414.1545917120152 12.535533905932509
    vertex 1915.126205664416 1390.1545917120159 11.499999999995547
    vertex 1915.126205664416 1414.1545917120152 11.499999999999782
  endloop
endfacet
facet normal 0.6087614290087531 1.357490422455816e-13 -0.7933533402912103
  outer loop
    vertex 1916.9563326833381 1414.1545917120147 13.330127018921957
    vertex 1915.9207987774055 1390.1545917120156 12.535533905928274
    vertex 1915.9207987774055 1414.1545917120152 12.535533905932509
  endloop
endfacet
facet normal 0.6087614290087531 1.357490422455816e-13 -0.7933533402912103
  outer loop
    vertex 1915.9207987774055 1390.1545917120156 12.535533905928274
    vertex 1916.9563326833381 1414.1545917120147 13.330127018921957
    vertex 1916.9563326833381 1390.1545917120154 13.330127018917718
  endloop
endfacet
facet normal 0.3826834323650132 1.6059586986800496e-13 -0.9238795325113185
  outer loop
    vertex 1918.1622374578258 1414.1545917120145 13.829629131445099
    vertex 1916.9563326833381 1390.1545917120154 13.330127018917718
    vertex 1916.9563326833381 1414.1545917120147 13.330127018921957
  endloop
endfacet
facet normal 0.3826834323650132 1.6059586986800496e-13 -0.9238795325113185
  outer loop
    vertex 1916.9563326833381 1390.1545917120154 13.330127018917718
    vertex 1918.1622374578258 1414.1545917120145 13.829629131445099
    vertex 1918.1622374578258 1390.1545917120152 13.82962913144086
  endloop
endfacet
facet normal 0.13052619222006304 1.7449835435613018e-13 -0.9914448613738089
  outer loop
    vertex 1919.4563326833384 1414.1545917120145 13.999999999999757
    vertex 1918.1622374578258 1390.1545917120152 13.82962913144086
    vertex 1918.1622374578258 1414.1545917120145 13.829629131445099
  endloop
endfacet
facet normal 0.13052619222006304 1.7449835435613018e-13 -0.9914448613738089
  outer loop
    vertex 1918.1622374578258 1390.1545917120152 13.82962913144086
    vertex 1919.4563326833384 1414.1545917120145 13.999999999999757
    vertex 1919.4563326833384 1390.1545917120152 13.999999999995518
  endloop
endfacet
facet normal -0.13052619222006093 1.7650906436705712e-13 -0.9914448613738093
  outer loop
    vertex 1920.7504279088507 1414.1545917120143 13.8296291314451
    vertex 1919.4563326833384 1390.1545917120152 13.999999999995518
    vertex 1919.4563326833384 1414.1545917120145 13.999999999999757
  endloop
endfacet
facet normal -0.13052619222006093 1.7650906436705712e-13 -0.9914448613738093
  outer loop
    vertex 1919.4563326833384 1390.1545917120152 13.999999999995518
    vertex 1920.7504279088507 1414.1545917120143 13.8296291314451
    vertex 1920.7504279088507 1390.154591712015 13.829629131440862
  endloop
endfacet
facet normal -0.38268343236511104 1.6649097333638831e-13 -0.9238795325112781
  outer loop
    vertex 1921.9563326833381 1414.1545917120143 13.33012701892196
    vertex 1920.7504279088507 1390.154591712015 13.829629131440862
    vertex 1920.7504279088507 1414.1545917120143 13.8296291314451
  endloop
endfacet
facet normal -0.38268343236511104 1.6649097333638831e-13 -0.9238795325112781
  outer loop
    vertex 1920.7504279088507 1390.154591712015 13.829629131440862
    vertex 1921.9563326833381 1414.1545917120143 13.33012701892196
    vertex 1921.9563326833381 1390.154591712015 13.330127018917722
  endloop
endfacet
facet normal -0.6087614290086202 1.4512679761220256e-13 -0.7933533402913122
  outer loop
    vertex 1922.991866589271 1414.1545917120145 12.53553390593251
    vertex 1921.9563326833381 1390.154591712015 13.330127018917722
    vertex 1921.9563326833381 1414.1545917120143 13.33012701892196
  endloop
endfacet
facet normal -0.6087614290086202 1.4512679761220256e-13 -0.7933533402913122
  outer loop
    vertex 1921.9563326833381 1390.154591712015 13.330127018917722
    vertex 1922.991866589271 1414.1545917120145 12.53553390593251
    vertex 1922.991866589271 1390.1545917120152 12.535533905928276
  endloop
endfacet
facet normal -0.7933533402909282 1.0780811470470945e-13 -0.6087614290091206
  outer loop
    vertex 1922.991866589271 1414.1545917120145 12.53553390593251
    vertex 1923.1710712536983 1390.1545917120156 12.301989840315409
    vertex 1922.991866589271 1390.1545917120152 12.535533905928276
  endloop
endfacet
facet normal -0.7933533402909282 1.0780811470470945e-13 -0.6087614290091206
  outer loop
    vertex 1923.1710712536983 1390.1545917120156 12.301989840315409
    vertex 1922.991866589271 1414.1545917120145 12.53553390593251
    vertex 1923.1710712536983 1414.1545917120152 12.301989840319644
  endloop
endfacet
facet normal 2.521096759974894e-14 0.7071067811864443 0.7071067811866508
  outer loop
    vertex 1923.9563326833384 1400.7545917120156 52.49999999999999
    vertex 1909.9563326833384 1402.7545917120153 50.50000000000117
    vertex 1909.9563326833384 1400.7545917120156 52.49999999999999
  endloop
endfacet
facet normal 2.521096759974894e-14 0.7071067811864443 0.7071067811866508
  outer loop
    vertex 1909.9563326833384 1402.7545917120153 50.50000000000117
    vertex 1923.9563326833384 1400.7545917120156 52.49999999999999
    vertex 1923.9563326833384 1402.7545917120156 50.5
  endloop
endfacet
facet normal -8.187137604634025e-14 -1.0 2.2918459745468555e-13
  outer loop
    vertex 1909.9563326833386 1402.7545917120162 20.566235334722876
    vertex 1909.4563326833384 1402.7545917120156 13.000000000000002
    vertex 1909.9563326833384 1402.7545917120156 12.934173751206318
  endloop
endfacet
facet normal -8.187137604634025e-14 -1.0 2.2918459745468555e-13
  outer loop
    vertex 1909.4563326833384 1402.7545917120156 13.000000000000002
    vertex 1897.4563326833365 1402.7545917120187 20.56623533472288
    vertex 1897.4563326833386 1402.7545917120156 12.99999999999934
  endloop
endfacet
facet normal -8.187137604634025e-14 -1.0 2.2918459745468555e-13
  outer loop
    vertex 1897.4563326833365 1402.7545917120187 20.56623533472288
    vertex 1909.4563326833384 1402.7545917120156 13.000000000000002
    vertex 1909.9563326833386 1402.7545917120162 20.566235334722876
  endloop
endfacet
facet normal -1.0 1.8164675557923632e-14 -1.7705103422849934e-15
  outer loop
    vertex 1909.9563326833384 1402.7545917120153 50.50000000000117
    vertex 1909.9563326833384 1400.7545917120162 32.809035334723625
    vertex 1909.9563326833384 1400.7545917120156 52.49999999999999
  endloop
endfacet
facet normal -1.0 1.8164675557923632e-14 -1.7705103422849934e-15
  outer loop
    vertex 1909.9563326833384 1400.7545917120162 32.809035334723625
    vertex 1909.9563326833384 1402.7545917120153 50.50000000000117
    vertex 1909.9563326833386 1402.7545917120153 38.00000000000426
  endloop
endfacet
facet normal -1.0 1.8164675557923632e-14 -1.7705103422849934e-15
  outer loop
    vertex 1909.9563326833384 1400.7545917120162 32.809035334723625
    vertex 1909.9563326833386 1402.7545917120153 38.00000000000426
    vertex 1909.956332683339 1402.7545917120162 32.809035334723475
  endloop
endfacet
facet normal -1.0 1.8164675557923632e-14 -1.7705103422849934e-15
  outer loop
    vertex 1909.9563326833384 1390.1545917120159 60.56582624879379
    vertex 1909.9563326833384 1402.7545917120156 12.934173751206318
    vertex 1909.9563326833384 1390.1545917120156 12.934173751206318
  endloop
endfacet
facet normal -1.0 1.8164675557923632e-14 -1.7705103422849934e-15
  outer loop
    vertex 1909.9563326833384 1402.7545917120156 12.934173751206318
    vertex 1909.9563326833384 1390.1545917120159 60.56582624879379
    vertex 1909.9563326833384 1400.7545917120162 20.56623533472354
  endloop
endfacet
facet normal -1.0 1.8164675557923632e-14 -1.7705103422849934e-15
  outer loop
    vertex 1909.9563326833384 1400.7545917120162 20.56623533472354
    vertex 1909.9563326833384 1390.1545917120159 60.56582624879379
    vertex 1909.9563326833384 1400.7545917120156 52.49999999999999
  endloop
endfacet
facet normal -1.0 1.8164675557923632e-14 -1.7705103422849934e-15
  outer loop
    vertex 1909.9563326833384 1400.7545917120156 52.49999999999999
    vertex 1909.9563326833384 1390.1545917120159 60.56582624879379
    vertex 1909.9563326833384 1400.7545917120156 60.56582624879379
  endloop
endfacet
facet normal -1.0 1.8164675557923632e-14 -1.7705103422849934e-15
  outer loop
    vertex 1909.9563326833384 1400.7545917120162 20.56623533472354
    vertex 1909.9563326833384 1400.7545917120156 52.49999999999999
    vertex 1909.9563326833384 1400.7545917120162 32.809035334723625
  endloop
endfacet
facet normal -1.0 1.8164675557923632e-14 -1.7705103422849934e-15
  outer loop
    vertex 1909.9563326833384 1402.7545917120156 12.934173751206318
    vertex 1909.9563326833384 1400.7545917120162 20.56623533472354
    vertex 1909.9563326833386 1402.7545917120162 20.566235334722876
  endloop
endfacet
facet normal 1.0 -2.11914262435845e-14 -1.589722628176285e-14
  outer loop
    vertex 1923.9563326833384 1390.1545917120156 13.000000000000002
    vertex 1923.9563326833363 1400.7545917120146 20.56623533472354
    vertex 1923.9563326833384 1390.1545917120156 60.49999999999999
  endloop
endfacet
facet normal 1.0 -2.11914262435845e-14 -1.589722628176285e-14
  outer loop
    vertex 1923.9563326833363 1400.7545917120146 20.56623533472354
    vertex 1923.9563326833384 1390.1545917120156 13.000000000000002
    vertex 1923.9563326833384 1414.1545917120159 12.99999999999981
  endloop
endfacet
facet normal 1.0 -2.11914262435845e-14 -1.589722628176285e-14
  outer loop
    vertex 1923.9563326833363 1400.7545917120146 20.56623533472354
    vertex 1923.9563326833384 1414.1545917120159 12.99999999999981
    vertex 1923.9563326833384 1414.1545917120118 20.56623533472335
  endloop
endfacet
facet normal 1.0 -2.11914262435845e-14 -1.589722628176285e-14
  outer loop
    vertex 1923.956332683338 1414.1545917120118 32.80903533472306
    vertex 1923.9563326833384 1400.7545917120156 52.49999999999999
    vertex 1923.9563326833363 1400.7545917120146 32.80903533472364
  endloop
endfacet
facet normal 1.0 -2.11914262435845e-14 -1.589722628176285e-14
  outer loop
    vertex 1923.9563326833384 1400.7545917120156 52.49999999999999
    vertex 1923.956332683338 1414.1545917120118 32.80903533472306
    vertex 1923.9563326833384 1402.7545917120156 50.5
  endloop
endfacet
facet normal 1.0 -2.11914262435845e-14 -1.589722628176285e-14
  outer loop
    vertex 1923.9563326833384 1402.7545917120156 50.5
    vertex 1923.956332683338 1414.1545917120118 32.80903533472306
    vertex 1923.9563326833384 1414.1545917120159 50.5
  endloop
endfacet
facet normal 1.0 -2.11914262435845e-14 -1.589722628176285e-14
  outer loop
    vertex 1923.9563326833384 1390.1545917120156 60.49999999999999
    vertex 1923.9563326833363 1400.7545917120146 32.80903533472364
    vertex 1923.9563326833384 1400.7545917120156 60.49999999999999
  endloop
endfacet
facet normal 1.0 -2.11914262435845e-14 -1.589722628176285e-14
  outer loop
    vertex 1923.9563326833363 1400.7545917120146 32.80903533472364
    vertex 1923.9563326833384 1390.1545917120156 60.49999999999999
    vertex 1923.9563326833363 1400.7545917120146 20.56623533472354
  endloop
endfacet
facet normal 1.0 -2.11914262435845e-14 -1.589722628176285e-14
  outer loop
    vertex 1923.9563326833384 1400.7545917120156 60.49999999999999
    vertex 1923.9563326833363 1400.7545917120146 32.80903533472364
    vertex 1923.9563326833384 1400.7545917120156 52.49999999999999
  endloop
endfacet
endsolid Data logger Main v1
