solid Main
facet normal 0.0 -1.0 0.0
  outer loop
    vertex 466.71372898457616 246.14365622096366 45.999999999999986
    vertex 451.46895966602375 246.14365622096395 52.72148212912101
    vertex 406.7137289845762 246.14365622096366 45.999999999999986
  endloop
endfacet
facet normal 0.0 -1.0 0.0
  outer loop
    vertex 451.46895966602375 246.14365622096395 52.72148212912101
    vertex 466.71372898457616 246.14365622096366 45.999999999999986
    vertex 453.03663587285735 246.14365622096395 53.370834875401094
  endloop
endfacet
facet normal 0.0 -1.0 0.0
  outer loop
    vertex 453.03663587285735 246.14365622096395 53.370834875401094
    vertex 466.71372898457616 246.14365622096366 45.999999999999986
    vertex 454.38282995056994 246.14365622096395 54.40380592228739
  endloop
endfacet
facet normal 0.0 -1.0 0.0
  outer loop
    vertex 454.38282995056994 246.14365622096395 54.40380592228739
    vertex 466.71372898457616 246.14365622096366 45.999999999999986
    vertex 466.71372898457616 246.14365622096366 67.09326673973656
  endloop
endfacet
facet normal 0.0 -1.0 0.0
  outer loop
    vertex 406.7137289845762 246.14365622096366 45.999999999999986
    vertex 451.46895966602375 246.14365622096395 52.72148212912101
    vertex 449.78663587285735 246.14365622096395 52.49999999999995
  endloop
endfacet
facet normal 0.0 -1.0 0.0
  outer loop
    vertex 454.38282995056994 246.14365622096395 54.40380592228739
    vertex 466.71372898457616 246.14365622096366 67.09326673973656
    vertex 455.41580099745624 246.14365622096395 55.74999999999996
  endloop
endfacet
facet normal 0.0 -1.0 0.0
  outer loop
    vertex 455.41580099745624 246.14365622096395 55.74999999999996
    vertex 466.71372898457616 246.14365622096366 67.09326673973656
    vertex 456.06515374373635 246.14365622096395 57.31767620683358
  endloop
endfacet
facet normal 0.0 -1.0 0.0
  outer loop
    vertex 456.06515374373635 246.14365622096395 57.31767620683358
    vertex 466.71372898457616 246.14365622096366 67.09326673973656
    vertex 456.28663587285735 246.14365622096395 58.99999999999996
  endloop
endfacet
facet normal 0.0 -1.0 0.0
  outer loop
    vertex 456.28663587285735 246.14365622096395 58.99999999999996
    vertex 466.71372898457616 246.14365622096366 67.09326673973656
    vertex 456.06515374373635 246.14365622096395 60.68232379316634
  endloop
endfacet
facet normal 0.0 -1.0 0.0
  outer loop
    vertex 456.06515374373635 246.14365622096395 60.68232379316634
    vertex 466.71372898457616 246.14365622096366 67.09326673973656
    vertex 455.41580099745624 246.14365622096395 62.24999999999995
  endloop
endfacet
facet normal 0.0 -1.0 0.0
  outer loop
    vertex 455.41580099745624 246.14365622096395 62.24999999999995
    vertex 466.71372898457616 246.14365622096366 67.09326673973656
    vertex 454.38282995056994 246.14365622096395 63.59619407771252
  endloop
endfacet
facet normal 0.0 -1.0 0.0
  outer loop
    vertex 454.38282995056994 246.14365622096395 63.59619407771252
    vertex 466.71372898457616 246.14365622096366 67.09326673973656
    vertex 453.03663587285735 246.14365622096395 64.62916512459881
  endloop
endfacet
facet normal 0.0 -1.0 0.0
  outer loop
    vertex 453.03663587285735 246.14365622096395 64.62916512459881
    vertex 466.71372898457616 246.14365622096366 67.09326673973656
    vertex 451.46895966602375 246.14365622096395 65.2785178708789
  endloop
endfacet
facet normal 0.0 -1.0 0.0
  outer loop
    vertex 451.46895966602375 246.14365622096395 65.2785178708789
    vertex 466.71372898457616 246.14365622096366 67.09326673973656
    vertex 449.78663587285735 246.14365622096395 65.49999999999996
  endloop
endfacet
facet normal 0.0 -1.0 0.0
  outer loop
    vertex 449.78663587285735 246.14365622096395 65.49999999999996
    vertex 466.71372898457616 246.14365622096366 67.09326673973656
    vertex 423.6408220962949 246.1436562209639 65.49999999999999
  endloop
endfacet
facet normal 0.0 -1.0 0.0
  outer loop
    vertex 406.7137289845762 246.14365622096366 45.999999999999986
    vertex 419.0446280185824 246.1436562209639 54.40380592228741
    vertex 406.7137289845762 246.14365622096366 67.09326673973656
  endloop
endfacet
facet normal 0.0 -1.0 0.0
  outer loop
    vertex 419.0446280185824 246.1436562209639 54.40380592228741
    vertex 406.7137289845762 246.14365622096366 45.999999999999986
    vertex 420.390822096295 246.1436562209639 53.37083487540112
  endloop
endfacet
facet normal 0.0 -1.0 0.0
  outer loop
    vertex 420.390822096295 246.1436562209639 53.37083487540112
    vertex 406.7137289845762 246.14365622096366 45.999999999999986
    vertex 421.9584983031286 246.1436562209639 52.72148212912103
  endloop
endfacet
facet normal 0.0 -1.0 0.0
  outer loop
    vertex 421.9584983031286 246.1436562209639 52.72148212912103
    vertex 406.7137289845762 246.14365622096366 45.999999999999986
    vertex 423.6408220962949 246.1436562209639 52.49999999999997
  endloop
endfacet
facet normal 0.0 -1.0 0.0
  outer loop
    vertex 423.6408220962949 246.1436562209639 52.49999999999997
    vertex 406.7137289845762 246.14365622096366 45.999999999999986
    vertex 449.78663587285735 246.14365622096395 52.49999999999995
  endloop
endfacet
facet normal 0.0 -1.0 0.0
  outer loop
    vertex 406.7137289845762 246.14365622096366 67.09326673973656
    vertex 419.0446280185824 246.1436562209639 54.40380592228741
    vertex 418.0116569716961 246.1436562209639 55.74999999999998
  endloop
endfacet
facet normal 0.0 -1.0 0.0
  outer loop
    vertex 406.7137289845762 246.14365622096366 67.09326673973656
    vertex 418.0116569716961 246.1436562209639 55.74999999999998
    vertex 417.362304225416 246.1436562209639 57.3176762068336
  endloop
endfacet
facet normal 0.0 -1.0 0.0
  outer loop
    vertex 406.7137289845762 246.14365622096366 67.09326673973656
    vertex 417.362304225416 246.1436562209639 57.3176762068336
    vertex 417.140822096295 246.1436562209639 58.99999999999998
  endloop
endfacet
facet normal 0.0 -1.0 0.0
  outer loop
    vertex 406.7137289845762 246.14365622096366 67.09326673973656
    vertex 417.140822096295 246.1436562209639 58.99999999999998
    vertex 417.362304225416 246.1436562209639 60.68232379316636
  endloop
endfacet
facet normal 0.0 -1.0 0.0
  outer loop
    vertex 406.7137289845762 246.14365622096366 67.09326673973656
    vertex 417.362304225416 246.1436562209639 60.68232379316636
    vertex 418.0116569716961 246.1436562209639 62.24999999999998
  endloop
endfacet
facet normal 0.0 -1.0 0.0
  outer loop
    vertex 406.7137289845762 246.14365622096366 67.09326673973656
    vertex 418.0116569716961 246.1436562209639 62.24999999999998
    vertex 419.0446280185824 246.1436562209639 63.59619407771254
  endloop
endfacet
facet normal 0.0 -1.0 0.0
  outer loop
    vertex 406.7137289845762 246.14365622096366 67.09326673973656
    vertex 419.0446280185824 246.1436562209639 63.59619407771254
    vertex 420.390822096295 246.1436562209639 64.62916512459883
  endloop
endfacet
facet normal 0.0 -1.0 0.0
  outer loop
    vertex 406.7137289845762 246.14365622096366 67.09326673973656
    vertex 420.390822096295 246.1436562209639 64.62916512459883
    vertex 421.9584983031286 246.1436562209639 65.27851787087893
  endloop
endfacet
facet normal 0.0 -1.0 0.0
  outer loop
    vertex 406.7137289845762 246.14365622096366 67.09326673973656
    vertex 421.9584983031286 246.1436562209639 65.27851787087893
    vertex 423.6408220962949 246.1436562209639 65.49999999999999
  endloop
endfacet
facet normal 0.0 -1.0 0.0
  outer loop
    vertex 406.7137289845762 246.14365622096366 67.09326673973656
    vertex 423.6408220962949 246.1436562209639 65.49999999999999
    vertex 466.71372898457616 246.14365622096366 67.09326673973656
  endloop
endfacet
facet normal 0.0 -1.0 0.0
  outer loop
    vertex 406.7137289845762 246.14365622096366 67.09326673973656
    vertex 466.71372898457616 246.14365622096366 67.09326673973656
    vertex 461.71372898457616 246.14365622096366 72.09326673973656
  endloop
endfacet
facet normal 0.0 -1.0 0.0
  outer loop
    vertex 406.7137289845762 246.14365622096366 67.09326673973656
    vertex 461.71372898457616 246.14365622096366 72.09326673973656
    vertex 411.7137289845762 246.14365622096366 72.09326673973656
  endloop
endfacet
facet normal 0.0 -1.0 0.0
  outer loop
    vertex 448.104312079691 246.14365622096395 52.72148212912101
    vertex 423.6408220962949 246.1436562209639 52.49999999999997
    vertex 449.78663587285735 246.14365622096395 52.49999999999995
  endloop
endfacet
facet normal 0.0 -1.0 0.0
  outer loop
    vertex 423.6408220962949 246.1436562209639 52.49999999999997
    vertex 448.104312079691 246.14365622096395 52.72148212912101
    vertex 425.32314588946133 246.1436562209639 52.72148212912103
  endloop
endfacet
facet normal 0.0 -1.0 0.0
  outer loop
    vertex 425.32314588946133 246.1436562209639 52.72148212912103
    vertex 448.104312079691 246.14365622096395 52.72148212912101
    vertex 446.53663587285735 246.14365622096395 53.370834875401094
  endloop
endfacet
facet normal 0.0 -1.0 0.0
  outer loop
    vertex 425.32314588946133 246.1436562209639 52.72148212912103
    vertex 446.53663587285735 246.14365622096395 53.370834875401094
    vertex 426.8908220962949 246.1436562209639 53.37083487540112
  endloop
endfacet
facet normal 0.0 -1.0 0.0
  outer loop
    vertex 426.8908220962949 246.1436562209639 53.37083487540112
    vertex 446.53663587285735 246.14365622096395 53.370834875401094
    vertex 445.19044179514475 246.14365622096395 54.40380592228739
  endloop
endfacet
facet normal 0.0 -1.0 0.0
  outer loop
    vertex 426.8908220962949 246.1436562209639 53.37083487540112
    vertex 445.19044179514475 246.14365622096395 54.40380592228739
    vertex 428.2370161740075 246.1436562209639 54.40380592228741
  endloop
endfacet
facet normal 0.0 -1.0 0.0
  outer loop
    vertex 428.2370161740075 246.1436562209639 54.40380592228741
    vertex 445.19044179514475 246.14365622096395 54.40380592228739
    vertex 444.15747074825845 246.14365622096395 55.74999999999996
  endloop
endfacet
facet normal 0.0 -1.0 0.0
  outer loop
    vertex 428.2370161740075 246.1436562209639 54.40380592228741
    vertex 444.15747074825845 246.14365622096395 55.74999999999996
    vertex 429.2699872208938 246.1436562209639 55.74999999999998
  endloop
endfacet
facet normal 0.0 -1.0 0.0
  outer loop
    vertex 429.2699872208938 246.1436562209639 55.74999999999998
    vertex 444.15747074825845 246.14365622096395 55.74999999999996
    vertex 443.5081180019784 246.14365622096395 57.31767620683358
  endloop
endfacet
facet normal 0.0 -1.0 0.0
  outer loop
    vertex 429.2699872208938 246.1436562209639 55.74999999999998
    vertex 443.5081180019784 246.14365622096395 57.31767620683358
    vertex 429.9193399671739 246.1436562209639 57.3176762068336
  endloop
endfacet
facet normal 0.0 -1.0 0.0
  outer loop
    vertex 429.9193399671739 246.1436562209639 57.3176762068336
    vertex 443.5081180019784 246.14365622096395 57.31767620683358
    vertex 443.2866358728574 246.14365622096395 58.99999999999996
  endloop
endfacet
facet normal 0.0 -1.0 0.0
  outer loop
    vertex 429.9193399671739 246.1436562209639 57.3176762068336
    vertex 443.2866358728574 246.14365622096395 58.99999999999996
    vertex 430.1408220962949 246.1436562209639 58.99999999999998
  endloop
endfacet
facet normal 0.0 -1.0 0.0
  outer loop
    vertex 430.1408220962949 246.1436562209639 58.99999999999998
    vertex 443.2866358728574 246.14365622096395 58.99999999999996
    vertex 443.5081180019784 246.14365622096395 60.68232379316634
  endloop
endfacet
facet normal 0.0 -1.0 0.0
  outer loop
    vertex 430.1408220962949 246.1436562209639 58.99999999999998
    vertex 443.5081180019784 246.14365622096395 60.68232379316634
    vertex 429.9193399671739 246.1436562209639 60.68232379316636
  endloop
endfacet
facet normal 0.0 -1.0 0.0
  outer loop
    vertex 429.9193399671739 246.1436562209639 60.68232379316636
    vertex 443.5081180019784 246.14365622096395 60.68232379316634
    vertex 444.15747074825845 246.14365622096395 62.24999999999995
  endloop
endfacet
facet normal 0.0 -1.0 0.0
  outer loop
    vertex 429.9193399671739 246.1436562209639 60.68232379316636
    vertex 444.15747074825845 246.14365622096395 62.24999999999995
    vertex 429.2699872208938 246.1436562209639 62.24999999999998
  endloop
endfacet
facet normal 0.0 -1.0 0.0
  outer loop
    vertex 429.2699872208938 246.1436562209639 62.24999999999998
    vertex 444.15747074825845 246.14365622096395 62.24999999999995
    vertex 445.19044179514475 246.14365622096395 63.59619407771252
  endloop
endfacet
facet normal 0.0 -1.0 0.0
  outer loop
    vertex 429.2699872208938 246.1436562209639 62.24999999999998
    vertex 445.19044179514475 246.14365622096395 63.59619407771252
    vertex 428.2370161740075 246.1436562209639 63.59619407771254
  endloop
endfacet
facet normal 0.0 -1.0 0.0
  outer loop
    vertex 428.2370161740075 246.1436562209639 63.59619407771254
    vertex 445.19044179514475 246.14365622096395 63.59619407771252
    vertex 446.53663587285735 246.14365622096395 64.62916512459881
  endloop
endfacet
facet normal 0.0 -1.0 0.0
  outer loop
    vertex 428.2370161740075 246.1436562209639 63.59619407771254
    vertex 446.53663587285735 246.14365622096395 64.62916512459881
    vertex 426.8908220962949 246.1436562209639 64.62916512459883
  endloop
endfacet
facet normal 0.0 -1.0 0.0
  outer loop
    vertex 426.8908220962949 246.1436562209639 64.62916512459883
    vertex 446.53663587285735 246.14365622096395 64.62916512459881
    vertex 448.104312079691 246.14365622096395 65.2785178708789
  endloop
endfacet
facet normal 0.0 -1.0 0.0
  outer loop
    vertex 426.8908220962949 246.1436562209639 64.62916512459883
    vertex 448.104312079691 246.14365622096395 65.2785178708789
    vertex 425.32314588946133 246.1436562209639 65.27851787087893
  endloop
endfacet
facet normal 0.0 -1.0 0.0
  outer loop
    vertex 425.32314588946133 246.1436562209639 65.27851787087893
    vertex 448.104312079691 246.14365622096395 65.2785178708789
    vertex 449.78663587285735 246.14365622096395 65.49999999999996
  endloop
endfacet
facet normal 0.0 -1.0 0.0
  outer loop
    vertex 425.32314588946133 246.1436562209639 65.27851787087893
    vertex 449.78663587285735 246.14365622096395 65.49999999999996
    vertex 423.6408220962949 246.1436562209639 65.49999999999999
  endloop
endfacet
facet normal -1.0 0.0 0.0
  outer loop
    vertex 406.7137289845762 246.14365622096366 45.999999999999986
    vertex 406.7137289845762 249.14365622096366 67.09326673973656
    vertex 406.7137289845762 249.14365622096366 45.99999999999999
  endloop
endfacet
facet normal -1.0 0.0 0.0
  outer loop
    vertex 406.7137289845762 249.14365622096366 67.09326673973656
    vertex 406.7137289845762 246.14365622096366 45.999999999999986
    vertex 406.7137289845762 246.14365622096366 67.09326673973656
  endloop
endfacet
facet normal 0.0 0.0 1.0
  outer loop
    vertex 411.7137289845762 252.14365622096366 72.09326673973656
    vertex 461.71372898457616 246.14365622096366 72.09326673973656
    vertex 461.71372898457616 252.14365622096366 72.09326673973656
  endloop
endfacet
facet normal 0.0 0.0 1.0
  outer loop
    vertex 461.71372898457616 246.14365622096366 72.09326673973656
    vertex 411.7137289845762 252.14365622096366 72.09326673973656
    vertex 411.7137289845762 246.14365622096366 72.09326673973656
  endloop
endfacet
facet normal 0.7071067811865457 4.69911145575963e-15 0.7071067811865495
  outer loop
    vertex 461.71372898457616 252.14365622096366 72.09326673973656
    vertex 464.7137289845761 249.14365622096366 69.09326673973656
    vertex 464.7137289845761 252.14365622096366 69.09326673973656
  endloop
endfacet
facet normal 0.7071067811865457 4.69911145575963e-15 0.7071067811865495
  outer loop
    vertex 464.7137289845761 249.14365622096366 69.09326673973656
    vertex 466.71372898457616 246.14365622096366 67.09326673973656
    vertex 466.71372898457616 249.14365622096366 67.09326673973656
  endloop
endfacet
facet normal 0.7071067811865457 4.69911145575963e-15 0.7071067811865495
  outer loop
    vertex 466.71372898457616 246.14365622096366 67.09326673973656
    vertex 464.7137289845761 249.14365622096366 69.09326673973656
    vertex 461.71372898457616 246.14365622096366 72.09326673973656
  endloop
endfacet
facet normal 0.7071067811865457 4.69911145575963e-15 0.7071067811865495
  outer loop
    vertex 461.71372898457616 246.14365622096366 72.09326673973656
    vertex 464.7137289845761 249.14365622096366 69.09326673973656
    vertex 461.71372898457616 252.14365622096366 72.09326673973656
  endloop
endfacet
facet normal 1.0 0.0 0.0
  outer loop
    vertex 466.71372898457616 246.14365622096366 67.09326673973656
    vertex 466.71372898457616 249.14365622096366 45.999999999999986
    vertex 466.71372898457616 249.14365622096366 67.09326673973656
  endloop
endfacet
facet normal 1.0 0.0 0.0
  outer loop
    vertex 466.71372898457616 249.14365622096366 45.999999999999986
    vertex 466.71372898457616 246.14365622096366 67.09326673973656
    vertex 466.71372898457616 246.14365622096366 45.999999999999986
  endloop
endfacet
facet normal -0.707106781186544 -1.2020982793803626e-15 0.707106781186551
  outer loop
    vertex 408.7137289845762 252.14365622096366 69.09326673973656
    vertex 411.7137289845762 246.14365622096366 72.09326673973656
    vertex 411.7137289845762 252.14365622096366 72.09326673973656
  endloop
endfacet
facet normal -0.707106781186544 -1.2020982793803626e-15 0.707106781186551
  outer loop
    vertex 411.7137289845762 246.14365622096366 72.09326673973656
    vertex 408.7137289845762 252.14365622096366 69.09326673973656
    vertex 408.7137289845762 249.14365622096366 69.09326673973656
  endloop
endfacet
facet normal -0.707106781186544 -1.2020982793803626e-15 0.707106781186551
  outer loop
    vertex 411.7137289845762 246.14365622096366 72.09326673973656
    vertex 408.7137289845762 249.14365622096366 69.09326673973656
    vertex 406.7137289845762 246.14365622096366 67.09326673973656
  endloop
endfacet
facet normal -0.707106781186544 -1.2020982793803626e-15 0.707106781186551
  outer loop
    vertex 406.7137289845762 246.14365622096366 67.09326673973656
    vertex 408.7137289845762 249.14365622096366 69.09326673973656
    vertex 406.7137289845762 249.14365622096366 67.09326673973656
  endloop
endfacet
facet normal 0.0 1.0 0.0
  outer loop
    vertex 423.6408220962949 249.1436562209636 52.49999999999997
    vertex 448.104312079691 249.14365622096366 52.72148212912101
    vertex 449.78663587285735 249.14365622096366 52.49999999999995
  endloop
endfacet
facet normal 0.0 1.0 0.0
  outer loop
    vertex 448.104312079691 249.14365622096366 52.72148212912101
    vertex 423.6408220962949 249.1436562209636 52.49999999999997
    vertex 425.32314588946133 249.1436562209636 52.72148212912103
  endloop
endfacet
facet normal 0.0 1.0 0.0
  outer loop
    vertex 448.104312079691 249.14365622096366 52.72148212912101
    vertex 425.32314588946133 249.1436562209636 52.72148212912103
    vertex 446.53663587285735 249.14365622096366 53.370834875401094
  endloop
endfacet
facet normal 0.0 1.0 0.0
  outer loop
    vertex 446.53663587285735 249.14365622096366 53.370834875401094
    vertex 425.32314588946133 249.1436562209636 52.72148212912103
    vertex 426.8908220962949 249.1436562209636 53.37083487540112
  endloop
endfacet
facet normal 0.0 1.0 0.0
  outer loop
    vertex 446.53663587285735 249.14365622096366 53.370834875401094
    vertex 426.8908220962949 249.1436562209636 53.37083487540112
    vertex 445.19044179514475 249.14365622096366 54.40380592228739
  endloop
endfacet
facet normal 0.0 1.0 0.0
  outer loop
    vertex 445.19044179514475 249.14365622096366 54.40380592228739
    vertex 426.8908220962949 249.1436562209636 53.37083487540112
    vertex 428.2370161740075 249.1436562209636 54.40380592228741
  endloop
endfacet
facet normal 0.0 1.0 0.0
  outer loop
    vertex 445.19044179514475 249.14365622096366 54.40380592228739
    vertex 428.2370161740075 249.1436562209636 54.40380592228741
    vertex 444.15747074825845 249.14365622096366 55.74999999999996
  endloop
endfacet
facet normal 0.0 1.0 0.0
  outer loop
    vertex 444.15747074825845 249.14365622096366 55.74999999999996
    vertex 428.2370161740075 249.1436562209636 54.40380592228741
    vertex 429.2699872208938 249.1436562209636 55.74999999999998
  endloop
endfacet
facet normal 0.0 1.0 0.0
  outer loop
    vertex 444.15747074825845 249.14365622096366 55.74999999999996
    vertex 429.2699872208938 249.1436562209636 55.74999999999998
    vertex 443.5081180019784 249.14365622096366 57.31767620683358
  endloop
endfacet
facet normal 0.0 1.0 0.0
  outer loop
    vertex 443.5081180019784 249.14365622096366 57.31767620683358
    vertex 429.2699872208938 249.1436562209636 55.74999999999998
    vertex 429.9193399671739 249.1436562209636 57.3176762068336
  endloop
endfacet
facet normal 0.0 1.0 0.0
  outer loop
    vertex 443.5081180019784 249.14365622096366 57.31767620683358
    vertex 429.9193399671739 249.1436562209636 57.3176762068336
    vertex 443.2866358728574 249.14365622096366 58.99999999999996
  endloop
endfacet
facet normal 0.0 1.0 0.0
  outer loop
    vertex 443.2866358728574 249.14365622096366 58.99999999999996
    vertex 429.9193399671739 249.1436562209636 57.3176762068336
    vertex 430.1408220962949 249.1436562209636 58.99999999999998
  endloop
endfacet
facet normal 0.0 1.0 0.0
  outer loop
    vertex 443.2866358728574 249.14365622096366 58.99999999999996
    vertex 430.1408220962949 249.1436562209636 58.99999999999998
    vertex 443.5081180019784 249.14365622096366 60.68232379316634
  endloop
endfacet
facet normal 0.0 1.0 0.0
  outer loop
    vertex 443.5081180019784 249.14365622096366 60.68232379316634
    vertex 430.1408220962949 249.1436562209636 58.99999999999998
    vertex 429.9193399671739 249.1436562209636 60.68232379316636
  endloop
endfacet
facet normal 0.0 1.0 0.0
  outer loop
    vertex 443.5081180019784 249.14365622096366 60.68232379316634
    vertex 429.9193399671739 249.1436562209636 60.68232379316636
    vertex 444.15747074825845 249.14365622096366 62.24999999999995
  endloop
endfacet
facet normal 0.0 1.0 0.0
  outer loop
    vertex 444.15747074825845 249.14365622096366 62.24999999999995
    vertex 429.9193399671739 249.1436562209636 60.68232379316636
    vertex 429.2699872208938 249.1436562209636 62.24999999999998
  endloop
endfacet
facet normal 0.0 1.0 0.0
  outer loop
    vertex 444.15747074825845 249.14365622096366 62.24999999999995
    vertex 429.2699872208938 249.1436562209636 62.24999999999998
    vertex 445.19044179514475 249.14365622096366 63.59619407771252
  endloop
endfacet
facet normal 0.0 1.0 0.0
  outer loop
    vertex 445.19044179514475 249.14365622096366 63.59619407771252
    vertex 429.2699872208938 249.1436562209636 62.24999999999998
    vertex 428.2370161740075 249.1436562209636 63.59619407771254
  endloop
endfacet
facet normal 0.0 1.0 0.0
  outer loop
    vertex 445.19044179514475 249.14365622096366 63.59619407771252
    vertex 428.2370161740075 249.1436562209636 63.59619407771254
    vertex 446.53663587285735 249.14365622096366 64.62916512459881
  endloop
endfacet
facet normal 0.0 1.0 0.0
  outer loop
    vertex 446.53663587285735 249.14365622096366 64.62916512459881
    vertex 428.2370161740075 249.1436562209636 63.59619407771254
    vertex 426.8908220962949 249.1436562209636 64.62916512459883
  endloop
endfacet
facet normal 0.0 1.0 0.0
  outer loop
    vertex 446.53663587285735 249.14365622096366 64.62916512459881
    vertex 426.8908220962949 249.1436562209636 64.62916512459883
    vertex 448.104312079691 249.14365622096366 65.2785178708789
  endloop
endfacet
facet normal 0.0 1.0 0.0
  outer loop
    vertex 448.104312079691 249.14365622096366 65.2785178708789
    vertex 426.8908220962949 249.1436562209636 64.62916512459883
    vertex 425.32314588946133 249.1436562209636 65.27851787087893
  endloop
endfacet
facet normal 0.0 1.0 0.0
  outer loop
    vertex 448.104312079691 249.14365622096366 65.2785178708789
    vertex 425.32314588946133 249.1436562209636 65.27851787087893
    vertex 449.78663587285735 249.14365622096366 65.49999999999996
  endloop
endfacet
facet normal 0.0 1.0 0.0
  outer loop
    vertex 449.78663587285735 249.14365622096366 65.49999999999996
    vertex 425.32314588946133 249.1436562209636 65.27851787087893
    vertex 423.6408220962949 249.1436562209636 65.49999999999999
  endloop
endfacet
facet normal 0.0 1.0 0.0
  outer loop
    vertex 406.7137289845762 249.14365622096366 45.99999999999999
    vertex 423.6408220962949 249.1436562209636 52.49999999999997
    vertex 449.78663587285735 249.14365622096366 52.49999999999995
  endloop
endfacet
facet normal 0.0 1.0 0.0
  outer loop
    vertex 423.6408220962949 249.1436562209636 52.49999999999997
    vertex 406.7137289845762 249.14365622096366 45.99999999999999
    vertex 421.9584983031286 249.1436562209636 52.72148212912103
  endloop
endfacet
facet normal 0.0 1.0 0.0
  outer loop
    vertex 421.9584983031286 249.1436562209636 52.72148212912103
    vertex 406.7137289845762 249.14365622096366 45.99999999999999
    vertex 420.390822096295 249.1436562209636 53.37083487540112
  endloop
endfacet
facet normal 0.0 1.0 0.0
  outer loop
    vertex 420.390822096295 249.1436562209636 53.37083487540112
    vertex 406.7137289845762 249.14365622096366 45.99999999999999
    vertex 419.0446280185824 249.1436562209636 54.40380592228741
  endloop
endfacet
facet normal 0.0 1.0 0.0
  outer loop
    vertex 419.0446280185824 249.1436562209636 54.40380592228741
    vertex 406.7137289845762 249.14365622096366 45.99999999999999
    vertex 406.7137289845762 249.14365622096366 67.09326673973656
  endloop
endfacet
facet normal 0.0 1.0 0.0
  outer loop
    vertex 419.0446280185824 249.1436562209636 54.40380592228741
    vertex 406.7137289845762 249.14365622096366 67.09326673973656
    vertex 418.0116569716961 249.1436562209636 55.74999999999998
  endloop
endfacet
facet normal 0.0 1.0 0.0
  outer loop
    vertex 418.0116569716961 249.1436562209636 55.74999999999998
    vertex 406.7137289845762 249.14365622096366 67.09326673973656
    vertex 417.362304225416 249.1436562209636 57.3176762068336
  endloop
endfacet
facet normal 0.0 1.0 0.0
  outer loop
    vertex 417.362304225416 249.1436562209636 57.3176762068336
    vertex 406.7137289845762 249.14365622096366 67.09326673973656
    vertex 417.140822096295 249.1436562209636 58.99999999999998
  endloop
endfacet
facet normal 0.0 1.0 0.0
  outer loop
    vertex 417.140822096295 249.1436562209636 58.99999999999998
    vertex 406.7137289845762 249.14365622096366 67.09326673973656
    vertex 417.362304225416 249.1436562209636 60.68232379316636
  endloop
endfacet
facet normal 0.0 1.0 0.0
  outer loop
    vertex 417.362304225416 249.1436562209636 60.68232379316636
    vertex 406.7137289845762 249.14365622096366 67.09326673973656
    vertex 418.0116569716961 249.1436562209636 62.24999999999998
  endloop
endfacet
facet normal 0.0 1.0 0.0
  outer loop
    vertex 418.0116569716961 249.1436562209636 62.24999999999998
    vertex 406.7137289845762 249.14365622096366 67.09326673973656
    vertex 419.0446280185824 249.1436562209636 63.59619407771254
  endloop
endfacet
facet normal 0.0 1.0 0.0
  outer loop
    vertex 419.0446280185824 249.1436562209636 63.59619407771254
    vertex 406.7137289845762 249.14365622096366 67.09326673973656
    vertex 420.390822096295 249.1436562209636 64.62916512459883
  endloop
endfacet
facet normal 0.0 1.0 0.0
  outer loop
    vertex 420.390822096295 249.1436562209636 64.62916512459883
    vertex 406.7137289845762 249.14365622096366 67.09326673973656
    vertex 421.9584983031286 249.1436562209636 65.27851787087893
  endloop
endfacet
facet normal 0.0 1.0 0.0
  outer loop
    vertex 421.9584983031286 249.1436562209636 65.27851787087893
    vertex 406.7137289845762 249.14365622096366 67.09326673973656
    vertex 423.6408220962949 249.1436562209636 65.49999999999999
  endloop
endfacet
facet normal 0.0 1.0 0.0
  outer loop
    vertex 466.71372898457616 249.14365622096366 45.999999999999986
    vertex 454.38282995056994 249.14365622096366 54.40380592228739
    vertex 466.71372898457616 249.14365622096366 67.09326673973656
  endloop
endfacet
facet normal 0.0 1.0 0.0
  outer loop
    vertex 454.38282995056994 249.14365622096366 54.40380592228739
    vertex 466.71372898457616 249.14365622096366 45.999999999999986
    vertex 453.03663587285735 249.14365622096366 53.370834875401094
  endloop
endfacet
facet normal 0.0 1.0 0.0
  outer loop
    vertex 453.03663587285735 249.14365622096366 53.370834875401094
    vertex 466.71372898457616 249.14365622096366 45.999999999999986
    vertex 451.46895966602375 249.14365622096366 52.72148212912101
  endloop
endfacet
facet normal 0.0 1.0 0.0
  outer loop
    vertex 451.46895966602375 249.14365622096366 52.72148212912101
    vertex 466.71372898457616 249.14365622096366 45.999999999999986
    vertex 406.7137289845762 249.14365622096366 45.99999999999999
  endloop
endfacet
facet normal 0.0 1.0 0.0
  outer loop
    vertex 451.46895966602375 249.14365622096366 52.72148212912101
    vertex 406.7137289845762 249.14365622096366 45.99999999999999
    vertex 449.78663587285735 249.14365622096366 52.49999999999995
  endloop
endfacet
facet normal 0.0 1.0 0.0
  outer loop
    vertex 466.71372898457616 249.14365622096366 67.09326673973656
    vertex 454.38282995056994 249.14365622096366 54.40380592228739
    vertex 455.41580099745624 249.14365622096366 55.74999999999996
  endloop
endfacet
facet normal 0.0 1.0 0.0
  outer loop
    vertex 466.71372898457616 249.14365622096366 67.09326673973656
    vertex 455.41580099745624 249.14365622096366 55.74999999999996
    vertex 456.06515374373635 249.14365622096366 57.31767620683358
  endloop
endfacet
facet normal 0.0 1.0 0.0
  outer loop
    vertex 466.71372898457616 249.14365622096366 67.09326673973656
    vertex 456.06515374373635 249.14365622096366 57.31767620683358
    vertex 456.28663587285735 249.14365622096366 58.99999999999996
  endloop
endfacet
facet normal 0.0 1.0 0.0
  outer loop
    vertex 466.71372898457616 249.14365622096366 67.09326673973656
    vertex 456.28663587285735 249.14365622096366 58.99999999999996
    vertex 456.06515374373635 249.14365622096366 60.68232379316634
  endloop
endfacet
facet normal 0.0 1.0 0.0
  outer loop
    vertex 466.71372898457616 249.14365622096366 67.09326673973656
    vertex 456.06515374373635 249.14365622096366 60.68232379316634
    vertex 455.41580099745624 249.14365622096366 62.24999999999995
  endloop
endfacet
facet normal 0.0 1.0 0.0
  outer loop
    vertex 466.71372898457616 249.14365622096366 67.09326673973656
    vertex 455.41580099745624 249.14365622096366 62.24999999999995
    vertex 454.38282995056994 249.14365622096366 63.59619407771252
  endloop
endfacet
facet normal 0.0 1.0 0.0
  outer loop
    vertex 466.71372898457616 249.14365622096366 67.09326673973656
    vertex 454.38282995056994 249.14365622096366 63.59619407771252
    vertex 453.03663587285735 249.14365622096366 64.62916512459881
  endloop
endfacet
facet normal 0.0 1.0 0.0
  outer loop
    vertex 466.71372898457616 249.14365622096366 67.09326673973656
    vertex 453.03663587285735 249.14365622096366 64.62916512459881
    vertex 451.46895966602375 249.14365622096366 65.2785178708789
  endloop
endfacet
facet normal 0.0 1.0 0.0
  outer loop
    vertex 466.71372898457616 249.14365622096366 67.09326673973656
    vertex 451.46895966602375 249.14365622096366 65.2785178708789
    vertex 449.78663587285735 249.14365622096366 65.49999999999996
  endloop
endfacet
facet normal 0.0 1.0 0.0
  outer loop
    vertex 466.71372898457616 249.14365622096366 67.09326673973656
    vertex 449.78663587285735 249.14365622096366 65.49999999999996
    vertex 423.6408220962949 249.1436562209636 65.49999999999999
  endloop
endfacet
facet normal 0.0 1.0 0.0
  outer loop
    vertex 466.71372898457616 249.14365622096366 67.09326673973656
    vertex 423.6408220962949 249.1436562209636 65.49999999999999
    vertex 406.7137289845762 249.14365622096366 67.09326673973656
  endloop
endfacet
facet normal 0.0 1.0 0.0
  outer loop
    vertex 466.71372898457616 249.14365622096366 67.09326673973656
    vertex 406.7137289845762 249.14365622096366 67.09326673973656
    vertex 408.7137289845762 249.14365622096366 69.09326673973656
  endloop
endfacet
facet normal 0.0 1.0 0.0
  outer loop
    vertex 466.71372898457616 249.14365622096366 67.09326673973656
    vertex 408.7137289845762 249.14365622096366 69.09326673973656
    vertex 464.7137289845761 249.14365622096366 69.09326673973656
  endloop
endfacet
facet normal 0.3826834323650905 5.310799471928841e-18 -0.9238795325112866
  outer loop
    vertex 420.390822096295 246.1436562209639 64.62916512459883
    vertex 421.9584983031286 249.1436562209636 65.27851787087893
    vertex 421.9584983031286 246.1436562209639 65.27851787087893
  endloop
endfacet
facet normal 0.3826834323650905 5.310799471928841e-18 -0.9238795325112866
  outer loop
    vertex 421.9584983031286 249.1436562209636 65.27851787087893
    vertex 420.390822096295 246.1436562209639 64.62916512459883
    vertex 420.390822096295 249.1436562209636 64.62916512459883
  endloop
endfacet
facet normal 0.6087614290087062 8.448261937364729e-18 -0.7933533402912464
  outer loop
    vertex 419.0446280185824 246.1436562209639 63.59619407771254
    vertex 420.390822096295 249.1436562209636 64.62916512459883
    vertex 420.390822096295 246.1436562209639 64.62916512459883
  endloop
endfacet
facet normal 0.6087614290087062 8.448261937364729e-18 -0.7933533402912464
  outer loop
    vertex 420.390822096295 249.1436562209636 64.62916512459883
    vertex 419.0446280185824 246.1436562209639 63.59619407771254
    vertex 419.0446280185824 249.1436562209636 63.59619407771254
  endloop
endfacet
facet normal 0.7933533402912364 1.1009989313182594e-17 -0.6087614290087191
  outer loop
    vertex 419.0446280185824 246.1436562209639 63.59619407771254
    vertex 418.0116569716961 249.1436562209636 62.24999999999998
    vertex 419.0446280185824 249.1436562209636 63.59619407771254
  endloop
endfacet
facet normal 0.7933533402912364 1.1009989313182594e-17 -0.6087614290087191
  outer loop
    vertex 418.0116569716961 249.1436562209636 62.24999999999998
    vertex 419.0446280185824 246.1436562209639 63.59619407771254
    vertex 418.0116569716961 246.1436562209639 62.24999999999998
  endloop
endfacet
facet normal 0.9238795325112874 1.2821404112174464e-17 -0.382683432365088
  outer loop
    vertex 418.0116569716961 246.1436562209639 62.24999999999998
    vertex 417.362304225416 249.1436562209636 60.68232379316636
    vertex 418.0116569716961 249.1436562209636 62.24999999999998
  endloop
endfacet
facet normal 0.9238795325112874 1.2821404112174464e-17 -0.382683432365088
  outer loop
    vertex 417.362304225416 249.1436562209636 60.68232379316636
    vertex 418.0116569716961 246.1436562209639 62.24999999999998
    vertex 417.362304225416 246.1436562209639 60.68232379316636
  endloop
endfacet
facet normal 0.9914448613738154 1.375906140929383e-17 -0.13052619222001446
  outer loop
    vertex 417.362304225416 246.1436562209639 60.68232379316636
    vertex 417.140822096295 249.1436562209636 58.99999999999998
    vertex 417.362304225416 249.1436562209636 60.68232379316636
  endloop
endfacet
facet normal 0.9914448613738154 1.375906140929383e-17 -0.13052619222001446
  outer loop
    vertex 417.140822096295 249.1436562209636 58.99999999999998
    vertex 417.362304225416 246.1436562209639 60.68232379316636
    vertex 417.140822096295 246.1436562209639 58.99999999999998
  endloop
endfacet
facet normal 0.9914448613738154 1.375906140929383e-17 0.13052619222001446
  outer loop
    vertex 417.140822096295 246.1436562209639 58.99999999999998
    vertex 417.362304225416 249.1436562209636 57.3176762068336
    vertex 417.140822096295 249.1436562209636 58.99999999999998
  endloop
endfacet
facet normal 0.9914448613738154 1.375906140929383e-17 0.13052619222001446
  outer loop
    vertex 417.362304225416 249.1436562209636 57.3176762068336
    vertex 417.140822096295 246.1436562209639 58.99999999999998
    vertex 417.362304225416 246.1436562209639 57.3176762068336
  endloop
endfacet
facet normal 0.9238795325112884 1.2821404112174478e-17 0.3826834323650857
  outer loop
    vertex 417.362304225416 246.1436562209639 57.3176762068336
    vertex 418.0116569716961 249.1436562209636 55.74999999999998
    vertex 417.362304225416 249.1436562209636 57.3176762068336
  endloop
endfacet
facet normal 0.9238795325112884 1.2821404112174478e-17 0.3826834323650857
  outer loop
    vertex 418.0116569716961 249.1436562209636 55.74999999999998
    vertex 417.362304225416 246.1436562209639 57.3176762068336
    vertex 418.0116569716961 246.1436562209639 55.74999999999998
  endloop
endfacet
facet normal 0.7933533402912339 1.100998931318256e-17 0.6087614290087222
  outer loop
    vertex 418.0116569716961 246.1436562209639 55.74999999999998
    vertex 419.0446280185824 249.1436562209636 54.40380592228741
    vertex 418.0116569716961 249.1436562209636 55.74999999999998
  endloop
endfacet
facet normal 0.7933533402912339 1.100998931318256e-17 0.6087614290087222
  outer loop
    vertex 419.0446280185824 249.1436562209636 54.40380592228741
    vertex 418.0116569716961 246.1436562209639 55.74999999999998
    vertex 419.0446280185824 246.1436562209639 54.40380592228741
  endloop
endfacet
facet normal 0.6087614290087062 8.448261937364729e-18 0.7933533402912464
  outer loop
    vertex 419.0446280185824 249.1436562209636 54.40380592228741
    vertex 420.390822096295 246.1436562209639 53.37083487540112
    vertex 420.390822096295 249.1436562209636 53.37083487540112
  endloop
endfacet
facet normal 0.6087614290087062 8.448261937364729e-18 0.7933533402912464
  outer loop
    vertex 420.390822096295 246.1436562209639 53.37083487540112
    vertex 419.0446280185824 249.1436562209636 54.40380592228741
    vertex 419.0446280185824 246.1436562209639 54.40380592228741
  endloop
endfacet
facet normal 0.3826834323650905 5.310799471928841e-18 0.9238795325112866
  outer loop
    vertex 420.390822096295 249.1436562209636 53.37083487540112
    vertex 421.9584983031286 246.1436562209639 52.72148212912103
    vertex 421.9584983031286 249.1436562209636 52.72148212912103
  endloop
endfacet
facet normal 0.3826834323650905 5.310799471928841e-18 0.9238795325112866
  outer loop
    vertex 421.9584983031286 246.1436562209639 52.72148212912103
    vertex 420.390822096295 249.1436562209636 53.37083487540112
    vertex 420.390822096295 246.1436562209639 53.37083487540112
  endloop
endfacet
facet normal 0.13052619222005366 1.811414798991907e-18 0.9914448613738102
  outer loop
    vertex 421.9584983031286 249.1436562209636 52.72148212912103
    vertex 423.6408220962949 246.1436562209639 52.49999999999997
    vertex 423.6408220962949 249.1436562209636 52.49999999999997
  endloop
endfacet
facet normal 0.13052619222005366 1.811414798991907e-18 0.9914448613738102
  outer loop
    vertex 423.6408220962949 246.1436562209639 52.49999999999997
    vertex 421.9584983031286 249.1436562209636 52.72148212912103
    vertex 421.9584983031286 246.1436562209639 52.72148212912103
  endloop
endfacet
facet normal -0.13052619222005366 -1.811414798991907e-18 0.9914448613738102
  outer loop
    vertex 423.6408220962949 249.1436562209636 52.49999999999997
    vertex 425.32314588946133 246.1436562209639 52.72148212912103
    vertex 425.32314588946133 249.1436562209636 52.72148212912103
  endloop
endfacet
facet normal -0.13052619222005366 -1.811414798991907e-18 0.9914448613738102
  outer loop
    vertex 425.32314588946133 246.1436562209639 52.72148212912103
    vertex 423.6408220962949 249.1436562209636 52.49999999999997
    vertex 423.6408220962949 246.1436562209639 52.49999999999997
  endloop
endfacet
facet normal -0.3826834323650905 -5.310799471928841e-18 0.9238795325112866
  outer loop
    vertex 425.32314588946133 249.1436562209636 52.72148212912103
    vertex 426.8908220962949 246.1436562209639 53.37083487540112
    vertex 426.8908220962949 249.1436562209636 53.37083487540112
  endloop
endfacet
facet normal -0.3826834323650905 -5.310799471928841e-18 0.9238795325112866
  outer loop
    vertex 426.8908220962949 246.1436562209639 53.37083487540112
    vertex 425.32314588946133 249.1436562209636 52.72148212912103
    vertex 425.32314588946133 246.1436562209639 52.72148212912103
  endloop
endfacet
facet normal -0.6087614290087062 -8.448261937364729e-18 0.7933533402912464
  outer loop
    vertex 426.8908220962949 249.1436562209636 53.37083487540112
    vertex 428.2370161740075 246.1436562209639 54.40380592228741
    vertex 428.2370161740075 249.1436562209636 54.40380592228741
  endloop
endfacet
facet normal -0.6087614290087062 -8.448261937364729e-18 0.7933533402912464
  outer loop
    vertex 428.2370161740075 246.1436562209639 54.40380592228741
    vertex 426.8908220962949 249.1436562209636 53.37083487540112
    vertex 426.8908220962949 246.1436562209639 53.37083487540112
  endloop
endfacet
facet normal -0.7933533402912364 -1.1009989313182594e-17 0.6087614290087191
  outer loop
    vertex 428.2370161740075 246.1436562209639 54.40380592228741
    vertex 429.2699872208938 249.1436562209636 55.74999999999998
    vertex 428.2370161740075 249.1436562209636 54.40380592228741
  endloop
endfacet
facet normal -0.7933533402912364 -1.1009989313182594e-17 0.6087614290087191
  outer loop
    vertex 429.2699872208938 249.1436562209636 55.74999999999998
    vertex 428.2370161740075 246.1436562209639 54.40380592228741
    vertex 429.2699872208938 246.1436562209639 55.74999999999998
  endloop
endfacet
facet normal -0.9238795325112874 -1.2821404112174464e-17 0.382683432365088
  outer loop
    vertex 429.2699872208938 246.1436562209639 55.74999999999998
    vertex 429.9193399671739 249.1436562209636 57.3176762068336
    vertex 429.2699872208938 249.1436562209636 55.74999999999998
  endloop
endfacet
facet normal -0.9238795325112874 -1.2821404112174464e-17 0.382683432365088
  outer loop
    vertex 429.9193399671739 249.1436562209636 57.3176762068336
    vertex 429.2699872208938 246.1436562209639 55.74999999999998
    vertex 429.9193399671739 246.1436562209639 57.3176762068336
  endloop
endfacet
facet normal -0.9914448613738154 -1.375906140929383e-17 0.13052619222001446
  outer loop
    vertex 429.9193399671739 246.1436562209639 57.3176762068336
    vertex 430.1408220962949 249.1436562209636 58.99999999999998
    vertex 429.9193399671739 249.1436562209636 57.3176762068336
  endloop
endfacet
facet normal -0.9914448613738154 -1.375906140929383e-17 0.13052619222001446
  outer loop
    vertex 430.1408220962949 249.1436562209636 58.99999999999998
    vertex 429.9193399671739 246.1436562209639 57.3176762068336
    vertex 430.1408220962949 246.1436562209639 58.99999999999998
  endloop
endfacet
facet normal -0.9914448613738155 -1.3759061409293831e-17 -0.1305261922200136
  outer loop
    vertex 430.1408220962949 246.1436562209639 58.99999999999998
    vertex 429.9193399671739 249.1436562209636 60.68232379316636
    vertex 430.1408220962949 249.1436562209636 58.99999999999998
  endloop
endfacet
facet normal -0.9914448613738155 -1.3759061409293831e-17 -0.1305261922200136
  outer loop
    vertex 429.9193399671739 249.1436562209636 60.68232379316636
    vertex 430.1408220962949 246.1436562209639 58.99999999999998
    vertex 429.9193399671739 246.1436562209639 60.68232379316636
  endloop
endfacet
facet normal -0.9238795325112874 -1.2821404112174464e-17 -0.382683432365088
  outer loop
    vertex 429.9193399671739 246.1436562209639 60.68232379316636
    vertex 429.2699872208938 249.1436562209636 62.24999999999998
    vertex 429.9193399671739 249.1436562209636 60.68232379316636
  endloop
endfacet
facet normal -0.9238795325112874 -1.2821404112174464e-17 -0.382683432365088
  outer loop
    vertex 429.2699872208938 249.1436562209636 62.24999999999998
    vertex 429.9193399671739 246.1436562209639 60.68232379316636
    vertex 429.2699872208938 246.1436562209639 62.24999999999998
  endloop
endfacet
facet normal -0.7933533402912339 -1.100998931318256e-17 -0.6087614290087222
  outer loop
    vertex 429.2699872208938 246.1436562209639 62.24999999999998
    vertex 428.2370161740075 249.1436562209636 63.59619407771254
    vertex 429.2699872208938 249.1436562209636 62.24999999999998
  endloop
endfacet
facet normal -0.7933533402912339 -1.100998931318256e-17 -0.6087614290087222
  outer loop
    vertex 428.2370161740075 249.1436562209636 63.59619407771254
    vertex 429.2699872208938 246.1436562209639 62.24999999999998
    vertex 428.2370161740075 246.1436562209639 63.59619407771254
  endloop
endfacet
facet normal -0.6087614290087062 -8.448261937364729e-18 -0.7933533402912464
  outer loop
    vertex 426.8908220962949 246.1436562209639 64.62916512459883
    vertex 428.2370161740075 249.1436562209636 63.59619407771254
    vertex 428.2370161740075 246.1436562209639 63.59619407771254
  endloop
endfacet
facet normal -0.6087614290087062 -8.448261937364729e-18 -0.7933533402912464
  outer loop
    vertex 428.2370161740075 249.1436562209636 63.59619407771254
    vertex 426.8908220962949 246.1436562209639 64.62916512459883
    vertex 426.8908220962949 249.1436562209636 64.62916512459883
  endloop
endfacet
facet normal -0.3826834323650905 -5.310799471928841e-18 -0.9238795325112866
  outer loop
    vertex 425.32314588946133 246.1436562209639 65.27851787087893
    vertex 426.8908220962949 249.1436562209636 64.62916512459883
    vertex 426.8908220962949 246.1436562209639 64.62916512459883
  endloop
endfacet
facet normal -0.3826834323650905 -5.310799471928841e-18 -0.9238795325112866
  outer loop
    vertex 426.8908220962949 249.1436562209636 64.62916512459883
    vertex 425.32314588946133 246.1436562209639 65.27851787087893
    vertex 425.32314588946133 249.1436562209636 65.27851787087893
  endloop
endfacet
facet normal -0.13052619222005366 -1.811414798991907e-18 -0.9914448613738102
  outer loop
    vertex 423.6408220962949 246.1436562209639 65.49999999999999
    vertex 425.32314588946133 249.1436562209636 65.27851787087893
    vertex 425.32314588946133 246.1436562209639 65.27851787087893
  endloop
endfacet
facet normal -0.13052619222005366 -1.811414798991907e-18 -0.9914448613738102
  outer loop
    vertex 425.32314588946133 249.1436562209636 65.27851787087893
    vertex 423.6408220962949 246.1436562209639 65.49999999999999
    vertex 423.6408220962949 249.1436562209636 65.49999999999999
  endloop
endfacet
facet normal 0.13052619222005366 1.811414798991907e-18 -0.9914448613738102
  outer loop
    vertex 421.9584983031286 246.1436562209639 65.27851787087893
    vertex 423.6408220962949 249.1436562209636 65.49999999999999
    vertex 423.6408220962949 246.1436562209639 65.49999999999999
  endloop
endfacet
facet normal 0.13052619222005366 1.811414798991907e-18 -0.9914448613738102
  outer loop
    vertex 423.6408220962949 249.1436562209636 65.49999999999999
    vertex 421.9584983031286 246.1436562209639 65.27851787087893
    vertex 421.9584983031286 249.1436562209636 65.27851787087893
  endloop
endfacet
facet normal -0.9238795325112874 -1.2821404112174657e-17 0.382683432365088
  outer loop
    vertex 455.41580099745624 246.14365622096395 55.74999999999996
    vertex 456.06515374373635 249.14365622096366 57.31767620683358
    vertex 455.41580099745624 249.14365622096366 55.74999999999996
  endloop
endfacet
facet normal -0.9238795325112874 -1.2821404112174657e-17 0.382683432365088
  outer loop
    vertex 456.06515374373635 249.14365622096366 57.31767620683358
    vertex 455.41580099745624 246.14365622096395 55.74999999999996
    vertex 456.06515374373635 246.14365622096395 57.31767620683358
  endloop
endfacet
facet normal -0.9914448613738154 -1.3759061409293896e-17 0.13052619222001446
  outer loop
    vertex 456.06515374373635 246.14365622096395 57.31767620683358
    vertex 456.28663587285735 249.14365622096366 58.99999999999996
    vertex 456.06515374373635 249.14365622096366 57.31767620683358
  endloop
endfacet
facet normal -0.9914448613738154 -1.3759061409293896e-17 0.13052619222001446
  outer loop
    vertex 456.28663587285735 249.14365622096366 58.99999999999996
    vertex 456.06515374373635 246.14365622096395 57.31767620683358
    vertex 456.28663587285735 246.14365622096395 58.99999999999996
  endloop
endfacet
facet normal -0.9914448613738155 -1.3759061409293765e-17 -0.1305261922200136
  outer loop
    vertex 456.28663587285735 246.14365622096395 58.99999999999996
    vertex 456.06515374373635 249.14365622096366 60.68232379316634
    vertex 456.28663587285735 249.14365622096366 58.99999999999996
  endloop
endfacet
facet normal -0.9914448613738155 -1.3759061409293765e-17 -0.1305261922200136
  outer loop
    vertex 456.06515374373635 249.14365622096366 60.68232379316634
    vertex 456.28663587285735 246.14365622096395 58.99999999999996
    vertex 456.06515374373635 246.14365622096395 60.68232379316634
  endloop
endfacet
facet normal -0.9238795325112874 -1.2821404112174272e-17 -0.382683432365088
  outer loop
    vertex 456.06515374373635 246.14365622096395 60.68232379316634
    vertex 455.41580099745624 249.14365622096366 62.24999999999995
    vertex 456.06515374373635 249.14365622096366 60.68232379316634
  endloop
endfacet
facet normal -0.9238795325112874 -1.2821404112174272e-17 -0.382683432365088
  outer loop
    vertex 455.41580099745624 249.14365622096366 62.24999999999995
    vertex 456.06515374373635 246.14365622096395 60.68232379316634
    vertex 455.41580099745624 246.14365622096395 62.24999999999995
  endloop
endfacet
facet normal -0.7933533402912339 -1.1009989313182255e-17 -0.6087614290087222
  outer loop
    vertex 455.41580099745624 246.14365622096395 62.24999999999995
    vertex 454.38282995056994 249.14365622096366 63.59619407771252
    vertex 455.41580099745624 249.14365622096366 62.24999999999995
  endloop
endfacet
facet normal -0.7933533402912339 -1.1009989313182255e-17 -0.6087614290087222
  outer loop
    vertex 454.38282995056994 249.14365622096366 63.59619407771252
    vertex 455.41580099745624 246.14365622096395 62.24999999999995
    vertex 454.38282995056994 246.14365622096395 63.59619407771252
  endloop
endfacet
facet normal -0.6087614290087062 -8.448261937364332e-18 -0.7933533402912464
  outer loop
    vertex 453.03663587285735 246.14365622096395 64.62916512459881
    vertex 454.38282995056994 249.14365622096366 63.59619407771252
    vertex 454.38282995056994 246.14365622096395 63.59619407771252
  endloop
endfacet
facet normal -0.6087614290087062 -8.448261937364332e-18 -0.7933533402912464
  outer loop
    vertex 454.38282995056994 249.14365622096366 63.59619407771252
    vertex 453.03663587285735 246.14365622096395 64.62916512459881
    vertex 453.03663587285735 249.14365622096366 64.62916512459881
  endloop
endfacet
facet normal -0.3826834323650905 -5.3107994719283775e-18 -0.9238795325112866
  outer loop
    vertex 451.46895966602375 246.14365622096395 65.2785178708789
    vertex 453.03663587285735 249.14365622096366 64.62916512459881
    vertex 453.03663587285735 246.14365622096395 64.62916512459881
  endloop
endfacet
facet normal -0.3826834323650905 -5.3107994719283775e-18 -0.9238795325112866
  outer loop
    vertex 453.03663587285735 249.14365622096366 64.62916512459881
    vertex 451.46895966602375 246.14365622096395 65.2785178708789
    vertex 451.46895966602375 249.14365622096366 65.2785178708789
  endloop
endfacet
facet normal -0.13052619222005366 -1.811414798991409e-18 -0.9914448613738102
  outer loop
    vertex 449.78663587285735 246.14365622096395 65.49999999999996
    vertex 451.46895966602375 249.14365622096366 65.2785178708789
    vertex 451.46895966602375 246.14365622096395 65.2785178708789
  endloop
endfacet
facet normal -0.13052619222005366 -1.811414798991409e-18 -0.9914448613738102
  outer loop
    vertex 451.46895966602375 249.14365622096366 65.2785178708789
    vertex 449.78663587285735 246.14365622096395 65.49999999999996
    vertex 449.78663587285735 249.14365622096366 65.49999999999996
  endloop
endfacet
facet normal 0.13052619222005366 1.8114147989924045e-18 -0.9914448613738102
  outer loop
    vertex 448.104312079691 246.14365622096395 65.2785178708789
    vertex 449.78663587285735 249.14365622096366 65.49999999999996
    vertex 449.78663587285735 246.14365622096395 65.49999999999996
  endloop
endfacet
facet normal 0.13052619222005366 1.8114147989924045e-18 -0.9914448613738102
  outer loop
    vertex 449.78663587285735 249.14365622096366 65.49999999999996
    vertex 448.104312079691 246.14365622096395 65.2785178708789
    vertex 448.104312079691 249.14365622096366 65.2785178708789
  endloop
endfacet
facet normal 0.3826834323650905 5.310799471929305e-18 -0.9238795325112866
  outer loop
    vertex 446.53663587285735 246.14365622096395 64.62916512459881
    vertex 448.104312079691 249.14365622096366 65.2785178708789
    vertex 448.104312079691 246.14365622096395 65.2785178708789
  endloop
endfacet
facet normal 0.3826834323650905 5.310799471929305e-18 -0.9238795325112866
  outer loop
    vertex 448.104312079691 249.14365622096366 65.2785178708789
    vertex 446.53663587285735 246.14365622096395 64.62916512459881
    vertex 446.53663587285735 249.14365622096366 64.62916512459881
  endloop
endfacet
facet normal 0.6087614290087062 8.448261937365127e-18 -0.7933533402912464
  outer loop
    vertex 445.19044179514475 246.14365622096395 63.59619407771252
    vertex 446.53663587285735 249.14365622096366 64.62916512459881
    vertex 446.53663587285735 246.14365622096395 64.62916512459881
  endloop
endfacet
facet normal 0.6087614290087062 8.448261937365127e-18 -0.7933533402912464
  outer loop
    vertex 446.53663587285735 249.14365622096366 64.62916512459881
    vertex 445.19044179514475 246.14365622096395 63.59619407771252
    vertex 445.19044179514475 249.14365622096366 63.59619407771252
  endloop
endfacet
facet normal 0.7933533402912364 1.1009989313182899e-17 -0.6087614290087191
  outer loop
    vertex 445.19044179514475 246.14365622096395 63.59619407771252
    vertex 444.15747074825845 249.14365622096366 62.24999999999995
    vertex 445.19044179514475 249.14365622096366 63.59619407771252
  endloop
endfacet
facet normal 0.7933533402912364 1.1009989313182899e-17 -0.6087614290087191
  outer loop
    vertex 444.15747074825845 249.14365622096366 62.24999999999995
    vertex 445.19044179514475 246.14365622096395 63.59619407771252
    vertex 444.15747074825845 246.14365622096395 62.24999999999995
  endloop
endfacet
facet normal 0.9238795325112874 1.2821404112174657e-17 -0.382683432365088
  outer loop
    vertex 444.15747074825845 246.14365622096395 62.24999999999995
    vertex 443.5081180019784 249.14365622096366 60.68232379316634
    vertex 444.15747074825845 249.14365622096366 62.24999999999995
  endloop
endfacet
facet normal 0.9238795325112874 1.2821404112174657e-17 -0.382683432365088
  outer loop
    vertex 443.5081180019784 249.14365622096366 60.68232379316634
    vertex 444.15747074825845 246.14365622096395 62.24999999999995
    vertex 443.5081180019784 246.14365622096395 60.68232379316634
  endloop
endfacet
facet normal 0.9914448613738154 1.3759061409293896e-17 -0.13052619222001446
  outer loop
    vertex 443.5081180019784 246.14365622096395 60.68232379316634
    vertex 443.2866358728574 249.14365622096366 58.99999999999996
    vertex 443.5081180019784 249.14365622096366 60.68232379316634
  endloop
endfacet
facet normal 0.9914448613738154 1.3759061409293896e-17 -0.13052619222001446
  outer loop
    vertex 443.2866358728574 249.14365622096366 58.99999999999996
    vertex 443.5081180019784 246.14365622096395 60.68232379316634
    vertex 443.2866358728574 246.14365622096395 58.99999999999996
  endloop
endfacet
facet normal 0.9914448613738154 1.3759061409293763e-17 0.13052619222001446
  outer loop
    vertex 443.2866358728574 246.14365622096395 58.99999999999996
    vertex 443.5081180019784 249.14365622096366 57.31767620683358
    vertex 443.2866358728574 249.14365622096366 58.99999999999996
  endloop
endfacet
facet normal 0.9914448613738154 1.3759061409293763e-17 0.13052619222001446
  outer loop
    vertex 443.5081180019784 249.14365622096366 57.31767620683358
    vertex 443.2866358728574 246.14365622096395 58.99999999999996
    vertex 443.5081180019784 246.14365622096395 57.31767620683358
  endloop
endfacet
facet normal 0.9238795325112884 1.2821404112174286e-17 0.3826834323650857
  outer loop
    vertex 443.5081180019784 246.14365622096395 57.31767620683358
    vertex 444.15747074825845 249.14365622096366 55.74999999999996
    vertex 443.5081180019784 249.14365622096366 57.31767620683358
  endloop
endfacet
facet normal 0.9238795325112884 1.2821404112174286e-17 0.3826834323650857
  outer loop
    vertex 444.15747074825845 249.14365622096366 55.74999999999996
    vertex 443.5081180019784 246.14365622096395 57.31767620683358
    vertex 444.15747074825845 246.14365622096395 55.74999999999996
  endloop
endfacet
facet normal 0.7933533402912339 1.1009989313182255e-17 0.6087614290087222
  outer loop
    vertex 444.15747074825845 246.14365622096395 55.74999999999996
    vertex 445.19044179514475 249.14365622096366 54.40380592228739
    vertex 444.15747074825845 249.14365622096366 55.74999999999996
  endloop
endfacet
facet normal 0.7933533402912339 1.1009989313182255e-17 0.6087614290087222
  outer loop
    vertex 445.19044179514475 249.14365622096366 54.40380592228739
    vertex 444.15747074825845 246.14365622096395 55.74999999999996
    vertex 445.19044179514475 246.14365622096395 54.40380592228739
  endloop
endfacet
facet normal 0.6087614290087062 8.448261937364332e-18 0.7933533402912464
  outer loop
    vertex 445.19044179514475 249.14365622096366 54.40380592228739
    vertex 446.53663587285735 246.14365622096395 53.370834875401094
    vertex 446.53663587285735 249.14365622096366 53.370834875401094
  endloop
endfacet
facet normal 0.6087614290087062 8.448261937364332e-18 0.7933533402912464
  outer loop
    vertex 446.53663587285735 246.14365622096395 53.370834875401094
    vertex 445.19044179514475 249.14365622096366 54.40380592228739
    vertex 445.19044179514475 246.14365622096395 54.40380592228739
  endloop
endfacet
facet normal 0.3826834323650905 5.3107994719283775e-18 0.9238795325112866
  outer loop
    vertex 446.53663587285735 249.14365622096366 53.370834875401094
    vertex 448.104312079691 246.14365622096395 52.72148212912101
    vertex 448.104312079691 249.14365622096366 52.72148212912101
  endloop
endfacet
facet normal 0.3826834323650905 5.3107994719283775e-18 0.9238795325112866
  outer loop
    vertex 448.104312079691 246.14365622096395 52.72148212912101
    vertex 446.53663587285735 249.14365622096366 53.370834875401094
    vertex 446.53663587285735 246.14365622096395 53.370834875401094
  endloop
endfacet
facet normal 0.13052619222005366 1.811414798991409e-18 0.9914448613738102
  outer loop
    vertex 448.104312079691 249.14365622096366 52.72148212912101
    vertex 449.78663587285735 246.14365622096395 52.49999999999995
    vertex 449.78663587285735 249.14365622096366 52.49999999999995
  endloop
endfacet
facet normal 0.13052619222005366 1.811414798991409e-18 0.9914448613738102
  outer loop
    vertex 449.78663587285735 246.14365622096395 52.49999999999995
    vertex 448.104312079691 249.14365622096366 52.72148212912101
    vertex 448.104312079691 246.14365622096395 52.72148212912101
  endloop
endfacet
facet normal -0.13052619222005366 -1.8114147989924045e-18 0.9914448613738102
  outer loop
    vertex 449.78663587285735 249.14365622096366 52.49999999999995
    vertex 451.46895966602375 246.14365622096395 52.72148212912101
    vertex 451.46895966602375 249.14365622096366 52.72148212912101
  endloop
endfacet
facet normal -0.13052619222005366 -1.8114147989924045e-18 0.9914448613738102
  outer loop
    vertex 451.46895966602375 246.14365622096395 52.72148212912101
    vertex 449.78663587285735 249.14365622096366 52.49999999999995
    vertex 449.78663587285735 246.14365622096395 52.49999999999995
  endloop
endfacet
facet normal -0.3826834323650905 -5.310799471929305e-18 0.9238795325112866
  outer loop
    vertex 451.46895966602375 249.14365622096366 52.72148212912101
    vertex 453.03663587285735 246.14365622096395 53.370834875401094
    vertex 453.03663587285735 249.14365622096366 53.370834875401094
  endloop
endfacet
facet normal -0.3826834323650905 -5.310799471929305e-18 0.9238795325112866
  outer loop
    vertex 453.03663587285735 246.14365622096395 53.370834875401094
    vertex 451.46895966602375 249.14365622096366 52.72148212912101
    vertex 451.46895966602375 246.14365622096395 52.72148212912101
  endloop
endfacet
facet normal -0.6087614290087062 -8.448261937365127e-18 0.7933533402912464
  outer loop
    vertex 453.03663587285735 249.14365622096366 53.370834875401094
    vertex 454.38282995056994 246.14365622096395 54.40380592228739
    vertex 454.38282995056994 249.14365622096366 54.40380592228739
  endloop
endfacet
facet normal -0.6087614290087062 -8.448261937365127e-18 0.7933533402912464
  outer loop
    vertex 454.38282995056994 246.14365622096395 54.40380592228739
    vertex 453.03663587285735 249.14365622096366 53.370834875401094
    vertex 453.03663587285735 246.14365622096395 53.370834875401094
  endloop
endfacet
facet normal -0.7933533402912364 -1.1009989313182899e-17 0.6087614290087191
  outer loop
    vertex 454.38282995056994 246.14365622096395 54.40380592228739
    vertex 455.41580099745624 249.14365622096366 55.74999999999996
    vertex 454.38282995056994 249.14365622096366 54.40380592228739
  endloop
endfacet
facet normal -0.7933533402912364 -1.1009989313182899e-17 0.6087614290087191
  outer loop
    vertex 455.41580099745624 249.14365622096366 55.74999999999996
    vertex 454.38282995056994 246.14365622096395 54.40380592228739
    vertex 455.41580099745624 246.14365622096395 55.74999999999996
  endloop
endfacet
facet normal 0.0 1.0 0.0
  outer loop
    vertex 411.7137289845762 252.14365622096366 72.09326673973656
    vertex 464.7137289845761 252.14365622096366 69.09326673973656
    vertex 408.7137289845762 252.14365622096366 69.09326673973656
  endloop
endfacet
facet normal 0.0 1.0 0.0
  outer loop
    vertex 464.7137289845761 252.14365622096366 69.09326673973656
    vertex 411.7137289845762 252.14365622096366 72.09326673973656
    vertex 461.71372898457616 252.14365622096366 72.09326673973656
  endloop
endfacet
facet normal 0.0 0.0 -1.0
  outer loop
    vertex 408.7137289845762 249.14365622096366 69.09326673973656
    vertex 464.7137289845761 252.14365622096366 69.09326673973656
    vertex 464.7137289845761 249.14365622096366 69.09326673973656
  endloop
endfacet
facet normal 0.0 0.0 -1.0
  outer loop
    vertex 464.7137289845761 252.14365622096366 69.09326673973656
    vertex 408.7137289845762 249.14365622096366 69.09326673973656
    vertex 408.7137289845762 252.14365622096366 69.09326673973656
  endloop
endfacet
facet normal 9.39988827515966e-17 -1.8799776550319353e-15 1.0
  outer loop
    vertex 406.7137289845762 249.14365622096366 45.99999999999999
    vertex 466.71372898457616 246.14365622096366 45.999999999999986
    vertex 466.71372898457616 249.14365622096366 45.999999999999986
  endloop
endfacet
facet normal 9.39988827515966e-17 -1.8799776550319353e-15 1.0
  outer loop
    vertex 466.71372898457616 246.14365622096366 45.999999999999986
    vertex 406.7137289845762 249.14365622096366 45.99999999999999
    vertex 406.7137289845762 246.14365622096366 45.999999999999986
  endloop
endfacet
facet normal -1.0 0.0 0.0
  outer loop
    vertex 411.7137289845762 276.1436562209637 86.09326673973656
    vertex 411.7137289845762 246.14365622096366 72.09326673973656
    vertex 411.7137289845762 246.14365622096366 86.09326673973656
  endloop
endfacet
facet normal -1.0 0.0 0.0
  outer loop
    vertex 411.7137289845762 246.14365622096366 72.09326673973656
    vertex 411.7137289845762 276.1436562209637 86.09326673973656
    vertex 411.7137289845762 255.14365622096366 75.09326673973656
  endloop
endfacet
facet normal -1.0 0.0 0.0
  outer loop
    vertex 411.7137289845762 246.14365622096366 72.09326673973656
    vertex 411.7137289845762 255.14365622096366 75.09326673973656
    vertex 411.7137289845762 252.14365622096366 72.09326673973656
  endloop
endfacet
facet normal -1.0 0.0 0.0
  outer loop
    vertex 411.7137289845762 255.14365622096366 75.09326673973656
    vertex 411.7137289845762 276.1436562209637 86.09326673973656
    vertex 411.7137289845762 276.1436562209637 75.09326673973656
  endloop
endfacet
facet normal 0.0 0.7071067811865489 -0.7071067811865462
  outer loop
    vertex 411.7137289845762 255.14365622096366 75.09326673973656
    vertex 438.7137289845762 252.14365622096366 72.09326673973656
    vertex 411.7137289845762 252.14365622096366 72.09326673973656
  endloop
endfacet
facet normal 0.0 0.7071067811865489 -0.7071067811865462
  outer loop
    vertex 438.7137289845762 252.14365622096366 72.09326673973656
    vertex 411.7137289845762 255.14365622096366 75.09326673973656
    vertex 438.7137289845762 255.14365622096366 75.09326673973656
  endloop
endfacet
facet normal 1.0 0.0 0.0
  outer loop
    vertex 438.7137289845762 252.14365622096366 72.09326673973656
    vertex 438.7137289845762 246.14365622096366 86.09326673973656
    vertex 438.7137289845762 246.14365622096366 72.09326673973656
  endloop
endfacet
facet normal 1.0 0.0 0.0
  outer loop
    vertex 438.7137289845762 246.14365622096366 86.09326673973656
    vertex 438.7137289845762 252.14365622096366 72.09326673973656
    vertex 438.7137289845762 255.14365622096366 75.09326673973656
  endloop
endfacet
facet normal 1.0 0.0 0.0
  outer loop
    vertex 438.7137289845762 246.14365622096366 86.09326673973656
    vertex 438.7137289845762 255.14365622096366 75.09326673973656
    vertex 438.7137289845762 276.1436562209637 86.09326673973656
  endloop
endfacet
facet normal 1.0 0.0 0.0
  outer loop
    vertex 438.7137289845762 276.1436562209637 86.09326673973656
    vertex 438.7137289845762 255.14365622096366 75.09326673973656
    vertex 438.7137289845762 276.1436562209637 75.09326673973656
  endloop
endfacet
facet normal 0.0 0.0 -1.0
  outer loop
    vertex 438.7137289845762 252.14365622096366 72.09326673973656
    vertex 411.7137289845762 246.14365622096366 72.09326673973656
    vertex 411.7137289845762 252.14365622096366 72.09326673973656
  endloop
endfacet
facet normal 0.0 0.0 -1.0
  outer loop
    vertex 411.7137289845762 246.14365622096366 72.09326673973656
    vertex 438.7137289845762 252.14365622096366 72.09326673973656
    vertex 438.7137289845762 246.14365622096366 72.09326673973656
  endloop
endfacet
facet normal 0.0 -1.0 0.0
  outer loop
    vertex 438.7137289845762 246.14365622096366 86.09326673973656
    vertex 411.7137289845762 246.14365622096366 72.09326673973656
    vertex 438.7137289845762 246.14365622096366 72.09326673973656
  endloop
endfacet
facet normal 0.0 -1.0 0.0
  outer loop
    vertex 411.7137289845762 246.14365622096366 72.09326673973656
    vertex 438.7137289845762 246.14365622096366 86.09326673973656
    vertex 411.7137289845762 246.14365622096366 86.09326673973656
  endloop
endfacet
facet normal 0.0 0.0 -1.0
  outer loop
    vertex 438.7137289845762 276.1436562209637 75.09326673973656
    vertex 411.7137289845762 255.14365622096366 75.09326673973656
    vertex 411.7137289845762 276.1436562209637 75.09326673973656
  endloop
endfacet
facet normal 0.0 0.0 -1.0
  outer loop
    vertex 411.7137289845762 255.14365622096366 75.09326673973656
    vertex 438.7137289845762 276.1436562209637 75.09326673973656
    vertex 438.7137289845762 255.14365622096366 75.09326673973656
  endloop
endfacet
facet normal 0.0 0.0 1.0
  outer loop
    vertex 438.7137289845762 246.14365622096366 86.09326673973656
    vertex 411.7137289845762 276.1436562209637 86.09326673973656
    vertex 411.7137289845762 246.14365622096366 86.09326673973656
  endloop
endfacet
facet normal 0.0 0.0 1.0
  outer loop
    vertex 411.7137289845762 276.1436562209637 86.09326673973656
    vertex 438.7137289845762 246.14365622096366 86.09326673973656
    vertex 438.7137289845762 276.1436562209637 86.09326673973656
  endloop
endfacet
facet normal 0.0 1.0 0.0
  outer loop
    vertex 411.7137289845762 276.1436562209637 86.09326673973656
    vertex 438.7137289845762 276.1436562209637 75.09326673973656
    vertex 411.7137289845762 276.1436562209637 75.09326673973656
  endloop
endfacet
facet normal 0.0 1.0 0.0
  outer loop
    vertex 438.7137289845762 276.1436562209637 75.09326673973656
    vertex 411.7137289845762 276.1436562209637 86.09326673973656
    vertex 438.7137289845762 276.1436562209637 86.09326673973656
  endloop
endfacet
endsolid Main
