solid Main
facet normal 1.0 8.037129105894143e-16 2.1874260575413513e-16
  outer loop
    vertex 367.4137289845756 205.94365622096373 153.54326673973657
    vertex 367.41372898457655 204.94365622096365 149.54326673973657
    vertex 367.4137289845756 205.94365622096362 149.54326673973657
  endloop
endfacet
facet normal 1.0 8.037129105894143e-16 2.1874260575413513e-16
  outer loop
    vertex 367.41372898457655 204.94365622096365 149.54326673973657
    vertex 367.4137289845756 205.94365622096373 153.54326673973657
    vertex 367.41372898457655 204.9436562209638 153.54326673973657
  endloop
endfacet
facet normal -2.1874260575413649e-16 1.7505697551388376e-15 1.0
  outer loop
    vertex 376.713728984576 174.14365622096372 156.99326673973658
    vertex 373.71372898457554 191.94365622096367 156.99326673973653
    vertex 373.71372898457594 174.14365622096366 156.99326673973658
  endloop
endfacet
facet normal -2.1874260575413649e-16 1.7505697551388376e-15 1.0
  outer loop
    vertex 373.71372898457554 191.94365622096367 156.99326673973653
    vertex 376.713728984576 174.14365622096372 156.99326673973658
    vertex 376.7137289845756 191.94365622096367 156.99326673973653
  endloop
endfacet
facet normal -2.1874260575413649e-16 1.7505697551388376e-15 1.0
  outer loop
    vertex 376.7137289845756 191.94365622096367 164.9932667397367
    vertex 368.2137289845766 208.9436562209636 164.99326673973695
    vertex 368.2137289845763 191.94365622096362 164.9932667397367
  endloop
endfacet
facet normal -2.1874260575413649e-16 1.7505697551388376e-15 1.0
  outer loop
    vertex 368.2137289845766 208.9436562209636 164.99326673973695
    vertex 376.7137289845756 191.94365622096367 164.9932667397367
    vertex 376.71372898457594 208.9436562209636 164.99326673973695
  endloop
endfacet
facet normal -2.1874260575413649e-16 1.7505697551388376e-15 1.0
  outer loop
    vertex 373.71372898457605 168.14365622096363 141.09326673973658
    vertex 369.7137289845767 168.14365622096358 141.09326673973658
    vertex 373.71372898457605 160.14365622096366 141.09326673973686
  endloop
endfacet
facet normal -2.1874260575413649e-16 1.7505697551388376e-15 1.0
  outer loop
    vertex 373.7137289845759 205.9436562209637 141.09326673973652
    vertex 369.71372898457685 174.14365622096366 141.09326673973655
    vertex 373.7137289845762 174.1436562209636 141.09326673973658
  endloop
endfacet
facet normal -2.1874260575413649e-16 1.7505697551388376e-15 1.0
  outer loop
    vertex 369.71372898457685 174.14365622096366 141.09326673973655
    vertex 373.7137289845759 205.9436562209637 141.09326673973652
    vertex 359.7137289845759 205.9436562209635 141.09326673973624
  endloop
endfacet
facet normal -2.1874260575413649e-16 1.7505697551388376e-15 1.0
  outer loop
    vertex 359.7137289845767 160.1436562209636 141.0932667397366
    vertex 369.7137289845767 168.14365622096358 141.09326673973658
    vertex 359.7137289845759 205.9436562209635 141.09326673973624
  endloop
endfacet
facet normal -2.1874260575413649e-16 1.7505697551388376e-15 1.0
  outer loop
    vertex 369.7137289845767 168.14365622096358 141.09326673973658
    vertex 359.7137289845767 160.1436562209636 141.0932667397366
    vertex 373.71372898457605 160.14365622096366 141.09326673973686
  endloop
endfacet
facet normal -2.1874260575413649e-16 1.7505697551388376e-15 1.0
  outer loop
    vertex 359.7137289845759 205.9436562209635 141.09326673973624
    vertex 369.7137289845767 168.14365622096358 141.09326673973658
    vertex 369.71372898457685 174.14365622096366 141.09326673973655
  endloop
endfacet
facet normal -0.9421870345999995 -1.706539477111552e-16 0.3350874390836806
  outer loop
    vertex 363.2702143402249 157.14365622096363 151.0932667397364
    vertex 359.7137289845767 160.1436562209636 141.0932667397366
    vertex 359.7137289845766 157.1436562209636 141.09326673973632
  endloop
endfacet
facet normal -0.9421870345999995 -1.706539477111552e-16 0.3350874390836806
  outer loop
    vertex 359.7137289845767 160.1436562209636 141.0932667397366
    vertex 363.2702143402249 157.14365622096363 151.0932667397364
    vertex 367.14678337788183 160.14365622096363 161.99326673973698
  endloop
endfacet
facet normal -0.9421870345999995 -1.706539477111552e-16 0.3350874390836806
  outer loop
    vertex 367.14678337788183 160.14365622096363 161.99326673973698
    vertex 363.2702143402249 157.14365622096363 151.0932667397364
    vertex 368.2137289845764 157.14365622096366 164.99326673973675
  endloop
endfacet
facet normal -0.9421870345999995 -1.706539477111552e-16 0.3350874390836806
  outer loop
    vertex 367.14678337788183 160.14365622096363 161.99326673973698
    vertex 368.2137289845765 174.14365622096366 164.99326673973675
    vertex 367.14678337788195 174.14365622096366 161.9932667397367
  endloop
endfacet
facet normal -0.9421870345999995 -1.706539477111552e-16 0.3350874390836806
  outer loop
    vertex 368.2137289845765 174.14365622096366 164.99326673973675
    vertex 367.14678337788183 160.14365622096363 161.99326673973698
    vertex 368.2137289845764 157.14365622096366 164.99326673973675
  endloop
endfacet
facet normal 8.037129105894139e-16 -1.0 1.7505697551388378e-15
  outer loop
    vertex 367.1467833778814 205.94365622096365 161.99326673973664
    vertex 365.91372898457564 205.94365622096342 153.54326673973657
    vertex 366.9137289845756 205.94365622096356 153.54326673973657
  endloop
endfacet
facet normal 8.037129105894139e-16 -1.0 1.7505697551388378e-15
  outer loop
    vertex 365.91372898457564 205.94365622096342 153.54326673973657
    vertex 367.1467833778814 205.94365622096365 161.99326673973664
    vertex 359.7137289845759 205.9436562209635 141.09326673973624
  endloop
endfacet
facet normal 8.037129105894139e-16 -1.0 1.7505697551388378e-15
  outer loop
    vertex 365.91372898457564 205.94365622096342 153.54326673973657
    vertex 359.7137289845759 205.9436562209635 141.09326673973624
    vertex 365.9137289845756 205.9436562209637 149.54326673973657
  endloop
endfacet
facet normal 8.037129105894139e-16 -1.0 1.7505697551388378e-15
  outer loop
    vertex 367.1467833778814 205.94365622096365 161.99326673973664
    vertex 373.7137289845759 205.9436562209637 141.09326673973652
    vertex 373.7137289845759 205.94365622096373 161.99326673973664
  endloop
endfacet
facet normal 8.037129105894139e-16 -1.0 1.7505697551388378e-15
  outer loop
    vertex 373.7137289845759 205.9436562209637 141.09326673973652
    vertex 367.1467833778814 205.94365622096365 161.99326673973664
    vertex 366.9137289845756 205.9436562209635 149.54326673973657
  endloop
endfacet
facet normal 8.037129105894139e-16 -1.0 1.7505697551388378e-15
  outer loop
    vertex 373.7137289845759 205.9436562209637 141.09326673973652
    vertex 366.9137289845756 205.9436562209635 149.54326673973657
    vertex 359.7137289845759 205.9436562209635 141.09326673973624
  endloop
endfacet
facet normal 8.037129105894139e-16 -1.0 1.7505697551388378e-15
  outer loop
    vertex 366.9137289845756 205.9436562209635 149.54326673973657
    vertex 367.1467833778814 205.94365622096365 161.99326673973664
    vertex 366.9137289845756 205.94365622096356 153.54326673973657
  endloop
endfacet
facet normal 8.037129105894139e-16 -1.0 1.7505697551388378e-15
  outer loop
    vertex 359.7137289845759 205.9436562209635 141.09326673973624
    vertex 366.9137289845756 205.9436562209635 149.54326673973657
    vertex 365.9137289845756 205.9436562209637 149.54326673973657
  endloop
endfacet
facet normal -8.037129105894139e-16 1.0 -1.7505697551388378e-15
  outer loop
    vertex 373.71372898457605 160.14365622096366 141.09326673973686
    vertex 366.91372898457644 160.14365622096363 149.54326673973694
    vertex 373.71372898457577 160.14365622096363 161.99326673973698
  endloop
endfacet
facet normal -8.037129105894139e-16 1.0 -1.7505697551388378e-15
  outer loop
    vertex 366.91372898457644 160.14365622096363 149.54326673973694
    vertex 373.71372898457605 160.14365622096366 141.09326673973686
    vertex 359.7137289845767 160.1436562209636 141.0932667397366
  endloop
endfacet
facet normal -8.037129105894139e-16 1.0 -1.7505697551388378e-15
  outer loop
    vertex 373.71372898457577 160.14365622096363 161.99326673973698
    vertex 366.91372898457644 160.14365622096363 149.54326673973694
    vertex 367.14678337788183 160.14365622096363 161.99326673973698
  endloop
endfacet
facet normal -8.037129105894139e-16 1.0 -1.7505697551388378e-15
  outer loop
    vertex 366.91372898457644 160.14365622096363 149.54326673973694
    vertex 359.7137289845767 160.1436562209636 141.0932667397366
    vertex 365.9137289845764 160.14365622096363 149.54326673973694
  endloop
endfacet
facet normal -8.037129105894139e-16 1.0 -1.7505697551388378e-15
  outer loop
    vertex 365.9137289845764 160.14365622096363 149.54326673973694
    vertex 359.7137289845767 160.1436562209636 141.0932667397366
    vertex 365.9137289845764 160.14365622096363 153.54326673973694
  endloop
endfacet
facet normal -8.037129105894139e-16 1.0 -1.7505697551388378e-15
  outer loop
    vertex 367.14678337788183 160.14365622096363 161.99326673973698
    vertex 365.9137289845764 160.14365622096363 153.54326673973694
    vertex 359.7137289845767 160.1436562209636 141.0932667397366
  endloop
endfacet
facet normal -8.037129105894139e-16 1.0 -1.7505697551388378e-15
  outer loop
    vertex 365.9137289845764 160.14365622096363 153.54326673973694
    vertex 367.14678337788183 160.14365622096363 161.99326673973698
    vertex 366.91372898457644 160.14365622096363 153.54326673973694
  endloop
endfacet
facet normal -8.037129105894139e-16 1.0 -1.7505697551388378e-15
  outer loop
    vertex 366.91372898457644 160.14365622096363 153.54326673973694
    vertex 367.14678337788183 160.14365622096363 161.99326673973698
    vertex 366.91372898457644 160.14365622096363 149.54326673973694
  endloop
endfacet
facet normal -1.0 -4.401231293761205e-15 -2.8669265917895305e-14
  outer loop
    vertex 359.7137289845756 218.94365622096362 138.09326673973735
    vertex 359.71372898457696 195.0436562209637 138.09326673973712
    vertex 359.71372898457616 171.04365622096432 138.09326673973717
  endloop
endfacet
facet normal -1.0 -4.401231293761205e-15 -2.8669265917895305e-14
  outer loop
    vertex 359.7137289845769 147.14365622096366 138.09326673973632
    vertex 359.7137289845766 157.1436562209636 141.09326673973632
    vertex 359.71372898457616 171.04365622096432 138.09326673973717
  endloop
endfacet
facet normal -1.0 -4.401231293761205e-15 -2.8669265917895305e-14
  outer loop
    vertex 359.7137289845766 157.1436562209636 141.09326673973632
    vertex 359.7137289845769 147.14365622096366 138.09326673973632
    vertex 359.7137289845766 147.14365622096363 151.0932667397364
  endloop
endfacet
facet normal -1.0 -4.401231293761205e-15 -2.8669265917895305e-14
  outer loop
    vertex 359.71372898457616 171.04365622096432 138.09326673973717
    vertex 359.7137289845766 157.1436562209636 141.09326673973632
    vertex 359.7137289845756 218.94365622096362 138.09326673973735
  endloop
endfacet
facet normal -1.0 -4.401231293761205e-15 -2.8669265917895305e-14
  outer loop
    vertex 359.7137289845766 157.1436562209636 141.09326673973632
    vertex 359.7137289845766 147.14365622096363 151.0932667397364
    vertex 359.71372898457633 157.14365622096363 151.0932667397364
  endloop
endfacet
facet normal -1.0 -4.401231293761205e-15 -2.8669265917895305e-14
  outer loop
    vertex 359.7137289845767 160.1436562209636 141.0932667397366
    vertex 359.7137289845759 205.9436562209635 141.09326673973624
    vertex 359.7137289845766 157.1436562209636 141.09326673973632
  endloop
endfacet
facet normal -1.0 -4.401231293761205e-15 -2.8669265917895305e-14
  outer loop
    vertex 359.7137289845756 218.94365622096362 138.09326673973735
    vertex 359.71372898457685 208.94365622096365 141.09326673973652
    vertex 359.71372898457537 218.94365622096373 151.09326673973655
  endloop
endfacet
facet normal -1.0 -4.401231293761205e-15 -2.8669265917895305e-14
  outer loop
    vertex 359.71372898457685 208.94365622096365 141.09326673973652
    vertex 359.7137289845756 218.94365622096362 138.09326673973735
    vertex 359.7137289845759 205.9436562209635 141.09326673973624
  endloop
endfacet
facet normal -1.0 -4.401231293761205e-15 -2.8669265917895305e-14
  outer loop
    vertex 359.7137289845759 205.9436562209635 141.09326673973624
    vertex 359.7137289845756 218.94365622096362 138.09326673973735
    vertex 359.7137289845766 157.1436562209636 141.09326673973632
  endloop
endfacet
facet normal -1.0 -4.401231293761205e-15 -2.8669265917895305e-14
  outer loop
    vertex 359.71372898457537 218.94365622096373 151.09326673973655
    vertex 359.71372898457685 208.94365622096365 141.09326673973652
    vertex 359.71372898457656 208.94365622096365 151.09326673973658
  endloop
endfacet
facet normal -2.7234385121561113e-15 -1.0 -2.7005741116884144e-15
  outer loop
    vertex 368.2137289845764 157.14365622096366 164.99326673973675
    vertex 376.7137289845755 157.1436562209637 154.09326673973672
    vertex 376.71372898457565 157.14365622096352 164.99326673973675
  endloop
endfacet
facet normal -2.7234385121561113e-15 -1.0 -2.7005741116884144e-15
  outer loop
    vertex 376.7137289845755 157.1436562209637 154.09326673973672
    vertex 368.2137289845764 157.14365622096366 164.99326673973675
    vertex 373.7137289845757 157.1436562209637 154.09326673973672
  endloop
endfacet
facet normal -2.7234385121561113e-15 -1.0 -2.7005741116884144e-15
  outer loop
    vertex 373.7137289845757 157.1436562209637 154.09326673973672
    vertex 368.2137289845764 157.14365622096366 164.99326673973675
    vertex 370.7137289845759 157.14365622096363 151.09326673973666
  endloop
endfacet
facet normal -2.7234385121561113e-15 -1.0 -2.7005741116884144e-15
  outer loop
    vertex 370.7137289845759 157.14365622096363 151.09326673973666
    vertex 368.2137289845764 157.14365622096366 164.99326673973675
    vertex 363.2702143402249 157.14365622096363 151.0932667397364
  endloop
endfacet
facet normal -2.187426057541365e-16 1.7505697551388376e-15 1.0
  outer loop
    vertex 376.7137289845757 160.14365622096363 164.99326673973675
    vertex 368.2137289845764 157.14365622096366 164.99326673973675
    vertex 376.71372898457565 157.14365622096352 164.99326673973675
  endloop
endfacet
facet normal -2.187426057541365e-16 1.7505697551388376e-15 1.0
  outer loop
    vertex 368.2137289845764 157.14365622096366 164.99326673973675
    vertex 376.7137289845757 160.14365622096363 164.99326673973675
    vertex 368.2137289845765 174.14365622096366 164.99326673973675
  endloop
endfacet
facet normal -2.187426057541365e-16 1.7505697551388376e-15 1.0
  outer loop
    vertex 368.2137289845765 174.14365622096366 164.99326673973675
    vertex 376.7137289845757 160.14365622096363 164.99326673973675
    vertex 376.7137289845759 174.14365622096372 164.99326673973675
  endloop
endfacet
facet normal -0.9421870345999995 -2.8422631429243995e-16 0.33508743908368055
  outer loop
    vertex 368.2137289845763 191.94365622096362 164.9932667397367
    vertex 367.1467833778814 205.94365622096365 161.99326673973664
    vertex 367.1467833778816 191.94365622096362 161.99326673973667
  endloop
endfacet
facet normal -0.9421870345999995 -2.8422631429243995e-16 0.33508743908368055
  outer loop
    vertex 367.1467833778814 205.94365622096365 161.99326673973664
    vertex 359.71372898457685 208.94365622096365 141.09326673973652
    vertex 359.7137289845759 205.9436562209635 141.09326673973624
  endloop
endfacet
facet normal -0.9421870345999995 -2.8422631429243995e-16 0.33508743908368055
  outer loop
    vertex 359.71372898457685 208.94365622096365 141.09326673973652
    vertex 367.1467833778814 205.94365622096365 161.99326673973664
    vertex 363.27021434022515 208.94365622096328 151.09326673973658
  endloop
endfacet
facet normal -0.9421870345999995 -2.8422631429243995e-16 0.33508743908368055
  outer loop
    vertex 363.27021434022515 208.94365622096328 151.09326673973658
    vertex 367.1467833778814 205.94365622096365 161.99326673973664
    vertex 368.2137289845766 208.9436562209636 164.99326673973695
  endloop
endfacet
facet normal -0.9421870345999995 -2.8422631429243995e-16 0.33508743908368055
  outer loop
    vertex 368.2137289845766 208.9436562209636 164.99326673973695
    vertex 367.1467833778814 205.94365622096365 161.99326673973664
    vertex 368.2137289845763 191.94365622096362 164.9932667397367
  endloop
endfacet
facet normal -8.037129105894139e-16 1.0 -1.7505697551388378e-15
  outer loop
    vertex 373.71372898457594 174.14365622096366 156.99326673973658
    vertex 376.7137289845759 174.14365622096372 164.99326673973675
    vertex 376.713728984576 174.14365622096372 156.99326673973658
  endloop
endfacet
facet normal -8.037129105894139e-16 1.0 -1.7505697551388378e-15
  outer loop
    vertex 376.7137289845759 174.14365622096372 164.99326673973675
    vertex 373.71372898457594 174.14365622096366 156.99326673973658
    vertex 373.7137289845758 174.14365622096366 161.9932667397367
  endloop
endfacet
facet normal -8.037129105894139e-16 1.0 -1.7505697551388378e-15
  outer loop
    vertex 376.7137289845759 174.14365622096372 164.99326673973675
    vertex 373.7137289845758 174.14365622096366 161.9932667397367
    vertex 368.2137289845765 174.14365622096366 164.99326673973675
  endloop
endfacet
facet normal -8.037129105894139e-16 1.0 -1.7505697551388378e-15
  outer loop
    vertex 368.2137289845765 174.14365622096366 164.99326673973675
    vertex 373.7137289845758 174.14365622096366 161.9932667397367
    vertex 367.14678337788195 174.14365622096366 161.9932667397367
  endloop
endfacet
facet normal -1.0 -8.097052424500443e-16 -3.956032498114647e-16
  outer loop
    vertex 373.71372898457605 160.14365622096366 141.09326673973686
    vertex 373.71372898457577 168.14365622096366 144.09326673973663
    vertex 373.71372898457605 168.14365622096363 141.09326673973658
  endloop
endfacet
facet normal -1.0 -8.097052424500443e-16 -3.956032498114647e-16
  outer loop
    vertex 373.71372898457577 168.14365622096366 144.09326673973663
    vertex 373.71372898457605 160.14365622096366 141.09326673973686
    vertex 373.71372898457577 160.14365622096363 161.99326673973698
  endloop
endfacet
facet normal -1.0 -8.097052424500443e-16 -3.956032498114647e-16
  outer loop
    vertex 373.71372898457577 168.14365622096366 144.09326673973663
    vertex 373.71372898457577 160.14365622096363 161.99326673973698
    vertex 373.71372898457594 174.14365622096363 144.09326673973663
  endloop
endfacet
facet normal -1.0 -8.097052424500443e-16 -3.956032498114647e-16
  outer loop
    vertex 373.71372898457594 174.14365622096363 144.09326673973663
    vertex 373.71372898457577 160.14365622096363 161.99326673973698
    vertex 373.71372898457565 192.64365622096372 150.04326673973668
  endloop
endfacet
facet normal -1.0 -8.097052424500443e-16 -3.956032498114647e-16
  outer loop
    vertex 373.71372898457565 192.64365622096372 150.04326673973668
    vertex 373.71372898457577 160.14365622096363 161.99326673973698
    vertex 373.71372898457594 174.14365622096366 156.99326673973658
  endloop
endfacet
facet normal -1.0 -8.097052424500443e-16 -3.956032498114647e-16
  outer loop
    vertex 373.71372898457565 192.64365622096372 150.04326673973668
    vertex 373.71372898457594 174.14365622096366 156.99326673973658
    vertex 373.71372898457565 192.64365622096378 153.0432667397367
  endloop
endfacet
facet normal -1.0 -8.097052424500443e-16 -3.956032498114647e-16
  outer loop
    vertex 373.71372898457565 192.64365622096378 153.0432667397367
    vertex 373.71372898457594 174.14365622096366 156.99326673973658
    vertex 373.7137289845758 195.64365622096375 153.0432667397367
  endloop
endfacet
facet normal -1.0 -8.097052424500443e-16 -3.956032498114647e-16
  outer loop
    vertex 373.7137289845758 195.64365622096375 153.0432667397367
    vertex 373.71372898457594 174.14365622096366 156.99326673973658
    vertex 373.71372898457554 191.94365622096367 156.99326673973653
  endloop
endfacet
facet normal -1.0 -8.097052424500443e-16 -3.956032498114647e-16
  outer loop
    vertex 373.71372898457594 174.14365622096366 156.99326673973658
    vertex 373.71372898457577 160.14365622096363 161.99326673973698
    vertex 373.7137289845758 174.14365622096366 161.9932667397367
  endloop
endfacet
facet normal -1.0 -8.097052424500443e-16 -3.956032498114647e-16
  outer loop
    vertex 373.71372898457594 174.14365622096363 144.09326673973663
    vertex 373.7137289845759 205.9436562209637 141.09326673973652
    vertex 373.7137289845762 174.1436562209636 141.09326673973658
  endloop
endfacet
facet normal -1.0 -8.097052424500443e-16 -3.956032498114647e-16
  outer loop
    vertex 373.7137289845759 205.9436562209637 141.09326673973652
    vertex 373.71372898457594 174.14365622096363 144.09326673973663
    vertex 373.7137289845758 195.64365622096372 150.04326673973668
  endloop
endfacet
facet normal -1.0 -8.097052424500443e-16 -3.956032498114647e-16
  outer loop
    vertex 373.7137289845759 205.9436562209637 141.09326673973652
    vertex 373.7137289845758 195.64365622096372 150.04326673973668
    vertex 373.7137289845759 205.94365622096373 161.99326673973664
  endloop
endfacet
facet normal -1.0 -8.097052424500443e-16 -3.956032498114647e-16
  outer loop
    vertex 373.7137289845758 195.64365622096372 150.04326673973668
    vertex 373.71372898457594 174.14365622096363 144.09326673973663
    vertex 373.71372898457565 192.64365622096372 150.04326673973668
  endloop
endfacet
facet normal -1.0 -8.097052424500443e-16 -3.956032498114647e-16
  outer loop
    vertex 373.7137289845759 205.94365622096373 161.99326673973664
    vertex 373.7137289845758 195.64365622096372 150.04326673973668
    vertex 373.7137289845758 195.64365622096375 153.0432667397367
  endloop
endfacet
facet normal -1.0 -8.097052424500443e-16 -3.956032498114647e-16
  outer loop
    vertex 373.7137289845759 205.94365622096373 161.99326673973664
    vertex 373.7137289845758 195.64365622096375 153.0432667397367
    vertex 373.71372898457554 191.94365622096367 156.99326673973653
  endloop
endfacet
facet normal -1.0 -8.097052424500443e-16 -3.956032498114647e-16
  outer loop
    vertex 373.7137289845759 205.94365622096373 161.99326673973664
    vertex 373.71372898457554 191.94365622096367 156.99326673973653
    vertex 373.71372898457565 191.94365622096362 161.99326673973667
  endloop
endfacet
facet normal -1.0 -8.037129105894145e-16 -3.362412091936299e-16
  outer loop
    vertex 369.7137289845763 192.64365622096358 153.0432667397367
    vertex 369.71372898457645 195.64365622096358 150.04326673973668
    vertex 369.7137289845763 192.64365622096358 150.04326673973668
  endloop
endfacet
facet normal -1.0 -8.037129105894145e-16 -3.362412091936299e-16
  outer loop
    vertex 369.71372898457645 195.64365622096358 150.04326673973668
    vertex 369.7137289845763 192.64365622096358 153.0432667397367
    vertex 369.71372898457645 195.64365622096358 153.0432667397367
  endloop
endfacet
facet normal -8.037129105894139e-16 1.0 -1.7505697551388378e-15
  outer loop
    vertex 369.71372898457645 195.64365622096358 150.04326673973668
    vertex 373.7137289845758 195.64365622096375 153.0432667397367
    vertex 373.7137289845758 195.64365622096372 150.04326673973668
  endloop
endfacet
facet normal -8.037129105894139e-16 1.0 -1.7505697551388378e-15
  outer loop
    vertex 373.7137289845758 195.64365622096375 153.0432667397367
    vertex 369.71372898457645 195.64365622096358 150.04326673973668
    vertex 369.71372898457645 195.64365622096358 153.0432667397367
  endloop
endfacet
facet normal 3.3624120919363013e-16 -1.7505697551388376e-15 -1.0
  outer loop
    vertex 369.71372898457645 195.64365622096358 150.04326673973668
    vertex 373.71372898457565 192.64365622096372 150.04326673973668
    vertex 369.7137289845763 192.64365622096358 150.04326673973668
  endloop
endfacet
facet normal 3.3624120919363013e-16 -1.7505697551388376e-15 -1.0
  outer loop
    vertex 373.71372898457565 192.64365622096372 150.04326673973668
    vertex 369.71372898457645 195.64365622096358 150.04326673973668
    vertex 373.7137289845758 195.64365622096372 150.04326673973668
  endloop
endfacet
facet normal 8.037129105894139e-16 -1.0 1.7505697551388378e-15
  outer loop
    vertex 369.7137289845763 192.64365622096358 153.0432667397367
    vertex 373.71372898457565 192.64365622096372 150.04326673973668
    vertex 373.71372898457565 192.64365622096378 153.0432667397367
  endloop
endfacet
facet normal 8.037129105894139e-16 -1.0 1.7505697551388378e-15
  outer loop
    vertex 373.71372898457565 192.64365622096372 150.04326673973668
    vertex 369.7137289845763 192.64365622096358 153.0432667397367
    vertex 369.7137289845763 192.64365622096358 150.04326673973668
  endloop
endfacet
facet normal -3.3624120919363013e-16 1.7505697551388376e-15 1.0
  outer loop
    vertex 373.71372898457565 192.64365622096378 153.0432667397367
    vertex 369.71372898457645 195.64365622096358 153.0432667397367
    vertex 369.7137289845763 192.64365622096358 153.0432667397367
  endloop
endfacet
facet normal -3.3624120919363013e-16 1.7505697551388376e-15 1.0
  outer loop
    vertex 369.71372898457645 195.64365622096358 153.0432667397367
    vertex 373.71372898457565 192.64365622096378 153.0432667397367
    vertex 373.7137289845758 195.64365622096375 153.0432667397367
  endloop
endfacet
facet normal -1.0 -8.037129105894143e-16 -2.1874260575413513e-16
  outer loop
    vertex 369.7137289845764 168.14365622096366 144.09326673973663
    vertex 369.71372898457685 174.14365622096366 141.09326673973655
    vertex 369.7137289845767 168.14365622096358 141.09326673973658
  endloop
endfacet
facet normal -1.0 -8.037129105894143e-16 -2.1874260575413513e-16
  outer loop
    vertex 369.71372898457685 174.14365622096366 141.09326673973655
    vertex 369.7137289845764 168.14365622096366 144.09326673973663
    vertex 369.7137289845766 174.14365622096363 144.0932667397366
  endloop
endfacet
facet normal 8.037129105894139e-16 -1.0 1.7505697551388378e-15
  outer loop
    vertex 373.71372898457577 168.14365622096366 144.09326673973663
    vertex 369.7137289845767 168.14365622096358 141.09326673973658
    vertex 373.71372898457605 168.14365622096363 141.09326673973658
  endloop
endfacet
facet normal 8.037129105894139e-16 -1.0 1.7505697551388378e-15
  outer loop
    vertex 369.7137289845767 168.14365622096358 141.09326673973658
    vertex 373.71372898457577 168.14365622096366 144.09326673973663
    vertex 369.7137289845764 168.14365622096366 144.09326673973663
  endloop
endfacet
facet normal -2.1874260575413649e-16 1.7505697551388376e-15 1.0
  outer loop
    vertex 373.71372898457594 174.14365622096363 144.09326673973663
    vertex 369.7137289845764 168.14365622096366 144.09326673973663
    vertex 373.71372898457577 168.14365622096366 144.09326673973663
  endloop
endfacet
facet normal -2.1874260575413649e-16 1.7505697551388376e-15 1.0
  outer loop
    vertex 369.7137289845764 168.14365622096366 144.09326673973663
    vertex 373.71372898457594 174.14365622096363 144.09326673973663
    vertex 369.7137289845766 174.14365622096363 144.0932667397366
  endloop
endfacet
facet normal -8.037129105894139e-16 1.0 -1.7505697551388378e-15
  outer loop
    vertex 369.71372898457685 174.14365622096366 141.09326673973655
    vertex 373.71372898457594 174.14365622096363 144.09326673973663
    vertex 373.7137289845762 174.1436562209636 141.09326673973658
  endloop
endfacet
facet normal -8.037129105894139e-16 1.0 -1.7505697551388378e-15
  outer loop
    vertex 373.71372898457594 174.14365622096363 144.09326673973663
    vertex 369.71372898457685 174.14365622096366 141.09326673973655
    vertex 369.7137289845766 174.14365622096363 144.0932667397366
  endloop
endfacet
facet normal 1.0 8.037129105894143e-16 2.1874260575413513e-16
  outer loop
    vertex 367.41372898457655 161.14365622096363 153.54326673973694
    vertex 367.4137289845764 160.14365622096363 149.54326673973694
    vertex 367.41372898457655 161.14365622096363 149.54326673973694
  endloop
endfacet
facet normal 1.0 8.037129105894143e-16 2.1874260575413513e-16
  outer loop
    vertex 367.4137289845764 160.14365622096363 149.54326673973694
    vertex 367.41372898457655 161.14365622096363 153.54326673973694
    vertex 367.4137289845764 160.14365622096363 153.54326673973694
  endloop
endfacet
facet normal -2.1874260575413649e-16 1.7505697551388376e-15 1.0
  outer loop
    vertex 367.41372898457655 204.9436562209638 153.54326673973657
    vertex 365.91372898457564 205.94365622096342 153.54326673973657
    vertex 366.91372898457655 204.94365622096362 153.54326673973657
  endloop
endfacet
facet normal -2.1874260575413649e-16 1.7505697551388376e-15 1.0
  outer loop
    vertex 365.91372898457564 205.94365622096342 153.54326673973657
    vertex 367.41372898457655 204.9436562209638 153.54326673973657
    vertex 366.9137289845756 205.94365622096356 153.54326673973657
  endloop
endfacet
facet normal -2.1874260575413649e-16 1.7505697551388376e-15 1.0
  outer loop
    vertex 366.9137289845756 205.94365622096356 153.54326673973657
    vertex 367.41372898457655 204.9436562209638 153.54326673973657
    vertex 367.4137289845756 205.94365622096373 153.54326673973657
  endloop
endfacet
facet normal -8.037129105894139e-16 1.0 -1.7505697551388378e-15
  outer loop
    vertex 366.9137289845756 205.9436562209635 149.54326673973657
    vertex 367.4137289845756 205.94365622096373 153.54326673973657
    vertex 367.4137289845756 205.94365622096362 149.54326673973657
  endloop
endfacet
facet normal -8.037129105894139e-16 1.0 -1.7505697551388378e-15
  outer loop
    vertex 367.4137289845756 205.94365622096373 153.54326673973657
    vertex 366.9137289845756 205.9436562209635 149.54326673973657
    vertex 366.9137289845756 205.94365622096356 153.54326673973657
  endloop
endfacet
facet normal 2.1874260575413649e-16 -1.7505697551388376e-15 -1.0
  outer loop
    vertex 365.9137289845756 205.9436562209637 149.54326673973657
    vertex 367.41372898457655 204.94365622096365 149.54326673973657
    vertex 366.91372898457655 204.94365622096356 149.54326673973657
  endloop
endfacet
facet normal 2.1874260575413649e-16 -1.7505697551388376e-15 -1.0
  outer loop
    vertex 367.41372898457655 204.94365622096365 149.54326673973657
    vertex 365.9137289845756 205.9436562209637 149.54326673973657
    vertex 366.9137289845756 205.9436562209635 149.54326673973657
  endloop
endfacet
facet normal 2.1874260575413649e-16 -1.7505697551388376e-15 -1.0
  outer loop
    vertex 367.4137289845756 205.94365622096362 149.54326673973657
    vertex 367.41372898457655 204.94365622096365 149.54326673973657
    vertex 366.9137289845756 205.9436562209635 149.54326673973657
  endloop
endfacet
facet normal 8.037129105894139e-16 -1.0 1.7505697551388378e-15
  outer loop
    vertex 366.91372898457655 204.94365622096362 153.54326673973657
    vertex 367.41372898457655 204.94365622096365 149.54326673973657
    vertex 367.41372898457655 204.9436562209638 153.54326673973657
  endloop
endfacet
facet normal 8.037129105894139e-16 -1.0 1.7505697551388378e-15
  outer loop
    vertex 367.41372898457655 204.94365622096365 149.54326673973657
    vertex 366.91372898457655 204.94365622096362 153.54326673973657
    vertex 366.91372898457655 204.94365622096356 149.54326673973657
  endloop
endfacet
facet normal 8.037129105894139e-16 -1.0 1.7505697551388378e-15
  outer loop
    vertex 365.91372898457564 205.94365622096342 153.54326673973657
    vertex 366.9137289845756 205.9436562209635 149.54326673973657
    vertex 366.9137289845756 205.94365622096356 153.54326673973657
  endloop
endfacet
facet normal 8.037129105894139e-16 -1.0 1.7505697551388378e-15
  outer loop
    vertex 366.9137289845756 205.9436562209635 149.54326673973657
    vertex 365.91372898457564 205.94365622096342 153.54326673973657
    vertex 365.9137289845756 205.9436562209637 149.54326673973657
  endloop
endfacet
facet normal -0.7071067811865623 -0.7071067811865327 1.0831653649355704e-15
  outer loop
    vertex 366.91372898457655 204.94365622096362 153.54326673973657
    vertex 365.9137289845756 205.9436562209637 149.54326673973657
    vertex 366.91372898457655 204.94365622096356 149.54326673973657
  endloop
endfacet
facet normal -0.7071067811865623 -0.7071067811865327 1.0831653649355704e-15
  outer loop
    vertex 365.9137289845756 205.9436562209637 149.54326673973657
    vertex 366.91372898457655 204.94365622096362 153.54326673973657
    vertex 365.91372898457564 205.94365622096342 153.54326673973657
  endloop
endfacet
facet normal -1.0 -8.037129105894143e-16 -2.1874260575413513e-16
  outer loop
    vertex 366.91372898457644 160.14365622096363 153.54326673973694
    vertex 366.9137289845766 161.14365622096363 149.54326673973694
    vertex 366.91372898457644 160.14365622096363 149.54326673973694
  endloop
endfacet
facet normal -1.0 -8.037129105894143e-16 -2.1874260575413513e-16
  outer loop
    vertex 366.9137289845766 161.14365622096363 149.54326673973694
    vertex 366.91372898457644 160.14365622096363 153.54326673973694
    vertex 366.9137289845766 161.14365622096363 153.54326673973694
  endloop
endfacet
facet normal 8.037129105894139e-16 -1.0 1.7505697551388378e-15
  outer loop
    vertex 366.91372898457644 160.14365622096363 153.54326673973694
    vertex 367.4137289845764 160.14365622096363 149.54326673973694
    vertex 367.4137289845764 160.14365622096363 153.54326673973694
  endloop
endfacet
facet normal 8.037129105894139e-16 -1.0 1.7505697551388378e-15
  outer loop
    vertex 367.4137289845764 160.14365622096363 149.54326673973694
    vertex 366.91372898457644 160.14365622096363 153.54326673973694
    vertex 366.91372898457644 160.14365622096363 149.54326673973694
  endloop
endfacet
facet normal -2.1874260575413649e-16 1.7505697551388376e-15 1.0
  outer loop
    vertex 367.41372898457655 161.14365622096363 153.54326673973694
    vertex 366.91372898457644 160.14365622096363 153.54326673973694
    vertex 367.4137289845764 160.14365622096363 153.54326673973694
  endloop
endfacet
facet normal -2.1874260575413649e-16 1.7505697551388376e-15 1.0
  outer loop
    vertex 366.91372898457644 160.14365622096363 153.54326673973694
    vertex 367.41372898457655 161.14365622096363 153.54326673973694
    vertex 366.9137289845766 161.14365622096363 153.54326673973694
  endloop
endfacet
facet normal -8.037129105894139e-16 1.0 -1.7505697551388378e-15
  outer loop
    vertex 366.9137289845766 161.14365622096363 149.54326673973694
    vertex 367.41372898457655 161.14365622096363 153.54326673973694
    vertex 367.41372898457655 161.14365622096363 149.54326673973694
  endloop
endfacet
facet normal -8.037129105894139e-16 1.0 -1.7505697551388378e-15
  outer loop
    vertex 367.41372898457655 161.14365622096363 153.54326673973694
    vertex 366.9137289845766 161.14365622096363 149.54326673973694
    vertex 366.9137289845766 161.14365622096363 153.54326673973694
  endloop
endfacet
facet normal 2.1874260575413649e-16 -1.7505697551388376e-15 -1.0
  outer loop
    vertex 366.9137289845766 161.14365622096363 149.54326673973694
    vertex 367.4137289845764 160.14365622096363 149.54326673973694
    vertex 366.91372898457644 160.14365622096363 149.54326673973694
  endloop
endfacet
facet normal 2.1874260575413649e-16 -1.7505697551388376e-15 -1.0
  outer loop
    vertex 367.4137289845764 160.14365622096363 149.54326673973694
    vertex 366.9137289845766 161.14365622096363 149.54326673973694
    vertex 367.41372898457655 161.14365622096363 149.54326673973694
  endloop
endfacet
facet normal -2.1874260575413649e-16 1.7505697551388376e-15 1.0
  outer loop
    vertex 366.9137289845766 161.14365622096363 153.54326673973694
    vertex 365.9137289845764 160.14365622096363 153.54326673973694
    vertex 366.91372898457644 160.14365622096363 153.54326673973694
  endloop
endfacet
facet normal 2.1874260575413649e-16 -1.7505697551388376e-15 -1.0
  outer loop
    vertex 366.9137289845766 161.14365622096363 149.54326673973694
    vertex 366.91372898457644 160.14365622096363 149.54326673973694
    vertex 365.9137289845764 160.14365622096363 149.54326673973694
  endloop
endfacet
facet normal -8.037129105894139e-16 1.0 -1.7505697551388378e-15
  outer loop
    vertex 365.9137289845764 160.14365622096363 149.54326673973694
    vertex 366.91372898457644 160.14365622096363 153.54326673973694
    vertex 366.91372898457644 160.14365622096363 149.54326673973694
  endloop
endfacet
facet normal -8.037129105894139e-16 1.0 -1.7505697551388378e-15
  outer loop
    vertex 366.91372898457644 160.14365622096363 153.54326673973694
    vertex 365.9137289845764 160.14365622096363 149.54326673973694
    vertex 365.9137289845764 160.14365622096363 153.54326673973694
  endloop
endfacet
facet normal -0.7071067811865477 0.7071067811865475 -1.39251412466193e-15
  outer loop
    vertex 365.9137289845764 160.14365622096363 149.54326673973694
    vertex 366.9137289845766 161.14365622096363 153.54326673973694
    vertex 366.9137289845766 161.14365622096363 149.54326673973694
  endloop
endfacet
facet normal -0.7071067811865477 0.7071067811865475 -1.39251412466193e-15
  outer loop
    vertex 366.9137289845766 161.14365622096363 153.54326673973694
    vertex 365.9137289845764 160.14365622096363 149.54326673973694
    vertex 365.9137289845764 160.14365622096363 153.54326673973694
  endloop
endfacet
facet normal 8.037129105894139e-16 -1.0 1.7505697551388378e-15
  outer loop
    vertex 376.7137289845756 191.94365622096367 164.9932667397367
    vertex 373.71372898457565 191.94365622096362 161.99326673973667
    vertex 376.7137289845756 191.94365622096367 156.99326673973653
  endloop
endfacet
facet normal 8.037129105894139e-16 -1.0 1.7505697551388378e-15
  outer loop
    vertex 373.71372898457565 191.94365622096362 161.99326673973667
    vertex 376.7137289845756 191.94365622096367 164.9932667397367
    vertex 368.2137289845763 191.94365622096362 164.9932667397367
  endloop
endfacet
facet normal 8.037129105894139e-16 -1.0 1.7505697551388378e-15
  outer loop
    vertex 373.71372898457565 191.94365622096362 161.99326673973667
    vertex 368.2137289845763 191.94365622096362 164.9932667397367
    vertex 367.1467833778816 191.94365622096362 161.99326673973667
  endloop
endfacet
facet normal 8.037129105894139e-16 -1.0 1.7505697551388378e-15
  outer loop
    vertex 373.71372898457554 191.94365622096367 156.99326673973653
    vertex 376.7137289845756 191.94365622096367 156.99326673973653
    vertex 373.71372898457565 191.94365622096362 161.99326673973667
  endloop
endfacet
facet normal -5.960411520323691e-16 1.0 -8.139133941873089e-15
  outer loop
    vertex 359.7137289845756 218.94365622096362 138.09326673973735
    vertex 376.71372898457537 218.9436562209635 151.09326673973683
    vertex 376.7137289845757 218.94365622096345 138.093266739738
  endloop
endfacet
facet normal -5.960411520323691e-16 1.0 -8.139133941873089e-15
  outer loop
    vertex 376.71372898457537 218.9436562209635 151.09326673973683
    vertex 359.7137289845756 218.94365622096362 138.09326673973735
    vertex 359.71372898457537 218.94365622096373 151.09326673973655
  endloop
endfacet
facet normal -8.037129105894139e-16 1.0 -1.7505697551388378e-15
  outer loop
    vertex 363.27021434022515 208.94365622096328 151.09326673973658
    vertex 376.71372898457594 208.9436562209636 164.99326673973695
    vertex 376.71372898457594 208.94365622096342 151.09326673973686
  endloop
endfacet
facet normal -8.037129105894139e-16 1.0 -1.7505697551388378e-15
  outer loop
    vertex 376.71372898457594 208.9436562209636 164.99326673973695
    vertex 363.27021434022515 208.94365622096328 151.09326673973658
    vertex 368.2137289845766 208.9436562209636 164.99326673973695
  endloop
endfacet
facet normal 8.037129105894139e-16 -1.0 1.7505697551388378e-15
  outer loop
    vertex 359.71372898457656 208.94365622096365 151.09326673973658
    vertex 359.71372898457685 208.94365622096365 141.09326673973652
    vertex 363.27021434022515 208.94365622096328 151.09326673973658
  endloop
endfacet
facet normal -2.1874260575413649e-16 1.7505697551388376e-15 1.0
  outer loop
    vertex 376.71372898457594 208.94365622096342 151.09326673973686
    vertex 359.71372898457656 208.94365622096365 151.09326673973658
    vertex 363.27021434022515 208.94365622096328 151.09326673973658
  endloop
endfacet
facet normal -2.1874260575413649e-16 1.7505697551388376e-15 1.0
  outer loop
    vertex 359.71372898457656 208.94365622096365 151.09326673973658
    vertex 376.71372898457594 208.94365622096342 151.09326673973686
    vertex 376.71372898457537 218.9436562209635 151.09326673973683
  endloop
endfacet
facet normal -2.1874260575413649e-16 1.7505697551388376e-15 1.0
  outer loop
    vertex 359.71372898457656 208.94365622096365 151.09326673973658
    vertex 376.71372898457537 218.9436562209635 151.09326673973683
    vertex 359.71372898457537 218.94365622096373 151.09326673973655
  endloop
endfacet
facet normal -8.037129105894139e-16 1.0 -1.7505697551388378e-15
  outer loop
    vertex 359.71372898457633 157.14365622096363 151.0932667397364
    vertex 363.2702143402249 157.14365622096363 151.0932667397364
    vertex 359.7137289845766 157.1436562209636 141.09326673973632
  endloop
endfacet
facet normal -2.202078681679484e-14 1.8221614810177402e-16 1.0
  outer loop
    vertex 370.7137289845759 157.14365622096363 151.09326673973666
    vertex 359.7137289845766 147.14365622096363 151.0932667397364
    vertex 370.7137289845759 147.14365622096363 151.0932667397366
  endloop
endfacet
facet normal -2.202078681679484e-14 1.8221614810177402e-16 1.0
  outer loop
    vertex 359.7137289845766 147.14365622096363 151.0932667397364
    vertex 370.7137289845759 157.14365622096363 151.09326673973666
    vertex 359.71372898457633 157.14365622096363 151.0932667397364
  endloop
endfacet
facet normal -2.202078681679484e-14 1.8221614810177402e-16 1.0
  outer loop
    vertex 359.71372898457633 157.14365622096363 151.0932667397364
    vertex 370.7137289845759 157.14365622096363 151.09326673973666
    vertex 363.2702143402249 157.14365622096363 151.0932667397364
  endloop
endfacet
facet normal 3.1398381457140403e-15 2.3809448844186958e-14 -1.0
  outer loop
    vertex 359.7137289845769 147.14365622096366 138.09326673973632
    vertex 370.7137289845754 171.04365622096432 138.09326673973663
    vertex 370.71372898457616 147.14365622096363 138.0932667397365
  endloop
endfacet
facet normal 3.1398381457140403e-15 2.3809448844186958e-14 -1.0
  outer loop
    vertex 370.7137289845754 171.04365622096432 138.09326673973663
    vertex 359.7137289845769 147.14365622096366 138.09326673973632
    vertex 359.71372898457616 171.04365622096432 138.09326673973717
  endloop
endfacet
facet normal -1.0 1.0284339902592993e-14 -4.3839009512136787e-14
  outer loop
    vertex 359.71372898457645 171.04365622096427 134.89326673973665
    vertex 359.71372898457724 188.0436562209638 127.89326673973629
    vertex 359.71372898457736 178.04365622096384 127.89326673973622
  endloop
endfacet
facet normal -1.0 1.0284339902592993e-14 -4.3839009512136787e-14
  outer loop
    vertex 359.71372898457724 188.0436562209638 127.89326673973629
    vertex 359.71372898457645 171.04365622096427 134.89326673973665
    vertex 359.7137289845771 195.04365622096373 134.89326673973667
  endloop
endfacet
facet normal -1.0 1.0284339902592993e-14 -4.3839009512136787e-14
  outer loop
    vertex 359.7137289845771 195.04365622096373 134.89326673973667
    vertex 359.71372898457645 171.04365622096427 134.89326673973665
    vertex 359.71372898457616 171.04365622096432 138.09326673973717
  endloop
endfacet
facet normal -1.0 1.0284339902592993e-14 -4.3839009512136787e-14
  outer loop
    vertex 359.7137289845771 195.04365622096373 134.89326673973667
    vertex 359.71372898457616 171.04365622096432 138.09326673973717
    vertex 359.71372898457696 195.0436562209637 138.09326673973712
  endloop
endfacet
facet normal -3.826631531499746e-15 -0.7071067811865983 -0.7071067811864967
  outer loop
    vertex 373.71372898457537 171.04365622096432 134.89326673973662
    vertex 376.7137289845752 178.04365622096378 127.89326673973613
    vertex 376.7137289845753 171.04365622096432 134.89326673973665
  endloop
endfacet
facet normal -3.826631531499746e-15 -0.7071067811865983 -0.7071067811864967
  outer loop
    vertex 376.7137289845752 178.04365622096378 127.89326673973613
    vertex 373.71372898457537 171.04365622096432 134.89326673973662
    vertex 359.71372898457736 178.04365622096384 127.89326673973622
  endloop
endfacet
facet normal -3.826631531499746e-15 -0.7071067811865983 -0.7071067811864967
  outer loop
    vertex 359.71372898457736 178.04365622096384 127.89326673973622
    vertex 373.71372898457537 171.04365622096432 134.89326673973662
    vertex 359.71372898457645 171.04365622096427 134.89326673973665
  endloop
endfacet
facet normal 0.0 -1.0 2.1408969964684265e-32
  outer loop
    vertex 370.7137289845754 171.04365622096432 138.09326673973663
    vertex 373.71372898457537 171.04365622096432 134.89326673973662
    vertex 373.71372898457537 171.04365622096432 135.0932667397367
  endloop
endfacet
facet normal 0.0 -1.0 2.1408969964684265e-32
  outer loop
    vertex 373.71372898457537 171.04365622096432 134.89326673973662
    vertex 370.7137289845754 171.04365622096432 138.09326673973663
    vertex 359.71372898457645 171.04365622096427 134.89326673973665
  endloop
endfacet
facet normal 0.0 -1.0 2.1408969964684265e-32
  outer loop
    vertex 359.71372898457645 171.04365622096427 134.89326673973665
    vertex 370.7137289845754 171.04365622096432 138.09326673973663
    vertex 359.71372898457616 171.04365622096432 138.09326673973717
  endloop
endfacet
facet normal -2.4353434954676194e-15 1.1785269361091109e-14 -1.0
  outer loop
    vertex 359.71372898457736 178.04365622096384 127.89326673973622
    vertex 376.71372898457577 188.04365622096392 127.8932667397363
    vertex 376.7137289845752 178.04365622096378 127.89326673973613
  endloop
endfacet
facet normal -2.4353434954676194e-15 1.1785269361091109e-14 -1.0
  outer loop
    vertex 376.71372898457577 188.04365622096392 127.8932667397363
    vertex 359.71372898457736 178.04365622096384 127.89326673973622
    vertex 359.71372898457724 188.0436562209638 127.89326673973629
  endloop
endfacet
facet normal 2.5701042589711135e-14 0.7071067811865688 -0.7071067811865263
  outer loop
    vertex 359.71372898457724 188.0436562209638 127.89326673973629
    vertex 376.71372898457486 195.04365622096384 134.89326673973667
    vertex 376.71372898457577 188.04365622096392 127.8932667397363
  endloop
endfacet
facet normal 2.5701042589711135e-14 0.7071067811865688 -0.7071067811865263
  outer loop
    vertex 376.71372898457486 195.04365622096384 134.89326673973667
    vertex 359.71372898457724 188.0436562209638 127.89326673973629
    vertex 359.7137289845771 195.04365622096373 134.89326673973667
  endloop
endfacet
facet normal -4.559039395133109e-15 1.0 -1.3642582232561886e-15
  outer loop
    vertex 359.7137289845771 195.04365622096373 134.89326673973667
    vertex 376.7137289845747 195.04365622096387 138.09326673973712
    vertex 376.71372898457486 195.04365622096384 134.89326673973667
  endloop
endfacet
facet normal -4.559039395133109e-15 1.0 -1.3642582232561886e-15
  outer loop
    vertex 376.7137289845747 195.04365622096387 138.09326673973712
    vertex 359.7137289845771 195.04365622096373 134.89326673973667
    vertex 359.71372898457696 195.0436562209637 138.09326673973712
  endloop
endfacet
facet normal 1.908877885827071e-14 2.4438730067629266e-14 -1.0
  outer loop
    vertex 359.7137289845756 218.94365622096362 138.09326673973735
    vertex 376.7137289845747 195.04365622096387 138.09326673973712
    vertex 359.71372898457696 195.0436562209637 138.09326673973712
  endloop
endfacet
facet normal 1.908877885827071e-14 2.4438730067629266e-14 -1.0
  outer loop
    vertex 376.7137289845747 195.04365622096387 138.09326673973712
    vertex 359.7137289845756 218.94365622096362 138.09326673973735
    vertex 376.7137289845757 218.94365622096345 138.093266739738
  endloop
endfacet
facet normal -0.7071067811865556 -1.5353416632621218e-14 -0.7071067811865396
  outer loop
    vertex 370.71372898457616 147.14365622096363 138.0932667397365
    vertex 373.71372898457537 171.04365622096432 135.0932667397367
    vertex 373.71372898457594 147.14365622096363 135.09326673973655
  endloop
endfacet
facet normal -0.7071067811865556 -1.5353416632621218e-14 -0.7071067811865396
  outer loop
    vertex 373.71372898457537 171.04365622096432 135.0932667397367
    vertex 370.71372898457616 147.14365622096363 138.0932667397365
    vertex 370.7137289845754 171.04365622096432 138.09326673973663
  endloop
endfacet
facet normal -0.7071067811865479 -9.992917648307838e-15 0.7071067811865472
  outer loop
    vertex 373.71372898457577 147.14365622096372 154.09326673973663
    vertex 370.7137289845759 157.14365622096363 151.09326673973666
    vertex 370.7137289845759 147.14365622096363 151.0932667397366
  endloop
endfacet
facet normal -0.7071067811865479 -9.992917648307838e-15 0.7071067811865472
  outer loop
    vertex 370.7137289845759 157.14365622096363 151.09326673973666
    vertex 373.71372898457577 147.14365622096372 154.09326673973663
    vertex 373.7137289845757 157.1436562209637 154.09326673973672
  endloop
endfacet
facet normal 1.461753987636786e-15 -1.0 -2.7638140470270912e-15
  outer loop
    vertex 376.7137289845756 147.14365622096372 154.09326673973663
    vertex 376.713728984576 147.14365622096363 148.09326673973666
    vertex 376.713728984576 147.14365622096363 151.0932667397367
  endloop
endfacet
facet normal 1.461753987636786e-15 -1.0 -2.7638140470270912e-15
  outer loop
    vertex 376.713728984576 147.14365622096363 148.09326673973666
    vertex 376.7137289845756 147.14365622096372 154.09326673973663
    vertex 376.7137289845758 147.14365622096386 117.8932667397365
  endloop
endfacet
facet normal 1.461753987636786e-15 -1.0 -2.7638140470270912e-15
  outer loop
    vertex 376.7137289845758 147.14365622096386 117.8932667397365
    vertex 376.7137289845756 147.14365622096372 154.09326673973663
    vertex 373.713728984576 147.14365622096378 117.8932667397365
  endloop
endfacet
facet normal 1.461753987636786e-15 -1.0 -2.7638140470270912e-15
  outer loop
    vertex 373.713728984576 147.14365622096378 117.8932667397365
    vertex 376.7137289845756 147.14365622096372 154.09326673973663
    vertex 373.71372898457594 147.14365622096363 135.09326673973655
  endloop
endfacet
facet normal 1.461753987636786e-15 -1.0 -2.7638140470270912e-15
  outer loop
    vertex 373.71372898457594 147.14365622096363 135.09326673973655
    vertex 376.7137289845756 147.14365622096372 154.09326673973663
    vertex 373.71372898457577 147.14365622096372 154.09326673973663
  endloop
endfacet
facet normal 1.461753987636786e-15 -1.0 -2.7638140470270912e-15
  outer loop
    vertex 373.71372898457594 147.14365622096363 135.09326673973655
    vertex 373.71372898457577 147.14365622096372 154.09326673973663
    vertex 370.71372898457616 147.14365622096363 138.0932667397365
  endloop
endfacet
facet normal 1.461753987636786e-15 -1.0 -2.7638140470270912e-15
  outer loop
    vertex 370.71372898457616 147.14365622096363 138.0932667397365
    vertex 373.71372898457577 147.14365622096372 154.09326673973663
    vertex 370.7137289845759 147.14365622096363 151.0932667397366
  endloop
endfacet
facet normal 1.461753987636786e-15 -1.0 -2.7638140470270912e-15
  outer loop
    vertex 370.71372898457616 147.14365622096363 138.0932667397365
    vertex 370.7137289845759 147.14365622096363 151.0932667397366
    vertex 359.7137289845769 147.14365622096366 138.09326673973632
  endloop
endfacet
facet normal 1.461753987636786e-15 -1.0 -2.7638140470270912e-15
  outer loop
    vertex 359.7137289845769 147.14365622096366 138.09326673973632
    vertex 370.7137289845759 147.14365622096363 151.0932667397366
    vertex 359.7137289845766 147.14365622096363 151.0932667397364
  endloop
endfacet
facet normal 1.0 4.276440259514073e-15 -6.7691695492058076e-15
  outer loop
    vertex 376.71372898457537 171.0436562209645 117.89326673973662
    vertex 376.71372898457577 159.93481811754722 123.25400780429705
    vertex 376.71372898457577 159.09365622096405 123.14326673973652
  endloop
endfacet
facet normal 1.0 4.276440259514073e-15 -6.7691695492058076e-15
  outer loop
    vertex 376.71372898457577 159.93481811754722 123.25400780429705
    vertex 376.71372898457537 171.0436562209645 117.89326673973662
    vertex 376.7137289845757 160.71865622096402 123.5786841774371
  endloop
endfacet
facet normal 1.0 4.276440259514073e-15 -6.7691695492058076e-15
  outer loop
    vertex 376.7137289845757 160.71865622096402 123.5786841774371
    vertex 376.71372898457537 171.0436562209645 117.89326673973662
    vertex 376.7137289845757 161.39175325982032 124.09516970088025
  endloop
endfacet
facet normal 1.0 4.276440259514073e-15 -6.7691695492058076e-15
  outer loop
    vertex 376.7137289845757 161.39175325982032 124.09516970088025
    vertex 376.71372898457537 171.0436562209645 117.89326673973662
    vertex 376.7137289845753 171.04365622096432 134.89326673973665
  endloop
endfacet
facet normal 1.0 4.276440259514073e-15 -6.7691695492058076e-15
  outer loop
    vertex 376.7137289845757 161.39175325982032 124.09516970088025
    vertex 376.7137289845753 171.04365622096432 134.89326673973665
    vertex 376.71372898457565 161.90823878326347 124.76826673973653
  endloop
endfacet
facet normal 1.0 4.276440259514073e-15 -6.7691695492058076e-15
  outer loop
    vertex 376.71372898457565 161.90823878326347 124.76826673973653
    vertex 376.7137289845753 171.04365622096432 134.89326673973665
    vertex 376.71372898457565 162.23291515640352 125.55210484315333
  endloop
endfacet
facet normal 1.0 4.276440259514073e-15 -6.7691695492058076e-15
  outer loop
    vertex 376.71372898457565 162.23291515640352 125.55210484315333
    vertex 376.7137289845753 171.04365622096432 134.89326673973665
    vertex 376.71372898457565 162.34365622096405 126.39326673973652
  endloop
endfacet
facet normal 1.0 4.276440259514073e-15 -6.7691695492058076e-15
  outer loop
    vertex 376.71372898457565 162.34365622096405 126.39326673973652
    vertex 376.7137289845753 171.04365622096432 134.89326673973665
    vertex 376.71372898457565 162.23291515640355 127.2344286363197
  endloop
endfacet
facet normal 1.0 4.276440259514073e-15 -6.7691695492058076e-15
  outer loop
    vertex 376.71372898457565 162.23291515640355 127.2344286363197
    vertex 376.7137289845753 171.04365622096432 134.89326673973665
    vertex 376.71372898457565 161.90823878326347 128.01826673973653
  endloop
endfacet
facet normal 1.0 4.276440259514073e-15 -6.7691695492058076e-15
  outer loop
    vertex 376.71372898457565 161.90823878326347 128.01826673973653
    vertex 376.7137289845753 171.04365622096432 134.89326673973665
    vertex 376.7137289845757 161.39175325982035 128.6913637785928
  endloop
endfacet
facet normal 1.0 4.276440259514073e-15 -6.7691695492058076e-15
  outer loop
    vertex 376.7137289845757 161.39175325982035 128.6913637785928
    vertex 376.7137289845753 171.04365622096432 134.89326673973665
    vertex 376.7137289845757 160.71865622096408 129.20784930203595
  endloop
endfacet
facet normal 1.0 4.276440259514073e-15 -6.7691695492058076e-15
  outer loop
    vertex 376.7137289845757 160.71865622096408 129.20784930203595
    vertex 376.7137289845753 171.04365622096432 134.89326673973665
    vertex 376.71372898457577 159.93481811754725 129.532525675176
  endloop
endfacet
facet normal 1.0 4.276440259514073e-15 -6.7691695492058076e-15
  outer loop
    vertex 376.71372898457577 159.93481811754725 129.532525675176
    vertex 376.7137289845753 171.04365622096432 134.89326673973665
    vertex 376.71372898457577 159.09365622096408 129.64326673973653
  endloop
endfacet
facet normal 1.0 4.276440259514073e-15 -6.7691695492058076e-15
  outer loop
    vertex 376.71372898457577 188.04365622096392 127.8932667397363
    vertex 376.7137289845753 171.04365622096432 134.89326673973665
    vertex 376.7137289845752 178.04365622096378 127.89326673973613
  endloop
endfacet
facet normal 1.0 4.276440259514073e-15 -6.7691695492058076e-15
  outer loop
    vertex 376.7137289845753 171.04365622096432 134.89326673973665
    vertex 376.71372898457577 188.04365622096392 127.8932667397363
    vertex 376.71372898457486 195.04365622096384 134.89326673973667
  endloop
endfacet
facet normal 1.0 4.276440259514073e-15 -6.7691695492058076e-15
  outer loop
    vertex 376.71372898457537 168.0436562209645 114.89326673973665
    vertex 376.7137289845758 147.14365622096386 117.8932667397365
    vertex 376.7137289845757 150.14365622096383 114.89326673973653
  endloop
endfacet
facet normal 1.0 4.276440259514073e-15 -6.7691695492058076e-15
  outer loop
    vertex 376.7137289845758 147.14365622096386 117.8932667397365
    vertex 376.71372898457537 168.0436562209645 114.89326673973665
    vertex 376.71372898457537 171.0436562209645 117.89326673973662
  endloop
endfacet
facet normal 1.0 4.276440259514073e-15 -6.7691695492058076e-15
  outer loop
    vertex 376.7137289845758 147.14365622096386 117.8932667397365
    vertex 376.71372898457537 171.0436562209645 117.89326673973662
    vertex 376.7137289845758 157.46865622096402 123.57868417743707
  endloop
endfacet
facet normal 1.0 4.276440259514073e-15 -6.7691695492058076e-15
  outer loop
    vertex 376.7137289845758 147.14365622096386 117.8932667397365
    vertex 376.7137289845758 157.46865622096402 123.57868417743707
    vertex 376.7137289845758 156.79555918210778 124.09516970088025
  endloop
endfacet
facet normal 1.0 4.276440259514073e-15 -6.7691695492058076e-15
  outer loop
    vertex 376.7137289845758 147.14365622096386 117.8932667397365
    vertex 376.7137289845758 156.79555918210778 124.09516970088025
    vertex 376.7137289845759 156.2790736586646 124.76826673973653
  endloop
endfacet
facet normal 1.0 4.276440259514073e-15 -6.7691695492058076e-15
  outer loop
    vertex 376.7137289845758 147.14365622096386 117.8932667397365
    vertex 376.7137289845759 156.2790736586646 124.76826673973653
    vertex 376.7137289845759 155.95439728552455 125.55210484315333
  endloop
endfacet
facet normal 1.0 4.276440259514073e-15 -6.7691695492058076e-15
  outer loop
    vertex 376.7137289845758 147.14365622096386 117.8932667397365
    vertex 376.7137289845759 155.95439728552455 125.55210484315333
    vertex 376.713728984576 147.14365622096363 148.09326673973666
  endloop
endfacet
facet normal 1.0 4.276440259514073e-15 -6.7691695492058076e-15
  outer loop
    vertex 376.7137289845758 157.46865622096402 123.57868417743707
    vertex 376.71372898457537 171.0436562209645 117.89326673973662
    vertex 376.71372898457577 158.25249432438085 123.25400780429703
  endloop
endfacet
facet normal 1.0 4.276440259514073e-15 -6.7691695492058076e-15
  outer loop
    vertex 376.71372898457577 158.25249432438085 123.25400780429703
    vertex 376.71372898457537 171.0436562209645 117.89326673973662
    vertex 376.71372898457577 159.09365622096405 123.14326673973652
  endloop
endfacet
facet normal 1.0 4.276440259514073e-15 -6.7691695492058076e-15
  outer loop
    vertex 376.713728984576 147.14365622096363 148.09326673973666
    vertex 376.7137289845759 155.95439728552455 125.55210484315333
    vertex 376.7137289845759 155.84365622096405 126.39326673973652
  endloop
endfacet
facet normal 1.0 4.276440259514073e-15 -6.7691695492058076e-15
  outer loop
    vertex 376.713728984576 147.14365622096363 148.09326673973666
    vertex 376.7137289845759 155.84365622096405 126.39326673973652
    vertex 376.7137289845759 155.95439728552458 127.23442863631973
  endloop
endfacet
facet normal 1.0 4.276440259514073e-15 -6.7691695492058076e-15
  outer loop
    vertex 376.713728984576 147.14365622096363 148.09326673973666
    vertex 376.7137289845759 155.95439728552458 127.23442863631973
    vertex 376.7137289845759 156.27907365866466 128.01826673973653
  endloop
endfacet
facet normal 1.0 4.276440259514073e-15 -6.7691695492058076e-15
  outer loop
    vertex 376.713728984576 147.14365622096363 148.09326673973666
    vertex 376.7137289845759 156.27907365866466 128.01826673973653
    vertex 376.7137289845758 156.79555918210778 128.6913637785928
  endloop
endfacet
facet normal 1.0 4.276440259514073e-15 -6.7691695492058076e-15
  outer loop
    vertex 376.713728984576 147.14365622096363 148.09326673973666
    vertex 376.7137289845758 156.79555918210778 128.6913637785928
    vertex 376.7137289845758 157.46865622096408 129.20784930203595
  endloop
endfacet
facet normal 1.0 4.276440259514073e-15 -6.7691695492058076e-15
  outer loop
    vertex 376.713728984576 147.14365622096363 148.09326673973666
    vertex 376.7137289845758 157.46865622096408 129.20784930203595
    vertex 376.71372898457577 158.25249432438088 129.53252567517598
  endloop
endfacet
facet normal 1.0 4.276440259514073e-15 -6.7691695492058076e-15
  outer loop
    vertex 376.713728984576 147.14365622096363 148.09326673973666
    vertex 376.71372898457577 158.25249432438088 129.53252567517598
    vertex 376.71372898457577 159.09365622096408 129.64326673973653
  endloop
endfacet
facet normal 1.0 4.276440259514073e-15 -6.7691695492058076e-15
  outer loop
    vertex 376.713728984576 147.14365622096363 148.09326673973666
    vertex 376.71372898457577 159.09365622096408 129.64326673973653
    vertex 376.7137289845753 171.04365622096432 134.89326673973665
  endloop
endfacet
facet normal 1.0 4.276440259514073e-15 -6.7691695492058076e-15
  outer loop
    vertex 376.713728984576 147.14365622096363 148.09326673973666
    vertex 376.7137289845753 171.04365622096432 134.89326673973665
    vertex 376.71372898457486 195.04365622096384 134.89326673973667
  endloop
endfacet
facet normal 1.0 4.276440259514073e-15 -6.7691695492058076e-15
  outer loop
    vertex 376.713728984576 147.14365622096363 148.09326673973666
    vertex 376.71372898457486 195.04365622096384 134.89326673973667
    vertex 376.7137289845747 195.04365622096387 138.09326673973712
  endloop
endfacet
facet normal 1.0 4.276440259514073e-15 -6.7691695492058076e-15
  outer loop
    vertex 376.713728984576 147.14365622096363 148.09326673973666
    vertex 376.7137289845747 195.04365622096387 138.09326673973712
    vertex 376.7137289845757 218.94365622096345 138.093266739738
  endloop
endfacet
facet normal 1.0 4.276440259514073e-15 -6.7691695492058076e-15
  outer loop
    vertex 376.713728984576 147.14365622096363 148.09326673973666
    vertex 376.7137289845757 218.94365622096345 138.093266739738
    vertex 376.71372898457537 218.9436562209635 151.09326673973683
  endloop
endfacet
facet normal 1.0 4.276440259514073e-15 -6.7691695492058076e-15
  outer loop
    vertex 376.713728984576 147.14365622096363 148.09326673973666
    vertex 376.71372898457537 218.9436562209635 151.09326673973683
    vertex 376.713728984576 147.14365622096363 151.0932667397367
  endloop
endfacet
facet normal 1.0 4.276440259514073e-15 -6.7691695492058076e-15
  outer loop
    vertex 376.713728984576 147.14365622096363 151.0932667397367
    vertex 376.71372898457537 218.9436562209635 151.09326673973683
    vertex 376.71372898457594 208.94365622096342 151.09326673973686
  endloop
endfacet
facet normal 1.0 4.276440259514073e-15 -6.7691695492058076e-15
  outer loop
    vertex 376.713728984576 147.14365622096363 151.0932667397367
    vertex 376.71372898457594 208.94365622096342 151.09326673973686
    vertex 376.7137289845756 147.14365622096372 154.09326673973663
  endloop
endfacet
facet normal 1.0 4.276440259514073e-15 -6.7691695492058076e-15
  outer loop
    vertex 376.7137289845756 147.14365622096372 154.09326673973663
    vertex 376.71372898457594 208.94365622096342 151.09326673973686
    vertex 376.7137289845755 157.1436562209637 154.09326673973672
  endloop
endfacet
facet normal 1.0 4.276440259514073e-15 -6.7691695492058076e-15
  outer loop
    vertex 376.7137289845755 157.1436562209637 154.09326673973672
    vertex 376.71372898457594 208.94365622096342 151.09326673973686
    vertex 376.7137289845756 191.94365622096367 156.99326673973653
  endloop
endfacet
facet normal 1.0 4.276440259514073e-15 -6.7691695492058076e-15
  outer loop
    vertex 376.7137289845756 191.94365622096367 156.99326673973653
    vertex 376.71372898457594 208.94365622096342 151.09326673973686
    vertex 376.71372898457594 208.9436562209636 164.99326673973695
  endloop
endfacet
facet normal 1.0 4.276440259514073e-15 -6.7691695492058076e-15
  outer loop
    vertex 376.7137289845756 191.94365622096367 156.99326673973653
    vertex 376.71372898457594 208.9436562209636 164.99326673973695
    vertex 376.7137289845756 191.94365622096367 164.9932667397367
  endloop
endfacet
facet normal 1.0 4.276440259514073e-15 -6.7691695492058076e-15
  outer loop
    vertex 376.7137289845755 157.1436562209637 154.09326673973672
    vertex 376.713728984576 174.14365622096372 156.99326673973658
    vertex 376.71372898457565 157.14365622096352 164.99326673973675
  endloop
endfacet
facet normal 1.0 4.276440259514073e-15 -6.7691695492058076e-15
  outer loop
    vertex 376.713728984576 174.14365622096372 156.99326673973658
    vertex 376.7137289845755 157.1436562209637 154.09326673973672
    vertex 376.7137289845756 191.94365622096367 156.99326673973653
  endloop
endfacet
facet normal 1.0 4.276440259514073e-15 -6.7691695492058076e-15
  outer loop
    vertex 376.71372898457565 157.14365622096352 164.99326673973675
    vertex 376.713728984576 174.14365622096372 156.99326673973658
    vertex 376.7137289845759 174.14365622096372 164.99326673973675
  endloop
endfacet
facet normal 1.0 4.276440259514073e-15 -6.7691695492058076e-15
  outer loop
    vertex 376.71372898457565 157.14365622096352 164.99326673973675
    vertex 376.7137289845759 174.14365622096372 164.99326673973675
    vertex 376.7137289845757 160.14365622096363 164.99326673973675
  endloop
endfacet
facet normal 3.015350593638217e-15 7.273322989014476e-15 -1.0
  outer loop
    vertex 373.7137289845757 157.1436562209637 154.09326673973672
    vertex 376.7137289845756 147.14365622096372 154.09326673973663
    vertex 373.71372898457577 147.14365622096372 154.09326673973663
  endloop
endfacet
facet normal 3.015350593638217e-15 7.273322989014476e-15 -1.0
  outer loop
    vertex 376.7137289845756 147.14365622096372 154.09326673973663
    vertex 373.7137289845757 157.1436562209637 154.09326673973672
    vertex 376.7137289845755 157.1436562209637 154.09326673973672
  endloop
endfacet
facet normal -7.099748146989106e-29 6.301601078319085e-15 -1.0
  outer loop
    vertex 373.7137289845754 168.04365622096446 114.89326673973665
    vertex 376.7137289845757 150.14365622096383 114.89326673973653
    vertex 373.7137289845759 150.14365622096375 114.89326673973652
  endloop
endfacet
facet normal -7.099748146989106e-29 6.301601078319085e-15 -1.0
  outer loop
    vertex 376.7137289845757 150.14365622096383 114.89326673973653
    vertex 373.7137289845754 168.04365622096446 114.89326673973665
    vertex 376.71372898457537 168.0436562209645 114.89326673973665
  endloop
endfacet
facet normal -1.262177448353619e-29 1.0 6.635215253053874e-15
  outer loop
    vertex 373.7137289845754 171.0436562209645 117.89326673973662
    vertex 376.7137289845753 171.04365622096432 134.89326673973665
    vertex 376.71372898457537 171.0436562209645 117.89326673973662
  endloop
endfacet
facet normal -1.262177448353619e-29 1.0 6.635215253053874e-15
  outer loop
    vertex 376.7137289845753 171.04365622096432 134.89326673973665
    vertex 373.7137289845754 171.0436562209645 117.89326673973662
    vertex 373.71372898457537 171.04365622096432 134.89326673973662
  endloop
endfacet
facet normal -1.0 -2.5197544038160193e-14 -8.322902443298555e-16
  outer loop
    vertex 373.713728984576 147.14365622096378 117.8932667397365
    vertex 373.7137289845754 168.04365622096446 114.89326673973665
    vertex 373.7137289845759 150.14365622096375 114.89326673973652
  endloop
endfacet
facet normal -1.0 -2.5197544038160193e-14 -8.322902443298555e-16
  outer loop
    vertex 373.7137289845754 168.04365622096446 114.89326673973665
    vertex 373.713728984576 147.14365622096378 117.8932667397365
    vertex 373.7137289845754 171.0436562209645 117.89326673973662
  endloop
endfacet
facet normal -1.0 -2.5197544038160193e-14 -8.322902443298555e-16
  outer loop
    vertex 373.7137289845754 171.0436562209645 117.89326673973662
    vertex 373.713728984576 147.14365622096378 117.8932667397365
    vertex 373.7137289845757 157.46865622096402 123.57868417743707
  endloop
endfacet
facet normal -1.0 -2.5197544038160193e-14 -8.322902443298555e-16
  outer loop
    vertex 373.7137289845757 157.46865622096402 123.57868417743707
    vertex 373.713728984576 147.14365622096378 117.8932667397365
    vertex 373.7137289845757 156.79555918210778 124.09516970088022
  endloop
endfacet
facet normal -1.0 -2.5197544038160193e-14 -8.322902443298555e-16
  outer loop
    vertex 373.7137289845757 156.79555918210778 124.09516970088022
    vertex 373.713728984576 147.14365622096378 117.8932667397365
    vertex 373.71372898457594 147.14365622096363 135.09326673973655
  endloop
endfacet
facet normal -1.0 -2.5197544038160193e-14 -8.322902443298555e-16
  outer loop
    vertex 373.7137289845754 171.0436562209645 117.89326673973662
    vertex 373.7137289845757 157.46865622096402 123.57868417743707
    vertex 373.7137289845757 158.25249432438085 123.25400780429703
  endloop
endfacet
facet normal -1.0 -2.5197544038160193e-14 -8.322902443298555e-16
  outer loop
    vertex 373.7137289845754 171.0436562209645 117.89326673973662
    vertex 373.7137289845757 158.25249432438085 123.25400780429703
    vertex 373.7137289845757 159.09365622096405 123.14326673973652
  endloop
endfacet
facet normal -1.0 -2.5197544038160193e-14 -8.322902443298555e-16
  outer loop
    vertex 373.7137289845757 156.79555918210778 124.09516970088022
    vertex 373.71372898457594 147.14365622096363 135.09326673973655
    vertex 373.71372898457577 156.2790736586646 124.76826673973653
  endloop
endfacet
facet normal -1.0 -2.5197544038160193e-14 -8.322902443298555e-16
  outer loop
    vertex 373.71372898457577 156.2790736586646 124.76826673973653
    vertex 373.71372898457594 147.14365622096363 135.09326673973655
    vertex 373.71372898457577 155.95439728552455 125.55210484315333
  endloop
endfacet
facet normal -1.0 -2.5197544038160193e-14 -8.322902443298555e-16
  outer loop
    vertex 373.71372898457577 155.95439728552455 125.55210484315333
    vertex 373.71372898457594 147.14365622096363 135.09326673973655
    vertex 373.71372898457577 155.84365622096405 126.39326673973652
  endloop
endfacet
facet normal -1.0 -2.5197544038160193e-14 -8.322902443298555e-16
  outer loop
    vertex 373.71372898457577 155.84365622096405 126.39326673973652
    vertex 373.71372898457594 147.14365622096363 135.09326673973655
    vertex 373.71372898457577 155.95439728552455 127.23442863631973
  endloop
endfacet
facet normal -1.0 -2.5197544038160193e-14 -8.322902443298555e-16
  outer loop
    vertex 373.71372898457577 155.95439728552455 127.23442863631973
    vertex 373.71372898457594 147.14365622096363 135.09326673973655
    vertex 373.71372898457577 156.27907365866466 128.01826673973653
  endloop
endfacet
facet normal -1.0 -2.5197544038160193e-14 -8.322902443298555e-16
  outer loop
    vertex 373.71372898457577 156.27907365866466 128.01826673973653
    vertex 373.71372898457594 147.14365622096363 135.09326673973655
    vertex 373.7137289845757 156.79555918210778 128.6913637785928
  endloop
endfacet
facet normal -1.0 -2.5197544038160193e-14 -8.322902443298555e-16
  outer loop
    vertex 373.7137289845757 156.79555918210778 128.6913637785928
    vertex 373.71372898457594 147.14365622096363 135.09326673973655
    vertex 373.7137289845757 157.46865622096408 129.20784930203595
  endloop
endfacet
facet normal -1.0 -2.5197544038160193e-14 -8.322902443298555e-16
  outer loop
    vertex 373.7137289845757 157.46865622096408 129.20784930203595
    vertex 373.71372898457594 147.14365622096363 135.09326673973655
    vertex 373.7137289845757 158.25249432438088 129.53252567517598
  endloop
endfacet
facet normal -1.0 -2.5197544038160193e-14 -8.322902443298555e-16
  outer loop
    vertex 373.7137289845757 158.25249432438088 129.53252567517598
    vertex 373.71372898457594 147.14365622096363 135.09326673973655
    vertex 373.7137289845757 159.09365622096408 129.64326673973653
  endloop
endfacet
facet normal -1.0 -2.5197544038160193e-14 -8.322902443298555e-16
  outer loop
    vertex 373.7137289845757 159.09365622096408 129.64326673973653
    vertex 373.71372898457594 147.14365622096363 135.09326673973655
    vertex 373.71372898457537 171.04365622096432 134.89326673973662
  endloop
endfacet
facet normal -1.0 -2.5197544038160193e-14 -8.322902443298555e-16
  outer loop
    vertex 373.71372898457537 171.04365622096432 134.89326673973662
    vertex 373.71372898457594 147.14365622096363 135.09326673973655
    vertex 373.71372898457537 171.04365622096432 135.0932667397367
  endloop
endfacet
facet normal -1.0 -2.5197544038160193e-14 -8.322902443298555e-16
  outer loop
    vertex 373.7137289845754 171.0436562209645 117.89326673973662
    vertex 373.71372898457565 161.39175325982032 124.09516970088025
    vertex 373.71372898457537 171.04365622096432 134.89326673973662
  endloop
endfacet
facet normal -1.0 -2.5197544038160193e-14 -8.322902443298555e-16
  outer loop
    vertex 373.71372898457565 161.39175325982032 124.09516970088025
    vertex 373.7137289845754 171.0436562209645 117.89326673973662
    vertex 373.71372898457565 160.71865622096402 123.5786841774371
  endloop
endfacet
facet normal -1.0 -2.5197544038160193e-14 -8.322902443298555e-16
  outer loop
    vertex 373.71372898457565 160.71865622096402 123.5786841774371
    vertex 373.7137289845754 171.0436562209645 117.89326673973662
    vertex 373.7137289845757 159.93481811754722 123.25400780429705
  endloop
endfacet
facet normal -1.0 -2.5197544038160193e-14 -8.322902443298555e-16
  outer loop
    vertex 373.7137289845757 159.93481811754722 123.25400780429705
    vertex 373.7137289845754 171.0436562209645 117.89326673973662
    vertex 373.7137289845757 159.09365622096405 123.14326673973652
  endloop
endfacet
facet normal -1.0 -2.5197544038160193e-14 -8.322902443298555e-16
  outer loop
    vertex 373.71372898457537 171.04365622096432 134.89326673973662
    vertex 373.71372898457565 161.39175325982032 124.09516970088025
    vertex 373.7137289845756 161.90823878326347 124.76826673973653
  endloop
endfacet
facet normal -1.0 -2.5197544038160193e-14 -8.322902443298555e-16
  outer loop
    vertex 373.71372898457537 171.04365622096432 134.89326673973662
    vertex 373.7137289845756 161.90823878326347 124.76826673973653
    vertex 373.7137289845756 162.23291515640352 125.55210484315333
  endloop
endfacet
facet normal -1.0 -2.5197544038160193e-14 -8.322902443298555e-16
  outer loop
    vertex 373.71372898457537 171.04365622096432 134.89326673973662
    vertex 373.7137289845756 162.23291515640352 125.55210484315333
    vertex 373.7137289845756 162.34365622096405 126.39326673973652
  endloop
endfacet
facet normal -1.0 -2.5197544038160193e-14 -8.322902443298555e-16
  outer loop
    vertex 373.71372898457537 171.04365622096432 134.89326673973662
    vertex 373.7137289845756 162.34365622096405 126.39326673973652
    vertex 373.7137289845756 162.23291515640352 127.2344286363197
  endloop
endfacet
facet normal -1.0 -2.5197544038160193e-14 -8.322902443298555e-16
  outer loop
    vertex 373.71372898457537 171.04365622096432 134.89326673973662
    vertex 373.7137289845756 162.23291515640352 127.2344286363197
    vertex 373.7137289845756 161.90823878326347 128.01826673973653
  endloop
endfacet
facet normal -1.0 -2.5197544038160193e-14 -8.322902443298555e-16
  outer loop
    vertex 373.71372898457537 171.04365622096432 134.89326673973662
    vertex 373.7137289845756 161.90823878326347 128.01826673973653
    vertex 373.71372898457565 161.39175325982035 128.6913637785928
  endloop
endfacet
facet normal -1.0 -2.5197544038160193e-14 -8.322902443298555e-16
  outer loop
    vertex 373.71372898457537 171.04365622096432 134.89326673973662
    vertex 373.71372898457565 161.39175325982035 128.6913637785928
    vertex 373.71372898457565 160.71865622096408 129.20784930203595
  endloop
endfacet
facet normal -1.0 -2.5197544038160193e-14 -8.322902443298555e-16
  outer loop
    vertex 373.71372898457537 171.04365622096432 134.89326673973662
    vertex 373.71372898457565 160.71865622096408 129.20784930203595
    vertex 373.7137289845757 159.93481811754725 129.532525675176
  endloop
endfacet
facet normal -1.0 -2.5197544038160193e-14 -8.322902443298555e-16
  outer loop
    vertex 373.71372898457537 171.04365622096432 134.89326673973662
    vertex 373.7137289845757 159.93481811754725 129.532525675176
    vertex 373.7137289845757 159.09365622096408 129.64326673973653
  endloop
endfacet
facet normal -2.198265734897458e-17 0.7071067811865461 -0.7071067811865489
  outer loop
    vertex 373.7137289845754 171.0436562209645 117.89326673973662
    vertex 376.71372898457537 168.0436562209645 114.89326673973665
    vertex 373.7137289845754 168.04365622096446 114.89326673973665
  endloop
endfacet
facet normal -2.198265734897458e-17 0.7071067811865461 -0.7071067811865489
  outer loop
    vertex 376.71372898457537 168.0436562209645 114.89326673973665
    vertex 373.7137289845754 171.0436562209645 117.89326673973662
    vertex 376.71372898457537 171.0436562209645 117.89326673973662
  endloop
endfacet
facet normal 1.595940923541546e-14 -0.7071067811865448 -0.7071067811865502
  outer loop
    vertex 373.7137289845759 150.14365622096375 114.89326673973652
    vertex 376.7137289845758 147.14365622096386 117.8932667397365
    vertex 373.713728984576 147.14365622096378 117.8932667397365
  endloop
endfacet
facet normal 1.595940923541546e-14 -0.7071067811865448 -0.7071067811865502
  outer loop
    vertex 376.7137289845758 147.14365622096386 117.8932667397365
    vertex 373.7137289845759 150.14365622096375 114.89326673973652
    vertex 376.7137289845757 150.14365622096383 114.89326673973653
  endloop
endfacet
facet normal 2.1874260575413649e-16 -1.7505697551388376e-15 -1.0
  outer loop
    vertex 367.14678337788195 174.14365622096366 161.9932667397367
    vertex 373.71372898457577 160.14365622096363 161.99326673973698
    vertex 367.14678337788183 160.14365622096363 161.99326673973698
  endloop
endfacet
facet normal 2.1874260575413649e-16 -1.7505697551388376e-15 -1.0
  outer loop
    vertex 373.71372898457577 160.14365622096363 161.99326673973698
    vertex 367.14678337788195 174.14365622096366 161.9932667397367
    vertex 373.7137289845758 174.14365622096366 161.9932667397367
  endloop
endfacet
facet normal 2.1874260575413649e-16 -1.7505697551388376e-15 -1.0
  outer loop
    vertex 367.1467833778814 205.94365622096365 161.99326673973664
    vertex 373.71372898457565 191.94365622096362 161.99326673973667
    vertex 367.1467833778816 191.94365622096362 161.99326673973667
  endloop
endfacet
facet normal 2.1874260575413649e-16 -1.7505697551388376e-15 -1.0
  outer loop
    vertex 373.71372898457565 191.94365622096362 161.99326673973667
    vertex 367.1467833778814 205.94365622096365 161.99326673973664
    vertex 373.7137289845759 205.94365622096373 161.99326673973664
  endloop
endfacet
facet normal -2.1554538662975533e-14 0.7933533402912364 -0.6087614290087191
  outer loop
    vertex 373.71372898457577 156.27907365866466 128.01826673973653
    vertex 376.7137289845758 156.79555918210778 128.6913637785928
    vertex 376.7137289845759 156.27907365866466 128.01826673973653
  endloop
endfacet
facet normal -2.1554538662975533e-14 0.7933533402912364 -0.6087614290087191
  outer loop
    vertex 376.7137289845758 156.79555918210778 128.6913637785928
    vertex 373.71372898457577 156.27907365866466 128.01826673973653
    vertex 373.7137289845757 156.79555918210778 128.6913637785928
  endloop
endfacet
facet normal -1.6539379229537012e-14 0.6087614290087191 -0.7933533402912364
  outer loop
    vertex 373.7137289845757 157.46865622096408 129.20784930203595
    vertex 376.7137289845758 156.79555918210778 128.6913637785928
    vertex 373.7137289845757 156.79555918210778 128.6913637785928
  endloop
endfacet
facet normal -1.6539379229537012e-14 0.6087614290087191 -0.7933533402912364
  outer loop
    vertex 376.7137289845758 156.79555918210778 128.6913637785928
    vertex 373.7137289845757 157.46865622096408 129.20784930203595
    vertex 376.7137289845758 157.46865622096408 129.20784930203595
  endloop
endfacet
facet normal -1.0397088434222175e-14 0.3826834323650905 -0.9238795325112866
  outer loop
    vertex 373.7137289845757 158.25249432438088 129.53252567517598
    vertex 376.7137289845758 157.46865622096408 129.20784930203595
    vertex 373.7137289845757 157.46865622096408 129.20784930203595
  endloop
endfacet
facet normal -1.0397088434222175e-14 0.3826834323650905 -0.9238795325112866
  outer loop
    vertex 376.7137289845758 157.46865622096408 129.20784930203595
    vertex 373.7137289845757 158.25249432438088 129.53252567517598
    vertex 376.71372898457577 158.25249432438088 129.53252567517598
  endloop
endfacet
facet normal -3.5462532441161088e-15 0.13052619222005366 -0.9914448613738102
  outer loop
    vertex 373.7137289845757 159.09365622096408 129.64326673973653
    vertex 376.71372898457577 158.25249432438088 129.53252567517598
    vertex 373.7137289845757 158.25249432438088 129.53252567517598
  endloop
endfacet
facet normal -3.5462532441161088e-15 0.13052619222005366 -0.9914448613738102
  outer loop
    vertex 376.71372898457577 158.25249432438088 129.53252567517598
    vertex 373.7137289845757 159.09365622096408 129.64326673973653
    vertex 376.71372898457577 159.09365622096408 129.64326673973653
  endloop
endfacet
facet normal 3.5462532441160393e-15 -0.13052619222005366 -0.9914448613738102
  outer loop
    vertex 373.7137289845757 159.93481811754725 129.532525675176
    vertex 376.71372898457577 159.09365622096408 129.64326673973653
    vertex 373.7137289845757 159.09365622096408 129.64326673973653
  endloop
endfacet
facet normal 3.5462532441160393e-15 -0.13052619222005366 -0.9914448613738102
  outer loop
    vertex 376.71372898457577 159.09365622096408 129.64326673973653
    vertex 373.7137289845757 159.93481811754725 129.532525675176
    vertex 376.71372898457577 159.93481811754725 129.532525675176
  endloop
endfacet
facet normal 1.0397088434221855e-14 -0.382683432365081 -0.9238795325112904
  outer loop
    vertex 373.71372898457565 160.71865622096408 129.20784930203595
    vertex 376.71372898457577 159.93481811754725 129.532525675176
    vertex 373.7137289845757 159.93481811754725 129.532525675176
  endloop
endfacet
facet normal 1.0397088434221855e-14 -0.382683432365081 -0.9238795325112904
  outer loop
    vertex 376.71372898457577 159.93481811754725 129.532525675176
    vertex 373.71372898457565 160.71865622096408 129.20784930203595
    vertex 376.7137289845757 160.71865622096408 129.20784930203595
  endloop
endfacet
facet normal 1.65393792295373e-14 -0.6087614290087319 -0.7933533402912266
  outer loop
    vertex 373.71372898457565 161.39175325982035 128.6913637785928
    vertex 376.7137289845757 160.71865622096408 129.20784930203595
    vertex 373.71372898457565 160.71865622096408 129.20784930203595
  endloop
endfacet
facet normal 1.65393792295373e-14 -0.6087614290087319 -0.7933533402912266
  outer loop
    vertex 376.7137289845757 160.71865622096408 129.20784930203595
    vertex 373.71372898457565 161.39175325982035 128.6913637785928
    vertex 376.7137289845757 161.39175325982035 128.6913637785928
  endloop
endfacet
facet normal 2.1554538662975495e-14 -0.7933533402912364 -0.6087614290087191
  outer loop
    vertex 373.71372898457565 161.39175325982035 128.6913637785928
    vertex 376.71372898457565 161.90823878326347 128.01826673973653
    vertex 376.7137289845757 161.39175325982035 128.6913637785928
  endloop
endfacet
facet normal 2.1554538662975495e-14 -0.7933533402912364 -0.6087614290087191
  outer loop
    vertex 376.71372898457565 161.90823878326347 128.01826673973653
    vertex 373.71372898457565 161.39175325982035 128.6913637785928
    vertex 373.7137289845756 161.90823878326347 128.01826673973653
  endloop
endfacet
facet normal 2.510079190709128e-14 -0.9238795325112792 -0.3826834323651085
  outer loop
    vertex 373.7137289845756 161.90823878326347 128.01826673973653
    vertex 376.71372898457565 162.23291515640355 127.2344286363197
    vertex 376.71372898457565 161.90823878326347 128.01826673973653
  endloop
endfacet
facet normal 2.510079190709128e-14 -0.9238795325112792 -0.3826834323651085
  outer loop
    vertex 376.71372898457565 162.23291515640355 127.2344286363197
    vertex 373.7137289845756 161.90823878326347 128.01826673973653
    vertex 373.7137289845756 162.23291515640352 127.2344286363197
  endloop
endfacet
facet normal 2.6936467663759192e-14 -0.9914448613738119 -0.1305261922200406
  outer loop
    vertex 373.7137289845756 162.23291515640352 127.2344286363197
    vertex 376.71372898457565 162.34365622096405 126.39326673973652
    vertex 376.71372898457565 162.23291515640355 127.2344286363197
  endloop
endfacet
facet normal 2.6936467663759192e-14 -0.9914448613738119 -0.1305261922200406
  outer loop
    vertex 376.71372898457565 162.34365622096405 126.39326673973652
    vertex 373.7137289845756 162.23291515640352 127.2344286363197
    vertex 373.7137289845756 162.34365622096405 126.39326673973652
  endloop
endfacet
facet normal 2.6936467663759198e-14 -0.9914448613738119 0.1305261922200406
  outer loop
    vertex 373.7137289845756 162.34365622096405 126.39326673973652
    vertex 376.71372898457565 162.23291515640352 125.55210484315333
    vertex 376.71372898457565 162.34365622096405 126.39326673973652
  endloop
endfacet
facet normal 2.6936467663759198e-14 -0.9914448613738119 0.1305261922200406
  outer loop
    vertex 376.71372898457565 162.23291515640352 125.55210484315333
    vertex 373.7137289845756 162.34365622096405 126.39326673973652
    vertex 373.7137289845756 162.23291515640352 125.55210484315333
  endloop
endfacet
facet normal 2.5100791907091308e-14 -0.9238795325112792 0.3826834323651085
  outer loop
    vertex 373.7137289845756 162.23291515640352 125.55210484315333
    vertex 376.71372898457565 161.90823878326347 124.76826673973653
    vertex 376.71372898457565 162.23291515640352 125.55210484315333
  endloop
endfacet
facet normal 2.5100791907091308e-14 -0.9238795325112792 0.3826834323651085
  outer loop
    vertex 376.71372898457565 161.90823878326347 124.76826673973653
    vertex 373.7137289845756 162.23291515640352 125.55210484315333
    vertex 373.7137289845756 161.90823878326347 124.76826673973653
  endloop
endfacet
facet normal 2.1554538662975533e-14 -0.7933533402912364 0.6087614290087191
  outer loop
    vertex 376.71372898457565 161.90823878326347 124.76826673973653
    vertex 373.71372898457565 161.39175325982032 124.09516970088025
    vertex 376.7137289845757 161.39175325982032 124.09516970088025
  endloop
endfacet
facet normal 2.1554538662975533e-14 -0.7933533402912364 0.6087614290087191
  outer loop
    vertex 373.71372898457565 161.39175325982032 124.09516970088025
    vertex 376.71372898457565 161.90823878326347 124.76826673973653
    vertex 373.7137289845756 161.90823878326347 124.76826673973653
  endloop
endfacet
facet normal 1.6539379229537012e-14 -0.6087614290087191 0.7933533402912364
  outer loop
    vertex 376.7137289845757 161.39175325982032 124.09516970088025
    vertex 373.71372898457565 160.71865622096402 123.5786841774371
    vertex 376.7137289845757 160.71865622096402 123.5786841774371
  endloop
endfacet
facet normal 1.6539379229537012e-14 -0.6087614290087191 0.7933533402912364
  outer loop
    vertex 373.71372898457565 160.71865622096402 123.5786841774371
    vertex 376.7137289845757 161.39175325982032 124.09516970088025
    vertex 373.71372898457565 161.39175325982032 124.09516970088025
  endloop
endfacet
facet normal 1.0397088434222175e-14 -0.3826834323650905 0.9238795325112866
  outer loop
    vertex 376.7137289845757 160.71865622096402 123.5786841774371
    vertex 373.7137289845757 159.93481811754722 123.25400780429705
    vertex 376.71372898457577 159.93481811754722 123.25400780429705
  endloop
endfacet
facet normal 1.0397088434222175e-14 -0.3826834323650905 0.9238795325112866
  outer loop
    vertex 373.7137289845757 159.93481811754722 123.25400780429705
    vertex 376.7137289845757 160.71865622096402 123.5786841774371
    vertex 373.71372898457565 160.71865622096402 123.5786841774371
  endloop
endfacet
facet normal 3.5462532441161088e-15 -0.13052619222005366 0.9914448613738102
  outer loop
    vertex 376.71372898457577 159.93481811754722 123.25400780429705
    vertex 373.7137289845757 159.09365622096405 123.14326673973652
    vertex 376.71372898457577 159.09365622096405 123.14326673973652
  endloop
endfacet
facet normal 3.5462532441161088e-15 -0.13052619222005366 0.9914448613738102
  outer loop
    vertex 373.7137289845757 159.09365622096405 123.14326673973652
    vertex 376.71372898457577 159.93481811754722 123.25400780429705
    vertex 373.7137289845757 159.93481811754722 123.25400780429705
  endloop
endfacet
facet normal -3.5462532441160393e-15 0.13052619222005366 0.9914448613738102
  outer loop
    vertex 376.71372898457577 159.09365622096405 123.14326673973652
    vertex 373.7137289845757 158.25249432438085 123.25400780429703
    vertex 376.71372898457577 158.25249432438085 123.25400780429703
  endloop
endfacet
facet normal -3.5462532441160393e-15 0.13052619222005366 0.9914448613738102
  outer loop
    vertex 373.7137289845757 158.25249432438085 123.25400780429703
    vertex 376.71372898457577 159.09365622096405 123.14326673973652
    vertex 373.7137289845757 159.09365622096405 123.14326673973652
  endloop
endfacet
facet normal -1.0397088434221855e-14 0.382683432365081 0.9238795325112904
  outer loop
    vertex 376.71372898457577 158.25249432438085 123.25400780429703
    vertex 373.7137289845757 157.46865622096402 123.57868417743707
    vertex 376.7137289845758 157.46865622096402 123.57868417743707
  endloop
endfacet
facet normal -1.0397088434221855e-14 0.382683432365081 0.9238795325112904
  outer loop
    vertex 373.7137289845757 157.46865622096402 123.57868417743707
    vertex 376.71372898457577 158.25249432438085 123.25400780429703
    vertex 373.7137289845757 158.25249432438085 123.25400780429703
  endloop
endfacet
facet normal -1.65393792295373e-14 0.6087614290087319 0.7933533402912266
  outer loop
    vertex 376.7137289845758 157.46865622096402 123.57868417743707
    vertex 373.7137289845757 156.79555918210778 124.09516970088022
    vertex 376.7137289845758 156.79555918210778 124.09516970088025
  endloop
endfacet
facet normal -1.65393792295373e-14 0.6087614290087319 0.7933533402912266
  outer loop
    vertex 373.7137289845757 156.79555918210778 124.09516970088022
    vertex 376.7137289845758 157.46865622096402 123.57868417743707
    vertex 373.7137289845757 157.46865622096402 123.57868417743707
  endloop
endfacet
facet normal -2.1554538662975142e-14 0.7933533402912235 0.6087614290087358
  outer loop
    vertex 376.7137289845758 156.79555918210778 124.09516970088025
    vertex 373.71372898457577 156.2790736586646 124.76826673973653
    vertex 376.7137289845759 156.2790736586646 124.76826673973653
  endloop
endfacet
facet normal -2.1554538662975142e-14 0.7933533402912235 0.6087614290087358
  outer loop
    vertex 373.71372898457577 156.2790736586646 124.76826673973653
    vertex 376.7137289845758 156.79555918210778 124.09516970088025
    vertex 373.7137289845757 156.79555918210778 124.09516970088022
  endloop
endfacet
facet normal -2.5100791907091532e-14 0.9238795325112884 0.3826834323650857
  outer loop
    vertex 373.71372898457577 156.2790736586646 124.76826673973653
    vertex 376.7137289845759 155.95439728552455 125.55210484315333
    vertex 376.7137289845759 156.2790736586646 124.76826673973653
  endloop
endfacet
facet normal -2.5100791907091532e-14 0.9238795325112884 0.3826834323650857
  outer loop
    vertex 376.7137289845759 155.95439728552455 125.55210484315333
    vertex 373.71372898457577 156.2790736586646 124.76826673973653
    vertex 373.71372898457577 155.95439728552455 125.55210484315333
  endloop
endfacet
facet normal -2.6936467663759192e-14 0.9914448613738119 0.1305261922200406
  outer loop
    vertex 373.71372898457577 155.95439728552455 125.55210484315333
    vertex 376.7137289845759 155.84365622096405 126.39326673973652
    vertex 376.7137289845759 155.95439728552455 125.55210484315333
  endloop
endfacet
facet normal -2.6936467663759192e-14 0.9914448613738119 0.1305261922200406
  outer loop
    vertex 376.7137289845759 155.84365622096405 126.39326673973652
    vertex 373.71372898457577 155.95439728552455 125.55210484315333
    vertex 373.71372898457577 155.84365622096405 126.39326673973652
  endloop
endfacet
facet normal -2.69364676637592e-14 0.9914448613738122 -0.1305261922200389
  outer loop
    vertex 373.71372898457577 155.84365622096405 126.39326673973652
    vertex 376.7137289845759 155.95439728552458 127.23442863631973
    vertex 376.7137289845759 155.84365622096405 126.39326673973652
  endloop
endfacet
facet normal -2.69364676637592e-14 0.9914448613738122 -0.1305261922200389
  outer loop
    vertex 376.7137289845759 155.95439728552458 127.23442863631973
    vertex 373.71372898457577 155.84365622096405 126.39326673973652
    vertex 373.71372898457577 155.95439728552455 127.23442863631973
  endloop
endfacet
facet normal -2.5100791907091255e-14 0.9238795325112771 -0.3826834323651131
  outer loop
    vertex 373.71372898457577 155.95439728552455 127.23442863631973
    vertex 376.7137289845759 156.27907365866466 128.01826673973653
    vertex 376.7137289845759 155.95439728552458 127.23442863631973
  endloop
endfacet
facet normal -2.5100791907091255e-14 0.9238795325112771 -0.3826834323651131
  outer loop
    vertex 376.7137289845759 156.27907365866466 128.01826673973653
    vertex 373.71372898457577 155.95439728552455 127.23442863631973
    vertex 373.71372898457577 156.27907365866466 128.01826673973653
  endloop
endfacet
endsolid Main
